<?xml version="1.0" standalone="no"?>
<!DOCTYPE svg PUBLIC "-//W3C//DTD SVG 1.1//EN" "http://www.w3.org/Graphics/SVG/1.1/DTD/svg11.dtd" >
<svg xmlns="http://www.w3.org/2000/svg" xmlns:xlink="http://www.w3.org/1999/xlink" version="1.1">
<metadata>
Created by FontForge 20170731 at Thu Mar 24 21:45:02 2022
 By Aleksey,,,
Copyright (c) 2014 by Christophe Badani. All rights reserved.
</metadata>
<defs>
<font id="Weber-MediumItalic" horiz-adv-x="1114" >
  <font-face 
    font-family="Weber Medium"
    font-weight="500"
    font-style="italic"
    font-stretch="normal"
    units-per-em="2048"
    panose-1="0 0 6 0 0 0 0 0 0 0"
    ascent="1536"
    descent="-512"
    x-height="1010"
    cap-height="1290"
    bbox="-279 -512 2335.34 1870"
    underline-thickness="102"
    underline-position="-307"
    slope="-9"
    unicode-range="U+0020-FB02"
  />
<missing-glyph horiz-adv-x="1574" 
d="M1581 1589q87 0 135 -46t35 -124q-6 -42 -26 -69t-43.5 -39t-47.5 -22t-41.5 -25.5t-21.5 -40.5l-2 -15l-117 -2l4 25q7 46 27 74.5t43.5 40t46.5 20t40.5 22.5t20.5 39q5 30 -10 47t-45 17q-35 0 -58.5 -17.5t-29.5 -43.5l-113 6q16 70 68.5 111.5t134.5 41.5zM922 1315
q115 0 209 -36t155.5 -99t101.5 -150.5t47 -190t-8 -216.5q-21 -134 -78 -251t-143.5 -205.5t-206 -140t-256.5 -51.5q-191 0 -318 93.5t-173 247t-16 343.5q17 107 56.5 204.5t101.5 180t140 143t177.5 94.5t210.5 34zM1507 1178q27 0 44.5 -19t11.5 -51q-4 -26 -23 -40.5
t-41 -14.5q-27 0 -44 18.5t-11 50.5q4 28 22 42t41 14zM932 1174q-149 0 -268.5 -72.5t-193 -196t-99.5 -282.5q-23 -147 8.5 -259.5t122 -179.5t231.5 -67q149 0 269 71.5t193 193t97 277.5q23 150 -8 264.5t-121 182.5t-231 68zM686 958q57 0 90.5 -44t24.5 -107
q-7 -49 -43.5 -83t-81.5 -34q-59 0 -94 45t-25 109q9 48 45.5 81t83.5 33zM1047 958q58 0 92.5 -44t25.5 -107q-8 -50 -45 -83.5t-84 -33.5q-58 0 -92 45t-22 109q7 47 44 80.5t81 33.5zM811 602q142 0 212 -86t50 -211l-186 17q5 47 -12 77.5t-60 30.5q-56 0 -94 -39.5
t-45 -85.5l-191 17q21 125 107.5 202.5t218.5 77.5z" />
    <glyph glyph-name="fi" unicode="fi" horiz-adv-x="983" 
d="M760 1466q140 0 295 -49l-37 -227q-148 41 -236 41q-60 0 -107 -15t-81.5 -53t-42.5 -98l-6 -55h485l-160 -1010h-270l121 782h-215l-129 -800q-18 -108 -59 -186t-98.5 -122t-121.5 -64t-139 -20q-117 0 -238 43l37 222q104 -33 170 -33q154 0 178 160l173 1083
q17 109 63 189t112.5 125t142 66t163.5 21z" />
    <glyph glyph-name="fl" unicode="fl" horiz-adv-x="1132" 
d="M676 1432q66 0 145 -15l-24 -237q-58 8 -78 8q-77 0 -119 -33t-49 -106l-6 -39h186l-41 -228h-184l-129 -800q-18 -108 -59 -186t-98.5 -122t-121.5 -64t-139 -20q-117 0 -238 43l37 222q104 -33 170 -33q154 0 178 160l173 1083q60 367 397 367zM1153 1403l-178 -1116
q-14 -86 57 -86q45 0 113 30l-37 -219q-82 -37 -186 -37q-51 0 -93.5 12.5t-78 41t-50.5 83.5t-2 130l185 1161h270z" />
    <glyph glyph-name=".notdef" horiz-adv-x="1574" 
d="M1581 1589q87 0 135 -46t35 -124q-6 -42 -26 -69t-43.5 -39t-47.5 -22t-41.5 -25.5t-21.5 -40.5l-2 -15l-117 -2l4 25q7 46 27 74.5t43.5 40t46.5 20t40.5 22.5t20.5 39q5 30 -10 47t-45 17q-35 0 -58.5 -17.5t-29.5 -43.5l-113 6q16 70 68.5 111.5t134.5 41.5zM922 1315
q115 0 209 -36t155.5 -99t101.5 -150.5t47 -190t-8 -216.5q-21 -134 -78 -251t-143.5 -205.5t-206 -140t-256.5 -51.5q-191 0 -318 93.5t-173 247t-16 343.5q17 107 56.5 204.5t101.5 180t140 143t177.5 94.5t210.5 34zM1507 1178q27 0 44.5 -19t11.5 -51q-4 -26 -23 -40.5
t-41 -14.5q-27 0 -44 18.5t-11 50.5q4 28 22 42t41 14zM932 1174q-149 0 -268.5 -72.5t-193 -196t-99.5 -282.5q-23 -147 8.5 -259.5t122 -179.5t231.5 -67q149 0 269 71.5t193 193t97 277.5q23 150 -8 264.5t-121 182.5t-231 68zM686 958q57 0 90.5 -44t24.5 -107
q-7 -49 -43.5 -83t-81.5 -34q-59 0 -94 45t-25 109q9 48 45.5 81t83.5 33zM1047 958q58 0 92.5 -44t25.5 -107q-8 -50 -45 -83.5t-84 -33.5q-58 0 -92 45t-22 109q7 47 44 80.5t81 33.5zM811 602q142 0 212 -86t50 -211l-186 17q5 47 -12 77.5t-60 30.5q-56 0 -94 -39.5
t-45 -85.5l-191 17q21 125 107.5 202.5t218.5 77.5z" />
    <glyph glyph-name=".null" horiz-adv-x="0" 
 />
    <glyph glyph-name="nonmarkingreturn" horiz-adv-x="682" 
 />
    <glyph glyph-name="space" unicode=" " horiz-adv-x="425" 
 />
    <glyph glyph-name="exclam" unicode="!" horiz-adv-x="602" 
d="M508 360h-293l143 930h295zM354 287q68 0 111 -47t29 -127q-10 -65 -56.5 -101.5t-101.5 -36.5q-68 0 -111 47.5t-30 127.5q11 66 57 101.5t102 35.5z" />
    <glyph glyph-name="quotedbl" unicode="&#x22;" horiz-adv-x="743" 
d="M459 827h-213l73 463h213zM758 827h-215l75 463h216z" />
    <glyph glyph-name="numbersign" unicode="#" horiz-adv-x="1331" 
d="M1272 1020h155l-43 -242h-215l-118 -299h168l-41 -243h-224l-90 -236h-282l92 236h-160l-90 -236h-279l91 236h-134l43 243h197l117 303h-164l41 238h219l107 270h280l-106 -270h157l109 270h276zM723 801l-131 -338h196l130 338h-195z" />
    <glyph glyph-name="dollar" unicode="$" horiz-adv-x="1138" 
d="M772 1069q-87 0 -143 -42.5t-66 -121.5q-5 -37 14 -63.5t55.5 -43.5t85 -30.5t102 -28t106.5 -32t99 -46t78.5 -66.5t46 -98.5t1.5 -136.5q-26 -165 -145 -263t-316 -117l-43 -256h-248l45 268q-157 34 -231 137t-63 252l262 -19q0 -139 198 -139q214 0 234 162
q5 30 -15 51.5t-57 34t-86 25t-102.5 24.5t-106.5 32t-98.5 48.5t-78 73.5t-45 107t0.5 149q24 148 129 243t262 127l43 277h250l-43 -270q166 -27 242.5 -133t62.5 -259l-276 19q-3 135 -154 135z" />
    <glyph glyph-name="percent" unicode="%" horiz-adv-x="1656" 
d="M616 -63l-198 22l852 1458l176 -47zM528 1305q73 0 126.5 -33t79 -87t35 -123t-4.5 -140q-11 -66 -35.5 -125t-62.5 -108t-95 -78t-125 -29q-96 0 -156.5 54.5t-78.5 138t-2 183.5q10 66 35.5 126.5t64.5 110.5t96 80t123 30zM528 1114q-89 0 -118 -196q-14 -64 -8 -105
t42 -41q52 0 78.5 47.5t38.5 134.5q15 68 10 114t-43 46zM1425 711q73 0 126.5 -33t79 -87t35 -123t-4.5 -140q-11 -66 -35.5 -125t-62.5 -108t-95 -78t-125 -29q-96 0 -156.5 55t-78.5 138.5t-2 183.5q10 66 35.5 126t64.5 110t96 80t123 30zM1425 520q-89 0 -118 -196
q-14 -64 -8 -105t42 -41q52 0 78.5 47.5t38.5 134.5q4 28 6 43.5t4 37.5t0 33.5t-6 23.5t-13.5 17t-23.5 5z" />
    <glyph glyph-name="ampersand" unicode="&#x26;" horiz-adv-x="1273" 
d="M733 1315q127 0 212 -51t116.5 -129t15.5 -170q-30 -185 -293 -330l90 -152q26 56 39 148l252 -17q-18 -104 -54.5 -196.5t-76.5 -147.5l205 -270l-321 2l-74 100q-134 -127 -314 -127q-141 0 -235.5 54.5t-131 144t-18.5 201.5q17 105 76.5 184.5t169.5 145.5
q-46 73 -66 140.5t-8 149.5q22 140 139.5 230t276.5 90zM729 1102q-46 0 -81 -39t-44 -107q-8 -72 31 -157q61 32 104 85t52 113q8 47 -8.5 76t-53.5 29zM690 289l-145 231q-47 -35 -75 -75t-36 -101q-9 -68 22 -104.5t87 -36.5q40 0 79 24.5t68 61.5z" />
    <glyph glyph-name="quotesingle" unicode="'" horiz-adv-x="479" 
d="M494 827h-248l73 463h250z" />
    <glyph glyph-name="parenleft" unicode="(" horiz-adv-x="671" 
d="M692 1675l193 -147q-57 -77 -93.5 -130t-92.5 -146t-92.5 -176.5t-72.5 -198.5t-55 -234q-18 -114 -18.5 -223t10.5 -193.5t34.5 -172t46.5 -146.5t54 -129l-221 -119q-40 78 -70.5 150.5t-61 175.5t-46 204t-15.5 229.5t21 260.5q25 157 76 305t121 274t136 222.5
t146 193.5z" />
    <glyph glyph-name="parenright" unicode=")" horiz-adv-x="671" 
d="M-43 -340l-193 147q73 97 121 170t111.5 188t108 248t67.5 281q17 114 17.5 223t-10.5 194t-34 172t-46 147t-54 129l221 116q40 -78 70.5 -150.5t61 -174.5t45.5 -203.5t15.5 -229.5t-20.5 -260q-25 -156 -76.5 -305t-121.5 -275t-136.5 -222.5t-146.5 -194.5z" />
    <glyph glyph-name="asterisk" unicode="*" horiz-adv-x="600" 
d="M537 1126l143 66l25 -145l-154 -35l86 -125l-131 -92l-51 145l-99 -145l-112 90l116 125l-139 34l70 146l127 -64l12 164h152z" />
    <glyph glyph-name="plus" unicode="+" horiz-adv-x="952" 
d="M940 498h-258l-49 -305h-254l49 305h-266l45 254h262l49 305h252l-49 -305h266z" />
    <glyph glyph-name="comma" unicode="," horiz-adv-x="548" 
d="M258 -385l188 584h-258l-188 -584h258z" />
    <glyph glyph-name="hyphen" unicode="-" horiz-adv-x="903" 
d="M819 487h-586l43 252h586z" />
    <glyph glyph-name="period" unicode="." horiz-adv-x="442" 
d="M254 287q67 0 109.5 -46.5t29.5 -127.5q-11 -65 -57.5 -101.5t-102.5 -36.5q-68 0 -110.5 47.5t-28.5 127.5q11 66 57.5 101.5t102.5 35.5z" />
    <glyph glyph-name="slash" unicode="/" horiz-adv-x="1079" 
d="M1253 1520l-1007 -1739l-201 74l1004 1738z" />
    <glyph glyph-name="zero" unicode="0" horiz-adv-x="1144" 
d="M756 1315q104 0 184.5 -38.5t128.5 -105t77 -155t30 -188t-13 -205.5q-16 -99 -48 -191.5t-83.5 -176.5t-117 -145.5t-153 -98t-186.5 -36.5q-103 0 -183.5 38t-129 103.5t-78 153.5t-31 187t12.5 205q20 126 67.5 241t120 208t177 148.5t225.5 55.5zM741 1049
q-62 0 -111.5 -34t-83.5 -95t-56.5 -135.5t-36.5 -166.5q-60 -374 135 -374q224 0 289 411q13 87 14 153t-11 123t-47 87.5t-92 30.5z" />
    <glyph glyph-name="one" unicode="1" horiz-adv-x="647" 
d="M522 0h-293l156 1020h-172l49 270h465z" />
    <glyph glyph-name="two" unicode="2" horiz-adv-x="1142" 
d="M752 1315q102 0 186.5 -29t143.5 -83.5t84.5 -138.5t9.5 -187q-13 -83 -50.5 -148.5t-88 -106t-112 -74t-123 -53t-121 -42t-106 -42.5t-77.5 -52.5t-37 -73.5v-15h600l-47 -270h-895l41 248q15 96 54 172t90.5 123t113.5 85t124 61t122 48t107.5 48t79 59.5t38.5 83.5
q9 67 -23 104t-106 37q-84 0 -142.5 -44t-78.5 -110l-279 19q39 177 161.5 279t330.5 102z" />
    <glyph glyph-name="three" unicode="3" horiz-adv-x="1126" 
d="M713 1315q133 0 236.5 -49t157.5 -145t34 -222q-11 -70 -59 -135t-124 -105q76 -31 114 -103.5t20 -180.5q-13 -81 -50 -147.5t-89 -113t-119 -78t-140 -46.5t-151 -15q-96 0 -173.5 22t-129 60t-84 89.5t-43.5 110.5t-2 124l264 -19q2 -73 43 -106t139 -33q102 0 171 49
t81 138q9 56 -34 91.5t-132 35.5h-203l37 223h174q83 0 137 49t66 129q9 61 -29.5 96t-115.5 35q-83 0 -136.5 -43.5t-72.5 -110.5l-279 19q14 81 52 149t98 120.5t148 82t194 29.5z" />
    <glyph glyph-name="four" unicode="4" horiz-adv-x="1183" 
d="M485 500h281l41 286h293l-41 -286h119l-43 -271h-121l-37 -229h-293l37 229h-655l47 242l569 819h356z" />
    <glyph glyph-name="five" unicode="5" horiz-adv-x="1136" 
d="M1130 1020h-501l-62 -240q80 58 197 58q78 0 146 -27.5t118.5 -79.5t72.5 -134.5t5 -184.5q-14 -89 -53 -163.5t-91.5 -124t-116.5 -84t-128 -50t-127 -15.5q-96 0 -173.5 22t-129 60t-84 89.5t-43.5 110.5t-2 124l264 -19q1 -71 44 -108t109 -37q86 0 157.5 63t86.5 160
q13 80 -28 131.5t-113 51.5q-60 0 -119.5 -30.5t-103.5 -84.5l-199 92l164 690h758z" />
    <glyph glyph-name="six" unicode="6" horiz-adv-x="1232" 
d="M823 854q97 0 176.5 -31.5t132 -88t74.5 -138.5t6 -178q-31 -195 -177.5 -319t-356.5 -124q-181 0 -299 87t-160.5 242.5t-9.5 361.5q16 100 51.5 192t95.5 176t138 146t187.5 98.5t236.5 36.5q155 0 280 -47l-115 -244q-30 9 -96 17t-100 8q-125 0 -212.5 -68
t-135.5 -190q151 63 284 63zM924 444q10 73 -33.5 117.5t-120.5 44.5q-122 0 -281 -96q3 -131 59.5 -199.5t139.5 -68.5q96 0 160.5 58t75.5 144z" />
    <glyph glyph-name="seven" unicode="7" horiz-adv-x="1062" 
d="M1186 1034l-727 -1034h-363l715 1020h-588l47 270h959z" />
    <glyph glyph-name="eight" unicode="8" horiz-adv-x="1179" 
d="M782 1313q100 0 181.5 -25t139.5 -73t83.5 -126.5t9.5 -179.5q-13 -76 -51 -144t-101 -108q52 -26 84 -107t13 -183q-15 -94 -60 -166t-101 -112.5t-127.5 -66t-130.5 -34t-120 -8.5q-45 0 -89 5t-93.5 18t-90.5 34t-79.5 53.5t-60 76.5t-32.5 103t3 133
q15 93 65.5 166.5t120.5 106.5q-44 37 -62.5 111.5t-4.5 158.5q15 94 60.5 165.5t113.5 115t151 65t178 21.5zM768 1049q-84 0 -143 -42.5t-68 -109.5q-7 -54 31.5 -85.5t109.5 -31.5q84 0 143 42.5t68 111.5q8 53 -30.5 84t-110.5 31zM692 543q-99 0 -158.5 -44.5
t-70.5 -121.5q-10 -65 28.5 -98t122.5 -33q98 0 158 43.5t72 124.5q9 62 -30 95.5t-122 33.5z" />
    <glyph glyph-name="nine" unicode="9" horiz-adv-x="1232" 
d="M723 1315q271 0 394 -188t73 -500q-16 -101 -51 -193t-95 -177t-138 -146.5t-187.5 -98.5t-237.5 -37q-152 0 -280 48l114 245q30 -10 95 -17t104 -7q123 0 210.5 68t135.5 188q-154 -64 -282 -64q-198 0 -311 121.5t-81 316.5q31 193 178.5 317t358.5 124zM475 846
q-10 -73 33.5 -117.5t122.5 -44.5q122 0 278 98q-4 131 -60 200t-138 69q-95 0 -159 -59t-77 -146z" />
    <glyph glyph-name="colon" unicode=":" horiz-adv-x="442" 
d="M389 1034q68 0 110.5 -46.5t28.5 -127.5q-10 -65 -55.5 -100t-101.5 -35q-68 0 -111.5 46.5t-30.5 125.5q11 66 57.5 101.5t102.5 35.5zM274 287q68 0 110.5 -47t29.5 -127q-11 -65 -57.5 -101.5t-102.5 -36.5q-68 0 -110.5 47.5t-28.5 127.5q11 66 57 101.5t102 35.5z
" />
    <glyph glyph-name="semicolon" unicode=";" horiz-adv-x="569" 
d="M451 1034q69 0 111.5 -46t29.5 -128q-11 -65 -57.5 -100t-102.5 -35q-68 0 -111 46.5t-30 125.5q11 66 57.5 101.5t102.5 35.5zM279 -385l188 584h-258l-189 -584h259z" />
    <glyph glyph-name="less" unicode="&#x3c;" horiz-adv-x="960" 
d="M735 782l-448 -157l489 -158l45 -252l-825 301l-19 109l-20 108l733 303z" />
    <glyph glyph-name="equal" unicode="=" horiz-adv-x="950" 
d="M979 733h-780l45 254h780zM901 262h-778l45 254h780z" />
    <glyph glyph-name="greater" unicode="&#x3e;" horiz-adv-x="950" 
d="M983 733l-20 -108l-19 -109l-823 -301l43 252l489 158l-446 157l43 254z" />
    <glyph glyph-name="question" unicode="?" horiz-adv-x="1112" 
d="M727 1315q220 0 340 -114t90 -310q-12 -76 -41.5 -132.5t-67.5 -89t-82 -56.5t-87 -42.5t-79.5 -39t-62 -53.5t-32.5 -79l-5 -37l-292 -2l8 60q13 84 43 144.5t68 93.5t81.5 56t86 39t78 34t60.5 49t31 77q11 71 -26 113.5t-111 42.5q-90 0 -148 -44t-77 -110l-281 19
q40 174 170.5 277.5t335.5 103.5zM543 287q69 0 111.5 -46.5t29.5 -127.5q-11 -65 -57.5 -101.5t-102.5 -36.5q-68 0 -110.5 47.5t-28.5 127.5q10 66 56 101.5t102 35.5z" />
    <glyph glyph-name="at" unicode="@" horiz-adv-x="1390" 
d="M842 1034q190 0 320.5 -83.5t182.5 -227t23 -326.5q-32 -201 -126.5 -311.5t-225.5 -110.5q-63 0 -105 30.5t-57 82.5q-45 -55 -97.5 -84t-97.5 -29q-42 0 -79 12.5t-71 41t-53.5 74.5t-27 114t9.5 160q12 79 42 142.5t67.5 102.5t82.5 65t85 36t78 10q87 0 150 -22
t124 -66l-55 -407q-9 -50 -5 -73.5t29 -23.5q56 0 108.5 81.5t72.5 211.5q32 209 -66 328t-301 119q-198 0 -357.5 -155t-197.5 -396q-19 -133 -1 -229t72 -158.5t131 -92.5t175 -30q154 0 325 80l43 -152q-172 -80 -366 -80q-132 0 -239.5 43t-183.5 126.5t-105 220
t-1 309.5q48 292 242 479.5t455 187.5zM788 547q-44 0 -84.5 -52t-54.5 -153q-26 -176 41 -176q52 0 107 72l55 288q-27 21 -64 21z" />
    <glyph glyph-name="A" unicode="A" horiz-adv-x="1394" 
d="M975 236h-477l-107 -236h-334l676 1290l338 -2l262 -1288h-313zM924 506l-90 465l-211 -465h301z" />
    <glyph glyph-name="B" unicode="B" horiz-adv-x="1193" 
d="M330 1290h559q82 0 147 -21t104 -56.5t64.5 -83t29 -100.5t-2.5 -109q-12 -78 -68 -148t-155 -106q86 -41 134 -123t29 -197q-26 -168 -154 -257t-323 -89h-569zM578 1028l-35 -258h266q49 0 88 46t47 104q5 46 -15 77t-69 31h-282zM502 530l-37 -268h283q59 0 98.5 43.5
t48.5 108.5q7 50 -17 83t-79 33h-297z" />
    <glyph glyph-name="C" unicode="C" horiz-adv-x="1261" 
d="M862 1315q113 0 207 -34t152.5 -90.5t86.5 -130t17 -151.5l-330 19q-19 123 -145 123q-148 0 -249.5 -119.5t-131.5 -313.5q-27 -168 33 -272t194 -104q81 0 140.5 41.5t81.5 97.5l331 -19q-30 -161 -190 -274t-375 -113q-188 0 -313.5 86t-173.5 241.5t-15 359.5
q50 299 230 476t450 177z" />
    <glyph glyph-name="D" unicode="D" horiz-adv-x="1271" 
d="M330 1290h436q152 0 265.5 -54.5t175.5 -146.5t84.5 -208t2.5 -244q-19 -123 -73.5 -234t-141.5 -202.5t-217 -146t-284 -54.5h-453zM573 1020l-106 -750h139q87 0 159 33t121 90.5t79.5 129t42.5 153.5q13 69 0.5 131.5t-42.5 109.5t-90.5 75t-142.5 28h-160z" />
    <glyph glyph-name="E" unicode="E" horiz-adv-x="1083" 
d="M1098 1020h-525l-30 -240h485l-47 -270h-485l-13 -102q-10 -81 19 -109.5t90 -28.5h405l-47 -270h-426q-184 0 -274.5 104t-59.5 306l140 880h817z" />
    <glyph glyph-name="F" unicode="F" horiz-adv-x="991" 
d="M1051 1020h-369q-54 0 -85.5 -33.5t-39.5 -91.5l-22 -168h436l-47 -270h-437l-69 -457h-293l145 922q30 176 135.5 272t282.5 96h412z" />
    <glyph glyph-name="G" unicode="G" horiz-adv-x="1310" 
d="M862 1315q113 0 206.5 -34t152.5 -90.5t87 -130t17 -151.5l-330 19q-19 123 -145 123q-148 0 -249.5 -119.5t-131.5 -313.5q-27 -168 33 -272t194 -104q138 0 240 75l29 168h-215l38 226h521l-82 -539q-97 -92 -236 -144.5t-307 -52.5q-188 0 -313.5 86t-173.5 241.5
t-15 359.5q50 299 230 476t450 177z" />
    <glyph glyph-name="H" unicode="H" horiz-adv-x="1351" 
d="M1227 0h-293l76 500h-514l-78 -500h-293l205 1290h293l-82 -520h516l82 520h293z" />
    <glyph glyph-name="I" unicode="I" horiz-adv-x="542" 
d="M418 0h-293l205 1290h293z" />
    <glyph glyph-name="J" unicode="J" horiz-adv-x="880" 
d="M961 1290l-113 -719q-20 -129 -75 -236t-144 -188.5t-221.5 -126.5t-296.5 -45l28 267q82 0 149 19.5t113 52.5t79.5 78t51.5 93.5t25 102.5l61 432h-315l47 270h611z" />
    <glyph glyph-name="K" unicode="K" horiz-adv-x="1216" 
d="M821 756l361 -756h-353l-235 526l-109 -110l-67 -416h-293l205 1290h293l-80 -499l438 499h369z" />
    <glyph glyph-name="L" unicode="L" horiz-adv-x="997" 
d="M625 1290l-142 -893q-10 -75 14 -101t74 -26h396l-47 -270h-414q-173 0 -260 102t-56 297l142 891h293z" />
    <glyph glyph-name="M" unicode="M" horiz-adv-x="1556" 
d="M1432 0h-293l127 831l-322 -485h-217l-180 485l-129 -831h-293l205 1290h301l250 -616l448 616h307z" />
    <glyph glyph-name="N" unicode="N" horiz-adv-x="1323" 
d="M1198 0h-221l-440 784l-119 -784h-293l205 1290h250l417 -747l113 747h293z" />
    <glyph glyph-name="O" unicode="O" horiz-adv-x="1374" 
d="M879 1315q290 0 428 -189t88 -503q-48 -294 -233.5 -471t-461.5 -177q-290 0 -429 188t-89 499q50 299 235 476t462 177zM866 1051q-154 0 -260.5 -120t-136.5 -313q-27 -168 37.5 -272t206.5 -104q154 0 260 114.5t133 298.5q27 178 -35.5 287t-204.5 109z" />
    <glyph glyph-name="P" unicode="P" horiz-adv-x="1177" 
d="M688 1290h162q211 0 314 -149q86 -125 66 -304q-19 -179 -133 -314q-136 -161 -344 -176l-38 -1h-242l-55 -346h-293l145 922q30 176 135.5 272t282.5 96zM811 1020h-129q-54 0 -85.5 -33.5t-39.5 -91.5l-39 -279h219q101 0 165 93q55 82 47 175q-7 94 -78 124
q-27 12 -60 12z" />
    <glyph glyph-name="Q" unicode="Q" horiz-adv-x="1372" 
d="M1415 623q-28 -168 -102.5 -301t-188.5 -218l123 -282l-237 -121l-127 293q-81 -19 -162 -19q-290 0 -429 188t-89 499q50 299 234.5 476t461.5 177q290 0 428 -189t88 -503zM1126 655q27 178 -35.5 287t-203.5 109q-154 0 -261 -120t-137 -313q-27 -168 37.5 -272
t206.5 -104q27 0 41 2l-67 153l237 121l64 -145q94 111 118 282z" />
    <glyph glyph-name="R" unicode="R" horiz-adv-x="1177" 
d="M688 1290h113q90 0 162.5 -27.5t119 -74.5t75 -110t34.5 -132t-6.5 -143t-43 -141.5t-80.5 -127.5t-114 -102l164 -432h-330l-116 350h-193l-55 -350h-293l145 922q30 176 135.5 272t282.5 96zM518 621h170q108 0 174 93q57 79 48 170q-8 91 -80 123q-30 13 -68 13h-80
q-54 0 -85.5 -33.5t-39.5 -91.5z" />
    <glyph glyph-name="S" unicode="S" horiz-adv-x="1140" 
d="M770 1315q220 0 324 -111.5t88 -288.5l-277 19q-3 135 -153 135q-87 0 -143 -42.5t-66 -121.5q-7 -46 26 -77t89.5 -49t125.5 -34.5t136.5 -43t120.5 -65t78.5 -109t10.5 -167.5q-29 -184 -172 -284.5t-380 -100.5q-235 0 -349 112t-100 294l262 -19q0 -139 199 -139
q213 0 233 162q5 30 -15 51.5t-57 34t-85.5 25t-102 24.5t-106.5 32t-98.5 48.5t-78 73.5t-45 107t0.5 149q19 121 95.5 209t189.5 132t249 44z" />
    <glyph glyph-name="T" unicode="T" horiz-adv-x="1202" 
d="M1278 1020h-375l-155 -1020h-293l155 1020h-374l49 270h1042z" />
    <glyph glyph-name="U" unicode="U" horiz-adv-x="1353" 
d="M1434 1290l-111 -719q-50 -303 -209.5 -449.5t-411.5 -146.5q-123 0 -221.5 38.5t-166 112.5t-93 193t-0.5 271l111 700h293l-113 -719q-48 -329 203 -329q140 0 216.5 93.5t98.5 254.5l111 700h293z" />
    <glyph glyph-name="V" unicode="V" horiz-adv-x="1425" 
d="M854 0h-274l-285 1290h330l166 -884l423 884h334z" />
    <glyph glyph-name="W" unicode="W" horiz-adv-x="1988" 
d="M1518 0h-265l-131 864l-393 -864h-268l-178 1290h335l66 -841l375 841l272 2l125 -843l322 841h340z" />
    <glyph glyph-name="X" unicode="X" horiz-adv-x="1335" 
d="M956 647l316 -647h-354l-191 432l-303 -432h-361l508 645l-299 645h349l180 -442l317 442h346z" />
    <glyph glyph-name="Y" unicode="Y" horiz-adv-x="1339" 
d="M885 514l-84 -514h-293l84 514l-340 776h342l192 -514l355 514h362z" />
    <glyph glyph-name="Z" unicode="Z" horiz-adv-x="1216" 
d="M1231 1040l-684 -770h596l-45 -270h-979l39 248l686 772h-568l48 270h950z" />
    <glyph glyph-name="bracketleft" unicode="[" horiz-adv-x="579" 
d="M778 1470h-186l-252 -1617h188l-32 -179h-443l312 1975h444z" />
    <glyph glyph-name="backslash" unicode="\" horiz-adv-x="1079" 
d="M1016 -145l-203 -74l-1008 1739l207 73z" />
    <glyph glyph-name="bracketright" unicode="]" horiz-adv-x="577" 
d="M-221 -147h188l252 1617h-188l30 179h443l-311 -1975h-445z" />
    <glyph glyph-name="asciicircum" unicode="^" horiz-adv-x="1118" 
d="M1155 563h-291l-153 438l-289 -438h-285l537 727h153z" />
    <glyph glyph-name="underscore" unicode="_" horiz-adv-x="1177" 
d="M1067 -221h-1030l39 221h1028z" />
    <glyph glyph-name="grave" unicode="`" horiz-adv-x="962" 
d="M526 1479l430 -205l-92 -168l-452 166z" />
    <glyph glyph-name="a" unicode="a" horiz-adv-x="1150" 
d="M776 1034q189 0 357 -92l-105 -641q-9 -41 4.5 -64.5t50.5 -23.5q32 0 121 29l-37 -217q-103 -50 -213 -50q-77 0 -128.5 34t-61.5 110q-53 -63 -134.5 -103.5t-185.5 -40.5q-165 0 -251.5 131t-49.5 367q18 115 62.5 209t106 158.5t138 109t158 64.5t168.5 20zM723 793
q-83 0 -151.5 -52t-107.5 -128t-52 -164q-16 -109 12 -173.5t106 -64.5q70 0 138 54t106 118l72 381q-69 29 -123 29z" />
    <glyph glyph-name="b" unicode="b" horiz-adv-x="1150" 
d="M596 1403l-74 -445q128 78 260 78q89 0 165.5 -35t132.5 -101t79 -174t2 -241q-36 -224 -187 -367t-370 -143q-154 0 -258 69.5t-144.5 189t-15.5 270.5l140 899h270zM489 686l-32 -211q-16 -107 25 -179.5t130 -72.5q110 0 185 84t94 215q18 125 -32.5 195.5
t-139.5 70.5q-119 0 -230 -102z" />
    <glyph glyph-name="c" unicode="c" horiz-adv-x="1042" 
d="M684 1034q169 0 277.5 -103.5t99.5 -258.5l-275 18q-4 46 -36.5 72t-83.5 26q-105 0 -166.5 -81.5t-83.5 -221.5q-17 -128 22 -195t129 -67q59 0 105 30t65 77l279 -17q-29 -101 -99.5 -178.5t-166 -118.5t-199.5 -41q-101 0 -184 36.5t-140 104t-80 172.5t-2 234
q36 227 188 369.5t351 142.5z" />
    <glyph glyph-name="d" unicode="d" horiz-adv-x="1124" 
d="M1233 1403l-143 -918q-38 -233 -176.5 -371.5t-356.5 -138.5q-154 0 -255 72.5t-138 195t-12 279.5q37 236 181.5 374t315.5 138q134 0 240 -71l74 440h270zM684 788q-93 0 -167 -73.5t-95 -212.5q-20 -127 16 -203t129 -76q100 0 166.5 73.5t85.5 197.5l37 213
q-28 35 -76.5 58t-95.5 23z" />
    <glyph glyph-name="e" unicode="e" 
d="M590 213q136 0 190 90l283 -16q-31 -101 -103 -173t-165.5 -105.5t-200.5 -33.5q-153 0 -262.5 69t-156.5 196t-21 292q35 223 190.5 362.5t370.5 139.5q188 0 297 -109q91 -90 86 -209q-5 -130 -119 -221q-151 -120 -434 -120q-59 0 -127 6q9 -82 53 -125t119 -43z
M682 811q-81 0 -147 -58t-97 -165q58 -6 107 -6q174 0 237 74q40 48 14 97q-26 51 -97 57q-8 1 -17 1z" />
    <glyph glyph-name="f" unicode="f" horiz-adv-x="722" 
d="M723 1462q120 0 246 -47l-37 -223q-109 37 -182 37q-79 0 -132.5 -39.5t-66.5 -124.5l-6 -55h303l-43 -230h-299l-129 -798q-18 -108 -59 -186t-98.5 -122t-121.5 -64t-139 -20q-117 0 -238 43l37 222q104 -33 170 -33q152 0 178 160l177 1083q18 107 61 186t103.5 124
t128.5 66t147 21z" />
    <glyph glyph-name="g" unicode="g" horiz-adv-x="1132" 
d="M684 1034q229 0 333 -143t68 -375l-71 -465q-32 -207 -186.5 -334t-366.5 -127q-81 0 -147.5 19.5t-103.5 42t-89 63.5l137 205q96 -84 211 -84q104 0 182 58.5t90 152.5l13 25q-77 -48 -158 -67t-153 -8t-134.5 49t-102.5 105t-56.5 160t2.5 213q37 228 176 369t356 141
zM676 788q-108 0 -174 -83t-86 -218q-12 -83 4.5 -143t55 -87.5t88 -31t107.5 24t111 80.5l39 233q18 107 -22 166t-123 59z" />
    <glyph glyph-name="h" unicode="h" horiz-adv-x="1132" 
d="M604 1403l-74 -440q114 71 263 71q59 0 111.5 -14t99 -45.5t76 -81t42 -120t-3.5 -163.5l-96 -610h-270l92 610q13 89 -23.5 133.5t-107.5 44.5q-95 0 -213 -71l-117 -717h-270l221 1403h270z" />
    <glyph glyph-name="i" unicode="i" horiz-adv-x="495" 
d="M612 1325q-11 -65 -56.5 -100t-102.5 -35q-68 0 -111 46.5t-29 125.5q10 66 56 101.5t102 35.5q69 0 111.5 -46t29.5 -128zM383 0h-270l159 1010h271z" />
    <glyph glyph-name="j" unicode="j" horiz-adv-x="534" 
d="M666 1325q-11 -65 -57 -100t-103 -35q-68 0 -110.5 46.5t-28.5 125.5q10 66 55.5 101.5t101.5 35.5q69 0 112 -46t30 -128zM575 1010l-151 -975q-37 -233 -154 -339t-350 -106l29 252q101 0 145.5 51.5t63.5 157.5l147 959h270z" />
    <glyph glyph-name="k" unicode="k" horiz-adv-x="1056" 
d="M721 580l303 -580h-328l-186 377l-76 -74l-51 -303h-270l221 1403h270l-115 -733l302 340h376z" />
    <glyph glyph-name="l" unicode="l" horiz-adv-x="585" 
d="M606 1403l-178 -1116q-11 -86 59 -86q41 0 113 30l-37 -219q-82 -37 -188 -37q-40 0 -74.5 7.5t-67.5 25.5t-52.5 48.5t-30 76.5t1.5 109l182 1161h272z" />
    <glyph glyph-name="m" unicode="m" horiz-adv-x="1753" 
d="M1364 1032q70 0 130.5 -16t113 -51t84 -91t45 -136t-5.5 -185l-86 -553h-271l88 569q13 95 -24.5 142t-114.5 47q-92 0 -217 -64q3 -60 -10 -141l-86 -553h-271l90 569q12 96 -21.5 142.5t-117.5 46.5q-79 0 -194 -37l-119 -721h-268l141 944q219 88 434 88
q205 0 315 -96q80 44 176.5 70t188.5 26z" />
    <glyph glyph-name="n" unicode="n" horiz-adv-x="1126" 
d="M727 1034q77 0 139 -15t116 -49t84.5 -89t43 -135.5t-7.5 -188.5l-88 -557h-271l91 573q13 93 -26.5 140t-123.5 47q-75 0 -184 -45l-119 -715h-268l139 936q271 98 475 98z" />
    <glyph glyph-name="o" unicode="o" horiz-adv-x="1081" 
d="M688 1034q150 0 250.5 -73t138.5 -197t13 -279q-37 -227 -178.5 -368.5t-358.5 -141.5q-154 0 -254 72.5t-135.5 194.5t-11.5 280q35 225 178.5 368.5t357.5 143.5zM678 788q-108 0 -175 -84t-87 -219q-18 -121 17 -191.5t130 -70.5q108 0 175 82.5t87 216.5q8 77 0 136
t-45.5 94.5t-101.5 35.5z" />
    <glyph glyph-name="p" unicode="p" 
d="M723 1034q152 0 252.5 -72.5t137.5 -195t13 -279.5q-19 -120 -69.5 -218.5t-119.5 -162t-148.5 -97.5t-161.5 -34q-124 0 -238 86l-76 -446h-270l145 911q36 232 175.5 370t359.5 138zM713 788q-109 0 -172.5 -71.5t-81.5 -196.5l-37 -203q67 -94 172 -94q91 0 165 79
t95 222q18 119 -17.5 191.5t-123.5 72.5z" />
    <glyph glyph-name="q" unicode="q" horiz-adv-x="1120" 
d="M700 1034q153 0 251 -68t131.5 -182.5t9.5 -265.5l-148 -903h-270l76 436q-110 -76 -246 -76q-85 0 -157 36.5t-122.5 104.5t-71 174t-1.5 234q36 226 182.5 368t365.5 142zM670 788q-107 0 -170.5 -82.5t-83.5 -218.5q-18 -126 27 -195t128 -69q107 0 211 107l37 217
q19 117 -19.5 179t-129.5 62z" />
    <glyph glyph-name="r" unicode="r" horiz-adv-x="827" 
d="M889 1034l-45 -270q-200 0 -355 -94l-108 -670h-268l129 856q308 178 647 178z" />
    <glyph glyph-name="s" unicode="s" horiz-adv-x="993" 
d="M653 1034q213 0 304 -92.5t71 -243.5l-278 19q3 46 -25 73t-82 27q-68 0 -112.5 -31t-51.5 -86q-3 -20 7.5 -35t41 -28t51.5 -19t71 -18l24 -6q60 -14 98 -25.5t88.5 -36.5t77.5 -55.5t42 -81.5t5 -116q-17 -100 -88.5 -170.5t-170.5 -102t-218 -31.5q-211 0 -308 88.5
t-79 243.5l264 -18q-3 -47 26 -71.5t95 -24.5q80 0 134.5 31t61.5 83q2 18 -8.5 31t-37 22.5t-50.5 16t-70 16.5t-73 17q-50 13 -88 27t-78 39.5t-63.5 57.5t-35 81t-1.5 110q24 145 149 227t307 82z" />
    <glyph glyph-name="t" unicode="t" horiz-adv-x="772" 
d="M532 1010h267l-37 -230h-273l-59 -413q-23 -150 133 -150q68 0 150 23l-35 -236q-110 -29 -189 -29q-82 0 -147.5 22t-112.5 66.5t-66 119t-3 171.5l147 936h271z" />
    <glyph glyph-name="u" unicode="u" horiz-adv-x="1101" 
d="M1151 1010l-88 -568q-38 -239 -171 -353t-329 -114q-207 0 -313 122t-68 364l86 549h273l-90 -574q-16 -107 11 -160t111 -53q97 0 151.5 61.5t68.5 168.5l88 557h270z" />
    <glyph glyph-name="v" unicode="v" horiz-adv-x="1159" 
d="M725 0h-283l-239 1010h289l145 -719l354 719h291z" />
    <glyph glyph-name="w" unicode="w" horiz-adv-x="1628" 
d="M1221 0h-242l-76 592l-250 -592h-237l-185 1010h306l67 -600l258 600h219l72 -600l254 600h315z" />
    <glyph glyph-name="x" unicode="x" horiz-adv-x="1067" 
d="M795 522l235 -522h-319l-125 315l-230 -315h-327l407 514l-233 496h317l129 -318l230 318h315z" />
    <glyph glyph-name="y" unicode="y" horiz-adv-x="1120" 
d="M1167 1010l-151 -959q-32 -207 -189 -334t-372 -127q-217 0 -383 144l159 198q96 -96 234 -96q102 0 186 67t94 163l13 36q-103 -96 -260 -96q-59 0 -109 13t-96 44t-73 80.5t-38.5 123t6.5 171.5l88 572h273l-82 -529q-19 -124 4.5 -174.5t108.5 -50.5q131 0 221 147
l96 607h270z" />
    <glyph glyph-name="z" unicode="z" horiz-adv-x="1040" 
d="M1024 776l-489 -538h415l-41 -238h-778l35 219l481 553h-385l41 238h760z" />
    <glyph glyph-name="braceleft" unicode="{" horiz-adv-x="681" 
d="M825 1778l-24 -228q-69 0 -102.5 -30t-43.5 -103l-71 -450q-19 -115 -65.5 -185.5t-141.5 -99.5q77 -27 105.5 -103.5t9.5 -187.5l-72 -450q-10 -73 7 -94t85 -21l-18 -229q-372 0 -316 340l72 450q14 86 -7.5 131t-84.5 57l10 113l12 115q69 13 112.5 65.5t57.5 137.5
l72 450q15 95 50 159.5t90 99.5t117.5 49t145.5 14z" />
    <glyph glyph-name="bar" unicode="|" horiz-adv-x="518" 
d="M283 -512h-211l325 2048h211z" />
    <glyph glyph-name="braceright" unicode="}" horiz-adv-x="681" 
d="M-166 -403l25 229q69 0 102 29.5t45 101.5l72 453q19 115 64.5 184t142.5 98q-77 27 -106 104.5t-11 188.5l74 451q10 72 -7 93t-85 21l18 228q371 0 315 -338l-71 -451q-14 -86 7 -131t83 -57l-10 -113l-11 -117q-69 -12 -112.5 -63.5t-57.5 -136.5l-71 -453
q-16 -95 -51.5 -159.5t-90.5 -99t-117.5 -48.5t-146.5 -14z" />
    <glyph glyph-name="asciitilde" unicode="~" horiz-adv-x="960" 
d="M426 723q52 0 112.5 -26.5t109.5 -53.5t73 -27q36 0 64 30t40 79l187 -80q-35 -112 -111.5 -190t-165.5 -78q-51 0 -99.5 17t-79 37t-66.5 37t-66 17q-26 0 -50.5 -18t-38.5 -37.5t-34 -52.5l-176 106q123 240 301 240z" />
    <glyph glyph-name="exclamdown" unicode="&#xa1;" horiz-adv-x="602" 
d="M389 725q-69 0 -111.5 45.5t-29.5 126.5q11 66 57 101.5t103 35.5q68 0 110.5 -47t28.5 -127q-10 -66 -56 -100.5t-102 -34.5zM233 649h293l-143 -930h-293z" />
    <glyph glyph-name="cent" unicode="&#xa2;" horiz-adv-x="1083" 
d="M709 930q-105 0 -167 -81t-83 -222q-17 -127 22 -194.5t129 -67.5q59 0 105 29.5t65 76.5l279 -16q-38 -128 -140 -215.5t-235 -112.5l-37 -229h-250l41 245q-142 48 -212 183t-38 338q30 187 141.5 320t266.5 175l39 244h250l-37 -242q121 -34 192 -128.5t64 -217.5
l-275 16q-5 46 -37 72.5t-83 26.5z" />
    <glyph glyph-name="sterling" unicode="&#xa3;" horiz-adv-x="1077" 
d="M633 446q-6 -42 -29 -94.5t-53 -89.5l493 6l-47 -268h-907l33 219q77 32 143.5 102t77.5 150q1 6 2 18.5t2 18.5h-182l37 219h119q-10 78 2 154q33 203 157 318.5t320 115.5q68 0 124.5 -14.5t91 -32t70 -52t50 -53.5t41.5 -59l-226 -170q-27 55 -60 85t-93 30
q-65 0 -120.5 -56.5t-68.5 -144.5q-8 -58 -2 -121h318l-37 -219h-252q0 -22 -4 -62z" />
    <glyph glyph-name="yen" unicode="&#xa5;" horiz-adv-x="1282" 
d="M907 639h217l-30 -180h-238l-16 -92h239l-28 -179h-240l-33 -188h-293l31 188h-221l31 179h221l14 92h-221l29 180h200l-293 651h347l143 -465l295 465h360z" />
    <glyph glyph-name="brokenbar" unicode="&#xa6;" horiz-adv-x="518" 
d="M477 717h-211l131 819h211zM283 -512h-211l131 819h211z" />
    <glyph glyph-name="section" unicode="&#xa7;" horiz-adv-x="1038" 
d="M793 1395q77 0 149.5 -27t108.5 -61l-64 -148q-38 44 -97.5 70t-125.5 26q-48 0 -88.5 -31t-50.5 -91q-8 -53 9 -119t50.5 -132t74.5 -145t81 -157t70.5 -168.5t42.5 -180t-3 -190.5q-24 -147 -108.5 -265.5t-202 -182.5t-242.5 -64q-87 0 -169 31t-119 67l67 146
q94 -105 232 -105q51 0 90.5 36t48.5 93q9 61 -27.5 150t-92.5 189.5t-109.5 213t-81 254t-5.5 279.5q34 218 193 365t369 147zM492 1149q-40 -37 -72 -111t-45 -149q-13 -85 -6 -170t29.5 -155.5t54 -144t66 -135t66.5 -129t56 -126.5t33 -126t-2 -128q47 45 83.5 115.5
t47.5 152.5q12 72 -2.5 155t-46 158t-71.5 159.5t-79.5 160.5t-70 160t-43 158t1.5 155z" />
    <glyph glyph-name="dieresis" unicode="&#xa8;" horiz-adv-x="962" 
d="M508 1409q59 0 95 -41t26 -111q-10 -55 -47.5 -83.5t-83.5 -28.5q-59 0 -95.5 40t-25.5 109q8 56 46 85.5t85 29.5zM872 1409q58 0 94 -41t25 -111q-8 -55 -46 -83.5t-85 -28.5q-58 0 -94 40.5t-25 108.5q8 56 46 85.5t85 29.5z" />
    <glyph glyph-name="copyright" unicode="&#xa9;" horiz-adv-x="1409" 
d="M895 1315q115 0 209.5 -36t156.5 -99t102 -150.5t47.5 -190t-7.5 -216.5q-22 -134 -79 -251t-143 -205.5t-205.5 -140t-256.5 -51.5q-116 0 -210.5 35t-156.5 97.5t-102.5 148.5t-48 188t7.5 215q17 107 56.5 204.5t101.5 180t140 143t177.5 94.5t210.5 34zM907 1174
q-224 0 -373.5 -153.5t-189.5 -397.5q-23 -146 9 -259t122.5 -180t231.5 -67q149 0 269 71.5t193 193t97 277.5q23 150 -8 264.5t-121 182.5t-230 68zM850 1028q122 0 201 -78.5t71 -191.5l-194 16q-3 34 -22.5 52t-51.5 18q-79 0 -127.5 -60.5t-62.5 -160.5
q-12 -88 14.5 -134.5t87.5 -46.5q44 0 78.5 22t48.5 56l201 -16q-30 -109 -124 -177.5t-206 -68.5q-72 0 -131 27t-99 76.5t-56 126.5t-1 171q25 164 129 266.5t244 102.5z" />
    <glyph glyph-name="guillemotleft" unicode="&#xab;" horiz-adv-x="1028" 
d="M680 907l-260 -319l158 -318l-181 -110l-215 415v25l342 416zM1087 907l-258 -319l158 -318l-180 -110l-215 415v25l340 416z" />
    <glyph glyph-name="logicalnot" unicode="&#xac;" horiz-adv-x="952" 
d="M961 604l-62 -377h-227l45 271h-555l45 254h780z" />
    <glyph glyph-name="registered" unicode="&#xae;" horiz-adv-x="704" 
d="M545 1315q89 0 149.5 -45t82.5 -119t7 -164q-20 -125 -101.5 -207t-203.5 -82q-134 0 -198.5 93.5t-40.5 232.5q20 124 102 207.5t203 83.5zM729 1024q14 99 -28 161t-136 62q-107 0 -179.5 -73t-90.5 -187q-16 -99 26 -160t136 -61q108 0 181 72.5t91 185.5zM508 1182
h27q62 0 90 -44t15 -98t-56 -82l41 -104h-86l-27 86h-51l-15 -86h-75l37 240q8 46 31.5 67t68.5 21zM473 1016h37q37 0 56 36q16 32 -3 47q-8 7 -22 7h-21q-13 0 -24.5 -10.5t-14.5 -24.5z" />
    <glyph glyph-name="macron" unicode="&#xaf;" horiz-adv-x="962" 
d="M958 1137h-598l35 186h598z" />
    <glyph glyph-name="degree" unicode="&#xb0;" horiz-adv-x="671" 
d="M526 1315q49 0 94.5 -18.5t81.5 -52t52 -89.5t4 -123q-14 -80 -61.5 -138.5t-105 -84t-116.5 -25.5q-49 0 -94 18.5t-79.5 52.5t-50.5 90t-5 124q19 117 103.5 181.5t176.5 64.5zM535 1165q-56 0 -95 -39t-47 -94q-6 -41 12 -69.5t60 -28.5q58 0 96.5 39t46.5 96
q7 40 -11.5 68t-61.5 28z" />
    <glyph glyph-name="plusminus" unicode="&#xb1;" horiz-adv-x="950" 
d="M1008 899l-43 -254h-260l-50 -305h-254l50 305h-265l43 254h260l50 305h254l-50 -305h265zM131 254h780l-47 -254h-778z" />
    <glyph glyph-name="twosuperior" unicode="&#xb2;" horiz-adv-x="686" 
d="M518 1305q81 0 141.5 -27.5t92.5 -88t18 -145.5q-10 -63 -46 -106t-81.5 -63.5t-90 -35t-77 -32.5t-37.5 -45h273l-29 -168h-510l25 135q10 67 41.5 117t71 76t84 48t82 36t64.5 37t31 53q7 45 -36 45q-37 0 -65 -25t-34 -59l-194 18q14 93 84.5 161.5t191.5 68.5z" />
    <glyph glyph-name="threesuperior" unicode="&#xb3;" horiz-adv-x="657" 
d="M489 1305q55 0 102.5 -13.5t85.5 -41t56 -75t8 -110.5q-15 -81 -77 -121q28 -16 46.5 -57t8.5 -101q-16 -98 -104.5 -151t-200.5 -53q-134 0 -197 69.5t-47 169.5l184 -18q-5 -33 9 -46.5t53 -13.5q41 0 70.5 23.5t33.5 64.5q3 22 -11 31.5t-56 9.5h-103l21 136h75
q37 0 66 24t33 62q7 47 -43 47q-40 0 -64 -22.5t-30 -59.5l-195 16q16 103 84.5 166.5t191.5 63.5z" />
    <glyph glyph-name="acute" unicode="&#xb4;" horiz-adv-x="962" 
d="M451 1106l-35 168l485 205l47 -207z" />
    <glyph glyph-name="paragraph" unicode="&#xb6;" horiz-adv-x="980" 
d="M1112 1190h-166l-145 -911q-19 -122 -64 -214t-103 -142t-125 -77t-134 -26t-125.5 18t-102.5 49l23 103q54 -36 117.5 -52t130 -5t124 48t102 115t61.5 187l38 209q-37 -39 -91.5 -64.5t-112.5 -26.5q-175 -4 -260 131q-74 119 -52 292q23 177 135 306q141 159 351 160
h415z" />
    <glyph glyph-name="periodcentered" unicode="&#xb7;" horiz-adv-x="442" 
d="M342 723q68 0 110.5 -46.5t28.5 -127.5q-10 -65 -56 -101t-101 -36q-68 0 -111.5 47t-30.5 127q11 66 57.5 101.5t102.5 35.5z" />
    <glyph glyph-name="cedilla" unicode="&#xb8;" horiz-adv-x="962" 
d="M539 0l-58 -115q91 0 137 -58.5t33 -137.5q-13 -77 -85 -135t-189 -58q-100 0 -180 47l65 125q56 -35 98 -35q44 0 77.5 28.5t39.5 70.5q3 27 -11 40.5t-46 12.5h-53l-41 82l53 133h160z" />
    <glyph glyph-name="onesuperior" unicode="&#xb9;" horiz-adv-x="428" 
d="M436 594h-209l76 504h-94l35 192h303z" />
    <glyph glyph-name="guillemotright" unicode="&#xbb;" horiz-adv-x="1028" 
d="M-82 268l260 320l-158 317l181 111l215 -416v-25l-340 -415zM328 268l258 320l-156 317l180 111l213 -416v-25l-340 -415z" />
    <glyph glyph-name="onequarter" unicode="&#xbc;" horiz-adv-x="1425" 
d="M395 -63l-198 22l852 1458l176 -47zM436 594h-209l76 504h-94l35 192h303zM1071 295h111l22 151h162l-23 -151h68l-35 -195h-65l-19 -116h-162l19 116h-340l25 174l278 422h219z" />
    <glyph glyph-name="onehalf" unicode="&#xbd;" horiz-adv-x="1454" 
d="M1225 1370l-830 -1433l-198 22l852 1458zM303 1098h-94l35 192h303l-111 -696h-209zM1192 711q125 0 199 -67.5t53 -192.5q-10 -63 -46 -106t-81.5 -63.5t-90 -35t-77 -33t-37.5 -45.5h272l-28 -168h-510l24 135q12 79 53.5 134t92.5 81.5t101 46.5t86.5 45t41.5 60
q7 45 -37 45q-37 0 -64.5 -25t-33.5 -59l-195 18q14 93 85 161.5t192 68.5z" />
    <glyph glyph-name="threequarters" unicode="&#xbe;" horiz-adv-x="1648" 
d="M618 -63l-198 22l852 1458l176 -47zM489 1305q55 0 102.5 -13.5t85.5 -41t56 -75t8 -110.5q-15 -81 -77 -121q28 -16 46.5 -57t8.5 -101q-16 -98 -104.5 -151t-200.5 -53q-134 0 -197 69.5t-47 169.5l184 -18q-5 -33 9 -46.5t53 -13.5q41 0 70.5 23.5t33.5 64.5
q3 22 -11 31.5t-56 9.5h-103l21 136h75q37 0 66 24t33 62q7 47 -43 47q-40 0 -64 -22.5t-30 -59.5l-195 16q16 103 84.5 166.5t191.5 63.5zM1294 295h111l22 151h162l-22 -151h67l-35 -195h-65l-18 -116h-162l18 116h-340l25 174l278 422h219z" />
    <glyph glyph-name="questiondown" unicode="&#xbf;" 
d="M711 725q-69 0 -112 46t-30 126q11 66 57 101.5t103 35.5q68 0 110.5 -47t28.5 -127q-10 -66 -55.5 -100.5t-101.5 -34.5zM526 -305q-220 0 -340 114.5t-90 311.5q12 76 41.5 132t68 88.5t82.5 56t87 41.5t79.5 38.5t62 53.5t32.5 79l4 39h293l-8 -59q-13 -84 -43 -144.5
t-68.5 -93.5t-82 -56t-86 -39t-78 -34t-60.5 -49.5t-31 -77.5q-11 -71 26 -113t111 -42q90 0 148.5 43.5t77.5 109.5l280 -16q-39 -176 -170 -279.5t-336 -103.5z" />
    <glyph glyph-name="Agrave" unicode="&#xc0;" horiz-adv-x="1394" 
d="M1114 1386l-452 166l114 207l430 -205zM975 236h-477l-107 -236h-334l676 1290l338 -2l262 -1288h-313zM924 506l-90 465l-211 -465h301z" />
    <glyph glyph-name="Aacute" unicode="&#xc1;" horiz-adv-x="1394" 
d="M823 1384l-35 168l486 207l47 -209zM975 236h-477l-107 -236h-334l676 1290l338 -2l262 -1288h-313zM924 506l-90 465l-211 -465h301z" />
    <glyph glyph-name="Acircumflex" unicode="&#xc2;" horiz-adv-x="1394" 
d="M715 1389l-109 118l297 254h148l221 -254l-135 -118l-187 180zM975 236h-477l-107 -236h-334l676 1290l338 -2l262 -1288h-313zM924 506l-90 465l-211 -465h301z" />
    <glyph glyph-name="Atilde" unicode="&#xc3;" horiz-adv-x="1394" 
d="M813 1473q-40 0 -70 -29t-47 -66l-149 101q30 67 98 131.5t137 64.5q57 0 153.5 -30.5t129.5 -30.5q48 0 79 26t58 74l148 -69q-54 -113 -120.5 -171.5t-156.5 -58.5q-67 0 -151 29t-109 29zM1071 1288l262 -1288h-313l-45 236h-477l-107 -236h-334l676 1290zM924 506
l-90 465l-211 -465h301z" />
    <glyph glyph-name="Adieresis" unicode="&#xc4;" horiz-adv-x="1394" 
d="M760 1425q-59 0 -95.5 40.5t-25.5 109.5q8 56 46 85.5t85 29.5q59 0 95 -41t26 -111q-10 -55 -48 -84t-83 -29zM1122 1425q-58 0 -93.5 40.5t-24.5 109.5q8 56 46 85.5t85 29.5q58 0 93.5 -41t24.5 -111q-8 -55 -46 -84t-85 -29zM975 236h-477l-107 -236h-334l676 1290
l338 -2l262 -1288h-313zM924 506l-90 465l-211 -465h301z" />
    <glyph glyph-name="Aring" unicode="&#xc5;" horiz-adv-x="1394" 
d="M934 1368q-83 0 -134.5 54.5t-35.5 150.5q13 81 68.5 123.5t125.5 42.5q82 0 133 -54t35 -149q-11 -82 -66 -125t-126 -43zM868 1536q-5 -27 8 -42t42 -15q41 0 69.5 26t34.5 68q9 55 -47 55q-41 0 -71 -26t-36 -66zM975 236h-477l-107 -236h-334l676 1290l338 -2
l262 -1288h-313zM924 506l-90 465l-211 -465h301z" />
    <glyph glyph-name="AE" unicode="&#xc6;" horiz-adv-x="1824" 
d="M1315 1020l-33 -252h487l-49 -270h-485l-12 -90q-10 -81 18.5 -109.5t91.5 -28.5h406l-49 -270h-426q-179 0 -270 97.5t-68 287.5h-293l-240 -385h-373l904 1290h962l-47 -270h-524zM803 655h166l55 357z" />
    <glyph glyph-name="Ccedilla" unicode="&#xc7;" horiz-adv-x="1261" 
d="M850 1051q-148 0 -249.5 -119.5t-131.5 -313.5q-27 -168 33 -272t194 -104q81 0 140.5 41.5t81.5 97.5l331 -19q-28 -155 -179.5 -267.5t-358.5 -119.5l-45 -90q91 0 137 -58.5t33 -137.5q-13 -77 -85.5 -135t-189.5 -58q-100 0 -180 47l65 125q56 -35 99 -35
q44 0 77.5 28.5t39.5 70.5q3 27 -11.5 40.5t-46.5 12.5h-53l-41 82l49 119q-220 43 -320 224t-57 452q50 299 230 476t450 177q113 0 207 -34t152.5 -90.5t86.5 -130t17 -151.5l-330 19q-19 123 -145 123z" />
    <glyph glyph-name="Egrave" unicode="&#xc8;" horiz-adv-x="1083" 
d="M614 1759l430 -205l-92 -168l-452 166zM1098 1020h-525l-30 -240h485l-47 -270h-485l-13 -102q-10 -81 19 -109.5t90 -28.5h405l-47 -270h-426q-184 0 -274.5 104t-59.5 306l140 880h817z" />
    <glyph glyph-name="Eacute" unicode="&#xc9;" horiz-adv-x="1083" 
d="M557 1384l-35 168l486 205l47 -207zM1098 1020h-525l-30 -240h485l-47 -270h-485l-13 -102q-10 -81 19 -109.5t90 -28.5h405l-47 -270h-426q-184 0 -274.5 104t-59.5 306l140 880h817z" />
    <glyph glyph-name="Ecircumflex" unicode="&#xca;" horiz-adv-x="1083" 
d="M1108 1507l-135 -118l-187 180l-235 -180l-109 118l297 254h148zM1098 1020h-525l-30 -240h485l-47 -270h-485l-13 -102q-10 -81 19 -109.5t90 -28.5h405l-47 -270h-426q-184 0 -274.5 104t-59.5 306l140 880h817z" />
    <glyph glyph-name="Edieresis" unicode="&#xcb;" horiz-adv-x="1083" 
d="M606 1690q59 0 95 -41t26 -111q-10 -55 -48 -84t-83 -29q-59 0 -95.5 40.5t-25.5 109.5q8 56 46 85.5t85 29.5zM971 1690q58 0 94 -41t25 -111q-8 -55 -46.5 -84t-85.5 -29q-58 0 -93.5 40.5t-24.5 109.5q8 56 46 85.5t85 29.5zM1098 1020h-525l-30 -240h485l-47 -270
h-485l-13 -102q-10 -81 19 -109.5t90 -28.5h405l-47 -270h-426q-184 0 -274.5 104t-59.5 306l140 880h817z" />
    <glyph glyph-name="Igrave" unicode="&#xcc;" horiz-adv-x="542" 
d="M352 1759l430 -205l-92 -168l-452 166zM418 0h-293l205 1290h293z" />
    <glyph glyph-name="Iacute" unicode="&#xcd;" horiz-adv-x="542" 
d="M295 1384l-35 168l485 205l48 -207zM418 0h-293l205 1290h293z" />
    <glyph glyph-name="Icircumflex" unicode="&#xce;" horiz-adv-x="542" 
d="M846 1507l-135 -118l-187 180l-235 -180l-109 118l297 254h148zM418 0h-293l205 1290h293z" />
    <glyph glyph-name="Idieresis" unicode="&#xcf;" horiz-adv-x="542" 
d="M344 1690q59 0 95 -41t26 -111q-10 -55 -48 -84t-83 -29q-59 0 -95.5 40.5t-25.5 109.5q8 56 46 85.5t85 29.5zM709 1690q58 0 93.5 -41t24.5 -111q-8 -55 -46 -84t-85 -29q-58 0 -93.5 40.5t-24.5 109.5q8 56 46 85.5t85 29.5zM418 0h-293l205 1290h293z" />
    <glyph glyph-name="Eth" unicode="&#xd0;" horiz-adv-x="1271" 
d="M350 1290h436q122 0 220.5 -35.5t161.5 -97.5t104 -145t48.5 -178t-5.5 -197q-15 -97 -52 -188t-99 -173t-142.5 -143t-190 -97t-233.5 -36h-453l86 541h-149l35 204h147zM1028 676q14 96 -7.5 171.5t-89.5 124t-177 48.5h-160l-39 -275h197l-35 -204h-191l-39 -271h140
q87 0 159 33t120.5 90.5t79 129t42.5 153.5z" />
    <glyph glyph-name="Ntilde" unicode="&#xd1;" horiz-adv-x="1323" 
d="M1165 1714l148 -69q-54 -113 -120.5 -171.5t-156.5 -58.5q-66 0 -151 29t-109 29q-40 0 -70 -29t-47 -66l-149 101q30 67 98 131.5t137 64.5q57 0 153.5 -30.5t129.5 -30.5q48 0 79 26t58 74zM1198 0h-221l-440 784l-119 -784h-293l205 1290h250l417 -747l113 747h293z
" />
    <glyph glyph-name="Ograve" unicode="&#xd2;" horiz-adv-x="1374" 
d="M766 1759l430 -205l-92 -168l-453 166zM879 1315q290 0 428 -189t88 -503q-48 -294 -233.5 -471t-461.5 -177q-290 0 -429 188t-89 499q50 299 235 476t462 177zM866 1051q-154 0 -260.5 -120t-136.5 -313q-27 -168 37.5 -272t206.5 -104q154 0 260 114.5t133 298.5
q27 178 -35.5 287t-204.5 109z" />
    <glyph glyph-name="Oacute" unicode="&#xd3;" horiz-adv-x="1374" 
d="M711 1384l-35 168l485 205l47 -207zM879 1315q290 0 428 -189t88 -503q-48 -294 -233.5 -471t-461.5 -177q-290 0 -429 188t-89 499q50 299 235 476t462 177zM866 1051q-154 0 -260.5 -120t-136.5 -313q-27 -168 37.5 -272t206.5 -104q154 0 260 114.5t133 298.5
q27 178 -35.5 287t-204.5 109z" />
    <glyph glyph-name="Ocircumflex" unicode="&#xd4;" horiz-adv-x="1374" 
d="M1260 1507l-136 -118l-186 180l-236 -180l-108 118l297 254h147zM879 1315q290 0 428 -189t88 -503q-48 -294 -233.5 -471t-461.5 -177q-290 0 -429 188t-89 499q50 299 235 476t462 177zM866 1051q-154 0 -260.5 -120t-136.5 -313q-27 -168 37.5 -272t206.5 -104
q154 0 260 114.5t133 298.5q27 178 -35.5 287t-204.5 109z" />
    <glyph glyph-name="Otilde" unicode="&#xd5;" horiz-adv-x="1374" 
d="M1190 1714l147 -69q-54 -113 -120 -171.5t-156 -58.5q-67 0 -151.5 29t-108.5 29q-40 0 -70 -29t-47 -66l-149 101q30 67 98 131.5t137 64.5q57 0 153.5 -30.5t129.5 -30.5q48 0 79 26t58 74zM879 1315q290 0 428 -189t88 -503q-48 -294 -233.5 -471t-461.5 -177
q-290 0 -429 188t-89 499q50 299 235 476t462 177zM866 1051q-154 0 -260.5 -120t-136.5 -313q-27 -168 37.5 -272t206.5 -104q154 0 260 114.5t133 298.5q27 178 -35.5 287t-204.5 109z" />
    <glyph glyph-name="Odieresis" unicode="&#xd6;" horiz-adv-x="1374" 
d="M758 1690q59 0 95 -41t26 -111q-10 -55 -48 -84t-83 -29q-59 0 -95.5 40.5t-25.5 109.5q8 56 46 85.5t85 29.5zM1122 1690q58 0 94 -41t25 -111q-8 -55 -46 -84t-85 -29q-58 0 -94 40.5t-25 109.5q8 56 46 85.5t85 29.5zM879 1315q290 0 428 -189t88 -503
q-48 -294 -233.5 -471t-461.5 -177q-290 0 -429 188t-89 499q50 299 235 476t462 177zM866 1051q-154 0 -260.5 -120t-136.5 -313q-27 -168 37.5 -272t206.5 -104q154 0 260 114.5t133 298.5q27 178 -35.5 287t-204.5 109z" />
    <glyph glyph-name="multiply" unicode="&#xd7;" horiz-adv-x="970" 
d="M756 629l190 -258l-217 -181l-180 246l-262 -246l-140 181l269 250l-191 260l215 178l181 -246l262 246l141 -178z" />
    <glyph glyph-name="Oslash" unicode="&#xd8;" horiz-adv-x="1372" 
d="M1438 1423l-168 -233q100 -91 137 -236t8 -331q-48 -295 -233 -471.5t-461 -176.5q-164 0 -279 62l-170 -236l-135 64l187 260q-85 92 -117 229.5t-4 307.5q50 299 234.5 476t461.5 177q137 0 246 -45l158 219zM489 618q-22 -143 19 -235l469 653q-41 15 -90 15
q-154 0 -261 -120t-137 -313zM1126 655q25 181 -36 285l-482 -670q54 -28 125 -28q154 0 260 114.5t133 298.5z" />
    <glyph glyph-name="Ugrave" unicode="&#xd9;" horiz-adv-x="1353" 
d="M756 1759l430 -205l-92 -168l-453 166zM1434 1290l-111 -719q-50 -303 -209.5 -449.5t-411.5 -146.5q-123 0 -221.5 38.5t-166 112.5t-93 193t-0.5 271l111 700h293l-113 -719q-48 -329 203 -329q140 0 216.5 93.5t98.5 254.5l111 700h293z" />
    <glyph glyph-name="Uacute" unicode="&#xda;" horiz-adv-x="1353" 
d="M700 1384l-34 168l485 205l47 -207zM1434 1290l-111 -719q-50 -303 -209.5 -449.5t-411.5 -146.5q-123 0 -221.5 38.5t-166 112.5t-93 193t-0.5 271l111 700h293l-113 -719q-48 -329 203 -329q140 0 216.5 93.5t98.5 254.5l111 700h293z" />
    <glyph glyph-name="Ucircumflex" unicode="&#xdb;" horiz-adv-x="1353" 
d="M1251 1507l-135 -118l-186 180l-236 -180l-108 118l297 254h147zM1434 1290l-111 -719q-50 -303 -209.5 -449.5t-411.5 -146.5q-123 0 -221.5 38.5t-166 112.5t-93 193t-0.5 271l111 700h293l-113 -719q-48 -329 203 -329q140 0 216.5 93.5t98.5 254.5l111 700h293z" />
    <glyph glyph-name="Udieresis" unicode="&#xdc;" horiz-adv-x="1353" 
d="M750 1690q59 0 94.5 -41t25.5 -111q-10 -55 -48 -84t-83 -29q-59 0 -95.5 40.5t-25.5 109.5q8 56 46.5 85.5t85.5 29.5zM1114 1690q58 0 94 -41t25 -111q-8 -55 -46 -84t-85 -29q-58 0 -94 40.5t-25 109.5q8 56 46 85.5t85 29.5zM1434 1290l-111 -719
q-50 -303 -209.5 -449.5t-411.5 -146.5q-123 0 -221.5 38.5t-166 112.5t-93 193t-0.5 271l111 700h293l-113 -719q-48 -329 203 -329q140 0 216.5 93.5t98.5 254.5l111 700h293z" />
    <glyph glyph-name="Yacute" unicode="&#xdd;" horiz-adv-x="1339" 
d="M694 1384l-35 168l486 205l47 -207zM885 514l-84 -514h-293l84 514l-340 776h342l192 -514l355 514h362z" />
    <glyph glyph-name="Thorn" unicode="&#xde;" horiz-adv-x="1177" 
d="M598 1118h225q211 0 314 -149q86 -125 66 -304t-133 -314q-136 -161 -343 -176l-39 -1h-244l-26 -174h-293l205 1290h293zM549 848l-55 -404h219q100 0 163 93q55 82 47 175q-7 93 -77 124q-26 12 -60 12h-237z" />
    <glyph glyph-name="germandbls" unicode="&#xdf;" horiz-adv-x="1257" 
d="M868 193q55 0 90 28t41 76q4 27 -18.5 44t-61 27t-85 20.5t-91.5 29t-80 46.5t-51.5 80t-5.5 124q9 57 44 103.5t79 77t87.5 58t76 61t37.5 70.5q10 71 -62 107.5t-165 14.5q-106 -26 -150 -115q-16 -31 -21 -68l-153 -977h-270l153 983q36 220 216 334q149 94 338 85
q175 -9 288 -104q128 -108 105 -277q0 -5 -1 -9q-9 -58 -45 -104.5t-81.5 -76t-90 -55t-77.5 -54t-37 -60.5q-4 -29 18.5 -46t61 -26.5t85 -19t92 -28t80.5 -48.5t50.5 -86.5t3.5 -135.5q-15 -90 -77.5 -159.5t-148.5 -103.5t-180 -34q-206 0 -297.5 88t-70.5 244l260 -18
q-3 -47 25.5 -71.5t88.5 -24.5z" />
    <glyph glyph-name="agrave" unicode="&#xe0;" horiz-adv-x="1150" 
d="M616 1479l431 -205l-93 -168l-452 166zM776 1034q189 0 357 -92l-105 -641q-9 -41 4.5 -64.5t50.5 -23.5q32 0 121 29l-37 -217q-103 -50 -213 -50q-77 0 -128.5 34t-61.5 110q-53 -63 -134.5 -103.5t-185.5 -40.5q-165 0 -251.5 131t-49.5 367q18 115 62.5 209
t106 158.5t138 109t158 64.5t168.5 20zM723 793q-83 0 -151.5 -52t-107.5 -128t-52 -164q-16 -109 12 -173.5t106 -64.5q70 0 138 54t106 118l72 381q-69 29 -123 29z" />
    <glyph glyph-name="aacute" unicode="&#xe1;" horiz-adv-x="1150" 
d="M559 1104l-35 168l486 205l47 -207zM776 1034q189 0 357 -92l-105 -641q-9 -41 4.5 -64.5t50.5 -23.5q32 0 121 29l-37 -217q-103 -50 -213 -50q-77 0 -128.5 34t-61.5 110q-53 -63 -134.5 -103.5t-185.5 -40.5q-165 0 -251.5 131t-49.5 367q18 115 62.5 209t106 158.5
t138 109t158 64.5t168.5 20zM723 793q-83 0 -151.5 -52t-107.5 -128t-52 -164q-16 -109 12 -173.5t106 -64.5q70 0 138 54t106 118l72 381q-69 29 -123 29z" />
    <glyph glyph-name="acircumflex" unicode="&#xe2;" horiz-adv-x="1150" 
d="M1110 1227l-135 -119l-187 180l-235 -180l-109 119l297 254h148zM776 1034q189 0 357 -92l-105 -641q-9 -41 4.5 -64.5t50.5 -23.5q32 0 121 29l-37 -217q-103 -50 -213 -50q-77 0 -128.5 34t-61.5 110q-53 -63 -134.5 -103.5t-185.5 -40.5q-165 0 -251.5 131t-49.5 367
q18 115 62.5 209t106 158.5t138 109t158 64.5t168.5 20zM723 793q-83 0 -151.5 -52t-107.5 -128t-52 -164q-16 -109 12 -173.5t106 -64.5q70 0 138 54t106 118l72 381q-69 29 -123 29z" />
    <glyph glyph-name="atilde" unicode="&#xe3;" horiz-adv-x="1150" 
d="M1040 1434l148 -70q-54 -113 -120.5 -171t-156.5 -58q-67 0 -151 28.5t-109 28.5q-40 0 -69.5 -28.5t-46.5 -65.5l-150 100q30 67 98.5 132t137.5 65q57 0 153 -31t129 -31q48 0 79 26t58 75zM776 1034q189 0 357 -92l-105 -641q-9 -41 4.5 -64.5t50.5 -23.5q32 0 121 29
l-37 -217q-103 -50 -213 -50q-77 0 -128.5 34t-61.5 110q-53 -63 -134.5 -103.5t-185.5 -40.5q-165 0 -251.5 131t-49.5 367q18 115 62.5 209t106 158.5t138 109t158 64.5t168.5 20zM723 793q-83 0 -151.5 -52t-107.5 -128t-52 -164q-16 -109 12 -173.5t106 -64.5
q70 0 138 54t106 118l72 381q-69 29 -123 29z" />
    <glyph glyph-name="adieresis" unicode="&#xe4;" horiz-adv-x="1150" 
d="M608 1409q59 0 95 -41t26 -111q-10 -55 -47.5 -83.5t-83.5 -28.5q-59 0 -95.5 40t-25.5 109q8 56 46 85.5t85 29.5zM973 1409q58 0 94 -41t25 -111q-8 -55 -46 -83.5t-85 -28.5q-58 0 -94 40.5t-25 108.5q8 56 46 85.5t85 29.5zM776 1034q189 0 357 -92l-105 -641
q-9 -41 4.5 -64.5t50.5 -23.5q32 0 121 29l-37 -217q-103 -50 -213 -50q-77 0 -128.5 34t-61.5 110q-53 -63 -134.5 -103.5t-185.5 -40.5q-165 0 -251.5 131t-49.5 367q18 115 62.5 209t106 158.5t138 109t158 64.5t168.5 20zM723 793q-83 0 -151.5 -52t-107.5 -128
t-52 -164q-16 -109 12 -173.5t106 -64.5q70 0 138 54t106 118l72 381q-69 29 -123 29z" />
    <glyph glyph-name="aring" unicode="&#xe5;" horiz-adv-x="1150" 
d="M797 1458q82 0 133 -54t35 -149q-11 -82 -66.5 -125t-126.5 -43q-83 0 -134.5 54.5t-35.5 150.5q13 81 69 123.5t126 42.5zM813 1348q-41 0 -70.5 -26.5t-35.5 -66.5q-5 -27 7.5 -42t41.5 -15q41 0 69.5 26t34.5 68q10 56 -47 56zM776 1034q189 0 357 -92l-105 -641
q-9 -41 4.5 -64.5t50.5 -23.5q32 0 121 29l-37 -217q-103 -50 -213 -50q-77 0 -128.5 34t-61.5 110q-53 -63 -134.5 -103.5t-185.5 -40.5q-165 0 -251.5 131t-49.5 367q18 115 62.5 209t106 158.5t138 109t158 64.5t168.5 20zM723 793q-83 0 -151.5 -52t-107.5 -128
t-52 -164q-16 -109 12 -173.5t106 -64.5q70 0 138 54t106 118l72 381q-69 29 -123 29z" />
    <glyph glyph-name="ae" unicode="&#xe6;" horiz-adv-x="1867" 
d="M1442 1034q142 0 245.5 -63t148.5 -171t24 -239l-21 -129l-670 -8q3 -103 49 -157t125 -54q66 0 116 24t77 66l281 -16q-31 -101 -103.5 -173t-166 -105.5t-201.5 -33.5q-199 0 -324 138l-23 -113h-272l23 92q-60 -54 -125 -85.5t-160 -31.5q-79 0 -145.5 40
t-109.5 112.5t-59.5 173.5t3.5 223q36 225 165 367.5t281 142.5q56 0 100.5 -10t76 -29.5t50 -37t41.5 -44.5l21 97h272l-20 -92q134 116 301 116zM1450 825q-74 0 -136.5 -52.5t-96.5 -141.5l395 16q-2 83 -38 130.5t-124 47.5zM657 799q-92 0 -154.5 -84t-84.5 -228
q-21 -130 9 -203t108 -73q71 0 137.5 45.5t107.5 99.5l58 318q-23 49 -71.5 87t-109.5 38z" />
    <glyph glyph-name="ccedilla" unicode="&#xe7;" horiz-adv-x="1042" 
d="M666 788q-105 0 -166.5 -81.5t-83.5 -221.5q-17 -128 22 -195t129 -67q59 0 105 30t65 77l279 -17q-41 -140 -156 -231t-260 -105l-47 -92q91 0 137 -58.5t33 -137.5q-13 -77 -85 -135t-189 -58q-101 0 -181 47l66 125q56 -35 98 -35q44 0 77.5 28.5t39.5 70.5
q3 27 -11 40.5t-46 12.5h-54l-41 82l47 119q-164 35 -249 175.5t-50 360.5q36 227 188 369.5t351 142.5q169 0 277.5 -103.5t99.5 -258.5l-275 18q-4 46 -36.5 72t-83.5 26z" />
    <glyph glyph-name="egrave" unicode="&#xe8;" 
d="M918 1106l-453 166l115 207l430 -205zM590 213q136 0 190 90l283 -16q-31 -101 -103 -173t-165.5 -105.5t-200.5 -33.5q-153 0 -262.5 69t-156.5 196t-21 292q35 223 190.5 362.5t370.5 139.5q188 0 297 -109q91 -90 86 -209q-5 -130 -119 -221q-151 -120 -434 -120
q-59 0 -127 6q9 -82 53 -125t119 -43zM682 811q-81 0 -147 -58t-97 -165q58 -6 107 -6q174 0 237 74q40 48 14 97q-26 51 -97 57q-8 1 -17 1z" />
    <glyph glyph-name="eacute" unicode="&#xe9;" 
d="M524 1104l-35 168l486 205l47 -207zM590 213q136 0 190 90l283 -16q-31 -101 -103 -173t-165.5 -105.5t-200.5 -33.5q-153 0 -262.5 69t-156.5 196t-21 292q35 223 190.5 362.5t370.5 139.5q188 0 297 -109q91 -90 86 -209q-5 -130 -119 -221q-151 -120 -434 -120
q-59 0 -127 6q9 -82 53 -125t119 -43zM682 811q-81 0 -147 -58t-97 -165q58 -6 107 -6q174 0 237 74q40 48 14 97q-26 51 -97 57q-8 1 -17 1z" />
    <glyph glyph-name="ecircumflex" unicode="&#xea;" 
d="M518 1108l-108 119l297 254h147l221 -254l-135 -119l-186 180zM590 213q136 0 190 90l283 -16q-31 -101 -103 -173t-165.5 -105.5t-200.5 -33.5q-153 0 -262.5 69t-156.5 196t-21 292q35 223 190.5 362.5t370.5 139.5q188 0 297 -109q91 -90 86 -209q-5 -130 -119 -221
q-151 -120 -434 -120q-59 0 -127 6q9 -82 53 -125t119 -43zM682 811q-81 0 -147 -58t-97 -165q58 -6 107 -6q174 0 237 74q40 48 14 97q-26 51 -97 57q-8 1 -17 1z" />
    <glyph glyph-name="edieresis" unicode="&#xeb;" 
d="M563 1145q-59 0 -95.5 40t-25.5 109q8 56 46 85.5t85 29.5q59 0 95 -41t26 -111q-10 -55 -47.5 -83.5t-83.5 -28.5zM926 1145q-58 0 -94 40.5t-25 108.5q8 56 46 85.5t85 29.5q58 0 94 -41t25 -111q-8 -55 -46 -83.5t-85 -28.5zM590 213q136 0 190 90l283 -16
q-31 -101 -103 -173t-165.5 -105.5t-200.5 -33.5q-153 0 -262.5 69t-156.5 196t-21 292q35 223 190.5 362.5t370.5 139.5q188 0 297 -109q91 -90 86 -209q-5 -130 -119 -221q-151 -120 -434 -120q-59 0 -127 6q9 -82 53 -125t119 -43zM682 811q-81 0 -147 -58t-97 -165
q58 -6 107 -6q174 0 237 74q40 48 14 97q-26 51 -97 57q-8 1 -17 1z" />
    <glyph glyph-name="igrave" unicode="&#xec;" horiz-adv-x="495" 
d="M283 1479l430 -205l-92 -168l-453 166zM383 0h-270l159 1010h271z" />
    <glyph glyph-name="iacute" unicode="&#xed;" horiz-adv-x="495" 
d="M225 1104l-35 168l486 205l47 -207zM383 0h-270l159 1010h271z" />
    <glyph glyph-name="icircumflex" unicode="&#xee;" horiz-adv-x="495" 
d="M776 1227l-135 -119l-186 180l-236 -180l-108 119l297 254h147zM383 0h-270l159 1010h271z" />
    <glyph glyph-name="idieresis" unicode="&#xef;" horiz-adv-x="495" 
d="M274 1409q59 0 95 -41t26 -111q-10 -55 -47.5 -83.5t-83.5 -28.5q-59 0 -95.5 40t-25.5 109q8 56 46 85.5t85 29.5zM639 1409q58 0 94 -41t25 -111q-8 -55 -46 -83.5t-85 -28.5q-58 0 -94 40.5t-25 108.5q8 56 46 85.5t85 29.5zM383 0h-270l159 1010h271z" />
    <glyph glyph-name="eth" unicode="&#xf0;" horiz-adv-x="1069" 
d="M954 1386l-86 -102q158 -164 203 -354.5t6 -437.5q-38 -234 -177 -375.5t-349 -141.5q-79 0 -145.5 20.5t-112.5 56.5t-80 85.5t-49 108t-20 123.5t8 131q35 215 176 347t327 132q59 0 111.5 -20t73.5 -48q-2 21 -12 43.5t-20.5 38.5t-31.5 38t-31.5 31.5t-34 29.5
t-26.5 22l-72 -92l-127 76l74 82q-51 34 -123 55l115 201q117 -30 184 -74l78 98zM666 733q-98 0 -166 -78t-84 -190q-9 -64 1.5 -117.5t47 -89t94.5 -35.5q97 0 164.5 82.5t83.5 196.5q13 99 -22 165t-119 66z" />
    <glyph glyph-name="ntilde" unicode="&#xf1;" horiz-adv-x="1126" 
d="M989 1434l148 -70q-54 -113 -120.5 -171t-156.5 -58q-67 0 -151.5 28.5t-108.5 28.5q-40 0 -70 -28.5t-47 -65.5l-149 100q30 67 98 132t137 65q57 0 153.5 -31t129.5 -31q48 0 79 26t58 75zM727 1034q77 0 139 -15t116 -49t84.5 -89t43 -135.5t-7.5 -188.5l-88 -557
h-271l91 573q13 93 -26.5 140t-123.5 47q-75 0 -184 -45l-119 -715h-268l139 936q271 98 475 98z" />
    <glyph glyph-name="ograve" unicode="&#xf2;" horiz-adv-x="1081" 
d="M575 1479l431 -205l-93 -168l-452 166zM688 1034q150 0 250.5 -73t138.5 -197t13 -279q-37 -227 -178.5 -368.5t-358.5 -141.5q-154 0 -254 72.5t-135.5 194.5t-11.5 280q35 225 178.5 368.5t357.5 143.5zM678 788q-108 0 -175 -84t-87 -219q-18 -121 17 -191.5
t130 -70.5q108 0 175 82.5t87 216.5q8 77 0 136t-45.5 94.5t-101.5 35.5z" />
    <glyph glyph-name="oacute" unicode="&#xf3;" horiz-adv-x="1081" 
d="M520 1104l-35 168l486 205l47 -207zM688 1034q150 0 250.5 -73t138.5 -197t13 -279q-37 -227 -178.5 -368.5t-358.5 -141.5q-154 0 -254 72.5t-135.5 194.5t-11.5 280q35 225 178.5 368.5t357.5 143.5zM678 788q-108 0 -175 -84t-87 -219q-18 -121 17 -191.5t130 -70.5
q108 0 175 82.5t87 216.5q8 77 0 136t-45.5 94.5t-101.5 35.5z" />
    <glyph glyph-name="ocircumflex" unicode="&#xf4;" horiz-adv-x="1081" 
d="M1069 1227l-135 -119l-186 180l-236 -180l-109 119l297 254h148zM688 1034q150 0 250.5 -73t138.5 -197t13 -279q-37 -227 -178.5 -368.5t-358.5 -141.5q-154 0 -254 72.5t-135.5 194.5t-11.5 280q35 225 178.5 368.5t357.5 143.5zM678 788q-108 0 -175 -84t-87 -219
q-18 -121 17 -191.5t130 -70.5q108 0 175 82.5t87 216.5q8 77 0 136t-45.5 94.5t-101.5 35.5z" />
    <glyph glyph-name="otilde" unicode="&#xf5;" horiz-adv-x="1081" 
d="M999 1434l148 -70q-54 -113 -120.5 -171t-156.5 -58q-66 0 -151 28.5t-109 28.5q-40 0 -69.5 -28.5t-46.5 -65.5l-150 100q30 67 98.5 132t137.5 65q57 0 153 -31t129 -31q48 0 79 26t58 75zM688 1034q150 0 250.5 -73t138.5 -197t13 -279q-37 -227 -178.5 -368.5
t-358.5 -141.5q-154 0 -254 72.5t-135.5 194.5t-11.5 280q35 225 178.5 368.5t357.5 143.5zM678 788q-108 0 -175 -84t-87 -219q-18 -121 17 -191.5t130 -70.5q108 0 175 82.5t87 216.5q8 77 0 136t-45.5 94.5t-101.5 35.5z" />
    <glyph glyph-name="odieresis" unicode="&#xf6;" horiz-adv-x="1081" 
d="M567 1409q59 0 95 -41t26 -111q-10 -55 -47.5 -83.5t-83.5 -28.5q-59 0 -95.5 40t-25.5 109q8 56 46 85.5t85 29.5zM932 1409q58 0 94 -41t25 -111q-8 -55 -46 -83.5t-85 -28.5q-58 0 -94 40.5t-25 108.5q8 56 46 85.5t85 29.5zM688 1034q150 0 250.5 -73t138.5 -197
t13 -279q-37 -227 -178.5 -368.5t-358.5 -141.5q-154 0 -254 72.5t-135.5 194.5t-11.5 280q35 225 178.5 368.5t357.5 143.5zM678 788q-108 0 -175 -84t-87 -219q-18 -121 17 -191.5t130 -70.5q108 0 175 82.5t87 216.5q8 77 0 136t-45.5 94.5t-101.5 35.5z" />
    <glyph glyph-name="divide" unicode="&#xf7;" horiz-adv-x="952" 
d="M782 1006q-11 -62 -53.5 -95.5t-93.5 -33.5q-66 0 -107 44.5t-28 120.5q10 62 53.5 95.5t95.5 33.5q65 0 105.5 -44t27.5 -121zM940 498h-778l45 254h780zM651 205q-11 -62 -54 -95.5t-95 -33.5q-67 0 -106.5 44t-28.5 122q10 62 54.5 95.5t96.5 33.5q65 0 105.5 -44.5
t27.5 -121.5z" />
    <glyph glyph-name="oslash" unicode="&#xf8;" horiz-adv-x="1085" 
d="M1143 1087l-127 -178q66 -73 90 -183t4 -241q-37 -227 -178.5 -368.5t-358.5 -141.5q-112 0 -198 39l-133 -186l-133 84l143 199q-119 149 -80 411q35 225 179 368.5t358 143.5q94 0 178 -33l123 170zM436 485q-9 -70 -4 -120l301 421q-5 0 -17 1t-18 1q-108 0 -175 -84
t-87 -219zM846 522q13 88 -2 148l-314 -439q21 -8 54 -8q108 0 175 82.5t87 216.5z" />
    <glyph glyph-name="ugrave" unicode="&#xf9;" horiz-adv-x="1101" 
d="M582 1479l430 -205l-92 -168l-453 166zM1151 1010l-88 -568q-38 -239 -171 -353t-329 -114q-207 0 -313 122t-68 364l86 549h273l-90 -574q-16 -107 11 -160t111 -53q97 0 151.5 61.5t68.5 168.5l88 557h270z" />
    <glyph glyph-name="uacute" unicode="&#xfa;" horiz-adv-x="1101" 
d="M524 1104l-35 168l486 205l47 -207zM1151 1010l-88 -568q-38 -239 -171 -353t-329 -114q-207 0 -313 122t-68 364l86 549h273l-90 -574q-16 -107 11 -160t111 -53q97 0 151.5 61.5t68.5 168.5l88 557h270z" />
    <glyph glyph-name="ucircumflex" unicode="&#xfb;" horiz-adv-x="1101" 
d="M1075 1227l-135 -119l-186 180l-236 -180l-108 119l297 254h147zM1151 1010l-88 -568q-38 -239 -171 -353t-329 -114q-207 0 -313 122t-68 364l86 549h273l-90 -574q-16 -107 11 -160t111 -53q97 0 151.5 61.5t68.5 168.5l88 557h270z" />
    <glyph glyph-name="udieresis" unicode="&#xfc;" horiz-adv-x="1101" 
d="M573 1409q59 0 95 -41t26 -111q-10 -55 -47.5 -83.5t-83.5 -28.5q-59 0 -95.5 40t-25.5 109q8 56 46 85.5t85 29.5zM938 1409q58 0 94 -41t25 -111q-8 -55 -46 -83.5t-85 -28.5q-58 0 -94 40.5t-25 108.5q8 56 46 85.5t85 29.5zM1151 1010l-88 -568q-38 -239 -171 -353
t-329 -114q-207 0 -313 122t-68 364l86 549h273l-90 -574q-16 -107 11 -160t111 -53q97 0 151.5 61.5t68.5 168.5l88 557h270z" />
    <glyph glyph-name="yacute" unicode="&#xfd;" horiz-adv-x="1120" 
d="M530 1104l-34 168l485 205l47 -207zM1167 1010l-151 -959q-32 -207 -189 -334t-372 -127q-217 0 -383 144l159 198q96 -96 234 -96q102 0 186 67t94 163l13 36q-103 -96 -260 -96q-59 0 -109 13t-96 44t-73 80.5t-38.5 123t6.5 171.5l88 572h273l-82 -529
q-19 -124 4.5 -174.5t108.5 -50.5q131 0 221 147l96 607h270z" />
    <glyph glyph-name="thorn" unicode="&#xfe;" 
d="M584 1290l-56 -315q88 59 197 59q153 0 252.5 -72.5t134.5 -194.5t10 -280q-17 -111 -61 -203.5t-103.5 -154t-132 -99.5t-146.5 -46.5t-148.5 10.5t-137.5 67l-76 -446h-270l266 1675h271zM715 788q-107 0 -171.5 -72t-82.5 -196l-35 -203q46 -67 114 -86t132.5 6.5
t117.5 101.5t68 185q18 122 -15 193t-128 71z" />
    <glyph glyph-name="ydieresis" unicode="&#xff;" horiz-adv-x="1120" 
d="M578 1409q59 0 94.5 -41t25.5 -111q-10 -55 -47.5 -83.5t-83.5 -28.5q-59 0 -95.5 40t-25.5 109q8 56 46.5 85.5t85.5 29.5zM942 1409q58 0 94 -41t25 -111q-8 -55 -46 -83.5t-85 -28.5q-58 0 -94 40.5t-25 108.5q8 56 46 85.5t85 29.5zM1167 1010l-151 -959
q-32 -207 -189 -334t-372 -127q-217 0 -383 144l159 198q96 -96 234 -96q102 0 186 67t94 163l13 36q-103 -96 -260 -96q-59 0 -109 13t-96 44t-73 80.5t-38.5 123t6.5 171.5l88 572h273l-82 -529q-19 -124 4.5 -174.5t108.5 -50.5q131 0 221 147l96 607h270z" />
    <glyph glyph-name="Amacron" unicode="&#x100;" horiz-adv-x="1394" 
d="M1221 1417h-598l34 187h598zM975 236h-477l-107 -236h-334l676 1290l338 -2l262 -1288h-313zM924 506l-90 465l-211 -465h301z" />
    <glyph glyph-name="amacron" unicode="&#x101;" horiz-adv-x="1150" 
d="M1059 1137h-598l35 186h598zM776 1034q189 0 357 -92l-105 -641q-9 -41 4.5 -64.5t50.5 -23.5q32 0 121 29l-37 -217q-103 -50 -213 -50q-77 0 -128.5 34t-61.5 110q-53 -63 -134.5 -103.5t-185.5 -40.5q-165 0 -251.5 131t-49.5 367q18 115 62.5 209t106 158.5t138 109
t158 64.5t168.5 20zM723 793q-83 0 -151.5 -52t-107.5 -128t-52 -164q-16 -109 12 -173.5t106 -64.5q70 0 138 54t106 118l72 381q-69 29 -123 29z" />
    <glyph glyph-name="Abreve" unicode="&#x102;" horiz-adv-x="1394" 
d="M938 1395q-142 0 -221 87t-55 240l196 -18q-16 -131 76 -131q59 0 100.5 42.5t52.5 106.5l195 -18q-25 -151 -119.5 -230t-224.5 -79zM975 236h-477l-107 -236h-334l676 1290l338 -2l262 -1288h-313zM924 506l-90 465l-211 -465h301z" />
    <glyph glyph-name="abreve" unicode="&#x103;" horiz-adv-x="1150" 
d="M926 1442l194 -19q-25 -151 -119.5 -230t-224.5 -79q-142 0 -221 87.5t-55 240.5l196 -19q-16 -131 76 -131q59 0 101 43t53 107zM776 1034q189 0 357 -92l-105 -641q-9 -41 4.5 -64.5t50.5 -23.5q32 0 121 29l-37 -217q-103 -50 -213 -50q-77 0 -128.5 34t-61.5 110
q-53 -63 -134.5 -103.5t-185.5 -40.5q-165 0 -251.5 131t-49.5 367q18 115 62.5 209t106 158.5t138 109t158 64.5t168.5 20zM723 793q-83 0 -151.5 -52t-107.5 -128t-52 -164q-16 -109 12 -173.5t106 -64.5q70 0 138 54t106 118l72 381q-69 29 -123 29z" />
    <glyph glyph-name="Aogonek" unicode="&#x104;" horiz-adv-x="1394" 
d="M1139 -246q36 0 75 39l78 -129q-84 -74 -192 -74q-104 0 -151 57t-34 144q6 44 37.5 105.5t67.5 103.5l-45 236h-477l-107 -236h-334l676 1290l338 -2l262 -1288h-127q-79 -128 -88 -205q-7 -41 21 -41zM924 506l-90 465l-211 -465h301z" />
    <glyph glyph-name="aogonek" unicode="&#x105;" horiz-adv-x="1150" 
d="M1051 -14q-70 -112 -80 -191q-7 -41 20 -41q37 0 76 39l78 -129q-38 -34 -90 -54t-103 -20q-104 0 -150.5 57t-33.5 144q6 41 34 98.5t62 100.5q-86 30 -100 129q-53 -63 -134.5 -103.5t-185.5 -40.5q-165 0 -251.5 131t-49.5 367q18 115 62.5 209t106 158.5t138 109
t158 64.5t168.5 20q189 0 357 -92l-105 -641q-9 -41 4.5 -64.5t50.5 -23.5q32 0 121 29l-37 -217q-56 -27 -116 -39zM774 383l72 381q-69 29 -123 29q-83 0 -151.5 -52t-107.5 -128t-52 -164q-16 -109 12 -173.5t106 -64.5q70 0 138 54t106 118z" />
    <glyph glyph-name="Cacute" unicode="&#x106;" horiz-adv-x="1261" 
d="M692 1384l-35 168l486 205l47 -207zM862 1315q113 0 207 -34t152.5 -90.5t86.5 -130t17 -151.5l-330 19q-19 123 -145 123q-148 0 -249.5 -119.5t-131.5 -313.5q-27 -168 33 -272t194 -104q81 0 140.5 41.5t81.5 97.5l331 -19q-30 -161 -190 -274t-375 -113
q-188 0 -313.5 86t-173.5 241.5t-15 359.5q50 299 230 476t450 177z" />
    <glyph glyph-name="cacute" unicode="&#x107;" horiz-adv-x="1042" 
d="M524 1104l-35 168l486 205l47 -207zM684 1034q169 0 277.5 -103.5t99.5 -258.5l-275 18q-4 46 -36.5 72t-83.5 26q-105 0 -166.5 -81.5t-83.5 -221.5q-17 -128 22 -195t129 -67q59 0 105 30t65 77l279 -17q-29 -101 -99.5 -178.5t-166 -118.5t-199.5 -41
q-101 0 -184 36.5t-140 104t-80 172.5t-2 234q36 227 188 369.5t351 142.5z" />
    <glyph glyph-name="Cdotaccent" unicode="&#x10a;" horiz-adv-x="1261" 
d="M1079 1606q-11 -65 -56.5 -100.5t-102.5 -35.5q-68 0 -111 46.5t-29 125.5q10 66 56 102t102 36q69 0 111.5 -46t29.5 -128zM862 1315q113 0 207 -34t152.5 -90.5t86.5 -130t17 -151.5l-330 19q-19 123 -145 123q-148 0 -249.5 -119.5t-131.5 -313.5q-27 -168 33 -272
t194 -104q81 0 140.5 41.5t81.5 97.5l331 -19q-30 -161 -190 -274t-375 -113q-188 0 -313.5 86t-173.5 241.5t-15 359.5q50 299 230 476t450 177z" />
    <glyph glyph-name="cdotaccent" unicode="&#x10b;" horiz-adv-x="1042" 
d="M911 1325q-11 -65 -56.5 -100t-102.5 -35q-68 0 -111 46.5t-29 125.5q10 66 56 101.5t102 35.5q69 0 111.5 -46t29.5 -128zM684 1034q169 0 277.5 -103.5t99.5 -258.5l-275 18q-4 46 -36.5 72t-83.5 26q-105 0 -166.5 -81.5t-83.5 -221.5q-17 -128 22 -195t129 -67
q59 0 105 30t65 77l279 -17q-29 -101 -99.5 -178.5t-166 -118.5t-199.5 -41q-101 0 -184 36.5t-140 104t-80 172.5t-2 234q36 227 188 369.5t351 142.5z" />
    <glyph glyph-name="Ccaron" unicode="&#x10c;" horiz-adv-x="1261" 
d="M1264 1649l-295 -254h-148l-223 254l137 118l183 -180l239 180zM862 1315q113 0 207 -34t152.5 -90.5t86.5 -130t17 -151.5l-330 19q-19 123 -145 123q-148 0 -249.5 -119.5t-131.5 -313.5q-27 -168 33 -272t194 -104q81 0 140.5 41.5t81.5 97.5l331 -19
q-30 -161 -190 -274t-375 -113q-188 0 -313.5 86t-173.5 241.5t-15 359.5q50 299 230 476t450 177z" />
    <glyph glyph-name="ccaron" unicode="&#x10d;" horiz-adv-x="1042" 
d="M1096 1368l-295 -254h-148l-223 254l137 119l183 -180l239 180zM684 1034q169 0 277.5 -103.5t99.5 -258.5l-275 18q-4 46 -36.5 72t-83.5 26q-105 0 -166.5 -81.5t-83.5 -221.5q-17 -128 22 -195t129 -67q59 0 105 30t65 77l279 -17q-29 -101 -99.5 -178.5t-166 -118.5
t-199.5 -41q-101 0 -184 36.5t-140 104t-80 172.5t-2 234q36 227 188 369.5t351 142.5z" />
    <glyph glyph-name="Dcaron" unicode="&#x10e;" horiz-adv-x="1271" 
d="M1118 1649l-295 -254h-147l-223 254l137 118l182 -180l240 180zM330 1290h436q152 0 265.5 -54.5t175.5 -146.5t84.5 -208t2.5 -244q-19 -123 -73.5 -234t-141.5 -202.5t-217 -146t-284 -54.5h-453zM573 1020l-106 -750h139q87 0 159 33t121 90.5t79.5 129t42.5 153.5
q13 69 0.5 131.5t-42.5 109.5t-90.5 75t-142.5 28h-160z" />
    <glyph glyph-name="dcaron" unicode="&#x10f;" horiz-adv-x="1363" 
d="M1253 1403l-143 -918q-38 -233 -176 -371.5t-356 -138.5q-154 0 -255.5 72.5t-138.5 195t-12 279.5q37 236 182 374t316 138q133 0 239 -71l74 440h270zM1501 928l84 475h-219l-76 -475h211zM705 788q-93 0 -167.5 -73.5t-95.5 -212.5q-20 -127 16.5 -203t129.5 -76
q100 0 166.5 73.5t85.5 197.5l37 213q-28 35 -76.5 58t-95.5 23z" />
    <glyph glyph-name="Dcroat" unicode="&#x110;" horiz-adv-x="1271" 
d="M350 1290h436q122 0 220.5 -35.5t161.5 -97.5t104 -145t48.5 -178t-5.5 -197q-15 -97 -52 -188t-99 -173t-142.5 -143t-190 -97t-233.5 -36h-453l86 541h-149l35 204h147zM1028 676q14 96 -7.5 171.5t-89.5 124t-177 48.5h-160l-39 -275h197l-35 -204h-191l-39 -271h140
q87 0 159 33t120.5 90.5t79 129t42.5 153.5z" />
    <glyph glyph-name="dcroat" unicode="&#x111;" horiz-adv-x="1116" 
d="M1309 1137h-97l-102 -652q-38 -233 -176 -371.5t-356 -138.5q-154 0 -255.5 72.5t-138.5 195t-12 279.5q37 236 182 374t316 138q133 0 239 -71l29 174h-236l25 141h236l20 125h270l-20 -125h100zM840 494l37 213q-28 35 -76.5 58t-95.5 23q-93 0 -167.5 -73.5
t-95.5 -212.5q-20 -127 16.5 -203t129.5 -76q100 0 166.5 73.5t85.5 197.5z" />
    <glyph glyph-name="Emacron" unicode="&#x112;" horiz-adv-x="1083" 
d="M1057 1417h-598l35 187h598zM1098 1020h-525l-30 -240h485l-47 -270h-485l-13 -102q-10 -81 19 -109.5t90 -28.5h405l-47 -270h-426q-184 0 -274.5 104t-59.5 306l140 880h817z" />
    <glyph glyph-name="emacron" unicode="&#x113;" 
d="M1024 1137h-598l35 186h598zM590 213q136 0 190 90l283 -16q-31 -101 -103 -173t-165.5 -105.5t-200.5 -33.5q-153 0 -262.5 69t-156.5 196t-21 292q35 223 190.5 362.5t370.5 139.5q188 0 297 -109q91 -90 86 -209q-5 -130 -119 -221q-151 -120 -434 -120q-59 0 -127 6
q9 -82 53 -125t119 -43zM682 811q-81 0 -147 -58t-97 -165q58 -6 107 -6q174 0 237 74q40 48 14 97q-26 51 -97 57q-8 1 -17 1z" />
    <glyph glyph-name="Edotaccent" unicode="&#x116;" horiz-adv-x="1083" 
d="M944 1606q-11 -65 -57 -100.5t-103 -35.5q-68 0 -110.5 46.5t-28.5 125.5q10 66 56 102t102 36q69 0 111.5 -46t29.5 -128zM1098 1020h-525l-30 -240h485l-47 -270h-485l-13 -102q-10 -81 19 -109.5t90 -28.5h405l-47 -270h-426q-184 0 -274.5 104t-59.5 306l140 880h817
z" />
    <glyph glyph-name="edotaccent" unicode="&#x117;" 
d="M752 1190q-68 0 -111 46.5t-29 125.5q10 66 56 101.5t102 35.5q69 0 111.5 -46t29.5 -128q-11 -65 -56.5 -100t-102.5 -35zM590 213q136 0 190 90l283 -16q-31 -101 -103 -173t-165.5 -105.5t-200.5 -33.5q-153 0 -262.5 69t-156.5 196t-21 292q35 223 190.5 362.5
t370.5 139.5q188 0 297 -109q91 -90 86 -209q-5 -130 -119 -221q-151 -120 -434 -120q-59 0 -127 6q9 -82 53 -125t119 -43zM682 811q-81 0 -147 -58t-97 -165q58 -6 107 -6q174 0 237 74q40 48 14 97q-26 51 -97 57q-8 1 -17 1z" />
    <glyph glyph-name="Eogonek" unicode="&#x118;" horiz-adv-x="1083" 
d="M573 1020l-30 -240h485l-47 -270h-485l-13 -102q-10 -81 19 -109.5t90 -28.5h405l-45 -266l-2 -4q-79 -128 -88 -205q-7 -41 21 -41q36 0 75 39l78 -129q-84 -74 -192 -74q-104 0 -151 57t-34 144q6 44 37.5 105.5t67.5 103.5h-240q-184 0 -274.5 104t-59.5 306l140 880
h817l-49 -270h-525z" />
    <glyph glyph-name="eogonek" unicode="&#x119;" 
d="M590 213q136 0 190 90l283 -16q-41 -137 -153.5 -217t-258.5 -93q-66 -108 -76 -182q-7 -41 21 -41q37 0 76 39l78 -129q-38 -34 -90 -54t-103 -20q-104 0 -150.5 57t-33.5 144q6 41 34 98.5t62 100.5q-175 39 -261.5 184t-53.5 358q35 223 190.5 362.5t370.5 139.5
q188 0 297 -109q91 -90 86 -209q-5 -130 -119 -221q-151 -120 -434 -120q-59 0 -127 6q9 -82 53 -125t119 -43zM682 811q-81 0 -147 -58t-97 -165q58 -6 107 -6q174 0 237 74q40 48 14 97q-26 51 -97 57q-8 1 -17 1z" />
    <glyph glyph-name="Ecaron" unicode="&#x11a;" horiz-adv-x="1083" 
d="M1128 1649l-294 -254h-148l-223 254l137 118l182 -180l240 180zM1098 1020h-525l-30 -240h485l-47 -270h-485l-13 -102q-10 -81 19 -109.5t90 -28.5h405l-47 -270h-426q-184 0 -274.5 104t-59.5 306l140 880h817z" />
    <glyph glyph-name="ecaron" unicode="&#x11b;" 
d="M653 1114l-223 254l137 119l183 -180l239 180l107 -119l-295 -254h-148zM590 213q136 0 190 90l283 -16q-31 -101 -103 -173t-165.5 -105.5t-200.5 -33.5q-153 0 -262.5 69t-156.5 196t-21 292q35 223 190.5 362.5t370.5 139.5q188 0 297 -109q91 -90 86 -209
q-5 -130 -119 -221q-151 -120 -434 -120q-59 0 -127 6q9 -82 53 -125t119 -43zM682 811q-81 0 -147 -58t-97 -165q58 -6 107 -6q174 0 237 74q40 48 14 97q-26 51 -97 57q-8 1 -17 1z" />
    <glyph glyph-name="Gbreve" unicode="&#x11e;" horiz-adv-x="1310" 
d="M1036 1722l195 -18q-25 -151 -119.5 -230t-224.5 -79q-142 0 -221.5 87t-55.5 240l197 -18q-16 -131 76 -131q59 0 100.5 42.5t52.5 106.5zM862 1315q113 0 206.5 -34t152.5 -90.5t87 -130t17 -151.5l-330 19q-19 123 -145 123q-148 0 -249.5 -119.5t-131.5 -313.5
q-27 -168 33 -272t194 -104q138 0 240 75l29 168h-215l38 226h521l-82 -539q-97 -92 -236 -144.5t-307 -52.5q-188 0 -313.5 86t-173.5 241.5t-15 359.5q50 299 230 476t450 177z" />
    <glyph glyph-name="gbreve" unicode="&#x11f;" horiz-adv-x="1132" 
d="M889 1442l194 -19q-25 -151 -119.5 -230t-224.5 -79q-142 0 -221 87.5t-55 240.5l196 -19q-16 -131 76 -131q59 0 101 43t53 107zM684 1034q229 0 333 -143t68 -375l-71 -465q-32 -207 -186.5 -334t-366.5 -127q-81 0 -147.5 19.5t-103.5 42t-89 63.5l137 205
q96 -84 211 -84q104 0 182 58.5t90 152.5l13 25q-77 -48 -158 -67t-153 -8t-134.5 49t-102.5 105t-56.5 160t2.5 213q37 228 176 369t356 141zM676 788q-108 0 -174 -83t-86 -218q-12 -83 4.5 -143t55 -87.5t88 -31t107.5 24t111 80.5l39 233q18 107 -22 166t-123 59z" />
    <glyph glyph-name="Gdotaccent" unicode="&#x120;" horiz-adv-x="1310" 
d="M1057 1606q-11 -65 -57 -100.5t-103 -35.5q-68 0 -110.5 46.5t-28.5 125.5q10 66 55.5 102t101.5 36q69 0 112 -46t30 -128zM862 1315q113 0 206.5 -34t152.5 -90.5t87 -130t17 -151.5l-330 19q-19 123 -145 123q-148 0 -249.5 -119.5t-131.5 -313.5q-27 -168 33 -272
t194 -104q138 0 240 75l29 168h-215l38 226h521l-82 -539q-97 -92 -236 -144.5t-307 -52.5q-188 0 -313.5 86t-173.5 241.5t-15 359.5q50 299 230 476t450 177z" />
    <glyph glyph-name="gdotaccent" unicode="&#x121;" horiz-adv-x="1132" 
d="M909 1325q-11 -65 -56.5 -100t-102.5 -35q-68 0 -111 46.5t-29 125.5q10 66 56 101.5t102 35.5q69 0 111.5 -46t29.5 -128zM684 1034q229 0 333 -143t68 -375l-71 -465q-32 -207 -186.5 -334t-366.5 -127q-81 0 -147.5 19.5t-103.5 42t-89 63.5l137 205q96 -84 211 -84
q104 0 182 58.5t90 152.5l13 25q-77 -48 -158 -67t-153 -8t-134.5 49t-102.5 105t-56.5 160t2.5 213q37 228 176 369t356 141zM676 788q-108 0 -174 -83t-86 -218q-12 -83 4.5 -143t55 -87.5t88 -31t107.5 24t111 80.5l39 233q18 107 -22 166t-123 59z" />
    <glyph glyph-name="Gcommaaccent" unicode="&#x122;" horiz-adv-x="1310" 
d="M862 1315q113 0 206.5 -34t152.5 -90.5t87 -130t17 -151.5l-330 19q-19 123 -145 123q-148 0 -249.5 -119.5t-131.5 -313.5q-27 -168 33 -272t194 -104q138 0 240 75l29 168h-215l38 226h521l-82 -539q-97 -92 -236 -144.5t-307 -52.5q-188 0 -313.5 86t-173.5 241.5
t-15 359.5q50 299 230 476t450 177zM651 -453l131 355h-229l-129 -355h227z" />
    <glyph glyph-name="gcommaaccent" unicode="&#x123;" horiz-adv-x="1132" 
d="M752 1462l-134 -354h230l129 354h-225zM684 1034q229 0 333 -143t68 -375l-71 -465q-32 -207 -186.5 -334t-366.5 -127q-81 0 -147.5 19.5t-103.5 42t-89 63.5l137 205q96 -84 211 -84q104 0 182 58.5t90 152.5l13 25q-77 -48 -158 -67t-153 -8t-134.5 49t-102.5 105
t-56.5 160t2.5 213q37 228 176 369t356 141zM676 788q-108 0 -174 -83t-86 -218q-12 -83 4.5 -143t55 -87.5t88 -31t107.5 24t111 80.5l39 233q18 107 -22 166t-123 59z" />
    <glyph glyph-name="Hbar" unicode="&#x126;" horiz-adv-x="1351" 
d="M1501 924h-106l-148 -924h-293l76 500h-514l-78 -500h-293l148 924h-148l27 163h145l33 203h293l-33 -203h516l33 203h293l-33 -203h109zM1102 924h-516l-25 -154h516z" />
    <glyph glyph-name="hbar" unicode="&#x127;" horiz-adv-x="1132" 
d="M793 1034q59 0 111.5 -14t99 -45.5t76 -81t42 -120t-3.5 -163.5l-96 -610h-270l92 610q13 89 -23.5 133.5t-107.5 44.5q-95 0 -213 -71l-117 -717h-270l178 1135h-111l27 161h110l17 107h270l-18 -107h237l-26 -161h-238l-29 -172q114 71 263 71z" />
    <glyph glyph-name="Imacron" unicode="&#x12a;" horiz-adv-x="542" 
d="M795 1417h-598l34 187h598zM418 0h-293l205 1290h293z" />
    <glyph glyph-name="imacron" unicode="&#x12b;" horiz-adv-x="495" 
d="M725 1137h-598l35 186h598zM383 0h-270l159 1010h271z" />
    <glyph glyph-name="Iogonek" unicode="&#x12e;" horiz-adv-x="542" 
d="M295 -248q37 0 76 39l78 -129q-38 -34 -90 -54t-103 -20q-104 0 -150.5 57t-33.5 144q6 46 37.5 108t68.5 103h-53l205 1290h293l-205 -1290h-56q-2 -4 -15.5 -27.5t-17 -30.5t-14.5 -27.5t-15 -31.5t-11 -28t-10 -32t-5 -30q-7 -41 21 -41z" />
    <glyph glyph-name="iogonek" unicode="&#x12f;" horiz-adv-x="495" 
d="M473 1499q69 0 111.5 -46t29.5 -128q-11 -65 -57 -100t-102 -35q-68 0 -111.5 46.5t-30.5 125.5q11 66 57.5 101.5t102.5 35.5zM383 0h-51q-78 -120 -88 -205q-6 -39 22 -39q33 0 72 39l78 -131q-37 -34 -88.5 -54t-102.5 -20q-104 0 -150.5 57t-33.5 144q14 85 109 209
h-37l159 1010h271z" />
    <glyph glyph-name="Idotaccent" unicode="&#x130;" horiz-adv-x="542" 
d="M682 1606q-11 -65 -57 -100.5t-103 -35.5q-68 0 -110.5 46.5t-28.5 125.5q10 66 56 102t102 36q69 0 111.5 -46t29.5 -128zM418 0h-293l205 1290h293z" />
    <glyph glyph-name="dotlessi" unicode="&#x131;" horiz-adv-x="495" 
d="M383 0h-270l159 1010h271z" />
    <glyph glyph-name="IJ" unicode="&#x132;" horiz-adv-x="1423" 
d="M418 0h-293l205 1290h293zM1503 1290l-112 -719q-20 -129 -75 -236t-144.5 -188.5t-222 -126.5t-296.5 -45l29 267q82 0 149 19.5t113 52.5t79.5 78t51.5 93.5t25 102.5l61 432h-315l47 270h610z" />
    <glyph glyph-name="ij" unicode="&#x133;" horiz-adv-x="1030" 
d="M612 1325q-11 -65 -56.5 -100t-102.5 -35q-68 0 -111 46.5t-29 125.5q10 66 56 101.5t102 35.5q69 0 111.5 -46t29.5 -128zM1161 1325q-11 -65 -57 -100t-103 -35q-68 0 -110.5 46.5t-28.5 125.5q10 66 56 101.5t102 35.5q69 0 111.5 -46t29.5 -128zM383 0h-270l159 1010
h271zM1071 1010l-151 -975q-37 -233 -154 -339t-350 -106l28 252q101 0 145.5 51.5t63.5 157.5l148 959h270z" />
    <glyph glyph-name="Kcommaaccent" unicode="&#x136;" horiz-adv-x="1216" 
d="M821 756l361 -756h-353l-235 526l-109 -110l-67 -416h-293l205 1290h293l-80 -499l438 499h369zM524 -98h230l-131 -355h-228z" />
    <glyph glyph-name="kcommaaccent" unicode="&#x137;" horiz-adv-x="1056" 
d="M721 580l303 -580h-328l-186 377l-76 -74l-51 -303h-270l221 1403h270l-115 -733l302 340h376zM387 -98h229l-131 -355h-227z" />
    <glyph glyph-name="Lacute" unicode="&#x139;" horiz-adv-x="997" 
d="M442 1384l-34 168l485 205l47 -207zM625 1290l-142 -893q-10 -75 14 -101t74 -26h396l-47 -270h-414q-173 0 -260 102t-56 297l142 891h293z" />
    <glyph glyph-name="lacute" unicode="&#x13a;" horiz-adv-x="585" 
d="M309 1497l-35 168l486 205l47 -207zM606 1403l-178 -1116q-11 -86 59 -86q41 0 113 30l-37 -219q-82 -37 -188 -37q-40 0 -74.5 7.5t-67.5 25.5t-52.5 48.5t-30 76.5t1.5 109l182 1161h272z" />
    <glyph glyph-name="Lcommaaccent" unicode="&#x13b;" horiz-adv-x="997" 
d="M625 1290l-142 -893q-10 -75 14 -101t74 -26h396l-47 -270h-414q-173 0 -260 102t-56 297l142 891h293zM541 -453l131 355h-230l-129 -355h228z" />
    <glyph glyph-name="lcommaaccent" unicode="&#x13c;" horiz-adv-x="585" 
d="M606 1403l-178 -1116q-11 -86 59 -86q41 0 113 30l-37 -219q-82 -37 -188 -37q-40 0 -74.5 7.5t-67.5 25.5t-52.5 48.5t-30 76.5t1.5 109l182 1161h272zM229 -453l131 355h-229l-129 -355h227z" />
    <glyph glyph-name="Lcaron" unicode="&#x13d;" 
d="M645 1290l-141 -893q-10 -75 14 -101t74 -26h395l-47 -270h-414q-173 0 -259.5 102t-55.5 297l141 891h293zM881 815l180 475h-223l-168 -475h211z" />
    <glyph glyph-name="lcaron" unicode="&#x13e;" horiz-adv-x="765" 
d="M621 1403l-177 -1116q-14 -86 58 -86q44 0 112 30l-36 -219q-82 -37 -187 -37q-40 0 -74.5 7.5t-68 25.5t-53 48.5t-29.5 76.5t2 109l182 1161h271zM877 928l98 475h-219l-90 -475h211z" />
    <glyph glyph-name="Ldot" unicode="&#x13f;" horiz-adv-x="997" 
d="M625 1290l-142 -893q-10 -75 14 -101t74 -26h396l-47 -270h-414q-173 0 -260 102t-56 297l142 891h293zM850 879q67 0 109.5 -46.5t29.5 -127.5q-11 -65 -57.5 -101.5t-102.5 -36.5q-68 0 -110.5 47t-28.5 127q11 66 57.5 102t102.5 36z" />
    <glyph glyph-name="ldot" unicode="&#x140;" horiz-adv-x="585" 
d="M606 1403l-178 -1116q-11 -86 59 -86q41 0 113 30l-37 -219q-82 -37 -188 -37q-40 0 -74.5 7.5t-67.5 25.5t-52.5 48.5t-30 76.5t1.5 109l182 1161h272zM797 862q67 0 109.5 -46.5t29.5 -127.5q-11 -65 -57 -101t-103 -36q-68 0 -110.5 47t-28.5 127q11 66 57.5 101.5
t102.5 35.5z" />
    <glyph glyph-name="Lslash" unicode="&#x141;" 
d="M987 270l-47 -270h-414q-173 0 -259.5 102t-55.5 297l22 138l-165 -52l30 197l166 51l88 557h293l-74 -461l287 89l-35 -199l-282 -88l-37 -234q-10 -75 14 -101t74 -26h395z" />
    <glyph glyph-name="lslash" unicode="&#x142;" horiz-adv-x="622" 
d="M508 686l-64 -399q-14 -86 58 -86q44 0 112 30l-36 -219q-82 -37 -187 -37q-40 0 -74.5 7.5t-68 25.5t-53 48.5t-29.5 76.5t2 109l47 305l-88 -43l29 178l88 45l106 676h271l-84 -529l116 60l-30 -193z" />
    <glyph glyph-name="Nacute" unicode="&#x143;" horiz-adv-x="1323" 
d="M686 1384l-35 168l486 205l47 -207zM1198 0h-221l-440 784l-119 -784h-293l205 1290h250l417 -747l113 747h293z" />
    <glyph glyph-name="nacute" unicode="&#x144;" horiz-adv-x="1126" 
d="M508 1104l-35 168l485 205l48 -207zM727 1034q77 0 139 -15t116 -49t84.5 -89t43 -135.5t-7.5 -188.5l-88 -557h-271l91 573q13 93 -26.5 140t-123.5 47q-75 0 -184 -45l-119 -715h-268l139 936q271 98 475 98z" />
    <glyph glyph-name="Ncommaaccent" unicode="&#x145;" horiz-adv-x="1323" 
d="M1198 0h-221l-440 784l-119 -784h-293l205 1290h250l417 -747l113 747h293zM655 -453l131 355h-229l-129 -355h227z" />
    <glyph glyph-name="ncommaaccent" unicode="&#x146;" horiz-adv-x="1126" 
d="M727 1034q77 0 139 -15t116 -49t84.5 -89t43 -135.5t-7.5 -188.5l-88 -557h-271l91 573q13 93 -26.5 140t-123.5 47q-75 0 -184 -45l-119 -715h-268l139 936q271 98 475 98zM520 -453l131 355h-229l-129 -355h227z" />
    <glyph glyph-name="Ncaron" unicode="&#x147;" horiz-adv-x="1323" 
d="M1255 1649l-294 -254h-148l-223 254l137 118l182 -180l240 180zM1198 0h-221l-440 784l-119 -784h-293l205 1290h250l417 -747l113 747h293z" />
    <glyph glyph-name="ncaron" unicode="&#x148;" horiz-adv-x="1126" 
d="M1079 1368l-295 -254h-147l-223 254l137 119l182 -180l240 180zM727 1034q77 0 139 -15t116 -49t84.5 -89t43 -135.5t-7.5 -188.5l-88 -557h-271l91 573q13 93 -26.5 140t-123.5 47q-75 0 -184 -45l-119 -715h-268l139 936q271 98 475 98z" />
    <glyph glyph-name="Eng" unicode="&#x14a;" horiz-adv-x="1323" 
d="M1403 1290l-174 -1104q-20 -129 -74.5 -236t-144 -188.5t-222 -126.5t-296.5 -45l30 265q151 0 246 67.5t141 177.5l-372 684l-119 -784h-293l205 1290h250l417 -747l113 747h293z" />
    <glyph glyph-name="eng" unicode="&#x14b;" horiz-adv-x="1107" 
d="M109 0l139 936q63 22 124.5 39.5t128 31.5t126.5 20t121 5t111 -13.5t96 -35.5t77 -60.5t52.5 -89t23.5 -121t-10 -155.5l-80 -522q-37 -233 -154 -339t-350 -106l29 252q101 0 145.5 51.5t63.5 157.5l77 522q20 138 -62.5 172.5t-270.5 -26.5l-119 -719h-268z" />
    <glyph glyph-name="Omacron" unicode="&#x14c;" horiz-adv-x="1374" 
d="M1208 1417h-598l35 187h598zM879 1315q290 0 428 -189t88 -503q-48 -294 -233.5 -471t-461.5 -177q-290 0 -429 188t-89 499q50 299 235 476t462 177zM866 1051q-154 0 -260.5 -120t-136.5 -313q-27 -168 37.5 -272t206.5 -104q154 0 260 114.5t133 298.5
q27 178 -35.5 287t-204.5 109z" />
    <glyph glyph-name="omacron" unicode="&#x14d;" horiz-adv-x="1081" 
d="M1018 1137h-598l35 186h598zM688 1034q150 0 250.5 -73t138.5 -197t13 -279q-37 -227 -178.5 -368.5t-358.5 -141.5q-154 0 -254 72.5t-135.5 194.5t-11.5 280q35 225 178.5 368.5t357.5 143.5zM678 788q-108 0 -175 -84t-87 -219q-18 -121 17 -191.5t130 -70.5
q108 0 175 82.5t87 216.5q8 77 0 136t-45.5 94.5t-101.5 35.5z" />
    <glyph glyph-name="Ohungarumlaut" unicode="&#x150;" horiz-adv-x="1374" 
d="M739 1366l-123 115l359 366l151 -141zM1102 1366l-125 115l358 366l152 -141zM879 1315q290 0 428 -189t88 -503q-48 -294 -233.5 -471t-461.5 -177q-290 0 -429 188t-89 499q50 299 235 476t462 177zM866 1051q-154 0 -260.5 -120t-136.5 -313q-27 -168 37.5 -272
t206.5 -104q154 0 260 114.5t133 298.5q27 178 -35.5 287t-204.5 109z" />
    <glyph glyph-name="ohungarumlaut" unicode="&#x151;" horiz-adv-x="1081" 
d="M549 1085l-123 115l358 367l152 -142zM911 1085l-125 115l359 367l151 -142zM688 1034q150 0 250.5 -73t138.5 -197t13 -279q-37 -227 -178.5 -368.5t-358.5 -141.5q-154 0 -254 72.5t-135.5 194.5t-11.5 280q35 225 178.5 368.5t357.5 143.5zM678 788q-108 0 -175 -84
t-87 -219q-18 -121 17 -191.5t130 -70.5q108 0 175 82.5t87 216.5q8 77 0 136t-45.5 94.5t-101.5 35.5z" />
    <glyph glyph-name="OE" unicode="&#x152;" horiz-adv-x="1966" 
d="M879 1315q181 0 309 -121l20 96h817l-47 -270h-524l-33 -240h488l-47 -270h-486l-12 -102q-11 -81 17 -109.5t89 -28.5h408l-47 -270h-428q-96 0 -167.5 38.5t-105.5 106.5q-188 -170 -430 -170q-290 0 -429 188t-89 499q50 299 235 476t462 177zM866 1051
q-154 0 -260.5 -120t-136.5 -313q-27 -168 37.5 -272t206.5 -104q154 0 260 114.5t133 298.5q27 178 -35.5 287t-204.5 109z" />
    <glyph glyph-name="oe" unicode="&#x153;" horiz-adv-x="1787" 
d="M1362 1034q247 0 354 -163.5t41 -446.5h-665q4 -101 50 -156t122 -55q66 0 116.5 24t75.5 66l283 -16q-48 -151 -177 -231.5t-294 -80.5q-114 0 -203.5 47.5t-144.5 127.5q-149 -175 -367 -175q-154 0 -254 72.5t-135.5 194.5t-11.5 280q35 225 178.5 368.5t357.5 143.5
q111 0 194 -47t128 -125q156 172 352 172zM1372 825q-76 0 -138.5 -52.5t-96.5 -141.5l379 16q0 81 -36.5 129.5t-107.5 48.5zM678 788q-108 0 -175 -84t-87 -219q-18 -121 17 -191.5t130 -70.5q108 0 175 82.5t87 216.5q8 77 0 136t-45.5 94.5t-101.5 35.5z" />
    <glyph glyph-name="Racute" unicode="&#x154;" horiz-adv-x="1177" 
d="M578 1384l-35 168l485 205l47 -207zM688 1290h113q90 0 162.5 -27.5t119 -74.5t75 -110t34.5 -132t-6.5 -143t-43 -141.5t-80.5 -127.5t-114 -102l164 -432h-330l-116 350h-193l-55 -350h-293l145 922q30 176 135.5 272t282.5 96zM518 621h170q108 0 174 93q57 79 48 170
q-8 91 -80 123q-30 13 -68 13h-80q-54 0 -85.5 -33.5t-39.5 -91.5z" />
    <glyph glyph-name="racute" unicode="&#x155;" horiz-adv-x="827" 
d="M391 1104l-35 168l486 205l47 -207zM889 1034l-45 -270q-200 0 -355 -94l-108 -670h-268l129 856q308 178 647 178z" />
    <glyph glyph-name="Rcommaaccent" unicode="&#x156;" horiz-adv-x="1177" 
d="M688 1290h113q90 0 162.5 -27.5t119 -74.5t75 -110t34.5 -132t-6.5 -143t-43 -141.5t-80.5 -127.5t-114 -102l164 -432h-330l-116 350h-193l-55 -350h-293l145 922q30 176 135.5 272t282.5 96zM518 621h170q108 0 174 93q57 79 48 170q-8 91 -80 123q-30 13 -68 13h-80
q-54 0 -85.5 -33.5t-39.5 -91.5zM461 -98h229l-131 -355h-227z" />
    <glyph glyph-name="rcommaaccent" unicode="&#x157;" horiz-adv-x="827" 
d="M889 1034l-45 -270q-200 0 -355 -94l-108 -670h-268l129 856q308 178 647 178zM205 -453l131 355h-230l-129 -355h228z" />
    <glyph glyph-name="Rcaron" unicode="&#x158;" horiz-adv-x="1177" 
d="M705 1395l-224 254l137 118l183 -180l239 180l107 -118l-295 -254h-147zM688 1290h113q90 0 162.5 -27.5t119 -74.5t75 -110t34.5 -132t-6.5 -143t-43 -141.5t-80.5 -127.5t-114 -102l164 -432h-330l-116 350h-193l-55 -350h-293l145 922q30 176 135.5 272t282.5 96z
M518 621h170q108 0 174 93q57 79 48 170q-8 91 -80 123q-30 13 -68 13h-80q-54 0 -85.5 -33.5t-39.5 -91.5z" />
    <glyph glyph-name="rcaron" unicode="&#x159;" horiz-adv-x="827" 
d="M961 1368l-295 -254h-148l-223 254l137 119l182 -180l240 180zM889 1034l-45 -270q-200 0 -355 -94l-108 -670h-268l129 856q308 178 647 178z" />
    <glyph glyph-name="Sacute" unicode="&#x15a;" horiz-adv-x="1140" 
d="M594 1384l-35 168l485 205l48 -207zM770 1315q220 0 324 -111.5t88 -288.5l-277 19q-3 135 -153 135q-87 0 -143 -42.5t-66 -121.5q-7 -46 26 -77t89.5 -49t125.5 -34.5t136.5 -43t120.5 -65t78.5 -109t10.5 -167.5q-29 -184 -172 -284.5t-380 -100.5q-235 0 -349 112
t-100 294l262 -19q0 -139 199 -139q213 0 233 162q5 30 -15 51.5t-57 34t-85.5 25t-102 24.5t-106.5 32t-98.5 48.5t-78 73.5t-45 107t0.5 149q19 121 95.5 209t189.5 132t249 44z" />
    <glyph glyph-name="sacute" unicode="&#x15b;" horiz-adv-x="993" 
d="M477 1104l-35 168l486 205l47 -207zM653 1034q213 0 304 -92.5t71 -243.5l-278 19q3 46 -25 73t-82 27q-68 0 -112.5 -31t-51.5 -86q-3 -20 7.5 -35t41 -28t51.5 -19t71 -18l24 -6q60 -14 98 -25.5t88.5 -36.5t77.5 -55.5t42 -81.5t5 -116q-17 -100 -88.5 -170.5
t-170.5 -102t-218 -31.5q-211 0 -308 88.5t-79 243.5l264 -18q-3 -47 26 -71.5t95 -24.5q80 0 134.5 31t61.5 83q2 18 -8.5 31t-37 22.5t-50.5 16t-70 16.5t-73 17q-50 13 -88 27t-78 39.5t-63.5 57.5t-35 81t-1.5 110q24 145 149 227t307 82z" />
    <glyph glyph-name="Scedilla" unicode="&#x15e;" horiz-adv-x="1140" 
d="M752 1069q-87 0 -143 -42.5t-66 -121.5q-7 -46 26 -77t89.5 -49t125.5 -34.5t136.5 -43t120.5 -65t78.5 -109t10.5 -167.5q-28 -171 -153.5 -270.5t-335.5 -112.5l-47 -92q91 0 137 -58.5t33 -137.5q-13 -77 -85.5 -135t-189.5 -58q-100 0 -180 47l66 125q56 -35 98 -35
q44 0 77.5 28.5t39.5 70.5q3 27 -11.5 40.5t-46.5 12.5h-53l-41 82l45 115q-187 23 -276.5 130t-77.5 269l262 -19q0 -139 199 -139q213 0 233 162q5 30 -15 51.5t-57 34t-85.5 25t-102 24.5t-106.5 32t-98.5 48.5t-78 73.5t-45 107t0.5 149q19 121 95.5 209t189.5 132
t249 44q220 0 324 -111.5t88 -288.5l-277 19q-3 135 -153 135z" />
    <glyph glyph-name="scedilla" unicode="&#x15f;" horiz-adv-x="993" 
d="M1028 698l-278 19q3 46 -25 73t-82 27q-68 0 -112.5 -31t-51.5 -86q-3 -20 7.5 -35t41 -28t51.5 -19t71 -18l24 -6q60 -14 98 -25.5t88.5 -36.5t77.5 -55.5t42 -81.5t5 -116q-22 -133 -133 -209t-270 -90l-47 -95q91 0 137 -58.5t33 -137.5q-13 -77 -85.5 -135
t-189.5 -58q-100 0 -180 47l65 125q56 -35 99 -35q44 0 77 28.5t39 70.5q3 27 -11 40.5t-46 12.5h-53l-41 82l45 113q-168 18 -243 103.5t-60 223.5l264 -18q-3 -47 26 -71.5t95 -24.5q80 0 134.5 31t61.5 83q2 18 -8.5 31t-37 22.5t-50.5 16t-70 16.5t-73 17q-50 13 -88 27
t-78 39.5t-63.5 57.5t-35 81t-1.5 110q24 145 149 227t307 82q213 0 304 -92.5t71 -243.5z" />
    <glyph glyph-name="Scaron" unicode="&#x160;" horiz-adv-x="1140" 
d="M1163 1649l-295 -254h-147l-223 254l137 118l182 -180l240 180zM770 1315q220 0 324 -111.5t88 -288.5l-277 19q-3 135 -153 135q-87 0 -143 -42.5t-66 -121.5q-7 -46 26 -77t89.5 -49t125.5 -34.5t136.5 -43t120.5 -65t78.5 -109t10.5 -167.5q-29 -184 -172 -284.5
t-380 -100.5q-235 0 -349 112t-100 294l262 -19q0 -139 199 -139q213 0 233 162q5 30 -15 51.5t-57 34t-85.5 25t-102 24.5t-106.5 32t-98.5 48.5t-78 73.5t-45 107t0.5 149q19 121 95.5 209t189.5 132t249 44z" />
    <glyph glyph-name="scaron" unicode="&#x161;" horiz-adv-x="993" 
d="M1047 1368l-295 -254h-148l-223 254l137 119l182 -180l240 180zM653 1034q213 0 304 -92.5t71 -243.5l-278 19q3 46 -25 73t-82 27q-68 0 -112.5 -31t-51.5 -86q-3 -20 7.5 -35t41 -28t51.5 -19t71 -18l24 -6q60 -14 98 -25.5t88.5 -36.5t77.5 -55.5t42 -81.5t5 -116
q-17 -100 -88.5 -170.5t-170.5 -102t-218 -31.5q-211 0 -308 88.5t-79 243.5l264 -18q-3 -47 26 -71.5t95 -24.5q80 0 134.5 31t61.5 83q2 18 -8.5 31t-37 22.5t-50.5 16t-70 16.5t-73 17q-50 13 -88 27t-78 39.5t-63.5 57.5t-35 81t-1.5 110q24 145 149 227t307 82z" />
    <glyph glyph-name="Tcedilla" unicode="&#x162;" horiz-adv-x="1202" 
d="M1327 1290l-49 -270h-375l-155 -1020h-52l-57 -115q91 0 137 -58.5t33 -137.5q-13 -77 -85 -135t-189 -58q-101 0 -181 47l66 125q56 -35 98 -35q44 0 77.5 28.5t39.5 70.5q3 27 -11 40.5t-46 12.5h-54l-41 82l54 133h-82l155 1020h-374l49 270h1042z" />
    <glyph glyph-name="tcedilla" unicode="&#x163;" horiz-adv-x="772" 
d="M489 780l-59 -413q-23 -150 133 -150q68 0 150 23l-35 -236q-110 -29 -189 -29h-10l-45 -90q91 0 137 -58.5t33 -137.5q-13 -77 -85 -135t-189 -58q-100 0 -180 47l65 125q56 -35 98 -35q44 0 77.5 28.5t39.5 70.5q3 27 -11 40.5t-46 12.5h-54l-40 82l55 133
q-101 36 -148.5 124t-25.5 230l147 936h271l-46 -280h267l-37 -230h-273z" />
    <glyph glyph-name="Tcaron" unicode="&#x164;" horiz-adv-x="1202" 
d="M1196 1649l-295 -254h-147l-224 254l138 118l182 -180l240 180zM1278 1020h-375l-155 -1020h-293l155 1020h-374l49 270h1042z" />
    <glyph glyph-name="tcaron" unicode="&#x165;" horiz-adv-x="774" 
d="M811 1094l121 309h-203l-111 -309h193zM553 1010h266l-37 -230h-272l-59 -413q-23 -150 133 -150q67 0 149 23l-35 -236q-110 -29 -188 -29q-82 0 -147.5 22t-113 66.5t-66.5 119t-3 171.5l148 936h270z" />
    <glyph glyph-name="Tbar" unicode="&#x166;" horiz-adv-x="1202" 
d="M1124 1417h-598l35 187h598zM1278 1020h-375l-155 -1020h-293l155 1020h-374l49 270h1042z" />
    <glyph glyph-name="tbar" unicode="&#x167;" horiz-adv-x="772" 
d="M510 780l-23 -162h158l-29 -174h-155l-10 -77q-23 -150 133 -150q67 0 149 23l-35 -236q-110 -29 -188 -29q-82 0 -147.5 22t-113 66.5t-66.5 119t-3 171.5l15 90h-142l27 174h141l107 672h270l-45 -280h266l-37 -230h-272z" />
    <glyph glyph-name="Umacron" unicode="&#x16a;" horiz-adv-x="1353" 
d="M1200 1417h-598l35 187h598zM1434 1290l-111 -719q-50 -303 -209.5 -449.5t-411.5 -146.5q-123 0 -221.5 38.5t-166 112.5t-93 193t-0.5 271l111 700h293l-113 -719q-48 -329 203 -329q140 0 216.5 93.5t98.5 254.5l111 700h293z" />
    <glyph glyph-name="umacron" unicode="&#x16b;" horiz-adv-x="1101" 
d="M1024 1137h-598l35 186h598zM1151 1010l-88 -568q-38 -239 -171 -353t-329 -114q-207 0 -313 122t-68 364l86 549h273l-90 -574q-16 -107 11 -160t111 -53q97 0 151.5 61.5t68.5 168.5l88 557h270z" />
    <glyph glyph-name="Uring" unicode="&#x16e;" horiz-adv-x="1353" 
d="M938 1739q82 0 133 -54t35 -149q-11 -82 -66.5 -125t-126.5 -43q-83 0 -134.5 54.5t-35.5 150.5q13 81 69 123.5t126 42.5zM954 1628q-41 0 -70.5 -26t-35.5 -66q-5 -27 7.5 -42t41.5 -15q41 0 69.5 26t34.5 68q9 55 -47 55zM1434 1290l-111 -719q-50 -303 -209.5 -449.5
t-411.5 -146.5q-123 0 -221.5 38.5t-166 112.5t-93 193t-0.5 271l111 700h293l-113 -719q-48 -329 203 -329q140 0 216.5 93.5t98.5 254.5l111 700h293z" />
    <glyph glyph-name="uring" unicode="&#x16f;" horiz-adv-x="1101" 
d="M762 1458q82 0 133 -54t35 -149q-11 -82 -66.5 -125t-126.5 -43q-83 0 -134.5 54.5t-35.5 150.5q13 81 69 123.5t126 42.5zM778 1348q-41 0 -70.5 -26.5t-35.5 -66.5q-5 -27 7.5 -42t41.5 -15q41 0 69.5 26t34.5 68q10 56 -47 56zM1151 1010l-88 -568q-38 -239 -171 -353
t-329 -114q-207 0 -313 122t-68 364l86 549h273l-90 -574q-16 -107 11 -160t111 -53q97 0 151.5 61.5t68.5 168.5l88 557h270z" />
    <glyph glyph-name="Uhungarumlaut" unicode="&#x170;" horiz-adv-x="1353" 
d="M731 1366l-123 115l359 366l151 -141zM1094 1366l-125 115l358 366l152 -141zM1434 1290l-111 -719q-50 -303 -209.5 -449.5t-411.5 -146.5q-123 0 -221.5 38.5t-166 112.5t-93 193t-0.5 271l111 700h293l-113 -719q-48 -329 203 -329q140 0 216.5 93.5t98.5 254.5
l111 700h293z" />
    <glyph glyph-name="uhungarumlaut" unicode="&#x171;" horiz-adv-x="1101" 
d="M555 1085l-123 115l359 367l151 -142zM918 1085l-125 115l358 367l152 -142zM1151 1010l-88 -568q-38 -239 -171 -353t-329 -114q-207 0 -313 122t-68 364l86 549h273l-90 -574q-16 -107 11 -160t111 -53q97 0 151.5 61.5t68.5 168.5l88 557h270z" />
    <glyph glyph-name="Uogonek" unicode="&#x172;" horiz-adv-x="1353" 
d="M1434 1290l-111 -719q-46 -288 -193.5 -435t-379.5 -159q-65 -117 -74 -182q-7 -41 20 -41q37 0 76 39l78 -129q-38 -34 -90 -54t-103 -20q-104 0 -150.5 57t-33.5 144q6 41 34 97.5t62 99.5q-196 38 -292.5 191.5t-55.5 410.5l111 700h293l-113 -719q-48 -329 203 -329
q140 0 216.5 93.5t98.5 254.5l111 700h293z" />
    <glyph glyph-name="uogonek" unicode="&#x173;" horiz-adv-x="1101" 
d="M1151 1010l-88 -568q-35 -220 -153 -334.5t-292 -130.5q-66 -107 -73 -182q-7 -41 20 -41q37 0 76 39l78 -129q-38 -34 -90 -54t-103 -20q-104 0 -150.5 57t-33.5 144q4 41 32 98t62 99q-148 35 -217 153.5t-37 319.5l86 549h273l-90 -574q-16 -107 11 -160t111 -53
q97 0 151.5 61.5t68.5 168.5l88 557h270z" />
    <glyph glyph-name="Wcircumflex" unicode="&#x174;" horiz-adv-x="1988" 
d="M1583 1507l-135 -118l-186 180l-236 -180l-108 118l296 254h148zM1518 0h-265l-131 864l-393 -864h-268l-178 1290h335l66 -841l375 841l272 2l125 -843l322 841h340z" />
    <glyph glyph-name="wcircumflex" unicode="&#x175;" horiz-adv-x="1628" 
d="M1341 1227l-135 -119l-186 180l-236 -180l-108 119l297 254h147zM1221 0h-242l-76 592l-250 -592h-237l-185 1010h306l67 -600l258 600h219l72 -600l254 600h315z" />
    <glyph glyph-name="Ycircumflex" unicode="&#x176;" horiz-adv-x="1339" 
d="M1245 1507l-135 -118l-186 180l-236 -180l-108 118l297 254h147zM885 514l-84 -514h-293l84 514l-340 776h342l192 -514l355 514h362z" />
    <glyph glyph-name="ycircumflex" unicode="&#x177;" horiz-adv-x="1120" 
d="M1079 1227l-135 -119l-186 180l-236 -180l-108 119l297 254h147zM1167 1010l-151 -959q-32 -207 -189 -334t-372 -127q-217 0 -383 144l159 198q96 -96 234 -96q102 0 186 67t94 163l13 36q-103 -96 -260 -96q-59 0 -109 13t-96 44t-73 80.5t-38.5 123t6.5 171.5l88 572
h273l-82 -529q-19 -124 4.5 -174.5t108.5 -50.5q131 0 221 147l96 607h270z" />
    <glyph glyph-name="Ydieresis" unicode="&#x178;" horiz-adv-x="1339" 
d="M743 1690q59 0 95 -41t26 -111q-10 -55 -48 -84t-83 -29q-59 0 -95.5 40.5t-25.5 109.5q8 56 46 85.5t85 29.5zM1108 1690q58 0 94 -41t25 -111q-8 -55 -46 -84t-85 -29q-58 0 -94 40.5t-25 109.5q8 56 46 85.5t85 29.5zM885 514l-84 -514h-293l84 514l-340 776h342
l192 -514l355 514h362z" />
    <glyph glyph-name="Zacute" unicode="&#x179;" horiz-adv-x="1216" 
d="M618 1384l-34 168l485 205l47 -207zM1231 1040l-684 -770h596l-45 -270h-979l39 248l686 772h-568l48 270h950z" />
    <glyph glyph-name="zacute" unicode="&#x17a;" horiz-adv-x="1040" 
d="M506 1104l-35 168l485 205l48 -207zM1024 776l-489 -538h415l-41 -238h-778l35 219l481 553h-385l41 238h760z" />
    <glyph glyph-name="Zdotaccent" unicode="&#x17b;" horiz-adv-x="1216" 
d="M1004 1606q-11 -65 -57 -100.5t-103 -35.5q-68 0 -110.5 46.5t-28.5 125.5q10 66 55.5 102t101.5 36q69 0 112 -46t30 -128zM1231 1040l-684 -770h596l-45 -270h-979l39 248l686 772h-568l48 270h950z" />
    <glyph glyph-name="zdotaccent" unicode="&#x17c;" horiz-adv-x="1040" 
d="M893 1325q-11 -65 -57 -100t-103 -35q-68 0 -110.5 46.5t-28.5 125.5q10 66 56 101.5t102 35.5q69 0 111.5 -46t29.5 -128zM1024 776l-489 -538h415l-41 -238h-778l35 219l481 553h-385l41 238h760z" />
    <glyph glyph-name="Zcaron" unicode="&#x17d;" horiz-adv-x="1216" 
d="M1188 1649l-295 -254h-148l-223 254l137 118l183 -180l239 180zM1231 1040l-684 -770h596l-45 -270h-979l39 248l686 772h-568l48 270h950z" />
    <glyph glyph-name="zcaron" unicode="&#x17e;" horiz-adv-x="1040" 
d="M1077 1368l-295 -254h-147l-223 254l137 119l182 -180l240 180zM1024 776l-489 -538h415l-41 -238h-778l35 219l481 553h-385l41 238h760z" />
    <glyph glyph-name="florin" unicode="&#x192;" horiz-adv-x="763" 
d="M1028 1415l-37 -223q-49 18 -95.5 27t-95.5 7.5t-87.5 -16.5t-66.5 -52t-36 -93l-8 -57h221l-43 -236h-219l-119 -790q-17 -100 -59.5 -178t-100 -123.5t-120.5 -68t-129 -22.5q-87 0 -154 33l80 213q25 -14 59 -14q131 0 156 178l117 772h-144l41 236h144l6 57
q20 121 73.5 205.5t124 126.5t157 56t170 3t165.5 -41z" />
    <glyph glyph-name="Scommaaccent" unicode="&#x218;" horiz-adv-x="1140" 
d="M770 1315q220 0 324 -111.5t88 -288.5l-277 19q-3 135 -153 135q-87 0 -143 -42.5t-66 -121.5q-7 -46 26 -77t89.5 -49t125.5 -34.5t136.5 -43t120.5 -65t78.5 -109t10.5 -167.5q-29 -184 -172 -284.5t-380 -100.5q-235 0 -349 112t-100 294l262 -19q0 -139 199 -139
q213 0 233 162q5 30 -15 51.5t-57 34t-85.5 25t-102 24.5t-106.5 32t-98.5 48.5t-78 73.5t-45 107t0.5 149q19 121 95.5 209t189.5 132t249 44zM526 -453l131 355h-229l-129 -355h227z" />
    <glyph glyph-name="scommaaccent" unicode="&#x219;" horiz-adv-x="993" 
d="M653 1034q213 0 304 -92.5t71 -243.5l-278 19q3 46 -25 73t-82 27q-68 0 -112.5 -31t-51.5 -86q-3 -20 7.5 -35t41 -28t51.5 -19t71 -18l24 -6q60 -14 98 -25.5t88.5 -36.5t77.5 -55.5t42 -81.5t5 -116q-17 -100 -88.5 -170.5t-170.5 -102t-218 -31.5q-211 0 -308 88.5
t-79 243.5l264 -18q-3 -47 26 -71.5t95 -24.5q80 0 134.5 31t61.5 83q2 18 -8.5 31t-37 22.5t-50.5 16t-70 16.5t-73 17q-50 13 -88 27t-78 39.5t-63.5 57.5t-35 81t-1.5 110q24 145 149 227t307 82zM469 -453l131 355h-229l-129 -355h227z" />
    <glyph glyph-name="uni021A" unicode="&#x21a;" horiz-adv-x="1202" 
d="M1278 1020h-375l-155 -1020h-293l155 1020h-374l49 270h1042zM573 -453l132 355h-230l-129 -355h227z" />
    <glyph glyph-name="uni021B" unicode="&#x21b;" horiz-adv-x="772" 
d="M532 1010h267l-37 -230h-273l-59 -413q-23 -150 133 -150q68 0 150 23l-35 -236q-110 -29 -189 -29q-82 0 -147.5 22t-112.5 66.5t-66 119t-3 171.5l147 936h271zM367 -453l131 355h-230l-129 -355h228z" />
    <glyph glyph-name="circumflex" unicode="&#x2c6;" horiz-adv-x="960" 
d="M1010 1227l-136 -119l-186 180l-235 -180l-109 119l297 254h147z" />
    <glyph glyph-name="caron" unicode="&#x2c7;" horiz-adv-x="962" 
d="M1030 1368l-295 -254h-147l-223 254l137 119l182 -180l240 180z" />
    <glyph glyph-name="breve" unicode="&#x2d8;" horiz-adv-x="962" 
d="M825 1442l195 -19q-25 -151 -119.5 -230t-224.5 -79q-142 0 -221.5 87.5t-55.5 240.5l197 -19q-16 -131 76 -131q59 0 100.5 43t52.5 107z" />
    <glyph glyph-name="dotaccent" unicode="&#x2d9;" horiz-adv-x="962" 
d="M846 1325q-11 -65 -57 -100t-103 -35q-68 0 -110.5 46.5t-28.5 125.5q10 66 56 101.5t102 35.5q69 0 111.5 -46t29.5 -128z" />
    <glyph glyph-name="ring" unicode="&#x2da;" horiz-adv-x="962" 
d="M696 1458q82 0 133 -54t35 -149q-11 -82 -66 -125t-126 -43q-83 0 -134.5 54.5t-35.5 150.5q13 81 68.5 123.5t125.5 42.5zM713 1348q-41 0 -71 -26.5t-36 -66.5q-5 -27 7.5 -42t41.5 -15q41 0 70 26t35 68q10 56 -47 56z" />
    <glyph glyph-name="ogonek" unicode="&#x2db;" horiz-adv-x="962" 
d="M362 4h185q-28 -47 -41 -70.5t-29 -64.5t-20 -74q-7 -41 20 -41q37 0 76 39l78 -129q-38 -34 -90 -54t-103 -20q-104 0 -150.5 57t-33.5 144q6 46 38.5 108.5t69.5 104.5z" />
    <glyph glyph-name="tilde" unicode="&#x2dc;" horiz-adv-x="964" 
d="M940 1434l147 -70q-54 -113 -120 -171t-156 -58q-67 0 -151 28.5t-109 28.5q-40 0 -70 -28.5t-47 -65.5l-149 100q30 67 98 132t137 65q57 0 153.5 -31t129.5 -31q48 0 79 26t58 75z" />
    <glyph glyph-name="hungarumlaut" unicode="&#x2dd;" horiz-adv-x="962" 
d="M377 1085l-123 115l358 367l152 -142zM739 1085l-125 115l359 367l151 -142z" />
    <glyph glyph-name="uni0326" unicode="&#x326;" horiz-adv-x="0" 
d="M487 -453l131 355h-229l-129 -355h227z" />
    <glyph glyph-name="Delta" unicode="&#x394;" horiz-adv-x="1099" 
d="M1030 0h-962l526 1290h317zM444 270h299l-47 684z" />
    <glyph glyph-name="Omega" unicode="&#x3a9;" horiz-adv-x="1150" 
d="M768 1313q105 0 194 -38.5t154.5 -112t92.5 -194.5t3 -274q-21 -135 -95 -265.5t-150 -186.5l163 4l-40 -246h-449l37 248q33 31 65 69.5t70 98t67.5 141t43.5 172.5q12 74 6 128.5t-21 91t-41.5 58t-54 31t-59.5 9.5q-49 0 -93.5 -18.5t-86 -58t-73 -110.5t-46.5 -168
q-23 -159 8.5 -274.5t85.5 -181.5l-35 -236h-451l43 246l181 6q-64 57 -102.5 194t-16.5 285q18 117 61.5 214.5t103 164.5t132.5 113.5t149 68t154 21.5z" />
    <glyph glyph-name="mu" unicode="&#x3bc;" horiz-adv-x="989" 
d="M1040 1010l-94 -609q-16 -98 -50.5 -175t-75.5 -123t-92 -76t-97 -41t-94 -11q-50 0 -88.5 18t-57.5 44l-74 -422h-270l221 1395h271l-97 -615q-11 -85 3.5 -125.5t72.5 -40.5q133 0 158 183l94 598h270z" />
    <glyph glyph-name="pi" unicode="&#x3c0;" horiz-adv-x="1155" 
d="M1192 737h-152l-112 -737h-266l114 737h-168l-112 -737h-267l113 737h-152l48 273h1001z" />
    <glyph glyph-name="uni0401" unicode="&#x401;" horiz-adv-x="1083" 
d="M606 1690q59 0 95 -41t26 -111q-10 -55 -48 -84t-83 -29q-59 0 -95.5 40.5t-25.5 109.5q8 56 46 85.5t85 29.5zM971 1690q58 0 94 -41t25 -111q-8 -55 -46.5 -84t-85.5 -29q-58 0 -93.5 40.5t-24.5 109.5q8 56 46 85.5t85 29.5zM1098 1020h-525l-30 -240h485l-47 -270
h-485l-13 -102q-10 -81 19 -109.5t90 -28.5h405l-47 -270h-426q-184 0 -274.5 104t-59.5 306l140 880h817z" />
    <glyph glyph-name="uni0402" unicode="&#x402;" horiz-adv-x="1472" 
d="M1278 1020h-375l-35 -211q82 43 209 43q110 0 194 -39.5t129.5 -105t62.5 -147t3 -169.5q-13 -80 -51 -153.5t-96.5 -132.5t-144.5 -94.5t-187 -35.5q-47 0 -104 11l24 237q5 -1 11.5 -2.5t11 -2.5t6.5 -1q99 1 163 61.5t75 141.5q8 67 -29 116.5t-115 49.5
q-98 0 -192 -51l-90 -535h-293l155 1020h-374l49 270h1042z" />
    <glyph glyph-name="uni0403" unicode="&#x403;" horiz-adv-x="968" 
d="M530 1384l-34 168l485 205l47 -207zM1044 1020h-471l-155 -1020h-293l205 1290h764z" />
    <glyph glyph-name="uni0404" unicode="&#x404;" horiz-adv-x="1265" 
d="M850 1051q-117 0 -206 -76.5t-138 -208.5h465l-43 -254h-467q3 -125 63.5 -197.5t171.5 -72.5q83 0 157.5 42.5t98.5 96.5l297 -19q-30 -161 -190 -274t-375 -113q-188 0 -313.5 86t-173.5 241.5t-15 359.5q50 299 230 476t450 177q113 0 207 -34t152.5 -90.5t86.5 -130
t17 -151.5l-297 19q-6 51 -56 87t-122 36z" />
    <glyph glyph-name="uni0405" unicode="&#x405;" horiz-adv-x="1140" 
d="M770 1315q220 0 324 -111.5t88 -288.5l-277 19q-3 135 -153 135q-87 0 -143 -42.5t-66 -121.5q-7 -46 26 -77t89.5 -49t125.5 -34.5t136.5 -43t120.5 -65t78.5 -109t10.5 -167.5q-29 -184 -172 -284.5t-380 -100.5q-235 0 -349 112t-100 294l262 -19q0 -139 199 -139
q213 0 233 162q5 30 -15 51.5t-57 34t-85.5 25t-102 24.5t-106.5 32t-98.5 48.5t-78 73.5t-45 107t0.5 149q19 121 95.5 209t189.5 132t249 44z" />
    <glyph glyph-name="uni0406" unicode="&#x406;" horiz-adv-x="542" 
d="M418 0h-293l205 1290h293z" />
    <glyph glyph-name="uni0407" unicode="&#x407;" horiz-adv-x="542" 
d="M344 1690q59 0 95 -41t26 -111q-10 -55 -48 -84t-83 -29q-59 0 -95.5 40.5t-25.5 109.5q8 56 46 85.5t85 29.5zM709 1690q58 0 93.5 -41t24.5 -111q-8 -55 -46 -84t-85 -29q-58 0 -93.5 40.5t-24.5 109.5q8 56 46 85.5t85 29.5zM418 0h-293l205 1290h293z" />
    <glyph glyph-name="uni0408" unicode="&#x408;" horiz-adv-x="880" 
d="M961 1290l-113 -719q-20 -129 -75 -236t-144 -188.5t-221.5 -126.5t-296.5 -45l28 267q82 0 149 19.5t113 52.5t79.5 78t51.5 93.5t25 102.5l61 432h-315l47 270h611z" />
    <glyph glyph-name="uni0409" unicode="&#x409;" horiz-adv-x="1931" 
d="M1343 770h203q111 0 191 -31.5t121.5 -86t55.5 -123t1 -148.5q-26 -171 -159 -276t-322 -105h-506l155 1020h-383l-73 -528q-88 -510 -549 -510l31 270q100 0 152.5 62.5t72.5 181.5l123 794h968zM1303 530l-35 -268h217q58 0 98.5 44t48.5 108q7 50 -17 83t-79 33h-233z
" />
    <glyph glyph-name="uni040A" unicode="&#x40a;" horiz-adv-x="1937" 
d="M1350 772h202q111 -1 190.5 -32.5t121 -86.5t56 -123.5t1.5 -148.5q-28 -172 -160.5 -276.5t-322.5 -104.5h-504l82 530h-514l-84 -530h-293l205 1290h293l-80 -518h514l82 518h293zM1272 262h219q58 0 97.5 44t47.5 108q8 49 -15.5 82.5t-78.5 33.5h-233z" />
    <glyph glyph-name="uni040B" unicode="&#x40b;" horiz-adv-x="1497" 
d="M1278 1020h-375l-35 -211q98 53 236 53q63 0 118 -12.5t106.5 -42t83 -77t46.5 -117t-2 -162.5l-70 -451h-292l63 424q12 91 -21.5 125.5t-101.5 34.5q-93 0 -196 -47l-90 -537h-293l155 1020h-374l49 270h1042z" />
    <glyph glyph-name="uni040C" unicode="&#x40c;" horiz-adv-x="1173" 
d="M612 1384l-34 168l485 205l47 -207zM1280 1290l-430 -545q47 -10 91.5 -105.5t73.5 -208.5t64.5 -247.5t59.5 -191.5l-318 14q-15 30 -35.5 121.5t-39 173.5t-55.5 148.5t-85 66.5h-108l-80 -516h-293l205 1290h293l-78 -504h47l348 504h340z" />
    <glyph glyph-name="uni040E" unicode="&#x40e;" horiz-adv-x="1124" 
d="M813 1395q-142 0 -221 87t-55 240l196 -18q-16 -131 76 -131q60 0 101.5 42.5t52.5 106.5l194 -18q-25 -151 -119.5 -230t-224.5 -79zM1290 1290l-473 -921q-76 -140 -155.5 -219.5t-195 -122.5t-288.5 -52l8 263q106 -6 196.5 30.5t125.5 114.5l14 29l-252 878h353
l98 -504l266 504h303z" />
    <glyph glyph-name="uni040F" unicode="&#x40f;" horiz-adv-x="1259" 
d="M1135 0h-385l-41 -256h-236l41 256h-389l205 1290h293l-156 -1020h422l155 1020h295z" />
    <glyph glyph-name="uni0410" unicode="&#x410;" horiz-adv-x="1394" 
d="M975 236h-477l-107 -236h-334l676 1290l338 -2l262 -1288h-313zM924 506l-90 465l-211 -465h301z" />
    <glyph glyph-name="uni0411" unicode="&#x411;" horiz-adv-x="1193" 
d="M1090 1028h-512l-35 -258h266q111 0 191 -31.5t121.5 -86t55.5 -123t1 -148.5q-28 -172 -161 -276.5t-323 -104.5h-569l205 1290h807zM502 530l-37 -268h283q59 0 98.5 43.5t48.5 108.5q7 50 -17 83t-79 33h-297z" />
    <glyph glyph-name="uni0412" unicode="&#x412;" horiz-adv-x="1193" 
d="M330 1290h559q82 0 147 -21t104 -56.5t64.5 -83t29 -100.5t-2.5 -109q-12 -78 -68 -148t-155 -106q86 -41 134 -123t29 -197q-26 -168 -154 -257t-323 -89h-569zM578 1028l-35 -258h266q49 0 88 46t47 104q5 46 -15 77t-69 31h-282zM502 530l-37 -268h283q59 0 98.5 43.5
t48.5 108.5q7 50 -17 83t-79 33h-297z" />
    <glyph glyph-name="uni0413" unicode="&#x413;" horiz-adv-x="968" 
d="M1044 1020h-471l-155 -1020h-293l205 1290h764z" />
    <glyph glyph-name="uni0414" unicode="&#x414;" horiz-adv-x="1368" 
d="M1249 270h117l-88 -526h-236l41 256h-796l-41 -256h-236l86 526l109 9q70 104 108 173t74 177.5t59 251.5l66 409h895zM758 1020l-21 -154q-29 -206 -84 -342.5t-139 -261.5l442 8l109 750h-307z" />
    <glyph glyph-name="uni0415" unicode="&#x415;" horiz-adv-x="1083" 
d="M1098 1020h-525l-30 -240h485l-47 -270h-485l-13 -102q-10 -81 19 -109.5t90 -28.5h405l-47 -270h-426q-184 0 -274.5 104t-59.5 306l140 880h817z" />
    <glyph glyph-name="uni0416" unicode="&#x416;" horiz-adv-x="1714" 
d="M1829 1290l-414 -547q46 -13 92 -150.5t93 -339t67 -261.5l-321 16q-9 27 -21.5 93.5t-25 133.5t-29.5 132.5t-43 107t-58 41.5h-86l-79 -516h-293l80 516h-70q-39 0 -92 -68.5t-94.5 -150.5t-89 -179.5t-64.5 -125.5l-340 16q38 58 112 192t134 243.5t127.5 202.5
t107.5 102l-219 542h326l186 -504h23l77 504h293l-78 -504h17l342 504h340z" />
    <glyph glyph-name="uni0417" unicode="&#x417;" horiz-adv-x="1175" 
d="M750 1315q99 0 183.5 -29t145 -81t88 -131.5t11.5 -174.5q-11 -70 -58.5 -135t-124.5 -105q75 -31 113 -103.5t20 -180.5q-16 -100 -68 -178.5t-127 -126t-164 -71.5t-187 -24q-120 0 -210.5 33t-141.5 90t-71.5 129.5t-8.5 153.5l262 -19q2 -73 43.5 -106t138.5 -33
q102 0 171.5 49t82.5 138q8 57 -35 92t-133 35h-203l39 223h174q82 0 136 49.5t65 128.5q10 61 -28.5 96t-114.5 35q-83 0 -137 -43.5t-74 -110.5l-279 19q14 81 52 149t98 120.5t148 82t194 29.5z" />
    <glyph glyph-name="uni0418" unicode="&#x418;" horiz-adv-x="1323" 
d="M1198 0h-293l127 819l-676 -819h-231l205 1290h293l-119 -782l645 782h254z" />
    <glyph glyph-name="uni0419" unicode="&#x419;" horiz-adv-x="1323" 
d="M1051 1722l194 -18q-25 -151 -119.5 -230t-224.5 -79q-142 0 -221 87t-55 240l196 -18q-16 -131 76 -131q60 0 101.5 42.5t52.5 106.5zM1198 0h-293l127 819l-676 -819h-231l205 1290h293l-119 -782l645 782h254z" />
    <glyph glyph-name="uni041A" unicode="&#x41a;" horiz-adv-x="1173" 
d="M1280 1290l-430 -545q47 -10 91.5 -105.5t73.5 -208.5t64.5 -247.5t59.5 -191.5l-318 14q-15 30 -35.5 121.5t-39 173.5t-55.5 148.5t-85 66.5h-108l-80 -516h-293l205 1290h293l-78 -504h47l348 504h340z" />
    <glyph glyph-name="uni041B" unicode="&#x41b;" horiz-adv-x="1345" 
d="M1221 0h-293l155 1020h-383l-73 -528q-88 -510 -549 -510l31 270q100 0 152.5 62.5t72.5 181.5l123 794h968z" />
    <glyph glyph-name="uni041C" unicode="&#x41c;" horiz-adv-x="1556" 
d="M1432 0h-293l127 831l-322 -485h-217l-180 485l-129 -831h-293l205 1290h301l250 -616l448 616h307z" />
    <glyph glyph-name="uni041D" unicode="&#x41d;" horiz-adv-x="1351" 
d="M1227 0h-293l76 500h-514l-78 -500h-293l205 1290h293l-82 -520h516l82 520h293z" />
    <glyph glyph-name="uni041E" unicode="&#x41e;" horiz-adv-x="1374" 
d="M879 1315q290 0 428 -189t88 -503q-48 -294 -233.5 -471t-461.5 -177q-290 0 -429 188t-89 499q50 299 235 476t462 177zM866 1051q-154 0 -260.5 -120t-136.5 -313q-27 -168 37.5 -272t206.5 -104q154 0 260 114.5t133 298.5q27 178 -35.5 287t-204.5 109z" />
    <glyph glyph-name="uni041F" unicode="&#x41f;" horiz-adv-x="1294" 
d="M1169 0h-292l155 1020h-459l-155 -1020h-293l205 1290h1044z" />
    <glyph glyph-name="uni0420" unicode="&#x420;" horiz-adv-x="1177" 
d="M688 1290h162q211 0 314 -149q86 -125 66 -304q-19 -179 -133 -314q-136 -161 -344 -176l-38 -1h-242l-55 -346h-293l145 922q30 176 135.5 272t282.5 96zM811 1020h-129q-54 0 -85.5 -33.5t-39.5 -91.5l-39 -279h219q101 0 165 93q55 82 47 175q-7 94 -78 124
q-27 12 -60 12z" />
    <glyph glyph-name="uni0421" unicode="&#x421;" horiz-adv-x="1261" 
d="M862 1315q113 0 207 -34t152.5 -90.5t86.5 -130t17 -151.5l-330 19q-19 123 -145 123q-148 0 -249.5 -119.5t-131.5 -313.5q-27 -168 33 -272t194 -104q81 0 140.5 41.5t81.5 97.5l331 -19q-30 -161 -190 -274t-375 -113q-188 0 -313.5 86t-173.5 241.5t-15 359.5
q50 299 230 476t450 177z" />
    <glyph glyph-name="uni0422" unicode="&#x422;" horiz-adv-x="1202" 
d="M1278 1020h-375l-155 -1020h-293l155 1020h-374l49 270h1042z" />
    <glyph glyph-name="uni0423" unicode="&#x423;" horiz-adv-x="1124" 
d="M1290 1290l-473 -921q-76 -140 -155.5 -219.5t-195 -122.5t-288.5 -52l8 263q106 -6 196.5 30.5t125.5 114.5l14 29l-252 878h353l98 -504l266 504h303z" />
    <glyph glyph-name="uni0424" unicode="&#x424;" horiz-adv-x="1353" 
d="M993 1290l-28 -121q77 -4 144.5 -28t124 -68t92.5 -108t49.5 -149t-3.5 -191q-18 -116 -71.5 -211t-130 -157t-167 -97.5t-188.5 -40.5l-27 -119h-223l27 119q-96 5 -178.5 43.5t-141 105.5t-84 169t-6.5 225q19 122 73 218.5t131 157t167 93.5t188 38l29 121h223z
M942 946l-104 -598q87 12 157 92t90 224q19 131 -21 201t-122 81zM614 344l105 598q-87 -10 -157.5 -89.5t-92.5 -225.5q-19 -134 21 -203t124 -80z" />
    <glyph glyph-name="uni0425" unicode="&#x425;" horiz-adv-x="1335" 
d="M956 647l316 -647h-354l-191 432l-303 -432h-361l508 645l-299 645h349l180 -442l317 442h346z" />
    <glyph glyph-name="uni0426" unicode="&#x426;" horiz-adv-x="1300" 
d="M1182 270h116l-90 -526h-235l41 256h-889l205 1290h293l-156 -1020h422l155 1020h295z" />
    <glyph glyph-name="uni0427" unicode="&#x427;" horiz-adv-x="1181" 
d="M1057 0h-293l72 420q-47 -28 -105.5 -44.5t-121 -19.5t-122.5 10t-111 44.5t-87 83t-49 126t2 173.5l77 497h293l-75 -481q-10 -77 15.5 -120.5t75.5 -51t113 9.5t129 55l99 588h293z" />
    <glyph glyph-name="uni0428" unicode="&#x428;" horiz-adv-x="1748" 
d="M1624 0h-1499l205 1290h293l-156 -1020h307l160 1020h293l-160 -1020h311l158 1020h293z" />
    <glyph glyph-name="uni0429" unicode="&#x429;" horiz-adv-x="1789" 
d="M1671 270h117l-88 -526h-236l41 256h-1380l205 1290h293l-156 -1020h307l160 1020h293l-160 -1020h311l158 1020h293z" />
    <glyph glyph-name="uni042A" unicode="&#x42a;" horiz-adv-x="1071" 
d="M543 770h202q89 0 158 -20.5t112 -56.5t70 -85.5t31 -106.5t-4 -120q-28 -172 -160.5 -276.5t-322.5 -104.5h-504l164 1028h-152l47 262h439zM829 414q7 50 -17 83t-79 33h-231l-37 -268h217q59 0 98.5 43.5t48.5 108.5z" />
    <glyph glyph-name="uni042B" unicode="&#x42b;" horiz-adv-x="1544" 
d="M543 770h202q89 0 158 -20.5t112 -56.5t70 -85.5t31 -106.5t-4 -120q-28 -172 -160.5 -276.5t-322.5 -104.5h-504l205 1290h293zM1438 0h-293l205 1290h292zM502 530l-37 -268h217q59 0 98.5 43.5t48.5 108.5q7 50 -17 83t-79 33h-231z" />
    <glyph glyph-name="uni042C" unicode="&#x42c;" horiz-adv-x="1128" 
d="M543 770h202q89 0 158 -20.5t112 -56.5t70 -85.5t31 -106.5t-4 -120q-28 -172 -160.5 -276.5t-322.5 -104.5h-504l205 1290h293zM502 530l-37 -268h217q59 0 98.5 43.5t48.5 108.5q7 50 -17 83t-79 33h-231z" />
    <glyph glyph-name="uni042D" unicode="&#x42d;" horiz-adv-x="1265" 
d="M788 1315q188 0 313 -86.5t172 -242t13 -361.5q-46 -296 -227 -473t-449 -177q-113 0 -208 34t-155 90.5t-89 130t-17 151.5l295 -16q8 -52 60.5 -87.5t126.5 -35.5q115 0 204 73t136 197h-465l43 254h467q-2 132 -61.5 208.5t-172.5 76.5q-82 0 -153 -43.5t-93 -96.5
l-301 17q30 161 188 274t373 113z" />
    <glyph glyph-name="uni042E" unicode="&#x42e;" horiz-adv-x="1832" 
d="M1368 1315q183 0 304.5 -86.5t167.5 -243t13 -362.5q-48 -294 -225.5 -471t-439.5 -177q-236 0 -368 141.5t-134 383.5h-190l-78 -500h-293l205 1290h293l-82 -520h182q69 253 238 399t407 146zM1567 655q25 177 -31 286.5t-182 109.5q-140 0 -240.5 -120.5
t-128.5 -312.5q-27 -167 30.5 -271.5t184.5 -104.5q140 0 239.5 115t127.5 298z" />
    <glyph glyph-name="uni042F" unicode="&#x42f;" horiz-adv-x="1173" 
d="M766 1290h111q181 0 262 -104t51 -281l-141 -905h-295l65 422l-90 -6q-84 -67 -183 -199t-147 -225l-342 16q5 6 42 58.5t47 66.5t45 61.5t51.5 67t48.5 58t54 60.5t51 48t55 45q-57 28 -95 79t-53.5 113.5t-12 133.5t24.5 140t62.5 133t96.5 112t131 77t161 29z
M823 1020h-82q-83 0 -135 -82q-46 -73 -34 -150q11 -77 78 -93q14 -3 30 -3h186l31 219q8 59 -7 84t-67 25z" />
    <glyph glyph-name="uni0430" unicode="&#x430;" horiz-adv-x="1150" 
d="M776 1034q189 0 357 -92l-105 -641q-9 -41 4.5 -64.5t50.5 -23.5q32 0 121 29l-37 -217q-103 -50 -213 -50q-77 0 -128.5 34t-61.5 110q-53 -63 -134.5 -103.5t-185.5 -40.5q-165 0 -251.5 131t-49.5 367q18 115 62.5 209t106 158.5t138 109t158 64.5t168.5 20zM723 793
q-83 0 -151.5 -52t-107.5 -128t-52 -164q-16 -109 12 -173.5t106 -64.5q70 0 138 54t106 118l72 381q-69 29 -123 29z" />
    <glyph glyph-name="uni0431" unicode="&#x431;" horiz-adv-x="1097" 
d="M1145 1503l-27 -248q-73 -18 -183.5 -31.5t-181 -33t-126.5 -66.5q-54 -44 -85 -95.5t-48 -123.5q46 58 115 93.5t155 35.5q88 0 160 -34t121 -101t67 -167t-2 -232q-43 -262 -189 -393.5t-360 -131.5q-124 0 -211.5 49.5t-132 140.5t-56.5 218.5t15 282.5
q74 478 311 665q67 54 160.5 86.5t170.5 42t176 20.5t151 23zM692 788q-106 0 -173 -84.5t-87 -218.5q-18 -120 17 -191t129 -71q106 0 173 82.5t87 216.5q16 121 -18 193.5t-128 72.5z" />
    <glyph glyph-name="uni0432" unicode="&#x432;" horiz-adv-x="1028" 
d="M272 1010h496q143 0 218.5 -83.5t57.5 -203.5q-10 -63 -57 -124t-113 -83q58 -27 94.5 -92t22.5 -158q-20 -125 -118.5 -195.5t-251.5 -70.5h-508zM504 786l-23 -180h187q37 0 65.5 33t34.5 76q3 30 -10.5 50.5t-48.5 20.5h-205zM446 410l-24 -187h201q39 0 67.5 32.5
t34.5 78.5q7 76 -61 76h-218z" />
    <glyph glyph-name="uni0433" unicode="&#x433;" horiz-adv-x="806" 
d="M870 748h-370l-117 -748h-270l159 1010h643z" />
    <glyph glyph-name="uni0434" unicode="&#x434;" horiz-adv-x="1126" 
d="M1032 262h90l-88 -518h-229l41 256h-584l-41 -256h-231l90 518l102 6q131 171 168 418l51 324h744zM627 748l-11 -80q-37 -258 -155 -414l299 8l67 486h-200z" />
    <glyph glyph-name="uni0435" unicode="&#x435;" 
d="M590 213q136 0 190 90l283 -16q-31 -101 -103 -173t-165.5 -105.5t-200.5 -33.5q-153 0 -262.5 69t-156.5 196t-21 292q35 223 190.5 362.5t370.5 139.5q188 0 297 -109q91 -90 86 -209q-5 -130 -119 -221q-151 -120 -434 -120q-59 0 -127 6q9 -82 53 -125t119 -43z
M682 811q-81 0 -147 -58t-97 -165q58 -6 107 -6q174 0 237 74q40 48 14 97q-26 51 -97 57q-8 1 -17 1z" />
    <glyph glyph-name="uni0436" unicode="&#x436;" horiz-adv-x="1417" 
d="M1497 1010l-342 -467q53 -21 95 -117.5t81.5 -252t48.5 -181.5l-278 16q-7 28 -18 84.5t-20.5 96.5t-24 83t-35.5 65.5t-48 22.5h-57l-55 -360h-271l54 360h-39q-27 0 -56.5 -24.5t-58.5 -69.5t-52.5 -88t-53 -100.5t-45.5 -85.5l-291 16q23 35 79 135.5t100 174
t104 144.5t108 87l-176 461h280l117 -387h31l59 387h271l-60 -387h25l235 387h293z" />
    <glyph glyph-name="uni0437" unicode="&#x437;" horiz-adv-x="917" 
d="M578 1034q178 0 276 -92.5t74 -257.5q-21 -111 -115 -168q108 -57 84 -213q-14 -86 -58.5 -151.5t-108 -103t-134 -55.5t-147.5 -18q-84 0 -150 19t-107 52t-67 77t-28.5 94.5t7.5 104.5l258 -17q-3 -43 21.5 -67.5t79.5 -24.5q79 0 122.5 34.5t49.5 92.5
q3 31 -15.5 50.5t-64.5 19.5h-193l31 186h142q52 0 87 35t40 82q3 37 -17.5 60.5t-64.5 23.5q-59 0 -98 -33t-44 -74l-270 17q6 62 35.5 119t79.5 104t126.5 75.5t168.5 28.5z" />
    <glyph glyph-name="uni0438" unicode="&#x438;" horiz-adv-x="1069" 
d="M956 0h-270l88 586l-412 -586h-249l159 1010h271l-88 -584l409 584h252z" />
    <glyph glyph-name="uni0439" unicode="&#x439;" horiz-adv-x="1069" 
d="M881 1442l194 -19q-25 -151 -119.5 -230t-224.5 -79q-142 0 -221 87.5t-55 240.5l196 -19q-16 -131 76 -131q59 0 101 43t53 107zM956 0h-270l88 586l-412 -586h-249l159 1010h271l-88 -584l409 584h252z" />
    <glyph glyph-name="uni043A" unicode="&#x43a;" horiz-adv-x="1005" 
d="M1061 1010l-328 -461q55 -22 97 -120.5t80 -253.5t48 -183l-319 16q-8 29 -18.5 82.5t-19.5 95.5t-22.5 84.5t-34.5 66t-48 23.5h-58l-55 -360h-270l159 1010h271l-60 -387h27l238 387h313z" />
    <glyph glyph-name="uni043B" unicode="&#x43b;" horiz-adv-x="1093" 
d="M981 0h-270l112 739h-252l-43 -313q-21 -125 -64.5 -213.5t-107.5 -138.5t-138 -72t-167 -22l31 270q148 0 178 184l86 576h795z" />
    <glyph glyph-name="uni043C" unicode="&#x43c;" horiz-adv-x="1310" 
d="M1198 0h-270l82 555l-209 -309h-211l-123 309l-84 -555h-270l159 1010h260l209 -435l346 435h271z" />
    <glyph glyph-name="uni043D" unicode="&#x43d;" horiz-adv-x="1097" 
d="M983 0h-270l55 358h-330l-55 -358h-270l159 1010h271l-60 -389h330l59 389h273z" />
    <glyph glyph-name="uni043E" unicode="&#x43e;" horiz-adv-x="1081" 
d="M688 1034q150 0 250.5 -73t138.5 -197t13 -279q-37 -227 -178.5 -368.5t-358.5 -141.5q-154 0 -254 72.5t-135.5 194.5t-11.5 280q35 225 178.5 368.5t357.5 143.5zM678 788q-108 0 -175 -84t-87 -219q-18 -121 17 -191.5t130 -70.5q108 0 175 82.5t87 216.5q8 77 0 136
t-45.5 94.5t-101.5 35.5z" />
    <glyph glyph-name="uni043F" unicode="&#x43f;" horiz-adv-x="1097" 
d="M983 0h-270l116 748h-329l-117 -748h-270l159 1010h873z" />
    <glyph glyph-name="uni0440" unicode="&#x440;" 
d="M723 1034q152 0 252.5 -72.5t137.5 -195t13 -279.5q-19 -120 -69.5 -218.5t-119.5 -162t-148.5 -97.5t-161.5 -34q-124 0 -238 86l-76 -446h-270l145 911q36 232 175.5 370t359.5 138zM713 788q-109 0 -172.5 -71.5t-81.5 -196.5l-37 -203q67 -94 172 -94q91 0 165 79
t95 222q18 119 -17.5 191.5t-123.5 72.5z" />
    <glyph glyph-name="uni0441" unicode="&#x441;" horiz-adv-x="1042" 
d="M684 1034q169 0 277.5 -103.5t99.5 -258.5l-275 18q-4 46 -36.5 72t-83.5 26q-105 0 -166.5 -81.5t-83.5 -221.5q-17 -128 22 -195t129 -67q59 0 105 30t65 77l279 -17q-29 -101 -99.5 -178.5t-166 -118.5t-199.5 -41q-101 0 -184 36.5t-140 104t-80 172.5t-2 234
q36 227 188 369.5t351 142.5z" />
    <glyph glyph-name="uni0442" unicode="&#x442;" horiz-adv-x="1013" 
d="M1051 748h-295l-113 -748h-272l114 748h-292l47 262h856z" />
    <glyph glyph-name="uni0443" unicode="&#x443;" horiz-adv-x="1120" 
d="M1167 1010l-151 -959q-32 -207 -189 -334t-372 -127q-217 0 -383 144l159 198q96 -96 234 -96q102 0 186 67t94 163l13 36q-103 -96 -260 -96q-59 0 -109 13t-96 44t-73 80.5t-38.5 123t6.5 171.5l88 572h273l-82 -529q-19 -124 4.5 -174.5t108.5 -50.5q131 0 221 147
l96 607h270z" />
    <glyph glyph-name="uni0444" unicode="&#x444;" horiz-adv-x="1574" 
d="M1128 1290l-57 -315q76 59 156 59q142 0 232.5 -72.5t120 -194.5t3.5 -280q-18 -120 -64.5 -219t-108 -161.5t-132 -96t-141.5 -33.5q-112 0 -199 84l-76 -446h-272l76 436q-101 -74 -201 -74q-163 0 -257.5 147.5t-55.5 399.5q37 229 164 369.5t325 140.5q93 0 158 -65
l57 321h272zM633 788q-89 0 -143 -82t-74 -219q-18 -125 14 -194.5t94 -69.5q89 0 178 107l35 207q11 81 8 137t-30.5 85t-81.5 29zM1217 788q-174 0 -213 -268l-33 -203q51 -94 125 -94q75 0 139.5 80.5t83.5 220.5q19 125 -2.5 194.5t-99.5 69.5z" />
    <glyph glyph-name="uni0445" unicode="&#x445;" horiz-adv-x="1067" 
d="M795 522l235 -522h-319l-125 315l-230 -315h-327l407 514l-233 496h317l129 -318l230 318h315z" />
    <glyph glyph-name="uni0446" unicode="&#x446;" 
d="M1020 262h90l-86 -518h-231l41 256h-721l159 1010h271l-113 -748h318l114 748h271z" />
    <glyph glyph-name="uni0447" unicode="&#x447;" horiz-adv-x="1093" 
d="M981 0h-272l47 262q-57 -35 -124.5 -54.5t-135 -20t-127 22.5t-102 72.5t-59.5 130t1 195.5l63 402h271l-66 -416q-11 -80 16 -123t75.5 -44.5t107 24.5t110.5 75l82 484h273z" />
    <glyph glyph-name="uni0448" unicode="&#x448;" horiz-adv-x="1576" 
d="M1466 0h-1353l159 1010h271l-113 -748h270l113 748h270l-112 -748h270l113 748h272z" />
    <glyph glyph-name="uni0449" unicode="&#x449;" horiz-adv-x="1607" 
d="M1513 262h91l-88 -518h-232l41 256h-1212l159 1010h271l-113 -748h270l113 748h270l-112 -748h270l113 748h272z" />
    <glyph glyph-name="uni044A" unicode="&#x44a;" horiz-adv-x="974" 
d="M532 727h132q71 0 127.5 -20.5t92 -56.5t58 -84.5t25.5 -103.5t-4 -114q-25 -153 -136 -250.5t-264 -97.5h-418l125 795h-114l37 215h382zM694 381q7 41 -11.5 69.5t-64.5 28.5h-129l-30 -231h112q48 0 82.5 40t40.5 93z" />
    <glyph glyph-name="uni044B" unicode="&#x44b;" horiz-adv-x="1306" 
d="M520 727h131q71 0 127.5 -20.5t92 -56.5t58 -84.5t25.5 -103.5t-4 -114q-25 -153 -135.5 -250.5t-263.5 -97.5h-418l160 1010h270zM1194 0h-272l159 1010h273zM477 479l-31 -231h113q48 0 82.5 40t40.5 93q7 41 -11.5 69.5t-64.5 28.5h-129z" />
    <glyph glyph-name="uni044C" unicode="&#x44c;" horiz-adv-x="942" 
d="M500 727h131q71 0 127.5 -20.5t92 -56.5t58 -84.5t25.5 -103.5t-4 -114q-25 -153 -136 -250.5t-264 -97.5h-417l159 1010h271zM457 479l-31 -231h113q48 0 82.5 40t40.5 93q7 41 -11.5 69.5t-64.5 28.5h-129z" />
    <glyph glyph-name="uni044D" unicode="&#x44d;" horiz-adv-x="1042" 
d="M662 1034q214 0 321 -148t66 -403q-38 -242 -172.5 -375t-341.5 -133q-197 0 -312 102t-100 247l295 -19q16 -82 121 -82q66 0 123.5 50t91.5 135h-332l35 198h331q-5 84 -41.5 132t-97.5 48q-56 0 -98.5 -29.5t-63.5 -66.5l-301 19q32 138 163 231.5t313 93.5z" />
    <glyph glyph-name="uni044E" unicode="&#x44e;" horiz-adv-x="1495" 
d="M1112 1034q219 0 325 -147.5t64 -403.5q-38 -240 -177.5 -374t-346.5 -134q-184 0 -291 101.5t-113 285.5h-133l-57 -362h-270l159 1010h271l-60 -385h123q57 196 189.5 302.5t316.5 106.5zM1237 514q18 115 -19 184.5t-120 69.5q-96 0 -164.5 -81t-85.5 -210
q-15 -104 21.5 -170.5t119.5 -66.5q95 0 162.5 77t85.5 197z" />
    <glyph glyph-name="uni044F" unicode="&#x44f;" horiz-adv-x="1011" 
d="M627 1010h127q152 0 214 -89.5t36 -248.5l-105 -672h-272l43 287l-70 -6q-53 -41 -123 -135.5t-98 -153.5l-340 16q58 79 97 128.5t102 115t116 98.5q-63 37 -96 102t-34.5 137.5t26 148t77.5 135.5t128.5 98.5t171.5 38.5zM698 756h-92q-61 0 -96 -62q-32 -56 -16 -106
q15 -47 69 -47h152l20 151q5 38 -1.5 51t-35.5 13z" />
    <glyph glyph-name="uni0451" unicode="&#x451;" 
d="M563 1145q-59 0 -95.5 40t-25.5 109q8 56 46 85.5t85 29.5q59 0 95 -41t26 -111q-10 -55 -47.5 -83.5t-83.5 -28.5zM926 1145q-58 0 -94 40.5t-25 108.5q8 56 46 85.5t85 29.5q58 0 94 -41t25 -111q-8 -55 -46 -83.5t-85 -28.5zM590 213q136 0 190 90l283 -16
q-31 -101 -103 -173t-165.5 -105.5t-200.5 -33.5q-153 0 -262.5 69t-156.5 196t-21 292q35 223 190.5 362.5t370.5 139.5q188 0 297 -109q91 -90 86 -209q-5 -130 -119 -221q-151 -120 -434 -120q-59 0 -127 6q9 -82 53 -125t119 -43zM682 811q-81 0 -147 -58t-97 -165
q58 -6 107 -6q174 0 237 74q40 48 14 97q-26 51 -97 57q-8 1 -17 1z" />
    <glyph glyph-name="uni0452" unicode="&#x452;" horiz-adv-x="1134" 
d="M543 1040l-33 -190q48 28 106.5 46t120.5 22.5t121.5 -6.5t110 -40t85.5 -79t48 -123t-2 -172l-70 -463q-37 -233 -154 -339t-350 -106l29 252q101 0 145.5 51.5t63.5 157.5l61 432q11 76 -16.5 119.5t-79.5 50.5t-117 -10t-131 -55l-98 -588h-270l163 1040h-116l37 213
h112l25 150h270l-24 -150h235l-37 -213h-235z" />
    <glyph glyph-name="uni0453" unicode="&#x453;" horiz-adv-x="806" 
d="M451 1106l-35 168l485 205l47 -207zM870 748h-370l-117 -748h-270l159 1010h643z" />
    <glyph glyph-name="uni0454" unicode="&#x454;" horiz-adv-x="1040" 
d="M666 786q-64 0 -122 -48.5t-93 -131.5h327l-35 -198h-331q1 -83 39 -134t98 -51q61 0 106 29t68 72l299 -19q-31 -143 -167 -236.5t-323 -93.5q-220 0 -321.5 144.5t-58.5 400.5q39 242 180 378t342 136q193 0 303 -102t94 -242l-293 19q-23 77 -112 77z" />
    <glyph glyph-name="uni0455" unicode="&#x455;" horiz-adv-x="993" 
d="M653 1034q213 0 304 -92.5t71 -243.5l-278 19q3 46 -25 73t-82 27q-68 0 -112.5 -31t-51.5 -86q-3 -20 7.5 -35t41 -28t51.5 -19t71 -18l24 -6q60 -14 98 -25.5t88.5 -36.5t77.5 -55.5t42 -81.5t5 -116q-17 -100 -88.5 -170.5t-170.5 -102t-218 -31.5q-211 0 -308 88.5
t-79 243.5l264 -18q-3 -47 26 -71.5t95 -24.5q80 0 134.5 31t61.5 83q2 18 -8.5 31t-37 22.5t-50.5 16t-70 16.5t-73 17q-50 13 -88 27t-78 39.5t-63.5 57.5t-35 81t-1.5 110q24 145 149 227t307 82z" />
    <glyph glyph-name="uni0456" unicode="&#x456;" horiz-adv-x="495" 
d="M612 1325q-11 -65 -56.5 -100t-102.5 -35q-68 0 -111 46.5t-29 125.5q10 66 56 101.5t102 35.5q69 0 111.5 -46t29.5 -128zM383 0h-270l159 1010h271z" />
    <glyph glyph-name="uni0457" unicode="&#x457;" horiz-adv-x="495" 
d="M274 1409q59 0 95 -41t26 -111q-10 -55 -47.5 -83.5t-83.5 -28.5q-59 0 -95.5 40t-25.5 109q8 56 46 85.5t85 29.5zM639 1409q58 0 94 -41t25 -111q-8 -55 -46 -83.5t-85 -28.5q-58 0 -94 40.5t-25 108.5q8 56 46 85.5t85 29.5zM383 0h-270l159 1010h271z" />
    <glyph glyph-name="uni0458" unicode="&#x458;" horiz-adv-x="534" 
d="M666 1325q-11 -65 -57 -100t-103 -35q-68 0 -110.5 46.5t-28.5 125.5q10 66 55.5 101.5t101.5 35.5q69 0 112 -46t30 -128zM575 1010l-151 -975q-37 -233 -154 -339t-350 -106l29 252q101 0 145.5 51.5t63.5 157.5l147 959h270z" />
    <glyph glyph-name="uni0459" unicode="&#x459;" horiz-adv-x="1540" 
d="M1098 727h131q71 0 127 -20.5t91.5 -56.5t58.5 -84.5t26 -103.5t-4 -114q-25 -153 -136.5 -250.5t-263.5 -97.5h-417l112 739h-252l-43 -313q-21 -125 -64.5 -213.5t-107.5 -138.5t-138 -72t-167 -22l31 270q148 0 178 184l86 576h795zM1055 479l-31 -231h113
q46 0 80.5 40t42.5 93q7 41 -11.5 69.5t-66.5 28.5h-127z" />
    <glyph glyph-name="uni045A" unicode="&#x45a;" horiz-adv-x="1544" 
d="M1102 727h131q88 0 152.5 -31.5t99 -85t46.5 -120.5t1 -142q-25 -153 -136 -250.5t-263 -97.5h-420l55 358h-330l-55 -358h-270l159 1010h271l-60 -389h330l59 389h273zM1059 479l-31 -231h111q49 0 84 39.5t41 93.5q7 41 -11.5 69.5t-66.5 28.5h-127z" />
    <glyph glyph-name="uni045B" unicode="&#x45b;" horiz-adv-x="1134" 
d="M543 1040l-33 -190q48 28 106.5 46t120.5 22.5t121.5 -6.5t110 -40t85.5 -79t48 -123t-2 -172l-78 -498h-270l73 483q11 76 -16.5 119.5t-79.5 50.5t-117 -10t-131 -55l-98 -588h-270l163 1040h-116l37 213h112l25 150h270l-24 -150h235l-37 -213h-235z" />
    <glyph glyph-name="uni045C" unicode="&#x45c;" horiz-adv-x="1005" 
d="M451 1106l-35 168l485 205l47 -207zM1061 1010l-328 -461q55 -22 97 -120.5t80 -253.5t48 -183l-319 16q-8 29 -18.5 82.5t-19.5 95.5t-22.5 84.5t-34.5 66t-48 23.5h-58l-55 -360h-270l159 1010h271l-60 -387h27l238 387h313z" />
    <glyph glyph-name="uni045E" unicode="&#x45e;" horiz-adv-x="1120" 
d="M895 1442l195 -19q-25 -151 -119.5 -230t-225.5 -79q-142 0 -221 87.5t-55 240.5l197 -19q-16 -131 75 -131q59 0 101 43t53 107zM1167 1010l-151 -959q-32 -207 -189 -334t-372 -127q-217 0 -383 144l159 198q96 -96 234 -96q102 0 186 67t94 163l13 36
q-103 -96 -260 -96q-59 0 -109 13t-96 44t-73 80.5t-38.5 123t6.5 171.5l88 572h273l-82 -529q-19 -124 4.5 -174.5t108.5 -50.5q131 0 221 147l96 607h270z" />
    <glyph glyph-name="uni045F" unicode="&#x45f;" horiz-adv-x="1085" 
d="M973 0h-314l-41 -256h-233l43 256h-315l159 1010h271l-113 -748h318l114 748h271z" />
    <glyph glyph-name="uni0462" unicode="&#x462;" horiz-adv-x="1120" 
d="M543 770h200q111 0 191 -31.5t121.5 -86t55.5 -123t1 -148.5q-28 -172 -160.5 -276.5t-322.5 -104.5h-504l143 905h-149l43 232h143l25 153h293l-25 -153h217l-41 -232h-211zM829 414q7 50 -17 83t-79 33h-231l-37 -268h217q59 0 98.5 43.5t48.5 108.5z" />
    <glyph glyph-name="uni0463" unicode="&#x463;" horiz-adv-x="942" 
d="M496 696h131q116 0 190.5 -51t99.5 -131.5t9 -181.5q-25 -150 -133.5 -241t-262.5 -91h-417l127 811h-117l35 199h114l62 393h270l-59 -393h229l-35 -199h-225zM659 365q10 84 -79 84h-127l-27 -201h113q48 0 80 33t40 84z" />
    <glyph glyph-name="uni0472" unicode="&#x472;" horiz-adv-x="1372" 
d="M899 1315q290 0 428 -189t88 -503q-48 -295 -233 -471.5t-461 -176.5q-290 0 -429 188t-89 499q50 299 234.5 476t461.5 177zM887 1051q-122 0 -216 -77.5t-145 -211.5q66 13 125.5 5.5t126.5 -19.5t124.5 -22.5t120 -4t112.5 36.5q-2 135 -65.5 214t-182.5 79zM733 242
q123 0 218 75.5t143 204.5q-54 -24 -118.5 -26.5t-121 9.5t-123.5 23.5t-125 15t-125 -15.5q0 -132 65 -209t187 -77z" />
    <glyph glyph-name="uni0473" unicode="&#x473;" horiz-adv-x="1101" 
d="M719 1034q150 0 250.5 -73t138 -197t12.5 -279q-37 -227 -178 -368.5t-358 -141.5q-116 0 -203 41.5t-134.5 115t-66 173.5t1.5 217q35 225 179 368.5t358 143.5zM709 788q-80 0 -138 -47.5t-92 -130.5q46 11 82 2t75 -21t72.5 -22t74 -0.5t79.5 43.5q-3 81 -40.5 128.5
t-112.5 47.5zM594 223q85 0 145 52t92 143q-37 -23 -72.5 -29.5t-63.5 0t-59.5 16.5t-59.5 19.5t-64 9t-72 -15.5q-3 -195 154 -195z" />
    <glyph glyph-name="uni0474" unicode="&#x474;" horiz-adv-x="1425" 
d="M1554 1315l-30 -266q-67 0 -109.5 -33t-91.5 -125l-469 -891h-274l-285 1290h330l166 -884l303 645q35 71 67.5 116.5t67.5 76t84 45.5t103 20.5t138 5.5z" />
    <glyph glyph-name="uni0475" unicode="&#x475;" horiz-adv-x="1142" 
d="M1257 1030l-24 -239q-54 0 -90.5 -27.5t-71.5 -95.5l-340 -668h-274l-228 1010h287l127 -725l244 518q41 81 83 127.5t112.5 73t174.5 26.5z" />
    <glyph glyph-name="uni0490" unicode="&#x490;" horiz-adv-x="968" 
d="M1092 1290h22l-49 -270h-471l-156 -1020h-293l205 1290h469l39 234h272z" />
    <glyph glyph-name="uni0491" unicode="&#x491;" horiz-adv-x="804" 
d="M913 1010h23l-45 -262h-371l-117 -748h-270l160 1010h350l45 270h270z" />
    <glyph glyph-name="uni0492" unicode="&#x492;" horiz-adv-x="968" 
d="M575 1020l-40 -270h290l-49 -271h-282l-74 -479h-293l76 479h-148l49 271h142l86 540h762l-47 -270h-472z" />
    <glyph glyph-name="uni0493" unicode="&#x493;" horiz-adv-x="806" 
d="M500 748l-33 -216h207l-39 -213h-203l-49 -319h-270l51 319h-103l39 213h97l75 478h643l-43 -262h-372z" />
    <glyph glyph-name="uni0496" unicode="&#x496;" horiz-adv-x="1714" 
d="M1849 1290l-413 -547q13 -4 26.5 -17.5t26.5 -39t24 -51.5t24 -67.5t22.5 -74t22 -83.5t20.5 -83t21 -86.5t19 -80.5h82l-67 -416h-236l43 260l-98 4q-10 29 -34 170.5t-58 239.5t-84 98h-86l-80 -516h-293l80 516h-70q-39 0 -92 -68.5t-94.5 -150.5t-89 -179.5
t-64.5 -125.5l-340 16q41 62 148 259.5t194.5 333t139.5 147.5l-219 542h325l187 -504h22l78 504h293l-78 -504h16l342 504h340z" />
    <glyph glyph-name="uni0497" unicode="&#x497;" horiz-adv-x="1419" 
d="M1417 160l-24 -146l8 -22h-10l-41 -248h-236l43 262l-35 2q-7 28 -18 84.5t-20 96.5t-23.5 83t-35.5 65.5t-48 22.5h-57l-56 -360h-270l53 360h-39q-27 0 -56.5 -24.5t-58.5 -69.5t-52.5 -88t-53 -100.5t-45.5 -85.5l-291 16q23 35 79 135.5t100 174t104 144.5t108 87
l-176 461h281l117 -387h30l60 387h270l-59 -387h24l236 387h293l-342 -467q30 -12 56.5 -49t49.5 -97.5t38 -111t34 -125.5h63z" />
    <glyph glyph-name="uni049A" unicode="&#x49a;" horiz-adv-x="1173" 
d="M1176 160l-25 -148l8 -20h-10l-41 -248h-236l43 258l-73 4q-15 30 -35.5 121.5t-39 173.5t-55.5 148.5t-85 66.5h-109l-80 -516h-293l205 1290h293l-78 -504h47l349 504h339l-430 -545q17 -4 33.5 -18t31.5 -39t28.5 -52t28 -68.5t25 -74.5t24.5 -83.5t22.5 -83.5t22 -86
t20.5 -80h70z" />
    <glyph glyph-name="uni049B" unicode="&#x49b;" horiz-adv-x="1003" 
d="M991 160l-22 -137l10 -31h-14l-41 -248h-236l43 260l-72 4q-8 29 -18.5 82.5t-19.5 95.5t-22.5 84.5t-34.5 66t-48 23.5h-57l-56 -360h-270l160 1010h270l-59 -387h26l238 387h313l-327 -461q31 -12 58 -49.5t50.5 -101.5t37.5 -111t34 -127h57z" />
    <glyph glyph-name="uni04A2" unicode="&#x4a2;" horiz-adv-x="1435" 
d="M1272 160h65l-67 -416h-236l41 256h-121l76 500h-514l-78 -500h-293l205 1290h293l-82 -520h516l82 520h293z" />
    <glyph glyph-name="uni04A3" unicode="&#x4a3;" horiz-adv-x="1095" 
d="M1028 160h62l-68 -416h-236l41 256h-94l55 358h-329l-56 -358h-270l160 1010h270l-59 -389h330l59 389h272z" />
    <glyph glyph-name="uni04AE" unicode="&#x4ae;" horiz-adv-x="1339" 
d="M885 514l-84 -514h-293l84 514l-340 776h342l192 -514l355 514h362z" />
    <glyph glyph-name="uni04AF" unicode="&#x4af;" horiz-adv-x="1112" 
d="M741 399l-65 -399h-270l65 399l-276 611h342l112 -351l230 351h364z" />
    <glyph glyph-name="uni04B0" unicode="&#x4b0;" horiz-adv-x="1339" 
d="M893 436h219l-43 -248h-217l-31 -188h-293l31 188h-266l43 248h264l12 78l-340 776h342l193 -514l354 514h363l-619 -776z" />
    <glyph glyph-name="uni04B1" unicode="&#x4b1;" horiz-adv-x="1110" 
d="M752 332h127l-37 -213h-125l-21 -119h-270l20 119h-178l37 213h176l11 67l-277 611h342l113 -351l229 351h365l-502 -611z" />
    <glyph glyph-name="uni04B2" unicode="&#x4b2;" horiz-adv-x="1341" 
d="M1307 160l-23 -142l8 -18h-12l-41 -256h-235l40 256h-106l-190 432l-304 -432h-360l508 645l-299 645h348l180 -442l318 442h346l-508 -643l237 -487h93z" />
    <glyph glyph-name="uni04B3" unicode="&#x4b3;" horiz-adv-x="1069" 
d="M1063 160l-23 -137l11 -23h-15l-41 -256h-235l41 256h-70l-125 315l-229 -315h-328l408 514l-234 496h318l129 -318l229 318h315l-399 -488l164 -362h84z" />
    <glyph glyph-name="uni04B6" unicode="&#x4b6;" horiz-adv-x="1241" 
d="M1102 160h65l-67 -416h-236l41 256h-121l72 420q-47 -28 -105.5 -44.5t-121 -19.5t-122.5 10t-111 44.5t-87 83t-49 126t2 173.5l78 497h293l-76 -481q-10 -77 16 -120.5t76 -51t113 9.5t129 55l98 588h293z" />
    <glyph glyph-name="uni04B7" unicode="&#x4b7;" horiz-adv-x="1089" 
d="M1026 160h49l-67 -416h-236l43 256h-86l47 262q-57 -35 -124.5 -54.5t-135 -20t-127 22.5t-102 72.5t-59.5 130t1 195.5l64 402h270l-65 -416q-11 -80 16 -123t75.5 -44.5t107 24.5t110.5 75l82 484h272z" />
    <glyph glyph-name="uni04BA" unicode="&#x4ba;" horiz-adv-x="1155" 
d="M610 1290l-84 -481q101 53 236 53q63 0 118 -12.5t106.5 -42t83 -77t46.5 -117t-2 -162.5l-70 -451h-292l63 424q12 91 -21.5 125.5t-101.5 34.5q-93 0 -196 -47l-90 -537h-293l204 1290h293z" />
    <glyph glyph-name="uni04BB" unicode="&#x4bb;" horiz-adv-x="1132" 
d="M588 1290l-74 -430q47 28 105.5 46t120 22.5t121 -6.5t110 -40t85.5 -79t48 -123t-2 -172l-80 -508h-270l75 494q10 76 -17.5 119.5t-79.5 50t-116 -10.5t-129 -55l-102 -598h-270l204 1290h271z" />
    <glyph glyph-name="uni04C0" unicode="&#x4c0;" horiz-adv-x="542" 
d="M418 0h-293l205 1290h293z" />
    <glyph glyph-name="uni04CF" unicode="&#x4cf;" horiz-adv-x="495" 
d="M383 0h-270l159 1010h271z" />
    <glyph glyph-name="uni04D8" unicode="&#x4d8;" horiz-adv-x="1269" 
d="M793 1315q188 0 312.5 -86.5t171 -242t13.5 -361.5q-48 -297 -226.5 -473.5t-445.5 -176.5q-124 0 -221.5 41.5t-154 110.5t-80.5 157t-10 183l41 229h813q18 162 -41 258.5t-185 96.5q-84 0 -154.5 -44.5t-93.5 -101.5l-299 17q30 163 188 278t372 115zM631 242
q100 0 180 57t131 158l-498 -6q-10 -209 187 -209z" />
    <glyph glyph-name="uni04D9" unicode="&#x4d9;" horiz-adv-x="1034" 
d="M653 1034q215 0 322.5 -148t66.5 -403q-40 -242 -174.5 -375t-339.5 -133q-204 0 -314.5 121t-80.5 324l31 160h616q2 94 -35.5 150t-101.5 56q-57 0 -100 -29.5t-64 -66.5l-295 19q30 138 158.5 231.5t310.5 93.5zM532 223q59 0 113 42t90 114l-332 -4q2 -75 32 -113.5
t97 -38.5z" />
    <glyph glyph-name="uni04E2" unicode="&#x4e2;" horiz-adv-x="1323" 
d="M1184 1417h-598l35 187h598zM1198 0h-293l127 819l-676 -819h-231l205 1290h293l-119 -782l645 782h254z" />
    <glyph glyph-name="uni04E3" unicode="&#x4e3;" horiz-adv-x="1069" 
d="M1014 1137h-598l35 186h598zM956 0h-270l88 586l-412 -586h-249l159 1010h271l-88 -584l409 584h252z" />
    <glyph glyph-name="uni04E8" unicode="&#x4e8;" horiz-adv-x="1372" 
d="M899 1315q290 0 428 -189t88 -503q-48 -295 -233 -471.5t-461 -176.5q-290 0 -429 188t-89 499q50 299 234.5 476t461.5 177zM887 1051q-122 0 -215 -76t-144 -207h607q-3 131 -67 207t-181 76zM733 242q127 0 223.5 80t141.5 215h-615q-3 -135 62 -215t188 -80z" />
    <glyph glyph-name="uni04E9" unicode="&#x4e9;" horiz-adv-x="1083" 
d="M709 1034q150 0 250.5 -73t138 -197t12.5 -279q-37 -227 -178.5 -368.5t-358.5 -141.5q-154 0 -254 72.5t-135.5 194.5t-11.5 280q35 225 179 368.5t358 143.5zM698 788q-156 0 -229 -176h381q-7 176 -152 176zM584 223q81 0 139 47t90 129h-383q2 -83 39.5 -129.5
t114.5 -46.5z" />
    <glyph glyph-name="uni04EE" unicode="&#x4ee;" horiz-adv-x="1124" 
d="M1096 1417h-598l34 187h598zM1290 1290l-473 -921q-76 -140 -155.5 -219.5t-195 -122.5t-288.5 -52l8 263q106 -6 196.5 30.5t125.5 114.5l14 29l-252 878h353l98 -504l266 504h303z" />
    <glyph glyph-name="uni04EF" unicode="&#x4ef;" horiz-adv-x="1120" 
d="M1028 1137h-598l35 186h598zM1167 1010l-151 -959q-32 -207 -189 -334t-372 -127q-217 0 -383 144l159 198q96 -96 234 -96q102 0 186 67t94 163l13 36q-103 -96 -260 -96q-59 0 -109 13t-96 44t-73 80.5t-38.5 123t6.5 171.5l88 572h273l-82 -529q-19 -124 4.5 -174.5
t108.5 -50.5q131 0 221 147l96 607h270z" />
    <glyph glyph-name="Wgrave" unicode="&#x1e80;" horiz-adv-x="1988" 
d="M1090 1759l430 -205l-93 -168l-452 166zM1518 0h-265l-131 864l-393 -864h-268l-178 1290h335l66 -841l375 841l272 2l125 -843l322 841h340z" />
    <glyph glyph-name="wgrave" unicode="&#x1e81;" horiz-adv-x="1628" 
d="M848 1479l430 -205l-92 -168l-453 166zM1221 0h-242l-76 592l-250 -592h-237l-185 1010h306l67 -600l258 600h219l72 -600l254 600h315z" />
    <glyph glyph-name="Wacute" unicode="&#x1e82;" horiz-adv-x="1988" 
d="M1034 1384l-35 168l486 205l47 -207zM1518 0h-265l-131 864l-393 -864h-268l-178 1290h335l66 -841l375 841l272 2l125 -843l322 841h340z" />
    <glyph glyph-name="wacute" unicode="&#x1e83;" horiz-adv-x="1628" 
d="M793 1104l-35 168l485 205l47 -207zM1221 0h-242l-76 592l-250 -592h-237l-185 1010h306l67 -600l258 600h219l72 -600l254 600h315z" />
    <glyph glyph-name="Wdieresis" unicode="&#x1e84;" horiz-adv-x="1988" 
d="M1081 1690q59 0 95 -41t26 -111q-10 -55 -48 -84t-83 -29q-59 0 -95.5 40.5t-25.5 109.5q8 56 46 85.5t85 29.5zM1446 1690q58 0 94 -41t25 -111q-8 -55 -46 -84t-85 -29q-58 0 -94 40.5t-25 109.5q8 56 46 85.5t85 29.5zM1518 0h-265l-131 864l-393 -864h-268l-178 1290
h335l66 -841l375 841l272 2l125 -843l322 841h340z" />
    <glyph glyph-name="wdieresis" unicode="&#x1e85;" horiz-adv-x="1628" 
d="M840 1409q59 0 95 -41t26 -111q-10 -55 -48 -83.5t-84 -28.5q-59 0 -95 40t-25 109q8 56 46 85.5t85 29.5zM1204 1409q58 0 94 -41t25 -111q-8 -55 -46 -83.5t-85 -28.5q-58 0 -94 40.5t-25 108.5q8 56 46 85.5t85 29.5zM1221 0h-242l-76 592l-250 -592h-237l-185 1010
h306l67 -600l258 600h219l72 -600l254 600h315z" />
    <glyph glyph-name="Ygrave" unicode="&#x1ef2;" horiz-adv-x="1339" 
d="M752 1759l430 -205l-92 -168l-453 166zM885 514l-84 -514h-293l84 514l-340 776h342l192 -514l355 514h362z" />
    <glyph glyph-name="ygrave" unicode="&#x1ef3;" horiz-adv-x="1120" 
d="M586 1479l430 -205l-92 -168l-453 166zM1167 1010l-151 -959q-32 -207 -189 -334t-372 -127q-217 0 -383 144l159 198q96 -96 234 -96q102 0 186 67t94 163l13 36q-103 -96 -260 -96q-59 0 -109 13t-96 44t-73 80.5t-38.5 123t6.5 171.5l88 572h273l-82 -529
q-19 -124 4.5 -174.5t108.5 -50.5q131 0 221 147l96 607h270z" />
    <glyph glyph-name="endash" unicode="&#x2013;" horiz-adv-x="1173" 
d="M1147 506h-965l37 217h965z" />
    <glyph glyph-name="emdash" unicode="&#x2014;" horiz-adv-x="1478" 
d="M1452 506h-1270l37 217h1272z" />
    <glyph glyph-name="quoteleft" unicode="&#x2018;" horiz-adv-x="466" 
d="M340 1290l-176 -463h250l168 463h-242z" />
    <glyph glyph-name="quoteright" unicode="&#x2019;" horiz-adv-x="464" 
d="M440 827l178 463h-251l-168 -463h241z" />
    <glyph glyph-name="quotesinglbase" unicode="&#x201a;" horiz-adv-x="464" 
d="M281 -305l178 463h-252l-168 -463h242z" />
    <glyph glyph-name="quotedblleft" unicode="&#x201c;" horiz-adv-x="800" 
d="M324 1290l-177 -463h250l168 463h-241zM655 1290l-176 -463h250l168 463h-242z" />
    <glyph glyph-name="quotedblright" unicode="&#x201d;" horiz-adv-x="794" 
d="M461 827l178 463h-252l-168 -463h242zM793 827l176 463h-252l-166 -463h242z" />
    <glyph glyph-name="quotedblbase" unicode="&#x201e;" horiz-adv-x="794" 
d="M301 -305l178 463h-252l-168 -463h242zM633 -305l178 463h-252l-168 -463h242z" />
    <glyph glyph-name="dagger" unicode="&#x2020;" horiz-adv-x="675" 
d="M532 1315q33 0 52.5 -23.5t13.5 -56.5q-2 -12 -8.5 -29t-18.5 -48t-22 -62q34 5 63 13t44.5 13.5t21.5 5.5q27 0 45.5 -21.5t11.5 -59.5q-3 -22 -18.5 -35t-26.5 -13q-10 0 -53.5 10t-87.5 5q-21 -98 -21.5 -134t13.5 -61q-1 -1 -6.5 -8t-7 -9t-6.5 -10t-7 -13.5
t-6.5 -16.5t-7 -22.5t-6.5 -28.5t-7 -37l-26 -170h-86l33 186q10 81 8.5 105t-15.5 55q31 44 68 182q-43 -6 -84.5 -19.5t-50.5 -13.5q-23 0 -43.5 23.5t-14.5 60.5q4 24 19 34.5t27 10.5q7 0 52 -9t91 -5q9 43 9 91.5t3 66.5q1 20 17 31.5t38 11.5z" />
    <glyph glyph-name="daggerdbl" unicode="&#x2021;" horiz-adv-x="675" 
d="M530 1315q33 0 53 -23.5t13 -56.5q-1 -12 -7.5 -29t-19 -48.5t-22.5 -61.5q34 5 63 13t44.5 13.5t21.5 5.5q27 0 46.5 -21.5t12.5 -59.5q-3 -22 -19 -35t-28 -13q-11 0 -53.5 10t-85.5 5q-11 -44 -10.5 -67t12.5 -52q-1 -2 -5.5 -8.5t-6.5 -8.5t-6 -9t-6.5 -12t-6.5 -14
t-7.5 -18.5t-7.5 -23t-9 -29.5q34 5 63 13.5t44.5 14t21.5 5.5q27 0 46.5 -22t12.5 -60q-3 -24 -17.5 -34.5t-27.5 -10.5q-10 0 -54 9.5t-87 4.5q-7 -40 -7.5 -87.5t-5.5 -67.5q-3 -18 -19 -31.5t-34 -13.5q-31 0 -52 24t-15 57q2 11 9 28.5t19.5 48t22.5 61.5
q-43 -6 -82.5 -19.5t-48.5 -13.5q-28 0 -47.5 22t-12.5 60q3 24 17.5 34.5t29.5 10.5q6 0 50 -9t90 -5q14 67 13.5 86t-13.5 49q35 55 55 106q-43 -6 -83.5 -19.5t-49.5 -13.5q-25 0 -45 23.5t-13 60.5q3 24 18 34.5t30 10.5q6 0 49.5 -9t89.5 -5q9 43 9 91.5t3 66.5
q3 20 18 31.5t37 11.5z" />
    <glyph glyph-name="bullet" unicode="&#x2022;" horiz-adv-x="624" 
d="M436 856q103 0 162 -73t41 -185q-17 -99 -87.5 -160t-162.5 -61q-107 0 -167 72t-40 186q17 99 87.5 160t166.5 61z" />
    <glyph glyph-name="ellipsis" unicode="&#x2026;" horiz-adv-x="1320" 
d="M274 287q68 0 110.5 -47t29.5 -127q-11 -65 -57.5 -101.5t-102.5 -36.5q-68 0 -110.5 47.5t-28.5 127.5q11 66 57 101.5t102 35.5zM715 287q67 0 109.5 -46.5t29.5 -127.5q-11 -65 -57.5 -101.5t-102.5 -36.5q-68 0 -110.5 47.5t-28.5 127.5q11 66 57.5 101.5t102.5 35.5
zM1153 287q67 0 109.5 -46.5t29.5 -127.5q-11 -66 -57 -102t-102 -36q-68 0 -111 47.5t-29 127.5q11 66 57.5 101.5t102.5 35.5z" />
    <glyph glyph-name="perthousand" unicode="&#x2030;" horiz-adv-x="2320" 
d="M616 -63l-198 22l852 1458l176 -47zM528 1305q73 0 126.5 -33t79 -87t35 -123t-4.5 -140q-11 -66 -35.5 -125t-62.5 -108t-95 -78t-125 -29q-96 0 -156.5 54.5t-78.5 138t-2 183.5q10 66 35.5 126.5t64.5 110.5t96 80t123 30zM528 1114q-89 0 -118 -196q-14 -64 -8 -105
t42 -41q52 0 78.5 47.5t38.5 134.5q15 68 10 114t-43 46zM1425 711q73 0 126.5 -33t79 -87t35 -123t-4.5 -140q-11 -66 -35.5 -125t-62.5 -108t-95 -78t-125 -29q-96 0 -156.5 55t-78.5 138.5t-2 183.5q10 66 35.5 126t64.5 110t96 80t123 30zM2091 711q73 0 126.5 -33
t79 -87t35 -123t-4.5 -140q-11 -66 -35.5 -125t-62.5 -108t-95 -78t-125 -29q-96 0 -156.5 55t-78.5 138.5t-2 183.5q10 66 35.5 126t64.5 110t96 80t123 30zM1425 520q-89 0 -118 -196q-14 -64 -8 -105t42 -41q52 0 78.5 47.5t38.5 134.5q4 28 6 43.5t4 37.5t0 33.5
t-6 23.5t-13.5 17t-23.5 5zM2091 520q-90 0 -119 -196q-14 -64 -7.5 -105t42.5 -41q52 0 78.5 47.5t38.5 134.5q4 28 6 43.5t4 37.5t0 33.5t-6 23.5t-13.5 17t-23.5 5z" />
    <glyph glyph-name="guilsinglleft" unicode="&#x2039;" horiz-adv-x="618" 
d="M659 907l-260 -319l158 -318l-180 -110l-215 415v25l342 416z" />
    <glyph glyph-name="guilsinglright" unicode="&#x203a;" horiz-adv-x="618" 
d="M-61 268l260 320l-158 317l180 111l215 -416v-25l-340 -415z" />
    <glyph glyph-name="fraction" unicode="&#x2044;" horiz-adv-x="358" 
d="M-35 -63l-196 22l852 1458l176 -47z" />
    <glyph glyph-name="Euro" unicode="&#x20ac;" horiz-adv-x="1083" 
d="M911 1044q-198 0 -303 -192h375l-53 -166h-385q-10 -36 -15 -68l-4 -24h385l-49 -166h-330q18 -87 75 -135.5t153 -48.5q21 0 40.5 1t37.5 4.5t31.5 5.5t30.5 8t25 8.5t25 10.5t21.5 10.5t22 12t20.5 10.5l-35 -280q-110 -58 -240 -58q-125 0 -221.5 34.5t-157.5 97
t-95 142t-44 177.5h-160l56 166h104q4 44 8 68l4 24h-98l55 166h89q37 99 92.5 180t133 146t183.5 101t230 36q135 0 311 -70l-123 -264q-24 22 -78 42.5t-117 20.5z" />
    <glyph glyph-name="trademark" unicode="&#x2122;" horiz-adv-x="1177" 
d="M659 1135h-129l-49 -306h-153l47 306h-129l26 155h414zM1239 823h-154l41 267l-94 -191h-117l-36 191l-45 -267h-154l74 467h209l41 -174l94 174h217z" />
    <glyph glyph-name="product" unicode="&#x220f;" horiz-adv-x="1056" 
d="M971 0h-266l157 1026h-348l-158 -1026h-270l205 1290h885z" />
    <glyph glyph-name="summation" unicode="&#x2211;" horiz-adv-x="937" 
d="M985 1049h-375l219 -402l-331 -403h387l-41 -244h-750l31 184l407 465l-262 457l29 184h727z" />
    <glyph glyph-name="minus" unicode="&#x2212;" horiz-adv-x="952" 
d="M940 498h-778l45 254h780z" />
    <glyph glyph-name="radical" unicode="&#x221a;" horiz-adv-x="1079" 
d="M690 0h-342l-80 670h-98l41 239h303l51 -635l393 1016h279z" />
    <glyph glyph-name="infinity" unicode="&#x221e;" horiz-adv-x="1167" 
d="M948 895q122 0 186.5 -80t41.5 -219q-21 -125 -99 -194.5t-188 -69.5q-73 0 -124 33t-99 94q-130 -127 -250 -127q-124 0 -188.5 81t-41.5 220q20 124 98 193t187 69q131 0 227 -123q65 63 124 93t126 30zM485 692q-31 0 -58 -25.5t-34 -70.5q-4 -31 7.5 -45t29.5 -14
q63 0 156 90q-47 65 -101 65zM934 692q-58 0 -156 -88q46 -67 101 -67q30 0 57 25t33 71q4 31 -7.5 45t-27.5 14z" />
    <glyph glyph-name="integral" unicode="&#x222b;" horiz-adv-x="638" 
d="M664 1313q57 0 115.5 -19.5t92.5 -48.5l-116 -192q-35 28 -76 28q-35 0 -65 -30.5t-37 -81.5l-156 -1012q-28 -170 -122 -248t-232 -78q-55 0 -114 19.5t-93 48.5l114 192q35 -28 80 -28q32 0 62 30.5t37 81.5l155 1012q29 170 123.5 248t231.5 78z" />
    <glyph glyph-name="approxequal" unicode="&#x2248;" horiz-adv-x="991" 
d="M485 1004q52 0 113 -27t110.5 -54.5t73.5 -27.5q36 0 64.5 30.5t40.5 78.5l184 -82q-36 -111 -111.5 -189t-162.5 -78q-64 0 -123 27.5t-106 54.5t-83 27q-20 0 -37.5 -9t-34 -28.5t-25.5 -32.5t-26 -39l-176 105q123 244 299 244zM414 557q52 0 113 -27t110 -54t72 -27
q36 0 64 29.5t40 76.5l186 -80q-35 -111 -111.5 -189.5t-162.5 -78.5q-51 0 -99.5 17t-79.5 38t-67 38t-65 17q-37 0 -65.5 -29.5t-57.5 -78.5l-176 104q123 244 299 244z" />
    <glyph glyph-name="notequal" unicode="&#x2260;" horiz-adv-x="962" 
d="M768 733l-119 -217h318l-45 -254h-414l-143 -262h-246l143 262h-119l43 254h215l119 217h-301l43 254h397l129 234h248l-129 -234h135l-45 -254h-229z" />
    <glyph glyph-name="lessequal" unicode="&#x2264;" horiz-adv-x="960" 
d="M698 881l-446 -158l489 -158l43 -252l-823 301l-18 109l-21 108l733 304zM793 254l43 -254h-779l-45 254h781z" />
    <glyph glyph-name="greaterequal" unicode="&#x2265;" horiz-adv-x="960" 
d="M1018 831l-37 -217l-825 -301l45 252l489 158l-448 158l45 254zM883 0h-779l46 254h780z" />
    <glyph glyph-name="lozenge" unicode="&#x25ca;" horiz-adv-x="1079" 
d="M1106 645l-438 -645h-248l-242 645l440 645h248zM457 645l123 -387l249 387l-122 389z" />
    <glyph glyph-name="i.loclTRK" horiz-adv-x="495" 
d="M612 1325q-11 -65 -56.5 -100t-102.5 -35q-68 0 -111 46.5t-29 125.5q10 66 56 101.5t102 35.5q69 0 111.5 -46t29.5 -128zM383 0h-270l159 1010h271z" />
    <glyph glyph-name="zero.dnom" horiz-adv-x="665" 
d="M434 711q73 0 126.5 -33t79 -87t35 -123t-4.5 -140q-11 -66 -35.5 -125t-62.5 -108t-95 -78t-125 -29q-96 0 -156.5 55t-78.5 138.5t-2 183.5q10 66 35.5 126t64.5 110t96 80t123 30zM434 520q-90 0 -119 -196q-14 -64 -7.5 -105t42.5 -41q52 0 78.5 47.5t38.5 134.5
q15 68 10 114t-43 46z" />
    <glyph glyph-name="one.dnom" horiz-adv-x="428" 
d="M342 0h-209l76 504h-94l35 192h303z" />
    <glyph glyph-name="two.dnom" horiz-adv-x="686" 
d="M424 711q125 0 199 -67.5t53 -192.5q-10 -63 -46 -106t-81.5 -63.5t-90 -35t-77 -33t-37.5 -45.5h272l-28 -168h-510l24 135q12 79 53.5 134t92.5 81.5t101 46.5t86.5 45t41.5 60q7 45 -37 45q-37 0 -64.5 -25t-33.5 -59l-195 18q14 93 85 161.5t192 68.5z" />
    <glyph glyph-name="three.dnom" horiz-adv-x="657" 
d="M395 711q55 0 102.5 -13.5t85.5 -41t56 -75t8 -110.5q-15 -80 -78 -121q29 -17 47 -57t9 -100q-16 -98 -105 -151.5t-201 -53.5q-134 0 -196.5 69.5t-46.5 169.5l184 -18q-5 -33 9 -46t53 -13q41 0 70.5 23.5t33.5 64.5q3 21 -11.5 31t-56.5 10h-102l20 135h76
q37 0 66 24t33 62q7 47 -43 47q-40 0 -64.5 -22.5t-30.5 -59.5l-194 16q16 103 84.5 166.5t191.5 63.5z" />
    <glyph glyph-name="four.dnom" horiz-adv-x="686" 
d="M332 295h110l23 151h162l-23 -151h68l-35 -195h-66l-18 -116h-162l19 116h-340l24 174l279 422h219z" />
    <glyph glyph-name="zero.numr" horiz-adv-x="665" 
d="M528 1305q73 0 126.5 -33t79 -87t35 -123t-4.5 -140q-11 -66 -35.5 -125t-62.5 -108t-95 -78t-125 -29q-96 0 -156.5 54.5t-78.5 138t-2 183.5q10 66 35.5 126.5t64.5 110.5t96 80t123 30zM528 1114q-89 0 -118 -196q-14 -64 -8 -105t42 -41q52 0 78.5 47.5t38.5 134.5
q15 68 10 114t-43 46z" />
    <glyph glyph-name="one.numr" horiz-adv-x="428" 
d="M436 594h-209l76 504h-94l35 192h303z" />
    <glyph glyph-name="two.numr" horiz-adv-x="686" 
d="M518 1305q81 0 141.5 -27.5t92.5 -88t18 -145.5q-10 -63 -46 -106t-81.5 -63.5t-90 -35t-77 -32.5t-37.5 -45h273l-29 -168h-510l25 135q10 67 41.5 117t71 76t84 48t82 36t64.5 37t31 53q7 45 -36 45q-37 0 -65 -25t-34 -59l-194 18q14 93 84.5 161.5t191.5 68.5z" />
    <glyph glyph-name="three.numr" horiz-adv-x="657" 
d="M489 1305q55 0 102.5 -13.5t85.5 -41t56 -75t8 -110.5q-15 -81 -77 -121q28 -16 46.5 -57t8.5 -101q-16 -98 -104.5 -151t-200.5 -53q-134 0 -197 69.5t-47 169.5l184 -18q-5 -33 9 -46.5t53 -13.5q41 0 70.5 23.5t33.5 64.5q3 22 -11 31.5t-56 9.5h-103l21 136h75
q37 0 66 24t33 62q7 47 -43 47q-40 0 -64 -22.5t-30 -59.5l-195 16q16 103 84.5 166.5t191.5 63.5z" />
    <glyph glyph-name="four.numr" horiz-adv-x="686" 
d="M426 889h111l22 151h162l-23 -151h68l-35 -195h-65l-19 -116h-162l19 116h-340l24 174l279 422h219z" />
    <glyph glyph-name="CR" horiz-adv-x="339" 
 />
    <glyph glyph-name="null" horiz-adv-x="327" 
 />
    </font>
</defs>
</svg>
