<?xml version="1.0" standalone="no"?>
<!DOCTYPE svg PUBLIC "-//W3C//DTD SVG 1.1//EN" "http://www.w3.org/Graphics/SVG/1.1/DTD/svg11.dtd" >
<svg xmlns="http://www.w3.org/2000/svg" xmlns:xlink="http://www.w3.org/1999/xlink" version="1.1">
<metadata>
Created by FontForge 20170731 at Mon Dec  1 19:35:38 2014
 By Aleksey,,,
Copyright (c) 2014 by Christophe Badani. All rights reserved.
</metadata>
<defs>
<font id="WeberName-Regular" horiz-adv-x="413" >
  <font-face 
    font-family="Weber Name"
    font-weight="500"
    font-stretch="normal"
    units-per-em="2048"
    panose-1="0 0 6 0 0 0 0 0 0 0"
    ascent="1536"
    descent="-512"
    x-height="1010"
    cap-height="1290"
    bbox="-154 -512 5575 1870"
    underline-thickness="102"
    underline-position="-306"
    unicode-range="U+0020-25FC"
  />
<missing-glyph horiz-adv-x="748" 
d="M68 0v1365h544v-1365h-544zM136 68h408v1229h-408v-1229z" />
    <glyph glyph-name=".notdef" horiz-adv-x="748" 
d="M68 0v1365h544v-1365h-544zM136 68h408v1229h-408v-1229z" />
    <glyph glyph-name="glyph1" horiz-adv-x="0" 
 />
    <glyph glyph-name="glyph2" horiz-adv-x="682" 
 />
    <glyph glyph-name="space" unicode=" " horiz-adv-x="450" 
 />
    <glyph glyph-name="exclam" unicode="!" horiz-adv-x="589" 
d="M137 131q0 74 47 115t111 41q63 0 109.5 -41t46.5 -115q0 -73 -46.5 -114.5t-109.5 -41.5t-110.5 42t-47.5 114zM147 360v930h293v-930h-293z" />
    <glyph glyph-name="quotedbl" unicode="&#x22;" horiz-adv-x="741" 
d="M106 827v463h216v-463h-216zM418 827v463h215v-463h-215z" />
    <glyph glyph-name="numbersign" unicode="#" horiz-adv-x="1402" 
d="M53 236v243h213l92 303h-182v238h238l73 270h275l-74 -270h213l76 270h270l-71 -270h174v-242h-236l-92 -299h188v-243h-241l-66 -236h-276l65 236h-213l-65 -236h-275l66 236h-152zM516 463h248l100 338h-248z" />
    <glyph glyph-name="dollar" unicode="$" horiz-adv-x="1118" 
d="M8 373h268q17 -73 90 -111.5t193 -38.5q118 0 178 34t60 110q0 32 -26 54.5t-70 37t-101 26t-120 25t-126 31.5t-120 48.5t-101 71t-70 105t-26 145.5q0 168 119.5 273t316.5 127v266h250v-279q157 -34 244.5 -133.5t99.5 -240.5h-283q-14 66 -70.5 105.5t-156.5 39.5
q-101 0 -157 -37t-56 -108q0 -43 32.5 -73.5t86.5 -47t122.5 -34t139.5 -32.5t139.5 -43.5t122.5 -66t86.5 -101t32.5 -147.5q0 -157 -99 -257.5t-284 -131.5v-266h-250v256q-208 18 -327 123t-138 270z" />
    <glyph glyph-name="percent" unicode="%" horiz-adv-x="1697" 
d="M43 940q0 69 19 133t55.5 116.5t97 84t135.5 31.5q78 0 138.5 -31.5t97 -84t55 -116t18.5 -133.5t-18.5 -132.5t-55 -113.5t-97 -81.5t-138.5 -30.5q-76 0 -136.5 30t-96.5 81t-55 114t-19 133zM252 936q0 -79 21 -121.5t77 -42.5q30 0 49.5 12t29.5 35.5t13.5 50.5
t3.5 66q0 56 -6.5 92t-28.5 61t-61 25q-29 0 -49 -13.5t-30.5 -38.5t-14.5 -55.5t-4 -70.5zM406 -41l702 1458l182 -47l-690 -1433zM1047 346q0 69 19 133t55.5 116.5t97 84t135.5 31.5q78 0 138.5 -31.5t97 -84t55 -116t18.5 -133.5t-18.5 -132.5t-55 -113.5t-97 -81.5
t-138.5 -30.5q-76 0 -136.5 30t-96.5 81t-55 114t-19 133zM1255 342q0 -79 21.5 -121.5t77.5 -42.5q30 0 49.5 12t29.5 35.5t13.5 50.5t3.5 66q0 56 -6.5 92t-28.5 61t-61 25q-56 0 -77.5 -47t-21.5 -131z" />
    <glyph glyph-name="ampersand" unicode="&#x26;" horiz-adv-x="1347" 
d="M74 356q0 109 56 191t167 147q-69 71 -104 138t-35 145q0 147 116 242.5t293 95.5q99 0 179.5 -28t131 -75t77 -106t26.5 -123q0 -199 -283 -342l164 -166q22 53 19 148h258q0 -102 -25.5 -194.5t-60.5 -152.5l280 -276l-332 2l-112 107q-131 -134 -346 -134
q-222 0 -345.5 108t-123.5 273zM367 362q0 -75 52.5 -117t129.5 -42q103 0 162 80l-240 241q-51 -32 -77.5 -69.5t-26.5 -92.5zM451 975q0 -43 22 -82t66 -88q67 23 108 71.5t41 102.5q0 55 -33 89t-88 34q-50 0 -83 -33.5t-33 -93.5z" />
    <glyph glyph-name="quotesingle" unicode="'" horiz-adv-x="464" 
d="M106 827v463h250v-463h-250z" />
    <glyph glyph-name="parenleft" unicode="(" horiz-adv-x="677" 
d="M94 662q0 129 22 254.5t56 226t84 202t96 174.5t103 150l209 -133q-49 -73 -83 -129.5t-78 -146.5t-71 -173.5t-46 -195.5t-19 -229t19 -229t46 -196t71 -174t78 -146.5t83 -129.5l-209 -133q-72 98 -129 194.5t-113 224.5t-87.5 279t-31.5 310z" />
    <glyph glyph-name="parenright" unicode=")" horiz-adv-x="677" 
d="M14 -213q49 73 83 129.5t78 146.5t71 174t46 196t19 229t-19 229t-46 195.5t-71 173.5t-78 146.5t-83 129.5l209 133q57 -77 103 -150t96 -174.5t84 -202t56 -226t22 -254.5q0 -159 -31.5 -310t-87.5 -279t-113 -224.5t-129 -194.5z" />
    <glyph glyph-name="asterisk" unicode="*" horiz-adv-x="5613" 
d="M12 1010h289l203 -574l198 574h224l194 -576l203 576h291l-379 -1010h-229l-193 565l-192 -565h-230zM1556 504q0 233 149.5 380.5t387.5 147.5q212 0 351.5 -145t140.5 -369q0 -64 -7 -112l-2 -11h-747q60 -188 270 -188q135 0 187 84h282l-2 -10
q-43 -139 -171.5 -222.5t-301.5 -83.5q-233 0 -385 149.5t-152 379.5zM1827 602h487q-19 95 -79 147t-154 52q-95 0 -162 -52.5t-92 -146.5zM2673 504v905h268v-455q122 78 287 78q137 0 253.5 -70.5t184.5 -192t68 -265.5q0 -109 -42 -207.5t-113.5 -169t-169.5 -111.5
t-206 -41q-234 0 -382 148.5t-148 380.5zM2941 504q0 -144 71.5 -218.5t190.5 -74.5q115 0 190.5 84.5t75.5 208.5q0 123 -80.5 208t-197.5 85q-157 0 -250 -125v-168zM3820 504q0 233 149 380.5t387 147.5q212 0 351.5 -145t140.5 -369q0 -64 -7 -112l-2 -11h-747
q60 -188 270 -188q135 0 187 84h282v-10q-44 -138 -174 -222t-301 -84q-233 0 -384.5 149.5t-151.5 379.5zM4090 602h485q-17 95 -77 147t-154 52q-95 0 -162 -52.5t-92 -146.5zM4948 0v848q86 75 242.5 130.5t369.5 55.5h15v-278h-15q-231 0 -344 -76v-680h-268z" />
    <glyph glyph-name="plus" unicode="+" horiz-adv-x="1019" 
d="M78 498v254h305v305h254v-305h305v-254h-305v-305h-254v305h-305z" />
    <glyph glyph-name="comma" unicode="," horiz-adv-x="542" 
d="M45 -385h262l107 584h-260z" />
    <glyph glyph-name="hyphen" unicode="-" horiz-adv-x="950" 
d="M152 487v252h649v-252h-649z" />
    <glyph glyph-name="period" unicode="." horiz-adv-x="421" 
d="M53 131q0 74 47 115t111 41q63 0 109.5 -41t46.5 -115q0 -73 -46.5 -114.5t-109.5 -41.5t-110.5 42t-47.5 114z" />
    <glyph glyph-name="slash" unicode="/" horiz-adv-x="1134" 
d="M53 -145l813 1738l215 -73l-817 -1739z" />
    <glyph glyph-name="zero" unicode="0" horiz-adv-x="1155" 
d="M27 643q0 103 20.5 199t64.5 182.5t107.5 151t156 102t202.5 37.5q111 0 203.5 -38t156 -102t107 -151t63.5 -183t20 -200q0 -102 -20 -197.5t-63.5 -181t-107 -149t-156 -101t-203.5 -37.5t-203 37t-155.5 100.5t-107.5 149.5t-64.5 182t-20.5 199zM319 637
q0 -84 13.5 -152t42.5 -123.5t80.5 -86.5t122.5 -31q258 0 258 393q0 412 -258 412q-71 0 -123 -32t-81 -90.5t-42 -129.5t-13 -160z" />
    <glyph glyph-name="one" unicode="1" horiz-adv-x="604" 
d="M39 1020v270h483v-1290h-295v1020h-188z" />
    <glyph glyph-name="two" unicode="2" horiz-adv-x="1204" 
d="M106 924q16 179 138 285t350 106q146 0 261 -47t185 -143.5t70 -229.5q0 -84 -30.5 -151t-80 -109t-113 -76t-130 -54.5t-130 -43t-113 -42.5t-80 -52.5t-30.5 -73.5v-23h682v-270h-976v240q0 86 24 155.5t65 115.5t94 83t111.5 61.5t117 45t111.5 40.5t94 42t65 53.5
t24 72.5q0 73 -53 116.5t-152 43.5q-94 0 -150.5 -40t-70.5 -105h-283z" />
    <glyph glyph-name="three" unicode="3" horiz-adv-x="1193" 
d="M33 373h268q18 -75 81 -112.5t185 -37.5q119 0 186.5 43t67.5 125q0 64 -64 105t-179 41h-207v223h198q103 0 158 43.5t55 116.5q0 68 -59 108.5t-164 40.5q-93 0 -146 -39.5t-67 -105.5h-280q4 81 36 150.5t91 124t151.5 85.5t208.5 31q144 0 261.5 -46t189 -138
t71.5 -213q0 -74 -47.5 -142t-126.5 -108q98 -34 153.5 -103.5t55.5 -171.5q0 -104 -44 -185.5t-120 -131.5t-173.5 -75.5t-209.5 -25.5q-125 0 -225.5 31.5t-164.5 87t-99.5 126.5t-40.5 153z" />
    <glyph glyph-name="four" unicode="4" horiz-adv-x="1183" 
d="M23 229v242l512 819h364l-502 -790h289v286h293v-286h129v-271h-129v-229h-293v229h-663z" />
    <glyph glyph-name="five" unicode="5" horiz-adv-x="1210" 
d="M84 373h268q18 -75 84 -115.5t158 -40.5q103 0 171.5 57t68.5 148q0 89 -64.5 145t-163.5 56q-66 0 -128 -27.5t-105 -79.5l-213 84l59 690h825v-270h-571l-29 -246q101 64 242 64q87 0 164.5 -26.5t139 -76t98 -128.5t36.5 -177q0 -93 -29 -169.5t-78.5 -128.5
t-115.5 -88t-138 -52.5t-149 -16.5q-125 0 -225.5 31.5t-164.5 87t-99.5 126.5t-40.5 153z" />
    <glyph glyph-name="six" unicode="6" horiz-adv-x="1304" 
d="M94 647q0 103 23.5 198t76 181.5t129.5 150t192.5 101t256.5 37.5q172 0 299 -43l-86 -250q-38 9 -111.5 18t-119.5 9q-152 0 -241.5 -74t-115.5 -205q175 84 344 84q217 0 353.5 -115t136.5 -303q0 -202 -143.5 -331.5t-382.5 -129.5q-193 0 -332 84.5t-209 235.5
t-70 352zM401 512q30 -133 111.5 -201.5t189.5 -68.5q111 0 173.5 52.5t62.5 131.5q0 82 -65.5 131t-172.5 49q-139 0 -299 -94z" />
    <glyph glyph-name="seven" unicode="7" horiz-adv-x="1112" 
d="M53 1020v270h1037v-256l-641 -1034h-355l633 1020h-674z" />
    <glyph glyph-name="eight" unicode="8" horiz-adv-x="1253" 
d="M84 385q0 98 50.5 176t125.5 107q-65 37 -103 109.5t-38 150.5t25.5 142t70.5 108.5t109 75t140 45t163 14.5t163 -14.5t140 -45t109 -75t70.5 -108.5t25.5 -142t-38 -150.5t-104 -109.5q74 -29 125 -107t51 -176q0 -70 -18.5 -128.5t-49.5 -99.5t-75.5 -73t-91.5 -51
t-102 -31.5t-104.5 -17t-100.5 -4.5q-61 0 -118.5 7t-121.5 23t-116.5 46.5t-95.5 73t-67 108.5t-24 147zM391 395q0 -73 60 -111t176 -38t176.5 38t60.5 111q0 70 -61.5 109t-175.5 39t-175 -39t-61 -109zM408 915q0 -62 59 -98.5t160 -36.5t160 36.5t59 98.5
q0 60 -59.5 97t-159.5 37t-159.5 -37t-59.5 -97z" />
    <glyph glyph-name="nine" unicode="9" horiz-adv-x="1304" 
d="M94 854q0 202 144 331.5t383 129.5q193 0 332 -84.5t208.5 -235.5t69.5 -352q0 -103 -23.5 -198t-76 -181.5t-129.5 -150t-192.5 -101t-256.5 -37.5q-172 0 -299 43l86 250q38 -9 111.5 -17.5t119.5 -8.5q152 0 241.5 73.5t115.5 204.5q-175 -84 -344 -84
q-217 0 -353.5 115t-136.5 303zM387 864q0 -82 65.5 -131t172.5 -49q135 0 299 94q-31 133 -113 202t-188 69q-111 0 -173.5 -53t-62.5 -132z" />
    <glyph glyph-name="colon" unicode=":" horiz-adv-x="421" 
d="M53 131q0 74 47 115t111 41q63 0 109.5 -41t46.5 -115q0 -73 -46.5 -114.5t-109.5 -41.5t-110.5 42t-47.5 114zM53 881q0 73 47 114t111 41t110 -40.5t46 -114.5q0 -73 -46.5 -114.5t-109.5 -41.5t-110.5 42t-47.5 114z" />
    <glyph glyph-name="semicolon" unicode=";" horiz-adv-x="569" 
d="M45 -385h262l107 584h-260zM127 881q0 73 47 114t111 41q63 0 109 -40.5t46 -114.5q0 -73 -46 -114.5t-109 -41.5t-110.5 42t-47.5 114z" />
    <glyph glyph-name="less" unicode="&#x3c;" horiz-adv-x="1019" 
d="M78 516v217l864 303v-254l-551 -157l551 -158v-252z" />
    <glyph glyph-name="equal" unicode="=" horiz-adv-x="1019" 
d="M78 262v254h864v-254h-864zM78 733v254h864v-254h-864z" />
    <glyph glyph-name="greater" unicode="&#x3e;" horiz-adv-x="1019" 
d="M78 215v252l551 158l-551 157v254l864 -303v-217z" />
    <glyph glyph-name="question" unicode="?" horiz-adv-x="1187" 
d="M68 924q16 177 145.5 284t355.5 107q228 0 375.5 -109.5t147.5 -296.5q0 -78 -23.5 -136t-61 -91.5t-83 -58t-91 -43t-83 -39.5t-61 -54t-23.5 -79v-46l-295 -2v52q0 84 23.5 144.5t61.5 93.5t83.5 55t91 37t83.5 32t61.5 47t23.5 74q0 77 -62.5 125.5t-158.5 48.5
q-101 0 -157.5 -39.5t-70.5 -105.5h-282zM360 131q0 74 47 115t111 41q63 0 109.5 -41t46.5 -115q0 -73 -46.5 -114.5t-109.5 -41.5t-110.5 42t-47.5 114z" />
    <glyph glyph-name="at" unicode="@" horiz-adv-x="1492" 
d="M74 348q0 197 84 353t237 244.5t348 88.5q205 0 359.5 -80.5t235.5 -220t81 -317.5q0 -208 -89 -324.5t-238 -116.5q-133 0 -191 113q-42 -52 -97 -82.5t-112 -30.5q-43 0 -82 11t-79 38.5t-69 69.5t-47 110t-18 154q0 82 23 148.5t58.5 108t82 69t91 38.5t87.5 11
q163 0 308 -82v-405q0 -105 71 -105q60 0 99.5 75.5t39.5 199.5q0 216 -139 340.5t-375 124.5q-219 0 -363 -149.5t-144 -383.5q0 -132 40 -234.5t112.5 -166t167.5 -95.5t210 -32q175 0 352 76l51 -144q-192 -84 -409 -84q-115 0 -216.5 25.5t-188 79.5t-149 133t-97.5 192
t-35 250zM616 360q0 -102 31 -148t78 -46q64 0 109 65v291q-48 25 -99 25q-46 0 -82.5 -47t-36.5 -140z" />
    <glyph glyph-name="A" unicode="A" horiz-adv-x="1400" 
d="M4 0l531 1290l335 -2l527 -1288h-320l-96 236h-563l-86 -236h-328zM516 506h356l-188 465z" />
    <glyph glyph-name="B" unicode="B" horiz-adv-x="1150" 
d="M82 0v1290h596q111 0 197.5 -30t137.5 -81t77 -112t26 -129q0 -81 -55 -156t-152 -110q109 -41 175.5 -119t66.5 -188q0 -175 -130.5 -270t-346.5 -95h-592zM375 262h321q82 0 124 37.5t42 95.5q0 57 -45.5 96t-124.5 39h-317v-268zM375 770h307q68 0 105.5 38.5
t37.5 92.5q0 53 -37.5 90t-105.5 37h-307v-258z" />
    <glyph glyph-name="C" unicode="C" horiz-adv-x="1259" 
d="M27 643q0 307 174 489.5t483 182.5q237 0 392 -116.5t161 -278.5h-332q-23 56 -78 93.5t-143 37.5q-173 0 -269 -113.5t-96 -300.5q0 -177 96 -286t269 -109q89 0 147 37.5t80 93.5h332q-6 -162 -164.5 -280t-394.5 -118q-309 0 -483 182t-174 486z" />
    <glyph glyph-name="D" unicode="D" horiz-adv-x="1282" 
d="M82 0v1290h473q137 0 253 -34.5t197.5 -94.5t138.5 -141t84 -173t27 -192t-26 -194t-82.5 -178t-137 -147t-197.5 -99.5t-257 -36.5h-473zM375 270h180q106 0 186 30.5t127 84.5t70 120.5t23 145.5q0 76 -24.5 141.5t-72.5 117t-127.5 81t-181.5 29.5h-180v-750z" />
    <glyph glyph-name="E" unicode="E" horiz-adv-x="1083" 
d="M82 401v889h905v-270h-612v-240h571v-270h-571v-94q0 -146 168 -146h454v-270h-491q-199 0 -311.5 100t-112.5 301z" />
    <glyph glyph-name="F" unicode="F" horiz-adv-x="976" 
d="M82 0v913q0 176 101 276.5t290 100.5h459v-270h-436q-64 0 -92.5 -29.5t-28.5 -87.5v-176h516v-270h-516v-457h-293z" />
    <glyph glyph-name="G" unicode="G" horiz-adv-x="1327" 
d="M27 643q0 307 174 489.5t483 182.5q236 0 391.5 -116.5t161.5 -278.5h-332q-23 56 -78 93.5t-143 37.5q-173 0 -269 -113.5t-96 -300.5q0 -177 96 -286t269 -109q172 0 266 69v174h-258v226h561v-533q-90 -93 -235 -148t-334 -55q-309 0 -483 182t-174 486z" />
    <glyph glyph-name="H" unicode="H" horiz-adv-x="1368" 
d="M82 0v1290h293v-520h618v520h293v-1290h-293v500h-618v-500h-293z" />
    <glyph glyph-name="I" unicode="I" horiz-adv-x="456" 
d="M82 0v1290h293v-1290h-293z" />
    <glyph glyph-name="J" unicode="J" horiz-adv-x="831" 
d="M53 -25v267q111 0 192 28t126 77t65.5 107t20.5 126v440h-357v270h650v-710q0 -103 -26.5 -193t-82 -166t-136.5 -130.5t-196.5 -85t-255.5 -30.5z" />
    <glyph glyph-name="K" unicode="K" horiz-adv-x="1200" 
d="M82 0v1290h293v-499l434 499h360l-487 -536l545 -754h-361l-381 537l-110 -121v-416h-293z" />
    <glyph glyph-name="L" unicode="L" horiz-adv-x="976" 
d="M82 391v899h293v-884q0 -136 141 -136h438v-270h-473q-185 0 -292 98t-107 293z" />
    <glyph glyph-name="M" unicode="M" horiz-adv-x="1583" 
d="M82 0v1290h305l406 -616l403 616h305v-1290h-293v831l-307 -485h-219l-307 485v-831h-293z" />
    <glyph glyph-name="N" unicode="N" horiz-adv-x="1339" 
d="M82 0v1290h254l629 -747v747h292v-1290h-227l-655 784v-784h-293z" />
    <glyph glyph-name="O" unicode="O" horiz-adv-x="1396" 
d="M27 643q0 307 178 489.5t493 182.5t493.5 -183.5t178.5 -490.5q0 -302 -178.5 -484t-493.5 -182t-493 182t-178 486zM322 637q0 -177 99.5 -286t278.5 -109t279 109.5t100 285.5q0 186 -100 300t-279 114t-278.5 -113.5t-99.5 -300.5z" />
    <glyph glyph-name="P" unicode="P" horiz-adv-x="1161" 
d="M82 0v913q0 176 101 276.5t290 100.5h170q95 0 176.5 -26.5t138 -71.5t97 -105.5t59.5 -128t19 -139.5t-19 -140.5t-59.5 -129t-97 -105.5t-137.5 -71.5t-177 -26.5h-268v-346h-293zM375 616h262q101 0 157 60t56 143q0 82 -56 141.5t-157 59.5h-141q-64 0 -92.5 -29.5
t-28.5 -87.5v-287z" />
    <glyph glyph-name="Q" unicode="Q" horiz-adv-x="1396" 
d="M27 643q0 307 178 489.5t493 182.5t493.5 -183.5t178.5 -490.5q0 -318 -194 -500l210 -319l-223 -121l-205 313q-122 -39 -260 -39q-315 0 -493 182t-178 486zM322 637q0 -177 99.5 -286t278.5 -109q49 0 101 10l-94 145l223 121l82 -125q67 98 67 244q0 186 -100 300
t-279 114t-278.5 -113.5t-99.5 -300.5z" />
    <glyph glyph-name="R" unicode="R" horiz-adv-x="1165" 
d="M82 0v913q0 176 101 276.5t290 100.5h123q120 0 217 -40t157 -107t92 -150t32 -172q0 -118 -52.5 -221.5t-152.5 -169.5l262 -430h-336l-197 350h-22h-221v-350h-293zM375 621h215q106 0 164.5 59t58.5 141q0 80 -58.5 139.5t-164.5 59.5h-94q-64 0 -92.5 -29.5
t-28.5 -87.5v-282z" />
    <glyph glyph-name="S" unicode="S" horiz-adv-x="1118" 
d="M8 373h268q17 -73 90 -111.5t193 -38.5q118 0 178 34t60 110q0 32 -26 54.5t-70 37t-101 26t-120 25t-126 31.5t-120 48.5t-101 71t-70 105t-26 145.5q0 125 69 217.5t188 139.5t271 47q229 0 357.5 -108t144.5 -283h-283q-14 66 -70.5 105.5t-156.5 39.5
q-101 0 -157 -37t-56 -108q0 -43 32.5 -73.5t86.5 -47t122.5 -34t139.5 -32.5t139.5 -43.5t122.5 -66t86.5 -101t32.5 -147.5q0 -190 -145 -297t-406 -107q-246 0 -386 108.5t-161 289.5z" />
    <glyph glyph-name="T" unicode="T" horiz-adv-x="1198" 
d="M25 1020v270h1146v-270h-426v-1020h-294v1020h-426z" />
    <glyph glyph-name="U" unicode="U" horiz-adv-x="1363" 
d="M82 582v708h293v-708q0 -162 81 -251t236 -89q153 0 224 91t71 249v708h295v-708q0 -303 -156.5 -455t-433.5 -152q-130 0 -239 37t-193 110t-131 190.5t-47 269.5z" />
    <glyph glyph-name="V" unicode="V" horiz-adv-x="1425" 
d="M33 1290h334l358 -884l344 884h324l-543 -1290h-275z" />
    <glyph glyph-name="W" unicode="W" horiz-adv-x="2058" 
d="M23 1290h335l242 -841l291 841l272 2l301 -843l234 841h336l-437 -1290h-266l-309 864l-307 -864h-266z" />
    <glyph glyph-name="X" unicode="X" horiz-adv-x="1320" 
d="M10 0l453 645l-451 645h355l295 -442l290 442h340l-446 -643l469 -647h-361l-307 432l-285 -432h-352z" />
    <glyph glyph-name="Y" unicode="Y" horiz-adv-x="1337" 
d="M-10 1290h348l326 -514l325 514h359l-547 -776v-514h-293v514z" />
    <glyph glyph-name="Z" unicode="Z" horiz-adv-x="1114" 
d="M20 0v248l668 772h-665v270h1040v-250l-668 -770h699v-270h-1074z" />
    <glyph glyph-name="bracketleft" unicode="[" horiz-adv-x="571" 
d="M94 -326v1975h465v-179h-209v-1617h209v-179h-465z" />
    <glyph glyph-name="backslash" unicode="\" horiz-adv-x="1134" 
d="M53 1520l215 73l813 -1738l-211 -74z" />
    <glyph glyph-name="bracketright" unicode="]" horiz-adv-x="571" 
d="M12 -147h209v1617h-209v179h465v-1975h-465v179z" />
    <glyph glyph-name="asciicircum" unicode="^" horiz-adv-x="1165" 
d="M33 563l461 727h157l479 -727h-296l-261 438l-262 -438h-278z" />
    <glyph glyph-name="underscore" unicode="_" horiz-adv-x="1255" 
d="M55 0h1143v-221h-1143v221z" />
    <glyph glyph-name="grave" unicode="`" horiz-adv-x="1024" 
d="M221 1272l82 207l500 -205l-66 -168z" />
    <glyph glyph-name="a" unicode="a" horiz-adv-x="1103" 
d="M16 455q0 119 34 217t92.5 164.5t138 111.5t168.5 65.5t186 20.5q203 0 397 -88v-946h-270v98q-59 -56 -133 -89.5t-187 -33.5q-89 0 -166 31t-135.5 90t-91.5 151.5t-33 207.5zM289 467q0 -115 55.5 -185.5t159.5 -70.5q82 0 150 51.5t110 118.5v377q-85 28 -166 28
q-99 0 -171 -47t-105 -118t-33 -154z" />
    <glyph glyph-name="b" unicode="b" horiz-adv-x="1159" 
d="M72 496v907h270v-449q141 80 293 80q99 0 188.5 -33.5t161.5 -97t115 -167t43 -232.5q0 -230 -146.5 -379.5t-390.5 -149.5t-389 145.5t-145 375.5zM342 485q0 -122 70.5 -192t193.5 -70q121 0 192.5 79t71.5 202q0 133 -81 205.5t-197 72.5q-140 0 -250 -96v-201z" />
    <glyph glyph-name="c" unicode="c" horiz-adv-x="1030" 
d="M16 504q0 234 147 382t374 148q178 0 306.5 -99t151.5 -253h-280q-18 48 -64 77t-114 29q-121 0 -185.5 -77t-64.5 -207q0 -133 70 -207t188 -74q65 0 112 26.5t66 72.5h281q-25 -154 -156 -250.5t-311 -96.5q-146 0 -262.5 59.5t-187.5 181t-71 288.5z" />
    <glyph glyph-name="d" unicode="d" horiz-adv-x="1118" 
d="M16 504q0 124 40.5 226.5t109 167.5t155 100.5t181.5 35.5q139 0 274 -80v449h271v-907q0 -234 -134.5 -377.5t-377.5 -143.5q-163 0 -282 70t-178 188.5t-59 270.5zM289 504q0 -126 63.5 -203.5t184.5 -77.5q120 0 179.5 68t59.5 192v203q-101 98 -231 98
q-108 0 -182 -73.5t-74 -206.5z" />
    <glyph glyph-name="e" unicode="e" horiz-adv-x="1097" 
d="M16 514q0 150 69 269.5t187 185t263 65.5q242 0 382 -149t140 -402q0 -48 -2 -73h-752q26 -94 95 -145.5t169 -51.5q154 0 203 82h281q-28 -152 -158.5 -236t-314.5 -84q-248 0 -405 148.5t-157 390.5zM295 616h487q-10 91 -71.5 150t-165.5 59q-97 0 -162.5 -54
t-87.5 -155z" />
    <glyph glyph-name="f" unicode="f" horiz-adv-x="645" 
d="M72 0v1055q0 109 34.5 190t94.5 127t134 68t161 22q130 0 264 -43l-17 -229q-119 39 -215 39q-184 0 -184 -156v-63h279v-228h-279v-782h-272z" />
    <glyph glyph-name="g" unicode="g" horiz-adv-x="1124" 
d="M16 506q0 233 136 380.5t378 147.5q241 0 379 -140t138 -370v-463q0 -209 -152.5 -340t-386.5 -131q-126 0 -211 30t-180 89l114 217q138 -90 277 -90q116 0 192 54.5t76 148.5v37q-139 -82 -287 -82q-94 0 -178 33t-150.5 95.5t-105.5 161.5t-39 222zM289 506
q0 -132 74.5 -206.5t181.5 -74.5q129 0 231 99v211q0 122 -62.5 187.5t-183.5 65.5q-119 0 -180 -77.5t-61 -204.5z" />
    <glyph glyph-name="h" unicode="h" horiz-adv-x="1136" 
d="M72 0v1403h270v-445q128 76 293 76q66 0 126.5 -13.5t116.5 -45.5t97 -78.5t65.5 -118t24.5 -160.5v-618h-272v586q0 92 -62 137t-158 45q-118 0 -231 -63v-705h-270z" />
    <glyph glyph-name="i" unicode="i" 
d="M49 1343q0 74 47 115t111 41q63 0 109 -41t46 -115q0 -72 -46 -112.5t-109 -40.5q-64 0 -111 40.5t-47 112.5zM72 0v1010h270v-1010h-270z" />
    <glyph glyph-name="j" unicode="j" horiz-adv-x="460" 
d="M-86 -158q60 0 97.5 12.5t57 40t26.5 61t7 87.5v967h271v-967q0 -233 -107.5 -343t-351.5 -110v252zM80 1343q0 74 47 115t111 41q63 0 109 -41t46 -115q0 -72 -46 -112.5t-109 -40.5q-64 0 -111 40.5t-47 112.5z" />
    <glyph glyph-name="k" unicode="k" horiz-adv-x="1019" 
d="M72 0v1403h270v-739l309 346h373l-412 -426l443 -584h-344l-287 387l-82 -84v-303h-270z" />
    <glyph glyph-name="l" unicode="l" 
d="M72 0v1403h270v-1403h-270z" />
    <glyph glyph-name="m" unicode="m" horiz-adv-x="1835" 
d="M72 0v940q277 94 479 94q223 0 350 -102q195 102 397 102q95 0 175.5 -25.5t147 -79.5t104.5 -148t38 -220v-561h-270v561q0 97 -62 146t-163 49q-112 0 -230 -56q15 -61 15 -139v-561h-273v561q0 195 -213 195q-101 0 -227 -35v-721h-268z" />
    <glyph glyph-name="n" unicode="n" horiz-adv-x="1124" 
d="M72 0v934q291 100 506 100q103 0 185.5 -24t149.5 -76.5t103.5 -146t36.5 -222.5v-565h-273v565q0 193 -215 193q-95 0 -225 -37v-721h-268z" />
    <glyph glyph-name="o" unicode="o" horiz-adv-x="1079" 
d="M16 504q0 151 62 270.5t182.5 189.5t280.5 70q239 0 380.5 -149.5t141.5 -380.5q0 -152 -60 -270.5t-179.5 -188.5t-282.5 -70q-244 0 -384.5 148.5t-140.5 380.5zM287 504q0 -125 66 -203t188 -78t187 78t65 203q0 126 -65.5 205t-186.5 79q-122 0 -188 -79.5
t-66 -204.5z" />
    <glyph glyph-name="p" unicode="p" horiz-adv-x="1118" 
d="M72 -385v903q0 231 137 373.5t381 142.5q121 0 218.5 -40t161.5 -111t98 -167.5t34 -209.5q0 -124 -40.5 -226.5t-109 -168t-155 -101t-181.5 -35.5q-139 0 -274 80v-440h-270zM342 324q102 -99 231 -99q107 0 181.5 74.5t74.5 206.5q0 127 -60.5 204.5t-178.5 77.5
q-122 0 -185 -68.5t-63 -191.5v-204z" />
    <glyph glyph-name="q" unicode="q" horiz-adv-x="1118" 
d="M16 506q0 233 136 380.5t378 147.5q245 0 381 -139.5t136 -368.5v-911h-271v440q-135 -80 -274 -80q-95 0 -181.5 35.5t-155 101t-109 168t-40.5 226.5zM287 506q0 -132 74.5 -206.5t183.5 -74.5q129 0 231 99v213q0 119 -62.5 185t-183.5 66q-120 0 -181.5 -77.5
t-61.5 -204.5z" />
    <glyph glyph-name="r" unicode="r" horiz-adv-x="778" 
d="M72 0v850q312 184 667 184v-270q-248 0 -399 -90v-674h-268z" />
    <glyph glyph-name="s" unicode="s" horiz-adv-x="966" 
d="M20 299h267q9 -49 58 -77.5t134 -28.5q91 0 146 26t55 70q0 28 -35.5 47t-92 31t-125 25t-137.5 35.5t-125.5 54.5t-92 89.5t-35.5 135.5q0 152 128 239.5t331 87.5q218 0 328 -88.5t118 -238.5h-280q-8 48 -54.5 79t-118.5 31q-78 0 -124 -25.5t-46 -72.5
q0 -29 28 -49.5t73.5 -32t103.5 -25t119 -25.5t119 -35.5t103.5 -54t73.5 -82t28 -118.5q0 -105 -67.5 -179t-174 -108.5t-240.5 -34.5q-221 0 -337 84.5t-128 239.5z" />
    <glyph glyph-name="t" unicode="t" horiz-adv-x="710" 
d="M61 344v946h275v-280h305v-230h-309v-405q0 -156 192 -156q64 0 144 17v-232q-119 -29 -213 -29q-177 0 -285.5 92t-108.5 277z" />
    <glyph glyph-name="u" unicode="u" horiz-adv-x="1069" 
d="M51 451v559h271v-566q0 -219 213 -219t213 219v566h270v-559q0 -240 -130.5 -358t-352.5 -118t-353 118t-131 358z" />
    <glyph glyph-name="v" unicode="v" horiz-adv-x="1136" 
d="M-16 1010h295l303 -719l286 719h283l-442 -1010h-281z" />
    <glyph glyph-name="w" unicode="w" horiz-adv-x="1642" 
d="M12 1010h310l194 -600l193 600h223l190 -600l199 600h309l-377 -1010h-241l-193 592l-188 -592h-242z" />
    <glyph glyph-name="x" unicode="x" horiz-adv-x="1036" 
d="M-23 0l365 514l-352 496h323l215 -318l213 318h312l-357 -488l363 -522h-328l-215 315l-217 -315h-322z" />
    <glyph glyph-name="y" unicode="y" horiz-adv-x="1101" 
d="M51 -272l137 211q127 -103 299 -103q113 0 193 62t80 157v54q-114 -103 -301 -103q-65 0 -121.5 12t-109.5 42.5t-90.5 77.5t-60 121.5t-22.5 170.5v580h273v-521q0 -123 44.5 -178t155.5 -55q147 0 232 139v615h270v-949q0 -138 -70.5 -246t-194 -166.5t-278.5 -58.5
q-248 0 -436 138z" />
    <glyph glyph-name="z" unicode="z" horiz-adv-x="1024" 
d="M82 0v219l479 553h-465v238h834v-234l-492 -538h504v-238h-860z" />
    <glyph glyph-name="braceleft" unicode="{" horiz-adv-x="700" 
d="M43 573v230q147 24 147 194v451q0 76 19 134t52 94.5t82.5 60t105 32.5t124.5 9l-2 -228q-78 0 -107.5 -26t-29.5 -99v-450q0 -235 -180 -287q180 -52 180 -289v-450q0 -71 29.5 -97t107.5 -26l2 -229q-87 0 -153 15.5t-120 52t-82 102.5t-28 161v451q0 170 -147 194z
" />
    <glyph glyph-name="bar" unicode="|" horiz-adv-x="522" 
d="M154 -512v2048h215v-2048h-215z" />
    <glyph glyph-name="braceright" unicode="}" horiz-adv-x="700" 
d="M127 -403l2 229q78 0 107.5 26t29.5 97v450q0 237 180 289q-180 52 -180 287v450q0 73 -29.5 99t-107.5 26l-2 228q69 0 124.5 -9t105 -32.5t82.5 -60t52 -94.5t19 -134v-451q0 -170 147 -194v-230q-147 -24 -147 -194v-451q0 -95 -28 -161t-82 -102.5t-120 -52
t-153 -15.5z" />
    <glyph glyph-name="asciitilde" unicode="~" horiz-adv-x="1021" 
d="M39 475q41 107 114 177.5t183 70.5q55 0 127 -26.5t135 -53.5t98 -27q66 0 88 101l197 -64q-21 -114 -93.5 -195t-170.5 -81q-68 0 -137.5 27t-130 54t-107.5 27q-27 0 -50 -16t-35.5 -33.5t-31.5 -48.5z" />
    <glyph glyph-name="uni00A0" unicode="&#xa0;" horiz-adv-x="450" 
 />
    <glyph glyph-name="exclamdown" unicode="&#xa1;" horiz-adv-x="589" 
d="M137 879q0 72 46.5 113.5t109.5 41.5t110.5 -41.5t47.5 -113.5q0 -74 -47 -115t-111 -41q-63 0 -109.5 41t-46.5 115zM147 -281v930h293v-930h-293z" />
    <glyph glyph-name="cent" unicode="&#xa2;" horiz-adv-x="1030" 
d="M16 647q0 210 121.5 353t315.5 171v232h249v-252q118 -37 197 -124t96 -202h-280q-18 48 -64 77.5t-114 29.5q-121 0 -185.5 -77.5t-64.5 -207.5q0 -133 70 -206.5t188 -73.5q66 0 112.5 26t65.5 72h281q-18 -115 -100 -200.5t-202 -121.5v-245h-249v227
q-194 26 -315.5 162t-121.5 360z" />
    <glyph glyph-name="sterling" unicode="&#xa3;" horiz-adv-x="1126" 
d="M74 508v219h131q-23 71 -23 135q0 209 121 331t334 122q87 0 157.5 -17.5t122.5 -51.5t83 -63t67 -71l-203 -184q-40 55 -90.5 88t-126.5 33q-72 0 -122 -51t-50 -132q0 -53 23 -139h352v-219h-287q0 -7 1 -21.5t1 -21.5q0 -50 -22 -104.5t-58 -92.5h578v-268h-983l4 217
q79 31 134.5 96.5t55.5 139.5q0 19 -4 55h-196z" />
    <glyph glyph-name="yen" unicode="&#xa5;" horiz-adv-x="1339" 
d="M53 1290h353l258 -465l268 465h352l-453 -651h248v-180h-272v-92h272v-179h-272v-188h-293v188h-248v179h248v92h-248v180h226z" />
    <glyph glyph-name="dieresis" unicode="&#xa8;" horiz-adv-x="1024" 
d="M176 1276q0 62 40 97.5t95 35.5q54 0 93.5 -35.5t39.5 -97.5q0 -61 -40 -96t-93 -35q-55 0 -95 35t-40 96zM580 1276q0 62 40 97.5t95 35.5q54 0 93.5 -35.5t39.5 -97.5q0 -61 -40 -96t-93 -35q-55 0 -95 35t-40 96z" />
    <glyph glyph-name="copyright" unicode="&#xa9;" horiz-adv-x="1521" 
d="M94 641q0 139 44.5 260.5t127 214t210.5 146t284 53.5t283 -53.5t210 -146t127.5 -214.5t44.5 -260t-44.5 -258.5t-127.5 -211.5t-210 -143.5t-283 -52.5q-126 0 -233.5 34t-186.5 95.5t-134.5 144.5t-83.5 182.5t-28 209.5zM244 641q0 -151 58.5 -268.5t176.5 -186.5
t281 -69q164 0 282.5 69t177 186.5t58.5 268.5q0 236 -136.5 384.5t-381.5 148.5q-163 0 -281 -70t-176.5 -189.5t-58.5 -273.5zM383 641q0 170 107 278.5t272 108.5q131 0 226 -74.5t110 -187.5h-209q-13 35 -45.5 56.5t-81.5 21.5q-86 0 -132 -55.5t-46 -147.5
q0 -94 50 -146.5t134 -52.5q98 0 127 70h209q-19 -111 -115 -182.5t-227 -71.5q-162 0 -270.5 102t-108.5 281z" />
    <glyph glyph-name="guillemotleft" unicode="&#xab;" horiz-adv-x="1062" 
d="M53 575v25l309 416l170 -109l-237 -319l237 -318l-170 -110zM489 575v25l310 416l170 -109l-238 -319l238 -318l-170 -110z" />
    <glyph glyph-name="uni00AD" unicode="&#xad;" horiz-adv-x="950" 
d="M152 487v252h649v-252h-649z" />
    <glyph glyph-name="registered" unicode="&#xae;" horiz-adv-x="737" 
d="M61 1006q0 131 82.5 220t225.5 89t225 -88.5t82 -220.5q0 -133 -82 -220.5t-225 -87.5t-225.5 88t-82.5 220zM131 1006q0 -106 63 -173t175 -67t174.5 67t62.5 173t-62.5 173.5t-174.5 67.5t-175 -67.5t-63 -173.5zM242 854v231q0 46 26 71.5t76 25.5h31q65 0 99.5 -42.5
t27.5 -95t-49 -81.5l71 -109h-100l-49 86h-51v-86h-82zM322 1016h51q33 0 46.5 22.5t0 45t-46.5 22.5h-23q-28 0 -28 -25v-65z" />
    <glyph glyph-name="acute" unicode="&#xb4;" horiz-adv-x="1024" 
d="M215 1274l500 205l82 -207l-516 -166z" />
    <glyph glyph-name="cedilla" unicode="&#xb8;" horiz-adv-x="1024" 
d="M276 -461l64 133q2 -1 13 -7t14 -7t13 -6t15 -6.5t14.5 -4.5t17 -4.5t17 -2.5t19.5 -1q45 0 72.5 23t27.5 57t-23.5 54t-60.5 18h-51l-57 82l41 133h159l-32 -115q99 0 154 -52.5t55 -125.5q0 -84 -73 -147.5t-204 -63.5q-115 0 -195 43z" />
    <glyph glyph-name="guillemotright" unicode="&#xbb;" horiz-adv-x="1062" 
d="M94 270l238 318l-238 319l170 109l309 -416v-25l-309 -415zM530 270l238 318l-238 319l170 109l310 -416v-25l-310 -415z" />
    <glyph glyph-name="questiondown" unicode="&#xbf;" horiz-adv-x="1187" 
d="M96 100q0 78 23.5 136t61 91.5t83 58.5t91 43.5t83 39t61 54t23.5 79.5v45l295 2v-51q0 -84 -23.5 -144.5t-61.5 -93.5t-83.5 -55t-91 -37t-83.5 -32t-61.5 -47t-23.5 -74q0 -77 62.5 -125.5t158.5 -48.5q101 0 157.5 39.5t70.5 105.5h282q-16 -176 -146 -283.5
t-356 -107.5q-228 0 -375 109t-147 296zM514 879q0 72 46.5 113.5t109.5 41.5t110 -41.5t47 -113.5q0 -74 -46.5 -115t-110.5 -41q-63 0 -109.5 41t-46.5 115z" />
    <glyph glyph-name="Agrave" unicode="&#xc0;" horiz-adv-x="1400" 
d="M4 0l531 1290l335 -2l527 -1288h-320l-96 236h-563l-86 -236h-328zM395 1552l82 207l500 -205l-66 -168zM516 506h356l-188 465z" />
    <glyph glyph-name="Aacute" unicode="&#xc1;" horiz-adv-x="1400" 
d="M4 0l531 1290l335 -2l527 -1288h-320l-96 236h-563l-86 -236h-328zM416 1552l499 205l82 -207l-516 -166zM516 506h356l-188 465z" />
    <glyph glyph-name="Acircumflex" unicode="&#xc2;" horiz-adv-x="1400" 
d="M4 0l531 1290l335 -2l527 -1288h-320l-96 236h-563l-86 -236h-328zM342 1507l285 254h151l285 -254l-125 -118l-236 178l-235 -178zM516 506h356l-188 465z" />
    <glyph glyph-name="Atilde" unicode="&#xc3;" horiz-adv-x="1400" 
d="M4 0l531 1290l335 -2l527 -1288h-320l-96 236h-563l-86 -236h-328zM295 1468q21 71 85 139t144 68q56 0 165 -30.5t149 -30.5q44 0 69.5 22.5t44.5 67.5l158 -49q-71 -240 -264 -240q-65 0 -160.5 29t-128.5 29q-64 0 -96 -84zM516 506h356l-188 465z" />
    <glyph glyph-name="Adieresis" unicode="&#xc4;" horiz-adv-x="1400" 
d="M4 0l531 1290l335 -2l527 -1288h-320l-96 236h-563l-86 -236h-328zM367 1556q0 63 40 98.5t95 35.5q53 0 93 -36t40 -98q0 -61 -40 -96t-93 -35q-55 0 -95 35t-40 96zM516 506h356l-188 465zM770 1556q0 63 40 98.5t95 35.5q53 0 93 -36t40 -98q0 -61 -40 -96t-93 -35
q-55 0 -95 35t-40 96z" />
    <glyph glyph-name="Aring" unicode="&#xc5;" horiz-adv-x="1400" 
d="M4 0l531 1290l335 -2l527 -1288h-320l-96 236h-563l-86 -236h-328zM502 1554q0 89 58.5 137t141.5 48t142 -48t59 -137t-59 -137.5t-142 -48.5t-141.5 48.5t-58.5 137.5zM516 506h356l-188 465zM616 1554q0 -34 22.5 -54.5t63.5 -20.5q39 0 61.5 20.5t22.5 54.5
q0 33 -22.5 53.5t-61.5 20.5q-40 0 -63 -20.5t-23 -53.5z" />
    <glyph glyph-name="AE" unicode="&#xc6;" horiz-adv-x="1939" 
d="M4 0l799 1290h1040v-270h-612v-252h569v-270h-569v-82q0 -146 166 -146h456v-270h-491q-195 0 -307.5 96t-116.5 289h-352l-215 -385h-367zM737 655h201v357z" />
    <glyph glyph-name="Ccedilla" unicode="&#xc7;" horiz-adv-x="1259" 
d="M27 643q0 307 174 489.5t483 182.5q237 0 392 -116.5t161 -278.5h-332q-23 56 -78 93.5t-143 37.5q-173 0 -269 -113.5t-96 -300.5q0 -177 96 -286t269 -109q89 0 147 37.5t80 93.5h332q-6 -153 -150.5 -268.5t-363.5 -127.5l-27 -92q99 0 154 -52.5t55 -125.5
q0 -84 -72.5 -147.5t-203.5 -63.5q-115 0 -195 43l64 133q2 -1 13 -7t14 -7t13 -6t15 -6.5t14.5 -4.5t17 -4.5t17 -2.5t19.5 -1q45 0 72.5 23t27.5 57t-23.5 54t-60.5 18h-51l-57 82l34 115q-257 33 -399.5 210t-142.5 451z" />
    <glyph glyph-name="Egrave" unicode="&#xc8;" horiz-adv-x="1083" 
d="M82 401v889h905v-270h-612v-240h571v-270h-571v-94q0 -146 168 -146h454v-270h-491q-199 0 -311.5 100t-112.5 301zM231 1552l82 207l500 -205l-65 -168z" />
    <glyph glyph-name="Eacute" unicode="&#xc9;" horiz-adv-x="1083" 
d="M82 401v889h905v-270h-612v-240h571v-270h-571v-94q0 -146 168 -146h454v-270h-491q-199 0 -311.5 100t-112.5 301zM252 1552l500 205l82 -207l-517 -166z" />
    <glyph glyph-name="Ecircumflex" unicode="&#xca;" horiz-adv-x="1083" 
d="M82 401v889h905v-270h-612v-240h571v-270h-571v-94q0 -146 168 -146h454v-270h-491q-199 0 -311.5 100t-112.5 301zM178 1507l285 254h151l285 -254l-125 -118l-235 178l-236 -178z" />
    <glyph glyph-name="Edieresis" unicode="&#xcb;" horiz-adv-x="1083" 
d="M82 401v889h905v-270h-612v-240h571v-270h-571v-94q0 -146 168 -146h454v-270h-491q-199 0 -311.5 100t-112.5 301zM203 1556q0 63 40 98.5t95 35.5q53 0 93 -36t40 -98q0 -61 -40 -96t-93 -35q-55 0 -95 35t-40 96zM606 1556q0 63 40 98.5t95 35.5q53 0 93 -36t40 -98
q0 -61 -40 -96t-93 -35q-55 0 -95 35t-40 96z" />
    <glyph glyph-name="Igrave" unicode="&#xcc;" horiz-adv-x="456" 
d="M-78 1552l82 207l500 -205l-66 -168zM82 0v1290h293v-1290h-293z" />
    <glyph glyph-name="Iacute" unicode="&#xcd;" horiz-adv-x="456" 
d="M-57 1552l499 205l82 -207l-516 -166zM82 0v1290h293v-1290h-293z" />
    <glyph glyph-name="Icircumflex" unicode="&#xce;" horiz-adv-x="456" 
d="M-131 1507l285 254h151l285 -254l-125 -118l-236 178l-235 -178zM82 0v1290h293v-1290h-293z" />
    <glyph glyph-name="Idieresis" unicode="&#xcf;" horiz-adv-x="456" 
d="M-106 1556q0 63 40 98.5t95 35.5q53 0 93 -36t40 -98q0 -61 -40 -96t-93 -35q-55 0 -95 35t-40 96zM82 0v1290h293v-1290h-293zM297 1556q0 63 40 98.5t95 35.5q53 0 93 -36t40 -98q0 -61 -40 -96t-93 -35q-55 0 -95 35t-40 96z" />
    <glyph glyph-name="Eth" unicode="&#xd0;" horiz-adv-x="1361" 
d="M-23 541v204h105v545h473q137 0 253 -34.5t197.5 -94.5t138.5 -141t84 -173t27 -192t-26 -194t-82.5 -178t-137 -147t-197.5 -99.5t-257 -36.5h-473v541h-105zM375 270h180q106 0 186 30.5t127 84.5t70 120.5t23 145.5q0 76 -24.5 141.5t-72.5 117t-127.5 81t-181.5 29.5
h-180v-275h297v-204h-297v-271z" />
    <glyph glyph-name="Ntilde" unicode="&#xd1;" horiz-adv-x="1339" 
d="M82 0v1290h254l629 -747v747h292v-1290h-227l-655 784v-784h-293zM262 1468q21 71 85.5 139t144.5 68q56 0 164 -30.5t149 -30.5q44 0 70 22.5t45 67.5l157 -49q-71 -240 -264 -240q-65 0 -160.5 29t-128.5 29q-64 0 -96 -84z" />
    <glyph glyph-name="Ograve" unicode="&#xd2;" horiz-adv-x="1396" 
d="M27 643q0 307 178 489.5t493 182.5t493.5 -183.5t178.5 -490.5q0 -302 -178.5 -484t-493.5 -182t-493 182t-178 486zM322 637q0 -177 99.5 -286t278.5 -109t279 109.5t100 285.5q0 186 -100 300t-279 114t-278.5 -113.5t-99.5 -300.5zM393 1552l82 207l500 -205l-66 -168
z" />
    <glyph glyph-name="Oacute" unicode="&#xd3;" horiz-adv-x="1396" 
d="M27 643q0 307 178 489.5t493 182.5t493.5 -183.5t178.5 -490.5q0 -302 -178.5 -484t-493.5 -182t-493 182t-178 486zM322 637q0 -177 99.5 -286t278.5 -109t279 109.5t100 285.5q0 186 -100 300t-279 114t-278.5 -113.5t-99.5 -300.5zM414 1552l499 205l82 -207
l-516 -166z" />
    <glyph glyph-name="Ocircumflex" unicode="&#xd4;" horiz-adv-x="1396" 
d="M27 643q0 307 178 489.5t493 182.5t493.5 -183.5t178.5 -490.5q0 -302 -178.5 -484t-493.5 -182t-493 182t-178 486zM322 637q0 -177 99.5 -286t278.5 -109t279 109.5t100 285.5q0 186 -100 300t-279 114t-278.5 -113.5t-99.5 -300.5zM340 1507l285 254h151l285 -254
l-125 -118l-236 178l-235 -178z" />
    <glyph glyph-name="Otilde" unicode="&#xd5;" horiz-adv-x="1396" 
d="M27 643q0 307 178 489.5t493 182.5t493.5 -183.5t178.5 -490.5q0 -302 -178.5 -484t-493.5 -182t-493 182t-178 486zM293 1468q21 71 85 139t144 68q56 0 165 -30.5t149 -30.5q44 0 69.5 22.5t44.5 67.5l158 -49q-71 -240 -264 -240q-65 0 -160.5 29t-128.5 29
q-64 0 -96 -84zM322 637q0 -177 99.5 -286t278.5 -109t279 109.5t100 285.5q0 186 -100 300t-279 114t-278.5 -113.5t-99.5 -300.5z" />
    <glyph glyph-name="Odieresis" unicode="&#xd6;" horiz-adv-x="1396" 
d="M27 643q0 307 178 489.5t493 182.5t493.5 -183.5t178.5 -490.5q0 -302 -178.5 -484t-493.5 -182t-493 182t-178 486zM322 637q0 -177 99.5 -286t278.5 -109t279 109.5t100 285.5q0 186 -100 300t-279 114t-278.5 -113.5t-99.5 -300.5zM365 1556q0 63 40 98.5t95 35.5
q53 0 93 -36t40 -98q0 -61 -40 -96t-93 -35q-55 0 -95 35t-40 96zM768 1556q0 63 40 98.5t95 35.5q53 0 93 -36t40 -98q0 -61 -40 -96t-93 -35q-55 0 -95 35t-40 96z" />
    <glyph glyph-name="Oslash" unicode="&#xd8;" horiz-adv-x="1396" 
d="M27 643q0 307 178 489.5t493 182.5q183 0 324 -66l149 240l144 -66l-160 -256q104 -89 159.5 -224t55.5 -302q0 -302 -178.5 -484t-493.5 -182q-146 0 -264 41l-133 -215l-143 64l137 219q-131 86 -199.5 229.5t-68.5 329.5zM322 637q0 -203 124 -309l428 686
q-73 37 -174 37q-179 0 -278.5 -113.5t-99.5 -300.5zM586 256q49 -14 114 -14q179 0 279 109.5t100 285.5q0 171 -82 278z" />
    <glyph glyph-name="Ugrave" unicode="&#xd9;" horiz-adv-x="1363" 
d="M82 582v708h293v-708q0 -162 81 -251t236 -89q153 0 224 91t71 249v708h295v-708q0 -303 -156.5 -455t-433.5 -152q-130 0 -239 37t-193 110t-131 190.5t-47 269.5zM375 1552l82 207l499 -205l-65 -168z" />
    <glyph glyph-name="Uacute" unicode="&#xda;" horiz-adv-x="1363" 
d="M82 582v708h293v-708q0 -162 81 -251t236 -89q153 0 224 91t71 249v708h295v-708q0 -303 -156.5 -455t-433.5 -152q-130 0 -239 37t-193 110t-131 190.5t-47 269.5zM395 1552l500 205l82 -207l-516 -166z" />
    <glyph glyph-name="Ucircumflex" unicode="&#xdb;" horiz-adv-x="1363" 
d="M82 582v708h293v-708q0 -162 81 -251t236 -89q153 0 224 91t71 249v708h295v-708q0 -303 -156.5 -455t-433.5 -152q-130 0 -239 37t-193 110t-131 190.5t-47 269.5zM322 1507l284 254h152l284 -254l-124 -118l-236 178l-236 -178z" />
    <glyph glyph-name="Udieresis" unicode="&#xdc;" horiz-adv-x="1363" 
d="M82 582v708h293v-708q0 -162 81 -251t236 -89q153 0 224 91t71 249v708h295v-708q0 -303 -156.5 -455t-433.5 -152q-130 0 -239 37t-193 110t-131 190.5t-47 269.5zM346 1556q0 63 40 98.5t95 35.5q53 0 93 -36t40 -98q0 -61 -40 -96t-93 -35q-55 0 -95 35t-40 96z
M750 1556q0 63 40 98.5t95 35.5q53 0 93 -36t40 -98q0 -61 -40 -96t-93 -35q-55 0 -95 35t-40 96z" />
    <glyph glyph-name="Yacute" unicode="&#xdd;" horiz-adv-x="1337" 
d="M-10 1290h348l326 -514l325 514h359l-547 -776v-514h-293v514zM383 1552l500 205l82 -207l-516 -166z" />
    <glyph glyph-name="Thorn" unicode="&#xde;" horiz-adv-x="1161" 
d="M82 0v1290h293v-172h268q118 0 213.5 -40.5t154.5 -107t90.5 -151.5t31.5 -173t-31.5 -173t-90.5 -151.5t-154.5 -107t-213.5 -40.5h-268v-174h-293zM375 444h262q52 0 93.5 17.5t67 46t39.5 64.5t14 74t-14 74t-39.5 64.5t-67 46t-93.5 17.5h-262v-404z" />
    <glyph glyph-name="germandbls" unicode="&#xdf;" horiz-adv-x="1271" 
d="M72 0v975q0 169 104.5 279.5t253 133.5t297.5 -1.5t253.5 -122.5t104.5 -234q0 -61 -33 -109.5t-80 -78.5t-94.5 -55t-80.5 -51.5t-33 -55.5q0 -27 22 -45.5t57.5 -27t81 -18.5t93.5 -19t93.5 -30t81 -50t57.5 -80t22 -119q0 -96 -58 -169.5t-148.5 -110t-195.5 -36.5
q-214 0 -324.5 84.5t-121.5 239.5h266q8 -49 55 -77.5t127 -28.5q62 0 95.5 23t33.5 63q0 25 -22 43t-57.5 27t-81 19.5t-93 20.5t-93 30.5t-81 47.5t-57.5 74t-22 108q0 60 32 108t77 79t90.5 58.5t77.5 59t32 66.5q0 74 -89 116q-90 43 -197 26q-117 -19 -158 -100
q-17 -35 -17 -77v-985h-270z" />
    <glyph glyph-name="agrave" unicode="&#xe0;" horiz-adv-x="1103" 
d="M16 455q0 119 34 217t92.5 164.5t138 111.5t168.5 65.5t186 20.5q203 0 397 -88v-946h-270v98q-59 -56 -133 -89.5t-187 -33.5q-89 0 -166 31t-135.5 90t-91.5 151.5t-33 207.5zM279 1272l81 207l500 -205l-65 -168zM289 467q0 -115 55.5 -185.5t159.5 -70.5
q82 0 150 51.5t110 118.5v377q-85 28 -166 28q-99 0 -171 -47t-105 -118t-33 -154z" />
    <glyph glyph-name="aacute" unicode="&#xe1;" horiz-adv-x="1103" 
d="M16 455q0 119 34 217t92.5 164.5t138 111.5t168.5 65.5t186 20.5q203 0 397 -88v-946h-270v98q-59 -56 -133 -89.5t-187 -33.5q-89 0 -166 31t-135.5 90t-91.5 151.5t-33 207.5zM289 467q0 -115 55.5 -185.5t159.5 -70.5q82 0 150 51.5t110 118.5v377q-85 28 -166 28
q-99 0 -171 -47t-105 -118t-33 -154zM299 1272l500 205l82 -207l-516 -166z" />
    <glyph glyph-name="acircumflex" unicode="&#xe2;" horiz-adv-x="1103" 
d="M16 455q0 119 34 217t92.5 164.5t138 111.5t168.5 65.5t186 20.5q203 0 397 -88v-946h-270v98q-59 -56 -133 -89.5t-187 -33.5q-89 0 -166 31t-135.5 90t-91.5 151.5t-33 207.5zM225 1227l285 254h152l284 -254l-125 -119l-235 178l-236 -178zM289 467
q0 -115 55.5 -185.5t159.5 -70.5q82 0 150 51.5t110 118.5v377q-85 28 -166 28q-99 0 -171 -47t-105 -118t-33 -154z" />
    <glyph glyph-name="atilde" unicode="&#xe3;" horiz-adv-x="1103" 
d="M16 455q0 119 34 217t92.5 164.5t138 111.5t168.5 65.5t186 20.5q203 0 397 -88v-946h-270v98q-59 -56 -133 -89.5t-187 -33.5q-89 0 -166 31t-135.5 90t-91.5 151.5t-33 207.5zM178 1188q21 71 85.5 139t144.5 68q56 0 164 -31t149 -31q44 0 70 22.5t45 67.5l157 -49
q-71 -239 -264 -239q-65 0 -160.5 28.5t-128.5 28.5q-64 0 -96 -84zM289 467q0 -115 55.5 -185.5t159.5 -70.5q82 0 150 51.5t110 118.5v377q-85 28 -166 28q-99 0 -171 -47t-105 -118t-33 -154z" />
    <glyph glyph-name="adieresis" unicode="&#xe4;" horiz-adv-x="1103" 
d="M16 455q0 119 34 217t92.5 164.5t138 111.5t168.5 65.5t186 20.5q203 0 397 -88v-946h-270v98q-59 -56 -133 -89.5t-187 -33.5q-89 0 -166 31t-135.5 90t-91.5 151.5t-33 207.5zM250 1276q0 62 40 97.5t95 35.5q54 0 93.5 -35.5t39.5 -97.5q0 -61 -40 -96t-93 -35
q-55 0 -95 35t-40 96zM289 467q0 -115 55.5 -185.5t159.5 -70.5q82 0 150 51.5t110 118.5v377q-85 28 -166 28q-99 0 -171 -47t-105 -118t-33 -154zM653 1276q0 62 40 97.5t95 35.5q54 0 94 -35.5t40 -97.5q0 -61 -40 -96t-94 -35q-55 0 -95 35t-40 96z" />
    <glyph glyph-name="aring" unicode="&#xe5;" horiz-adv-x="1103" 
d="M16 455q0 119 34 217t92.5 164.5t138 111.5t168.5 65.5t186 20.5q203 0 397 -88v-946h-270v98q-59 -56 -133 -89.5t-187 -33.5q-89 0 -166 31t-135.5 90t-91.5 151.5t-33 207.5zM289 467q0 -115 55.5 -185.5t159.5 -70.5q82 0 150 51.5t110 118.5v377q-85 28 -166 28
q-99 0 -171 -47t-105 -118t-33 -154zM385 1274q0 88 59 136t142 48t141.5 -47.5t58.5 -136.5t-59 -138t-141 -49q-83 0 -142 49t-59 138zM500 1274q0 -34 22.5 -55t63.5 -21q39 0 61.5 21t22.5 55q0 33 -22.5 53.5t-61.5 20.5q-40 0 -63 -20.5t-23 -53.5z" />
    <glyph glyph-name="ae" unicode="&#xe6;" horiz-adv-x="1931" 
d="M16 506q0 232 125.5 380t304.5 148q114 0 186 -30.5t130 -83.5v90h270v-99q139 123 338 123q227 0 373.5 -132.5t146.5 -332.5v-137h-757q17 -103 89 -161t179 -58q154 0 203 82h280q-27 -152 -157 -236t-316 -84q-229 0 -379 134v-109h-270v96q-60 -55 -133.5 -88
t-186.5 -33q-180 0 -303 148.5t-123 382.5zM287 506q0 -137 55 -216t160 -79q81 0 149 42.5t111 96.5v318q-42 53 -107 92t-147 39q-106 0 -163.5 -78t-57.5 -215zM1141 639h483q-12 82 -71.5 134t-172.5 52q-89 0 -151.5 -49t-87.5 -137z" />
    <glyph glyph-name="ccedilla" unicode="&#xe7;" horiz-adv-x="1030" 
d="M16 504q0 234 147 382t374 148q178 0 306.5 -99t151.5 -253h-280q-18 48 -64 77t-114 29q-121 0 -185.5 -77t-64.5 -207q0 -133 70 -207t188 -74q65 0 112 26.5t66 72.5h281q-22 -138 -132.5 -231.5t-267.5 -110.5l-26 -95q99 0 153.5 -52.5t54.5 -125.5
q0 -84 -72.5 -147.5t-203.5 -63.5q-115 0 -195 43l64 133q2 -1 13 -7t14 -7t13 -6t15 -6.5t14.5 -4.5t17 -4.5t17 -2.5t19.5 -1q45 0 72.5 23t27.5 57t-23.5 54t-60.5 18h-51l-57 82l34 115q-190 29 -309 164.5t-119 357.5z" />
    <glyph glyph-name="egrave" unicode="&#xe8;" horiz-adv-x="1097" 
d="M16 514q0 150 69 269.5t187 185t263 65.5q242 0 382 -149t140 -402q0 -48 -2 -73h-752q26 -94 95 -145.5t169 -51.5q154 0 203 82h281q-28 -152 -158.5 -236t-314.5 -84q-248 0 -405 148.5t-157 390.5zM236 1272l81 207l500 -205l-65 -168zM295 616h487q-10 91 -71.5 150
t-165.5 59q-97 0 -162.5 -54t-87.5 -155z" />
    <glyph glyph-name="eacute" unicode="&#xe9;" horiz-adv-x="1097" 
d="M16 514q0 150 69 269.5t187 185t263 65.5q242 0 382 -149t140 -402q0 -48 -2 -73h-752q26 -94 95 -145.5t169 -51.5q154 0 203 82h281q-28 -152 -158.5 -236t-314.5 -84q-248 0 -405 148.5t-157 390.5zM256 1272l500 205l82 -207l-516 -166zM295 616h487
q-10 91 -71.5 150t-165.5 59q-97 0 -162.5 -54t-87.5 -155z" />
    <glyph glyph-name="ecircumflex" unicode="&#xea;" horiz-adv-x="1097" 
d="M16 514q0 150 69 269.5t187 185t263 65.5q242 0 382 -149t140 -402q0 -48 -2 -73h-752q26 -94 95 -145.5t169 -51.5q154 0 203 82h281q-28 -152 -158.5 -236t-314.5 -84q-248 0 -405 148.5t-157 390.5zM182 1227l285 254h151l285 -254l-125 -119l-235 178l-236 -178z
M295 616h487q-10 91 -71.5 150t-165.5 59q-97 0 -162.5 -54t-87.5 -155z" />
    <glyph glyph-name="edieresis" unicode="&#xeb;" horiz-adv-x="1097" 
d="M16 514q0 150 69 269.5t187 185t263 65.5q242 0 382 -149t140 -402q0 -48 -2 -73h-752q26 -94 95 -145.5t169 -51.5q154 0 203 82h281q-28 -152 -158.5 -236t-314.5 -84q-248 0 -405 148.5t-157 390.5zM207 1276q0 62 40 97.5t95 35.5q54 0 93.5 -35.5t39.5 -97.5
q0 -61 -40 -96t-93 -35q-55 0 -95 35t-40 96zM295 616h487q-10 91 -71.5 150t-165.5 59q-97 0 -162.5 -54t-87.5 -155zM610 1276q0 62 40 97.5t95 35.5q54 0 94 -35.5t40 -97.5q0 -61 -40 -96t-94 -35q-55 0 -95 35t-40 96z" />
    <glyph glyph-name="igrave" unicode="&#xec;" 
d="M-100 1272l82 207l499 -205l-65 -168zM72 0v1010h270v-1010h-270z" />
    <glyph glyph-name="iacute" unicode="&#xed;" 
d="M-80 1272l500 205l82 -207l-516 -166zM72 0v1010h270v-1010h-270z" />
    <glyph glyph-name="icircumflex" unicode="&#xee;" 
d="M-154 1227l285 254h152l284 -254l-125 -119l-235 178l-236 -178zM72 0v1010h270v-1010h-270z" />
    <glyph glyph-name="idieresis" unicode="&#xef;" 
d="M-129 1276q0 62 40 97.5t95 35.5q54 0 93.5 -35.5t39.5 -97.5q0 -61 -40 -96t-93 -35q-55 0 -95 35t-40 96zM72 0v1010h270v-1010h-270zM274 1276q0 62 40.5 97.5t95.5 35.5q54 0 93.5 -35.5t39.5 -97.5q0 -61 -40 -96t-93 -35q-55 0 -95.5 35t-40.5 96z" />
    <glyph glyph-name="eth" unicode="&#xf0;" horiz-adv-x="1062" 
d="M16 481q0 223 139 360.5t359 137.5q65 0 130 -20.5t101 -53.5q-25 56 -93.5 111.5t-139.5 93.5l-59 -88l-136 76l58 78q-80 39 -148 57l95 205q132 -29 213 -72l67 94l150 -74l-72 -94q205 -165 286 -352t81 -430q0 -241 -137.5 -388t-377.5 -147q-126 0 -226.5 42.5
t-162.5 114.5t-94.5 161.5t-32.5 187.5zM287 483q0 -107 64 -183.5t181 -76.5q115 0 179.5 76.5t64.5 183.5q0 106 -64 178t-180 72q-117 0 -181 -72t-64 -178z" />
    <glyph glyph-name="ntilde" unicode="&#xf1;" horiz-adv-x="1124" 
d="M72 0v934q291 100 506 100q103 0 185.5 -24t149.5 -76.5t103.5 -146t36.5 -222.5v-565h-273v565q0 193 -215 193q-95 0 -225 -37v-721h-268zM117 1188q21 71 85 139t144 68q55 0 163.5 -31t149.5 -31q44 0 70 22.5t45 67.5l158 -49q-71 -239 -264 -239q-65 0 -160.5 28.5
t-128.5 28.5q-64 0 -96 -84z" />
    <glyph glyph-name="ograve" unicode="&#xf2;" horiz-adv-x="1079" 
d="M16 504q0 151 62 270.5t182.5 189.5t280.5 70q239 0 380.5 -149.5t141.5 -380.5q0 -152 -60 -270.5t-179.5 -188.5t-282.5 -70q-244 0 -384.5 148.5t-140.5 380.5zM233 1272l82 207l500 -205l-65 -168zM287 504q0 -125 66 -203t188 -78t187 78t65 203q0 126 -65.5 205
t-186.5 79q-122 0 -188 -79.5t-66 -204.5z" />
    <glyph glyph-name="oacute" unicode="&#xf3;" horiz-adv-x="1079" 
d="M16 504q0 151 62 270.5t182.5 189.5t280.5 70q239 0 380.5 -149.5t141.5 -380.5q0 -152 -60 -270.5t-179.5 -188.5t-282.5 -70q-244 0 -384.5 148.5t-140.5 380.5zM254 1272l500 205l82 -207l-517 -166zM287 504q0 -125 66 -203t188 -78t187 78t65 203q0 126 -65.5 205
t-186.5 79q-122 0 -188 -79.5t-66 -204.5z" />
    <glyph glyph-name="ocircumflex" unicode="&#xf4;" horiz-adv-x="1079" 
d="M16 504q0 151 62 270.5t182.5 189.5t280.5 70q239 0 380.5 -149.5t141.5 -380.5q0 -152 -60 -270.5t-179.5 -188.5t-282.5 -70q-244 0 -384.5 148.5t-140.5 380.5zM180 1227l285 254h151l285 -254l-125 -119l-235 178l-236 -178zM287 504q0 -125 66 -203t188 -78t187 78
t65 203q0 126 -65.5 205t-186.5 79q-122 0 -188 -79.5t-66 -204.5z" />
    <glyph glyph-name="otilde" unicode="&#xf5;" horiz-adv-x="1079" 
d="M16 504q0 151 62 270.5t182.5 189.5t280.5 70q239 0 380.5 -149.5t141.5 -380.5q0 -152 -60 -270.5t-179.5 -188.5t-282.5 -70q-244 0 -384.5 148.5t-140.5 380.5zM133 1188q21 71 85 139t144 68q55 0 164.5 -31t149.5 -31q44 0 70 22.5t45 67.5l157 -49
q-71 -239 -264 -239q-65 0 -160.5 28.5t-128.5 28.5q-64 0 -96 -84zM287 504q0 -125 66 -203t188 -78t187 78t65 203q0 126 -65.5 205t-186.5 79q-122 0 -188 -79.5t-66 -204.5z" />
    <glyph glyph-name="odieresis" unicode="&#xf6;" horiz-adv-x="1079" 
d="M16 504q0 151 62 270.5t182.5 189.5t280.5 70q239 0 380.5 -149.5t141.5 -380.5q0 -152 -60 -270.5t-179.5 -188.5t-282.5 -70q-244 0 -384.5 148.5t-140.5 380.5zM205 1276q0 62 40 97.5t95 35.5q54 0 93.5 -35.5t39.5 -97.5q0 -61 -40 -96t-93 -35q-55 0 -95 35t-40 96
zM287 504q0 -125 66 -203t188 -78t187 78t65 203q0 126 -65.5 205t-186.5 79q-122 0 -188 -79.5t-66 -204.5zM608 1276q0 62 40 97.5t95 35.5q54 0 94 -35.5t40 -97.5q0 -61 -40 -96t-94 -35q-55 0 -95 35t-40 96z" />
    <glyph glyph-name="oslash" unicode="&#xf8;" horiz-adv-x="1169" 
d="M16 504q0 151 62 270.5t182.5 189.5t280.5 70q135 0 243 -51l117 188l143 -84l-124 -200q143 -149 143 -383q0 -152 -60 -270.5t-179.5 -188.5t-282.5 -70q-87 0 -174 23l-107 -170l-143 84l100 160q-98 70 -149.5 182t-51.5 250zM287 504q0 -132 69 -207l293 471
q-52 20 -108 20q-122 0 -188 -79.5t-66 -204.5zM508 225l33 -2q122 0 187 78t65 203q0 75 -25 139z" />
    <glyph glyph-name="ugrave" unicode="&#xf9;" horiz-adv-x="1069" 
d="M51 451v559h271v-566q0 -219 213 -219t213 219v566h270v-559q0 -240 -130.5 -358t-352.5 -118t-353 118t-131 358zM227 1272l82 207l500 -205l-66 -168z" />
    <glyph glyph-name="uacute" unicode="&#xfa;" horiz-adv-x="1069" 
d="M51 451v559h271v-566q0 -219 213 -219t213 219v566h270v-559q0 -240 -130.5 -358t-352.5 -118t-353 118t-131 358zM248 1272l500 205l81 -207l-516 -166z" />
    <glyph glyph-name="ucircumflex" unicode="&#xfb;" horiz-adv-x="1069" 
d="M51 451v559h271v-566q0 -219 213 -219t213 219v566h270v-559q0 -240 -130.5 -358t-352.5 -118t-353 118t-131 358zM174 1227l285 254h151l285 -254l-125 -119l-235 178l-236 -178z" />
    <glyph glyph-name="udieresis" unicode="&#xfc;" horiz-adv-x="1069" 
d="M51 451v559h271v-566q0 -219 213 -219t213 219v566h270v-559q0 -240 -130.5 -358t-352.5 -118t-353 118t-131 358zM199 1276q0 62 40 97.5t95 35.5q54 0 93.5 -35.5t39.5 -97.5q0 -61 -40 -96t-93 -35q-55 0 -95 35t-40 96zM602 1276q0 62 40 97.5t95 35.5
q54 0 93.5 -35.5t39.5 -97.5q0 -61 -40 -96t-93 -35q-55 0 -95 35t-40 96z" />
    <glyph glyph-name="yacute" unicode="&#xfd;" horiz-adv-x="1101" 
d="M51 -272l137 211q127 -103 299 -103q113 0 193 62t80 157v54q-114 -103 -301 -103q-65 0 -121.5 12t-109.5 42.5t-90.5 77.5t-60 121.5t-22.5 170.5v580h273v-521q0 -123 44.5 -178t155.5 -55q147 0 232 139v615h270v-949q0 -138 -70.5 -246t-194 -166.5t-278.5 -58.5
q-248 0 -436 138zM244 1272l499 205l82 -207l-516 -166z" />
    <glyph glyph-name="thorn" unicode="&#xfe;" horiz-adv-x="1148" 
d="M102 -385v1675h271v-319q104 63 248 63q121 0 218.5 -40t161.5 -111t98 -167.5t34 -209.5q0 -114 -34.5 -209t-92 -159t-134 -104.5t-160.5 -51t-172 7.5t-167 65v-440h-271zM373 324q68 -66 154 -87.5t159.5 0.5t123.5 93t50 176q0 127 -60.5 204.5t-178.5 77.5
q-122 0 -185 -68.5t-63 -191.5v-204z" />
    <glyph glyph-name="ydieresis" unicode="&#xff;" horiz-adv-x="1101" 
d="M51 -272l137 211q127 -103 299 -103q113 0 193 62t80 157v54q-114 -103 -301 -103q-65 0 -121.5 12t-109.5 42.5t-90.5 77.5t-60 121.5t-22.5 170.5v580h273v-521q0 -123 44.5 -178t155.5 -55q147 0 232 139v615h270v-949q0 -138 -70.5 -246t-194 -166.5t-278.5 -58.5
q-248 0 -436 138zM195 1276q0 62 40 97.5t95 35.5q54 0 93.5 -35.5t39.5 -97.5q0 -61 -40 -96t-93 -35q-55 0 -95 35t-40 96zM598 1276q0 62 40 97.5t95 35.5q54 0 93.5 -35.5t39.5 -97.5q0 -61 -40 -96t-93 -35q-55 0 -95 35t-40 96z" />
    <glyph glyph-name="Amacron" unicode="&#x100;" horiz-adv-x="1400" 
d="M4 0l531 1290l335 -2l527 -1288h-320l-96 236h-563l-86 -236h-328zM379 1417v187h645v-187h-645zM516 506h356l-188 465z" />
    <glyph glyph-name="amacron" unicode="&#x101;" horiz-adv-x="1103" 
d="M16 455q0 119 34 217t92.5 164.5t138 111.5t168.5 65.5t186 20.5q203 0 397 -88v-946h-270v98q-59 -56 -133 -89.5t-187 -33.5q-89 0 -166 31t-135.5 90t-91.5 151.5t-33 207.5zM262 1137v186h645v-186h-645zM289 467q0 -115 55.5 -185.5t159.5 -70.5q82 0 150 51.5
t110 118.5v377q-85 28 -166 28q-99 0 -171 -47t-105 -118t-33 -154z" />
    <glyph glyph-name="Abreve" unicode="&#x102;" horiz-adv-x="1400" 
d="M4 0l531 1290l335 -2l527 -1288h-320l-96 236h-563l-86 -236h-328zM367 1714h202q2 -64 35.5 -102.5t97.5 -38.5q65 0 99 38t37 103h202q-3 -153 -97 -236t-241 -83q-145 0 -238.5 83t-96.5 236zM516 506h356l-188 465z" />
    <glyph glyph-name="abreve" unicode="&#x103;" horiz-adv-x="1103" 
d="M16 455q0 119 34 217t92.5 164.5t138 111.5t168.5 65.5t186 20.5q203 0 397 -88v-946h-270v98q-59 -56 -133 -89.5t-187 -33.5q-89 0 -166 31t-135.5 90t-91.5 151.5t-33 207.5zM250 1434h203q2 -64 35.5 -103t97.5 -39q65 0 98.5 38.5t36.5 103.5h203
q-3 -153 -97 -236.5t-241 -83.5q-145 0 -239 83.5t-97 236.5zM289 467q0 -115 55.5 -185.5t159.5 -70.5q82 0 150 51.5t110 118.5v377q-85 28 -166 28q-99 0 -171 -47t-105 -118t-33 -154z" />
    <glyph glyph-name="Aogonek" unicode="&#x104;" horiz-adv-x="1400" 
d="M4 0l531 1290l335 -2l527 -1288h-135q-72 -117 -72 -186q0 -26 13.5 -43t39.5 -17q37 0 74 33l88 -117q-38 -34 -93 -57t-112 -23q-105 0 -160 52t-55 131q0 51 27.5 113t66.5 114h-2l-96 236h-563l-86 -236h-328zM516 506h356l-188 465z" />
    <glyph glyph-name="aogonek" unicode="&#x105;" horiz-adv-x="1103" 
d="M16 455q0 119 34 217t92.5 164.5t138 111.5t168.5 65.5t186 20.5q203 0 397 -88v-946h-45q-72 -117 -72 -186q0 -26 14 -43t40 -17q36 0 73 33l88 -117q-38 -35 -92.5 -57.5t-111.5 -22.5q-105 0 -160 52t-55 131q0 51 27.5 113t66.5 114h-43v98q-59 -56 -133 -89.5
t-187 -33.5q-89 0 -166 31t-135.5 90t-91.5 151.5t-33 207.5zM289 467q0 -115 55.5 -185.5t159.5 -70.5q82 0 150 51.5t110 118.5v377q-85 28 -166 28q-99 0 -171 -47t-105 -118t-33 -154z" />
    <glyph glyph-name="Cacute" unicode="&#x106;" horiz-adv-x="1259" 
d="M27 643q0 307 174 489.5t483 182.5q237 0 392 -116.5t161 -278.5h-332q-23 56 -78 93.5t-143 37.5q-173 0 -269 -113.5t-96 -300.5q0 -177 96 -286t269 -109q89 0 147 37.5t80 93.5h332q-6 -162 -164.5 -280t-394.5 -118q-309 0 -483 182t-174 486zM393 1552l500 205
l82 -207l-516 -166z" />
    <glyph glyph-name="cacute" unicode="&#x107;" horiz-adv-x="1030" 
d="M16 504q0 234 147 382t374 148q178 0 306.5 -99t151.5 -253h-280q-18 48 -64 77t-114 29q-121 0 -185.5 -77t-64.5 -207q0 -133 70 -207t188 -74q65 0 112 26.5t66 72.5h281q-25 -154 -156 -250.5t-311 -96.5q-146 0 -262.5 59.5t-187.5 181t-71 288.5zM256 1272l500 205
l82 -207l-516 -166z" />
    <glyph glyph-name="Cdotaccent" unicode="&#x10a;" horiz-adv-x="1259" 
d="M27 643q0 307 174 489.5t483 182.5q237 0 392 -116.5t161 -278.5h-332q-23 56 -78 93.5t-143 37.5q-173 0 -269 -113.5t-96 -300.5q0 -177 96 -286t269 -109q89 0 147 37.5t80 93.5h332q-6 -162 -164.5 -280t-394.5 -118q-309 0 -483 182t-174 486zM522 1624q0 74 47 115
t111 41q63 0 109.5 -41t46.5 -115q0 -72 -46.5 -113t-109.5 -41t-110.5 41t-47.5 113z" />
    <glyph glyph-name="cdotaccent" unicode="&#x10b;" horiz-adv-x="1030" 
d="M16 504q0 234 147 382t374 148q178 0 306.5 -99t151.5 -253h-280q-18 48 -64 77t-114 29q-121 0 -185.5 -77t-64.5 -207q0 -133 70 -207t188 -74q65 0 112 26.5t66 72.5h281q-25 -154 -156 -250.5t-311 -96.5q-146 0 -262.5 59.5t-187.5 181t-71 288.5zM385 1343
q0 74 47 115t111 41q63 0 109 -41t46 -115q0 -72 -46 -112.5t-109 -40.5q-64 0 -111 40.5t-47 112.5z" />
    <glyph glyph-name="Ccaron" unicode="&#x10c;" horiz-adv-x="1259" 
d="M27 643q0 307 174 489.5t483 182.5q237 0 392 -116.5t161 -278.5h-332q-23 56 -78 93.5t-143 37.5q-173 0 -269 -113.5t-96 -300.5q0 -177 96 -286t269 -109q89 0 147 37.5t80 93.5h332q-6 -162 -164.5 -280t-394.5 -118q-309 0 -483 182t-174 486zM319 1649l125 118
l236 -180l235 180l125 -118l-284 -254h-152z" />
    <glyph glyph-name="ccaron" unicode="&#x10d;" horiz-adv-x="1030" 
d="M16 504q0 234 147 382t374 148q178 0 306.5 -99t151.5 -253h-280q-18 48 -64 77t-114 29q-121 0 -185.5 -77t-64.5 -207q0 -133 70 -207t188 -74q65 0 112 26.5t66 72.5h281q-25 -154 -156 -250.5t-311 -96.5q-146 0 -262.5 59.5t-187.5 181t-71 288.5zM182 1368l125 119
l236 -180l235 180l125 -119l-285 -254h-151z" />
    <glyph glyph-name="Dcaron" unicode="&#x10e;" horiz-adv-x="1282" 
d="M82 0v1290h473q137 0 253 -34.5t197.5 -94.5t138.5 -141t84 -173t27 -192t-26 -194t-82.5 -178t-137 -147t-197.5 -99.5t-257 -36.5h-473zM166 1649l125 118l235 -180l236 180l125 -118l-285 -254h-151zM375 270h180q106 0 186 30.5t127 84.5t70 120.5t23 145.5
q0 76 -24.5 141.5t-72.5 117t-127.5 81t-181.5 29.5h-180v-750z" />
    <glyph glyph-name="dcaron" unicode="&#x10f;" horiz-adv-x="1431" 
d="M16 504q0 124 40.5 226.5t109 167.5t155 100.5t181.5 35.5q139 0 274 -80v449h271v-907q0 -234 -134.5 -377.5t-377.5 -143.5q-163 0 -282 70t-178 188.5t-59 270.5zM289 504q0 -126 63.5 -203.5t184.5 -77.5q120 0 179.5 68t59.5 192v203q-101 98 -231 98
q-108 0 -182 -73.5t-74 -206.5zM1161 928h211l74 475h-223z" />
    <glyph glyph-name="Dcroat" unicode="&#x110;" horiz-adv-x="1361" 
d="M-23 541v204h105v545h473q137 0 253 -34.5t197.5 -94.5t138.5 -141t84 -173t27 -192t-26 -194t-82.5 -178t-137 -147t-197.5 -99.5t-257 -36.5h-473v541h-105zM375 270h180q106 0 186 30.5t127 84.5t70 120.5t23 145.5q0 76 -24.5 141.5t-72.5 117t-127.5 81t-181.5 29.5
h-180v-275h297v-204h-297v-271z" />
    <glyph glyph-name="dcroat" unicode="&#x111;" horiz-adv-x="1193" 
d="M16 504q0 124 40.5 226.5t109 167.5t155 100.5t181.5 35.5q139 0 274 -80v183h-213v141h213v125h271v-125h184v-141h-184v-641q0 -234 -134.5 -377.5t-377.5 -143.5q-163 0 -282 70t-178 188.5t-59 270.5zM289 504q0 -126 63.5 -203.5t184.5 -77.5q120 0 179.5 68
t59.5 192v203q-101 98 -231 98q-108 0 -182 -73.5t-74 -206.5z" />
    <glyph glyph-name="Emacron" unicode="&#x112;" horiz-adv-x="1083" 
d="M82 401v889h905v-270h-612v-240h571v-270h-571v-94q0 -146 168 -146h454v-270h-491q-199 0 -311.5 100t-112.5 301zM215 1417v187h645v-187h-645z" />
    <glyph glyph-name="emacron" unicode="&#x113;" horiz-adv-x="1097" 
d="M16 514q0 150 69 269.5t187 185t263 65.5q242 0 382 -149t140 -402q0 -48 -2 -73h-752q26 -94 95 -145.5t169 -51.5q154 0 203 82h281q-28 -152 -158.5 -236t-314.5 -84q-248 0 -405 148.5t-157 390.5zM219 1137v186h645v-186h-645zM295 616h487q-10 91 -71.5 150
t-165.5 59q-97 0 -162.5 -54t-87.5 -155z" />
    <glyph glyph-name="Edotaccent" unicode="&#x116;" horiz-adv-x="1083" 
d="M82 401v889h905v-270h-612v-240h571v-270h-571v-94q0 -146 168 -146h454v-270h-491q-199 0 -311.5 100t-112.5 301zM381 1624q0 74 47 115t111 41q63 0 109 -41t46 -115q0 -72 -46 -113t-109 -41t-110.5 41t-47.5 113z" />
    <glyph glyph-name="edotaccent" unicode="&#x117;" horiz-adv-x="1097" 
d="M16 514q0 150 69 269.5t187 185t263 65.5q242 0 382 -149t140 -402q0 -48 -2 -73h-752q26 -94 95 -145.5t169 -51.5q154 0 203 82h281q-28 -152 -158.5 -236t-314.5 -84q-248 0 -405 148.5t-157 390.5zM295 616h487q-10 91 -71.5 150t-165.5 59q-97 0 -162.5 -54
t-87.5 -155zM385 1343q0 74 47 115t111 41q63 0 109 -41t46 -115q0 -72 -46 -112.5t-109 -40.5q-64 0 -111 40.5t-47 112.5z" />
    <glyph glyph-name="Eogonek" unicode="&#x118;" horiz-adv-x="1083" 
d="M82 401v889h905v-270h-612v-240h571v-270h-571v-94q0 -146 168 -146h454v-270h4q-71 -116 -71 -186q0 -26 13.5 -43t39.5 -17q37 0 74 33l88 -117q-38 -34 -93 -57t-112 -23q-105 0 -160 52t-55 131q0 51 27.5 113t66.5 114h-313q-199 0 -311.5 100t-112.5 301z" />
    <glyph glyph-name="eogonek" unicode="&#x119;" horiz-adv-x="1097" 
d="M16 514q0 150 69 269.5t187 185t263 65.5q242 0 382 -149t140 -402q0 -48 -2 -73h-752q26 -94 95 -145.5t169 -51.5q154 0 203 82h281q-26 -136 -134.5 -218t-265.5 -97q-59 -101 -59 -166q0 -26 13.5 -43t39.5 -17q37 0 74 33l88 -117q-38 -34 -93 -57t-112 -23
q-105 0 -160 52t-55 131q0 89 82 211q-204 31 -328.5 173.5t-124.5 356.5zM295 616h487q-10 91 -71.5 150t-165.5 59q-97 0 -162.5 -54t-87.5 -155z" />
    <glyph glyph-name="Ecaron" unicode="&#x11a;" horiz-adv-x="1083" 
d="M82 401v889h905v-270h-612v-240h571v-270h-571v-94q0 -146 168 -146h454v-270h-491q-199 0 -311.5 100t-112.5 301zM178 1649l125 118l236 -180l235 180l125 -118l-285 -254h-151z" />
    <glyph glyph-name="ecaron" unicode="&#x11b;" horiz-adv-x="1097" 
d="M16 514q0 150 69 269.5t187 185t263 65.5q242 0 382 -149t140 -402q0 -48 -2 -73h-752q26 -94 95 -145.5t169 -51.5q154 0 203 82h281q-28 -152 -158.5 -236t-314.5 -84q-248 0 -405 148.5t-157 390.5zM182 1368l125 119l236 -180l235 180l125 -119l-285 -254h-151z
M295 616h487q-10 91 -71.5 150t-165.5 59q-97 0 -162.5 -54t-87.5 -155z" />
    <glyph glyph-name="Gbreve" unicode="&#x11e;" horiz-adv-x="1327" 
d="M27 643q0 307 174 489.5t483 182.5q236 0 391.5 -116.5t161.5 -278.5h-332q-23 56 -78 93.5t-143 37.5q-173 0 -269 -113.5t-96 -300.5q0 -177 96 -286t269 -109q172 0 266 69v174h-258v226h561v-533q-90 -93 -235 -148t-334 -55q-309 0 -483 182t-174 486zM326 1714h202
q2 -64 36 -102.5t98 -38.5q65 0 98.5 38t36.5 103h202q-3 -153 -96.5 -236t-240.5 -83q-146 0 -239.5 83t-96.5 236z" />
    <glyph glyph-name="gbreve" unicode="&#x11f;" horiz-adv-x="1124" 
d="M16 506q0 233 136 380.5t378 147.5q241 0 379 -140t138 -370v-463q0 -209 -152.5 -340t-386.5 -131q-126 0 -211 30t-180 89l114 217q138 -90 277 -90q116 0 192 54.5t76 148.5v37q-139 -82 -287 -82q-94 0 -178 33t-150.5 95.5t-105.5 161.5t-39 222zM205 1434h203
q2 -64 35.5 -103t97.5 -39q65 0 98.5 38.5t36.5 103.5h203q-3 -153 -97 -236.5t-241 -83.5q-145 0 -239 83.5t-97 236.5zM289 506q0 -132 74.5 -206.5t181.5 -74.5q129 0 231 99v211q0 122 -62.5 187.5t-183.5 65.5q-119 0 -180 -77.5t-61 -204.5z" />
    <glyph glyph-name="Gdotaccent" unicode="&#x120;" horiz-adv-x="1327" 
d="M27 643q0 307 174 489.5t483 182.5q236 0 391.5 -116.5t161.5 -278.5h-332q-23 56 -78 93.5t-143 37.5q-173 0 -269 -113.5t-96 -300.5q0 -177 96 -286t269 -109q172 0 266 69v174h-258v226h561v-533q-90 -93 -235 -148t-334 -55q-309 0 -483 182t-174 486zM504 1624
q0 74 47 115t111 41q63 0 109 -41t46 -115q0 -72 -46 -113t-109 -41t-110.5 41t-47.5 113z" />
    <glyph glyph-name="gdotaccent" unicode="&#x121;" horiz-adv-x="1124" 
d="M16 506q0 233 136 380.5t378 147.5q241 0 379 -140t138 -370v-463q0 -209 -152.5 -340t-386.5 -131q-126 0 -211 30t-180 89l114 217q138 -90 277 -90q116 0 192 54.5t76 148.5v37q-139 -82 -287 -82q-94 0 -178 33t-150.5 95.5t-105.5 161.5t-39 222zM289 506
q0 -132 74.5 -206.5t181.5 -74.5q129 0 231 99v211q0 122 -62.5 187.5t-183.5 65.5q-119 0 -180 -77.5t-61 -204.5zM383 1343q0 74 47 115t111 41q63 0 109 -41t46 -115q0 -72 -46 -112.5t-109 -40.5q-64 0 -111 40.5t-47 112.5z" />
    <glyph glyph-name="Gcommaaccent" unicode="&#x122;" horiz-adv-x="1327" 
d="M27 643q0 307 174 489.5t483 182.5q236 0 391.5 -116.5t161.5 -278.5h-332q-23 56 -78 93.5t-143 37.5q-173 0 -269 -113.5t-96 -300.5q0 -177 96 -286t269 -109q172 0 266 69v174h-258v226h561v-533q-90 -93 -235 -148t-334 -55q-309 0 -483 182t-174 486zM498 -453h233
l82 355h-233z" />
    <glyph glyph-name="gcommaaccent" unicode="&#x123;" horiz-adv-x="1124" 
d="M16 506q0 233 136 380.5t378 147.5q241 0 379 -140t138 -370v-463q0 -209 -152.5 -340t-386.5 -131q-126 0 -211 30t-180 89l114 217q138 -90 277 -90q116 0 192 54.5t76 148.5v37q-139 -82 -287 -82q-94 0 -178 33t-150.5 95.5t-105.5 161.5t-39 222zM289 506
q0 -132 74.5 -206.5t181.5 -74.5q129 0 231 99v211q0 122 -62.5 187.5t-183.5 65.5q-119 0 -180 -77.5t-61 -204.5zM430 1108h234l81 354h-233z" />
    <glyph glyph-name="Hbar" unicode="&#x126;" horiz-adv-x="1449" 
d="M-16 924v163h98v203h293v-203h618v203h293v-203h178v-163h-178v-924h-293v500h-618v-500h-293v924h-98zM375 770h618v154h-618v-154z" />
    <glyph glyph-name="hbar" unicode="&#x127;" horiz-adv-x="1216" 
d="M-16 1135v161h88v107h270v-107h324v-161h-324v-177q128 76 293 76q66 0 126.5 -13.5t116.5 -45.5t97 -78.5t65.5 -118t24.5 -160.5v-618h-272v586q0 92 -62 137t-158 45q-118 0 -231 -63v-705h-270v1135h-88z" />
    <glyph glyph-name="Imacron" unicode="&#x12a;" horiz-adv-x="456" 
d="M-94 1417v187h645v-187h-645zM82 0v1290h293v-1290h-293z" />
    <glyph glyph-name="imacron" unicode="&#x12b;" 
d="M-117 1137v186h645v-186h-645zM72 0v1010h270v-1010h-270z" />
    <glyph glyph-name="Iogonek" unicode="&#x12e;" horiz-adv-x="456" 
d="M47 -229q0 51 27.5 113t66.5 114h183q-72 -117 -72 -186q0 -26 13.5 -43t39.5 -17q37 0 74 33l88 -117q-38 -34 -93 -57t-112 -23q-105 0 -160 52t-55 131zM82 0v1290h293v-1290h-293z" />
    <glyph glyph-name="iogonek" unicode="&#x12f;" horiz-adv-x="475" 
d="M55 -227q0 98 95 227h-78v1010h270v-1010h-10q-70 -114 -70 -186q0 -58 51 -58q31 0 70 31l92 -117q-38 -34 -93 -57t-112 -23q-105 0 -160 52t-55 131zM80 1343q0 74 47 115t111 41q63 0 109 -41t46 -115q0 -72 -46 -112.5t-109 -40.5q-64 0 -111 40.5t-47 112.5z" />
    <glyph glyph-name="Idotaccent" unicode="&#x130;" horiz-adv-x="456" 
d="M72 1624q0 74 47 115t110 41t109.5 -41t46.5 -115q0 -72 -46.5 -113t-109.5 -41t-110 41t-47 113zM82 0v1290h293v-1290h-293z" />
    <glyph glyph-name="dotlessi" unicode="&#x131;" 
d="M72 0v1010h270v-1010h-270z" />
    <glyph glyph-name="Kcommaaccent" unicode="&#x136;" horiz-adv-x="1200" 
d="M82 0v1290h293v-499l434 499h360l-487 -536l545 -754h-361l-381 537l-110 -121v-416h-293zM455 -453l82 355h233l-82 -355h-233z" />
    <glyph glyph-name="kcommaaccent" unicode="&#x137;" horiz-adv-x="1019" 
d="M72 0v1403h270v-739l309 346h373l-412 -426l443 -584h-344l-287 387l-82 -84v-303h-270zM309 -453l82 355h234l-82 -355h-234z" />
    <glyph glyph-name="Lacute" unicode="&#x139;" horiz-adv-x="976" 
d="M82 391v899h293v-884q0 -136 141 -136h438v-270h-473q-185 0 -292 98t-107 293zM88 1552l500 205l82 -207l-516 -166z" />
    <glyph glyph-name="lacute" unicode="&#x13a;" 
d="M-80 1665l500 205l82 -207l-516 -166zM72 0v1403h270v-1403h-270z" />
    <glyph glyph-name="Lcommaaccent" unicode="&#x13b;" horiz-adv-x="976" 
d="M82 391v899h293v-884q0 -136 141 -136h438v-270h-473q-185 0 -292 98t-107 293zM377 -453h233l82 355h-233z" />
    <glyph glyph-name="lcommaaccent" unicode="&#x13c;" 
d="M8 -453h234l82 355h-234zM72 0v1403h270v-1403h-270z" />
    <glyph glyph-name="Lcaron" unicode="&#x13d;" horiz-adv-x="976" 
d="M82 391v899h293v-884q0 -136 141 -136h438v-270h-473q-185 0 -292 98t-107 293zM580 815h213l114 475h-225z" />
    <glyph glyph-name="lcaron" unicode="&#x13e;" horiz-adv-x="690" 
d="M72 0v1403h270v-1403h-270zM442 928h211l74 475h-223z" />
    <glyph glyph-name="Ldot" unicode="&#x13f;" horiz-adv-x="976" 
d="M82 391v899h293v-884q0 -136 141 -136h438v-270h-473q-185 0 -292 98t-107 293zM575 723q0 74 47 115t111 41q63 0 109.5 -41t46.5 -115q0 -73 -46.5 -114.5t-109.5 -41.5t-110.5 42t-47.5 114z" />
    <glyph glyph-name="ldot" unicode="&#x140;" horiz-adv-x="782" 
d="M72 0v1403h270v-1403h-270zM434 707q0 73 47 114t111 41t110 -40.5t46 -114.5q0 -73 -46.5 -114.5t-109.5 -41.5t-110.5 42t-47.5 114z" />
    <glyph glyph-name="Lslash" unicode="&#x141;" horiz-adv-x="976" 
d="M-27 485v197l109 33v575h293v-487l377 115v-199l-377 -113v-200q0 -136 141 -136h438v-270h-473q-185 0 -292 98t-107 293v127z" />
    <glyph glyph-name="lslash" unicode="&#x142;" 
d="M-31 504v178l103 53v668h270v-529l113 60v-193l-113 -55v-686h-270v553z" />
    <glyph glyph-name="Nacute" unicode="&#x143;" horiz-adv-x="1339" 
d="M82 0v1290h254l629 -747v747h292v-1290h-227l-655 784v-784h-293zM383 1552l500 205l82 -207l-516 -166z" />
    <glyph glyph-name="nacute" unicode="&#x144;" horiz-adv-x="1124" 
d="M72 0v934q291 100 506 100q103 0 185.5 -24t149.5 -76.5t103.5 -146t36.5 -222.5v-565h-273v565q0 193 -215 193q-95 0 -225 -37v-721h-268zM238 1272l499 205l82 -207l-516 -166z" />
    <glyph glyph-name="Ncommaaccent" unicode="&#x145;" horiz-adv-x="1339" 
d="M82 0v1290h254l629 -747v747h292v-1290h-227l-655 784v-784h-293zM494 -453h233l82 355h-234z" />
    <glyph glyph-name="ncommaaccent" unicode="&#x146;" horiz-adv-x="1124" 
d="M72 0v934q291 100 506 100q103 0 185.5 -24t149.5 -76.5t103.5 -146t36.5 -222.5v-565h-273v565q0 193 -215 193q-95 0 -225 -37v-721h-268zM354 -453h234l82 355h-234z" />
    <glyph glyph-name="Ncaron" unicode="&#x147;" horiz-adv-x="1339" 
d="M82 0v1290h254l629 -747v747h292v-1290h-227l-655 784v-784h-293zM309 1649l125 118l236 -180l235 180l125 -118l-285 -254h-151z" />
    <glyph glyph-name="ncaron" unicode="&#x148;" horiz-adv-x="1124" 
d="M72 0v934q291 100 506 100q103 0 185.5 -24t149.5 -76.5t103.5 -146t36.5 -222.5v-565h-273v565q0 193 -215 193q-95 0 -225 -37v-721h-268zM164 1368l125 119l235 -180l236 180l125 -119l-285 -254h-151z" />
    <glyph glyph-name="Omacron" unicode="&#x14c;" horiz-adv-x="1396" 
d="M27 643q0 307 178 489.5t493 182.5t493.5 -183.5t178.5 -490.5q0 -302 -178.5 -484t-493.5 -182t-493 182t-178 486zM322 637q0 -177 99.5 -286t278.5 -109t279 109.5t100 285.5q0 186 -100 300t-279 114t-278.5 -113.5t-99.5 -300.5zM377 1417v187h645v-187h-645z" />
    <glyph glyph-name="omacron" unicode="&#x14d;" horiz-adv-x="1079" 
d="M16 504q0 151 62 270.5t182.5 189.5t280.5 70q239 0 380.5 -149.5t141.5 -380.5q0 -152 -60 -270.5t-179.5 -188.5t-282.5 -70q-244 0 -384.5 148.5t-140.5 380.5zM217 1137v186h645v-186h-645zM287 504q0 -125 66 -203t188 -78t187 78t65 203q0 126 -65.5 205t-186.5 79
q-122 0 -188 -79.5t-66 -204.5z" />
    <glyph glyph-name="Ohungarumlaut" unicode="&#x150;" horiz-adv-x="1396" 
d="M27 643q0 307 178 489.5t493 182.5t493.5 -183.5t178.5 -490.5q0 -302 -178.5 -484t-493.5 -182t-493 182t-178 486zM322 637q0 -177 99.5 -286t278.5 -109t279 109.5t100 285.5q0 186 -100 300t-279 114t-278.5 -113.5t-99.5 -300.5zM383 1481l338 366l172 -141
l-371 -340zM762 1481l338 366l172 -141l-371 -340z" />
    <glyph glyph-name="ohungarumlaut" unicode="&#x151;" horiz-adv-x="1079" 
d="M16 504q0 151 62 270.5t182.5 189.5t280.5 70q239 0 380.5 -149.5t141.5 -380.5q0 -152 -60 -270.5t-179.5 -188.5t-282.5 -70q-244 0 -384.5 148.5t-140.5 380.5zM223 1200l338 367l172 -142l-371 -340zM287 504q0 -125 66 -203t188 -78t187 78t65 203q0 126 -65.5 205
t-186.5 79q-122 0 -188 -79.5t-66 -204.5zM602 1200l338 367l172 -142l-371 -340z" />
    <glyph glyph-name="OE" unicode="&#x152;" horiz-adv-x="2080" 
d="M27 643q0 307 178 489.5t493 182.5q225 0 381 -117v92h906v-270h-613v-240h570v-270h-570v-94q0 -146 168 -146h455v-270h-492q-238 0 -336 145q-178 -170 -469 -170q-315 0 -493 182t-178 486zM322 637q0 -177 99.5 -286t278.5 -109t279 109.5t100 285.5q0 186 -100 300
t-279 114t-278.5 -113.5t-99.5 -300.5z" />
    <glyph glyph-name="oe" unicode="&#x153;" horiz-adv-x="1875" 
d="M16 504q0 151 62 270.5t182.5 189.5t280.5 70q123 0 223 -45.5t168 -126.5q69 81 167.5 126.5t213.5 45.5q262 0 402.5 -159.5t117.5 -442.5h-754q19 -102 90.5 -160.5t176.5 -58.5q153 0 202 82h281q-28 -152 -158.5 -236t-314.5 -84q-130 0 -237.5 45.5t-180.5 129.5
q-66 -83 -168 -129t-229 -46q-244 0 -384.5 148.5t-140.5 380.5zM287 504q0 -125 66 -203t188 -78t187 78t65 203q0 126 -65.5 205t-186.5 79q-122 0 -188 -79.5t-66 -204.5zM1081 639h471q-9 82 -69.5 134t-159.5 52q-91 0 -154 -48.5t-88 -137.5z" />
    <glyph glyph-name="Racute" unicode="&#x154;" horiz-adv-x="1165" 
d="M82 0v913q0 176 101 276.5t290 100.5h123q120 0 217 -40t157 -107t92 -150t32 -172q0 -118 -52.5 -221.5t-152.5 -169.5l262 -430h-336l-197 350h-22h-221v-350h-293zM258 1552l500 205l82 -207l-516 -166zM375 621h215q106 0 164.5 59t58.5 141q0 80 -58.5 139.5
t-164.5 59.5h-94q-64 0 -92.5 -29.5t-28.5 -87.5v-282z" />
    <glyph glyph-name="racute" unicode="&#x155;" horiz-adv-x="778" 
d="M72 0v850q312 184 667 184v-270q-248 0 -399 -90v-674h-268zM111 1272l499 205l82 -207l-516 -166z" />
    <glyph glyph-name="Rcaron" unicode="&#x158;" horiz-adv-x="1165" 
d="M82 0v913q0 176 101 276.5t290 100.5h123q120 0 217 -40t157 -107t92 -150t32 -172q0 -118 -52.5 -221.5t-152.5 -169.5l262 -430h-336l-197 350h-22h-221v-350h-293zM184 1649l125 118l236 -180l235 180l125 -118l-284 -254h-152zM375 621h215q106 0 164.5 59t58.5 141
q0 80 -58.5 139.5t-164.5 59.5h-94q-64 0 -92.5 -29.5t-28.5 -87.5v-282z" />
    <glyph glyph-name="rcaron" unicode="&#x159;" horiz-adv-x="778" 
d="M37 1368l125 119l235 -180l236 180l125 -119l-285 -254h-151zM72 0v850q312 184 667 184v-270q-248 0 -399 -90v-674h-268z" />
    <glyph glyph-name="Sacute" unicode="&#x15a;" horiz-adv-x="1118" 
d="M8 373h268q17 -73 90 -111.5t193 -38.5q118 0 178 34t60 110q0 32 -26 54.5t-70 37t-101 26t-120 25t-126 31.5t-120 48.5t-101 71t-70 105t-26 145.5q0 125 69 217.5t188 139.5t271 47q229 0 357.5 -108t144.5 -283h-283q-14 66 -70.5 105.5t-156.5 39.5
q-101 0 -157 -37t-56 -108q0 -43 32.5 -73.5t86.5 -47t122.5 -34t139.5 -32.5t139.5 -43.5t122.5 -66t86.5 -101t32.5 -147.5q0 -190 -145 -297t-406 -107q-246 0 -386 108.5t-161 289.5zM268 1552l500 205l82 -207l-516 -166z" />
    <glyph glyph-name="sacute" unicode="&#x15b;" horiz-adv-x="966" 
d="M20 299h267q9 -49 58 -77.5t134 -28.5q91 0 146 26t55 70q0 28 -35.5 47t-92 31t-125 25t-137.5 35.5t-125.5 54.5t-92 89.5t-35.5 135.5q0 152 128 239.5t331 87.5q218 0 328 -88.5t118 -238.5h-280q-8 48 -54.5 79t-118.5 31q-78 0 -124 -25.5t-46 -72.5
q0 -29 28 -49.5t73.5 -32t103.5 -25t119 -25.5t119 -35.5t103.5 -54t73.5 -82t28 -118.5q0 -105 -67.5 -179t-174 -108.5t-240.5 -34.5q-221 0 -337 84.5t-128 239.5zM199 1272l499 205l82 -207l-516 -166z" />
    <glyph glyph-name="Scedilla" unicode="&#x15e;" horiz-adv-x="1118" 
d="M8 373h268q17 -73 90 -111.5t193 -38.5q118 0 178 34t60 110q0 32 -26 54.5t-70 37t-101 26t-120 25t-126 31.5t-120 48.5t-101 71t-70 105t-26 145.5q0 125 69 217.5t188 139.5t271 47q229 0 357.5 -108t144.5 -283h-283q-14 66 -70.5 105.5t-156.5 39.5
q-101 0 -157 -37t-56 -108q0 -43 32.5 -73.5t86.5 -47t122.5 -34t139.5 -32.5t139.5 -43.5t122.5 -66t86.5 -101t32.5 -147.5q0 -175 -124.5 -281t-352.5 -121l-27 -92q99 0 154 -52.5t55 -125.5q0 -84 -72.5 -147.5t-203.5 -63.5q-115 0 -195 43l63 133q2 -1 13 -7t14 -7
t13 -6t15 -6.5t14.5 -4.5t17 -4.5t17 -2.5t19.5 -1q45 0 73 23t28 57t-23.5 54t-60.5 18h-51l-58 82l35 113q-207 18 -324.5 123t-136.5 270z" />
    <glyph glyph-name="scedilla" unicode="&#x15f;" horiz-adv-x="966" 
d="M20 299h267q9 -49 58 -77.5t134 -28.5q91 0 146 26t55 70q0 28 -35.5 47t-92 31t-125 25t-137.5 35.5t-125.5 54.5t-92 89.5t-35.5 135.5q0 152 128 239.5t331 87.5q218 0 328 -88.5t118 -238.5h-280q-8 48 -54.5 79t-118.5 31q-78 0 -124 -25.5t-46 -72.5
q0 -29 28 -49.5t73.5 -32t103.5 -25t119 -25.5t119 -35.5t103.5 -54t73.5 -82t28 -118.5q0 -138 -111 -219.5t-287 -97.5l-26 -95q99 0 154 -52.5t55 -125.5q0 -84 -73 -147.5t-204 -63.5q-114 0 -194 43l63 133q2 -1 13 -7t14 -7t13 -6t15 -6.5t14.5 -4.5t17 -4.5t17 -2.5
t19.5 -1q45 0 72.5 23t27.5 57t-23.5 54t-60.5 18h-51l-57 82l35 110q-184 15 -281.5 98.5t-108.5 223.5z" />
    <glyph glyph-name="Scaron" unicode="&#x160;" horiz-adv-x="1118" 
d="M8 373h268q17 -73 90 -111.5t193 -38.5q118 0 178 34t60 110q0 32 -26 54.5t-70 37t-101 26t-120 25t-126 31.5t-120 48.5t-101 71t-70 105t-26 145.5q0 125 69 217.5t188 139.5t271 47q229 0 357.5 -108t144.5 -283h-283q-14 66 -70.5 105.5t-156.5 39.5
q-101 0 -157 -37t-56 -108q0 -43 32.5 -73.5t86.5 -47t122.5 -34t139.5 -32.5t139.5 -43.5t122.5 -66t86.5 -101t32.5 -147.5q0 -190 -145 -297t-406 -107q-246 0 -386 108.5t-161 289.5zM195 1649l124 118l236 -180l236 180l124 -118l-284 -254h-152z" />
    <glyph glyph-name="scaron" unicode="&#x161;" horiz-adv-x="966" 
d="M20 299h267q9 -49 58 -77.5t134 -28.5q91 0 146 26t55 70q0 28 -35.5 47t-92 31t-125 25t-137.5 35.5t-125.5 54.5t-92 89.5t-35.5 135.5q0 152 128 239.5t331 87.5q218 0 328 -88.5t118 -238.5h-280q-8 48 -54.5 79t-118.5 31q-78 0 -124 -25.5t-46 -72.5
q0 -29 28 -49.5t73.5 -32t103.5 -25t119 -25.5t119 -35.5t103.5 -54t73.5 -82t28 -118.5q0 -105 -67.5 -179t-174 -108.5t-240.5 -34.5q-221 0 -337 84.5t-128 239.5zM125 1368l125 119l235 -180l236 180l125 -119l-285 -254h-151z" />
    <glyph glyph-name="Tcommaaccent" unicode="&#x162;" horiz-adv-x="1198" 
d="M25 1020v270h1146v-270h-426v-1020h-51l-32 -115q99 0 153.5 -52.5t54.5 -125.5q0 -84 -72.5 -147.5t-203.5 -63.5q-115 0 -195 43l64 133q2 -1 13 -7t14 -7t13 -6t15 -6.5t14.5 -4.5t17 -4.5t17 -2.5t19.5 -1q45 0 72.5 23t27.5 57t-23.5 54t-60.5 18h-51l-57 82l41 133
h-84v1020h-426z" />
    <glyph glyph-name="tcommaaccent" unicode="&#x163;" horiz-adv-x="710" 
d="M61 344v946h275v-280h305v-230h-309v-405q0 -156 192 -156q64 0 144 17v-232q-119 -29 -211 -29l-27 -90q99 0 154 -52.5t55 -125.5q0 -84 -73 -147.5t-204 -63.5q-114 0 -194 43l63 133q2 -1 13 -7t14 -7t13 -6t15 -6.5t14.5 -4.5t17 -4.5t17 -2.5t19.5 -1q45 0 73 23
t28 57t-23.5 54t-60.5 18h-52l-57 82l39 129q-112 34 -176 120.5t-64 227.5z" />
    <glyph glyph-name="Tcaron" unicode="&#x164;" horiz-adv-x="1198" 
d="M25 1020v270h1146v-270h-426v-1020h-294v1020h-426zM240 1649l125 118l235 -180l236 180l125 -118l-285 -254h-152z" />
    <glyph glyph-name="tcaron" unicode="&#x165;" horiz-adv-x="794" 
d="M61 344v946h275v-280h305v-230h-309v-405q0 -156 192 -156q64 0 144 17v-232q-119 -29 -213 -29q-177 0 -285.5 92t-108.5 277zM451 1094h198l80 309h-207z" />
    <glyph glyph-name="Umacron" unicode="&#x16a;" horiz-adv-x="1363" 
d="M82 582v708h293v-708q0 -162 81 -251t236 -89q153 0 224 91t71 249v708h295v-708q0 -303 -156.5 -455t-433.5 -152q-130 0 -239 37t-193 110t-131 190.5t-47 269.5zM358 1417v187h646v-187h-646z" />
    <glyph glyph-name="umacron" unicode="&#x16b;" horiz-adv-x="1069" 
d="M51 451v559h271v-566q0 -219 213 -219t213 219v566h270v-559q0 -240 -130.5 -358t-352.5 -118t-353 118t-131 358zM211 1137v186h645v-186h-645z" />
    <glyph glyph-name="Uring" unicode="&#x16e;" horiz-adv-x="1363" 
d="M82 582v708h293v-708q0 -162 81 -251t236 -89q153 0 224 91t71 249v708h295v-708q0 -303 -156.5 -455t-433.5 -152q-130 0 -239 37t-193 110t-131 190.5t-47 269.5zM481 1554q0 89 59 137t142 48t142 -48t59 -137t-59 -137.5t-142 -48.5t-142 48.5t-59 137.5zM596 1554
q0 -34 22.5 -54.5t63.5 -20.5q39 0 61.5 20.5t22.5 54.5q0 33 -22.5 53.5t-61.5 20.5q-40 0 -63 -20.5t-23 -53.5z" />
    <glyph glyph-name="uring" unicode="&#x16f;" horiz-adv-x="1069" 
d="M51 451v559h271v-566q0 -219 213 -219t213 219v566h270v-559q0 -240 -130.5 -358t-352.5 -118t-353 118t-131 358zM334 1274q0 88 59 136t142 48t141.5 -47.5t58.5 -136.5t-59 -138t-141 -49q-83 0 -142 49t-59 138zM449 1274q0 -34 22.5 -55t63.5 -21q39 0 61 21t22 55
q0 33 -22 53.5t-61 20.5q-40 0 -63 -20.5t-23 -53.5z" />
    <glyph glyph-name="Uhungarumlaut" unicode="&#x170;" horiz-adv-x="1363" 
d="M82 582v708h293v-708q0 -162 81 -251t236 -89q153 0 224 91t71 249v708h295v-708q0 -303 -156.5 -455t-433.5 -152q-130 0 -239 37t-193 110t-131 190.5t-47 269.5zM365 1481l337 366l172 -141l-370 -340zM743 1481l338 366l172 -141l-370 -340z" />
    <glyph glyph-name="uhungarumlaut" unicode="&#x171;" horiz-adv-x="1069" 
d="M51 451v559h271v-566q0 -219 213 -219t213 219v566h270v-559q0 -240 -130.5 -358t-352.5 -118t-353 118t-131 358zM217 1200l338 367l172 -142l-371 -340zM596 1200l338 367l172 -142l-371 -340z" />
    <glyph glyph-name="Uogonek" unicode="&#x172;" horiz-adv-x="1363" 
d="M82 582v708h293v-708q0 -162 81 -251t236 -89q153 0 224 91t71 249v708h295v-708q0 -284 -137.5 -435.5t-384.5 -169.5q-60 -99 -60 -163q0 -26 14 -43t40 -17q36 0 73 33l88 -117q-38 -35 -92.5 -57.5t-111.5 -22.5q-105 0 -160 52t-55 131q0 89 82 211
q-225 31 -360.5 182t-135.5 416z" />
    <glyph glyph-name="uogonek" unicode="&#x173;" horiz-adv-x="1069" 
d="M51 451v559h271v-566q0 -219 213 -219t213 219v566h270v-559q0 -219 -110 -336t-300 -135q-59 -101 -59 -166q0 -26 13.5 -43t39.5 -17q37 0 74 33l88 -117q-38 -34 -93 -57t-112 -23q-105 0 -160 52t-55 131q0 89 82 211q-175 26 -275 142t-100 325z" />
    <glyph glyph-name="Ydieresis" unicode="&#x178;" horiz-adv-x="1337" 
d="M-10 1290h348l326 -514l325 514h359l-547 -776v-514h-293v514zM334 1556q0 63 40 98.5t95 35.5q53 0 93 -36t40 -98q0 -61 -40 -96t-93 -35q-55 0 -95 35t-40 96zM737 1556q0 63 40 98.5t95 35.5q54 0 94 -36t40 -98q0 -61 -40 -96t-94 -35q-55 0 -95 35t-40 96z" />
    <glyph glyph-name="Zacute" unicode="&#x179;" horiz-adv-x="1114" 
d="M20 0v248l668 772h-665v270h1040v-250l-668 -770h699v-270h-1074zM256 1552l500 205l82 -207l-516 -166z" />
    <glyph glyph-name="zacute" unicode="&#x17a;" horiz-adv-x="1024" 
d="M82 0v219l479 553h-465v238h834v-234l-492 -538h504v-238h-860zM223 1272l500 205l82 -207l-516 -166z" />
    <glyph glyph-name="Zdotaccent" unicode="&#x17b;" horiz-adv-x="1114" 
d="M20 0v248l668 772h-665v270h1040v-250l-668 -770h699v-270h-1074zM385 1624q0 74 47 115t111 41q63 0 109 -41t46 -115q0 -72 -46 -113t-109 -41t-110.5 41t-47.5 113z" />
    <glyph glyph-name="zdotaccent" unicode="&#x17c;" horiz-adv-x="1024" 
d="M82 0v219l479 553h-465v238h834v-234l-492 -538h504v-238h-860zM352 1343q0 74 47 115t111 41q63 0 109.5 -41t46.5 -115q0 -72 -46.5 -112.5t-109.5 -40.5q-64 0 -111 40.5t-47 112.5z" />
    <glyph glyph-name="Zcaron" unicode="&#x17d;" horiz-adv-x="1114" 
d="M20 0v248l668 772h-665v270h1040v-250l-668 -770h699v-270h-1074zM182 1649l125 118l236 -180l235 180l125 -118l-285 -254h-151z" />
    <glyph glyph-name="zcaron" unicode="&#x17e;" horiz-adv-x="1024" 
d="M82 0v219l479 553h-465v238h834v-234l-492 -538h504v-238h-860zM150 1368l124 119l236 -180l235 180l125 -119l-284 -254h-152z" />
    <glyph glyph-name="Scommaaccent" unicode="&#x218;" horiz-adv-x="1118" 
d="M8 373h268q17 -73 90 -111.5t193 -38.5q118 0 178 34t60 110q0 32 -26 54.5t-70 37t-101 26t-120 25t-126 31.5t-120 48.5t-101 71t-70 105t-26 145.5q0 125 69 217.5t188 139.5t271 47q229 0 357.5 -108t144.5 -283h-283q-14 66 -70.5 105.5t-156.5 39.5
q-101 0 -157 -37t-56 -108q0 -43 32.5 -73.5t86.5 -47t122.5 -34t139.5 -32.5t139.5 -43.5t122.5 -66t86.5 -101t32.5 -147.5q0 -190 -145 -297t-406 -107q-246 0 -386 108.5t-161 289.5zM350 -453h234l82 355h-234z" />
    <glyph glyph-name="scommaaccent" unicode="&#x219;" horiz-adv-x="966" 
d="M20 299h267q9 -49 58 -77.5t134 -28.5q91 0 146 26t55 70q0 28 -35.5 47t-92 31t-125 25t-137.5 35.5t-125.5 54.5t-92 89.5t-35.5 135.5q0 152 128 239.5t331 87.5q218 0 328 -88.5t118 -238.5h-280q-8 48 -54.5 79t-118.5 31q-78 0 -124 -25.5t-46 -72.5
q0 -29 28 -49.5t73.5 -32t103.5 -25t119 -25.5t119 -35.5t103.5 -54t73.5 -82t28 -118.5q0 -105 -67.5 -179t-174 -108.5t-240.5 -34.5q-221 0 -337 84.5t-128 239.5zM291 -453h233l82 355h-233z" />
    <glyph glyph-name="uni021A" unicode="&#x21a;" horiz-adv-x="1198" 
d="M25 1020v270h1146v-270h-426v-1020h-294v1020h-426zM410 -453h233l82 355h-233z" />
    <glyph glyph-name="uni021B" unicode="&#x21b;" horiz-adv-x="710" 
d="M61 344v946h275v-280h305v-230h-309v-405q0 -156 192 -156q64 0 144 17v-232q-119 -29 -213 -29q-177 0 -285.5 92t-108.5 277zM178 -453h234l82 355h-234z" />
    <glyph glyph-name="circumflex" unicode="&#x2c6;" horiz-adv-x="1024" 
d="M152 1227l284 254h152l284 -254l-124 -119l-236 178l-236 -178z" />
    <glyph glyph-name="ring" unicode="&#x2da;" horiz-adv-x="1024" 
d="M311 1274q0 88 59 136t142 48t142 -48t59 -136q0 -89 -59 -138t-142 -49t-142 49t-59 138zM426 1274q0 -34 22.5 -55t63.5 -21q39 0 61.5 21t22.5 55q0 33 -22.5 53.5t-61.5 20.5q-40 0 -63 -20.5t-23 -53.5z" />
    <glyph glyph-name="tilde" unicode="&#x2dc;" horiz-adv-x="1024" 
d="M104 1188q21 71 85.5 139t144.5 68q56 0 164 -31t149 -31q44 0 70 22.5t45 67.5l158 -49q-71 -239 -265 -239q-65 0 -160 28.5t-128 28.5q-65 0 -97 -84z" />
    <glyph glyph-name="afii10023" unicode="&#x401;" horiz-adv-x="1083" 
d="M82 401v889h905v-270h-612v-240h571v-270h-571v-94q0 -146 168 -146h454v-270h-491q-199 0 -311.5 100t-112.5 301zM203 1556q0 63 40 98.5t95 35.5q53 0 93 -36t40 -98q0 -61 -40 -96t-93 -35q-55 0 -95 35t-40 96zM606 1556q0 63 40 98.5t95 35.5q53 0 93 -36t40 -98
q0 -61 -40 -96t-93 -35q-55 0 -95 35t-40 96z" />
    <glyph glyph-name="afii10051" unicode="&#x402;" horiz-adv-x="1488" 
d="M25 1020v270h1146v-270h-426v-213q98 45 242 45q94 0 174.5 -25t137 -67t96.5 -99t59 -120.5t19 -130.5q0 -84 -30 -160.5t-87 -138.5t-149 -99t-206 -37q-27 0 -106 9v239q32 -4 47 -4q111 0 172.5 54t61.5 128t-60 129.5t-164 55.5q-115 0 -207 -47v-539h-294v1020
h-426z" />
    <glyph glyph-name="afii10052" unicode="&#x403;" horiz-adv-x="935" 
d="M82 0v1290h827v-270h-534v-1020h-293zM211 1552l500 205l82 -207l-517 -166z" />
    <glyph glyph-name="afii10053" unicode="&#x404;" horiz-adv-x="1310" 
d="M27 643q0 307 174 489.5t483 182.5q237 0 392 -116.5t161 -278.5h-299q-22 53 -92.5 92t-161.5 39q-139 0 -229.5 -76.5t-120.5 -208.5h545v-254h-545q30 -125 120.5 -197.5t229.5 -72.5q92 0 165.5 39t94.5 92h299q-6 -162 -164.5 -280t-394.5 -118q-309 0 -483 182
t-174 486z" />
    <glyph glyph-name="afii10054" unicode="&#x405;" horiz-adv-x="1118" 
d="M8 373h268q17 -73 90 -111.5t193 -38.5q118 0 178 34t60 110q0 32 -26 54.5t-70 37t-101 26t-120 25t-126 31.5t-120 48.5t-101 71t-70 105t-26 145.5q0 125 69 217.5t188 139.5t271 47q229 0 357.5 -108t144.5 -283h-283q-14 66 -70.5 105.5t-156.5 39.5
q-101 0 -157 -37t-56 -108q0 -43 32.5 -73.5t86.5 -47t122.5 -34t139.5 -32.5t139.5 -43.5t122.5 -66t86.5 -101t32.5 -147.5q0 -190 -145 -297t-406 -107q-246 0 -386 108.5t-161 289.5z" />
    <glyph glyph-name="afii10055" unicode="&#x406;" horiz-adv-x="456" 
d="M82 0v1290h293v-1290h-293z" />
    <glyph glyph-name="afii10056" unicode="&#x407;" horiz-adv-x="456" 
d="M-106 1556q0 63 40 98.5t95 35.5q53 0 93 -36t40 -98q0 -61 -40 -96t-93 -35q-55 0 -95 35t-40 96zM82 0v1290h293v-1290h-293zM297 1556q0 63 40 98.5t95 35.5q53 0 93 -36t40 -98q0 -61 -40 -96t-93 -35q-55 0 -95 35t-40 96z" />
    <glyph glyph-name="afii10057" unicode="&#x408;" horiz-adv-x="831" 
d="M53 -25v267q111 0 192 28t126 77t65.5 107t20.5 126v440h-357v270h650v-710q0 -103 -26.5 -193t-82 -166t-136.5 -130.5t-196.5 -85t-255.5 -30.5z" />
    <glyph glyph-name="afii10058" unicode="&#x409;" horiz-adv-x="2043" 
d="M51 -18v270q113 0 156 57.5t43 177.5v803h1057v-520h245q123 0 215.5 -30t146 -82.5t79.5 -117t26 -141.5q0 -177 -133.5 -288t-341.5 -111h-530v1020h-471v-520q0 -267 -128 -392.5t-364 -125.5zM1307 262h260q82 0 124 37.5t42 95.5q0 57 -45.5 96t-124.5 39h-256v-268
z" />
    <glyph glyph-name="afii10059" unicode="&#x40a;" horiz-adv-x="2025" 
d="M82 0v1290h293v-518h618v518h293v-518h246q123 -1 216 -31t147 -83t80 -117.5t26 -141.5q0 -178 -133.5 -288.5t-343.5 -110.5h-531v530h-618v-530h-293zM1286 262h260q82 0 124 37.5t42 95.5q0 57 -45.5 96t-124.5 39h-256v-268z" />
    <glyph glyph-name="afii10060" unicode="&#x40b;" horiz-adv-x="1538" 
d="M25 1020v270h1146v-270h-426v-213q113 55 279 55q68 0 128.5 -11.5t119 -40.5t100.5 -73t68 -115t26 -161v-461h-292v416q0 168 -203 168q-120 0 -226 -45v-539h-294v1020h-426z" />
    <glyph glyph-name="afii10061" unicode="&#x40c;" horiz-adv-x="1200" 
d="M82 0v1290h293v-504h71l312 504h332l-371 -542q62 -10 130 -104.5t117.5 -207t110 -246t97.5 -190.5h-330q-20 26 -48.5 92t-57 135t-62.5 136t-79 110t-93 43h-129v-516h-293zM293 1552l500 205l81 -207l-516 -166z" />
    <glyph glyph-name="afii10062" unicode="&#x40e;" horiz-adv-x="1183" 
d="M51 1290h357l225 -540l223 540h297l-375 -913q-56 -139 -129.5 -221.5t-191 -127t-297.5 -53.5l-19 263q120 -7 213 26.5t125 110.5l8 20zM268 1714h203q2 -64 35.5 -102.5t97.5 -38.5q65 0 98.5 38t36.5 103h203q-3 -153 -97 -236t-241 -83q-146 0 -239.5 83t-96.5 236z
" />
    <glyph glyph-name="afii10145" unicode="&#x40f;" horiz-adv-x="1267" 
d="M82 0v1290h293v-1020h516v1020h295v-1290h-432v-256h-238v256h-434z" />
    <glyph glyph-name="afii10017" unicode="&#x410;" horiz-adv-x="1400" 
d="M4 0l531 1290l335 -2l527 -1288h-320l-96 236h-563l-86 -236h-328zM516 506h356l-188 465z" />
    <glyph glyph-name="afii10018" unicode="&#x411;" horiz-adv-x="1175" 
d="M82 0v1290h864v-262h-571v-258h307q124 0 217 -30t146.5 -82.5t79.5 -117t26 -141.5q0 -178 -133.5 -288.5t-343.5 -110.5h-592zM375 262h321q82 0 124 37.5t42 95.5q0 57 -45.5 96t-124.5 39h-317v-268z" />
    <glyph glyph-name="afii10019" unicode="&#x412;" horiz-adv-x="1150" 
d="M82 0v1290h596q111 0 197.5 -30t137.5 -81t77 -112t26 -129q0 -81 -55 -156t-152 -110q109 -41 175.5 -119t66.5 -188q0 -175 -130.5 -270t-346.5 -95h-592zM375 262h321q82 0 124 37.5t42 95.5q0 57 -45.5 96t-124.5 39h-317v-268zM375 770h307q68 0 105.5 38.5
t37.5 92.5q0 53 -37.5 90t-105.5 37h-307v-258z" />
    <glyph glyph-name="afii10020" unicode="&#x413;" horiz-adv-x="935" 
d="M82 0v1290h827v-270h-534v-1020h-293z" />
    <glyph glyph-name="afii10021" unicode="&#x414;" horiz-adv-x="1456" 
d="M35 -256v526h119q59 105 89 173.5t51 177t21 251.5v418h973v-1020h131v-526h-237v256h-910v-256h-237zM457 270h540v750h-387v-146q2 -142 -20.5 -260.5t-53 -190t-79.5 -153.5z" />
    <glyph glyph-name="afii10022" unicode="&#x415;" horiz-adv-x="1083" 
d="M82 401v889h905v-270h-612v-240h571v-270h-571v-94q0 -146 168 -146h454v-270h-491q-199 0 -311.5 100t-112.5 301z" />
    <glyph glyph-name="afii10024" unicode="&#x416;" horiz-adv-x="1802" 
d="M25 0q34 58 90.5 192.5t103 246t106.5 205.5t111 104l-358 542h334l309 -504h33v504h293v-504h32l312 504h331l-356 -542q50 -10 110 -104t106.5 -205.5t103 -246t90.5 -192.5h-332q-18 30 -52.5 124.5t-65.5 176t-80 148.5t-99 67h-100v-516h-293v516h-99q-50 0 -99 -67
t-80 -148.5t-66 -175.5t-54 -125h-331z" />
    <glyph glyph-name="afii10025" unicode="&#x417;" horiz-adv-x="1251" 
d="M76 373h268q18 -75 81 -112.5t185 -37.5q119 0 186.5 43t67.5 125q0 64 -64 105t-179 41h-207v223h198q103 0 158 43.5t55 116.5q0 68 -59 108.5t-164 40.5q-93 0 -146 -39.5t-67 -105.5h-280q4 81 36 150.5t91 124t151.5 85.5t208.5 31q144 0 261.5 -46t189 -138
t71.5 -213q0 -74 -47.5 -142t-126.5 -108q98 -34 153.5 -103.5t55.5 -171.5q0 -104 -44 -185.5t-120 -131.5t-173.5 -75.5t-209.5 -25.5q-125 0 -225.5 31.5t-164.5 87t-99.5 126.5t-40.5 153z" />
    <glyph glyph-name="afii10026" unicode="&#x418;" horiz-adv-x="1421" 
d="M123 0v1290h293v-782l633 782h249v-1290h-292v819l-656 -819h-227z" />
    <glyph glyph-name="afii10027" unicode="&#x419;" horiz-adv-x="1421" 
d="M123 0v1290h293v-782l633 782h249v-1290h-292v819l-656 -819h-227zM375 1714h203q2 -64 35.5 -102.5t97.5 -38.5q65 0 98.5 38t36.5 103h203q-3 -153 -97 -236t-241 -83q-146 0 -239.5 83t-96.5 236z" />
    <glyph glyph-name="afii10028" unicode="&#x41a;" horiz-adv-x="1200" 
d="M82 0v1290h293v-504h71l312 504h332l-371 -542q62 -10 130 -104.5t117.5 -207t110 -246t97.5 -190.5h-330q-20 26 -48.5 92t-57 135t-62.5 136t-79 110t-93 43h-129v-516h-293z" />
    <glyph glyph-name="afii10029" unicode="&#x41b;" horiz-adv-x="1388" 
d="M51 -18v270q113 0 156 57.5t43 177.5v803h1057v-1290h-293v1020h-471v-520q0 -267 -128 -392.5t-364 -125.5z" />
    <glyph glyph-name="afii10030" unicode="&#x41c;" horiz-adv-x="1583" 
d="M82 0v1290h305l406 -616l403 616h305v-1290h-293v831l-307 -485h-219l-307 485v-831h-293z" />
    <glyph glyph-name="afii10031" unicode="&#x41d;" horiz-adv-x="1368" 
d="M82 0v1290h293v-520h618v520h293v-1290h-293v500h-618v-500h-293z" />
    <glyph glyph-name="afii10032" unicode="&#x41e;" horiz-adv-x="1396" 
d="M27 643q0 307 178 489.5t493 182.5t493.5 -183.5t178.5 -490.5q0 -302 -178.5 -484t-493.5 -182t-493 182t-178 486zM322 637q0 -177 99.5 -286t278.5 -109t279 109.5t100 285.5q0 186 -100 300t-279 114t-278.5 -113.5t-99.5 -300.5z" />
    <glyph glyph-name="afii10033" unicode="&#x41f;" horiz-adv-x="1302" 
d="M82 0v1290h1139v-1290h-293v1020h-553v-1020h-293z" />
    <glyph glyph-name="afii10034" unicode="&#x420;" horiz-adv-x="1161" 
d="M82 0v913q0 176 101 276.5t290 100.5h170q95 0 176.5 -26.5t138 -71.5t97 -105.5t59.5 -128t19 -139.5t-19 -140.5t-59.5 -129t-97 -105.5t-137.5 -71.5t-177 -26.5h-268v-346h-293zM375 616h262q101 0 157 60t56 143q0 82 -56 141.5t-157 59.5h-141q-64 0 -92.5 -29.5
t-28.5 -87.5v-287z" />
    <glyph glyph-name="afii10035" unicode="&#x421;" horiz-adv-x="1259" 
d="M27 643q0 307 174 489.5t483 182.5q237 0 392 -116.5t161 -278.5h-332q-23 56 -78 93.5t-143 37.5q-173 0 -269 -113.5t-96 -300.5q0 -177 96 -286t269 -109q89 0 147 37.5t80 93.5h332q-6 -162 -164.5 -280t-394.5 -118q-309 0 -483 182t-174 486z" />
    <glyph glyph-name="afii10036" unicode="&#x422;" horiz-adv-x="1198" 
d="M25 1020v270h1146v-270h-426v-1020h-294v1020h-426z" />
    <glyph glyph-name="afii10037" unicode="&#x423;" horiz-adv-x="1183" 
d="M51 1290h357l225 -540l223 540h297l-375 -913q-56 -139 -129.5 -221.5t-191 -127t-297.5 -53.5l-19 263q120 -7 213 26.5t125 110.5l8 20z" />
    <glyph glyph-name="afii10038" unicode="&#x424;" horiz-adv-x="1355" 
d="M27 643q0 125 44 225.5t120 163.5t171 97.5t203 39.5v121h228v-121q106 -5 200.5 -40.5t170.5 -98t120.5 -162.5t44.5 -225q0 -119 -44.5 -217.5t-120 -163t-171 -101.5t-200.5 -42v-119h-228v119q-107 5 -203 41.5t-171 101t-119.5 163.5t-44.5 218zM322 645
q0 -141 68 -214.5t177 -84.5v598q-108 -10 -176.5 -84.5t-68.5 -214.5zM793 346q107 11 175 85.5t68 213.5q0 138 -68 213t-175 86v-598z" />
    <glyph glyph-name="afii10039" unicode="&#x425;" horiz-adv-x="1320" 
d="M10 0l453 645l-451 645h355l295 -442l290 442h340l-446 -643l469 -647h-361l-307 432l-285 -432h-352z" />
    <glyph glyph-name="afii10040" unicode="&#x426;" horiz-adv-x="1351" 
d="M82 0v1290h293v-1020h516v1020h295v-1020h129v-526h-238v256h-995z" />
    <glyph glyph-name="afii10041" unicode="&#x427;" horiz-adv-x="1212" 
d="M106 784v506h293v-473q0 -76 44 -121.5t110 -55t142 5.5t141 52v592h294v-1290h-294v424q-48 -28 -110 -45.5t-131.5 -20.5t-138.5 7t-132 41.5t-111.5 79.5t-77.5 125t-29 173z" />
    <glyph glyph-name="afii10042" unicode="&#x428;" horiz-adv-x="1820" 
d="M82 0v1290h293v-1020h389v1020h293v-1020h389v1020h293v-1290h-1657z" />
    <glyph glyph-name="afii10043" unicode="&#x429;" horiz-adv-x="1906" 
d="M82 0v1290h293v-1020h389v1020h293v-1020h389v1020h293v-1020h131v-526h-238v256h-1550z" />
    <glyph glyph-name="afii10044" unicode="&#x42a;" horiz-adv-x="1155" 
d="M-49 1028v262h467v-262h-2v-258h246q100 0 180 -20t133 -54t88.5 -81.5t51 -101t15.5 -114.5q0 -178 -133.5 -288.5t-343.5 -110.5h-530v1028h-172zM416 262h260q82 0 124 37.5t42 95.5q0 57 -45.5 96t-124.5 39h-256v-268z" />
    <glyph glyph-name="afii10045" unicode="&#x42b;" horiz-adv-x="1513" 
d="M82 0v1290h293v-520h246q124 0 217 -30t146.5 -82.5t79.5 -117t26 -141.5q0 -178 -134 -288.5t-344 -110.5h-530zM375 262h260q82 0 124 37.5t42 95.5q0 57 -45.5 96t-124.5 39h-256v-268zM1139 0v1290h293v-1290h-293z" />
    <glyph glyph-name="afii10046" unicode="&#x42c;" horiz-adv-x="1114" 
d="M82 0v1290h293v-520h246q124 0 217 -30t146.5 -82.5t79.5 -117t26 -141.5q0 -178 -134 -288.5t-344 -110.5h-530zM375 262h260q82 0 124 37.5t42 95.5q0 57 -45.5 96t-124.5 39h-256v-268z" />
    <glyph glyph-name="afii10047" unicode="&#x42d;" horiz-adv-x="1308" 
d="M66 373h299q23 -53 96.5 -92t165.5 -39q138 0 228 72.5t120 197.5h-543v254h543q-28 132 -118.5 208.5t-229.5 76.5q-91 0 -162 -39t-94 -92h-299q4 105 73.5 194.5t196.5 145t285 55.5q308 0 481.5 -182.5t173.5 -489.5q0 -200 -76 -350t-225 -234t-354 -84
q-158 0 -286.5 56t-199.5 146.5t-75 195.5z" />
    <glyph glyph-name="afii10048" unicode="&#x42e;" horiz-adv-x="1888" 
d="M82 0v1290h293v-520h215q34 252 200 398.5t433 146.5q299 0 469 -184t170 -490q0 -302 -170.5 -484t-468.5 -182q-262 0 -427 141t-204 384h-217v-500h-293zM874 637q0 -176 92.5 -285.5t256.5 -109.5q162 0 254 109.5t92 285.5q0 186 -92 300t-254 114
q-164 0 -256.5 -113.5t-92.5 -300.5z" />
    <glyph glyph-name="afii10049" unicode="&#x42f;" horiz-adv-x="1189" 
d="M45 0q6 10 33.5 53t37.5 58.5t36.5 55t40.5 59.5t38.5 54t42.5 55t41 47t44 45.5t42 35.5q-71 29 -124.5 81.5t-83 115.5t-38.5 135t3 141.5t47 134t87.5 113t131 77.5t172.5 29h121q192 0 291.5 -100t99.5 -277v-913h-293v422h-125q-85 -66 -172.5 -193t-136.5 -229
h-336zM436 821q8 -35 26.5 -64t54.5 -47t83 -18h215v211q0 58 -28 87.5t-93 29.5h-92q-45 0 -81.5 -18t-55.5 -47t-28 -64t-1 -70z" />
    <glyph glyph-name="afii10065" unicode="&#x430;" horiz-adv-x="1103" 
d="M16 455q0 119 34 217t92.5 164.5t138 111.5t168.5 65.5t186 20.5q203 0 397 -88v-946h-270v98q-59 -56 -133 -89.5t-187 -33.5q-89 0 -166 31t-135.5 90t-91.5 151.5t-33 207.5zM289 467q0 -115 55.5 -185.5t159.5 -70.5q82 0 150 51.5t110 118.5v377q-85 28 -166 28
q-99 0 -171 -47t-105 -118t-33 -154z" />
    <glyph glyph-name="afii10066" unicode="&#x431;" horiz-adv-x="1087" 
d="M16 647q0 473 246 676q80 68 196 100.5t267 49t201 28.5v-244q-66 -16 -151 -26.5t-141 -15.5t-115.5 -24t-100.5 -54q-59 -48 -86.5 -101t-30.5 -129q45 54 123.5 90.5t183.5 36.5q96 0 179 -33t147 -96t100.5 -162.5t36.5 -224.5q0 -137 -39 -242t-110 -170t-166 -98
t-211 -33q-258 0 -393.5 180t-135.5 492zM303 504q0 -125 64 -203t184 -78q119 0 182.5 78t63.5 203q0 126 -63.5 205t-182.5 79q-120 0 -184 -79t-64 -205z" />
    <glyph glyph-name="afii10067" unicode="&#x432;" horiz-adv-x="1034" 
d="M72 0v1010h526q156 0 250 -78.5t94 -190.5q0 -69 -44 -133t-110 -84q77 -29 128 -90.5t51 -148.5q0 -131 -102 -208t-271 -77h-522zM342 223h233q55 0 84 26t29 66q0 39 -31.5 67t-83.5 28h-231v-187zM342 606h221q50 0 77.5 26.5t27.5 63.5t-27 63.5t-78 26.5h-221v-180
z" />
    <glyph glyph-name="afii10068" unicode="&#x433;" horiz-adv-x="806" 
d="M72 0v1010h698v-262h-428v-748h-270z" />
    <glyph glyph-name="afii10069" unicode="&#x434;" horiz-adv-x="1185" 
d="M14 -256v518h115q58 79 85.5 176.5t27.5 237.5v334h805v-748h102v-518h-231v256h-672v-256h-232zM401 262h375v486h-262v-72q0 -238 -113 -414z" />
    <glyph glyph-name="afii10070" unicode="&#x435;" horiz-adv-x="1097" 
d="M16 514q0 150 69 269.5t187 185t263 65.5q242 0 382 -149t140 -402q0 -48 -2 -73h-752q26 -94 95 -145.5t169 -51.5q154 0 203 82h281q-28 -152 -158.5 -236t-314.5 -84q-248 0 -405 148.5t-157 390.5zM295 616h487q-10 91 -71.5 150t-165.5 59q-97 0 -162.5 -54
t-87.5 -155z" />
    <glyph glyph-name="afii10072" unicode="&#x436;" horiz-adv-x="1499" 
d="M14 0q20 35 52 106t62 135.5t66 131.5t78.5 113.5t85.5 60.5l-288 463h288l213 -387h41v387h273v-387h41l213 387h288l-288 -463q43 -14 85.5 -60.5t78.5 -113.5t66 -131.5t62 -135.5t52 -106h-289q-14 28 -36 84.5t-40.5 98.5t-43 85.5t-54.5 67.5t-64 24h-71v-360h-273
v360h-71q-34 0 -64 -24t-54.5 -67.5t-43 -85.5t-40.5 -98.5t-36 -84.5h-289z" />
    <glyph glyph-name="afii10073" unicode="&#x437;" horiz-adv-x="960" 
d="M35 313h264q3 -43 47 -71.5t119 -28.5q170 0 170 109q0 38 -33 63t-96 25h-199v186h162q67 0 100 28.5t33 69.5q0 45 -37.5 74t-105.5 29q-65 0 -101 -28.5t-39 -70.5h-272q-2 61 22.5 120t73 107.5t129 78.5t179.5 30q189 0 305 -87t116 -245q0 -49 -27.5 -98t-78.5 -80
q70 -29 104.5 -77t34.5 -125q0 -73 -24.5 -132t-66.5 -98.5t-100 -66t-121.5 -38.5t-133.5 -12q-210 0 -319.5 97.5t-104.5 240.5z" />
    <glyph glyph-name="afii10074" unicode="&#x438;" horiz-adv-x="1062" 
d="M72 0v1010h270v-584l403 584h246v-1010h-270v586l-404 -586h-245z" />
    <glyph glyph-name="afii10075" unicode="&#x439;" horiz-adv-x="1062" 
d="M72 0v1010h270v-584l403 584h246v-1010h-270v586l-404 -586h-245zM197 1434h202q2 -64 35.5 -103t97.5 -39q65 0 99 38.5t37 103.5h202q-3 -153 -97 -236.5t-241 -83.5q-145 0 -238.5 83.5t-96.5 236.5z" />
    <glyph glyph-name="afii10076" unicode="&#x43a;" horiz-adv-x="1011" 
d="M72 0v1010h270v-387h45l217 387h307l-278 -459q55 -16 111 -88t92.5 -149t81.5 -176.5t67 -137.5h-326q-14 28 -37 83.5t-42.5 98t-44.5 86t-56 68t-65 24.5h-72v-360h-270z" />
    <glyph glyph-name="afii10077" unicode="&#x43b;" horiz-adv-x="1103" 
d="M25 -20v270q87 0 121 43.5t34 132.5v584h852v-1010h-270v739h-311v-305q0 -125 -30 -214.5t-88 -141t-133.5 -75t-174.5 -23.5z" />
    <glyph glyph-name="afii10078" unicode="&#x43c;" horiz-adv-x="1316" 
d="M72 0v1010h264l323 -435l322 435h264v-1010h-270v555l-211 -309h-211l-211 309v-555h-270z" />
    <glyph glyph-name="afii10079" unicode="&#x43d;" horiz-adv-x="1095" 
d="M72 0v1010h270v-389h410v389h272v-1010h-272v358h-410v-358h-270z" />
    <glyph glyph-name="afii10080" unicode="&#x43e;" horiz-adv-x="1079" 
d="M16 504q0 151 62 270.5t182.5 189.5t280.5 70q239 0 380.5 -149.5t141.5 -380.5q0 -152 -60 -270.5t-179.5 -188.5t-282.5 -70q-244 0 -384.5 148.5t-140.5 380.5zM287 504q0 -125 66 -203t188 -78t187 78t65 203q0 126 -65.5 205t-186.5 79q-122 0 -188 -79.5
t-66 -204.5z" />
    <glyph glyph-name="afii10081" unicode="&#x43f;" horiz-adv-x="1095" 
d="M72 0v1010h952v-1010h-272v748h-410v-748h-270z" />
    <glyph glyph-name="afii10082" unicode="&#x440;" horiz-adv-x="1118" 
d="M72 -385v903q0 231 137 373.5t381 142.5q121 0 218.5 -40t161.5 -111t98 -167.5t34 -209.5q0 -124 -40.5 -226.5t-109 -168t-155 -101t-181.5 -35.5q-139 0 -274 80v-440h-270zM342 324q102 -99 231 -99q107 0 181.5 74.5t74.5 206.5q0 127 -60.5 204.5t-178.5 77.5
q-122 0 -185 -68.5t-63 -191.5v-204z" />
    <glyph glyph-name="afii10083" unicode="&#x441;" horiz-adv-x="1030" 
d="M16 504q0 234 147 382t374 148q178 0 306.5 -99t151.5 -253h-280q-18 48 -64 77t-114 29q-121 0 -185.5 -77t-64.5 -207q0 -133 70 -207t188 -74q65 0 112 26.5t66 72.5h281q-25 -154 -156 -250.5t-311 -96.5q-146 0 -262.5 59.5t-187.5 181t-71 288.5z" />
    <glyph glyph-name="afii10084" unicode="&#x442;" horiz-adv-x="1083" 
d="M66 748v262h950v-262h-340v-748h-270v748h-340z" />
    <glyph glyph-name="afii10085" unicode="&#x443;" horiz-adv-x="1101" 
d="M51 -272l137 211q127 -103 299 -103q113 0 193 62t80 157v54q-114 -103 -301 -103q-65 0 -121.5 12t-109.5 42.5t-90.5 77.5t-60 121.5t-22.5 170.5v580h273v-521q0 -123 44.5 -178t155.5 -55q147 0 232 139v615h270v-949q0 -138 -70.5 -246t-194 -166.5t-278.5 -58.5
q-248 0 -436 138z" />
    <glyph glyph-name="afii10086" unicode="&#x444;" horiz-adv-x="1636" 
d="M16 506q0 153 52 270.5t159.5 187.5t255.5 70q117 0 201 -63v319h270v-319q81 63 199 63q223 0 345 -147t122 -381q0 -124 -35.5 -226t-95 -167.5t-135.5 -100.5t-160 -35q-124 0 -240 78v-440h-270v440q-119 -78 -242 -78q-83 0 -159 35.5t-136 100.5t-95.5 167
t-35.5 226zM289 506q0 -132 59.5 -207.5t147.5 -75.5q48 0 97.5 26t90.5 75v204q0 124 -49 192t-150 68q-100 0 -148 -76.5t-48 -205.5zM954 324q42 -49 92.5 -75t98.5 -26q86 0 145.5 75.5t59.5 207.5q0 129 -48 205.5t-149 76.5t-150 -68t-49 -192v-204z" />
    <glyph glyph-name="afii10087" unicode="&#x445;" horiz-adv-x="1036" 
d="M-23 0l365 514l-352 496h323l215 -318l213 318h312l-357 -488l363 -522h-328l-215 315l-217 -315h-322z" />
    <glyph glyph-name="afii10088" unicode="&#x446;" horiz-adv-x="1144" 
d="M72 0v1010h270v-748h393v748h271v-748h102v-518h-234v256h-802z" />
    <glyph glyph-name="afii10089" unicode="&#x447;" horiz-adv-x="1089" 
d="M72 600v410h270v-406q0 -80 44.5 -125.5t107.5 -50t132 19.5t119 72v490h273v-1010h-273v266q-57 -35 -128 -54.5t-146.5 -23t-146.5 20t-127.5 68.5t-90.5 128.5t-34 194.5z" />
    <glyph glyph-name="afii10090" unicode="&#x448;" horiz-adv-x="1607" 
d="M72 0v1010h270v-748h326v748h272v-748h326v748h270v-1010h-1464z" />
    <glyph glyph-name="afii10091" unicode="&#x449;" horiz-adv-x="1675" 
d="M72 0v1010h270v-748h326v748h272v-748h326v748h270v-748h102v-518h-233v256h-1333z" />
    <glyph glyph-name="afii10092" unicode="&#x44a;" horiz-adv-x="987" 
d="M12 795v215h402v-283h172q98 0 173.5 -30t120.5 -81.5t68 -114.5t23 -134q0 -159 -109.5 -263t-277.5 -104h-441v795h-131zM414 248h153q62 0 96.5 34t34.5 80q0 48 -34.5 82.5t-98.5 34.5h-151v-231z" />
    <glyph glyph-name="afii10093" unicode="&#x44b;" horiz-adv-x="1349" 
d="M72 0v1010h270v-283h172q98 0 173.5 -30t120.5 -81.5t68 -114.5t23 -134q0 -159 -109.5 -263t-277.5 -104h-440zM342 248h154q62 0 96.5 34t34.5 80q0 48 -34.5 82.5t-98.5 34.5h-152v-231zM1008 0v1010h270v-1010h-270z" />
    <glyph glyph-name="afii10094" unicode="&#x44c;" horiz-adv-x="915" 
d="M72 0v1010h270v-283h172q98 0 173.5 -30t120.5 -81.5t68 -114.5t23 -134q0 -159 -109.5 -263t-277.5 -104h-440zM342 248h154q62 0 96.5 34t34.5 80q0 48 -34.5 82.5t-98.5 34.5h-152v-231z" />
    <glyph glyph-name="afii10095" unicode="&#x44d;" horiz-adv-x="1056" 
d="M55 313h299q18 -40 66 -65t117 -25q82 0 141.5 50.5t81.5 134.5h-395v198h391q-25 84 -84 132t-140 48q-63 0 -108 -26t-64 -62h-297q9 140 140 238t332 98q232 0 368.5 -141t136.5 -391t-131 -388.5t-368 -138.5q-205 0 -340 97t-146 241z" />
    <glyph glyph-name="afii10096" unicode="&#x44e;" horiz-adv-x="1519" 
d="M72 0v1010h270v-385h152q31 195 162 302t337 107q236 0 373 -141.5t137 -390.5q0 -248 -136.5 -387.5t-373.5 -139.5q-201 0 -330.5 101t-166.5 286h-154v-362h-270zM754 496q0 -112 64 -184t175 -72t175.5 72t64.5 184q0 122 -64 197t-176 75t-175.5 -75t-63.5 -197z
" />
    <glyph glyph-name="afii10097" unicode="&#x44f;" horiz-adv-x="1017" 
d="M27 0q171 263 288 342q-80 38 -130.5 104t-65 139.5t3 149.5t63 137t126.5 99.5t182 38.5h137q315 0 315 -330v-680h-270v287h-105q-56 -40 -119.5 -131t-93.5 -156h-331zM385 616.5q7 -31.5 38 -53.5t77 -22h174v143q0 36 -16.5 54t-55.5 18h-104q-44 0 -74.5 -22
t-38 -54t-0.5 -63.5z" />
    <glyph glyph-name="afii10071" unicode="&#x451;" horiz-adv-x="1097" 
d="M16 514q0 150 69 269.5t187 185t263 65.5q242 0 382 -149t140 -402q0 -48 -2 -73h-752q26 -94 95 -145.5t169 -51.5q154 0 203 82h281q-28 -152 -158.5 -236t-314.5 -84q-248 0 -405 148.5t-157 390.5zM207 1276q0 62 40 97.5t95 35.5q54 0 93.5 -35.5t39.5 -97.5
q0 -61 -40 -96t-93 -35q-55 0 -95 35t-40 96zM295 616h487q-10 91 -71.5 150t-165.5 59q-97 0 -162.5 -54t-87.5 -155zM610 1276q0 62 40 97.5t95 35.5q54 0 94 -35.5t40 -97.5q0 -61 -40 -96t-94 -35q-55 0 -95 35t-40 96z" />
    <glyph glyph-name="afii10099" unicode="&#x452;" horiz-adv-x="1177" 
d="M-20 1040v213h133v150h270v-150h281v-213h-281v-194q48 29 110 47.5t131 23.5t137.5 -3t130.5 -38t109.5 -76.5t76 -122t28.5 -171.5v-463q0 -233 -108 -343t-353 -110v252q60 0 98.5 12t58 40t26 61.5t6.5 87.5v430q0 76 -46 122t-114.5 55.5t-146.5 -5.5t-144 -53v-592
h-270v1040h-133z" />
    <glyph glyph-name="afii10100" unicode="&#x453;" horiz-adv-x="806" 
d="M72 0v1010h698v-262h-428v-748h-270zM215 1274l500 205l82 -207l-516 -166z" />
    <glyph glyph-name="afii10101" unicode="&#x454;" horiz-adv-x="1058" 
d="M16 502q0 250 136.5 391t369.5 141q203 0 332.5 -98t138.5 -238h-297q-17 36 -62.5 62t-109.5 26q-81 0 -139.5 -48t-83.5 -132h393v-198h-397q24 -85 83.5 -135t141.5 -50q68 0 115 25t65 65h299q-11 -144 -145.5 -241t-339.5 -97q-237 0 -368.5 139t-131.5 388z" />
    <glyph glyph-name="afii10102" unicode="&#x455;" horiz-adv-x="966" 
d="M20 299h267q9 -49 58 -77.5t134 -28.5q91 0 146 26t55 70q0 28 -35.5 47t-92 31t-125 25t-137.5 35.5t-125.5 54.5t-92 89.5t-35.5 135.5q0 152 128 239.5t331 87.5q218 0 328 -88.5t118 -238.5h-280q-8 48 -54.5 79t-118.5 31q-78 0 -124 -25.5t-46 -72.5
q0 -29 28 -49.5t73.5 -32t103.5 -25t119 -25.5t119 -35.5t103.5 -54t73.5 -82t28 -118.5q0 -105 -67.5 -179t-174 -108.5t-240.5 -34.5q-221 0 -337 84.5t-128 239.5z" />
    <glyph glyph-name="afii10103" unicode="&#x456;" 
d="M49 1343q0 74 47 115t111 41q63 0 109 -41t46 -115q0 -72 -46 -112.5t-109 -40.5q-64 0 -111 40.5t-47 112.5zM72 0v1010h270v-1010h-270z" />
    <glyph glyph-name="afii10104" unicode="&#x457;" 
d="M-129 1276q0 62 40 97.5t95 35.5q54 0 93.5 -35.5t39.5 -97.5q0 -61 -40 -96t-93 -35q-55 0 -95 35t-40 96zM72 0v1010h270v-1010h-270zM274 1276q0 62 40.5 97.5t95.5 35.5q54 0 93.5 -35.5t39.5 -97.5q0 -61 -40 -96t-93 -35q-55 0 -95.5 35t-40.5 96z" />
    <glyph glyph-name="afii10105" unicode="&#x458;" horiz-adv-x="460" 
d="M-86 -158q60 0 97.5 12.5t57 40t26.5 61t7 87.5v967h271v-967q0 -233 -107.5 -343t-351.5 -110v252zM80 1343q0 74 47 115t111 41q63 0 109 -41t46 -115q0 -72 -46 -112.5t-109 -40.5q-64 0 -111 40.5t-47 112.5z" />
    <glyph glyph-name="afii10106" unicode="&#x459;" horiz-adv-x="1605" 
d="M25 -20v270q87 0 121 43.5t34 132.5v584h852v-283h172q98 0 173.5 -30t120.5 -81.5t68 -114.5t23 -134q0 -159 -109.5 -263t-277.5 -104h-440v739h-311v-305q0 -125 -30 -214.5t-88 -141t-133.5 -75t-174.5 -23.5zM1034 248h154q62 0 96.5 34t34.5 80q0 48 -34.5 82.5
t-98.5 34.5h-152v-231z" />
    <glyph glyph-name="afii10107" unicode="&#x45a;" horiz-adv-x="1597" 
d="M72 0v1010h270v-389h410v389h272v-283h170q98 0 174.5 -30t121.5 -81.5t68 -114.5t23 -134q0 -158 -110 -262.5t-279 -104.5h-440v358h-410v-358h-270zM1022 248h154q62 0 96.5 34t34.5 80q0 48 -34.5 82.5t-98.5 34.5h-152v-231z" />
    <glyph glyph-name="afii10108" unicode="&#x45b;" horiz-adv-x="1177" 
d="M-20 1040v213h133v150h270v-150h281v-213h-281v-194q48 29 110 47.5t131 23.5t137.5 -3t130.5 -38t109.5 -76.5t76 -122t28.5 -171.5v-506h-272v473q0 76 -46 122t-114.5 55.5t-146.5 -5.5t-144 -53v-592h-270v1040h-133z" />
    <glyph glyph-name="afii10109" unicode="&#x45c;" horiz-adv-x="1011" 
d="M72 0v1010h270v-387h45l217 387h307l-278 -459q55 -16 111 -88t92.5 -149t81.5 -176.5t67 -137.5h-326q-14 28 -37 83.5t-42.5 98t-44.5 86t-56 68t-65 24.5h-72v-360h-270zM215 1274l500 205l82 -207l-516 -166z" />
    <glyph glyph-name="afii10110" unicode="&#x45e;" horiz-adv-x="1101" 
d="M51 -272l137 211q127 -103 299 -103q113 0 193 62t80 157v54q-114 -103 -301 -103q-65 0 -121.5 12t-109.5 42.5t-90.5 77.5t-60 121.5t-22.5 170.5v580h273v-521q0 -123 44.5 -178t155.5 -55q147 0 232 139v615h270v-949q0 -138 -70.5 -246t-194 -166.5t-278.5 -58.5
q-248 0 -436 138zM195 1434h202q2 -64 35.5 -103t97.5 -39q65 0 99 38.5t37 103.5h202q-3 -153 -97 -236.5t-241 -83.5q-145 0 -238.5 83.5t-96.5 236.5z" />
    <glyph glyph-name="afii10193" unicode="&#x45f;" horiz-adv-x="1077" 
d="M72 0v1010h270v-748h393v748h271v-1010h-351v-256h-233v256h-350z" />
    <glyph glyph-name="afii10146" unicode="&#x462;" horiz-adv-x="1146" 
d="M-49 905v232h172v153h293v-153h258v-232h-258v-135h246q100 0 180 -20t133 -54t88.5 -81.5t51 -101t15.5 -114.5q0 -178 -133.5 -288.5t-343.5 -110.5h-530v905h-172zM416 262h260q82 0 124 37.5t42 95.5q0 57 -45.5 96t-124.5 39h-256v-268z" />
    <glyph glyph-name="afii10194" unicode="&#x463;" horiz-adv-x="956" 
d="M-20 811v199h133v393h270v-393h281v-199h-281v-115h172q98 0 173.5 -27.5t121 -76t68 -109.5t22.5 -133q0 -157 -108.5 -253.5t-278.5 -96.5h-440v811h-133zM383 248h154q64 0 97.5 27t33.5 71q0 46 -34 74.5t-99 28.5h-152v-201z" />
    <glyph glyph-name="afii10147" unicode="&#x472;" horiz-adv-x="1396" 
d="M27 643q0 307 178 489.5t493 182.5t493.5 -183.5t178.5 -490.5q0 -302 -178.5 -484t-493.5 -182t-493 182t-178 486zM328 727q62 30 143 35.5t154 -7.5t156.5 -25.5t152 -17.5t139.5 15q-24 148 -121 236t-252 88q-157 0 -253.5 -87t-118.5 -237zM338 510
q31 -124 125 -196t237 -72q146 0 239.5 73t125.5 199q-72 -17 -139.5 -10.5t-148 18t-150.5 23t-148 4t-141 -38.5z" />
    <glyph glyph-name="afii10195" unicode="&#x473;" horiz-adv-x="1099" 
d="M27 504q0 151 61.5 270.5t182 189.5t280.5 70q239 0 380.5 -149.5t141.5 -380.5q0 -152 -60 -270.5t-179.5 -188.5t-282.5 -70q-244 0 -384 148.5t-140 380.5zM303 569q43 27 89 35.5t85.5 2.5t83 -16t81 -21t79.5 -11.5t78 12.5q-16 98 -79.5 157.5t-168.5 59.5
q-104 0 -168 -60t-80 -159zM311 397q24 -81 85 -127.5t155 -46.5q93 0 153 47t84 129q-52 -14 -94 -6.5t-91 19t-91.5 22t-96 2.5t-104.5 -39z" />
    <glyph glyph-name="afii10148" unicode="&#x474;" horiz-adv-x="1466" 
d="M33 1290h334l358 -884l250 636q27 71 54.5 117t60.5 78.5t81 48.5t104 22.5t142 6.5v-266q-75 0 -112 -29t-76 -121l-379 -899h-275z" />
    <glyph glyph-name="afii10196" unicode="&#x475;" horiz-adv-x="1134" 
d="M-16 1010h295l280 -725l197 508q32 83 70 131.5t108 77t178 28.5v-239q-59 0 -90.5 -23.5t-60.5 -91.5l-277 -676h-272z" />
    <glyph glyph-name="afii10050" unicode="&#x490;" horiz-adv-x="976" 
d="M82 0v1290h596v234h272v-346h-41v-158h-534v-1020h-293z" />
    <glyph glyph-name="afii10098" unicode="&#x491;" horiz-adv-x="847" 
d="M72 0v1010h467v270h272v-346h-41v-186h-428v-748h-270z" />
    <glyph glyph-name="uni0492" unicode="&#x492;" horiz-adv-x="976" 
d="M-43 479v271h166v540h827v-270h-534v-270h329v-271h-329v-479h-293v479h-166z" />
    <glyph glyph-name="uni0493" unicode="&#x493;" horiz-adv-x="847" 
d="M-2 319v213h115v478h698v-262h-428v-216h244v-213h-244v-319h-270v319h-115z" />
    <glyph glyph-name="uni0496" unicode="&#x496;" horiz-adv-x="1802" 
d="M25 0q34 58 90.5 192.5t103 246t106.5 205.5t111 104l-358 542h334l309 -504h33v504h293v-504h32l312 504h331l-356 -542q24 -5 49 -26.5t50.5 -61t48 -79t50 -100.5t46 -105t47 -112.5t43.5 -103.5h106v-416h-237v256h-125q-18 30 -52.5 124.5t-65.5 176t-80 148.5
t-99 67h-100v-516h-293v516h-99q-50 0 -99 -67t-80 -148.5t-66 -175.5t-54 -125h-331z" />
    <glyph glyph-name="uni0497" unicode="&#x497;" horiz-adv-x="1499" 
d="M14 0q20 35 52 106t62 135.5t66 131.5t78.5 113.5t85.5 60.5l-288 463h288l213 -387h41v387h273v-387h41l213 387h288l-288 -463q31 -10 63.5 -40t56.5 -63t54.5 -90.5t47.5 -93.5t46 -100h86v-416h-238v256h-61q-14 28 -36 84.5t-40.5 98.5t-43 85.5t-54.5 67.5t-64 24
h-71v-360h-273v360h-71q-34 0 -64 -24t-54.5 -67.5t-43 -85.5t-40.5 -98.5t-36 -84.5h-289z" />
    <glyph glyph-name="uni049A" unicode="&#x49a;" horiz-adv-x="1232" 
d="M82 0v1290h293v-504h71l312 504h332l-371 -542q29 -5 58.5 -26.5t59 -61t54 -78.5t54.5 -101t49.5 -105t50 -113t45.5 -103h129v-416h-238v256h-137q-20 26 -48.5 92t-57 135t-62.5 136t-79 110t-93 43h-129v-516h-293z" />
    <glyph glyph-name="uni049B" unicode="&#x49b;" horiz-adv-x="1052" 
d="M72 0v1010h270v-387h45l217 387h307l-278 -459q27 -8 53.5 -28t52.5 -54t46 -64.5t45.5 -80.5t39.5 -80t39 -84h125v-416h-237v256h-138q-14 28 -37 83.5t-42.5 98t-44.5 86t-56 68t-65 24.5h-72v-360h-270z" />
    <glyph glyph-name="uni04A2" unicode="&#x4a2;" horiz-adv-x="1542" 
d="M82 0v1290h293v-520h618v520h293v-1130h133v-416h-237v256h-189v500h-618v-500h-293z" />
    <glyph glyph-name="uni04A3" unicode="&#x4a3;" horiz-adv-x="1175" 
d="M72 0v1010h270v-389h410v389h272v-850h125v-416h-238v256h-159v358h-410v-358h-270z" />
    <glyph glyph-name="uni04AE" unicode="&#x4ae;" horiz-adv-x="1337" 
d="M-10 1290h348l326 -514l325 514h359l-547 -776v-514h-293v514z" />
    <glyph glyph-name="uni04AF" unicode="&#x4af;" horiz-adv-x="1153" 
d="M12 1010h348l209 -351l213 351h357l-443 -611v-399h-272v399z" />
    <glyph glyph-name="uni04B0" unicode="&#x4b0;" horiz-adv-x="1419" 
d="M-10 1290h348l326 -514l325 514h359l-547 -776v-78h311v-248h-311v-188h-293v188h-232v248h232v78z" />
    <glyph glyph-name="uni04B1" unicode="&#x4b1;" horiz-adv-x="1153" 
d="M12 1010h348l209 -351l213 351h357l-443 -611v-67h178v-213h-178v-119h-272v119h-176v213h176v67z" />
    <glyph glyph-name="uni04B2" unicode="&#x4b2;" horiz-adv-x="1413" 
d="M10 0l453 645l-451 645h355l295 -442l290 442h340l-446 -643l352 -487h168v-416h-238v256h-174l-307 432l-285 -432h-352z" />
    <glyph glyph-name="uni04B3" unicode="&#x4b3;" horiz-adv-x="1118" 
d="M-23 0l365 514l-352 496h323l215 -318l213 318h312l-357 -488l252 -362h156v-416h-238v256h-135l-215 315l-217 -315h-322z" />
    <glyph glyph-name="uni04B6" unicode="&#x4b6;" horiz-adv-x="1316" 
d="M106 784v506h293v-473q0 -76 44 -121.5t110 -55t142 5.5t141 52v592h294v-1130h89v-416h-238v256h-145v424q-48 -28 -110 -45.5t-131.5 -20.5t-138.5 7t-132 41.5t-111.5 79.5t-77.5 125t-29 173z" />
    <glyph glyph-name="uni04B7" unicode="&#x4b7;" horiz-adv-x="1169" 
d="M72 600v410h270v-406q0 -80 44.5 -125.5t107.5 -50t132 19.5t119 72v490h273v-850h117v-416h-238v256h-152v266q-57 -35 -128 -54.5t-146.5 -23t-146.5 20t-127.5 68.5t-90.5 128.5t-34 194.5z" />
    <glyph glyph-name="uni04BA" unicode="&#x4ba;" horiz-adv-x="1159" 
d="M72 0v1290h293v-483q117 55 280 55q68 0 128.5 -11.5t119 -40.5t100.5 -73t68 -115t26 -161v-461h-294v416q0 168 -201 168q-117 0 -227 -45v-539h-293z" />
    <glyph glyph-name="uni04BB" unicode="&#x4bb;" horiz-adv-x="1136" 
d="M72 0v1290h270v-434q48 29 110 47.5t131 23.5t137.5 -3t130.5 -38t109.5 -76.5t76 -122t28.5 -171.5v-516h-272v483q0 76 -46 121.5t-114.5 55t-146.5 -6t-144 -53.5v-600h-270z" />
    <glyph glyph-name="uni04C0" unicode="&#x4c0;" horiz-adv-x="456" 
d="M82 0v1290h293v-1290h-293z" />
    <glyph glyph-name="uni04CF" unicode="&#x4cf;" 
d="M72 0v1010h270v-1010h-270z" />
    <glyph glyph-name="uni04D8" unicode="&#x4d8;" horiz-adv-x="1275" 
d="M27 459v237h927q-14 163 -106.5 259t-249.5 96q-97 0 -165.5 -40.5t-90.5 -97.5h-297q8 163 162.5 282.5t390.5 119.5q307 0 479 -182.5t172 -489.5q0 -305 -168.5 -486.5t-472.5 -181.5q-133 0 -244 40t-184 107.5t-113 154.5t-40 182zM322 459q6 -96 80 -156.5
t206 -60.5q120 0 202 57.5t118 159.5h-606z" />
    <glyph glyph-name="afii10846" unicode="&#x4d9;" horiz-adv-x="1013" 
d="M16 410v170h701q-21 95 -81 150.5t-147 55.5q-64 0 -109.5 -26t-62.5 -62h-292q9 140 136.5 238t327.5 98q234 0 371 -141t137 -391t-130 -388.5t-367 -138.5q-214 0 -349 117.5t-135 317.5zM293 383q11 -75 62 -117.5t141 -42.5q75 0 130.5 42.5t80.5 117.5h-414z" />
    <glyph glyph-name="uni04E2" unicode="&#x4e2;" horiz-adv-x="1421" 
d="M123 0v1290h293v-782l633 782h249v-1290h-292v819l-656 -819h-227zM387 1417v187h645v-187h-645z" />
    <glyph glyph-name="uni04E3" unicode="&#x4e3;" horiz-adv-x="1062" 
d="M72 0v1010h270v-584l403 584h246v-1010h-270v586l-404 -586h-245zM209 1137v186h645v-186h-645z" />
    <glyph glyph-name="uni04E8" unicode="&#x4e8;" horiz-adv-x="1396" 
d="M27 643q0 307 178 489.5t493 182.5t493.5 -183.5t178.5 -490.5q0 -302 -178.5 -484t-493.5 -182t-493 182t-178 486zM332 537q27 -136 122.5 -215.5t245.5 -79.5q152 0 248 79.5t123 215.5h-739zM336 768h729q-33 131 -127 207t-238 76q-145 0 -239 -75.5t-125 -207.5z
" />
    <glyph glyph-name="uni04E9" unicode="&#x4e9;" horiz-adv-x="1079" 
d="M16 504q0 151 62 270.5t182.5 189.5t280.5 70q239 0 380.5 -149.5t141.5 -380.5q0 -152 -60 -270.5t-179.5 -188.5t-282.5 -70q-244 0 -384.5 148.5t-140.5 380.5zM301 399q24 -81 85 -128.5t155 -47.5t154 47.5t83 128.5h-477zM301 612h475q-24 82 -83.5 129t-151.5 47
q-94 0 -155 -47.5t-85 -128.5z" />
    <glyph glyph-name="uni04EE" unicode="&#x4ee;" horiz-adv-x="1183" 
d="M51 1290h357l225 -540l223 540h297l-375 -913q-56 -139 -129.5 -221.5t-191 -127t-297.5 -53.5l-19 263q120 -7 213 26.5t125 110.5l8 20zM281 1417v187h645v-187h-645z" />
    <glyph glyph-name="uni04EF" unicode="&#x4ef;" horiz-adv-x="1101" 
d="M51 -272l137 211q127 -103 299 -103q113 0 193 62t80 157v54q-114 -103 -301 -103q-65 0 -121.5 12t-109.5 42.5t-90.5 77.5t-60 121.5t-22.5 170.5v580h273v-521q0 -123 44.5 -178t155.5 -55q147 0 232 139v615h270v-949q0 -138 -70.5 -246t-194 -166.5t-278.5 -58.5
q-248 0 -436 138zM207 1137v186h645v-186h-645z" />
    <glyph glyph-name="uni2000" unicode="&#x2000;" horiz-adv-x="935" 
 />
    <glyph glyph-name="uni2001" unicode="&#x2001;" horiz-adv-x="1870" 
 />
    <glyph glyph-name="uni2002" unicode="&#x2002;" horiz-adv-x="935" 
 />
    <glyph glyph-name="uni2003" unicode="&#x2003;" horiz-adv-x="1870" 
 />
    <glyph glyph-name="uni2004" unicode="&#x2004;" horiz-adv-x="623" 
 />
    <glyph glyph-name="uni2005" unicode="&#x2005;" horiz-adv-x="467" 
 />
    <glyph glyph-name="uni2006" unicode="&#x2006;" horiz-adv-x="311" 
 />
    <glyph glyph-name="uni2007" unicode="&#x2007;" horiz-adv-x="311" 
 />
    <glyph glyph-name="uni2008" unicode="&#x2008;" horiz-adv-x="233" 
 />
    <glyph glyph-name="uni2009" unicode="&#x2009;" horiz-adv-x="374" 
 />
    <glyph glyph-name="uni200A" unicode="&#x200a;" horiz-adv-x="103" 
 />
    <glyph glyph-name="uni2010" unicode="&#x2010;" horiz-adv-x="950" 
d="M152 487v252h649v-252h-649z" />
    <glyph glyph-name="uni2011" unicode="&#x2011;" horiz-adv-x="950" 
d="M152 487v252h649v-252h-649z" />
    <glyph glyph-name="figuredash" unicode="&#x2012;" horiz-adv-x="950" 
d="M152 487v252h649v-252h-649z" />
    <glyph glyph-name="endash" unicode="&#x2013;" horiz-adv-x="1245" 
d="M94 506v217h1055v-217h-1055z" />
    <glyph glyph-name="emdash" unicode="&#x2014;" horiz-adv-x="1576" 
d="M94 506v217h1389v-217h-1389z" />
    <glyph glyph-name="quoteleft" unicode="&#x2018;" horiz-adv-x="442" 
d="M33 827h254l102 463h-246z" />
    <glyph glyph-name="quoteright" unicode="&#x2019;" horiz-adv-x="442" 
d="M53 827h246l111 463h-254z" />
    <glyph glyph-name="quotesinglbase" unicode="&#x201a;" horiz-adv-x="442" 
d="M53 -305h246l111 463h-254z" />
    <glyph glyph-name="quotedblleft" unicode="&#x201c;" horiz-adv-x="790" 
d="M37 827h254l102 463h-246zM381 827h254l102 463h-245z" />
    <glyph glyph-name="quotedblright" unicode="&#x201d;" horiz-adv-x="786" 
d="M53 827h246l111 463h-254zM397 827h246l111 463h-254z" />
    <glyph glyph-name="quotedblbase" unicode="&#x201e;" horiz-adv-x="786" 
d="M53 -305h246l111 463h-254zM397 -305h246l111 463h-254z" />
    <glyph glyph-name="bullet" unicode="&#x2022;" horiz-adv-x="628" 
d="M72 616q0 105 70 172.5t175 67.5q102 0 171 -67.5t69 -172.5q0 -106 -68.5 -172.5t-171.5 -66.5q-106 0 -175.5 66.5t-69.5 172.5z" />
    <glyph glyph-name="ellipsis" unicode="&#x2026;" horiz-adv-x="1343" 
d="M53 131q0 74 47 115t111 41q63 0 109.5 -41t46.5 -115q0 -73 -46.5 -114.5t-109.5 -41.5t-110.5 42t-47.5 114zM514 131q0 74 47 115t111 41q63 0 109 -41t46 -115q0 -73 -46 -114.5t-109 -41.5t-110.5 42t-47.5 114zM975 131q0 74 47 115t111 41q63 0 109 -41t46 -115
q0 -73 -46 -114.5t-109 -41.5t-110.5 42t-47.5 114z" />
    <glyph glyph-name="uni202F" unicode="&#x202f;" horiz-adv-x="374" 
 />
    <glyph glyph-name="guilsinglleft" unicode="&#x2039;" horiz-adv-x="5613" 
d="M12 1010h289l203 -574l198 574h224l194 -576l203 576h291l-379 -1010h-229l-193 565l-192 -565h-230zM1556 504q0 233 149.5 380.5t387.5 147.5q212 0 351.5 -145t140.5 -369q0 -64 -7 -112l-2 -11h-747q60 -188 270 -188q135 0 187 84h282l-2 -10
q-43 -139 -171.5 -222.5t-301.5 -83.5q-233 0 -385 149.5t-152 379.5zM1827 602h487q-19 95 -79 147t-154 52q-95 0 -162 -52.5t-92 -146.5zM2673 504v905h268v-455q122 78 287 78q137 0 253.5 -70.5t184.5 -192t68 -265.5q0 -109 -42 -207.5t-113.5 -169t-169.5 -111.5
t-206 -41q-234 0 -382 148.5t-148 380.5zM2941 504q0 -144 71.5 -218.5t190.5 -74.5q115 0 190.5 84.5t75.5 208.5q0 123 -80.5 208t-197.5 85q-157 0 -250 -125v-168zM3820 504q0 233 149 380.5t387 147.5q212 0 351.5 -145t140.5 -369q0 -64 -7 -112l-2 -11h-747
q60 -188 270 -188q135 0 187 84h282v-10q-44 -138 -174 -222t-301 -84q-233 0 -384.5 149.5t-151.5 379.5zM4090 602h485q-17 95 -77 147t-154 52q-95 0 -162 -52.5t-92 -146.5zM4948 0v848q86 75 242.5 130.5t369.5 55.5h15v-278h-15q-231 0 -344 -76v-680h-268z" />
    <glyph glyph-name="guilsinglright" unicode="&#x203a;" horiz-adv-x="626" 
d="M94 270l238 318l-238 319l170 109l309 -416v-25l-309 -415z" />
    <glyph glyph-name="uni205F" unicode="&#x205f;" horiz-adv-x="467" 
 />
    <glyph glyph-name="Euro" unicode="&#x20ac;" horiz-adv-x="1161" 
d="M-23 428l29 166h117l-2 49q0 29 2 43h-107l27 166h104q26 99 75.5 181t126 146t188 100t247.5 36q159 0 340 -66l-88 -272q-34 24 -99.5 45.5t-143.5 21.5q-234 0 -322 -192h444l-24 -166h-459q-2 -16 -2 -49l2 -43h447l-21 -166h-385q88 -184 320 -184q64 0 118.5 12
t77 21.5t72.5 33.5l-4 -272q-118 -62 -273 -62q-136 0 -246.5 35t-187 97.5t-127 142t-76.5 176.5h-170z" />
    <glyph glyph-name="trademark" unicode="&#x2122;" horiz-adv-x="1224" 
d="M53 1135v155h445v-155h-144v-306h-157v306h-144zM571 823v467h213l88 -174l86 174h213v-467h-157v267l-84 -191h-117l-84 191v-267h-158z" />
    <glyph glyph-name="uni25FC" unicode="&#x25fc;" horiz-adv-x="1013" 
d="M0 0v1014h1014v-1014h-1014z" />
    </font>
</defs>
</svg>
