<?xml version="1.0" standalone="no"?>
<!DOCTYPE svg PUBLIC "-//W3C//DTD SVG 1.1//EN" "http://www.w3.org/Graphics/SVG/1.1/DTD/svg11.dtd" >
<svg xmlns="http://www.w3.org/2000/svg" xmlns:xlink="http://www.w3.org/1999/xlink" version="1.1">
<metadata>
Created by FontForge 20170731 at Thu Mar 24 21:45:02 2022
 By Aleksey,,,
Copyright (c) 2014 by Christophe Badani. All rights reserved.
</metadata>
<defs>
<font id="Weber-LightItalic" horiz-adv-x="1116" >
  <font-face 
    font-family="Weber Light"
    font-weight="300"
    font-style="italic"
    font-stretch="normal"
    units-per-em="2048"
    panose-1="0 0 4 0 0 0 0 0 0 0"
    ascent="1536"
    descent="-512"
    x-height="1010"
    cap-height="1290"
    bbox="-248 -512 2157 1784"
    underline-thickness="102"
    underline-position="-307"
    slope="-9"
    unicode-range="U+0020-FB02"
  />
<missing-glyph horiz-adv-x="1556" 
d="M1589 1589q71 0 115 -38.5t31 -118.5q-7 -49 -29.5 -79t-49.5 -43t-54 -24.5t-48.5 -35t-27.5 -62.5l-4 -27h-45l6 29q7 50 29 79.5t49 41.5t54 23t48.5 36t28.5 68q7 41 -9 67.5t-40.5 35.5t-55.5 9q-99 0 -133 -80l-45 5q40 114 180 114zM932 1315q95 0 175.5 -24.5
t139 -69.5t102 -107.5t64.5 -138t27.5 -162t-10.5 -178.5q-22 -137 -80.5 -256t-146 -209.5t-209.5 -142.5t-261 -52q-95 0 -176 24.5t-139.5 68.5t-102 105.5t-64.5 136t-27.5 160t9.5 177.5q22 138 80.5 258.5t146.5 212t210 144.5t262 53zM928 1219q-159 0 -287.5 -77.5
t-207 -208t-105.5 -298.5q-14 -98 -8.5 -183t37 -155t82 -120t127 -77.5t171.5 -27.5q238 0 398.5 161t199.5 414q22 123 3.5 228t-66.5 181t-136.5 119.5t-207.5 43.5zM1499 1116q13 0 21.5 -9.5t7.5 -23.5q-3 -14 -13.5 -22t-21.5 -8q-13 0 -21.5 9t-5.5 25q1 14 11 21.5
t22 7.5zM690 936q44 0 71 -35t19 -82q-8 -46 -39.5 -76t-72.5 -30q-44 0 -70.5 34.5t-19.5 83.5q8 45 39.5 75t72.5 30zM1053 936q44 0 71 -35t19 -82q-6 -45 -38.5 -75.5t-74.5 -30.5q-45 0 -71 34.5t-17 83.5q8 44 39.5 74.5t71.5 30.5zM815 565q123 0 195 -77.5
t53 -186.5l-139 8q7 51 -23 91t-94 40q-69 0 -116.5 -43.5t-55.5 -95.5l-141 8q17 109 109 182.5t212 73.5z" />
    <glyph glyph-name="fi" unicode="fi" horiz-adv-x="880" 
d="M739 1460q93 0 185 -37l-21 -98q-80 39 -164 39q-69 0 -126.5 -23.5t-103.5 -83t-60 -149.5l-17 -98h436l-159 -1010h-101l146 926h-336l-178 -996q-60 -340 -283 -340q-56 0 -133 23l18 86q70 -18 109 -18q70 0 117 57t71 192l209 1186q14 89 52.5 157t92.5 108
t116 59.5t130 19.5z" />
    <glyph glyph-name="fl" unicode="fl" horiz-adv-x="956" 
d="M662 1434q19 0 75 -9l-8 -96q-40 8 -72 8q-173 0 -208 -229l-17 -98h215l-14 -84h-215l-178 -996q-60 -340 -283 -340q-56 0 -133 23l18 86q70 -18 109 -18q70 0 117 57t71 192l209 1186q15 90 47.5 154.5t77 99t91 49.5t98.5 15zM899 1403l-188 -1223q-19 -114 71 -114
q58 0 131 43l-12 -97q-64 -37 -147 -37q-77 0 -122 47t-28 156l195 1225h100z" />
    <glyph glyph-name=".notdef" horiz-adv-x="1556" 
d="M1589 1589q71 0 115 -38.5t31 -118.5q-7 -49 -29.5 -79t-49.5 -43t-54 -24.5t-48.5 -35t-27.5 -62.5l-4 -27h-45l6 29q7 50 29 79.5t49 41.5t54 23t48.5 36t28.5 68q7 41 -9 67.5t-40.5 35.5t-55.5 9q-99 0 -133 -80l-45 5q40 114 180 114zM932 1315q95 0 175.5 -24.5
t139 -69.5t102 -107.5t64.5 -138t27.5 -162t-10.5 -178.5q-22 -137 -80.5 -256t-146 -209.5t-209.5 -142.5t-261 -52q-95 0 -176 24.5t-139.5 68.5t-102 105.5t-64.5 136t-27.5 160t9.5 177.5q22 138 80.5 258.5t146.5 212t210 144.5t262 53zM928 1219q-159 0 -287.5 -77.5
t-207 -208t-105.5 -298.5q-14 -98 -8.5 -183t37 -155t82 -120t127 -77.5t171.5 -27.5q238 0 398.5 161t199.5 414q22 123 3.5 228t-66.5 181t-136.5 119.5t-207.5 43.5zM1499 1116q13 0 21.5 -9.5t7.5 -23.5q-3 -14 -13.5 -22t-21.5 -8q-13 0 -21.5 9t-5.5 25q1 14 11 21.5
t22 7.5zM690 936q44 0 71 -35t19 -82q-8 -46 -39.5 -76t-72.5 -30q-44 0 -70.5 34.5t-19.5 83.5q8 45 39.5 75t72.5 30zM1053 936q44 0 71 -35t19 -82q-6 -45 -38.5 -75.5t-74.5 -30.5q-45 0 -71 34.5t-17 83.5q8 44 39.5 74.5t71.5 30.5zM815 565q123 0 195 -77.5
t53 -186.5l-139 8q7 51 -23 91t-94 40q-69 0 -116.5 -43.5t-55.5 -95.5l-141 8q17 109 109 182.5t212 73.5z" />
    <glyph glyph-name=".null" horiz-adv-x="0" 
 />
    <glyph glyph-name="nonmarkingreturn" horiz-adv-x="682" 
 />
    <glyph glyph-name="space" unicode=" " horiz-adv-x="548" 
 />
    <glyph glyph-name="exclam" unicode="!" horiz-adv-x="419" 
d="M307 248h-110l163 1042h111zM248 135q32 0 53.5 -23.5t15.5 -62.5q-6 -36 -30.5 -55t-53.5 -19q-33 0 -54.5 23.5t-14.5 62.5q6 36 30 55t54 19z" />
    <glyph glyph-name="quotedbl" unicode="&#x22;" horiz-adv-x="522" 
d="M348 864h-82l68 426h82zM528 864h-82l68 426h82z" />
    <glyph glyph-name="numbersign" unicode="#" horiz-adv-x="1165" 
d="M1083 983h162l-12 -82h-184l-203 -506h170l-15 -86h-190l-123 -309h-98l123 309h-348l-123 -309h-97l123 309h-145l16 86h162l207 508h-156l15 80h174l123 307h96l-123 -307h350l123 307h96zM604 903l-209 -510h353l206 510h-350z" />
    <glyph glyph-name="dollar" unicode="$" horiz-adv-x="1026" 
d="M369 948q-8 -52 11.5 -92.5t59 -66t92.5 -46.5t112.5 -39t119 -37t111.5 -47t89.5 -64.5t54.5 -92.5t5 -127q-26 -163 -149 -258t-306 -103l-45 -282h-98l47 287q-153 17 -244.5 105.5t-99.5 219.5l104 -8q15 -109 95 -167t221 -58q146 0 245 70t119 200q8 55 -11 97
t-58.5 69t-92.5 48.5t-112.5 39.5t-118.5 37t-111.5 46t-90 62t-54.5 88.5t-6 122.5q27 167 143 259.5t283 101.5l45 295h98l-47 -295q144 -12 226 -87.5t88 -205.5l-105 8q-14 91 -81 141t-189 50q-144 0 -237 -71t-113 -200z" />
    <glyph glyph-name="percent" unicode="%" horiz-adv-x="1505" 
d="M442 -80l-88 19l932 1536l84 -19zM532 1305q66 0 113 -31.5t68.5 -83.5t29 -119t-5.5 -137q-15 -94 -52.5 -171t-104 -129t-150.5 -52q-65 0 -112.5 31t-70 82t-30.5 117t6 136q24 150 104.5 253.5t204.5 103.5zM528 1214q-86 0 -141 -79t-74 -201q-8 -71 -4 -129.5
t35.5 -96.5t87.5 -38q86 0 141 79.5t74 196.5q10 73 6.5 133t-35.5 97.5t-90 37.5zM1280 711q66 0 113 -31.5t68.5 -83.5t29 -119t-5.5 -137q-15 -94 -52.5 -171t-104 -129t-150.5 -52q-65 0 -112.5 31t-70 82t-30.5 117t6 136q24 150 104.5 253.5t204.5 103.5zM1276 621
q-86 0 -141 -79.5t-74 -201.5q-8 -71 -4 -129.5t35.5 -96.5t87.5 -38q86 0 141 79.5t74 196.5q10 74 6.5 133.5t-35.5 97.5t-90 38z" />
    <glyph glyph-name="ampersand" unicode="&#x26;" horiz-adv-x="1148" 
d="M686 1315q142 0 213 -88t51 -211q-22 -128 -110 -213.5t-234 -153.5l236 -315q33 63 50 139.5t15 132.5l107 -8q-5 -69 -36.5 -173t-74.5 -177l205 -248h-139l-127 168q-146 -193 -369 -193q-180 0 -265 104t-61 261q40 237 291 348q-58 87 -85 162t-13 162
q22 135 118 219t228 84zM680 1219q-77 0 -144.5 -53.5t-84.5 -159.5q-3 -18 -3.5 -34.5t3 -35t5 -30.5t10.5 -32t12 -28t16 -31t15.5 -28.5t19 -31.5t18.5 -30q131 53 206 131.5t89 171.5q13 88 -35 139.5t-127 51.5zM776 240l-284 368q-101 -48 -160.5 -113.5t-75.5 -166.5
q-19 -122 46.5 -190t174.5 -68q98 0 174.5 49t124.5 121z" />
    <glyph glyph-name="quotesingle" unicode="'" horiz-adv-x="362" 
d="M367 864h-101l68 426h102z" />
    <glyph glyph-name="parenleft" unicode="(" horiz-adv-x="538" 
d="M686 1671l72 -57q-365 -463 -443 -959q-20 -123 -20.5 -243t12 -214.5t38 -190t51 -163t59.5 -139.5l-84 -49q-238 484 -152 1012q85 531 467 1003z" />
    <glyph glyph-name="parenright" unicode=")" horiz-adv-x="538" 
d="M-168 -344l-72 57q365 463 443 959q20 123 20.5 243t-12 214.5t-38 190t-51 163t-59.5 139.5l84 49q238 -484 152 -1012q-85 -531 -467 -1003z" />
    <glyph glyph-name="asterisk" unicode="*" horiz-adv-x="565" 
d="M489 1124l162 52l13 -74l-164 -45l78 -144l-70 -49l-72 150l-119 -150l-59 47l129 146l-139 47l33 74l139 -54l22 166h80z" />
    <glyph glyph-name="plus" unicode="+" horiz-adv-x="1003" 
d="M977 573h-336l-59 -378h-99l60 378h-338l18 101h336l59 379h99l-60 -379h338z" />
    <glyph glyph-name="comma" unicode="," horiz-adv-x="432" 
d="M113 -385l194 524h-98l-195 -524h99z" />
    <glyph glyph-name="hyphen" unicode="-" horiz-adv-x="872" 
d="M815 594h-571l18 102h572z" />
    <glyph glyph-name="period" unicode="." horiz-adv-x="305" 
d="M170 135q32 0 54 -23.5t16 -62.5q-6 -36 -30.5 -55t-53.5 -19q-33 0 -55 23.5t-15 62.5q6 36 30 55t54 19z" />
    <glyph glyph-name="slash" unicode="/" horiz-adv-x="970" 
d="M1143 1565l-1008 -1739l-82 29l1004 1738z" />
    <glyph glyph-name="zero" unicode="0" 
d="M760 1313q95 0 168 -36.5t116 -100.5t68 -150t24.5 -184.5t-14.5 -204.5q-16 -103 -48 -198t-81.5 -179.5t-112.5 -147t-145.5 -99t-175.5 -36.5q-79 0 -143 26t-107 73t-72 110t-41.5 139t-12 158.5t13.5 169.5q20 132 66.5 248.5t115.5 210t167.5 147.5t213.5 54z
M754 1210q-92 0 -170.5 -46.5t-134 -127t-93 -181t-55.5 -216.5q-20 -107 -13 -207.5t34 -178.5t90 -125.5t153 -47.5q92 0 171 48t134.5 129.5t93 181.5t54.5 212q20 109 13 210t-33.5 178.5t-89.5 124t-154 46.5z" />
    <glyph glyph-name="one" unicode="1" horiz-adv-x="485" 
d="M324 0h-111l186 1192h-159l16 98h272z" />
    <glyph glyph-name="two" unicode="2" horiz-adv-x="1032" 
d="M727 1315q177 0 271.5 -106t68.5 -269q-13 -84 -47 -149.5t-80.5 -107.5t-103.5 -75t-117.5 -57l-121 -48t-116.5 -53.5t-101.5 -67.5t-78 -97t-43.5 -135l-8 -50h678l-19 -100h-788l20 119q19 126 71.5 217.5t120.5 142t147.5 87.5t157.5 67t144 66t114 99t62 154
q18 115 -45.5 191t-189.5 76q-232 0 -326 -199l-106 8q51 150 159 218.5t277 68.5z" />
    <glyph glyph-name="three" unicode="3" horiz-adv-x="1052" 
d="M709 1315q199 0 296.5 -102t73.5 -257q-17 -103 -89 -180t-175 -112q98 -27 153.5 -115t37.5 -203q-25 -161 -159.5 -266t-332.5 -105q-181 0 -290.5 92t-117.5 238l105 -8q15 -109 93.5 -167t217.5 -58q161 0 258.5 82t116.5 200q16 105 -62 181.5t-239 76.5h-158
l17 101h149q156 0 253.5 74.5t113.5 181.5q16 109 -48.5 179.5t-217.5 70.5q-236 0 -326 -199l-107 8q50 150 159 218.5t278 68.5z" />
    <glyph glyph-name="four" unicode="4" horiz-adv-x="1021" 
d="M233 389h537l74 471h110l-73 -471h110l-18 -100h-109l-45 -289h-110l45 289h-662l14 86l705 915h131z" />
    <glyph glyph-name="five" unicode="5" horiz-adv-x="1103" 
d="M1087 1190h-573l-119 -469q145 123 322 123q79 0 143.5 -24.5t106 -66t69 -97.5t32.5 -118.5t-3 -129.5q-13 -82 -53.5 -158.5t-102.5 -138.5t-153 -99t-195 -37q-181 0 -290 92t-117 238l104 -8q15 -109 93.5 -167t217.5 -58q80 0 149.5 29.5t117.5 78.5t79 109.5
t41 126.5q13 62 0.5 122t-41 106.5t-83.5 75t-127 28.5q-80 0 -169 -37.5t-165 -104.5l-84 37l159 647h660z" />
    <glyph glyph-name="six" unicode="6" horiz-adv-x="1130" 
d="M739 856q103 0 181 -37.5t121 -100.5t58.5 -141.5t2.5 -162.5t-53 -161.5t-101 -140t-148.5 -100t-187.5 -37.5q-80 0 -147.5 25.5t-114 70.5t-81.5 106t-50.5 133.5t-19 152.5t11.5 162q17 104 52.5 202t93 187t130.5 155t171 105t208 39q138 0 224 -27l-39 -100
q-95 31 -193 31q-103 0 -192 -44t-153 -119t-108.5 -167t-68.5 -197q86 70 195 118t208 48zM999 422q14 87 -8.5 161t-90 123.5t-171.5 49.5q-187 0 -414 -191q-13 -133 14.5 -242.5t102 -180t186.5 -70.5q103 0 187 52t132 130t62 168z" />
    <glyph glyph-name="seven" unicode="7" horiz-adv-x="927" 
d="M1069 1186l-805 -1186h-127l813 1188h-688l17 102h806z" />
    <glyph glyph-name="eight" unicode="8" horiz-adv-x="1118" 
d="M762 1313q201 0 303 -101t78 -254q-17 -104 -88.5 -182.5t-173.5 -113.5q98 -27 153 -114.5t35 -203.5q-27 -160 -165 -263.5t-343 -103.5q-209 0 -318.5 108t-82.5 271q18 114 97.5 197t188.5 113q-88 35 -135 117t-30 188q24 149 153 245.5t328 96.5zM756 1217
q-156 0 -252.5 -75t-114.5 -186q-16 -104 54 -173.5t223 -69.5q157 0 253.5 74.5t112.5 181.5q16 108 -52.5 178t-223.5 70zM664 623q-163 0 -270.5 -86t-123.5 -195q-18 -113 58 -189.5t239 -76.5q166 0 269.5 80.5t121.5 197.5q16 106 -60.5 187.5t-233.5 81.5z" />
    <glyph glyph-name="nine" unicode="9" horiz-adv-x="1130" 
d="M696 1311q80 0 147.5 -25.5t114.5 -70t82 -106t50.5 -133.5t19 -152t-11.5 -162q-17 -104 -52.5 -202t-93.5 -187t-131 -155.5t-171 -105.5t-208 -39q-137 0 -223 27l39 100q92 -30 193 -30q103 0 192 43.5t153 119t108.5 167t68.5 196.5q-86 -70 -195.5 -118t-208.5 -48
q-83 0 -150.5 25t-110 67t-71 99t-33.5 120.5t3 130.5q13 84 53 161.5t100.5 140t148 100t187.5 37.5zM309 864q-10 -64 1 -123t42.5 -106.5t90 -76t137.5 -28.5q186 0 413 191q13 133 -14.5 242.5t-102 180t-186.5 70.5q-103 0 -187 -52t-132 -130t-62 -168z" />
    <glyph glyph-name="colon" unicode=":" horiz-adv-x="305" 
d="M332 1034q32 0 53.5 -23.5t15.5 -62.5q-6 -36 -30.5 -55t-53.5 -19q-33 0 -54.5 24t-14.5 63q6 36 30 54.5t54 18.5zM190 135q32 0 54 -23.5t16 -62.5q-6 -36 -30.5 -55t-53.5 -19q-33 0 -55 23.5t-15 62.5q6 36 30 55t54 19z" />
    <glyph glyph-name="semicolon" unicode=";" horiz-adv-x="473" 
d="M426 1034q32 0 54 -23.5t16 -62.5q-6 -36 -30.5 -55t-53.5 -19q-33 0 -55 24t-15 63q6 36 30 54.5t54 18.5zM133 -385l195 524h-99l-194 -524h98z" />
    <glyph glyph-name="less" unicode="&#x3c;" horiz-adv-x="1085" 
d="M817 918l-586 -297l676 -299l21 -109l-832 375l-6 33l-6 30l713 377z" />
    <glyph glyph-name="equal" unicode="=" horiz-adv-x="1003" 
d="M1012 778h-774l18 101h772zM946 369h-772l16 100h773z" />
    <glyph glyph-name="greater" unicode="&#x3e;" horiz-adv-x="1005" 
d="M993 651l-6 -30l-6 -33l-831 -375l20 109l676 299l-586 297l21 110z" />
    <glyph glyph-name="question" unicode="?" horiz-adv-x="1093" 
d="M729 1315q64 0 121.5 -13t108.5 -43t84.5 -74t47.5 -111t1 -150q-14 -90 -48 -154.5t-77.5 -99.5t-93 -60.5t-99 -47.5t-91.5 -49.5t-73.5 -78t-42.5 -123.5l-10 -63h-111l13 71q14 92 47.5 155.5t76.5 97t92.5 56.5t98.5 44t91 49t74 82t44 133q10 64 -1 114t-36 81
t-62.5 51.5t-77 28.5t-83.5 8q-124 0 -209 -53.5t-127 -145.5l-108 8q98 287 450 287zM502 135q32 0 53.5 -23.5t15.5 -62.5q-6 -36 -30.5 -55t-53.5 -19q-33 0 -54.5 23.5t-14.5 62.5q6 36 30 55t54 19z" />
    <glyph glyph-name="at" unicode="@" horiz-adv-x="1355" 
d="M825 1034q175 0 299 -81t177 -226.5t24 -329.5q-32 -203 -119 -312.5t-192 -109.5q-63 0 -103 30.5t-53 80.5q-81 -66 -114 -84q-51 -27 -105 -27q-44 0 -84 20.5t-74 65.5t-44.5 117.5t3.5 177.5q15 98 53.5 173.5t86.5 116.5t95.5 61t90.5 20q54 0 102.5 -14t76 -29.5
t69.5 -44.5l-68 -440q-9 -62 11.5 -100t64.5 -38q80 0 135 96.5t80 252.5q37 234 -78.5 384t-335.5 150q-146 0 -272 -81.5t-207 -218.5t-108 -304q-42 -268 68 -424t335 -156q205 0 379 103l26 -84q-186 -107 -411 -107q-266 0 -399.5 183.5t-83.5 496.5
q30 193 123.5 347.5t238 244.5t313.5 90zM766 635q-28 0 -60.5 -15.5t-65.5 -47.5t-60 -91.5t-39 -136.5q-23 -146 11.5 -211t102.5 -65q93 0 195 120l65 406q-62 41 -149 41z" />
    <glyph glyph-name="A" unicode="A" horiz-adv-x="1288" 
d="M1026 311h-661l-166 -311h-125l719 1290h110l309 -1290h-116zM1001 412l-172 768l-411 -768h583z" />
    <glyph glyph-name="B" unicode="B" horiz-adv-x="1060" 
d="M367 1290h364q183 0 274.5 -93t67.5 -247q-15 -97 -78.5 -173.5t-158.5 -108.5q104 -45 155 -124.5t33 -189.5q-14 -93 -56.5 -162.5t-106.5 -111t-141.5 -61t-170.5 -19.5h-387zM459 1194l-74 -483h272q129 0 211 73.5t97 173.5q15 98 -41.5 167t-184.5 69h-280z
M369 612l-80 -516h272q159 0 246.5 69.5t107.5 192.5q18 111 -55.5 182.5t-220.5 71.5h-270z" />
    <glyph glyph-name="C" unicode="C" horiz-adv-x="1161" 
d="M879 1315q176 0 280.5 -79.5t112.5 -188.5l-125 6q-29 78 -97.5 122t-177.5 44q-116 0 -216.5 -48t-171 -129.5t-117 -184.5t-64.5 -218q-13 -71 -9 -141t18.5 -133t47 -116.5t76.5 -93t108 -61.5t140 -22q218 0 334 170l127 -6q-41 -108 -167.5 -184.5t-299.5 -76.5
q-95 0 -174.5 26.5t-135 73t-97.5 110.5t-60.5 139.5t-24 159t10.5 169.5q17 104 55 200.5t98.5 181t137.5 146.5t178 98t213 36z" />
    <glyph glyph-name="D" unicode="D" horiz-adv-x="1241" 
d="M367 1290h329q106 0 195.5 -24t153 -67t111.5 -102.5t71 -130t31.5 -150.5t-7.5 -163q-16 -105 -55 -200t-103.5 -178.5t-149 -144t-198.5 -95.5t-245 -35h-338zM459 1190l-168 -1090h217q139 0 255.5 49.5t193 131.5t123.5 180.5t61 204.5q12 65 5 129.5t-24 123
t-55 108t-89 86t-126 57t-166 20.5h-227z" />
    <glyph glyph-name="E" unicode="E" 
d="M1147 1190h-688l-76 -490h653l-16 -100h-653l-41 -268q-19 -128 30.5 -180t155.5 -52h483l-18 -100h-475q-158 0 -235 87t-50 259l150 944h798z" />
    <glyph glyph-name="F" unicode="F" horiz-adv-x="1005" 
d="M1090 1190h-461q-87 0 -137 -47.5t-62 -132.5l-51 -332h604l-16 -100h-605l-90 -578h-110l162 1020q19 123 102.5 196.5t212.5 73.5h469z" />
    <glyph glyph-name="G" unicode="G" horiz-adv-x="1290" 
d="M879 1315q175 0 280 -79.5t113 -188.5l-125 6q-29 78 -97.5 122t-177.5 44q-116 0 -216.5 -48t-171 -129.5t-117 -184.5t-64.5 -218q-13 -71 -9 -141t18.5 -133t47 -116.5t76.5 -93t108 -61.5t140 -22q118 0 220 37.5t157 80.5l55 357h-328l19 100h438l-78 -502
q-80 -77 -205.5 -123.5t-283.5 -46.5q-95 0 -174.5 26.5t-135 73t-97.5 110.5t-60.5 139.5t-24 159t10.5 169.5q17 104 55 200.5t98.5 181t137.5 146.5t178 98t213 36z" />
    <glyph glyph-name="H" unicode="H" horiz-adv-x="1314" 
d="M1153 0h-111l93 596h-768l-95 -596h-110l205 1290h110l-94 -594h770l94 594h111z" />
    <glyph glyph-name="I" unicode="I" horiz-adv-x="434" 
d="M272 0h-110l205 1290h110z" />
    <glyph glyph-name="J" unicode="J" horiz-adv-x="776" 
d="M819 1290l-127 -803q-39 -241 -189 -376.5t-390 -135.5l10 97q187 0 308.5 113t150.5 311l108 694h-344l19 100h454z" />
    <glyph glyph-name="K" unicode="K" horiz-adv-x="1077" 
d="M586 727l450 -727h-137l-401 639l-146 -145l-80 -494h-110l205 1290h110l-104 -661l635 661h141z" />
    <glyph glyph-name="L" unicode="L" horiz-adv-x="985" 
d="M477 1290l-160 -999q-14 -103 32 -147t126 -44h443l-19 -100h-434q-132 0 -205 78.5t-49 226.5l156 985h110z" />
    <glyph glyph-name="M" unicode="M" horiz-adv-x="1452" 
d="M1290 0h-110l174 1110l-516 -694h-90l-299 694l-177 -1110h-110l205 1290h110l332 -755l571 755h115z" />
    <glyph glyph-name="N" unicode="N" horiz-adv-x="1300" 
d="M1139 0h-92l-601 1106l-174 -1106h-110l205 1290h94l600 -1093l172 1093h110z" />
    <glyph glyph-name="O" unicode="O" horiz-adv-x="1353" 
d="M879 1315q95 0 175 -26t135.5 -72t97 -109.5t60 -139t24 -160t-10.5 -171.5q-20 -128 -75.5 -245.5t-140 -211t-206 -149.5t-260.5 -56q-95 0 -174.5 26.5t-135 73t-97.5 110.5t-60.5 139.5t-24 159t10.5 169.5q17 104 55 200.5t98.5 181t137.5 146.5t178 98t213 36z
M874 1219q-117 0 -218 -48t-171.5 -129.5t-117 -184.5t-64.5 -218q-13 -71 -9 -141t18.5 -133t47 -116.5t76.5 -93t108 -61.5t140 -22q115 0 215.5 49.5t171.5 132t118 185t64 212.5q11 88 8 170.5t-31.5 155t-73 126.5t-117.5 85t-165 31z" />
    <glyph glyph-name="P" unicode="P" horiz-adv-x="1064" 
d="M639 1290h102q204 0 301 -141q80 -118 57 -284q-23 -167 -136 -287q-141 -150 -351 -150h-272l-68 -428h-110l162 1020q19 123 102.5 196.5t212.5 73.5zM737 1194h-108q-86 0 -136 -49.5t-63 -134.5l-74 -484h271q163 0 270 128q88 106 98 245q9 140 -70 223
q-68 72 -188 72z" />
    <glyph glyph-name="Q" unicode="Q" horiz-adv-x="1353" 
d="M1380 637q-27 -170 -114.5 -319.5t-221.5 -239.5l156 -316l-96 -63l-160 326q-119 -50 -246 -50q-95 0 -174.5 26.5t-135 73t-97.5 110.5t-60.5 139.5t-24 159t10.5 169.5q17 104 55 200.5t98.5 181t137.5 146.5t178 98t213 36q95 0 175 -26t135.5 -72t97 -109.5t60 -139
t24 -160t-10.5 -171.5zM891 391l108 -221q109 79 181 208t94 273q11 88 8 170.5t-31.5 155t-73 126.5t-117.5 85t-165 31q-117 0 -218 -48t-171.5 -129.5t-117 -184.5t-64.5 -218q-13 -71 -9 -141t18.5 -133t47 -116.5t76.5 -93t108 -61.5t140 -22q106 0 196 41l-106 215z
" />
    <glyph glyph-name="R" unicode="R" horiz-adv-x="1079" 
d="M639 1290h100q116 0 197.5 -50t117 -128t35.5 -173.5t-35 -185t-107 -165.5t-169 -111l191 -477h-123l-180 451q-16 -2 -54 -2h-268l-72 -449h-110l162 1020q19 123 102.5 196.5t212.5 73.5zM358 547h269q156 0 259 125q86 104 94 240q8 137 -70 216q-66 66 -177 66h-104
q-86 0 -136 -49.5t-63 -134.5z" />
    <glyph glyph-name="S" unicode="S" horiz-adv-x="1026" 
d="M705 1315q168 0 265 -76.5t103 -218.5l-104 8q-14 91 -81.5 141t-189.5 50q-144 0 -237 -71t-113 -200q-8 -52 11.5 -92.5t59 -66t93 -46.5t113 -39t119 -37t111.5 -47t89.5 -64.5t54.5 -92.5t5 -127q-27 -169 -159 -265t-327 -96q-181 0 -290.5 92t-118.5 238l104 -8
q15 -109 94.5 -167t220.5 -58q146 0 245.5 70t119.5 200q8 55 -11 97t-58.5 69t-92.5 48.5t-112.5 39.5t-118.5 37t-111.5 46t-90 62t-54.5 88.5t-6 122.5q28 177 156.5 270t310.5 93z" />
    <glyph glyph-name="T" unicode="T" horiz-adv-x="1150" 
d="M1243 1190h-426l-186 -1190h-111l187 1190h-426l18 100h963z" />
    <glyph glyph-name="U" unicode="U" horiz-adv-x="1275" 
d="M1319 1290l-127 -815q-21 -124 -73.5 -221t-127 -157t-163.5 -91t-187 -31q-99 0 -180 32t-138.5 93t-80.5 159.5t-4 223.5l129 807h110l-129 -815q-30 -197 54 -300t245 -103q162 0 282.5 107t151.5 304l127 807h111z" />
    <glyph glyph-name="V" unicode="V" horiz-adv-x="1259" 
d="M684 0h-106l-277 1290h117l239 -1147l596 1147h119z" />
    <glyph glyph-name="W" unicode="W" horiz-adv-x="1851" 
d="M1382 0h-102l-174 1141l-535 -1141h-104l-178 1290h117l145 -1143l528 1143h105l176 -1143l495 1143h117z" />
    <glyph glyph-name="X" unicode="X" horiz-adv-x="1142" 
d="M743 662l322 -662h-127l-274 582l-453 -582h-137l532 662l-295 628h121l254 -547l434 547h125z" />
    <glyph glyph-name="Y" unicode="Y" horiz-adv-x="1200" 
d="M739 535l-86 -535h-110l86 535l-348 755h122l299 -653l502 653h129z" />
    <glyph glyph-name="Z" unicode="Z" horiz-adv-x="1214" 
d="M1225 1196l-922 -1096h770l-16 -100h-901l14 88l922 1102h-740l19 100h870z" />
    <glyph glyph-name="bracketleft" unicode="[" horiz-adv-x="440" 
d="M645 1550h-186l-281 -1777h187l-17 -99h-287l312 1975h289z" />
    <glyph glyph-name="backslash" unicode="\" horiz-adv-x="970" 
d="M897 -145l-82 -29l-1008 1739l87 28z" />
    <glyph glyph-name="bracketright" unicode="]" horiz-adv-x="438" 
d="M-227 -227h186l281 1777h-187l17 99h286l-311 -1975h-289z" />
    <glyph glyph-name="asciicircum" unicode="^" horiz-adv-x="942" 
d="M973 563h-103l-213 619l-401 -619h-111l490 727h76z" />
    <glyph glyph-name="underscore" unicode="_" horiz-adv-x="1130" 
d="M1057 -88h-1014l16 88h1014z" />
    <glyph glyph-name="grave" unicode="`" horiz-adv-x="962" 
d="M512 1376l379 -182l-43 -82l-383 178z" />
    <glyph glyph-name="a" unicode="a" horiz-adv-x="1071" 
d="M721 1034q171 0 319 -98l-137 -737q-26 -142 68 -142q53 0 157 49l-12 -90q-102 -39 -172 -39q-143 0 -143 156q-63 -73 -151 -115.5t-191 -42.5q-187 0 -262.5 136.5t-36.5 375.5q29 175 115 301t200.5 186t245.5 60zM713 944q-113 0 -211 -67t-160 -173t-82 -229
q-15 -84 -10 -158t26 -130t70 -88.5t121 -32.5q106 0 202.5 65.5t149.5 147.5l115 604q-111 61 -221 61z" />
    <glyph glyph-name="b" unicode="b" horiz-adv-x="1159" 
d="M492 1403l-80 -498q183 129 366 129q92 0 168.5 -34t131 -99t75.5 -169t0 -234q-25 -155 -104.5 -275.5t-191 -184t-234.5 -63.5q-94 0 -171.5 33t-130 94.5t-73.5 157t-2 213.5l145 930h101zM395 782l-51 -317q-30 -189 52 -294t231 -105q148 0 272 125t154 319
q16 106 -0.5 190.5t-59.5 137t-103 79.5t-132 27q-90 0 -185.5 -42.5t-177.5 -119.5z" />
    <glyph glyph-name="c" unicode="c" horiz-adv-x="1024" 
d="M705 1034q142 0 228.5 -68.5t113.5 -174.5l-103 6q-62 147 -239 147q-103 0 -195 -53t-158.5 -155.5t-87.5 -235.5q-30 -198 54 -316t239 -118q92 0 169.5 40t129.5 111l111 -6q-62 -105 -168 -170.5t-246 -65.5q-198 0 -312 150.5t-77 386.5q36 234 188.5 378t352.5 144
z" />
    <glyph glyph-name="d" unicode="d" horiz-adv-x="1124" 
d="M1174 1403l-148 -940q-37 -236 -171 -362t-325 -126q-197 0 -301.5 147.5t-66.5 387.5q20 127 70 228.5t119 165t150 97t167 33.5q180 0 325 -133l80 502h101zM680 944q-146 0 -265 -116.5t-153 -329.5q-31 -194 45 -313t228 -119q149 0 255 106t136 299l49 303
q-47 71 -130 120.5t-165 49.5z" />
    <glyph glyph-name="e" unicode="e" horiz-adv-x="1062" 
d="M559 66q93 0 171 40t132 111l109 -6q-61 -104 -169.5 -170t-248.5 -66q-200 0 -313 149.5t-76 387.5q35 227 180 374.5t336 147.5q179 0 275 -104q78 -86 64 -200q-16 -122 -132 -204q-139 -98 -371 -98q-114 0 -258 27q-13 -174 72.5 -281.5t228.5 -107.5zM676 944
q-144 0 -254 -109.5t-150 -289.5q135 -27 244 -27q232 0 342 105q76 72 63 160q-13 83 -97 128q-62 33 -148 33z" />
    <glyph glyph-name="f" unicode="f" horiz-adv-x="626" 
d="M725 1458q90 0 174 -35l-18 -92q-72 37 -154 37q-102 0 -179 -63.5t-99 -196.5l-17 -98h328l-21 -88h-321l-178 -992q-60 -340 -283 -340q-56 0 -133 23l18 86q70 -18 109 -18q70 0 117 57t71 192l209 1186q16 88 53 155t88.5 107t110.5 60t125 20z" />
    <glyph glyph-name="g" unicode="g" horiz-adv-x="1081" 
d="M670 1034q91 0 165 -27t127.5 -81t75.5 -144t4 -207l-84 -534q-32 -200 -168.5 -325.5t-310.5 -125.5q-72 0 -130 12.5t-101 38t-70 48.5t-59 57l67 80q52 -67 118.5 -106t176.5 -39q132 0 242.5 105t136.5 263l10 55q-77 -54 -157.5 -86t-155.5 -38.5t-143.5 10t-121 58
t-89 106t-46 155t6.5 203.5q38 237 178 379.5t328 142.5zM666 944q-146 0 -258.5 -123.5t-143.5 -320.5q-18 -116 1 -204.5t65.5 -138.5t113 -72t141.5 -11.5t154 49.5t148 104l55 357q15 95 -0.5 166.5t-56.5 112.5t-95.5 61t-123.5 20z" />
    <glyph glyph-name="h" unicode="h" horiz-adv-x="1146" 
d="M494 1403l-78 -490q68 56 163.5 88.5t190.5 32.5q73 0 134 -21t107 -63.5t65 -116t3 -169.5l-104 -664h-101l105 672q11 72 -1.5 126t-45.5 85t-76.5 46t-97.5 15q-94 0 -194.5 -39t-162.5 -98l-129 -807h-100l221 1403h101z" />
    <glyph glyph-name="i" unicode="i" horiz-adv-x="444" 
d="M506 1290q-6 -36 -30.5 -54.5t-53.5 -18.5q-33 0 -55 23.5t-15 62.5q6 36 30 54.5t54 18.5q32 0 54 -23.5t16 -62.5zM272 0h-100l160 1010h100z" />
    <glyph glyph-name="j" unicode="j" horiz-adv-x="454" 
d="M528 1290q-6 -36 -30.5 -54.5t-53.5 -18.5q-33 0 -54.5 23.5t-14.5 62.5q6 36 30 54.5t54 18.5q32 0 53.5 -23.5t15.5 -62.5zM436 1010l-170 -1078q-57 -342 -332 -342l9 91q184 0 223 260l170 1069h100z" />
    <glyph glyph-name="k" unicode="k" horiz-adv-x="911" 
d="M553 604l340 -604h-115l-297 537l-143 -134l-66 -403h-100l221 1403h101l-138 -856l498 463h135z" />
    <glyph glyph-name="l" unicode="l" horiz-adv-x="552" 
d="M498 1403l-191 -1223q-19 -114 72 -114q58 0 131 43l-12 -97q-64 -37 -148 -37q-77 0 -121.5 47t-27.5 156l196 1225h101z" />
    <glyph glyph-name="m" unicode="m" horiz-adv-x="1724" 
d="M1354 1034q82 0 149.5 -25.5t115 -75t66.5 -130t3 -182.5l-99 -621h-100l98 627q13 79 -1.5 139t-50.5 94.5t-84.5 51t-107.5 16.5q-86 0 -177 -33.5t-152 -85.5q16 -86 -2 -188l-99 -621h-100l98 627q46 301 -231 301q-119 0 -305 -58l-137 -870h-101l150 952
q247 82 405 82q202 0 279 -116q197 116 383 116z" />
    <glyph glyph-name="n" unicode="n" horiz-adv-x="1120" 
d="M727 1034q82 0 145.5 -21t111 -66t65 -124.5t0.5 -187.5l-101 -635h-100l102 641q22 145 -38 220t-201 75q-118 0 -301 -59l-138 -877h-100l147 944q228 90 408 90z" />
    <glyph glyph-name="o" unicode="o" horiz-adv-x="1095" 
d="M705 1034q97 0 176.5 -38.5t131.5 -107.5t72.5 -170t1.5 -220q-38 -235 -190 -379t-348 -144q-131 0 -227 65.5t-139.5 188.5t-18.5 281q38 235 191.5 379.5t349.5 144.5zM700 944q-156 0 -281 -125.5t-155 -320.5q-30 -192 53 -312t236 -120q156 0 280 124.5t154 319.5
q30 192 -52 313t-235 121z" />
    <glyph glyph-name="p" unicode="p" horiz-adv-x="1124" 
d="M774 1034q189 0 287.5 -147t60.5 -387q-20 -127 -70.5 -229t-119.5 -165.5t-149.5 -97t-166.5 -33.5q-179 0 -325 134l-80 -494h-100l149 940q19 118 67 210.5t116.5 150.5t152.5 88t178 30zM770 944q-153 0 -266.5 -103.5t-143.5 -293.5l-53 -324q56 -75 136.5 -116
t168.5 -41q69 0 133.5 26.5t121 79t97.5 140t58 200.5q29 194 -41 313t-211 119z" />
    <glyph glyph-name="q" unicode="q" horiz-adv-x="1124" 
d="M672 1034q201 0 303.5 -115.5t68.5 -334.5l-153 -969h-100l77 489q-70 -59 -163.5 -93t-192.5 -34q-87 0 -159 33.5t-122.5 100t-68.5 167t2 234.5q38 237 178.5 379.5t329.5 142.5zM668 944q-148 0 -260.5 -123.5t-143.5 -320.5q-32 -209 48.5 -320.5t224.5 -111.5
q180 0 350 159l57 365q27 174 -51 263t-225 89z" />
    <glyph glyph-name="r" unicode="r" horiz-adv-x="757" 
d="M829 1034l-18 -100q-224 0 -412 -133l-127 -801h-100l135 870q245 164 522 164z" />
    <glyph glyph-name="s" unicode="s" horiz-adv-x="935" 
d="M643 1034q152 0 230.5 -57.5t82.5 -179.5l-104 8q-22 139 -211 139q-119 0 -199.5 -53.5t-95.5 -149.5q-6 -38 8 -67t49 -49.5t70 -33t92 -28.5q149 -40 204 -67q138 -68 129 -200q-1 -14 -3 -28q-23 -139 -135.5 -216t-276.5 -77q-158 0 -248 68t-96 188l101 -8
q20 -157 247 -157q125 0 209 57t99 156q5 33 -6 59.5t-28 43t-53.5 32t-64 24t-76.5 21.5l-10.5 3t-9 2.5t-10.5 2.5q-73 20 -118.5 38t-95 50t-68.5 81.5t-9 115.5q22 141 131 211.5t266 70.5z" />
    <glyph glyph-name="t" unicode="t" horiz-adv-x="698" 
d="M397 1010h330l-16 -88h-328l-102 -658q-17 -106 35.5 -152t148.5 -46q88 0 168 28l-12 -94q-86 -25 -172 -25q-136 0 -213.5 73t-55.5 216l162 1026h100z" />
    <glyph glyph-name="u" unicode="u" 
d="M1122 1010l-92 -592q-32 -210 -156.5 -326.5t-314.5 -116.5q-192 0 -283 120t-57 331l94 584h101l-95 -590q-26 -177 37 -265.5t207 -88.5q149 0 244 92.5t123 269.5l92 582h100z" />
    <glyph glyph-name="v" unicode="v" horiz-adv-x="1019" 
d="M559 2h-96l-246 1008h105l215 -873l479 873h108z" />
    <glyph glyph-name="w" unicode="w" horiz-adv-x="1419" 
d="M1030 0h-104l-80 877l-352 -877h-105l-153 1010l106 -2l125 -875l350 877h103l84 -877l393 877h106z" />
    <glyph glyph-name="x" unicode="x" horiz-adv-x="931" 
d="M612 524l262 -524h-116l-223 453l-357 -453h-125l430 526l-237 484h119l194 -410l326 410l127 -2z" />
    <glyph glyph-name="y" unicode="y" horiz-adv-x="1136" 
d="M1124 1010l-153 -969q-32 -201 -167 -326t-310 -125q-65 0 -119.5 11t-90 26t-68 40t-50 44t-39.5 47l61 72q21 -29 42.5 -50t58 -46.5t90 -39t119.5 -13.5q133 0 240.5 104t133.5 264l17 90q-70 -68 -165.5 -116t-193.5 -48q-181 0 -262 119.5t-47 331.5l92 584h101
l-92 -590q-28 -180 25 -267t194 -87q106 0 199 57.5t163 136.5l121 750h100z" />
    <glyph glyph-name="z" unicode="z" horiz-adv-x="1015" 
d="M995 924l-723 -834h629l-16 -90h-754l12 80l723 835h-575l16 95h703z" />
    <glyph glyph-name="braceleft" unicode="{" horiz-adv-x="612" 
d="M729 1649l-8 -97q-40 0 -67.5 -6.5t-55 -25.5t-45 -58t-27.5 -100l-71 -457q-30 -202 -191 -246q144 -39 113 -249l-74 -457q-6 -35 -6.5 -62.5t3 -47t12.5 -33t19.5 -21t27.5 -12t32.5 -5.5t38.5 -1l-6 -97q-120 0 -181.5 67.5t-35.5 219.5l72 457q13 80 -15.5 133
t-97.5 53l4 58l8 57q69 0 118 57t62 137l72 457q45 279 299 279z" />
    <glyph glyph-name="bar" unicode="|" horiz-adv-x="475" 
d="M209 -512h-107l326 2048h107z" />
    <glyph glyph-name="braceright" unicode="}" horiz-adv-x="610" 
d="M-139 -326l8 97q40 0 67.5 6.5t54.5 25.5t44.5 58t27.5 100l72 457q30 202 191 246q-144 39 -113 249l74 457q6 35 6.5 62.5t-3 47t-12.5 33t-19.5 21t-27.5 12t-32.5 5.5t-38.5 1l6 97q120 0 181.5 -67.5t35.5 -219.5l-72 -457q-13 -80 15.5 -133t97.5 -53l-4 -57
l-8 -58q-69 0 -118.5 -57.5t-62.5 -136.5l-71 -457q-45 -279 -299 -279z" />
    <glyph glyph-name="asciitilde" unicode="~" horiz-adv-x="960" 
d="M403 707q47 0 100.5 -22t94 -49t89.5 -49t87 -22q40 0 72 29t61 94l88 -39q-88 -184 -229 -184q-50 0 -103 22t-90 48.5t-85 48.5t-89 22q-96 0 -166 -129l-83 41q104 189 253 189z" />
    <glyph glyph-name="exclamdown" unicode="&#xa1;" horiz-adv-x="419" 
d="M311 874q-32 0 -53.5 24t-15.5 63q6 36 30.5 54.5t53.5 18.5q33 0 54.5 -23.5t14.5 -62.5q-6 -36 -30 -55t-54 -19zM252 762h110l-163 -1043h-111z" />
    <glyph glyph-name="cent" unicode="&#xa2;" horiz-adv-x="1097" 
d="M600 205q92 0 169.5 40t129.5 111l111 -6q-58 -99 -156.5 -163.5t-228.5 -71.5l-35 -217h-98l36 221q-171 27 -263 172.5t-58 359.5q33 218 167.5 358.5t317.5 161.5l37 232h98l-36 -232q123 -10 198.5 -77t100.5 -164l-103 6q-62 147 -239 147q-103 0 -195 -53
t-158.5 -155.5t-87.5 -235.5q-30 -198 54 -316t239 -118z" />
    <glyph glyph-name="sterling" unicode="&#xa3;" horiz-adv-x="950" 
d="M719 1210q-108 0 -185 -75t-100 -211q-4 -26 -5.5 -64t-1 -58t3.5 -80t3 -71h338l-16 -98h-320q0 -60 -10 -135q-31 -206 -174 -322l639 2l-19 -98h-766l15 88q82 70 134 158.5t67 183.5q8 52 8 123h-148l15 98h131q-1 18 -3 60t-2.5 64t-1 54.5t1.5 58t5 48.5
q30 182 139.5 279.5t255.5 97.5q121 0 201 -61.5t108 -147.5l-96 -45q-47 151 -217 151z" />
    <glyph glyph-name="yen" unicode="&#xa5;" horiz-adv-x="1071" 
d="M702 557h228l-12 -84h-250l-25 -149h250l-12 -84h-252l-39 -240h-111l39 240h-250l15 84h249l25 149h-252l14 84h228l-264 733h118l228 -696l446 696h127z" />
    <glyph glyph-name="brokenbar" unicode="&#xa6;" horiz-adv-x="475" 
d="M403 717h-106l131 819h107zM209 -512h-107l131 819h107z" />
    <glyph glyph-name="section" unicode="&#xa7;" horiz-adv-x="942" 
d="M727 1372q65 0 122 -26.5t91 -61.5l-51 -98q-73 84 -176 84q-55 0 -97 -33.5t-51 -91.5q-9 -59 4.5 -130.5t43 -140t66 -149t72 -157t63 -164.5t38 -172t-3.5 -179q-22 -141 -105.5 -259t-188.5 -180.5t-204 -62.5q-67 0 -125 26.5t-92 62.5l51 98q70 -84 178 -84
q55 0 98 33.5t52 89.5q10 66 -10.5 146t-58 155t-80.5 168t-77.5 185t-49.5 206.5t4 232.5q34 213 173.5 357.5t313.5 144.5zM500 1200q-53 -24 -103 -117.5t-63 -181.5q-15 -93 -9 -185t28 -166.5t52.5 -151.5t63.5 -140.5t62 -132.5t48 -127.5t21 -127t-18 -130.5
q53 25 104 117.5t64 173.5q14 88 1 184.5t-43.5 180t-69 175t-75 168.5t-61 161.5t-27.5 154t25 145.5z" />
    <glyph glyph-name="dieresis" unicode="&#xa8;" horiz-adv-x="962" 
d="M508 1325q31 0 52 -23.5t15 -62.5q-6 -36 -29 -55t-52 -19q-32 0 -53.5 23.5t-14.5 62.5q6 36 29 55t53 19zM864 1325q32 0 53 -23.5t15 -62.5q-6 -36 -29.5 -55t-52.5 -19q-33 0 -54 23.5t-14 62.5q6 36 29 55t53 19z" />
    <glyph glyph-name="copyright" unicode="&#xa9;" horiz-adv-x="1423" 
d="M913 1315q95 0 175.5 -24.5t139 -69.5t102 -107.5t64.5 -138t27.5 -162t-10.5 -178.5q-22 -137 -80 -256t-146 -209.5t-209.5 -142.5t-260.5 -52q-95 0 -176 24.5t-139.5 68.5t-102 105.5t-64.5 136t-27.5 160t9.5 177.5q22 138 80 258.5t146 212t210 144.5t262 53z
M909 1219q-159 0 -287.5 -77.5t-207 -208t-105.5 -298.5q-26 -164 10.5 -290t139 -199.5t260.5 -73.5q238 0 398.5 161t199.5 414q26 166 -10 294t-138 203t-260 75zM872 1069q123 0 196.5 -67.5t88.5 -161.5l-115 6q-45 112 -174 112q-116 0 -209 -89.5t-116 -235.5
q-21 -142 41.5 -228t173.5 -86q137 0 223 117l119 -6q-44 -93 -135.5 -157t-212.5 -64q-159 0 -252.5 124t-63.5 312q29 188 153 306t283 118z" />
    <glyph glyph-name="guillemotleft" unicode="&#xab;" horiz-adv-x="833" 
d="M592 940l-305 -352l192 -352l-76 -50l-213 394v16l336 391zM893 940l-305 -352l192 -352l-75 -50l-213 394v16l335 391z" />
    <glyph glyph-name="logicalnot" unicode="&#xac;" horiz-adv-x="1003" 
d="M985 608l-53 -325h-98l47 290h-676l18 101h772z" />
    <glyph glyph-name="registered" unicode="&#xae;" horiz-adv-x="704" 
d="M555 1315q129 0 190.5 -91.5t40.5 -224.5q-21 -131 -106 -216t-211 -85q-129 0 -191.5 90t-41.5 224q21 130 107 216.5t212 86.5zM727 1012q18 104 -27.5 169.5t-144.5 65.5q-102 0 -171 -70t-87 -178q-16 -105 28 -169t142 -64q103 0 172.5 69t87.5 177zM502 1182h33
q58 0 82 -43t7.5 -94t-61.5 -74l58 -117h-68l-41 104h-4h-55l-17 -104h-49l41 258q6 36 23.5 53t50.5 17zM461 1010h47q43 0 64 41q18 38 -2 62q-12 15 -35 15h-25q-13 0 -23.5 -10.5t-13.5 -25.5z" />
    <glyph glyph-name="macron" unicode="&#xaf;" horiz-adv-x="962" 
d="M905 1157h-485l14 82h488z" />
    <glyph glyph-name="degree" unicode="&#xb0;" horiz-adv-x="616" 
d="M510 1315q106 0 155.5 -71.5t34.5 -166.5q-15 -92 -81.5 -158.5t-169.5 -66.5q-106 0 -157 71.5t-36 166.5q15 92 83 158.5t171 66.5zM510 1237q-70 0 -116.5 -46.5t-57.5 -113.5q-10 -64 18.5 -105.5t94.5 -41.5q70 0 117 46.5t57 113.5q10 64 -18 105.5t-95 41.5z" />
    <glyph glyph-name="plusminus" unicode="&#xb1;" horiz-adv-x="1007" 
d="M1022 821l-18 -100h-336l-62 -379h-100l61 379h-336l17 100h334l61 379h100l-61 -379h340zM135 100h772l-18 -100h-772z" />
    <glyph glyph-name="twosuperior" unicode="&#xb2;" horiz-adv-x="618" 
d="M504 1305q102 0 159 -59.5t42 -155.5q-9 -55 -35 -96t-61.5 -64.5t-77 -41.5t-82.5 -33.5t-75.5 -34t-59 -48.5t-31.5 -72l-2 -16h350l-15 -90h-444l14 92q10 64 37.5 111.5t64 74.5t78 46.5t82 35t75 33t59 47t30.5 70.5q8 54 -20.5 86.5t-87.5 32.5q-64 0 -108 -28
t-50 -71l-88 9q11 71 78.5 121.5t167.5 50.5z" />
    <glyph glyph-name="threesuperior" unicode="&#xb3;" horiz-adv-x="612" 
d="M492 1305q110 0 167.5 -56.5t42.5 -150.5q-7 -50 -40.5 -88.5t-83.5 -57.5q47 -14 74 -60t18 -106q-15 -94 -92 -149t-183 -55q-114 0 -177 52.5t-50 141.5l86 -8q-9 -57 29.5 -81.5t113.5 -24.5t124 38.5t57 96.5q6 48 -28.5 80t-109.5 32h-94l12 78h84q71 0 117.5 36
t54.5 89q8 48 -20.5 79.5t-99.5 31.5q-61 0 -107.5 -29.5t-52.5 -71.5l-88 8q12 75 80.5 125t165.5 50z" />
    <glyph glyph-name="acute" unicode="&#xb4;" horiz-adv-x="962" 
d="M453 1112l-21 82l432 182l25 -86z" />
    <glyph glyph-name="paragraph" unicode="&#xb6;" horiz-adv-x="980" 
d="M1112 1190h-166l-143 -907q-20 -122 -65.5 -214.5t-104 -143t-126.5 -78.5t-135 -27.5t-126 17t-103 48.5l33 109q53 -36 115.5 -53t128.5 -7t122.5 46t100.5 113t62 186l34 217q-36 -39 -93 -66.5t-118 -28.5q-173 -4 -255 131q-73 120 -47 294q26 178 140 306
q141 158 351 158h411z" />
    <glyph glyph-name="periodcentered" unicode="&#xb7;" horiz-adv-x="307" 
d="M272 647q32 0 54 -23.5t16 -62.5q-6 -36 -30.5 -55t-53.5 -19q-33 0 -55 23.5t-15 62.5q6 36 30 55t54 19z" />
    <glyph glyph-name="cedilla" unicode="&#xb8;" horiz-adv-x="962" 
d="M528 0l-59 -129q84 0 122 -52t27 -122q-11 -72 -70 -124t-153 -52q-86 0 -157 61l51 64q2 -2 9 -8t9.5 -8t9.5 -7.5t10.5 -7.5t10 -5.5t12 -5.5t13 -4t15.5 -2.5t17 -0.5q57 0 95.5 31.5t44.5 72.5q7 45 -15.5 69.5t-66.5 24.5h-37l-27 70l66 135h73z" />
    <glyph glyph-name="onesuperior" unicode="&#xb9;" horiz-adv-x="319" 
d="M319 594h-92l97 610h-91l17 86h180z" />
    <glyph glyph-name="guillemotright" unicode="&#xbb;" horiz-adv-x="833" 
d="M-80 233l305 353l-192 352l76 49l213 -393v-16l-336 -392zM221 233l305 353l-192 352l76 49l213 -393v-16l-336 -392z" />
    <glyph glyph-name="onequarter" unicode="&#xbc;" horiz-adv-x="1069" 
d="M160 -80l-88 19l932 1536l83 -19zM319 594h-92l97 610h-91l17 86h180zM645 231h234l32 218h93l-35 -218h61l-16 -86h-60l-22 -145h-92l22 145h-344l10 76l359 475h114z" />
    <glyph glyph-name="onehalf" unicode="&#xbd;" horiz-adv-x="1177" 
d="M160 -80l-88 19l932 1536l83 -19zM319 594h-92l97 610h-91l17 86h180zM969 711q102 0 158.5 -59.5t41.5 -155.5q-9 -55 -35 -96t-61.5 -64.5t-76.5 -41.5t-82 -33.5t-75.5 -34t-59 -48.5t-31.5 -72l-3 -16h351l-15 -90h-444l14 92q10 64 37.5 111.5t64 74.5t78 46.5
t82 35t75 33t59 47t30.5 70.5q8 54 -20.5 86.5t-87.5 32.5q-64 0 -108 -28t-50 -71l-88 9q11 71 78.5 121.5t167.5 50.5z" />
    <glyph glyph-name="threequarters" unicode="&#xbe;" horiz-adv-x="1341" 
d="M432 -80l-88 19l932 1536l84 -19zM492 1305q110 0 167.5 -56.5t42.5 -150.5q-7 -50 -40.5 -88.5t-83.5 -57.5q47 -14 74 -60t18 -106q-15 -94 -92 -149t-183 -55q-114 0 -177 52.5t-50 141.5l86 -8q-9 -57 29.5 -81.5t113.5 -24.5t124 38.5t57 96.5q6 48 -28.5 80
t-109.5 32h-94l12 78h84q71 0 117.5 36t54.5 89q8 48 -20.5 79.5t-99.5 31.5q-61 0 -107.5 -29.5t-52.5 -71.5l-88 8q12 75 80.5 125t165.5 50zM918 231h233l33 218h92l-35 -218h62l-17 -86h-59l-23 -145h-92l23 145h-344l10 76l358 475h115z" />
    <glyph glyph-name="questiondown" unicode="&#xbf;" horiz-adv-x="1093" 
d="M731 874q-32 0 -53.5 24t-15.5 63q6 36 30 54.5t53 18.5q33 0 55 -23.5t15 -62.5q-6 -36 -30 -55t-54 -19zM504 -305q-64 0 -121.5 13t-108.5 43t-84.5 74t-47.5 111t-1 150q11 71 34.5 126t54 90t66.5 61t74.5 43.5t77 34.5t74 38t64.5 48t50 70.5t30 100.5l10 64h110
l-12 -72q-13 -81 -40.5 -140.5t-62.5 -92t-78 -58.5t-85.5 -40.5t-84.5 -37.5t-76 -49.5t-60 -77t-37 -120.5q-10 -64 1 -114t36 -81t62.5 -51.5t77 -28.5t83.5 -8q124 0 209 53.5t127 145.5l108 -8q-98 -287 -450 -287z" />
    <glyph glyph-name="Agrave" unicode="&#xc0;" horiz-adv-x="1288" 
d="M1026 1393l-383 178l47 86l379 -182zM1026 311h-661l-166 -311h-125l719 1290h110l309 -1290h-116zM1001 412l-172 768l-411 -768h583z" />
    <glyph glyph-name="Aacute" unicode="&#xc1;" horiz-adv-x="1288" 
d="M782 1393l-20 82l432 182l25 -86zM903 1290l309 -1290h-116l-70 311h-661l-166 -311h-125l719 1290h110zM1001 412l-172 768l-411 -768h583z" />
    <glyph glyph-name="Acircumflex" unicode="&#xc2;" horiz-adv-x="1288" 
d="M653 1391l-55 53l281 256h73l201 -256l-68 -53l-182 223zM1026 311h-661l-166 -311h-125l719 1290h110l309 -1290h-116zM1001 412l-172 768l-411 -768h583z" />
    <glyph glyph-name="Atilde" unicode="&#xc3;" horiz-adv-x="1288" 
d="M768 1462q-52 0 -80 -82l-88 33q16 60 62 104t104 44q47 0 121.5 -25t95.5 -25q66 0 94 76l86 -33q-62 -141 -178 -141q-53 0 -127 24.5t-90 24.5zM1026 311h-661l-166 -311h-125l719 1290h110l309 -1290h-116zM1001 412l-172 768l-411 -768h583z" />
    <glyph glyph-name="Adieresis" unicode="&#xc4;" horiz-adv-x="1288" 
d="M702 1446q-32 0 -53 23.5t-14 62.5q6 36 29 55t53 19q31 0 52 -23.5t15 -62.5q-6 -36 -29.5 -55t-52.5 -19zM1059 1446q-33 0 -54 23.5t-14 62.5q6 36 29 55t53 19q32 0 53 -23.5t15 -62.5q-6 -36 -29.5 -55t-52.5 -19zM1026 311h-661l-166 -311h-125l719 1290h110
l309 -1290h-116zM1001 412l-172 768l-411 -768h583z" />
    <glyph glyph-name="Aring" unicode="&#xc5;" horiz-adv-x="1288" 
d="M866 1352q-69 0 -110.5 45t-28.5 123q11 74 61.5 114.5t116.5 40.5q68 0 109 -45t30 -123q-11 -74 -61.5 -114.5t-116.5 -40.5zM795 1507q-6 -37 11.5 -61.5t57.5 -24.5q44 0 75.5 29.5t37.5 69.5q5 38 -13 62t-59 24q-43 0 -73.5 -29.5t-36.5 -69.5zM1026 311h-661
l-166 -311h-125l719 1290h110l309 -1290h-116zM1001 412l-172 768l-411 -768h583z" />
    <glyph glyph-name="AE" unicode="&#xc6;" horiz-adv-x="1851" 
d="M1167 1190l-80 -537h654l-19 -100h-653l-35 -221q-19 -128 31.5 -180t155.5 -52h483l-18 -100h-476q-158 0 -234.5 87t-49.5 259l32 207h-350l-428 -553h-143l1028 1290h809l-16 -100h-691zM1051 1124l-365 -471h289z" />
    <glyph glyph-name="Ccedilla" unicode="&#xc7;" horiz-adv-x="1161" 
d="M872 1219q-116 0 -216.5 -48t-171 -129.5t-117 -184.5t-64.5 -218q-13 -71 -9 -141t18.5 -133t47 -116.5t76.5 -93t108 -61.5t140 -22q218 0 334 170l127 -6q-41 -108 -166.5 -184.5t-298.5 -76.5l-49 -104q84 0 122 -52t27 -122q-11 -72 -70 -124t-153 -52
q-87 0 -158 61l52 64q2 -2 9 -8t9.5 -8t9.5 -7.5t10.5 -7.5t10 -5.5t12 -5.5t13 -4t15.5 -2.5t17 -0.5q57 0 95 31.5t44 72.5q7 45 -15.5 69.5t-66.5 24.5h-36l-27 70l55 115q-98 11 -176 54t-127 107t-80 147t-35 175t9 190q17 104 55 200.5t98.5 181t137.5 146.5t178 98
t213 36q176 0 280.5 -79.5t112.5 -188.5l-125 6q-29 78 -97.5 122t-177.5 44z" />
    <glyph glyph-name="Egrave" unicode="&#xc8;" 
d="M627 1657l379 -182l-43 -82l-383 178zM1147 1190h-688l-76 -490h653l-16 -100h-653l-41 -268q-19 -128 30.5 -180t155.5 -52h483l-18 -100h-475q-158 0 -235 87t-50 259l150 944h798z" />
    <glyph glyph-name="Eacute" unicode="&#xc9;" 
d="M616 1393l-20 82l432 182l25 -86zM1147 1190h-688l-76 -490h653l-16 -100h-653l-41 -268q-19 -128 30.5 -180t155.5 -52h483l-18 -100h-475q-158 0 -235 87t-50 259l150 944h798z" />
    <glyph glyph-name="Ecircumflex" unicode="&#xca;" 
d="M1090 1444l-68 -53l-182 223l-250 -223l-55 53l280 256h74zM1147 1190h-688l-76 -490h653l-16 -100h-653l-41 -268q-19 -128 30.5 -180t155.5 -52h483l-18 -100h-475q-158 0 -235 87t-50 259l150 944h798z" />
    <glyph glyph-name="Edieresis" unicode="&#xcb;" 
d="M653 1606q32 0 53 -23.5t15 -62.5q-6 -36 -29.5 -55t-52.5 -19q-32 0 -53.5 23.5t-14.5 62.5q6 36 29 55t53 19zM1010 1606q31 0 52 -23.5t15 -62.5q-6 -36 -29.5 -55t-52.5 -19q-33 0 -53.5 23.5t-13.5 62.5q6 36 29 55t53 19zM1147 1190h-688l-76 -490h653l-16 -100
h-653l-41 -268q-19 -128 30.5 -180t155.5 -52h483l-18 -100h-475q-158 0 -235 87t-50 259l150 944h798z" />
    <glyph glyph-name="Igrave" unicode="&#xcc;" horiz-adv-x="434" 
d="M262 1657l379 -182l-43 -82l-383 178zM272 0h-110l205 1290h110z" />
    <glyph glyph-name="Iacute" unicode="&#xcd;" horiz-adv-x="434" 
d="M252 1393l-21 82l433 182l24 -86zM272 0h-110l205 1290h110z" />
    <glyph glyph-name="Icircumflex" unicode="&#xce;" horiz-adv-x="434" 
d="M725 1444l-68 -53l-182 223l-250 -223l-55 53l281 256h73zM272 0h-110l205 1290h110z" />
    <glyph glyph-name="Idieresis" unicode="&#xcf;" horiz-adv-x="434" 
d="M289 1606q31 0 52 -23.5t15 -62.5q-6 -36 -29.5 -55t-52.5 -19q-32 0 -53 23.5t-14 62.5q6 36 29 55t53 19zM645 1606q32 0 53 -23.5t15 -62.5q-6 -36 -29.5 -55t-52.5 -19q-33 0 -54 23.5t-14 62.5q6 36 29 55t53 19zM272 0h-110l205 1290h110z" />
    <glyph glyph-name="Eth" unicode="&#xd0;" horiz-adv-x="1241" 
d="M387 1290h330q106 0 195.5 -24t153 -67t111.5 -102.5t71 -130t31.5 -150.5t-7.5 -163q-16 -105 -55 -200t-103.5 -178.5t-149.5 -144t-199 -95.5t-245 -35h-338l94 592h-163l18 102h162zM1161 666q6 57 6 112t-14.5 106.5t-37 97.5t-61.5 84t-87.5 65.5t-115 43
t-144.5 15.5h-228l-76 -496h302l-17 -102h-301l-76 -492h217q139 0 255.5 49.5t193 131.5t123.5 180.5t61 204.5z" />
    <glyph glyph-name="Ntilde" unicode="&#xd1;" horiz-adv-x="1300" 
d="M1083 1587l86 -33q-62 -141 -178 -141q-53 0 -127 24.5t-90 24.5q-52 0 -80 -82l-88 33q16 60 62 104t104 44q47 0 121.5 -25t95.5 -25q66 0 94 76zM1139 0h-92l-601 1106l-174 -1106h-110l205 1290h94l600 -1093l172 1093h110z" />
    <glyph glyph-name="Ograve" unicode="&#xd2;" horiz-adv-x="1353" 
d="M721 1657l379 -182l-43 -82l-383 178zM879 1315q95 0 175 -26t135.5 -72t97 -109.5t60 -139t24 -160t-10.5 -171.5q-20 -128 -75.5 -245.5t-140 -211t-206 -149.5t-260.5 -56q-95 0 -174.5 26.5t-135 73t-97.5 110.5t-60.5 139.5t-24 159t10.5 169.5q17 104 55 200.5
t98.5 181t137.5 146.5t178 98t213 36zM874 1219q-117 0 -218 -48t-171.5 -129.5t-117 -184.5t-64.5 -218q-13 -71 -9 -141t18.5 -133t47 -116.5t76.5 -93t108 -61.5t140 -22q115 0 215.5 49.5t171.5 132t118 185t64 212.5q11 88 8 170.5t-31.5 155t-73 126.5t-117.5 85
t-165 31z" />
    <glyph glyph-name="Oacute" unicode="&#xd3;" horiz-adv-x="1353" 
d="M711 1393l-21 82l432 182l25 -86zM879 1315q95 0 175 -26t135.5 -72t97 -109.5t60 -139t24 -160t-10.5 -171.5q-20 -128 -75.5 -245.5t-140 -211t-206 -149.5t-260.5 -56q-95 0 -174.5 26.5t-135 73t-97.5 110.5t-60.5 139.5t-24 159t10.5 169.5q17 104 55 200.5
t98.5 181t137.5 146.5t178 98t213 36zM874 1219q-117 0 -218 -48t-171.5 -129.5t-117 -184.5t-64.5 -218q-13 -71 -9 -141t18.5 -133t47 -116.5t76.5 -93t108 -61.5t140 -22q115 0 215.5 49.5t171.5 132t118 185t64 212.5q11 88 8 170.5t-31.5 155t-73 126.5t-117.5 85
t-165 31z" />
    <glyph glyph-name="Ocircumflex" unicode="&#xd4;" horiz-adv-x="1353" 
d="M1184 1444l-68 -53l-182 223l-250 -223l-55 53l280 256h74zM879 1315q95 0 175 -26t135.5 -72t97 -109.5t60 -139t24 -160t-10.5 -171.5q-20 -128 -75.5 -245.5t-140 -211t-206 -149.5t-260.5 -56q-95 0 -174.5 26.5t-135 73t-97.5 110.5t-60.5 139.5t-24 159t10.5 169.5
q17 104 55 200.5t98.5 181t137.5 146.5t178 98t213 36zM874 1219q-117 0 -218 -48t-171.5 -129.5t-117 -184.5t-64.5 -218q-13 -71 -9 -141t18.5 -133t47 -116.5t76.5 -93t108 -61.5t140 -22q115 0 215.5 49.5t171.5 132t118 185t64 212.5q11 88 8 170.5t-31.5 155
t-73 126.5t-117.5 85t-165 31z" />
    <glyph glyph-name="Otilde" unicode="&#xd5;" horiz-adv-x="1353" 
d="M1108 1587l86 -33q-62 -141 -178 -141q-53 0 -127 24.5t-90 24.5q-52 0 -80 -82l-88 33q16 60 62 104t104 44q47 0 121.5 -25t95.5 -25q66 0 94 76zM879 1315q95 0 175 -26t135.5 -72t97 -109.5t60 -139t24 -160t-10.5 -171.5q-20 -128 -75.5 -245.5t-140 -211
t-206 -149.5t-260.5 -56q-95 0 -174.5 26.5t-135 73t-97.5 110.5t-60.5 139.5t-24 159t10.5 169.5q17 104 55 200.5t98.5 181t137.5 146.5t178 98t213 36zM874 1219q-117 0 -218 -48t-171.5 -129.5t-117 -184.5t-64.5 -218q-13 -71 -9 -141t18.5 -133t47 -116.5t76.5 -93
t108 -61.5t140 -22q115 0 215.5 49.5t171.5 132t118 185t64 212.5q11 88 8 170.5t-31.5 155t-73 126.5t-117.5 85t-165 31z" />
    <glyph glyph-name="Odieresis" unicode="&#xd6;" horiz-adv-x="1353" 
d="M748 1606q31 0 52 -23.5t15 -62.5q-6 -36 -29.5 -55t-52.5 -19q-32 0 -53 23.5t-14 62.5q6 36 29 55t53 19zM1104 1606q31 0 52 -23.5t15 -62.5q-6 -36 -29 -55t-52 -19q-33 0 -54 23.5t-14 62.5q6 36 29 55t53 19zM879 1315q95 0 175 -26t135.5 -72t97 -109.5t60 -139
t24 -160t-10.5 -171.5q-20 -128 -75.5 -245.5t-140 -211t-206 -149.5t-260.5 -56q-95 0 -174.5 26.5t-135 73t-97.5 110.5t-60.5 139.5t-24 159t10.5 169.5q17 104 55 200.5t98.5 181t137.5 146.5t178 98t213 36zM874 1219q-117 0 -218 -48t-171.5 -129.5t-117 -184.5
t-64.5 -218q-13 -71 -9 -141t18.5 -133t47 -116.5t76.5 -93t108 -61.5t140 -22q115 0 215.5 49.5t171.5 132t118 185t64 212.5q11 88 8 170.5t-31.5 155t-73 126.5t-117.5 85t-165 31z" />
    <glyph glyph-name="multiply" unicode="&#xd7;" horiz-adv-x="917" 
d="M625 627l229 -310l-86 -69l-223 303l-324 -303l-53 69l324 306l-228 309l82 69l225 -303l322 303l55 -69z" />
    <glyph glyph-name="Oslash" unicode="&#xd8;" horiz-adv-x="1355" 
d="M1391 1432l-166 -228q104 -91 143 -242t12 -325q-20 -128 -75.5 -245.5t-140 -211t-206 -149.5t-260.5 -56q-178 0 -299 91l-174 -240l-69 41l184 254q-86 95 -117 235.5t-6 296.5q17 104 55 200.5t98.5 181t137.5 146.5t178 98t213 36q151 0 260 -64l162 222zM324 639
q-19 -123 1.5 -235.5t80.5 -192.5l694 956q-87 52 -205 52q-117 0 -218 -48t-171.5 -129.5t-117 -184.5t-64.5 -218zM1274 651q22 141 -5.5 265t-105.5 202l-702 -966q100 -80 244 -80q115 0 215.5 49.5t171.5 132t118 185t64 212.5z" />
    <glyph glyph-name="Ugrave" unicode="&#xd9;" horiz-adv-x="1275" 
d="M682 1657l379 -182l-43 -82l-383 178zM1319 1290l-127 -815q-21 -124 -73.5 -221t-127 -157t-163.5 -91t-187 -31q-99 0 -180 32t-138.5 93t-80.5 159.5t-4 223.5l129 807h110l-129 -815q-30 -197 54 -300t245 -103q162 0 282.5 107t151.5 304l127 807h111z" />
    <glyph glyph-name="Uacute" unicode="&#xda;" horiz-adv-x="1275" 
d="M672 1393l-21 82l432 182l25 -86zM1319 1290l-127 -815q-21 -124 -73.5 -221t-127 -157t-163.5 -91t-187 -31q-99 0 -180 32t-138.5 93t-80.5 159.5t-4 223.5l129 807h110l-129 -815q-30 -197 54 -300t245 -103q162 0 282.5 107t151.5 304l127 807h111z" />
    <glyph glyph-name="Ucircumflex" unicode="&#xdb;" horiz-adv-x="1275" 
d="M1145 1444l-68 -53l-182 223l-250 -223l-55 53l280 256h74zM1319 1290l-127 -815q-21 -124 -73.5 -221t-127 -157t-163.5 -91t-187 -31q-99 0 -180 32t-138.5 93t-80.5 159.5t-4 223.5l129 807h110l-129 -815q-30 -197 54 -300t245 -103q162 0 282.5 107t151.5 304
l127 807h111z" />
    <glyph glyph-name="Udieresis" unicode="&#xdc;" horiz-adv-x="1275" 
d="M709 1606q31 0 52 -23.5t15 -62.5q-6 -36 -29.5 -55t-52.5 -19q-32 0 -53 23.5t-14 62.5q6 36 29 55t53 19zM1065 1606q32 0 53 -23.5t15 -62.5q-6 -36 -29.5 -55t-52.5 -19q-33 0 -54 23.5t-14 62.5q6 36 29 55t53 19zM1319 1290l-127 -815q-21 -124 -73.5 -221
t-127 -157t-163.5 -91t-187 -31q-99 0 -180 32t-138.5 93t-80.5 159.5t-4 223.5l129 807h110l-129 -815q-30 -197 54 -300t245 -103q162 0 282.5 107t151.5 304l127 807h111z" />
    <glyph glyph-name="Yacute" unicode="&#xdd;" horiz-adv-x="1200" 
d="M637 1393l-21 82l433 182l24 -86zM739 535l-86 -535h-110l86 535l-348 755h122l299 -653l502 653h129z" />
    <glyph glyph-name="Thorn" unicode="&#xde;" horiz-adv-x="1064" 
d="M442 1075h267q204 0 300 -141q80 -118 57 -284.5t-137 -287.5q-140 -149 -351 -149h-273l-33 -213h-110l205 1290h110zM426 979l-102 -668h268q163 0 271 128q89 106 99 245q10 140 -68 223q-69 72 -189 72h-279z" />
    <glyph glyph-name="germandbls" unicode="&#xdf;" horiz-adv-x="1099" 
d="M741 66q99 0 160 46.5t76 141.5q7 45 -15.5 76.5t-63 50.5t-91 35t-100 37t-88.5 50.5t-58 81t-8 122.5q11 73 55.5 122.5t100.5 75t111.5 47.5t98 58t50.5 90q17 109 -77 166q-86 53 -210 34q-136 -21 -215 -115q-53 -64 -66 -149l-163 -1036h-101l164 1036
q31 198 190 297q131 82 290 68q147 -13 230 -101q82 -86 62 -213q-10 -64 -44.5 -110.5t-78.5 -70t-94.5 -45.5t-93.5 -39t-74.5 -49t-38.5 -77q-8 -50 14 -85.5t62.5 -56t90.5 -37.5t100 -37t89.5 -47t59 -75t8.5 -114q-22 -132 -117.5 -200.5t-220.5 -68.5q-152 0 -236 68
t-89 188l100 -8q17 -157 231 -157z" />
    <glyph glyph-name="agrave" unicode="&#xe0;" horiz-adv-x="1071" 
d="M500 1376l379 -182l-43 -82l-383 178zM721 1034q171 0 319 -98l-137 -737q-26 -142 68 -142q53 0 157 49l-12 -90q-102 -39 -172 -39q-143 0 -143 156q-63 -73 -151 -115.5t-191 -42.5q-187 0 -262.5 136.5t-36.5 375.5q29 175 115 301t200.5 186t245.5 60zM713 944
q-113 0 -211 -67t-160 -173t-82 -229q-15 -84 -10 -158t26 -130t70 -88.5t121 -32.5q106 0 202.5 65.5t149.5 147.5l115 604q-111 61 -221 61z" />
    <glyph glyph-name="aacute" unicode="&#xe1;" horiz-adv-x="1071" 
d="M489 1112l-20 82l432 182l25 -86zM721 1034q171 0 319 -98l-137 -737q-26 -142 68 -142q53 0 157 49l-12 -90q-102 -39 -172 -39q-143 0 -143 156q-63 -73 -151 -115.5t-191 -42.5q-187 0 -262.5 136.5t-36.5 375.5q29 175 115 301t200.5 186t245.5 60zM713 944
q-113 0 -211 -67t-160 -173t-82 -229q-15 -84 -10 -158t26 -130t70 -88.5t121 -32.5q106 0 202.5 65.5t149.5 147.5l115 604q-111 61 -221 61z" />
    <glyph glyph-name="acircumflex" unicode="&#xe2;" horiz-adv-x="1071" 
d="M963 1163l-68 -53l-182 223l-250 -223l-55 53l280 256h74zM721 1034q171 0 319 -98l-137 -737q-26 -142 68 -142q53 0 157 49l-12 -90q-102 -39 -172 -39q-143 0 -143 156q-63 -73 -151 -115.5t-191 -42.5q-187 0 -262.5 136.5t-36.5 375.5q29 175 115 301t200.5 186
t245.5 60zM713 944q-113 0 -211 -67t-160 -173t-82 -229q-15 -84 -10 -158t26 -130t70 -88.5t121 -32.5q106 0 202.5 65.5t149.5 147.5l115 604q-111 61 -221 61z" />
    <glyph glyph-name="atilde" unicode="&#xe3;" horiz-adv-x="1071" 
d="M887 1307l86 -33q-62 -141 -178 -141q-53 0 -127 24.5t-90 24.5q-52 0 -80 -82l-88 33q16 60 61.5 103.5t103.5 43.5q47 0 122 -24.5t96 -24.5q66 0 94 76zM721 1034q171 0 319 -98l-137 -737q-26 -142 68 -142q53 0 157 49l-12 -90q-102 -39 -172 -39q-143 0 -143 156
q-63 -73 -151 -115.5t-191 -42.5q-187 0 -262.5 136.5t-36.5 375.5q29 175 115 301t200.5 186t245.5 60zM713 944q-113 0 -211 -67t-160 -173t-82 -229q-15 -84 -10 -158t26 -130t70 -88.5t121 -32.5q106 0 202.5 65.5t149.5 147.5l115 604q-111 61 -221 61z" />
    <glyph glyph-name="adieresis" unicode="&#xe4;" horiz-adv-x="1071" 
d="M526 1325q32 0 53 -23.5t15 -62.5q-6 -36 -29.5 -55t-52.5 -19q-32 0 -53.5 23.5t-14.5 62.5q6 36 29 55t53 19zM883 1325q31 0 52 -23.5t15 -62.5q-6 -36 -29.5 -55t-52.5 -19q-33 0 -53.5 23.5t-13.5 62.5q6 36 29 55t53 19zM721 1034q171 0 319 -98l-137 -737
q-26 -142 68 -142q53 0 157 49l-12 -90q-102 -39 -172 -39q-143 0 -143 156q-63 -73 -151 -115.5t-191 -42.5q-187 0 -262.5 136.5t-36.5 375.5q29 175 115 301t200.5 186t245.5 60zM713 944q-113 0 -211 -67t-160 -173t-82 -229q-15 -84 -10 -158t26 -130t70 -88.5
t121 -32.5q106 0 202.5 65.5t149.5 147.5l115 604q-111 61 -221 61z" />
    <glyph glyph-name="aring" unicode="&#xe5;" horiz-adv-x="1071" 
d="M715 1395q68 0 109 -45t30 -123q-11 -74 -62 -115t-116 -41q-69 0 -110.5 45t-28.5 123q11 74 62 115t116 41zM715 1325q-43 0 -74 -29t-37 -69q-6 -37 12 -61.5t58 -24.5q44 0 75 29t37 69q5 38 -12.5 62t-58.5 24zM721 1034q171 0 319 -98l-137 -737q-26 -142 68 -142
q53 0 157 49l-12 -90q-102 -39 -172 -39q-143 0 -143 156q-63 -73 -151 -115.5t-191 -42.5q-187 0 -262.5 136.5t-36.5 375.5q29 175 115 301t200.5 186t245.5 60zM713 944q-113 0 -211 -67t-160 -173t-82 -229q-15 -84 -10 -158t26 -130t70 -88.5t121 -32.5
q106 0 202.5 65.5t149.5 147.5l115 604q-111 61 -221 61z" />
    <glyph glyph-name="ae" unicode="&#xe6;" horiz-adv-x="1810" 
d="M1438 1034q190 0 292 -124t70 -332l-14 -80l-766 -4q-27 -190 59 -309t238 -119q93 0 171 40t132 111l109 -6q-61 -104 -169.5 -170t-248.5 -66q-116 0 -205 54.5t-139 152.5l-29 -182h-100l24 154q-171 -179 -366 -179q-186 0 -269 149t-45 388q36 233 168 377.5
t318 144.5q112 0 184.5 -40t122.5 -115l22 131h101l-29 -168q71 91 167 141.5t202 50.5zM670 944q-98 0 -182.5 -64.5t-136.5 -164t-70 -215.5q-16 -84 -8 -162t32 -138.5t75.5 -97t123.5 -36.5q189 0 379 233l71 442q-97 203 -284 203zM1434 944q-134 0 -241 -98.5
t-153 -261.5l664 8q25 169 -45.5 260.5t-224.5 91.5z" />
    <glyph glyph-name="ccedilla" unicode="&#xe7;" horiz-adv-x="1024" 
d="M557 66q92 0 169.5 40t129.5 111l111 -6q-60 -101 -161 -166.5t-233 -69.5l-49 -104q84 0 122.5 -52t27.5 -122q-11 -72 -70 -124t-153 -52q-87 0 -158 61l51 64q1 -1 8 -7t9 -7.5t8.5 -7t9 -7t9 -5.5t10.5 -5t11 -4t13 -3.5t13.5 -1.5t15.5 -1q57 0 95 31.5t44 72.5
q7 45 -15.5 69.5t-66.5 24.5h-37l-27 70l56 115q-176 21 -273 167t-63 365q36 234 188.5 378t352.5 144q142 0 228.5 -68.5t113.5 -174.5l-103 6q-62 147 -239 147q-103 0 -195 -53t-158.5 -155.5t-87.5 -235.5q-30 -198 54 -316t239 -118z" />
    <glyph glyph-name="egrave" unicode="&#xe8;" horiz-adv-x="1062" 
d="M872 1112l-383 178l48 86l378 -182zM559 66q93 0 171 40t132 111l109 -6q-61 -104 -169.5 -170t-248.5 -66q-200 0 -313 149.5t-76 387.5q35 227 180 374.5t336 147.5q179 0 275 -104q78 -86 64 -200q-16 -122 -132 -204q-139 -98 -371 -98q-114 0 -258 27
q-13 -174 72.5 -281.5t228.5 -107.5zM676 944q-144 0 -254 -109.5t-150 -289.5q135 -27 244 -27q232 0 342 105q76 72 63 160q-13 83 -97 128q-62 33 -148 33z" />
    <glyph glyph-name="eacute" unicode="&#xe9;" horiz-adv-x="1062" 
d="M526 1112l-20 82l432 182l25 -86zM559 66q93 0 171 40t132 111l109 -6q-61 -104 -169.5 -170t-248.5 -66q-200 0 -313 149.5t-76 387.5q35 227 180 374.5t336 147.5q179 0 275 -104q78 -86 64 -200q-16 -122 -132 -204q-139 -98 -371 -98q-114 0 -258 27
q-13 -174 72.5 -281.5t228.5 -107.5zM676 944q-144 0 -254 -109.5t-150 -289.5q135 -27 244 -27q232 0 342 105q76 72 63 160q-13 83 -97 128q-62 33 -148 33z" />
    <glyph glyph-name="ecircumflex" unicode="&#xea;" horiz-adv-x="1062" 
d="M500 1110l-56 53l281 256h74l200 -256l-67 -53l-182 223zM559 66q93 0 171 40t132 111l109 -6q-61 -104 -169.5 -170t-248.5 -66q-200 0 -313 149.5t-76 387.5q35 227 180 374.5t336 147.5q179 0 275 -104q78 -86 64 -200q-16 -122 -132 -204q-139 -98 -371 -98
q-114 0 -258 27q-13 -174 72.5 -281.5t228.5 -107.5zM676 944q-144 0 -254 -109.5t-150 -289.5q135 -27 244 -27q232 0 342 105q76 72 63 160q-13 83 -97 128q-62 33 -148 33z" />
    <glyph glyph-name="edieresis" unicode="&#xeb;" horiz-adv-x="1062" 
d="M549 1165q-32 0 -53.5 23.5t-14.5 62.5q6 36 29 55t53 19q32 0 53 -23.5t15 -62.5q-6 -36 -29.5 -55t-52.5 -19zM905 1165q-33 0 -53.5 23.5t-13.5 62.5q6 36 29 55t53 19q31 0 52 -23.5t15 -62.5q-6 -36 -29.5 -55t-52.5 -19zM559 66q93 0 171 40t132 111l109 -6
q-61 -104 -169.5 -170t-248.5 -66q-200 0 -313 149.5t-76 387.5q35 227 180 374.5t336 147.5q179 0 275 -104q78 -86 64 -200q-16 -122 -132 -204q-139 -98 -371 -98q-114 0 -258 27q-13 -174 72.5 -281.5t228.5 -107.5zM676 944q-144 0 -254 -109.5t-150 -289.5
q135 -27 244 -27q232 0 342 105q76 72 63 160q-13 83 -97 128q-62 33 -148 33z" />
    <glyph glyph-name="igrave" unicode="&#xec;" horiz-adv-x="444" 
d="M223 1376l379 -182l-43 -82l-383 178zM272 0h-100l160 1010h100z" />
    <glyph glyph-name="iacute" unicode="&#xed;" horiz-adv-x="444" 
d="M213 1112l-20 82l432 182l24 -86zM272 0h-100l160 1010h100z" />
    <glyph glyph-name="icircumflex" unicode="&#xee;" horiz-adv-x="444" 
d="M686 1163l-68 -53l-182 223l-250 -223l-55 53l281 256h73zM272 0h-100l160 1010h100z" />
    <glyph glyph-name="idieresis" unicode="&#xef;" horiz-adv-x="444" 
d="M250 1325q31 0 52 -23.5t15 -62.5q-6 -36 -29 -55t-52 -19q-32 0 -53.5 23.5t-14.5 62.5q6 36 29 55t53 19zM606 1325q32 0 53 -23.5t15 -62.5q-6 -36 -29.5 -55t-52.5 -19q-33 0 -54 23.5t-14 62.5q6 36 29 55t53 19zM272 0h-100l160 1010h100z" />
    <glyph glyph-name="eth" unicode="&#xf0;" horiz-adv-x="1138" 
d="M969 1389l-80 -103q309 -260 227 -784q-37 -235 -185.5 -381t-359.5 -146q-92 0 -165.5 29.5t-120 79.5t-76.5 117t-34.5 142t5.5 153q16 96 59.5 185t110.5 160.5t163 114.5t206 43q190 0 311 -159q-9 104 -63.5 201.5t-139.5 172.5l-71 -92l-60 45l72 90
q-75 52 -141 76l45 80q93 -41 157 -86l84 107zM717 909q-89 0 -167 -36.5t-132.5 -97.5t-90 -136t-48.5 -156q-8 -63 -5.5 -123t25 -113.5t57 -93.5t91 -63.5t126.5 -23.5q89 0 167.5 37.5t133.5 99t91 137t49 156.5q17 107 -7.5 199t-99 153t-190.5 61z" />
    <glyph glyph-name="ntilde" unicode="&#xf1;" horiz-adv-x="1120" 
d="M915 1307l86 -33q-62 -141 -178 -141q-53 0 -127 24.5t-90 24.5q-52 0 -80 -82l-88 33q16 60 62 103.5t104 43.5q47 0 121.5 -24.5t95.5 -24.5q66 0 94 76zM727 1034q82 0 145.5 -21t111 -66t65 -124.5t0.5 -187.5l-101 -635h-100l102 641q22 145 -38 220t-201 75
q-118 0 -301 -59l-138 -877h-100l147 944q228 90 408 90z" />
    <glyph glyph-name="ograve" unicode="&#xf2;" horiz-adv-x="1095" 
d="M547 1376l379 -182l-43 -82l-383 178zM705 1034q97 0 176.5 -38.5t131.5 -107.5t72.5 -170t1.5 -220q-38 -235 -190 -379t-348 -144q-131 0 -227 65.5t-139.5 188.5t-18.5 281q38 235 191.5 379.5t349.5 144.5zM700 944q-156 0 -281 -125.5t-155 -320.5q-30 -192 53 -312
t236 -120q156 0 280 124.5t154 319.5q30 192 -52 313t-235 121z" />
    <glyph glyph-name="oacute" unicode="&#xf3;" horiz-adv-x="1095" 
d="M537 1112l-21 82l432 182l25 -86zM705 1034q97 0 176.5 -38.5t131.5 -107.5t72.5 -170t1.5 -220q-38 -235 -190 -379t-348 -144q-131 0 -227 65.5t-139.5 188.5t-18.5 281q38 235 191.5 379.5t349.5 144.5zM700 944q-156 0 -281 -125.5t-155 -320.5q-30 -192 53 -312
t236 -120q156 0 280 124.5t154 319.5q30 192 -52 313t-235 121z" />
    <glyph glyph-name="ocircumflex" unicode="&#xf4;" horiz-adv-x="1095" 
d="M1010 1163l-68 -53l-182 223l-250 -223l-55 53l280 256h74zM705 1034q97 0 176.5 -38.5t131.5 -107.5t72.5 -170t1.5 -220q-38 -235 -190 -379t-348 -144q-131 0 -227 65.5t-139.5 188.5t-18.5 281q38 235 191.5 379.5t349.5 144.5zM700 944q-156 0 -281 -125.5
t-155 -320.5q-30 -192 53 -312t236 -120q156 0 280 124.5t154 319.5q30 192 -52 313t-235 121z" />
    <glyph glyph-name="otilde" unicode="&#xf5;" horiz-adv-x="1095" 
d="M934 1307l86 -33q-62 -141 -178 -141q-53 0 -127 24.5t-90 24.5q-52 0 -80 -82l-88 33q16 60 62 103.5t104 43.5q47 0 121.5 -24.5t95.5 -24.5q66 0 94 76zM705 1034q97 0 176.5 -38.5t131.5 -107.5t72.5 -170t1.5 -220q-38 -235 -190 -379t-348 -144q-131 0 -227 65.5
t-139.5 188.5t-18.5 281q38 235 191.5 379.5t349.5 144.5zM700 944q-156 0 -281 -125.5t-155 -320.5q-30 -192 53 -312t236 -120q156 0 280 124.5t154 319.5q30 192 -52 313t-235 121z" />
    <glyph glyph-name="odieresis" unicode="&#xf6;" horiz-adv-x="1095" 
d="M573 1325q32 0 53 -23.5t15 -62.5q-6 -36 -29.5 -55t-52.5 -19q-32 0 -53 23.5t-14 62.5q6 36 28.5 55t52.5 19zM930 1325q31 0 52 -23.5t15 -62.5q-6 -36 -29.5 -55t-52.5 -19q-33 0 -53.5 23.5t-13.5 62.5q6 36 29 55t53 19zM705 1034q97 0 176.5 -38.5t131.5 -107.5
t72.5 -170t1.5 -220q-38 -235 -190 -379t-348 -144q-131 0 -227 65.5t-139.5 188.5t-18.5 281q38 235 191.5 379.5t349.5 144.5zM700 944q-156 0 -281 -125.5t-155 -320.5q-30 -192 53 -312t236 -120q156 0 280 124.5t154 319.5q30 192 -52 313t-235 121z" />
    <glyph glyph-name="divide" unicode="&#xf7;" horiz-adv-x="1003" 
d="M721 918q-6 -35 -27.5 -52.5t-48.5 -17.5q-33 0 -53 22t-14 60q6 35 27 52t50 17q32 0 52 -21.5t14 -59.5zM977 573h-772l18 101h772zM625 317q-6 -34 -28 -51.5t-50 -17.5q-33 0 -53.5 22t-14.5 60q6 34 28.5 51.5t51.5 17.5q31 0 51.5 -22t14.5 -60z" />
    <glyph glyph-name="oslash" unicode="&#xf8;" horiz-adv-x="1130" 
d="M1098 1124l-123 -174q84 -71 120.5 -187.5t12.5 -264.5q-38 -235 -190.5 -379t-348.5 -144q-133 0 -231 70l-150 -211l-63 39l156 221q-65 73 -91.5 179.5t-5.5 236.5q38 235 191.5 379.5t349.5 144.5q104 0 186 -43l121 172zM285 498q-30 -198 57 -318l514 733
q-60 31 -135 31q-156 0 -281 -125.5t-155 -320.5zM1008 510q18 116 -6 208.5t-84 149.5l-525 -743q74 -59 180 -59q156 0 280.5 124.5t154.5 319.5z" />
    <glyph glyph-name="ugrave" unicode="&#xf9;" 
d="M557 1376l379 -182l-43 -82l-383 178zM1122 1010l-92 -592q-32 -210 -156.5 -326.5t-314.5 -116.5q-192 0 -283 120t-57 331l94 584h101l-95 -590q-26 -177 37 -265.5t207 -88.5q149 0 244 92.5t123 269.5l92 582h100z" />
    <glyph glyph-name="uacute" unicode="&#xfa;" 
d="M547 1112l-21 82l432 182l25 -86zM1122 1010l-92 -592q-32 -210 -156.5 -326.5t-314.5 -116.5q-192 0 -283 120t-57 331l94 584h101l-95 -590q-26 -177 37 -265.5t207 -88.5q149 0 244 92.5t123 269.5l92 582h100z" />
    <glyph glyph-name="ucircumflex" unicode="&#xfb;" 
d="M1020 1163l-68 -53l-182 223l-250 -223l-55 53l280 256h74zM1122 1010l-92 -592q-32 -210 -156.5 -326.5t-314.5 -116.5q-192 0 -283 120t-57 331l94 584h101l-95 -590q-26 -177 37 -265.5t207 -88.5q149 0 244 92.5t123 269.5l92 582h100z" />
    <glyph glyph-name="udieresis" unicode="&#xfc;" 
d="M584 1325q31 0 52 -23.5t15 -62.5q-6 -36 -29.5 -55t-52.5 -19q-32 0 -53 23.5t-14 62.5q6 36 29 55t53 19zM940 1325q32 0 53 -23.5t15 -62.5q-6 -36 -29.5 -55t-52.5 -19q-33 0 -54 23.5t-14 62.5q6 36 29 55t53 19zM1122 1010l-92 -592q-32 -210 -156.5 -326.5
t-314.5 -116.5q-192 0 -283 120t-57 331l94 584h101l-95 -590q-26 -177 37 -265.5t207 -88.5q149 0 244 92.5t123 269.5l92 582h100z" />
    <glyph glyph-name="yacute" unicode="&#xfd;" horiz-adv-x="1136" 
d="M541 1112l-21 82l432 182l25 -86zM1124 1010l-153 -969q-32 -201 -167 -326t-310 -125q-65 0 -119.5 11t-90 26t-68 40t-50 44t-39.5 47l61 72q21 -29 42.5 -50t58 -46.5t90 -39t119.5 -13.5q133 0 240.5 104t133.5 264l17 90q-70 -68 -165.5 -116t-193.5 -48
q-181 0 -262 119.5t-47 331.5l92 584h101l-92 -590q-28 -180 25 -267t194 -87q106 0 199 57.5t163 136.5l121 750h100z" />
    <glyph glyph-name="thorn" unicode="&#xfe;" horiz-adv-x="1089" 
d="M442 1290l-67 -422q141 166 364 166q188 0 286 -147t60 -387q-20 -128 -71 -229.5t-118.5 -164t-150.5 -95.5t-167 -32t-168 34t-154 96l-80 -494h-100l266 1675h100zM735 944q-153 0 -267 -103.5t-144 -293.5l-52 -324q48 -65 115.5 -103.5t140 -47t147 15.5t137 75.5
t110 141.5t65.5 207q31 194 -39.5 313t-212.5 119z" />
    <glyph glyph-name="ydieresis" unicode="&#xff;" horiz-adv-x="1136" 
d="M578 1325q31 0 52 -23.5t15 -62.5q-6 -36 -29.5 -55t-52.5 -19q-32 0 -53 23.5t-14 62.5q6 36 29 55t53 19zM934 1325q31 0 52 -23.5t15 -62.5q-6 -36 -29 -55t-52 -19q-33 0 -54 23.5t-14 62.5q6 36 29 55t53 19zM1124 1010l-153 -969q-32 -201 -167 -326t-310 -125
q-65 0 -119.5 11t-90 26t-68 40t-50 44t-39.5 47l61 72q21 -29 42.5 -50t58 -46.5t90 -39t119.5 -13.5q133 0 240.5 104t133.5 264l17 90q-70 -68 -165.5 -116t-193.5 -48q-181 0 -262 119.5t-47 331.5l92 584h101l-92 -590q-28 -180 25 -267t194 -87q106 0 199 57.5
t163 136.5l121 750h100z" />
    <glyph glyph-name="Amacron" unicode="&#x100;" horiz-adv-x="1288" 
d="M1114 1438h-485l14 82h487zM1026 311h-661l-166 -311h-125l719 1290h110l309 -1290h-116zM1001 412l-172 768l-411 -768h583z" />
    <glyph glyph-name="amacron" unicode="&#x101;" horiz-adv-x="1071" 
d="M924 1157h-486l15 82h487zM721 1034q171 0 319 -98l-137 -737q-26 -142 68 -142q53 0 157 49l-12 -90q-102 -39 -172 -39q-143 0 -143 156q-63 -73 -151 -115.5t-191 -42.5q-187 0 -262.5 136.5t-36.5 375.5q29 175 115 301t200.5 186t245.5 60zM713 944q-113 0 -211 -67
t-160 -173t-82 -229q-15 -84 -10 -158t26 -130t70 -88.5t121 -32.5q106 0 202.5 65.5t149.5 147.5l115 604q-111 61 -221 61z" />
    <glyph glyph-name="Abreve" unicode="&#x102;" horiz-adv-x="1288" 
d="M874 1407q-107 0 -166 69.5t-51 188.5l88 -8q-8 -168 132 -168q79 0 127.5 50.5t68.5 125.5l88 -8q-29 -117 -106 -183.5t-181 -66.5zM1026 311h-661l-166 -311h-125l719 1290h110l309 -1290h-116zM1001 412l-172 768l-411 -768h583z" />
    <glyph glyph-name="abreve" unicode="&#x103;" horiz-adv-x="1071" 
d="M883 1384l88 -8q-29 -117 -106 -183.5t-181 -66.5q-107 0 -166 69.5t-51 188.5l88 -8q-8 -168 131 -168q79 0 128 51t69 125zM721 1034q171 0 319 -98l-137 -737q-26 -142 68 -142q53 0 157 49l-12 -90q-102 -39 -172 -39q-143 0 -143 156q-63 -73 -151 -115.5
t-191 -42.5q-187 0 -262.5 136.5t-36.5 375.5q29 175 115 301t200.5 186t245.5 60zM713 944q-113 0 -211 -67t-160 -173t-82 -229q-15 -84 -10 -158t26 -130t70 -88.5t121 -32.5q106 0 202.5 65.5t149.5 147.5l115 604q-111 61 -221 61z" />
    <glyph glyph-name="Aogonek" unicode="&#x104;" horiz-adv-x="1288" 
d="M1208 -283l41 -59q-75 -68 -164 -68q-78 0 -109.5 48.5t-21.5 119.5q9 57 49.5 125.5t92.5 116.5l-70 311h-661l-166 -311h-125l719 1290h110l309 -1290h-16q-136 -136 -152 -248q-5 -35 9.5 -58.5t44.5 -23.5q22 0 54.5 14.5t55.5 32.5zM1001 412l-172 768l-411 -768
h583z" />
    <glyph glyph-name="aogonek" unicode="&#x105;" horiz-adv-x="1071" 
d="M1032 -10q-124 -129 -141 -238q-5 -35 9 -58.5t44 -23.5q22 0 55 14.5t56 32.5l41 -59q-75 -68 -164 -68q-78 0 -109.5 48.5t-21.5 119.5q7 51 41 112t80 110q-121 11 -121 153q-63 -73 -151 -115.5t-191 -42.5q-187 0 -262.5 136.5t-36.5 375.5q29 175 115 301
t200.5 186t245.5 60q171 0 319 -98l-137 -737q-26 -142 68 -142q53 0 157 49l-12 -90q-47 -19 -84 -26zM819 279l115 604q-111 61 -221 61q-113 0 -211 -67t-160 -173t-82 -229q-15 -84 -10 -158t26 -130t70 -88.5t121 -32.5q106 0 202.5 65.5t149.5 147.5z" />
    <glyph glyph-name="Cacute" unicode="&#x106;" horiz-adv-x="1161" 
d="M690 1393l-20 82l432 182l24 -86zM879 1315q176 0 280.5 -79.5t112.5 -188.5l-125 6q-29 78 -97.5 122t-177.5 44q-116 0 -216.5 -48t-171 -129.5t-117 -184.5t-64.5 -218q-13 -71 -9 -141t18.5 -133t47 -116.5t76.5 -93t108 -61.5t140 -22q218 0 334 170l127 -6
q-41 -108 -167.5 -184.5t-299.5 -76.5q-95 0 -174.5 26.5t-135 73t-97.5 110.5t-60.5 139.5t-24 159t10.5 169.5q17 104 55 200.5t98.5 181t137.5 146.5t178 98t213 36z" />
    <glyph glyph-name="cacute" unicode="&#x107;" horiz-adv-x="1024" 
d="M522 1112l-20 82l432 182l24 -86zM705 1034q142 0 228.5 -68.5t113.5 -174.5l-103 6q-62 147 -239 147q-103 0 -195 -53t-158.5 -155.5t-87.5 -235.5q-30 -198 54 -316t239 -118q92 0 169.5 40t129.5 111l111 -6q-62 -105 -168 -170.5t-246 -65.5q-198 0 -312 150.5
t-77 386.5q36 234 188.5 378t352.5 144z" />
    <glyph glyph-name="Cdotaccent" unicode="&#x10a;" horiz-adv-x="1161" 
d="M983 1571q-6 -36 -30.5 -55t-53.5 -19q-33 0 -55 23.5t-15 62.5q6 36 30 55t54 19q32 0 54 -23.5t16 -62.5zM879 1315q176 0 280.5 -79.5t112.5 -188.5l-125 6q-29 78 -97.5 122t-177.5 44q-116 0 -216.5 -48t-171 -129.5t-117 -184.5t-64.5 -218q-13 -71 -9 -141
t18.5 -133t47 -116.5t76.5 -93t108 -61.5t140 -22q218 0 334 170l127 -6q-41 -108 -167.5 -184.5t-299.5 -76.5q-95 0 -174.5 26.5t-135 73t-97.5 110.5t-60.5 139.5t-24 159t10.5 169.5q17 104 55 200.5t98.5 181t137.5 146.5t178 98t213 36z" />
    <glyph glyph-name="cdotaccent" unicode="&#x10b;" horiz-adv-x="1024" 
d="M815 1290q-6 -36 -30.5 -54.5t-53.5 -18.5q-33 0 -54.5 23.5t-14.5 62.5q6 36 29.5 54.5t53.5 18.5q32 0 54 -23.5t16 -62.5zM705 1034q142 0 228.5 -68.5t113.5 -174.5l-103 6q-62 147 -239 147q-103 0 -195 -53t-158.5 -155.5t-87.5 -235.5q-30 -198 54 -316t239 -118
q92 0 169.5 40t129.5 111l111 -6q-62 -105 -168 -170.5t-246 -65.5q-198 0 -312 150.5t-77 386.5q36 234 188.5 378t352.5 144z" />
    <glyph glyph-name="Ccaron" unicode="&#x10c;" horiz-adv-x="1161" 
d="M1196 1667l-278 -256h-74l-203 256l70 53l180 -223l250 223zM879 1315q176 0 280.5 -79.5t112.5 -188.5l-125 6q-29 78 -97.5 122t-177.5 44q-116 0 -216.5 -48t-171 -129.5t-117 -184.5t-64.5 -218q-13 -71 -9 -141t18.5 -133t47 -116.5t76.5 -93t108 -61.5t140 -22
q218 0 334 170l127 -6q-41 -108 -167.5 -184.5t-299.5 -76.5q-95 0 -174.5 26.5t-135 73t-97.5 110.5t-60.5 139.5t-24 159t10.5 169.5q17 104 55 200.5t98.5 181t137.5 146.5t178 98t213 36z" />
    <glyph glyph-name="ccaron" unicode="&#x10d;" horiz-adv-x="1024" 
d="M1028 1386l-278 -256h-74l-203 256l70 54l180 -223l250 223zM705 1034q142 0 228.5 -68.5t113.5 -174.5l-103 6q-62 147 -239 147q-103 0 -195 -53t-158.5 -155.5t-87.5 -235.5q-30 -198 54 -316t239 -118q92 0 169.5 40t129.5 111l111 -6q-62 -105 -168 -170.5
t-246 -65.5q-198 0 -312 150.5t-77 386.5q36 234 188.5 378t352.5 144z" />
    <glyph glyph-name="Dcaron" unicode="&#x10e;" horiz-adv-x="1241" 
d="M1110 1667l-279 -256h-73l-203 256l70 53l180 -223l250 223zM367 1290h329q106 0 195.5 -24t153 -67t111.5 -102.5t71 -130t31.5 -150.5t-7.5 -163q-16 -105 -55 -200t-103.5 -178.5t-149 -144t-198.5 -95.5t-245 -35h-338zM459 1190l-168 -1090h217q139 0 255.5 49.5
t193 131.5t123.5 180.5t61 204.5q12 65 5 129.5t-24 123t-55 108t-89 86t-126 57t-166 20.5h-227z" />
    <glyph glyph-name="dcaron" unicode="&#x10f;" horiz-adv-x="1239" 
d="M1194 1403l-147 -940q-37 -236 -171 -362t-325 -126q-198 0 -302.5 147.5t-66.5 387.5q20 127 70 228.5t119 165t150 97t167 33.5q181 0 326 -133l80 502h100zM1335 928l97 475h-86l-91 -475h80zM700 944q-146 0 -264.5 -116.5t-152.5 -329.5q-31 -194 45 -313t227 -119
q149 0 255 106t136 299l49 303q-47 71 -130 120.5t-165 49.5z" />
    <glyph glyph-name="Dcroat" unicode="&#x110;" horiz-adv-x="1241" 
d="M387 1290h330q106 0 195.5 -24t153 -67t111.5 -102.5t71 -130t31.5 -150.5t-7.5 -163q-16 -105 -55 -200t-103.5 -178.5t-149.5 -144t-199 -95.5t-245 -35h-338l94 592h-163l18 102h162zM1161 666q6 57 6 112t-14.5 106.5t-37 97.5t-61.5 84t-87.5 65.5t-115 43
t-144.5 15.5h-228l-76 -496h302l-17 -102h-301l-76 -492h217q139 0 255.5 49.5t193 131.5t123.5 180.5t61 204.5z" />
    <glyph glyph-name="dcroat" unicode="&#x111;" horiz-adv-x="1107" 
d="M1303 1157h-148l-108 -694q-37 -236 -171 -362t-325 -126q-198 0 -302.5 147.5t-66.5 387.5q20 127 70 228.5t119 165t150 97t167 33.5q181 0 326 -133l41 256h-318l15 82h315l27 164h100l-27 -164h150zM946 471l49 303q-47 71 -130 120.5t-165 49.5
q-146 0 -264.5 -116.5t-152.5 -329.5q-31 -194 45 -313t227 -119q149 0 255 106t136 299z" />
    <glyph glyph-name="Emacron" unicode="&#x112;" 
d="M1051 1438h-486l15 82h487zM1147 1190h-688l-76 -490h653l-16 -100h-653l-41 -268q-19 -128 30.5 -180t155.5 -52h483l-18 -100h-475q-158 0 -235 87t-50 259l150 944h798z" />
    <glyph glyph-name="emacron" unicode="&#x113;" horiz-adv-x="1062" 
d="M961 1157h-486l14 82h488zM559 66q93 0 171 40t132 111l109 -6q-61 -104 -169.5 -170t-248.5 -66q-200 0 -313 149.5t-76 387.5q35 227 180 374.5t336 147.5q179 0 275 -104q78 -86 64 -200q-16 -122 -132 -204q-139 -98 -371 -98q-114 0 -258 27q-13 -174 72.5 -281.5
t228.5 -107.5zM676 944q-144 0 -254 -109.5t-150 -289.5q135 -27 244 -27q232 0 342 105q76 72 63 160q-13 83 -97 128q-62 33 -148 33z" />
    <glyph glyph-name="Edotaccent" unicode="&#x116;" 
d="M909 1571q-6 -36 -30.5 -55t-53.5 -19q-33 0 -54.5 23.5t-14.5 62.5q6 36 30 55t54 19q32 0 53.5 -23.5t15.5 -62.5zM1147 1190h-688l-76 -490h653l-16 -100h-653l-41 -268q-19 -128 30.5 -180t155.5 -52h483l-18 -100h-475q-158 0 -235 87t-50 259l150 944h798z" />
    <glyph glyph-name="edotaccent" unicode="&#x117;" horiz-adv-x="1062" 
d="M735 1217q-33 0 -54.5 23.5t-14.5 62.5q6 36 30 54.5t54 18.5q32 0 53.5 -23.5t15.5 -62.5q-6 -36 -30.5 -54.5t-53.5 -18.5zM559 66q93 0 171 40t132 111l109 -6q-61 -104 -169.5 -170t-248.5 -66q-200 0 -313 149.5t-76 387.5q35 227 180 374.5t336 147.5
q179 0 275 -104q78 -86 64 -200q-16 -122 -132 -204q-139 -98 -371 -98q-114 0 -258 27q-13 -174 72.5 -281.5t228.5 -107.5zM676 944q-144 0 -254 -109.5t-150 -289.5q135 -27 244 -27q232 0 342 105q76 72 63 160q-13 83 -97 128q-62 33 -148 33z" />
    <glyph glyph-name="Eogonek" unicode="&#x118;" 
d="M459 1190l-76 -490h653l-16 -100h-653l-41 -268q-19 -128 30.5 -180t155.5 -52h483l-20 -100q-136 -136 -152 -248q-5 -35 9.5 -58.5t44.5 -23.5q22 0 54.5 14.5t55.5 32.5l41 -59q-75 -68 -164 -68q-78 0 -109.5 48.5t-21.5 119.5q9 58 49 126t92 116h-372
q-158 0 -235 87t-50 259l150 944h798l-18 -100h-688z" />
    <glyph glyph-name="eogonek" unicode="&#x119;" horiz-adv-x="1062" 
d="M559 66q93 0 171 40t132 111l109 -6q-56 -96 -154.5 -160.5t-224.5 -73.5q-115 -123 -129 -225q-5 -35 9 -58.5t44 -23.5q22 0 55 14.5t56 32.5l41 -59q-75 -68 -164 -68q-78 0 -109.5 48.5t-21.5 119.5q7 51 41 112t80 110q-175 24 -269.5 168.5t-60.5 363.5
q35 227 180 374.5t336 147.5q179 0 275 -104q78 -86 64 -200q-16 -122 -132 -204q-139 -98 -371 -98q-114 0 -258 27q-13 -174 72.5 -281.5t228.5 -107.5zM676 944q-144 0 -254 -109.5t-150 -289.5q135 -27 244 -27q232 0 342 105q76 72 63 160q-13 83 -97 128
q-62 33 -148 33z" />
    <glyph glyph-name="Ecaron" unicode="&#x11a;" 
d="M1122 1667l-278 -256h-74l-203 256l70 53l180 -223l250 223zM1147 1190h-688l-76 -490h653l-16 -100h-653l-41 -268q-19 -128 30.5 -180t155.5 -52h483l-18 -100h-475q-158 0 -235 87t-50 259l150 944h798z" />
    <glyph glyph-name="ecaron" unicode="&#x11b;" horiz-adv-x="1062" 
d="M680 1130l-203 256l70 54l180 -223l250 223l55 -54l-278 -256h-74zM516 428q-114 0 -258 27q-13 -174 72.5 -281.5t228.5 -107.5q93 0 171 40t132 111l109 -6q-61 -104 -169.5 -170t-248.5 -66q-200 0 -313 149.5t-76 387.5q35 227 180 374.5t336 147.5q179 0 275 -104
q78 -86 64 -200q-16 -122 -132 -204q-139 -98 -371 -98zM676 944q-144 0 -254 -109.5t-150 -289.5q135 -27 244 -27q232 0 342 105q76 72 63 160q-13 83 -97 128q-62 33 -148 33z" />
    <glyph glyph-name="Gbreve" unicode="&#x11e;" horiz-adv-x="1290" 
d="M1096 1665l88 -8q-29 -117 -106 -183.5t-181 -66.5q-107 0 -166 69.5t-51 188.5l88 -8q-8 -168 131 -168q79 0 128 51t69 125zM879 1315q175 0 280 -79.5t113 -188.5l-125 6q-29 78 -97.5 122t-177.5 44q-116 0 -216.5 -48t-171 -129.5t-117 -184.5t-64.5 -218
q-13 -71 -9 -141t18.5 -133t47 -116.5t76.5 -93t108 -61.5t140 -22q118 0 220 37.5t157 80.5l55 357h-328l19 100h438l-78 -502q-80 -77 -205.5 -123.5t-283.5 -46.5q-95 0 -174.5 26.5t-135 73t-97.5 110.5t-60.5 139.5t-24 159t10.5 169.5q17 104 55 200.5t98.5 181
t137.5 146.5t178 98t213 36z" />
    <glyph glyph-name="gbreve" unicode="&#x11f;" horiz-adv-x="1081" 
d="M909 1384l88 -8q-29 -118 -105.5 -184t-180.5 -66q-107 0 -166 69.5t-51 188.5l88 -8q-8 -168 131 -168q79 0 127.5 50.5t68.5 125.5zM670 1034q91 0 165 -27t127.5 -81t75.5 -144t4 -207l-84 -534q-32 -200 -168.5 -325.5t-310.5 -125.5q-72 0 -130 12.5t-101 38
t-70 48.5t-59 57l67 80q52 -67 118.5 -106t176.5 -39q132 0 242.5 105t136.5 263l10 55q-77 -54 -157.5 -86t-155.5 -38.5t-143.5 10t-121 58t-89 106t-46 155t6.5 203.5q38 237 178 379.5t328 142.5zM666 944q-146 0 -258.5 -123.5t-143.5 -320.5q-18 -116 1 -204.5
t65.5 -138.5t113 -72t141.5 -11.5t154 49.5t148 104l55 357q15 95 -0.5 166.5t-56.5 112.5t-95.5 61t-123.5 20z" />
    <glyph glyph-name="Gdotaccent" unicode="&#x120;" horiz-adv-x="1290" 
d="M995 1571q-6 -36 -30.5 -55t-53.5 -19q-33 0 -54.5 23.5t-14.5 62.5q6 36 30 55t54 19q32 0 53.5 -23.5t15.5 -62.5zM879 1315q175 0 280 -79.5t113 -188.5l-125 6q-29 78 -97.5 122t-177.5 44q-116 0 -216.5 -48t-171 -129.5t-117 -184.5t-64.5 -218q-13 -71 -9 -141
t18.5 -133t47 -116.5t76.5 -93t108 -61.5t140 -22q118 0 220 37.5t157 80.5l55 357h-328l19 100h438l-78 -502q-80 -77 -205.5 -123.5t-283.5 -46.5q-95 0 -174.5 26.5t-135 73t-97.5 110.5t-60.5 139.5t-24 159t10.5 169.5q17 104 55 200.5t98.5 181t137.5 146.5t178 98
t213 36z" />
    <glyph glyph-name="gdotaccent" unicode="&#x121;" horiz-adv-x="1081" 
d="M809 1290q-6 -36 -30.5 -54.5t-53.5 -18.5q-33 0 -55 23.5t-15 62.5q6 36 30 54.5t54 18.5q32 0 54 -23.5t16 -62.5zM670 1034q91 0 165 -27t127.5 -81t75.5 -144t4 -207l-84 -534q-32 -200 -168.5 -325.5t-310.5 -125.5q-72 0 -130 12.5t-101 38t-70 48.5t-59 57l67 80
q52 -67 118.5 -106t176.5 -39q132 0 242.5 105t136.5 263l10 55q-77 -54 -157.5 -86t-155.5 -38.5t-143.5 10t-121 58t-89 106t-46 155t6.5 203.5q38 237 178 379.5t328 142.5zM666 944q-146 0 -258.5 -123.5t-143.5 -320.5q-18 -116 1 -204.5t65.5 -138.5t113 -72
t141.5 -11.5t154 49.5t148 104l55 357q15 95 -0.5 166.5t-56.5 112.5t-95.5 61t-123.5 20z" />
    <glyph glyph-name="Gcommaaccent" unicode="&#x122;" horiz-adv-x="1290" 
d="M879 1315q175 0 280 -79.5t113 -188.5l-125 6q-29 78 -97.5 122t-177.5 44q-116 0 -216.5 -48t-171 -129.5t-117 -184.5t-64.5 -218q-13 -71 -9 -141t18.5 -133t47 -116.5t76.5 -93t108 -61.5t140 -22q118 0 220 37.5t157 80.5l55 357h-328l19 100h438l-78 -502
q-80 -77 -205.5 -123.5t-283.5 -46.5q-95 0 -174.5 26.5t-135 73t-97.5 110.5t-60.5 139.5t-24 159t10.5 169.5q17 104 55 200.5t98.5 181t137.5 146.5t178 98t213 36zM586 -453l127 355h-109l-125 -355h107z" />
    <glyph glyph-name="gcommaaccent" unicode="&#x123;" horiz-adv-x="1081" 
d="M743 1462l-127 -354h109l125 354h-107zM670 1034q91 0 165 -27t127.5 -81t75.5 -144t4 -207l-84 -534q-32 -200 -168.5 -325.5t-310.5 -125.5q-72 0 -130 12.5t-101 38t-70 48.5t-59 57l67 80q52 -67 118.5 -106t176.5 -39q132 0 242.5 105t136.5 263l10 55
q-77 -54 -157.5 -86t-155.5 -38.5t-143.5 10t-121 58t-89 106t-46 155t6.5 203.5q38 237 178 379.5t328 142.5zM666 944q-146 0 -258.5 -123.5t-143.5 -320.5q-18 -116 1 -204.5t65.5 -138.5t113 -72t141.5 -11.5t154 49.5t148 104l55 357q15 95 -0.5 166.5t-56.5 112.5
t-95.5 61t-123.5 20z" />
    <glyph glyph-name="Hbar" unicode="&#x126;" horiz-adv-x="1314" 
d="M1409 907h-92l-143 -907h-111l92 596h-768l-94 -596h-111l144 907h-131l16 103h131l45 280h111l-45 -280h770l45 280h110l-45 -280h92zM1206 907h-770l-33 -211h771z" />
    <glyph glyph-name="hbar" unicode="&#x127;" horiz-adv-x="1146" 
d="M770 1034q73 0 134 -21t107 -63.5t65 -116t3 -169.5l-104 -664h-101l105 672q11 72 -1.5 126t-45.5 85t-76.5 46t-97.5 15q-94 0 -194.5 -39t-162.5 -98l-129 -807h-100l180 1143h-121l17 92h119l26 168h101l-27 -168h379l-17 -92h-376l-37 -230q68 56 163.5 88.5
t190.5 32.5z" />
    <glyph glyph-name="Imacron" unicode="&#x12a;" horiz-adv-x="434" 
d="M686 1438h-485l14 82h487zM272 0h-110l205 1290h110z" />
    <glyph glyph-name="imacron" unicode="&#x12b;" horiz-adv-x="444" 
d="M647 1157h-485l14 82h488zM272 0h-100l160 1010h100z" />
    <glyph glyph-name="Iogonek" unicode="&#x12e;" horiz-adv-x="434" 
d="M168 -330q22 0 55 14.5t56 32.5l40 -59q-75 -68 -163 -68q-78 0 -109.5 48.5t-21.5 119.5q9 58 49 126t92 116h-4l205 1290h110l-205 -1290h-6q-134 -134 -151 -248q-5 -35 9 -58.5t44 -23.5z" />
    <glyph glyph-name="iogonek" unicode="&#x12f;" horiz-adv-x="444" 
d="M436 1376q32 0 54 -23.5t16 -62.5q-6 -36 -30.5 -54.5t-53.5 -18.5q-33 0 -55 23.5t-15 62.5q6 36 30 54.5t54 18.5zM432 1010l-160 -1010q-49 -49 -94 -121t-53 -127q-13 -71 47 -71q51 0 96 38l54 -61q-75 -68 -162 -68q-78 0 -109.5 48.5t-21.5 119.5q9 57 50 125.5
t93 116.5l160 1010h100z" />
    <glyph glyph-name="Idotaccent" unicode="&#x130;" horiz-adv-x="434" 
d="M545 1571q-6 -36 -30.5 -55t-53.5 -19q-33 0 -55 23.5t-15 62.5q6 36 30 55t54 19q32 0 54 -23.5t16 -62.5zM272 0h-110l205 1290h110z" />
    <glyph glyph-name="dotlessi" unicode="&#x131;" horiz-adv-x="444" 
d="M272 0h-100l160 1010h100z" />
    <glyph glyph-name="IJ" unicode="&#x132;" horiz-adv-x="1210" 
d="M272 0h-110l205 1290h110zM1253 1290l-127 -803q-39 -241 -189 -376.5t-390 -135.5l10 97q187 0 308.5 113t150.5 311l108 694h-344l19 100h454z" />
    <glyph glyph-name="ij" unicode="&#x133;" horiz-adv-x="899" 
d="M506 1290q-6 -36 -30.5 -54.5t-53.5 -18.5q-33 0 -55 23.5t-15 62.5q6 36 30 54.5t54 18.5q32 0 54 -23.5t16 -62.5zM973 1290q-6 -36 -30.5 -54.5t-53.5 -18.5q-33 0 -55 23.5t-15 62.5q6 36 30 54.5t54 18.5q32 0 54 -23.5t16 -62.5zM272 0h-100l160 1010h100z
M881 1010l-170 -1078q-57 -342 -332 -342l8 91q184 0 223 260l170 1069h101z" />
    <glyph glyph-name="Kcommaaccent" unicode="&#x136;" horiz-adv-x="1077" 
d="M586 727l450 -727h-137l-401 639l-146 -145l-80 -494h-110l205 1290h110l-104 -661l635 661h141zM530 -98h109l-127 -355h-106z" />
    <glyph glyph-name="kcommaaccent" unicode="&#x137;" horiz-adv-x="911" 
d="M553 604l340 -604h-115l-297 537l-143 -134l-66 -403h-100l221 1403h101l-138 -856l498 463h135zM434 -98h109l-127 -355h-107z" />
    <glyph glyph-name="Lacute" unicode="&#x139;" horiz-adv-x="985" 
d="M307 1393l-20 82l432 182l24 -86zM477 1290l-160 -999q-14 -103 32 -147t126 -44h443l-19 -100h-434q-132 0 -205 78.5t-49 226.5l156 985h110z" />
    <glyph glyph-name="lacute" unicode="&#x13a;" horiz-adv-x="552" 
d="M299 1505l-20 82l432 182l24 -86zM498 1403l-191 -1223q-19 -114 72 -114q58 0 131 43l-12 -97q-64 -37 -148 -37q-77 0 -121.5 47t-27.5 156l196 1225h101z" />
    <glyph glyph-name="Lcommaaccent" unicode="&#x13b;" horiz-adv-x="985" 
d="M477 1290l-160 -999q-14 -103 32 -147t126 -44h443l-19 -100h-434q-132 0 -205 78.5t-49 226.5l156 985h110zM502 -453l127 355h-109l-125 -355h107z" />
    <glyph glyph-name="lcommaaccent" unicode="&#x13c;" horiz-adv-x="552" 
d="M498 1403l-191 -1223q-19 -114 72 -114q58 0 131 43l-12 -97q-64 -37 -148 -37q-77 0 -121.5 47t-27.5 156l196 1225h101zM150 -453l126 355h-108l-125 -355h107z" />
    <glyph glyph-name="Lcaron" unicode="&#x13d;" horiz-adv-x="1017" 
d="M498 1290l-160 -999q-14 -103 32 -147t126 -44h442l-18 -100h-435q-132 0 -205 78.5t-49 226.5l156 985h111zM770 815l176 475h-94l-168 -475h86z" />
    <glyph glyph-name="lcaron" unicode="&#x13e;" horiz-adv-x="593" 
d="M498 1403l-191 -1223q-19 -114 72 -114q58 0 131 43l-12 -97q-64 -37 -148 -37q-77 0 -121.5 47t-27.5 156l196 1225h101zM666 928l96 475h-86l-90 -475h80z" />
    <glyph glyph-name="Ldot" unicode="&#x13f;" horiz-adv-x="985" 
d="M477 1290l-160 -999q-14 -103 32 -147t126 -44h443l-19 -100h-434q-132 0 -205 78.5t-49 226.5l156 985h110zM709 776q32 0 53.5 -23.5t15.5 -62.5q-6 -36 -30.5 -55t-53.5 -19q-33 0 -54.5 23.5t-14.5 62.5q6 36 30 55t54 19z" />
    <glyph glyph-name="ldot" unicode="&#x140;" horiz-adv-x="552" 
d="M498 1403l-191 -1223q-19 -114 72 -114q58 0 131 43l-12 -97q-64 -37 -148 -37q-77 0 -121.5 47t-27.5 156l196 1225h101zM618 786q32 0 54 -23.5t16 -62.5q-6 -36 -30.5 -54.5t-53.5 -18.5q-33 0 -54.5 23.5t-14.5 62.5q6 36 29.5 54.5t53.5 18.5z" />
    <glyph glyph-name="Lslash" unicode="&#x141;" horiz-adv-x="1015" 
d="M938 100l-18 -100h-435q-132 0 -205 78.5t-49 226.5l48 303l-160 -53l16 104l160 54l92 577h111l-86 -540l352 116l-16 -104l-353 -117l-57 -354q-14 -103 32 -147t126 -44h442z" />
    <glyph glyph-name="lslash" unicode="&#x142;" horiz-adv-x="552" 
d="M385 676l-78 -496q-19 -114 72 -114q58 0 131 43l-12 -97q-64 -37 -148 -37q-77 0 -121.5 47t-27.5 156l69 438l-98 -51l14 101l101 51l110 686h101l-99 -627l152 78l-19 -100z" />
    <glyph glyph-name="Nacute" unicode="&#x143;" horiz-adv-x="1300" 
d="M686 1393l-20 82l432 182l24 -86zM1139 0h-92l-601 1106l-174 -1106h-110l205 1290h94l600 -1093l172 1093h110z" />
    <glyph glyph-name="nacute" unicode="&#x144;" horiz-adv-x="1120" 
d="M518 1112l-20 82l432 182l24 -86zM727 1034q82 0 145.5 -21t111 -66t65 -124.5t0.5 -187.5l-101 -635h-100l102 641q22 145 -38 220t-201 75q-118 0 -301 -59l-138 -877h-100l147 944q228 90 408 90z" />
    <glyph glyph-name="Ncommaaccent" unicode="&#x145;" horiz-adv-x="1300" 
d="M1139 0h-92l-601 1106l-174 -1106h-110l205 1290h94l600 -1093l172 1093h110zM561 -453l127 355h-108l-125 -355h106z" />
    <glyph glyph-name="ncommaaccent" unicode="&#x146;" horiz-adv-x="1120" 
d="M727 1034q82 0 145.5 -21t111 -66t65 -124.5t0.5 -187.5l-101 -635h-100l102 641q22 145 -38 220t-201 75q-118 0 -301 -59l-138 -877h-100l147 944q228 90 408 90zM496 -453l127 355h-109l-125 -355h107z" />
    <glyph glyph-name="Ncaron" unicode="&#x147;" horiz-adv-x="1300" 
d="M1192 1667l-279 -256h-73l-203 256l70 53l180 -223l250 223zM1139 0h-92l-601 1106l-174 -1106h-110l205 1290h94l600 -1093l172 1093h110z" />
    <glyph glyph-name="ncaron" unicode="&#x148;" horiz-adv-x="1120" 
d="M1024 1386l-279 -256h-73l-203 256l70 54l180 -223l250 223zM727 1034q82 0 145.5 -21t111 -66t65 -124.5t0.5 -187.5l-101 -635h-100l102 641q22 145 -38 220t-201 75q-118 0 -301 -59l-138 -877h-100l147 944q228 90 408 90z" />
    <glyph glyph-name="Eng" unicode="&#x14a;" horiz-adv-x="1300" 
d="M1343 1290l-186 -1188q-39 -241 -190.5 -376.5t-391.5 -135.5l11 97q165 0 280.5 90.5t161.5 251.5l-582 1077l-174 -1106h-110l205 1290h94l600 -1093l172 1093h110z" />
    <glyph glyph-name="eng" unicode="&#x14b;" horiz-adv-x="1042" 
d="M137 0l148 944q65 25 131 44t136 31t132 12.5t120.5 -11t101.5 -40t74 -74t38.5 -113.5t-4.5 -158l-111 -703q-57 -342 -332 -342l9 91q184 0 223 260l112 700q31 208 -105 268.5t-435 -41.5l-137 -868h-101z" />
    <glyph glyph-name="Omacron" unicode="&#x14c;" horiz-adv-x="1353" 
d="M1145 1438h-486l15 82h487zM879 1315q95 0 175 -26t135.5 -72t97 -109.5t60 -139t24 -160t-10.5 -171.5q-20 -128 -75.5 -245.5t-140 -211t-206 -149.5t-260.5 -56q-95 0 -174.5 26.5t-135 73t-97.5 110.5t-60.5 139.5t-24 159t10.5 169.5q17 104 55 200.5t98.5 181
t137.5 146.5t178 98t213 36zM874 1219q-117 0 -218 -48t-171.5 -129.5t-117 -184.5t-64.5 -218q-13 -71 -9 -141t18.5 -133t47 -116.5t76.5 -93t108 -61.5t140 -22q115 0 215.5 49.5t171.5 132t118 185t64 212.5q11 88 8 170.5t-31.5 155t-73 126.5t-117.5 85t-165 31z" />
    <glyph glyph-name="omacron" unicode="&#x14d;" horiz-adv-x="1095" 
d="M971 1157h-486l15 82h487zM705 1034q97 0 176.5 -38.5t131.5 -107.5t72.5 -170t1.5 -220q-38 -235 -190 -379t-348 -144q-131 0 -227 65.5t-139.5 188.5t-18.5 281q38 235 191.5 379.5t349.5 144.5zM700 944q-156 0 -281 -125.5t-155 -320.5q-30 -192 53 -312t236 -120
q156 0 280 124.5t154 319.5q30 192 -52 313t-235 121z" />
    <glyph glyph-name="Ohungarumlaut" unicode="&#x150;" horiz-adv-x="1353" 
d="M774 1374l-55 64l356 346l60 -66zM1020 1374l-55 64l356 346l59 -66zM879 1315q95 0 175 -26t135.5 -72t97 -109.5t60 -139t24 -160t-10.5 -171.5q-20 -128 -75.5 -245.5t-140 -211t-206 -149.5t-260.5 -56q-95 0 -174.5 26.5t-135 73t-97.5 110.5t-60.5 139.5t-24 159
t10.5 169.5q17 104 55 200.5t98.5 181t137.5 146.5t178 98t213 36zM874 1219q-117 0 -218 -48t-171.5 -129.5t-117 -184.5t-64.5 -218q-13 -71 -9 -141t18.5 -133t47 -116.5t76.5 -93t108 -61.5t140 -22q115 0 215.5 49.5t171.5 132t118 185t64 212.5q11 88 8 170.5
t-31.5 155t-73 126.5t-117.5 85t-165 31z" />
    <glyph glyph-name="ohungarumlaut" unicode="&#x151;" horiz-adv-x="1095" 
d="M600 1094l-55 63l356 346l60 -65zM846 1094l-55 63l356 346l59 -65zM705 1034q97 0 176.5 -38.5t131.5 -107.5t72.5 -170t1.5 -220q-38 -235 -190 -379t-348 -144q-131 0 -227 65.5t-139.5 188.5t-18.5 281q38 235 191.5 379.5t349.5 144.5zM700 944q-156 0 -281 -125.5
t-155 -320.5q-30 -192 53 -312t236 -120q156 0 280 124.5t154 319.5q30 192 -52 313t-235 121z" />
    <glyph glyph-name="OE" unicode="&#x152;" horiz-adv-x="2134" 
d="M879 1315q163 0 272.5 -74.5t163.5 -204.5l41 254h801l-19 -100h-688l-76 -490h654l-19 -100h-653l-39 -268q-20 -128 29.5 -180t154.5 -52h484l-17 -100h-477q-133 0 -210 67.5t-77 196.5q-95 -135 -228 -212t-298 -77q-95 0 -174.5 26.5t-135 73t-97.5 110.5
t-60.5 139.5t-24 159t10.5 169.5q17 104 55 200.5t98.5 181t137.5 146.5t178 98t213 36zM874 1219q-117 0 -218 -48t-171.5 -129.5t-117 -184.5t-64.5 -218q-13 -71 -9 -141t18.5 -133t47 -116.5t76.5 -93t108 -61.5t140 -22q115 0 215.5 49.5t171.5 132t118 185t64 212.5
q11 88 8 170.5t-31.5 155t-73 126.5t-117.5 85t-165 31z" />
    <glyph glyph-name="oe" unicode="&#x153;" horiz-adv-x="1892" 
d="M1505 1034q212 0 310 -141t38 -399h-763q-27 -190 59 -309t237 -119q93 0 171.5 40t130.5 111l110 -6q-61 -104 -169.5 -170t-248.5 -66q-139 0 -238.5 79.5t-133.5 213.5q-77 -139 -199 -216t-260 -77q-131 0 -227 65.5t-139.5 188.5t-18.5 281q38 235 191.5 379.5
t349.5 144.5q137 0 236 -78t136 -211q71 135 184 212t244 77zM700 944q-156 0 -283 -125.5t-157 -320.5q-30 -192 54.5 -312t238.5 -120q156 0 282 124.5t156 319.5q30 192 -54 313t-237 121zM1503 944q-134 0 -240.5 -98.5t-152.5 -261.5l662 8q25 168 -45.5 260t-223.5 92
z" />
    <glyph glyph-name="Racute" unicode="&#x154;" horiz-adv-x="1079" 
d="M557 1393l-20 82l432 182l24 -86zM639 1290h100q116 0 197.5 -50t117 -128t35.5 -173.5t-35 -185t-107 -165.5t-169 -111l191 -477h-123l-180 451q-16 -2 -54 -2h-268l-72 -449h-110l162 1020q19 123 102.5 196.5t212.5 73.5zM358 547h269q156 0 259 125q86 104 94 240
q8 137 -70 216q-66 66 -177 66h-104q-86 0 -136 -49.5t-63 -134.5z" />
    <glyph glyph-name="racute" unicode="&#x155;" horiz-adv-x="757" 
d="M412 1112l-21 82l432 182l25 -86zM829 1034l-18 -100q-224 0 -412 -133l-127 -801h-100l135 870q245 164 522 164z" />
    <glyph glyph-name="Rcommaaccent" unicode="&#x156;" horiz-adv-x="1079" 
d="M639 1290h100q116 0 197.5 -50t117 -128t35.5 -173.5t-35 -185t-107 -165.5t-169 -111l191 -477h-123l-180 451q-16 -2 -54 -2h-268l-72 -449h-110l162 1020q19 123 102.5 196.5t212.5 73.5zM358 547h269q156 0 259 125q86 104 94 240q8 137 -70 216q-66 66 -177 66h-104
q-86 0 -136 -49.5t-63 -134.5zM489 -98h109l-127 -355h-106z" />
    <glyph glyph-name="rcommaaccent" unicode="&#x157;" horiz-adv-x="757" 
d="M829 1034l-18 -100q-224 0 -412 -133l-127 -801h-100l135 870q245 164 522 164zM131 -453l127 355h-108l-125 -355h106z" />
    <glyph glyph-name="Rcaron" unicode="&#x158;" horiz-adv-x="1079" 
d="M711 1411l-203 256l70 53l180 -223l250 223l55 -53l-279 -256h-73zM639 1290h100q116 0 197.5 -50t117 -128t35.5 -173.5t-35 -185t-107 -165.5t-169 -111l191 -477h-123l-180 451q-16 -2 -54 -2h-268l-72 -449h-110l162 1020q19 123 102.5 196.5t212.5 73.5zM358 547
h269q156 0 259 125q86 104 94 240q8 137 -70 216q-66 66 -177 66h-104q-86 0 -136 -49.5t-63 -134.5z" />
    <glyph glyph-name="rcaron" unicode="&#x159;" horiz-adv-x="757" 
d="M918 1386l-279 -256h-74l-203 256l70 54l180 -223l250 223zM829 1034l-18 -100q-224 0 -412 -133l-127 -801h-100l135 870q245 164 522 164z" />
    <glyph glyph-name="Sacute" unicode="&#x15a;" horiz-adv-x="1026" 
d="M537 1393l-21 82l432 182l25 -86zM705 1315q168 0 265 -76.5t103 -218.5l-104 8q-14 91 -81.5 141t-189.5 50q-144 0 -237 -71t-113 -200q-8 -52 11.5 -92.5t59 -66t93 -46.5t113 -39t119 -37t111.5 -47t89.5 -64.5t54.5 -92.5t5 -127q-27 -169 -159 -265t-327 -96
q-181 0 -290.5 92t-118.5 238l104 -8q15 -109 94.5 -167t220.5 -58q146 0 245.5 70t119.5 200q8 55 -11 97t-58.5 69t-92.5 48.5t-112.5 39.5t-118.5 37t-111.5 46t-90 62t-54.5 88.5t-6 122.5q28 177 156.5 270t310.5 93z" />
    <glyph glyph-name="sacute" unicode="&#x15b;" horiz-adv-x="935" 
d="M465 1112l-21 82l433 182l24 -86zM643 1034q152 0 230.5 -57.5t82.5 -179.5l-104 8q-22 139 -211 139q-119 0 -199.5 -53.5t-95.5 -149.5q-6 -38 8 -67t49 -49.5t70 -33t92 -28.5q149 -40 204 -67q138 -68 129 -200q-1 -14 -3 -28q-23 -139 -135.5 -216t-276.5 -77
q-158 0 -248 68t-96 188l101 -8q20 -157 247 -157q125 0 209 57t99 156q5 33 -6 59.5t-28 43t-53.5 32t-64 24t-76.5 21.5l-10.5 3t-9 2.5t-10.5 2.5q-73 20 -118.5 38t-95 50t-68.5 81.5t-9 115.5q22 141 131 211.5t266 70.5z" />
    <glyph glyph-name="Scedilla" unicode="&#x15e;" horiz-adv-x="1026" 
d="M348 948q-8 -52 11.5 -92.5t59 -66t93 -46.5t113 -39t119 -37t111.5 -47t89.5 -64.5t54.5 -92.5t5 -127q-27 -169 -158 -264t-326 -97l-47 -104q84 0 122.5 -52t27.5 -122q-11 -72 -70.5 -124t-153.5 -52q-86 0 -157 61l51 64q2 -2 9 -8t9.5 -8t9.5 -7.5t10.5 -7.5
t10 -5.5t12 -5.5t13 -4t15.5 -2.5t17 -0.5q57 0 95.5 31.5t44.5 72.5q7 45 -15.5 69.5t-66.5 24.5h-37l-27 70l56 115q-152 19 -242 106.5t-98 218.5l104 -8q15 -109 94.5 -167t220.5 -58q146 0 245.5 70t119.5 200q8 55 -11 97t-58.5 69t-92.5 48.5t-112.5 39.5t-118.5 37
t-111.5 46t-90 62t-54.5 88.5t-6 122.5q28 177 156.5 270t310.5 93q168 0 265 -76.5t103 -218.5l-104 8q-14 91 -81.5 141t-189.5 50q-144 0 -237 -71t-113 -200z" />
    <glyph glyph-name="scedilla" unicode="&#x15f;" horiz-adv-x="935" 
d="M565 563q149 -40 204 -67q138 -68 129 -200q-1 -14 -3 -28q-23 -138 -133.5 -214.5t-272.5 -78.5l-47 -104q84 0 122.5 -52t27.5 -122q-11 -72 -70 -124t-153 -52q-87 0 -158 61l51 64q1 -1 8 -7t9 -7.5t8.5 -7t9 -7t9 -5.5t10.5 -5t11 -4t13 -3.5t13.5 -1.5t15.5 -1
q57 0 95 31.5t44 72.5q7 45 -15.5 69.5t-66.5 24.5h-37l-27 70l56 115q-128 13 -200.5 79t-78.5 172l101 -8q20 -157 247 -157q125 0 209 57t99 156q5 33 -6 59.5t-28 43t-53.5 32t-64 24t-76.5 21.5l-10.5 3t-9 2.5t-10.5 2.5q-73 20 -118.5 38t-95 50t-68.5 81.5t-9 115.5
q22 141 131 211.5t266 70.5q152 0 230.5 -57.5t82.5 -179.5l-104 8q-22 139 -211 139q-119 0 -199.5 -53.5t-95.5 -149.5q-6 -38 8 -67t49 -49.5t70 -33t92 -28.5z" />
    <glyph glyph-name="Scaron" unicode="&#x160;" horiz-adv-x="1026" 
d="M1042 1667l-278 -256h-74l-203 256l70 53l180 -223l250 223zM705 1315q168 0 265 -76.5t103 -218.5l-104 8q-14 91 -81.5 141t-189.5 50q-144 0 -237 -71t-113 -200q-8 -52 11.5 -92.5t59 -66t93 -46.5t113 -39t119 -37t111.5 -47t89.5 -64.5t54.5 -92.5t5 -127
q-27 -169 -159 -265t-327 -96q-181 0 -290.5 92t-118.5 238l104 -8q15 -109 94.5 -167t220.5 -58q146 0 245.5 70t119.5 200q8 55 -11 97t-58.5 69t-92.5 48.5t-112.5 39.5t-118.5 37t-111.5 46t-90 62t-54.5 88.5t-6 122.5q28 177 156.5 270t310.5 93z" />
    <glyph glyph-name="scaron" unicode="&#x161;" horiz-adv-x="935" 
d="M971 1386l-279 -256h-74l-202 256l69 54l181 -223l249 223zM643 1034q152 0 230.5 -57.5t82.5 -179.5l-104 8q-22 139 -211 139q-119 0 -199.5 -53.5t-95.5 -149.5q-6 -38 8 -67t49 -49.5t70 -33t92 -28.5q149 -40 204 -67q138 -68 129 -200q-1 -14 -3 -28
q-23 -139 -135.5 -216t-276.5 -77q-158 0 -248 68t-96 188l101 -8q20 -157 247 -157q125 0 209 57t99 156q5 33 -6 59.5t-28 43t-53.5 32t-64 24t-76.5 21.5l-10.5 3t-9 2.5t-10.5 2.5q-73 20 -118.5 38t-95 50t-68.5 81.5t-9 115.5q22 141 131 211.5t266 70.5z" />
    <glyph glyph-name="Tcedilla" unicode="&#x162;" horiz-adv-x="1150" 
d="M1262 1290l-19 -100h-426l-186 -1190h-17l-59 -129q84 0 122.5 -52t27.5 -122q-11 -72 -70.5 -124t-153.5 -52q-86 0 -157 61l51 64q2 -2 9 -8t9.5 -8t9.5 -7.5t10.5 -7.5t10 -5.5t12 -5.5t13 -4t15.5 -2.5t17 -0.5q57 0 95.5 31.5t44.5 72.5q7 45 -15.5 69.5t-66.5 24.5
h-37l-27 70l66 135h-21l187 1190h-426l18 100h963z" />
    <glyph glyph-name="tcedilla" unicode="&#x163;" horiz-adv-x="698" 
d="M383 922l-102 -658q-17 -106 35.5 -152t148.5 -46q88 0 168 28l-12 -94q-86 -25 -172 -25h-29l-49 -104q84 0 122 -52t27 -122q-11 -72 -70 -124t-153 -52q-87 0 -158 61l51 64q1 -1 8 -7t9 -7.5t8.5 -7t9 -7t9 -5.5t10.5 -5t11 -4t13 -3.5t13.5 -1.5t15.5 -1
q57 0 95 31.5t44 72.5q7 45 -15.5 69.5t-66.5 24.5h-37l-26 70l59 123q-93 23 -140.5 92.5t-29.5 183.5l162 1026h100l-45 -280h330l-16 -88h-328z" />
    <glyph glyph-name="Tcaron" unicode="&#x164;" horiz-adv-x="1150" 
d="M1116 1665l-278 -256h-74l-203 256l70 53l180 -223l250 223zM1243 1190h-426l-186 -1190h-111l187 1190h-426l18 100h963z" />
    <glyph glyph-name="tcaron" unicode="&#x165;" horiz-adv-x="667" 
d="M602 1094l109 309h-86l-109 -309h86zM418 1010h330l-17 -88h-328l-102 -658q-17 -106 35.5 -152t148.5 -46q88 0 168 28l-12 -94q-86 -25 -172 -25q-135 0 -212.5 73t-55.5 216l161 1026h101z" />
    <glyph glyph-name="Tbar" unicode="&#x166;" horiz-adv-x="1150" 
d="M1044 1436h-485l14 82h488zM1243 1190h-426l-186 -1190h-111l187 1190h-426l18 100h963z" />
    <glyph glyph-name="tbar" unicode="&#x167;" horiz-adv-x="667" 
d="M403 922l-51 -332h215l-14 -82h-213l-39 -244q-17 -106 35.5 -152t148.5 -46q88 0 168 28l-12 -94q-86 -25 -172 -25q-135 0 -212.5 73t-55.5 216l39 244h-154l14 82h152l110 700h101l-45 -280h330l-17 -88h-328z" />
    <glyph glyph-name="Umacron" unicode="&#x16a;" horiz-adv-x="1275" 
d="M1106 1438h-485l14 82h487zM1319 1290l-127 -815q-21 -124 -73.5 -221t-127 -157t-163.5 -91t-187 -31q-99 0 -180 32t-138.5 93t-80.5 159.5t-4 223.5l129 807h110l-129 -815q-30 -197 54 -300t245 -103q162 0 282.5 107t151.5 304l127 807h111z" />
    <glyph glyph-name="umacron" unicode="&#x16b;" 
d="M981 1157h-485l14 82h487zM1122 1010l-92 -592q-32 -210 -156.5 -326.5t-314.5 -116.5q-192 0 -283 120t-57 331l94 584h101l-95 -590q-26 -177 37 -265.5t207 -88.5q149 0 244 92.5t123 269.5l92 582h100z" />
    <glyph glyph-name="Uring" unicode="&#x16e;" horiz-adv-x="1275" 
d="M897 1675q68 0 109 -45t30 -123q-11 -74 -61.5 -114.5t-116.5 -40.5q-69 0 -110.5 45t-28.5 123q11 74 61.5 114.5t116.5 40.5zM897 1606q-43 0 -74 -29.5t-37 -69.5q-6 -37 12 -61.5t58 -24.5q44 0 75.5 29.5t37.5 69.5q5 38 -13 62t-59 24zM1319 1290l-127 -815
q-21 -124 -73.5 -221t-127 -157t-163.5 -91t-187 -31q-99 0 -180 32t-138.5 93t-80.5 159.5t-4 223.5l129 807h110l-129 -815q-30 -197 54 -300t245 -103q162 0 282.5 107t151.5 304l127 807h111z" />
    <glyph glyph-name="uring" unicode="&#x16f;" 
d="M772 1395q68 0 109 -45t30 -123q-11 -74 -62 -115t-116 -41q-69 0 -110.5 45t-28.5 123q11 74 62 115t116 41zM772 1325q-43 0 -73.5 -29t-36.5 -69q-6 -37 11.5 -61.5t57.5 -24.5q44 0 75.5 29t37.5 69q5 38 -13 62t-59 24zM1122 1010l-92 -592q-32 -210 -156.5 -326.5
t-314.5 -116.5q-192 0 -283 120t-57 331l94 584h101l-95 -590q-26 -177 37 -265.5t207 -88.5q149 0 244 92.5t123 269.5l92 582h100z" />
    <glyph glyph-name="Uhungarumlaut" unicode="&#x170;" horiz-adv-x="1275" 
d="M735 1374l-55 64l356 346l60 -66zM981 1374l-55 64l356 346l59 -66zM1319 1290l-127 -815q-21 -124 -73.5 -221t-127 -157t-163.5 -91t-187 -31q-99 0 -180 32t-138.5 93t-80.5 159.5t-4 223.5l129 807h110l-129 -815q-30 -197 54 -300t245 -103q162 0 282.5 107
t151.5 304l127 807h111z" />
    <glyph glyph-name="uhungarumlaut" unicode="&#x171;" 
d="M610 1094l-55 63l356 346l60 -65zM856 1094l-55 63l356 346l60 -65zM1122 1010l-92 -592q-32 -210 -156.5 -326.5t-314.5 -116.5q-192 0 -283 120t-57 331l94 584h101l-95 -590q-26 -177 37 -265.5t207 -88.5q149 0 244 92.5t123 269.5l92 582h100z" />
    <glyph glyph-name="Uogonek" unicode="&#x172;" horiz-adv-x="1275" 
d="M1319 1290l-127 -815q-40 -233 -180.5 -360t-333.5 -138q-115 -123 -129 -225q-5 -35 9 -58.5t44 -23.5q22 0 55 14.5t56 32.5l41 -59q-75 -68 -164 -68q-78 0 -109.5 48.5t-21.5 119.5q7 51 41 112t80 110q-182 20 -279.5 149.5t-62.5 353.5l129 807h110l-129 -815
q-30 -197 54 -300t245 -103q162 0 282.5 107t151.5 304l127 807h111z" />
    <glyph glyph-name="uogonek" unicode="&#x173;" 
d="M1122 1010l-92 -592q-32 -204 -150 -319.5t-298 -123.5q-112 -121 -127 -223q-5 -35 9 -58.5t44 -23.5q22 0 54.5 14.5t55.5 32.5l41 -59q-75 -68 -163 -68q-78 0 -109.5 48.5t-21.5 119.5q7 51 41 112t79 110q-156 23 -226.5 140.5t-39.5 305.5l94 584h101l-95 -590
q-26 -177 37 -265.5t207 -88.5q149 0 244 92.5t123 269.5l92 582h100z" />
    <glyph glyph-name="Wcircumflex" unicode="&#x174;" horiz-adv-x="1851" 
d="M1434 1444l-68 -53l-182 223l-250 -223l-55 53l280 256h74zM1382 0h-102l-174 1141l-535 -1141h-104l-178 1290h117l145 -1143l528 1143h105l176 -1143l495 1143h117z" />
    <glyph glyph-name="wcircumflex" unicode="&#x175;" horiz-adv-x="1419" 
d="M1171 1163l-67 -53l-182 223l-250 -223l-56 53l281 256h74zM1030 0h-104l-80 877l-352 -877h-105l-153 1010l106 -2l125 -875l350 877h103l84 -877l393 877h106z" />
    <glyph glyph-name="Ycircumflex" unicode="&#x176;" horiz-adv-x="1200" 
d="M1110 1444l-68 -53l-182 223l-250 -223l-55 53l281 256h73zM739 535l-86 -535h-110l86 535l-348 755h122l299 -653l502 653h129z" />
    <glyph glyph-name="ycircumflex" unicode="&#x177;" horiz-adv-x="1136" 
d="M1014 1163l-68 -53l-182 223l-250 -223l-55 53l280 256h74zM1124 1010l-153 -969q-32 -201 -167 -326t-310 -125q-65 0 -119.5 11t-90 26t-68 40t-50 44t-39.5 47l61 72q21 -29 42.5 -50t58 -46.5t90 -39t119.5 -13.5q133 0 240.5 104t133.5 264l17 90
q-70 -68 -165.5 -116t-193.5 -48q-181 0 -262 119.5t-47 331.5l92 584h101l-92 -590q-28 -180 25 -267t194 -87q106 0 199 57.5t163 136.5l121 750h100z" />
    <glyph glyph-name="Ydieresis" unicode="&#x178;" horiz-adv-x="1200" 
d="M674 1606q31 0 52 -23.5t15 -62.5q-6 -36 -29.5 -55t-52.5 -19q-32 0 -53 23.5t-14 62.5q6 36 29 55t53 19zM1030 1606q32 0 53 -23.5t15 -62.5q-6 -36 -29.5 -55t-52.5 -19q-33 0 -54 23.5t-14 62.5q6 36 29 55t53 19zM739 535l-86 -535h-110l86 535l-348 755h122
l299 -653l502 653h129z" />
    <glyph glyph-name="Zacute" unicode="&#x179;" horiz-adv-x="1214" 
d="M635 1393l-21 82l433 182l24 -86zM1225 1196l-922 -1096h770l-16 -100h-901l14 88l922 1102h-740l19 100h870z" />
    <glyph glyph-name="zacute" unicode="&#x17a;" horiz-adv-x="1015" 
d="M442 1112l-20 82l432 182l25 -86zM995 924l-723 -834h629l-16 -90h-754l12 80l723 835h-575l16 95h703z" />
    <glyph glyph-name="Zdotaccent" unicode="&#x17b;" horiz-adv-x="1214" 
d="M928 1571q-6 -36 -30.5 -55t-53.5 -19q-33 0 -55 23.5t-15 62.5q6 36 30 55t54 19q32 0 54 -23.5t16 -62.5zM1225 1196l-922 -1096h770l-16 -100h-901l14 88l922 1102h-740l19 100h870z" />
    <glyph glyph-name="zdotaccent" unicode="&#x17c;" horiz-adv-x="1015" 
d="M735 1290q-6 -36 -30.5 -54.5t-53.5 -18.5q-33 0 -54.5 23.5t-14.5 62.5q6 36 30 54.5t54 18.5q32 0 53.5 -23.5t15.5 -62.5zM995 924l-723 -834h629l-16 -90h-754l12 80l723 835h-575l16 95h703z" />
    <glyph glyph-name="Zcaron" unicode="&#x17d;" horiz-adv-x="1214" 
d="M1141 1667l-279 -256h-74l-202 256l69 53l181 -223l249 223zM1225 1196l-922 -1096h770l-16 -100h-901l14 88l922 1102h-740l19 100h870z" />
    <glyph glyph-name="zcaron" unicode="&#x17e;" horiz-adv-x="1015" 
d="M948 1386l-278 -256h-74l-203 256l70 54l180 -223l250 223zM995 924l-723 -834h629l-16 -90h-754l12 80l723 835h-575l16 95h703z" />
    <glyph glyph-name="florin" unicode="&#x192;" horiz-adv-x="581" 
d="M881 1423l-21 -92q-43 23 -95 32t-106.5 0.5t-101.5 -36t-82 -84t-47 -135.5l-16 -104h260l-15 -89h-262l-153 -981q-13 -80 -34 -139t-56 -107.5t-88.5 -73t-126.5 -24.5q-75 0 -140 52l43 79q21 -14 30.5 -20t30 -13t42.5 -7q85 0 132.5 63.5t69.5 198.5l152 972h-150
l17 89h149l15 112q20 117 79 197t138 112.5t166 32t170 -34.5z" />
    <glyph glyph-name="Scommaaccent" unicode="&#x218;" horiz-adv-x="1026" 
d="M705 1315q168 0 265 -76.5t103 -218.5l-104 8q-14 91 -81.5 141t-189.5 50q-144 0 -237 -71t-113 -200q-8 -52 11.5 -92.5t59 -66t93 -46.5t113 -39t119 -37t111.5 -47t89.5 -64.5t54.5 -92.5t5 -127q-27 -169 -159 -265t-327 -96q-181 0 -290.5 92t-118.5 238l104 -8
q15 -109 94.5 -167t220.5 -58q146 0 245.5 70t119.5 200q8 55 -11 97t-58.5 69t-92.5 48.5t-112.5 39.5t-118.5 37t-111.5 46t-90 62t-54.5 88.5t-6 122.5q28 177 156.5 270t310.5 93zM432 -453l127 355h-108l-125 -355h106z" />
    <glyph glyph-name="scommaaccent" unicode="&#x219;" horiz-adv-x="935" 
d="M643 1034q152 0 230.5 -57.5t82.5 -179.5l-104 8q-22 139 -211 139q-119 0 -199.5 -53.5t-95.5 -149.5q-6 -38 8 -67t49 -49.5t70 -33t92 -28.5q149 -40 204 -67q138 -68 129 -200q-1 -14 -3 -28q-23 -139 -135.5 -216t-276.5 -77q-158 0 -248 68t-96 188l101 -8
q20 -157 247 -157q125 0 209 57t99 156q5 33 -6 59.5t-28 43t-53.5 32t-64 24t-76.5 21.5l-10.5 3t-9 2.5t-10.5 2.5q-73 20 -118.5 38t-95 50t-68.5 81.5t-9 115.5q22 141 131 211.5t266 70.5zM401 -453l127 355h-108l-125 -355h106z" />
    <glyph glyph-name="uni021A" unicode="&#x21a;" horiz-adv-x="1150" 
d="M1243 1190h-426l-186 -1190h-111l187 1190h-426l18 100h963zM514 -453l127 355h-109l-124 -355h106z" />
    <glyph glyph-name="uni021B" unicode="&#x21b;" horiz-adv-x="698" 
d="M397 1010h330l-16 -88h-328l-102 -658q-17 -106 35.5 -152t148.5 -46q88 0 168 28l-12 -94q-86 -25 -172 -25q-136 0 -213.5 73t-55.5 216l162 1026h100zM330 -453l127 355h-109l-125 -355h107z" />
    <glyph glyph-name="circumflex" unicode="&#x2c6;" horiz-adv-x="962" 
d="M944 1163l-67 -53l-183 223l-250 -223l-55 53l281 256h73z" />
    <glyph glyph-name="caron" unicode="&#x2c7;" horiz-adv-x="960" 
d="M977 1386l-279 -256h-73l-203 256l70 54l180 -223l250 223z" />
    <glyph glyph-name="breve" unicode="&#x2d8;" horiz-adv-x="962" 
d="M864 1384l88 -8q-29 -118 -105.5 -184t-180.5 -66q-107 0 -166 69.5t-51 188.5l88 -8q-8 -168 131 -168q79 0 127.5 50.5t68.5 125.5z" />
    <glyph glyph-name="dotaccent" unicode="&#x2d9;" horiz-adv-x="962" 
d="M764 1290q-6 -36 -30.5 -54.5t-53.5 -18.5q-33 0 -55 23.5t-15 62.5q6 36 30 54.5t54 18.5q32 0 54 -23.5t16 -62.5z" />
    <glyph glyph-name="ring" unicode="&#x2da;" horiz-adv-x="962" 
d="M696 1395q68 0 109.5 -45t30.5 -123q-11 -74 -62.5 -115t-116.5 -41q-69 0 -110.5 45t-28.5 123q11 74 62 115t116 41zM696 1325q-43 0 -73.5 -29t-36.5 -69q-6 -37 11.5 -61.5t57.5 -24.5q44 0 75.5 29t37.5 69q5 38 -13 62t-59 24z" />
    <glyph glyph-name="ogonek" unicode="&#x2db;" horiz-adv-x="962" 
d="M432 2h100q-137 -137 -153 -250q-5 -35 9 -58.5t44 -23.5q22 0 55 14.5t56 32.5l41 -59q-75 -68 -164 -68q-78 0 -109.5 48.5t-21.5 119.5q9 57 50 126.5t93 117.5z" />
    <glyph glyph-name="tilde" unicode="&#x2dc;" horiz-adv-x="962" 
d="M868 1307l86 -33q-62 -141 -178 -141q-53 0 -127 24.5t-90 24.5q-52 0 -80 -82l-88 33q16 60 62 103.5t104 43.5q47 0 121.5 -24.5t95.5 -24.5q66 0 94 76z" />
    <glyph glyph-name="hungarumlaut" unicode="&#x2dd;" horiz-adv-x="960" 
d="M410 1094l-56 63l357 346l59 -65zM655 1094l-55 63l356 346l60 -65z" />
    <glyph glyph-name="uni0326" unicode="&#x326;" horiz-adv-x="0" 
d="M428 -453l127 355h-109l-124 -355h106z" />
    <glyph glyph-name="Delta" unicode="&#x394;" horiz-adv-x="1021" 
d="M946 0h-870l575 1290h127zM233 100h582l-121 1071z" />
    <glyph glyph-name="Omega" unicode="&#x3a9;" horiz-adv-x="1138" 
d="M772 1315q77 0 143.5 -22t123 -69t91 -120t47 -176t-9.5 -236q-17 -106 -58.5 -206t-95 -174.5t-103 -126.5t-95.5 -87l287 2l-17 -100h-460l12 82q359 228 420 623q19 113 10 198t-34.5 144t-68.5 95.5t-92 53t-106 16.5q-74 0 -144 -28.5t-135 -87t-114 -162.5
t-70 -242q-60 -385 223 -614l-10 -78h-463l19 100l290 2q-35 35 -68 86.5t-64.5 132t-40 174t5.5 210.5q20 129 63.5 233t99.5 173t125.5 116t141.5 67.5t147 20.5z" />
    <glyph glyph-name="mu" unicode="&#x3bc;" horiz-adv-x="958" 
d="M981 1010l-100 -633q-31 -193 -134.5 -296.5t-263.5 -103.5q-166 0 -229 111l-78 -473h-100l221 1395h100l-100 -631q-46 -309 188 -309q121 0 196.5 80.5t100.5 236.5l99 623h100z" />
    <glyph glyph-name="pi" unicode="&#x3c0;" horiz-adv-x="1105" 
d="M1163 903h-174l-141 -903h-107l142 903h-377l-141 -903h-107l141 903h-174l19 107h938z" />
    <glyph glyph-name="uni0401" unicode="&#x401;" 
d="M653 1606q32 0 53 -23.5t15 -62.5q-6 -36 -29.5 -55t-52.5 -19q-32 0 -53.5 23.5t-14.5 62.5q6 36 29 55t53 19zM1010 1606q31 0 52 -23.5t15 -62.5q-6 -36 -29.5 -55t-52.5 -19q-33 0 -53.5 23.5t-13.5 62.5q6 36 29 55t53 19zM1147 1190h-688l-76 -490h653l-16 -100
h-653l-41 -268q-19 -128 30.5 -180t155.5 -52h483l-18 -100h-475q-158 0 -235 87t-50 259l150 944h798z" />
    <glyph glyph-name="uni0402" unicode="&#x402;" horiz-adv-x="1366" 
d="M1243 1190h-426l-63 -397q109 77 254 77q79 0 142.5 -25.5t103.5 -69t66.5 -101.5t30.5 -123.5t-5 -134.5q-13 -85 -51 -162.5t-95.5 -140.5t-141 -100.5t-179.5 -37.5q-36 0 -80 7l8 98q50 -8 70 -8q96 0 174 52.5t122 131.5t58 170q14 90 -5 167.5t-78.5 129
t-152.5 51.5q-70 0 -139 -25t-117 -67l-108 -682h-111l187 1190h-426l18 100h963z" />
    <glyph glyph-name="uni0403" unicode="&#x403;" horiz-adv-x="903" 
d="M520 1393l-20 82l432 182l24 -86zM995 1190h-536l-187 -1190h-110l205 1290h647z" />
    <glyph glyph-name="uni0404" unicode="&#x404;" horiz-adv-x="1200" 
d="M872 1219q-109 0 -205 -43t-166 -117.5t-118.5 -169t-71.5 -201.5h637l-18 -100h-633q-10 -102 9 -193t64 -164t126 -116t188 -43q113 0 205.5 46.5t144.5 123.5l111 -6q-41 -108 -167.5 -184.5t-299.5 -76.5q-95 0 -174.5 26.5t-135 73t-97.5 110.5t-60.5 139.5t-24 159
t10.5 169.5q17 104 55 200.5t98.5 181t137.5 146.5t178 98t213 36q176 0 280.5 -79.5t112.5 -188.5l-111 6q-27 76 -102.5 121t-186.5 45z" />
    <glyph glyph-name="uni0405" unicode="&#x405;" horiz-adv-x="1026" 
d="M705 1315q168 0 265 -76.5t103 -218.5l-104 8q-14 91 -81.5 141t-189.5 50q-144 0 -237 -71t-113 -200q-8 -52 11.5 -92.5t59 -66t93 -46.5t113 -39t119 -37t111.5 -47t89.5 -64.5t54.5 -92.5t5 -127q-27 -169 -159 -265t-327 -96q-181 0 -290.5 92t-118.5 238l104 -8
q15 -109 94.5 -167t220.5 -58q146 0 245.5 70t119.5 200q8 55 -11 97t-58.5 69t-92.5 48.5t-112.5 39.5t-118.5 37t-111.5 46t-90 62t-54.5 88.5t-6 122.5q28 177 156.5 270t310.5 93z" />
    <glyph glyph-name="uni0406" unicode="&#x406;" horiz-adv-x="434" 
d="M272 0h-110l205 1290h110z" />
    <glyph glyph-name="uni0407" unicode="&#x407;" horiz-adv-x="434" 
d="M289 1606q31 0 52 -23.5t15 -62.5q-6 -36 -29.5 -55t-52.5 -19q-32 0 -53 23.5t-14 62.5q6 36 29 55t53 19zM645 1606q32 0 53 -23.5t15 -62.5q-6 -36 -29.5 -55t-52.5 -19q-33 0 -54 23.5t-14 62.5q6 36 29 55t53 19zM272 0h-110l205 1290h110z" />
    <glyph glyph-name="uni0408" unicode="&#x408;" horiz-adv-x="776" 
d="M819 1290l-127 -803q-39 -241 -189 -376.5t-390 -135.5l10 97q187 0 308.5 113t150.5 311l108 694h-344l19 100h454z" />
    <glyph glyph-name="uni0409" unicode="&#x409;" horiz-adv-x="1855" 
d="M1184 711h270q66 0 121.5 -12t94 -32.5t69 -48.5t47 -60t27.5 -67t10.5 -69.5t-4.5 -67.5q-20 -124 -89 -205t-165.5 -115t-221.5 -34h-382l186 1190h-631l-127 -819q-11 -68 -26.5 -120t-42 -101t-62.5 -81t-90 -51.5t-123 -19.5l10 100q105 0 152 65t69 204l148 923
h852zM1167 612l-80 -516h271q158 0 245 69.5t107 192.5q18 111 -55.5 182.5t-220.5 71.5h-267z" />
    <glyph glyph-name="uni040A" unicode="&#x40a;" horiz-adv-x="1937" 
d="M1266 711h268q66 0 122 -12t94.5 -32.5t69.5 -48.5t47.5 -60t27.5 -67t10.5 -69.5t-4.5 -67.5q-20 -124 -89 -205t-165.5 -115t-221.5 -34h-383l97 612h-770l-97 -612h-110l205 1290h110l-92 -579h770l92 579h111zM1169 96h269q159 0 246.5 69.5t107.5 192.5
q18 111 -55.5 182.5t-220.5 71.5h-267z" />
    <glyph glyph-name="uni040B" unicode="&#x40b;" horiz-adv-x="1505" 
d="M1243 1190h-426l-63 -397q70 48 162.5 76t183.5 28q59 0 110 -12.5t96 -40.5t72.5 -72t39.5 -106.5t-3 -145.5l-82 -520h-110l82 528q12 73 -1 126.5t-46.5 83.5t-77 43.5t-99.5 13.5q-88 0 -185 -33t-157 -78l-108 -684h-111l187 1190h-426l18 100h963z" />
    <glyph glyph-name="uni040C" unicode="&#x40c;" horiz-adv-x="1024" 
d="M563 1393l-20 82l432 182l24 -86zM1067 1290l-440 -571q64 -6 110.5 -49.5t70 -105t42 -142t28 -154.5t25.5 -150t37 -120l-109 4q-20 44 -34.5 129t-26.5 164.5t-32 156.5t-63 124t-108 47h-196l-99 -623h-110l205 1290h110l-90 -569h133l424 569h123z" />
    <glyph glyph-name="uni040E" unicode="&#x40e;" horiz-adv-x="1007" 
d="M743 1407q-107 0 -166 69.5t-51 188.5l88 -8q-8 -168 131 -168q79 0 128 51t69 125l88 -8q-29 -117 -106 -183.5t-181 -66.5zM1141 1290l-535 -985q-85 -154 -200.5 -234.5t-272.5 -95.5l-4 101q106 6 209.5 76.5t165.5 189.5l20 37l-225 911h117l186 -770l426 770h113z
" />
    <glyph glyph-name="uni040F" unicode="&#x40f;" horiz-adv-x="1230" 
d="M1069 0h-401l-41 -256h-101l41 256h-405l205 1290h110l-186 -1190h686l186 1190h111z" />
    <glyph glyph-name="uni0410" unicode="&#x410;" horiz-adv-x="1288" 
d="M1026 311h-661l-166 -311h-125l719 1290h110l309 -1290h-116zM1001 412l-172 768l-411 -768h583z" />
    <glyph glyph-name="uni0411" unicode="&#x411;" horiz-adv-x="1060" 
d="M979 1194h-520l-74 -483h272q66 0 122 -12t94.5 -32.5t69.5 -48.5t47.5 -60t27.5 -67t10.5 -69.5t-4.5 -67.5q-20 -124 -88.5 -205t-165 -115t-221.5 -34h-387l205 1290h630zM369 612l-80 -516h272q159 0 246.5 69.5t107.5 192.5q18 111 -55.5 182.5t-220.5 71.5h-270z
" />
    <glyph glyph-name="uni0412" unicode="&#x412;" horiz-adv-x="1060" 
d="M367 1290h364q183 0 274.5 -93t67.5 -247q-15 -97 -78.5 -173.5t-158.5 -108.5q104 -45 155 -124.5t33 -189.5q-14 -93 -56.5 -162.5t-106.5 -111t-141.5 -61t-170.5 -19.5h-387zM459 1194l-74 -483h272q129 0 211 73.5t97 173.5q15 98 -41.5 167t-184.5 69h-280z
M369 612l-80 -516h272q159 0 246.5 69.5t107.5 192.5q18 111 -55.5 182.5t-220.5 71.5h-270z" />
    <glyph glyph-name="uni0413" unicode="&#x413;" horiz-adv-x="903" 
d="M995 1190h-536l-187 -1190h-110l205 1290h647z" />
    <glyph glyph-name="uni0414" unicode="&#x414;" horiz-adv-x="1255" 
d="M1087 100h121l-57 -356h-100l41 256h-926l-41 -256h-100l59 356l96 2q173 257 256 775l66 413h772zM594 1190l-49 -320q-37 -246 -106 -455t-144 -317l682 2l170 1090h-553z" />
    <glyph glyph-name="uni0415" unicode="&#x415;" 
d="M1147 1190h-688l-76 -490h653l-16 -100h-653l-41 -268q-19 -128 30.5 -180t155.5 -52h483l-18 -100h-475q-158 0 -235 87t-50 259l150 944h798z" />
    <glyph glyph-name="uni0416" unicode="&#x416;" horiz-adv-x="1402" 
d="M1524 1290l-457 -571q72 -8 117.5 -63t66 -141t31.5 -174.5t25.5 -187.5t35.5 -155l-110 4q-15 48 -24.5 136t-17.5 166t-24.5 153.5t-55 120.5t-99.5 45h-158l-96 -623h-111l96 623h-149q-61 0 -114 -45.5t-93.5 -121.5t-73.5 -154.5t-70.5 -167t-68.5 -136.5l-119 4
q39 56 84.5 154.5t84.5 186.5t86.5 173.5t111 140t137.5 62.5l-266 571h117l266 -569h86l90 569h111l-91 -569h82l447 569h123z" />
    <glyph glyph-name="uni0417" unicode="&#x417;" 
d="M754 1315q199 0 296.5 -102t73.5 -257q-17 -103 -89 -180t-175 -112q98 -27 153.5 -115t37.5 -203q-25 -161 -159.5 -266t-332.5 -105q-181 0 -290 92t-117 238l104 -8q15 -109 93.5 -167t217.5 -58q161 0 258.5 82t116.5 200q16 105 -62 181.5t-239 76.5h-158l17 101
h149q156 0 253.5 74.5t113.5 181.5q16 109 -48.5 179.5t-217.5 70.5q-236 0 -326 -199l-107 8q50 150 159 218.5t278 68.5z" />
    <glyph glyph-name="uni0418" unicode="&#x418;" horiz-adv-x="1300" 
d="M1139 0h-111l176 1118l-950 -1118h-92l205 1290h110l-174 -1106l948 1106h92z" />
    <glyph glyph-name="uni0419" unicode="&#x419;" horiz-adv-x="1300" 
d="M1079 1665l88 -8q-29 -118 -105.5 -184t-180.5 -66q-107 0 -166 69.5t-51 188.5l88 -8q-8 -168 131 -168q79 0 127.5 50.5t68.5 125.5zM1139 0h-111l176 1118l-950 -1118h-92l205 1290h110l-174 -1106l948 1106h92z" />
    <glyph glyph-name="uni041A" unicode="&#x41a;" horiz-adv-x="1024" 
d="M1067 1290l-440 -571q64 -6 110.5 -49.5t70 -105t42 -142t28 -154.5t25.5 -150t37 -120l-109 4q-20 44 -34.5 129t-26.5 164.5t-32 156.5t-63 124t-108 47h-196l-99 -623h-110l205 1290h110l-90 -569h133l424 569h123z" />
    <glyph glyph-name="uni041B" unicode="&#x41b;" horiz-adv-x="1232" 
d="M1071 0h-110l186 1190h-631l-127 -819q-11 -68 -26.5 -120t-42 -101t-62.5 -81t-90 -51.5t-123 -19.5l10 100q105 0 152 65t69 204l148 923h852z" />
    <glyph glyph-name="uni041C" unicode="&#x41c;" horiz-adv-x="1452" 
d="M1290 0h-110l174 1110l-516 -694h-90l-299 694l-177 -1110h-110l205 1290h110l332 -755l571 755h115z" />
    <glyph glyph-name="uni041D" unicode="&#x41d;" horiz-adv-x="1314" 
d="M1153 0h-111l93 596h-768l-95 -596h-110l205 1290h110l-94 -594h770l94 594h111z" />
    <glyph glyph-name="uni041E" unicode="&#x41e;" horiz-adv-x="1353" 
d="M879 1315q95 0 175 -26t135.5 -72t97 -109.5t60 -139t24 -160t-10.5 -171.5q-20 -128 -75.5 -245.5t-140 -211t-206 -149.5t-260.5 -56q-95 0 -174.5 26.5t-135 73t-97.5 110.5t-60.5 139.5t-24 159t10.5 169.5q17 104 55 200.5t98.5 181t137.5 146.5t178 98t213 36z
M874 1219q-117 0 -218 -48t-171.5 -129.5t-117 -184.5t-64.5 -218q-13 -71 -9 -141t18.5 -133t47 -116.5t76.5 -93t108 -61.5t140 -22q115 0 215.5 49.5t171.5 132t118 185t64 212.5q11 88 8 170.5t-31.5 155t-73 126.5t-117.5 85t-165 31z" />
    <glyph glyph-name="uni041F" unicode="&#x41f;" horiz-adv-x="1251" 
d="M1090 0h-111l186 1190h-706l-187 -1190h-110l205 1290h927z" />
    <glyph glyph-name="uni0420" unicode="&#x420;" horiz-adv-x="1064" 
d="M639 1290h102q204 0 301 -141q80 -118 57 -284q-23 -167 -136 -287q-141 -150 -351 -150h-272l-68 -428h-110l162 1020q19 123 102.5 196.5t212.5 73.5zM737 1194h-108q-86 0 -136 -49.5t-63 -134.5l-74 -484h271q163 0 270 128q88 106 98 245q9 140 -70 223
q-68 72 -188 72z" />
    <glyph glyph-name="uni0421" unicode="&#x421;" horiz-adv-x="1161" 
d="M879 1315q176 0 280.5 -79.5t112.5 -188.5l-125 6q-29 78 -97.5 122t-177.5 44q-116 0 -216.5 -48t-171 -129.5t-117 -184.5t-64.5 -218q-13 -71 -9 -141t18.5 -133t47 -116.5t76.5 -93t108 -61.5t140 -22q218 0 334 170l127 -6q-41 -108 -167.5 -184.5t-299.5 -76.5
q-95 0 -174.5 26.5t-135 73t-97.5 110.5t-60.5 139.5t-24 159t10.5 169.5q17 104 55 200.5t98.5 181t137.5 146.5t178 98t213 36z" />
    <glyph glyph-name="uni0422" unicode="&#x422;" horiz-adv-x="1150" 
d="M1243 1190h-426l-186 -1190h-111l187 1190h-426l18 100h963z" />
    <glyph glyph-name="uni0423" unicode="&#x423;" horiz-adv-x="1007" 
d="M1141 1290l-535 -985q-85 -154 -200.5 -234.5t-272.5 -95.5l-4 101q106 6 209.5 76.5t165.5 189.5l20 37l-225 911h117l186 -770l426 770h113z" />
    <glyph glyph-name="uni0424" unicode="&#x424;" horiz-adv-x="1239" 
d="M879 1290l-25 -131q71 -3 134 -23t119 -60t91 -101t50 -145.5t-3 -194.5q-17 -104 -57 -189t-93 -141.5t-120.5 -96t-135.5 -58.5t-141 -23l-24 -127h-107l23 127q-72 3 -135 23t-119.5 60t-91.5 100.5t-50 144.5t3 192q21 131 76.5 231.5t133 158.5t163 88t178.5 34
l24 131h107zM600 227l137 832q-76 -3 -144 -29t-127.5 -75.5t-102 -131.5t-58.5 -188q-16 -105 0 -184t59.5 -125.5t102.5 -70.5t133 -28zM844 1059l-137 -832q74 4 141.5 29.5t127.5 74.5t102.5 130t58.5 186q16 104 -0.5 183.5t-59.5 127.5t-101.5 73t-131.5 28z" />
    <glyph glyph-name="uni0425" unicode="&#x425;" horiz-adv-x="1142" 
d="M743 662l322 -662h-127l-274 582l-453 -582h-137l532 662l-295 628h121l254 -547l434 547h125z" />
    <glyph glyph-name="uni0426" unicode="&#x426;" horiz-adv-x="1255" 
d="M1087 100h121l-59 -356h-100l41 256h-928l205 1290h110l-186 -1190h686l186 1190h111z" />
    <glyph glyph-name="uni0427" unicode="&#x427;" horiz-adv-x="1097" 
d="M936 0h-111l76 477q-57 -45 -132.5 -74.5t-154 -40t-152 7t-127.5 58.5t-79 121.5t-8 189.5l88 551h110l-88 -559q-14 -91 9 -152.5t71 -87.5t112.5 -30.5t132 13t130 49.5t105.5 73l112 694h111z" />
    <glyph glyph-name="uni0428" unicode="&#x428;" horiz-adv-x="1771" 
d="M1610 0h-1448l205 1290h110l-186 -1190h557l188 1190h111l-189 -1190h560l186 1190h111z" />
    <glyph glyph-name="uni0429" unicode="&#x429;" horiz-adv-x="1796" 
d="M1628 100h121l-59 -356h-101l41 256h-1468l205 1290h110l-186 -1190h557l188 1190h111l-189 -1190h560l186 1190h111z" />
    <glyph glyph-name="uni042A" unicode="&#x42a;" horiz-adv-x="1052" 
d="M385 711h270q66 0 121.5 -12t94 -32.5t69 -48.5t47 -60t27.5 -67t10.5 -69.5t-4.5 -67.5q-20 -124 -88.5 -205t-165 -115t-221.5 -34h-383l190 1194h-202l18 96h309zM911 358q18 111 -55.5 182.5t-220.5 71.5h-266l-80 -516h270q158 0 245 69.5t107 192.5z" />
    <glyph glyph-name="uni042B" unicode="&#x42b;" horiz-adv-x="1357" 
d="M385 711h270q66 0 121.5 -12t94 -32.5t69 -48.5t47 -60t27.5 -67t10.5 -69.5t-4.5 -67.5q-20 -124 -88.5 -205t-165 -115t-221.5 -34h-383l205 1290h110zM1214 0h-110l205 1290h110zM369 612l-80 -516h270q158 0 245 69.5t107 192.5q18 111 -55.5 182.5t-220.5 71.5h-266
z" />
    <glyph glyph-name="uni042C" unicode="&#x42c;" horiz-adv-x="1056" 
d="M385 711h270q66 0 121.5 -12t94 -32.5t69 -48.5t47 -60t27.5 -67t10.5 -69.5t-4.5 -67.5q-20 -124 -88.5 -205t-165 -115t-221.5 -34h-383l205 1290h110zM369 612l-80 -516h270q158 0 245 69.5t107 192.5q18 111 -55.5 182.5t-220.5 71.5h-266z" />
    <glyph glyph-name="uni042D" unicode="&#x42d;" horiz-adv-x="1200" 
d="M727 1315q95 0 174.5 -26t135.5 -71.5t97 -109t60 -138t24.5 -158.5t-10.5 -171q-20 -130 -76 -248t-140.5 -212t-205.5 -150t-260 -56q-175 0 -281.5 80.5t-111.5 188.5l107 -6q28 -77 104 -121.5t188 -44.5q106 0 200.5 43t164 116t118 164t72.5 193h-634l18 100h633
q13 108 -3.5 202.5t-61 168.5t-126 117t-192.5 43q-113 0 -205.5 -46.5t-144.5 -123.5l-111 6q41 108 166.5 184t300.5 76z" />
    <glyph glyph-name="uni042E" unicode="&#x42e;" horiz-adv-x="1705" 
d="M1262 1315q91 0 166.5 -26t128 -72t91.5 -109.5t56 -139t21.5 -160t-11.5 -171.5q-20 -128 -74 -245.5t-135 -211t-196.5 -149.5t-247.5 -56q-127 0 -223.5 51t-151.5 138.5t-77.5 197.5t-10.5 234h-238l-94 -596h-110l204 1290h111l-94 -594h237q21 100 59.5 190.5
t97 169t130.5 136t165 90.5t196 33zM1606 651q11 88 9 170.5t-28 155t-68 126.5t-110 85t-154 31q-110 0 -205.5 -48t-162.5 -129.5t-111.5 -184.5t-62.5 -218q-11 -87 -8.5 -168.5t29 -154t68.5 -127t110.5 -86t154.5 -31.5t165 32.5t140 88t110 129.5t79.5 157.5
t44.5 171.5z" />
    <glyph glyph-name="uni042F" unicode="&#x42f;" horiz-adv-x="1028" 
d="M694 1290h97q141 0 198.5 -76t36.5 -202l-160 -1012h-110l86 549l-203 -2q-118 -103 -238 -261t-196 -290l-131 8q100 161 222.5 319.5t213.5 231.5q-141 22 -195 149q-50 119 -6 269q44 151 158 239q101 78 227 78zM782 1190h-102q-121 0 -204 -111q-73 -97 -77 -217
q-4 -123 71 -180q45 -35 114 -35h276l58 371q13 85 -18.5 128.5t-117.5 43.5z" />
    <glyph glyph-name="uni0430" unicode="&#x430;" horiz-adv-x="1071" 
d="M721 1034q171 0 319 -98l-137 -737q-26 -142 68 -142q53 0 157 49l-12 -90q-102 -39 -172 -39q-143 0 -143 156q-63 -73 -151 -115.5t-191 -42.5q-187 0 -262.5 136.5t-36.5 375.5q29 175 115 301t200.5 186t245.5 60zM713 944q-113 0 -211 -67t-160 -173t-82 -229
q-15 -84 -10 -158t26 -130t70 -88.5t121 -32.5q106 0 202.5 65.5t149.5 147.5l115 604q-111 61 -221 61z" />
    <glyph glyph-name="uni0431" unicode="&#x431;" horiz-adv-x="1056" 
d="M991 1487l-14 -105q-31 -14 -186.5 -71.5t-210.5 -98.5q-98 -72 -167 -177t-94 -218q51 86 150 151.5t221 65.5q92 0 166.5 -34.5t125.5 -102t70 -167.5t-1 -230q-40 -245 -189 -384t-336 -139q-191 0 -294.5 149.5t-63.5 405.5q50 308 136 482t231 278q54 39 134 72.5
t177.5 67.5t144.5 55zM682 944q-148 0 -269 -125.5t-151 -320.5q-30 -191 49 -310.5t224 -119.5q147 0 266 123.5t149 318.5q30 192 -47.5 313t-220.5 121z" />
    <glyph glyph-name="uni0432" unicode="&#x432;" horiz-adv-x="909" 
d="M332 1010h301q143 0 211 -76t49 -197q-11 -74 -56.5 -133.5t-115.5 -85.5q66 -30 105.5 -91.5t25.5 -150.5q-21 -136 -118.5 -206t-244.5 -70h-317zM416 913l-56 -354h207q92 0 154 55.5t72 126.5t-29 121.5t-129 50.5h-219zM346 467l-57 -371h213q112 0 175.5 52
t76.5 139q11 78 -43 129t-154 51h-211z" />
    <glyph glyph-name="uni0433" unicode="&#x433;" horiz-adv-x="790" 
d="M868 913h-452l-144 -913h-100l160 1010h553z" />
    <glyph glyph-name="uni0434" unicode="&#x434;" horiz-adv-x="1013" 
d="M868 96h97l-58 -352h-92l41 256h-717l-41 -256h-92l57 352l78 2q141 211 199 590l51 322h621zM475 913l-35 -233q-30 -190 -82 -345.5t-112 -240.5l522 2l127 817h-420z" />
    <glyph glyph-name="uni0435" unicode="&#x435;" horiz-adv-x="1062" 
d="M559 66q93 0 171 40t132 111l109 -6q-61 -104 -169.5 -170t-248.5 -66q-200 0 -313 149.5t-76 387.5q35 227 180 374.5t336 147.5q179 0 275 -104q78 -86 64 -200q-16 -122 -132 -204q-139 -98 -371 -98q-114 0 -258 27q-13 -174 72.5 -281.5t228.5 -107.5zM676 944
q-144 0 -254 -109.5t-150 -289.5q135 -27 244 -27q232 0 342 105q76 72 63 160q-13 83 -97 128q-62 33 -148 33z" />
    <glyph glyph-name="uni0436" unicode="&#x436;" horiz-adv-x="1243" 
d="M1313 1010l-355 -453q52 -6 88.5 -49t56.5 -110.5t33 -135.5t27.5 -145t30.5 -119l-104 6q-10 38 -20 108.5t-19.5 127t-25.5 113t-46.5 88.5t-75.5 32h-155l-76 -473h-101l74 473h-147q-38 0 -74 -25t-64 -62.5t-57 -91.5t-50.5 -102.5t-48.5 -105t-46 -90.5l-113 6
q29 42 67.5 118.5t72 144t74.5 134t91 109.5t105 49l-201 453h115l198 -445h95l69 445h100l-69 -445h90l338 445h123z" />
    <glyph glyph-name="uni0437" unicode="&#x437;" horiz-adv-x="851" 
d="M567 1034q156 0 233 -83t56 -210q-12 -79 -57.5 -137t-118.5 -84q72 -22 109 -89t22 -157q-22 -132 -126 -215.5t-259 -83.5q-150 0 -237.5 78.5t-82.5 200.5l99 -8q0 -85 60.5 -132.5t166.5 -47.5q122 0 195 62.5t86 152.5q12 79 -36.5 134.5t-162.5 55.5h-149l16 90
h131q111 0 172.5 55t73.5 136t-35.5 136.5t-157.5 55.5q-91 0 -154.5 -45t-93.5 -115l-100 9q24 101 121 171t229 70z" />
    <glyph glyph-name="uni0438" unicode="&#x438;" horiz-adv-x="1101" 
d="M913 0h-100l133 846l-692 -846h-82l160 1010h100l-133 -846l688 846h86z" />
    <glyph glyph-name="uni0439" unicode="&#x439;" horiz-adv-x="1101" 
d="M928 1384l88 -8q-29 -117 -106 -183.5t-181 -66.5q-107 0 -166 69.5t-51 188.5l88 -8q-8 -168 131 -168q79 0 128 51t69 125zM913 0h-100l133 846l-692 -846h-82l160 1010h100l-133 -846l688 846h86z" />
    <glyph glyph-name="uni043A" unicode="&#x43a;" horiz-adv-x="909" 
d="M934 1010l-371 -445q56 -7 99 -50.5t70 -112.5t45 -137t37.5 -147.5t35.5 -119.5l-115 4q-11 33 -26 102.5t-29.5 126.5t-36.5 116t-57.5 92.5t-81.5 33.5h-156l-76 -473h-100l160 1010h100l-70 -441h101l348 441h123z" />
    <glyph glyph-name="uni043B" unicode="&#x43b;" horiz-adv-x="972" 
d="M801 0h-101l144 913h-430l-95 -608q-12 -74 -31 -126.5t-51 -96t-82.5 -65t-119.5 -21.5l8 96q81 0 120.5 53.5t55.5 159.5l111 705h631z" />
    <glyph glyph-name="uni043C" unicode="&#x43c;" horiz-adv-x="1251" 
d="M1079 0h-100l131 840l-399 -525h-70l-235 525l-134 -840h-100l160 1010h92l268 -580l449 580h98z" />
    <glyph glyph-name="uni043D" unicode="&#x43d;" 
d="M942 0h-100l71 459h-569l-72 -459h-100l160 1010h100l-72 -455h572l69 455h103z" />
    <glyph glyph-name="uni043E" unicode="&#x43e;" horiz-adv-x="1095" 
d="M705 1034q97 0 176.5 -38.5t131.5 -107.5t72.5 -170t1.5 -220q-38 -235 -190 -379t-348 -144q-131 0 -227 65.5t-139.5 188.5t-18.5 281q38 235 191.5 379.5t349.5 144.5zM700 944q-156 0 -281 -125.5t-155 -320.5q-30 -192 53 -312t236 -120q156 0 280 124.5t154 319.5
q30 192 -52 313t-235 121z" />
    <glyph glyph-name="uni043F" unicode="&#x43f;" 
d="M942 0h-100l145 913h-571l-144 -913h-100l160 1010h772z" />
    <glyph glyph-name="uni0440" unicode="&#x440;" horiz-adv-x="1124" 
d="M774 1034q189 0 287.5 -147t60.5 -387q-20 -127 -70.5 -229t-119.5 -165.5t-149.5 -97t-166.5 -33.5q-179 0 -325 134l-80 -494h-100l149 940q19 118 67 210.5t116.5 150.5t152.5 88t178 30zM770 944q-153 0 -266.5 -103.5t-143.5 -293.5l-53 -324q56 -75 136.5 -116
t168.5 -41q69 0 133.5 26.5t121 79t97.5 140t58 200.5q29 194 -41 313t-211 119z" />
    <glyph glyph-name="uni0441" unicode="&#x441;" horiz-adv-x="1024" 
d="M705 1034q142 0 228.5 -68.5t113.5 -174.5l-103 6q-62 147 -239 147q-103 0 -195 -53t-158.5 -155.5t-87.5 -235.5q-30 -198 54 -316t239 -118q92 0 169.5 40t129.5 111l111 -6q-62 -105 -168 -170.5t-246 -65.5q-198 0 -312 150.5t-77 386.5q36 234 188.5 378t352.5 144
z" />
    <glyph glyph-name="uni0442" unicode="&#x442;" horiz-adv-x="1032" 
d="M1081 913h-372l-144 -913h-100l143 913h-370l16 97h844z" />
    <glyph glyph-name="uni0443" unicode="&#x443;" horiz-adv-x="1136" 
d="M1124 1010l-153 -969q-32 -201 -167 -326t-310 -125q-65 0 -119.5 11t-90 26t-68 40t-50 44t-39.5 47l61 72q21 -29 42.5 -50t58 -46.5t90 -39t119.5 -13.5q133 0 240.5 104t133.5 264l17 90q-70 -68 -165.5 -116t-193.5 -48q-181 0 -262 119.5t-47 331.5l92 584h101
l-92 -590q-28 -180 25 -267t194 -87q106 0 199 57.5t163 136.5l121 750h100z" />
    <glyph glyph-name="uni0444" unicode="&#x444;" horiz-adv-x="1640" 
d="M1075 1290l-69 -422q126 166 321 166q172 0 258.5 -146.5t48.5 -387.5q-20 -128 -66.5 -229.5t-109 -164.5t-135 -96t-149.5 -33q-161 0 -287 132l-78 -494h-102l79 489q-161 -127 -317 -127q-165 0 -253.5 140t-49.5 395q38 238 164.5 380t294.5 142q95 0 167 -43
t113 -125l68 424h102zM623 944q-129 0 -228.5 -123t-130.5 -321q-32 -210 36 -319t194 -109q76 0 158 40.5t153 114.5l51 328q30 190 -35.5 289.5t-197.5 99.5zM1323 944q-134 0 -236 -103.5t-133 -293.5l-51 -324q49 -74 116 -112.5t140 -38.5q62 0 121 27.5t110.5 80
t90 138t55.5 194.5q31 194 -28.5 313t-184.5 119z" />
    <glyph glyph-name="uni0445" unicode="&#x445;" horiz-adv-x="931" 
d="M612 524l262 -524h-116l-223 453l-357 -453h-125l430 526l-237 484h119l194 -410l326 410l127 -2z" />
    <glyph glyph-name="uni0446" unicode="&#x446;" horiz-adv-x="1071" 
d="M926 96h96l-57 -352h-97l41 256h-737l160 1010h100l-143 -914h536l144 914h100z" />
    <glyph glyph-name="uni0447" unicode="&#x447;" horiz-adv-x="1103" 
d="M932 0h-101l58 350q-56 -45 -129 -73.5t-147.5 -37t-144 10t-120 60t-73 121t-5.5 185.5l62 394h100l-63 -402q-14 -91 9 -152.5t70 -87.5t110 -30.5t127 13t123 49.5t97 73l86 537h101z" />
    <glyph glyph-name="uni0448" unicode="&#x448;" horiz-adv-x="1468" 
d="M1296 0h-1124l160 1010h100l-143 -914h411l144 914h100l-143 -914h411l144 914h100z" />
    <glyph glyph-name="uni0449" unicode="&#x449;" horiz-adv-x="1458" 
d="M1313 96h96l-57 -352h-97l41 256h-1124l160 1010h100l-143 -914h411l144 914h100l-143 -914h411l144 914h100z" />
    <glyph glyph-name="uni044A" unicode="&#x44a;" horiz-adv-x="923" 
d="M377 643h223q61 0 111 -14t82 -38t55.5 -56t32.5 -68t12.5 -73t-4.5 -72q-27 -164 -129.5 -243t-257.5 -79h-328l145 913h-143l17 97h241zM780 322q9 59 -6.5 108.5t-64.5 83t-125 33.5h-224l-69 -451h223q111 0 181 66.5t85 159.5z" />
    <glyph glyph-name="uni044B" unicode="&#x44b;" horiz-adv-x="1226" 
d="M395 643h223q61 0 111 -14t82 -38t55.5 -56t32.5 -68t12.5 -73t-4.5 -72q-27 -164 -129.5 -243t-257.5 -79h-327l159 1010h101zM1055 0h-103l160 1010h102zM379 547l-70 -451h223q111 0 181.5 66.5t85.5 159.5t-34.5 159t-162.5 66h-223z" />
    <glyph glyph-name="uni044C" unicode="&#x44c;" horiz-adv-x="921" 
d="M375 643h223q61 0 111 -14t82 -38t55.5 -56t32.5 -68t12.5 -73t-4.5 -72q-27 -164 -129.5 -243t-257.5 -79h-328l160 1010h100zM358 547l-69 -451h223q111 0 181 66.5t85 159.5q9 59 -6.5 108.5t-64.5 83t-125 33.5h-224z" />
    <glyph glyph-name="uni044D" unicode="&#x44d;" horiz-adv-x="970" 
d="M600 1034q86 0 155 -28.5t113 -78.5t71.5 -117.5t31 -146t-7.5 -163.5q-16 -104 -58.5 -197t-107 -167t-156 -117.5t-197.5 -43.5q-148 0 -235 70t-90 164l100 -8q12 -60 76 -94.5t156 -34.5q98 0 183 55t139.5 140.5t80.5 189.5h-487l18 96h485q8 107 -17.5 192
t-91.5 139t-165 54q-92 0 -169.5 -38.5t-109.5 -98.5l-104 8q35 95 137.5 160t249.5 65z" />
    <glyph glyph-name="uni044E" unicode="&#x44e;" horiz-adv-x="1413" 
d="M1047 1034q84 0 152.5 -29t111.5 -79t70.5 -118t31 -146.5t-7.5 -163.5q-16 -103 -59 -196t-107 -166.5t-154.5 -117t-193.5 -43.5q-130 0 -219 68.5t-124.5 176t-23.5 237.5h-180l-72 -457h-100l160 1010h100l-72 -457h179q21 99 65 185t107 152.5t150 105t186 38.5z
M1307 510q18 113 -4 209.5t-89.5 158.5t-171.5 62q-107 0 -197 -63.5t-144 -162.5t-72 -216q-17 -111 5 -206.5t89 -158.5t170 -63q80 0 152.5 38t125 100.5t88 140.5t48.5 161z" />
    <glyph glyph-name="uni044F" unicode="&#x44f;" horiz-adv-x="909" 
d="M555 1010h113q113 0 156.5 -63t27.5 -169l-123 -778h-100l65 414l-188 -2q-90 -76 -185.5 -198.5t-148.5 -217.5l-117 8q73 114 168.5 233.5t169.5 186.5q-143 27 -167.5 172t73 279.5t256.5 134.5zM655 913h-108q-101 0 -167 -91q-58 -79 -52 -171q6 -94 80 -127
q32 -14 73 -14h230l43 272q9 65 -13.5 98t-85.5 33z" />
    <glyph glyph-name="uni0451" unicode="&#x451;" horiz-adv-x="1062" 
d="M549 1165q-32 0 -53.5 23.5t-14.5 62.5q6 36 29 55t53 19q32 0 53 -23.5t15 -62.5q-6 -36 -29.5 -55t-52.5 -19zM905 1165q-33 0 -53.5 23.5t-13.5 62.5q6 36 29 55t53 19q31 0 52 -23.5t15 -62.5q-6 -36 -29.5 -55t-52.5 -19zM559 66q93 0 171 40t132 111l109 -6
q-61 -104 -169.5 -170t-248.5 -66q-200 0 -313 149.5t-76 387.5q35 227 180 374.5t336 147.5q179 0 275 -104q78 -86 64 -200q-16 -122 -132 -204q-139 -98 -371 -98q-114 0 -258 27q-13 -174 72.5 -281.5t228.5 -107.5zM676 944q-144 0 -254 -109.5t-150 -289.5
q135 -27 244 -27q232 0 342 105q76 72 63 160q-13 83 -97 128q-62 33 -148 33z" />
    <glyph glyph-name="uni0452" unicode="&#x452;" horiz-adv-x="1146" 
d="M442 1083l-41 -252q50 40 114.5 69t133 41t136 10t124.5 -26.5t98 -66.5t57.5 -113.5t2.5 -162.5l-102 -650q-57 -342 -332 -342l8 91q184 0 223 260l103 649q14 91 -10.5 152.5t-74.5 87.5t-116.5 30.5t-136 -13t-133.5 -49.5t-107 -73l-117 -725h-100l170 1083h-133
l12 86h135l37 234h101l-37 -234h368l-14 -86h-369z" />
    <glyph glyph-name="uni0453" unicode="&#x453;" horiz-adv-x="790" 
d="M453 1112l-21 82l432 182l25 -86zM868 913h-452l-144 -913h-100l160 1010h553z" />
    <glyph glyph-name="uni0454" unicode="&#x454;" horiz-adv-x="968" 
d="M532 72q94 0 171.5 38t109.5 99l105 -8q-35 -93 -140 -159.5t-250 -66.5q-86 0 -155 29.5t-112.5 80t-71.5 119t-31 146.5t8 162q17 105 59.5 198t106.5 166t155 115.5t197 42.5q150 0 236.5 -69t89.5 -164l-101 8q-15 60 -77 94.5t-152 34.5q-147 0 -256.5 -110.5
t-149.5 -274.5h486l-17 -96h-483q-9 -104 16 -189.5t91.5 -140.5t164.5 -55z" />
    <glyph glyph-name="uni0455" unicode="&#x455;" horiz-adv-x="935" 
d="M643 1034q152 0 230.5 -57.5t82.5 -179.5l-104 8q-22 139 -211 139q-119 0 -199.5 -53.5t-95.5 -149.5q-6 -38 8 -67t49 -49.5t70 -33t92 -28.5q149 -40 204 -67q138 -68 129 -200q-1 -14 -3 -28q-23 -139 -135.5 -216t-276.5 -77q-158 0 -248 68t-96 188l101 -8
q20 -157 247 -157q125 0 209 57t99 156q5 33 -6 59.5t-28 43t-53.5 32t-64 24t-76.5 21.5l-10.5 3t-9 2.5t-10.5 2.5q-73 20 -118.5 38t-95 50t-68.5 81.5t-9 115.5q22 141 131 211.5t266 70.5z" />
    <glyph glyph-name="uni0456" unicode="&#x456;" horiz-adv-x="444" 
d="M506 1290q-6 -36 -30.5 -54.5t-53.5 -18.5q-33 0 -55 23.5t-15 62.5q6 36 30 54.5t54 18.5q32 0 54 -23.5t16 -62.5zM272 0h-100l160 1010h100z" />
    <glyph glyph-name="uni0457" unicode="&#x457;" horiz-adv-x="444" 
d="M250 1325q31 0 52 -23.5t15 -62.5q-6 -36 -29 -55t-52 -19q-32 0 -53.5 23.5t-14.5 62.5q6 36 29 55t53 19zM606 1325q32 0 53 -23.5t15 -62.5q-6 -36 -29.5 -55t-52.5 -19q-33 0 -54 23.5t-14 62.5q6 36 29 55t53 19zM272 0h-100l160 1010h100z" />
    <glyph glyph-name="uni0458" unicode="&#x458;" horiz-adv-x="454" 
d="M528 1290q-6 -36 -30.5 -54.5t-53.5 -18.5q-33 0 -54.5 23.5t-14.5 62.5q6 36 30 54.5t54 18.5q32 0 53.5 -23.5t15.5 -62.5zM436 1010l-170 -1078q-57 -342 -332 -342l9 91q184 0 223 260l170 1069h100z" />
    <glyph glyph-name="uni0459" unicode="&#x459;" horiz-adv-x="1449" 
d="M903 643h223q61 0 111 -14t82 -38t55.5 -56t32.5 -68t12.5 -73t-4.5 -72q-27 -164 -129.5 -243t-257.5 -79h-328l144 913h-430l-95 -608q-12 -74 -31 -126.5t-51 -96t-82.5 -65t-119.5 -21.5l8 96q81 0 120.5 53.5t55.5 159.5l111 705h631zM887 547l-70 -451h223
q110 0 181 67t86 159q15 93 -34.5 159t-162.5 66h-223z" />
    <glyph glyph-name="uni045A" unicode="&#x45a;" horiz-adv-x="1593" 
d="M1047 643h223q61 0 111 -14t82 -38t55.5 -56t32.5 -68t12.5 -73t-4.5 -72q-27 -164 -130.5 -243t-257.5 -79h-329l71 459h-569l-72 -459h-100l160 1010h100l-72 -455h572l69 455h103zM1028 547l-70 -451h224q111 0 181 66.5t85 159.5t-34.5 159t-160.5 66h-225z" />
    <glyph glyph-name="uni045B" unicode="&#x45b;" horiz-adv-x="1146" 
d="M442 1083l-41 -252q50 40 114.5 69t133 41t136 10t124.5 -26.5t98 -66.5t57.5 -113.5t2.5 -162.5l-92 -582h-101l93 590q14 91 -10.5 152.5t-74.5 87.5t-116.5 30.5t-136 -13t-133.5 -49.5t-107 -73l-117 -725h-100l170 1083h-133l12 86h135l37 234h101l-37 -234h368
l-14 -86h-369z" />
    <glyph glyph-name="uni045C" unicode="&#x45c;" horiz-adv-x="909" 
d="M453 1112l-21 82l432 182l25 -86zM934 1010l-371 -445q56 -7 99 -50.5t70 -112.5t45 -137t37.5 -147.5t35.5 -119.5l-115 4q-11 33 -26 102.5t-29.5 126.5t-36.5 116t-57.5 92.5t-81.5 33.5h-156l-76 -473h-100l160 1010h100l-70 -441h101l348 441h123z" />
    <glyph glyph-name="uni045E" unicode="&#x45e;" horiz-adv-x="1136" 
d="M934 1384l88 -8q-29 -117 -106 -183.5t-181 -66.5q-107 0 -166 69.5t-51 188.5l88 -8q-8 -168 131 -168q79 0 128 51t69 125zM1124 1010l-153 -969q-32 -201 -167 -326t-310 -125q-65 0 -119.5 11t-90 26t-68 40t-50 44t-39.5 47l61 72q21 -29 42.5 -50t58 -46.5t90 -39
t119.5 -13.5q133 0 240.5 104t133.5 264l17 90q-70 -68 -165.5 -116t-193.5 -48q-181 0 -262 119.5t-47 331.5l92 584h101l-92 -590q-28 -180 25 -267t194 -87q106 0 199 57.5t163 136.5l121 750h100z" />
    <glyph glyph-name="uni045F" unicode="&#x45f;" horiz-adv-x="1081" 
d="M909 0h-319l-41 -256h-98l43 256h-322l160 1010h100l-143 -914h536l144 914h100z" />
    <glyph glyph-name="uni0462" unicode="&#x462;" horiz-adv-x="1048" 
d="M385 711h268q66 0 122 -12t94.5 -32.5t69.5 -48.5t47.5 -60t27.5 -67t10.5 -69.5t-4.5 -67.5q-20 -124 -88.5 -205t-165 -115t-221.5 -34h-383l160 1010h-201l18 96h199l29 184h110l-28 -184h307l-17 -96h-307zM911 358q18 111 -55.5 182.5t-220.5 71.5h-266l-80 -516
h268q159 0 246.5 69.5t107.5 192.5z" />
    <glyph glyph-name="uni0463" unicode="&#x463;" horiz-adv-x="921" 
d="M375 643h223q61 0 111 -14t82 -38t55.5 -56t32.5 -68t12.5 -73t-4.5 -72q-27 -164 -129.5 -243t-257.5 -79h-328l145 924h-135l15 86h135l61 393h101l-62 -393h369l-17 -86h-366zM778 322q9 59 -6.5 108.5t-64.5 83t-125 33.5h-224l-69 -451h223q111 0 181 66.5t85 159.5
z" />
    <glyph glyph-name="uni0472" unicode="&#x472;" horiz-adv-x="1355" 
d="M899 1315q95 0 175 -26t135.5 -72t97 -109.5t60 -139t24 -160t-10.5 -171.5q-20 -128 -75.5 -245.5t-140 -211t-206 -149.5t-260.5 -56q-95 0 -174.5 26.5t-135 73t-97.5 110.5t-60.5 139.5t-24 159t10.5 169.5q17 104 55 200.5t98.5 181t137.5 146.5t178 98t213 36z
M895 1219q-109 0 -205 -42.5t-166 -115.5t-118.5 -166.5t-71.5 -200.5q60 32 131 39.5t138.5 -4t139.5 -30t142.5 -33.5t137.5 -19t134.5 17t124.5 71q4 79 -7.5 149.5t-41 132t-75 106.5t-113 70.5t-150.5 25.5zM705 72q112 0 210.5 47t168.5 126.5t118 177.5t68 206
q-60 -46 -129.5 -64.5t-137 -13t-137.5 21t-141 32.5t-138.5 26.5t-138.5 -1t-133 -46.5q-9 -101 10.5 -191.5t65 -163t126.5 -115t188 -42.5z" />
    <glyph glyph-name="uni0473" unicode="&#x473;" horiz-adv-x="1114" 
d="M735 1034q130 0 225.5 -65.5t139 -189t18.5 -281.5q-38 -235 -190 -379t-348 -144q-131 0 -227 65.5t-139.5 188.5t-18.5 281q38 235 191 379.5t349 144.5zM731 944q-145 0 -265 -110.5t-161 -288.5q53 27 109 32t105 -6.5t100 -29.5t100.5 -32.5t98.5 -19t103 13.5
t105 62q10 170 -72 274.5t-223 104.5zM584 66q146 0 265.5 110.5t160.5 288.5q-55 -40 -110.5 -55.5t-104.5 -9.5t-98 20.5t-98 31.5t-97.5 26.5t-103.5 2t-109 -38.5q-12 -170 71 -273t224 -103z" />
    <glyph glyph-name="uni0474" unicode="&#x474;" horiz-adv-x="1259" 
d="M1438 1313l-11 -101q-66 0 -98 -27t-90 -134l-555 -1051h-106l-277 1290h117l239 -1147l465 899q49 94 82 145.5t70.5 81t71.5 37t92 7.5z" />
    <glyph glyph-name="uni0475" unicode="&#x475;" horiz-adv-x="1003" 
d="M1124 1028l-10 -100q-52 0 -78.5 -22.5t-68.5 -104.5l-424 -801h-105l-219 1010h103l188 -895l360 702q69 134 115 172.5t139 38.5z" />
    <glyph glyph-name="uni0490" unicode="&#x490;" horiz-adv-x="903" 
d="M1014 1290h20l-18 -100h-537l-186 -1190h-111l205 1290h520l37 234h107z" />
    <glyph glyph-name="uni0491" unicode="&#x491;" horiz-adv-x="790" 
d="M885 1010h20l-16 -97h-453l-143 -913h-100l159 1010h426l37 237h107z" />
    <glyph glyph-name="uni0492" unicode="&#x492;" horiz-adv-x="903" 
d="M459 1190l-74 -465h354l-18 -100h-350l-99 -625h-110l98 625h-176l18 100h174l91 565h647l-19 -100h-536z" />
    <glyph glyph-name="uni0493" unicode="&#x493;" horiz-adv-x="790" 
d="M416 913l-60 -374h291l-16 -86h-287l-72 -453h-100l72 453h-127l16 86h125l74 471h553l-17 -97h-452z" />
    <glyph glyph-name="uni0496" unicode="&#x496;" horiz-adv-x="1400" 
d="M1544 1290l-457 -571q63 -7 106 -49.5t65.5 -117t34 -144t23.5 -168.5t23 -152h56l-56 -344h-100l41 258h-27q-15 48 -24.5 136t-17.5 166t-24.5 153.5t-55 120.5t-99.5 45h-158l-96 -623h-110l96 623h-150q-61 0 -114 -45.5t-93.5 -121.5t-73 -154.5t-70 -167
t-68.5 -136.5l-119 4q39 56 84.5 154.5t84.5 186.5t86.5 173.5t111 140t137.5 62.5l-267 571h117l266 -569h86l90 569h111l-90 -569h82l446 569h123z" />
    <glyph glyph-name="uni0497" unicode="&#x497;" horiz-adv-x="1243" 
d="M1333 1010l-354 -453q32 -4 58.5 -21.5t45 -48t32.5 -63.5t25 -80.5t18 -84.5t16.5 -89t15.5 -82h53l-55 -344h-98l40 258l-20 2q-10 38 -20 108.5t-19 127t-25 113t-46.5 88.5t-75.5 32h-156l-76 -473h-100l74 473h-148q-38 0 -74 -25t-64 -62.5t-57 -91.5t-50.5 -102.5
t-48.5 -105t-46 -90.5l-112 6q34 48 85 152t91 182.5t102.5 145.5t130.5 75l-201 453h115l199 -445h94l70 445h100l-70 -445h90l338 445h123z" />
    <glyph glyph-name="uni049A" unicode="&#x49a;" horiz-adv-x="1024" 
d="M975 88l-14 -90l-41 -254h-101l41 258h-8q-20 44 -34.5 129t-26.5 164.5t-32 156.5t-63 124t-108 47h-197l-98 -623h-111l205 1290h111l-90 -569h133l424 569h122l-440 -571q49 -5 87 -29.5t63 -66t43 -89.5t30 -109.5t20.5 -114.5t19 -117t20.5 -105h45z" />
    <glyph glyph-name="uni049B" unicode="&#x49b;" horiz-adv-x="907" 
d="M954 1010l-370 -445q31 -3 58 -19t46.5 -36.5t38.5 -55.5t31 -64t26 -75.5t21.5 -76t19 -79t17.5 -71.5h51l-57 -344h-99l43 258h-24q-11 32 -26 102t-29.5 127t-37 116t-58 92.5t-81.5 33.5h-155l-76 -473h-100l159 1010h101l-70 -441h100l348 441h123z" />
    <glyph glyph-name="uni04A2" unicode="&#x4a2;" horiz-adv-x="1392" 
d="M1188 88h57l-55 -344h-100l40 256h-67l92 596h-768l-94 -596h-111l205 1290h111l-95 -594h771l94 594h110z" />
    <glyph glyph-name="uni04A3" unicode="&#x4a3;" horiz-adv-x="1114" 
d="M977 88h47l-55 -344h-99l41 256h-49l72 459h-569l-72 -459h-100l159 1010h101l-72 -455h571l70 455h102z" />
    <glyph glyph-name="uni04AE" unicode="&#x4ae;" horiz-adv-x="1200" 
d="M739 535l-86 -535h-110l86 535l-348 755h122l299 -653l502 653h129z" />
    <glyph glyph-name="uni04AF" unicode="&#x4af;" horiz-adv-x="911" 
d="M573 436l-71 -436h-101l72 436l-272 574h114l224 -484l372 484h123z" />
    <glyph glyph-name="uni04B0" unicode="&#x4b0;" horiz-adv-x="1202" 
d="M739 408h238l-19 -101h-235l-49 -307h-111l49 307h-278l18 101h277l20 127l-348 755h123l299 -653l502 653h129l-594 -755z" />
    <glyph glyph-name="uni04B1" unicode="&#x4b1;" horiz-adv-x="909" 
d="M578 332h186l-14 -86h-187l-41 -246h-100l41 246h-227l14 86h227l17 104l-273 574h115l223 -484l373 484h123l-461 -574z" />
    <glyph glyph-name="uni04B2" unicode="&#x4b2;" horiz-adv-x="1165" 
d="M1042 88h64l-57 -344h-101l43 256h-33l-274 582l-453 -582h-137l533 662l-295 628h121l254 -547l434 547h125l-502 -628z" />
    <glyph glyph-name="uni04B3" unicode="&#x4b3;" horiz-adv-x="933" 
d="M852 88h57l-55 -344h-98l41 256h-19l-223 453l-356 -453h-125l430 526l-238 484h119l195 -410l325 410l127 -2l-399 -484z" />
    <glyph glyph-name="uni04B6" unicode="&#x4b6;" horiz-adv-x="1138" 
d="M971 88h37l-56 -344h-100l41 256h-47l76 477q-57 -45 -132.5 -74.5t-154 -40t-152.5 7t-128 58.5t-79 121.5t-8 189.5l88 551h111l-88 -559q-14 -91 9 -152.5t71 -87.5t112 -30.5t131.5 13t130 49.5t105.5 73l113 694h110z" />
    <glyph glyph-name="uni04B7" unicode="&#x4b7;" horiz-adv-x="1103" 
d="M967 88h49l-58 -344h-98l43 256h-51l57 350q-48 -39 -109 -66t-124.5 -38.5t-127 -6.5t-115.5 29.5t-90.5 69.5t-52 114.5t0.5 163.5l61 394h101l-64 -402q-14 -91 9 -152.5t70.5 -87.5t110 -30.5t127 13t123.5 49.5t97 73l86 537h100z" />
    <glyph glyph-name="uni04BA" unicode="&#x4ba;" horiz-adv-x="1157" 
d="M487 1290l-81 -497q70 48 162.5 76t183.5 28q59 0 110 -12.5t96 -40.5t72.5 -72t39.5 -106.5t-3 -145.5l-82 -520h-111l82 528q12 73 -0.5 126.5t-46 83.5t-77 43.5t-99.5 13.5q-88 0 -185 -33t-157 -78l-108 -684h-111l205 1290h110z" />
    <glyph glyph-name="uni04BB" unicode="&#x4bb;" horiz-adv-x="1146" 
d="M477 1290l-78 -479q58 47 135 77t157 40.5t154.5 -6.5t129 -57.5t80 -119t8.5 -184.5l-88 -561h-101l89 569q12 78 -4.5 135t-54 85.5t-89 41t-111 5t-118 -25.5t-111.5 -47.5t-90 -64.5l-113 -698h-100l205 1290h100z" />
    <glyph glyph-name="uni04C0" unicode="&#x4c0;" horiz-adv-x="434" 
d="M272 0h-110l205 1290h110z" />
    <glyph glyph-name="uni04CF" unicode="&#x4cf;" horiz-adv-x="444" 
d="M272 0h-100l160 1010h100z" />
    <glyph glyph-name="uni04D8" unicode="&#x4d8;" horiz-adv-x="1218" 
d="M762 1315q95 0 174 -26t132.5 -71.5t93 -109t56.5 -138t21 -158.5t-12 -171q-16 -104 -50 -200t-88.5 -181.5t-124 -148t-163.5 -99.5t-201 -37q-227 0 -345.5 143.5t-80.5 385.5l14 88h920l10 59q12 90 11 173t-26.5 155t-68 125.5t-113.5 84t-163 30.5
q-131 0 -214 -50.5t-138 -140.5l-109 6q30 72 91 134t160 104.5t214 42.5zM606 72q89 0 167 34t136.5 94t101.5 135t72 165l-809 -4q-16 -108 4 -191t68.5 -133t114.5 -75t145 -25z" />
    <glyph glyph-name="uni04D9" unicode="&#x4d9;" horiz-adv-x="976" 
d="M606 1034q87 0 156.5 -28.5t113.5 -78.5t71.5 -117.5t31 -146t-7.5 -163.5q-17 -104 -57.5 -197t-103 -167t-152.5 -117.5t-195 -43.5q-167 0 -255.5 118t-53.5 341l12 78h704q18 115 -3.5 210t-89.5 155.5t-173 60.5q-91 0 -168.5 -38t-111.5 -99l-103 8
q33 94 135.5 159.5t249.5 65.5zM467 72q139 0 239 99t144 249l-602 -4q-23 -158 35 -251t184 -93z" />
    <glyph glyph-name="uni04E2" unicode="&#x4e2;" horiz-adv-x="1300" 
d="M1120 1438h-485l14 82h488zM1139 0h-111l176 1118l-950 -1118h-92l205 1290h110l-174 -1106l948 1106h92z" />
    <glyph glyph-name="uni04E3" unicode="&#x4e3;" horiz-adv-x="1101" 
d="M969 1157h-486l15 82h487zM913 0h-100l133 846l-692 -846h-82l160 1010h100l-133 -846l688 846h86z" />
    <glyph glyph-name="uni04E8" unicode="&#x4e8;" horiz-adv-x="1353" 
d="M899 1315q95 0 175 -26t135.5 -72t97 -109.5t60 -139t24 -160t-10.5 -171.5q-20 -128 -75.5 -245.5t-140 -211t-206 -149.5t-260.5 -56q-95 0 -174.5 26.5t-135 73t-97.5 110.5t-60.5 139.5t-24 159t10.5 169.5q17 104 55 200.5t98.5 181t137.5 146.5t178 98t213 36z
M895 1219q-109 0 -204 -41.5t-164.5 -113.5t-118 -164t-72.5 -198h944q10 104 -8 195t-63 164t-125.5 115.5t-188.5 42.5zM705 72q109 0 205.5 45t166.5 120.5t118 170t71 198.5h-949q-12 -104 6 -198.5t63 -170t127.5 -120.5t191.5 -45z" />
    <glyph glyph-name="uni04E9" unicode="&#x4e9;" horiz-adv-x="1095" 
d="M725 1034q130 0 225.5 -65.5t139 -189t18.5 -281.5q-38 -235 -190.5 -379t-348.5 -144q-131 0 -227 65.5t-139.5 188.5t-18.5 281q38 235 191.5 379.5t349.5 144.5zM721 944q-144 0 -264 -109t-162 -284h717q17 177 -65 285t-226 108zM573 66q146 0 265.5 110.5
t158.5 288.5h-718q-19 -179 64 -289t230 -110z" />
    <glyph glyph-name="uni04EE" unicode="&#x4ee;" horiz-adv-x="1007" 
d="M983 1438h-485l14 82h487zM1141 1290l-535 -985q-85 -154 -200.5 -234.5t-272.5 -95.5l-4 101q106 6 209.5 76.5t165.5 189.5l20 37l-225 911h117l186 -770l426 770h113z" />
    <glyph glyph-name="uni04EF" unicode="&#x4ef;" horiz-adv-x="1136" 
d="M975 1157h-486l15 82h487zM1124 1010l-153 -969q-32 -201 -167 -326t-310 -125q-65 0 -119.5 11t-90 26t-68 40t-50 44t-39.5 47l61 72q21 -29 42.5 -50t58 -46.5t90 -39t119.5 -13.5q133 0 240.5 104t133.5 264l17 90q-70 -68 -165.5 -116t-193.5 -48q-181 0 -262 119.5
t-47 331.5l92 584h101l-92 -590q-28 -180 25 -267t194 -87q106 0 199 57.5t163 136.5l121 750h100z" />
    <glyph glyph-name="Wgrave" unicode="&#x1e80;" horiz-adv-x="1851" 
d="M971 1657l379 -182l-43 -82l-383 178zM1382 0h-102l-174 1141l-535 -1141h-104l-178 1290h117l145 -1143l528 1143h105l176 -1143l495 1143h117z" />
    <glyph glyph-name="wgrave" unicode="&#x1e81;" horiz-adv-x="1419" 
d="M709 1376l378 -182l-43 -82l-382 178zM1030 0h-104l-80 877l-352 -877h-105l-153 1010l106 -2l125 -875l350 877h103l84 -877l393 877h106z" />
    <glyph glyph-name="Wacute" unicode="&#x1e82;" horiz-adv-x="1851" 
d="M961 1393l-21 82l432 182l25 -86zM1382 0h-102l-174 1141l-535 -1141h-104l-178 1290h117l145 -1143l528 1143h105l176 -1143l495 1143h117z" />
    <glyph glyph-name="wacute" unicode="&#x1e83;" horiz-adv-x="1419" 
d="M698 1112l-20 82l432 182l25 -86zM1030 0h-104l-80 877l-352 -877h-105l-153 1010l106 -2l125 -875l350 877h103l84 -877l393 877h106z" />
    <glyph glyph-name="Wdieresis" unicode="&#x1e84;" horiz-adv-x="1851" 
d="M997 1606q32 0 53 -23.5t15 -62.5q-6 -36 -29.5 -55t-52.5 -19q-32 0 -53.5 23.5t-14.5 62.5q6 36 29 55t53 19zM1354 1606q31 0 52 -23.5t15 -62.5q-6 -36 -29.5 -55t-52.5 -19q-33 0 -53.5 23.5t-13.5 62.5q6 36 29 55t53 19zM1382 0h-102l-174 1141l-535 -1141h-104
l-178 1290h117l145 -1143l528 1143h105l176 -1143l495 1143h117z" />
    <glyph glyph-name="wdieresis" unicode="&#x1e85;" horiz-adv-x="1419" 
d="M735 1325q32 0 53 -23.5t15 -62.5q-6 -36 -29.5 -55t-52.5 -19q-32 0 -53.5 23.5t-14.5 62.5q6 36 29 55t53 19zM1092 1325q31 0 52 -23.5t15 -62.5q-6 -36 -29.5 -55t-52.5 -19q-33 0 -53.5 23.5t-13.5 62.5q6 36 29 55t53 19zM1030 0h-104l-80 877l-352 -877h-105
l-153 1010l106 -2l125 -875l350 877h103l84 -877l393 877h106z" />
    <glyph glyph-name="Ygrave" unicode="&#x1ef2;" horiz-adv-x="1200" 
d="M647 1657l379 -182l-43 -82l-383 178zM739 535l-86 -535h-110l86 535l-348 755h122l299 -653l502 653h129z" />
    <glyph glyph-name="ygrave" unicode="&#x1ef3;" horiz-adv-x="1136" 
d="M551 1376l379 -182l-43 -82l-383 178zM1124 1010l-153 -969q-32 -201 -167 -326t-310 -125q-65 0 -119.5 11t-90 26t-68 40t-50 44t-39.5 47l61 72q21 -29 42.5 -50t58 -46.5t90 -39t119.5 -13.5q133 0 240.5 104t133.5 264l17 90q-70 -68 -165.5 -116t-193.5 -48
q-181 0 -262 119.5t-47 331.5l92 584h101l-92 -590q-28 -180 25 -267t194 -87q106 0 199 57.5t163 136.5l121 750h100z" />
    <glyph glyph-name="endash" unicode="&#x2013;" horiz-adv-x="1095" 
d="M1077 600h-872l16 90h871z" />
    <glyph glyph-name="emdash" unicode="&#x2014;" horiz-adv-x="1357" 
d="M1337 600h-1132l16 90h1133z" />
    <glyph glyph-name="quoteleft" unicode="&#x2018;" horiz-adv-x="323" 
d="M344 1290l-160 -426h90l158 426h-88z" />
    <glyph glyph-name="quoteright" unicode="&#x2019;" horiz-adv-x="313" 
d="M301 864l160 426h-90l-158 -426h88z" />
    <glyph glyph-name="quotesinglbase" unicode="&#x201a;" horiz-adv-x="323" 
d="M141 -268l160 426h-90l-158 -426h88z" />
    <glyph glyph-name="quotedblleft" unicode="&#x201c;" horiz-adv-x="550" 
d="M358 1290l-159 -426h90l157 426h-88zM551 1290l-160 -426h90l158 426h-88z" />
    <glyph glyph-name="quotedblright" unicode="&#x201d;" horiz-adv-x="503" 
d="M322 864l159 426h-90l-158 -426h89zM514 864l160 426h-90l-158 -426h88z" />
    <glyph glyph-name="quotedblbase" unicode="&#x201e;" horiz-adv-x="503" 
d="M162 -268l160 426h-91l-157 -426h88zM354 -268l160 426h-90l-158 -426h88z" />
    <glyph glyph-name="dagger" unicode="&#x2020;" horiz-adv-x="659" 
d="M535 1315q21 0 34.5 -16t10.5 -37q-2 -10 -21 -60t-29 -102q39 2 72.5 9t52.5 13t25 6q16 0 28.5 -15t8.5 -40q-3 -21 -15.5 -32t-23.5 -11q-6 0 -51.5 11.5t-98.5 9.5q-18 -93 -19 -132.5t11 -60.5q-32 -40 -49 -149l-29 -174h-53l29 182q10 77 9 102t-11 51
q31 52 59 189q-51 -2 -98 -15.5t-55 -13.5q-14 0 -27.5 15.5t-9.5 39.5q3 22 15.5 32.5t23.5 10.5q2 0 49 -11t104 -9q9 52 7.5 103t0.5 63q1 17 16 29t34 12z" />
    <glyph glyph-name="daggerdbl" unicode="&#x2021;" horiz-adv-x="661" 
d="M535 1315q21 0 34.5 -16t10.5 -37q-2 -10 -21 -60t-29 -102q39 2 72.5 9t52.5 13t25 6q16 0 29.5 -15t9.5 -40q-3 -21 -16 -32t-25 -11q-6 0 -52 11.5t-100 9.5q-12 -83 2 -131q-30 -43 -49 -144q39 2 72.5 9t52.5 13.5t25 6.5q16 0 29.5 -15t9.5 -40q-3 -21 -16 -31
t-25 -10q-6 0 -51.5 11t-98.5 9q-9 -52 -7.5 -103t-0.5 -63q-3 -18 -17 -29.5t-32 -11.5q-22 0 -35.5 16t-9.5 37q2 13 20.5 62.5t28.5 99.5q-51 -2 -98.5 -15t-53.5 -13q-16 0 -29.5 14.5t-9.5 38.5q3 22 16 32.5t25 10.5l47 -11q47 -12 105 -10q11 74 10.5 98t-10.5 50
q33 55 49 127q-51 -2 -98 -15.5t-53 -13.5q-16 0 -29.5 15.5t-9.5 39.5q3 22 16 32.5t25 10.5l46 -11q47 -11 105 -9q9 52 7.5 103t0.5 63q1 17 16 29t34 12z" />
    <glyph glyph-name="bullet" unicode="&#x2022;" horiz-adv-x="526" 
d="M383 774q66 0 103.5 -47t25.5 -121q-12 -71 -59.5 -113t-110.5 -42q-69 0 -107 46.5t-26 120.5q12 71 60.5 113.5t113.5 42.5z" />
    <glyph glyph-name="ellipsis" unicode="&#x2026;" horiz-adv-x="876" 
d="M190 135q32 0 54 -23.5t16 -62.5q-6 -36 -30.5 -55t-53.5 -19q-33 0 -55 23.5t-15 62.5q6 36 30 55t54 19zM477 135q32 0 54 -23.5t16 -62.5q-6 -36 -30.5 -55t-53.5 -19q-33 0 -55 23.5t-15 62.5q6 36 30 55t54 19zM762 135q32 0 53.5 -23.5t15.5 -62.5q-6 -36 -30 -55
t-53 -19q-33 0 -55 23.5t-15 62.5q6 36 30 55t54 19z" />
    <glyph glyph-name="perthousand" unicode="&#x2030;" horiz-adv-x="2168" 
d="M442 -80l-88 19l932 1536l84 -19zM532 1305q66 0 113 -31.5t68.5 -83.5t29 -119t-5.5 -137q-15 -94 -52.5 -171t-104 -129t-150.5 -52q-65 0 -112.5 31t-70 82t-30.5 117t6 136q24 150 104.5 253.5t204.5 103.5zM528 1214q-86 0 -141 -79t-74 -201q-8 -71 -4 -129.5
t35.5 -96.5t87.5 -38q86 0 141 79.5t74 196.5q10 73 6.5 133t-35.5 97.5t-90 37.5zM1280 711q66 0 113 -31.5t68.5 -83.5t29 -119t-5.5 -137q-15 -94 -52.5 -171t-104 -129t-150.5 -52q-65 0 -112.5 31t-70 82t-30.5 117t6 136q24 150 104.5 253.5t204.5 103.5zM1944 711
q66 0 113 -31.5t68.5 -83.5t28.5 -119t-6 -137q-15 -94 -52.5 -171t-104 -129t-150.5 -52q-65 0 -112.5 31t-70 82t-30.5 117t6 136q24 150 105 253.5t205 103.5zM1276 621q-86 0 -141 -79.5t-74 -201.5q-8 -71 -4 -129.5t35.5 -96.5t87.5 -38q86 0 141 79.5t74 196.5
q10 74 6.5 133.5t-35.5 97.5t-90 38zM1939 621q-86 0 -141 -79.5t-74 -201.5q-8 -71 -4 -129.5t35.5 -96.5t87.5 -38q86 0 141 79.5t74 196.5q10 74 6.5 133.5t-35.5 97.5t-90 38z" />
    <glyph glyph-name="guilsinglleft" unicode="&#x2039;" horiz-adv-x="534" 
d="M571 940l-305 -352l193 -352l-76 -50l-213 394v16l336 391z" />
    <glyph glyph-name="guilsinglright" unicode="&#x203a;" horiz-adv-x="532" 
d="M-59 233l305 353l-193 352l76 49l213 -393v-16l-336 -392z" />
    <glyph glyph-name="fraction" unicode="&#x2044;" horiz-adv-x="301" 
d="M-160 -80l-88 19l932 1536l84 -19z" />
    <glyph glyph-name="Euro" unicode="&#x20ac;" horiz-adv-x="1095" 
d="M928 1217q-174 0 -302.5 -102t-199.5 -267h543l-33 -92h-543q-16 -49 -26 -115q-6 -39 -9 -74h531l-27 -90h-504q4 -84 27.5 -154t67 -125.5t115 -86.5t163.5 -31q63 0 125 15t92.5 29t81.5 40l-16 -111q-46 -29 -127 -52.5t-162 -23.5q-118 0 -210 39.5t-148.5 109.5
t-86.5 158.5t-34 192.5h-146l29 90h117q2 23 10 84q10 61 23 105h-107l31 92h106q39 98 97 180.5t135 147t177.5 101t213.5 36.5q21 0 41 -1t40 -4.5t35.5 -5.5t35 -7.5t29.5 -8t29 -9t24 -8.5t24 -9l18 -7l-51 -98q-94 62 -229 62z" />
    <glyph glyph-name="trademark" unicode="&#x2122;" horiz-adv-x="968" 
d="M598 1217h-129l-55 -349h-74l55 349h-129l13 73h331zM1030 868h-74l50 297l-154 -207h-45l-86 207l-49 -297h-74l68 422h82l96 -227l170 227h84z" />
    <glyph glyph-name="product" unicode="&#x220f;" horiz-adv-x="1015" 
d="M899 0h-113l185 1178h-555l-185 -1178h-114l205 1290h782z" />
    <glyph glyph-name="summation" unicode="&#x2211;" horiz-adv-x="935" 
d="M997 1180h-546l301 -533l-467 -536h567l-18 -111h-732l13 82l499 567l-319 559l12 82h709z" />
    <glyph glyph-name="minus" unicode="&#x2212;" horiz-adv-x="1003" 
d="M977 573h-772l18 101h772z" />
    <glyph glyph-name="radical" unicode="&#x221a;" horiz-adv-x="1032" 
d="M582 0h-127l-131 805h-123l18 104h207l115 -764l526 1145h113z" />
    <glyph glyph-name="infinity" unicode="&#x221e;" horiz-adv-x="1089" 
d="M907 842q99 0 151 -61.5t34 -170.5q-17 -106 -84 -163.5t-162 -57.5q-118 0 -213 146q-140 -146 -256 -146q-98 0 -149.5 62t-34.5 172q17 106 82.5 162.5t160.5 56.5q122 0 217 -146q137 146 254 146zM434 743q-53 0 -91 -33t-48 -100q-19 -123 88 -123q44 0 90 31.5
t117 102.5q-47 64 -81.5 93t-74.5 29zM899 743q-41 0 -85.5 -30.5t-119.5 -100.5q46 -66 80.5 -95.5t75.5 -29.5q53 0 91 34t48 102q19 120 -90 120z" />
    <glyph glyph-name="integral" unicode="&#x222b;" horiz-adv-x="555" 
d="M625 1313q90 0 159 -66l-51 -69q-36 25 -58 35t-54 10q-61 0 -102 -49t-56 -144l-176 -1124q-49 -275 -264 -275q-89 0 -158 66l53 70q34 -25 56.5 -35.5t54.5 -10.5q61 0 101.5 49t55.5 144l176 1124q45 275 263 275z" />
    <glyph glyph-name="approxequal" unicode="&#x2248;" horiz-adv-x="1017" 
d="M469 932q47 0 100 -22.5t93.5 -49.5t89 -49.5t86.5 -22.5q79 0 137 125l84 -41q-90 -184 -230 -184q-50 0 -102.5 22.5t-90 49t-85 49t-88.5 22.5q-93 0 -164 -131l-86 41q105 191 256 191zM408 559q47 0 100.5 -22.5t93.5 -49t89 -49t87 -22.5q79 0 135 123l88 -39
q-91 -187 -231 -187q-50 0 -103 23t-90 50t-85 50t-89 23q-94 0 -165 -131l-82 41q101 190 252 190z" />
    <glyph glyph-name="notequal" unicode="&#x2260;" horiz-adv-x="1087" 
d="M739 778l-174 -309h406l-17 -100h-446l-207 -369h-104l206 369h-221l17 100h262l174 309h-389l18 101h426l193 342h106l-192 -342h239l-16 -101h-281z" />
    <glyph glyph-name="lessequal" unicode="&#x2264;" horiz-adv-x="1085" 
d="M809 924l-586 -297l676 -299l21 -109l-832 375l-6 33l-6 30l712 377zM936 100l18 -100h-772l-18 100h772z" />
    <glyph glyph-name="greaterequal" unicode="&#x2265;" horiz-adv-x="1085" 
d="M1001 657l-6 -30l-6 -33l-831 -375l20 109l676 299l-586 297l21 110zM895 0h-772l18 100h772z" />
    <glyph glyph-name="lozenge" unicode="&#x25ca;" horiz-adv-x="1040" 
d="M1059 647l-484 -647h-104l-285 647l486 643h104zM305 647l234 -538l403 538l-233 535z" />
    <glyph glyph-name="i.loclTRK" horiz-adv-x="444" 
d="M506 1290q-6 -36 -30.5 -54.5t-53.5 -18.5q-33 0 -55 23.5t-15 62.5q6 36 30 54.5t54 18.5q32 0 54 -23.5t16 -62.5zM272 0h-100l160 1010h100z" />
    <glyph glyph-name="zero.dnom" horiz-adv-x="663" 
d="M438 711q66 0 113 -31.5t68.5 -83.5t29 -119t-5.5 -137q-15 -94 -52.5 -171t-104 -129t-150.5 -52q-65 0 -112.5 31t-70 82t-30.5 117t6 136q24 150 104.5 253.5t204.5 103.5zM434 621q-86 0 -141 -79.5t-74 -201.5q-8 -71 -4 -129.5t35.5 -96.5t87.5 -38q86 0 141 79.5
t74 196.5q10 74 6.5 133.5t-35.5 97.5t-90 38z" />
    <glyph glyph-name="one.dnom" horiz-adv-x="319" 
d="M225 0h-92l96 610h-90l17 86h180z" />
    <glyph glyph-name="two.dnom" horiz-adv-x="618" 
d="M410 711q102 0 158.5 -59.5t41.5 -155.5q-9 -55 -35 -96t-61.5 -64.5t-77 -41.5t-82.5 -33.5t-75.5 -34t-59 -48.5t-31.5 -72l-2 -16h351l-15 -90h-444l14 92q10 64 37.5 111.5t64 74.5t78 46.5t82 35t75 33t59 47t30.5 70.5q8 54 -20.5 86.5t-87.5 32.5q-64 0 -108 -28
t-50 -71l-88 9q11 71 78.5 121.5t167.5 50.5z" />
    <glyph glyph-name="three.dnom" horiz-adv-x="612" 
d="M397 711q110 0 168 -56.5t43 -150.5q-7 -50 -41 -88.5t-84 -57.5q47 -14 74 -59.5t18 -105.5q-15 -94 -91.5 -149.5t-182.5 -55.5q-114 0 -177 52.5t-50 141.5l86 -8q-9 -57 29.5 -81.5t113.5 -24.5t123.5 38.5t56.5 96.5q6 48 -28 80t-109 32h-94l12 78h84
q71 0 117.5 36t54.5 89q8 48 -21 79.5t-100 31.5q-61 0 -107 -29.5t-52 -71.5l-88 9q12 75 80 124.5t165 49.5z" />
    <glyph glyph-name="four.dnom" horiz-adv-x="632" 
d="M209 231h233l33 218h92l-35 -218h62l-16 -86h-60l-22 -145h-93l23 145h-344l10 76l359 475h114z" />
    <glyph glyph-name="zero.numr" horiz-adv-x="663" 
d="M532 1305q66 0 113 -31.5t68.5 -83.5t29 -119t-5.5 -137q-15 -94 -52.5 -171t-104 -129t-150.5 -52q-65 0 -112.5 31t-70 82t-30.5 117t6 136q24 150 104.5 253.5t204.5 103.5zM528 1214q-86 0 -141 -79t-74 -201q-8 -71 -4 -129.5t35.5 -96.5t87.5 -38q86 0 141 79.5
t74 196.5q10 73 6.5 133t-35.5 97.5t-90 37.5z" />
    <glyph glyph-name="one.numr" horiz-adv-x="319" 
d="M319 594h-92l97 610h-91l17 86h180z" />
    <glyph glyph-name="two.numr" horiz-adv-x="618" 
d="M504 1305q102 0 159 -59.5t42 -155.5q-9 -55 -35 -96t-61.5 -64.5t-77 -41.5t-82.5 -33.5t-75.5 -34t-59 -48.5t-31.5 -72l-2 -16h350l-15 -90h-444l14 92q10 64 37.5 111.5t64 74.5t78 46.5t82 35t75 33t59 47t30.5 70.5q8 54 -20.5 86.5t-87.5 32.5q-64 0 -108 -28
t-50 -71l-88 9q11 71 78.5 121.5t167.5 50.5z" />
    <glyph glyph-name="three.numr" horiz-adv-x="612" 
d="M492 1305q110 0 167.5 -56.5t42.5 -150.5q-7 -50 -40.5 -88.5t-83.5 -57.5q47 -14 74 -60t18 -106q-15 -94 -92 -149t-183 -55q-114 0 -177 52.5t-50 141.5l86 -8q-9 -57 29.5 -81.5t113.5 -24.5t124 38.5t57 96.5q6 48 -28.5 80t-109.5 32h-94l12 78h84q71 0 117.5 36
t54.5 89q8 48 -20.5 79.5t-99.5 31.5q-61 0 -107.5 -29.5t-52.5 -71.5l-88 8q12 75 80.5 125t165.5 50z" />
    <glyph glyph-name="four.numr" horiz-adv-x="632" 
d="M303 825h234l32 217h93l-35 -217h61l-16 -86h-60l-22 -145h-92l22 145h-344l10 76l359 475h114z" />
    <glyph glyph-name="CR" horiz-adv-x="618" 
 />
    <glyph glyph-name="null" horiz-adv-x="2369" 
 />
    </font>
</defs>
</svg>
