<?xml version="1.0" standalone="no"?>
<!DOCTYPE svg PUBLIC "-//W3C//DTD SVG 1.1//EN" "http://www.w3.org/Graphics/SVG/1.1/DTD/svg11.dtd" >
<svg xmlns="http://www.w3.org/2000/svg" xmlns:xlink="http://www.w3.org/1999/xlink" version="1.1">
<metadata>
Created by FontForge 20170731 at Thu Mar 24 21:45:00 2022
 By Aleksey,,,
Copyright (c) 2014 by Christophe Badani. All rights reserved.
</metadata>
<defs>
<font id="Weber-Bold" horiz-adv-x="512" >
  <font-face 
    font-family="Weber"
    font-weight="700"
    font-stretch="normal"
    units-per-em="2048"
    panose-1="0 0 8 0 0 0 0 0 0 0"
    ascent="1536"
    descent="-512"
    x-height="1010"
    cap-height="1290"
    bbox="-266 -512 2417 1905"
    underline-thickness="102"
    underline-position="-307"
    unicode-range="U+0020-FB02"
  />
<missing-glyph horiz-adv-x="1708" 
d="M1450 1589q95 0 156 -46.5t61 -119.5q0 -48 -25.5 -78t-56.5 -40t-56.5 -26t-25.5 -40v-16h-141v16q0 44 17 72.5t41 40t48 18.5t41 17t17 28q0 22 -19.5 38.5t-52.5 16.5q-69 0 -76 -51h-135q3 74 57 122t150 48zM788 1315q156 0 283.5 -53.5t210 -146t127.5 -214.5
t45 -260q0 -110 -28 -209.5t-84 -182.5t-135 -144.5t-186.5 -95.5t-232.5 -34q-156 0 -283.5 52.5t-210 143.5t-127 211.5t-44.5 258.5q0 139 44.5 260.5t127 214t210 146t283.5 53.5zM1432 1198q30 0 50.5 -19.5t20.5 -54.5q0 -34 -20.5 -52.5t-50.5 -18.5t-52 19t-22 52
q0 35 22 54.5t52 19.5zM788 1159q-159 0 -273.5 -68t-171 -184t-56.5 -266q0 -226 132 -368t369 -142q159 0 274 67.5t171.5 181.5t56.5 261q0 150 -56.5 266t-171.5 184t-274 68zM588 967q58 0 99.5 -41.5t41.5 -100.5q0 -60 -41 -101.5t-100 -41.5q-60 0 -102 41.5
t-42 101.5q0 59 42 100.5t102 41.5zM989 967q60 0 102 -41.5t42 -100.5q0 -60 -42 -101.5t-102 -41.5q-59 0 -100 41.5t-41 101.5q0 59 41.5 100.5t99.5 41.5zM788 614q155 0 242.5 -85t87.5 -214h-219q0 45 -29.5 78t-81.5 33t-81 -33t-29 -78h-219q0 130 87.5 214.5
t241.5 84.5z" />
    <glyph glyph-name="fi" unicode="fi" horiz-adv-x="1060" 
d="M641 0v733h-219v-733h-330v1036q0 130 53 221.5t138 136.5t197 60.5t224.5 4.5t225.5 -42l-19 -274q-67 16 -129.5 26.5t-130 13.5t-116.5 -6.5t-81 -38.5t-32 -77v-51h547v-1010h-328z" />
    <glyph glyph-name="fl" unicode="fl" horiz-adv-x="1142" 
d="M664 1417v-289q-130 17 -186 -4.5t-56 -85.5v-28h201v-277h-201v-733h-330v1036q0 230 145.5 330t426.5 51zM723 1403h328v-1403h-328v1403z" />
    <glyph glyph-name=".notdef" horiz-adv-x="1708" 
d="M1450 1589q95 0 156 -46.5t61 -119.5q0 -48 -25.5 -78t-56.5 -40t-56.5 -26t-25.5 -40v-16h-141v16q0 44 17 72.5t41 40t48 18.5t41 17t17 28q0 22 -19.5 38.5t-52.5 16.5q-69 0 -76 -51h-135q3 74 57 122t150 48zM788 1315q156 0 283.5 -53.5t210 -146t127.5 -214.5
t45 -260q0 -110 -28 -209.5t-84 -182.5t-135 -144.5t-186.5 -95.5t-232.5 -34q-156 0 -283.5 52.5t-210 143.5t-127 211.5t-44.5 258.5q0 139 44.5 260.5t127 214t210 146t283.5 53.5zM1432 1198q30 0 50.5 -19.5t20.5 -54.5q0 -34 -20.5 -52.5t-50.5 -18.5t-52 19t-22 52
q0 35 22 54.5t52 19.5zM788 1159q-159 0 -273.5 -68t-171 -184t-56.5 -266q0 -226 132 -368t369 -142q159 0 274 67.5t171.5 181.5t56.5 261q0 150 -56.5 266t-171.5 184t-274 68zM588 967q58 0 99.5 -41.5t41.5 -100.5q0 -60 -41 -101.5t-100 -41.5q-60 0 -102 41.5
t-42 101.5q0 59 42 100.5t102 41.5zM989 967q60 0 102 -41.5t42 -100.5q0 -60 -42 -101.5t-102 -41.5q-59 0 -100 41.5t-41 101.5q0 59 41.5 100.5t99.5 41.5zM788 614q155 0 242.5 -85t87.5 -214h-219q0 45 -29.5 78t-81.5 33t-81 -33t-29 -78h-219q0 130 87.5 214.5
t241.5 84.5z" />
    <glyph glyph-name=".null" horiz-adv-x="0" 
 />
    <glyph glyph-name="nonmarkingreturn" horiz-adv-x="682" 
 />
    <glyph glyph-name="space" unicode=" " horiz-adv-x="409" 
 />
    <glyph glyph-name="exclam" unicode="!" horiz-adv-x="651" 
d="M502 397h-355v893h355v-893zM326 336q75 0 128.5 -47t53.5 -133q0 -85 -54 -133t-128 -48q-73 0 -128 48.5t-55 132.5q0 85 54.5 132.5t128.5 47.5z" />
    <glyph glyph-name="quotedbl" unicode="&#x22;" horiz-adv-x="813" 
d="M360 815h-258v475h258v-475zM711 815h-258v475h258v-475z" />
    <glyph glyph-name="numbersign" unicode="#" horiz-adv-x="1458" 
d="M1235 1032h172v-295h-246l-76 -231h189v-295h-254l-59 -211h-336l59 211h-152l-59 -211h-334l60 211h-148v295h225l74 235h-186v291h252l71 258h334l-69 -258h149l74 258h330zM662 766l-84 -281h196l84 281h-196z" />
    <glyph glyph-name="dollar" unicode="$" horiz-adv-x="1236" 
d="M1186 391q0 -166 -108.5 -271t-313.5 -134v-252h-301v252q-192 31 -296 138.5t-116 270.5h322q10 -61 72.5 -92t168.5 -31q104 0 150.5 23t46.5 82q0 24 -25 40t-67.5 25.5t-97.5 18t-116 21t-121.5 29.5t-115.5 49t-97.5 75t-67.5 110.5t-25 153.5q0 155 104.5 259.5
t280.5 139.5v269h301v-262q183 -31 280 -143t105 -271h-340q-8 57 -54.5 92t-133.5 35q-168 0 -168 -105q0 -37 31.5 -63.5t83 -40t117.5 -29t134.5 -29.5t134.5 -42t117.5 -65.5t83 -102.5t31.5 -150z" />
    <glyph glyph-name="percent" unicode="%" horiz-adv-x="1748" 
d="M657 -57l-229 22l680 1432l213 -56zM352 1305q64 0 117 -21t89 -56t61.5 -82.5t37 -99t11.5 -106.5q0 -70 -19 -132.5t-56 -113.5t-99 -81.5t-142 -30.5q-78 0 -140 30t-99.5 81t-56.5 113.5t-19 131.5t19.5 133t57 117t99.5 85t139 32zM352 1079q-42 0 -54.5 -35.5
t-12.5 -109.5q0 -69 12.5 -99t54.5 -30q43 0 54.5 29.5t11.5 99.5q0 31 -1 49t-4.5 39t-10 31.5t-19.5 18t-31 7.5zM1407 711q79 0 141 -31.5t99 -84.5t56 -116.5t19 -132.5q0 -70 -18.5 -132.5t-55.5 -114t-99 -81.5t-142 -30q-78 0 -140 30t-99.5 81t-56.5 113.5
t-19 131.5t19.5 133t57 117t99.5 85t139 32zM1407 485q-42 0 -55 -36t-13 -109q0 -68 13 -98.5t55 -30.5q43 0 54.5 29.5t11.5 99.5q0 31 -1 49t-4.5 39t-10 31.5t-19.5 18t-31 7.5z" />
    <glyph glyph-name="ampersand" unicode="&#x26;" horiz-adv-x="1388" 
d="M586 1315q107 0 193.5 -29.5t139.5 -78.5t81 -110t28 -128q0 -98 -75 -182.5t-195 -149.5l106 -115q17 39 17 107h307q-1 -113 -28.5 -202.5t-63.5 -141.5l282 -285l-395 2l-90 86q-126 -113 -334 -113q-231 0 -359 110t-128 280q0 103 51 183t158 148q-129 132 -129 271
q0 152 123.5 250t310.5 98zM588 1063q-38 0 -60 -27t-22 -73q0 -64 61 -134q44 15 75.5 55t31.5 81q0 42 -22 70t-64 28zM680 297l-186 199q-68 -55 -68 -123q0 -60 39.5 -92.5t101.5 -32.5q73 0 113 49z" />
    <glyph glyph-name="quotesingle" unicode="'" horiz-adv-x="503" 
d="M401 815h-299v475h299v-475z" />
    <glyph glyph-name="parenleft" unicode="(" horiz-adv-x="720" 
d="M459 1669l252 -160q-49 -75 -80.5 -126.5t-75.5 -140t-69.5 -168.5t-44.5 -189t-19 -223t19 -223t44.5 -189t69.5 -169t75.5 -141t80.5 -126l-252 -160q-57 77 -103.5 149.5t-97.5 174t-85.5 202t-57.5 227t-23 255.5q0 160 32 311t90 279.5t115 223t130 193.5z" />
    <glyph glyph-name="parenright" unicode=")" horiz-adv-x="720" 
d="M10 1509l252 160q73 -99 130 -193.5t115 -223t90 -279.5t32 -311q0 -129 -23 -255.5t-57.5 -227t-85.5 -202t-97.5 -174t-103.5 -149.5l-252 160q49 74 80.5 126t75.5 141t69.5 169t44.5 189t19 223t-19 223t-44.5 189t-69.5 168.5t-75.5 140t-80.5 126.5z" />
    <glyph glyph-name="asterisk" unicode="*" horiz-adv-x="626" 
d="M381 1126l149 70l56 -168l-162 -31l113 -120l-144 -105l-78 143l-79 -143l-146 105l113 116l-162 31l55 170l148 -68l-21 164h178z" />
    <glyph glyph-name="plus" unicode="+" horiz-adv-x="1001" 
d="M934 471h-281v-281h-305v281h-280v305h280v281h305v-281h281v-305z" />
    <glyph glyph-name="comma" unicode="," horiz-adv-x="581" 
d="M356 -385l103 604h-316l-102 -604h315z" />
    <glyph glyph-name="hyphen" unicode="-" horiz-adv-x="960" 
d="M807 453h-653v301h653v-301z" />
    <glyph glyph-name="period" unicode="." horiz-adv-x="466" 
d="M233 336q75 0 129 -47t54 -133q0 -85 -54.5 -133t-128.5 -48q-73 0 -127.5 48.5t-54.5 132.5q0 85 54 132.5t128 47.5z" />
    <glyph glyph-name="slash" unicode="/" horiz-adv-x="1171" 
d="M1120 1505l-817 -1738l-252 88l813 1738z" />
    <glyph glyph-name="zero" unicode="0" horiz-adv-x="1228" 
d="M604 1315q114 0 208.5 -38t159 -103t109.5 -152t65.5 -183t20.5 -198t-20.5 -197.5t-65.5 -181t-109.5 -149t-159 -101t-208.5 -37.5q-113 0 -207.5 37t-159 100.5t-109.5 149t-66 181t-21 198.5q0 102 21 198.5t66 183t110 151.5t159 103t207 38zM604 993
q-60 0 -102 -27t-65 -78t-32.5 -112t-9.5 -141q0 -76 9.5 -134t32.5 -105.5t65 -73t102 -25.5q61 0 103 25.5t64.5 73.5t32 105.5t9.5 133.5q0 80 -9.5 141t-32 112t-64.5 78t-103 27z" />
    <glyph glyph-name="one" unicode="1" horiz-adv-x="698" 
d="M588 0h-355v963h-192v327h547v-1290z" />
    <glyph glyph-name="two" unicode="2" horiz-adv-x="1241" 
d="M606 1315q112 0 209.5 -27.5t172.5 -80.5t118 -138t43 -192q0 -72 -23.5 -132t-63 -100.5t-91 -73t-108 -54t-113 -39t-108 -32t-91 -29t-63 -34t-23.5 -43.5v-12h655v-328h-1011v281q0 91 29.5 164t77.5 119t110 83.5t126 59t126 44t110 40.5t77.5 45t29.5 61
q0 121 -168 121q-80 0 -128.5 -36t-56.5 -91h-340q5 90 36.5 165t90.5 134t155.5 92t221.5 33z" />
    <glyph glyph-name="three" unicode="3" horiz-adv-x="1218" 
d="M557 1315q143 0 264.5 -46.5t200 -142t78.5 -223.5q0 -65 -41 -129.5t-111 -105.5q189 -73 189 -262q0 -112 -47 -197.5t-128.5 -135t-180.5 -74t-212 -24.5q-134 0 -239 34t-169 93t-97 133.5t-33 159.5h321q11 -63 62 -93t159 -30q215 0 215 134q0 50 -50 78t-142 28
h-221v264h209q79 0 120 33.5t41 95.5q0 55 -49 84t-131 29q-79 0 -121.5 -35t-50.5 -92h-340q0 82 31 156.5t91 135t159 96.5t223 36z" />
    <glyph glyph-name="four" unicode="4" horiz-adv-x="1216" 
d="M479 537h178v225h355v-225h133v-328h-133v-209h-355v209h-637v293l472 788h444z" />
    <glyph glyph-name="five" unicode="5" horiz-adv-x="1220" 
d="M1069 963h-549l-20 -170q82 43 205 43q64 0 124 -13.5t117 -45t99.5 -76.5t68 -113.5t25.5 -151.5q0 -102 -33 -183.5t-85 -132t-121.5 -84.5t-138.5 -47.5t-140 -13.5q-134 0 -239 34t-169.5 93t-97.5 133.5t-33 159.5h321q11 -63 65.5 -97t123.5 -34q79 0 136.5 42.5
t57.5 119.5q0 73 -53.5 114.5t-130.5 41.5q-58 0 -111 -24.5t-85 -72.5l-252 101l57 704h858v-327z" />
    <glyph glyph-name="six" unicode="6" horiz-adv-x="1339" 
d="M774 854q139 0 249.5 -47.5t177.5 -143t67 -223.5q0 -209 -149.5 -337t-395.5 -128q-301 0 -466 179.5t-165 500.5q0 103 23.5 196.5t77.5 179t133.5 148t199 99.5t267.5 37q181 0 317 -49l-106 -299q-34 9 -112 16.5t-122 7.5q-255 0 -309 -200q162 63 313 63zM721 297
q90 0 141 36.5t51 96.5q0 62 -54 94.5t-140 32.5q-114 0 -248 -65q33 -101 101 -148t149 -47z" />
    <glyph glyph-name="seven" unicode="7" horiz-adv-x="1157" 
d="M1137 983l-625 -983h-430l610 963h-641v327h1086v-307z" />
    <glyph glyph-name="eight" unicode="8" horiz-adv-x="1273" 
d="M637 1313q87 0 162 -13t141.5 -43.5t113.5 -75.5t74 -113t27 -153q0 -71 -27 -139.5t-79 -107.5q60 -29 101.5 -104.5t41.5 -168.5q0 -78 -21 -142t-54.5 -106.5t-82.5 -74t-97 -48.5t-106 -27.5t-102 -13.5t-92 -3t-92 3t-102 13.5t-106 27.5t-97 48.5t-82.5 74
t-54.5 106.5t-21 142q0 93 41.5 168.5t101.5 104.5q-52 39 -79 107.5t-27 139.5q0 85 27 153t74 113t113.5 75.5t141.5 43.5t162 13zM637 991q-75 0 -122.5 -24t-47.5 -68q0 -47 47 -71.5t123 -24.5t123 24.5t47 71.5q0 44 -47.5 68t-122.5 24zM637 516q-93 0 -138.5 -24
t-45.5 -82q0 -59 45.5 -83t138.5 -24t138.5 24t45.5 83q0 58 -46 82t-138 24z" />
    <glyph glyph-name="nine" unicode="9" horiz-adv-x="1339" 
d="M616 1315q301 0 466 -179.5t165 -500.5q0 -103 -23.5 -196.5t-77 -179t-133 -148t-199 -99.5t-267.5 -37q-179 0 -318 50l107 299q34 -9 112 -17t121 -8q255 0 310 201q-165 -64 -314 -64q-139 0 -249.5 47.5t-177 143t-66.5 223.5q0 209 149 337t395 128zM426 860
q0 -62 54.5 -94.5t140.5 -32.5q111 0 247 66q-33 101 -101 147.5t-149 46.5q-90 0 -141 -36.5t-51 -96.5z" />
    <glyph glyph-name="colon" unicode=":" horiz-adv-x="466" 
d="M233 1034q75 0 129 -47t54 -133q0 -84 -54.5 -132t-128.5 -48q-73 0 -127.5 48t-54.5 132q0 85 54 132.5t128 47.5zM233 336q75 0 129 -47t54 -133q0 -85 -54.5 -133t-128.5 -48q-73 0 -127.5 48.5t-54.5 132.5q0 85 54 132.5t128 47.5z" />
    <glyph glyph-name="semicolon" unicode=";" horiz-adv-x="602" 
d="M297 1034q75 0 128.5 -47t53.5 -133q0 -85 -54 -132.5t-128 -47.5q-73 0 -127.5 48t-54.5 132q0 85 54 132.5t128 47.5zM356 -385l103 604h-316l-102 -604h315z" />
    <glyph glyph-name="less" unicode="&#x3c;" horiz-adv-x="1001" 
d="M934 737l-498 -110l498 -113v-299l-866 277v268l866 278v-301z" />
    <glyph glyph-name="equal" unicode="=" horiz-adv-x="1001" 
d="M934 717h-866v305h866v-305zM934 225h-866v305h866v-305z" />
    <glyph glyph-name="greater" unicode="&#x3e;" horiz-adv-x="1001" 
d="M934 760v-268l-866 -277v299l497 113l-497 110v301z" />
    <glyph glyph-name="question" unicode="?" horiz-adv-x="1193" 
d="M573 1315q240 0 391.5 -114.5t151.5 -299.5q0 -73 -22.5 -128.5t-58.5 -88.5t-80 -57.5t-87.5 -42t-79.5 -36t-58.5 -46t-22.5 -64.5v-39l-355 -2v45q0 81 22.5 141t59 93t80 55t87 35.5t80 26.5t59 35t22.5 55q0 54 -47 94.5t-131 40.5q-87 0 -134 -35t-55 -92h-340
q5 89 40 165t98 134t160.5 91.5t219.5 33.5zM526 336q75 0 129 -47t54 -133q0 -85 -54.5 -133t-128.5 -48q-73 0 -127.5 48.5t-54.5 132.5q0 85 54 132.5t128 47.5z" />
    <glyph glyph-name="at" unicode="@" horiz-adv-x="1505" 
d="M752 1034q157 0 286.5 -46.5t215.5 -129t133 -195t47 -243.5q0 -209 -93 -327t-251 -118q-132 0 -191 113q-39 -53 -94 -83t-109 -30q-45 0 -85 10.5t-80.5 37.5t-70 69t-47.5 111t-18 157q0 83 24 149.5t61.5 107.5t86 68.5t94.5 38.5t91 11q175 0 315 -82v-393
q0 -48 11.5 -70t43.5 -22q50 0 88.5 69t38.5 183q0 209 -132.5 324.5t-364.5 115.5q-136 0 -248.5 -62t-180 -180.5t-67.5 -269.5q0 -132 40 -231.5t112 -159t164.5 -88.5t203.5 -29q154 0 336 68l55 -166q-195 -76 -397 -76q-144 0 -267 39.5t-221 119.5t-154 214t-56 309
q0 197 86.5 353.5t242 244.5t351.5 88zM745 518q-38 0 -65 -39t-27 -117q0 -163 82 -163q49 0 80 47v252q-36 20 -70 20z" />
    <glyph glyph-name="A" unicode="A" horiz-adv-x="1519" 
d="M1012 209h-504l-70 -209h-397l516 1290l412 -2l510 -1288h-385zM881 537l-144 364l-121 -364h265z" />
    <glyph glyph-name="B" unicode="B" horiz-adv-x="1302" 
d="M111 1290h661q114 0 202 -32t137.5 -85.5t74 -114t24.5 -126.5q0 -76 -52.5 -150t-149.5 -110q104 -40 168.5 -118t64.5 -189q0 -171 -131.5 -268t-347.5 -97h-651v1290zM465 973v-185h307q40 0 65 29t25 66t-24.5 63.5t-65.5 26.5h-307zM465 502v-185h326q48 0 75 28
t27 65q0 38 -27 65t-75 27h-326z" />
    <glyph glyph-name="C" unicode="C" horiz-adv-x="1372" 
d="M721 1315q126 0 235.5 -36t185 -97t118.5 -141t43 -167h-402q-14 49 -58.5 84t-121.5 35q-144 0 -224.5 -95t-80.5 -263q0 -159 80.5 -248.5t224.5 -89.5q78 0 126 35.5t62 83.5h402q0 -87 -44.5 -167t-121 -140.5t-187.5 -97t-237 -36.5q-309 0 -484.5 176.5
t-175.5 489.5q0 316 175.5 495t484.5 179z" />
    <glyph glyph-name="D" unicode="D" horiz-adv-x="1372" 
d="M111 1290h510q168 0 303 -53.5t217.5 -143.5t126 -202.5t43.5 -237.5q0 -99 -26 -192t-81.5 -177t-135 -147t-195 -100t-252.5 -37h-510v1290zM465 963v-635h156q173 0 254 90.5t81 236.5q0 136 -85.5 222t-249.5 86h-156z" />
    <glyph glyph-name="E" unicode="E" horiz-adv-x="1153" 
d="M1022 963h-557v-156h514v-328h-514v-37q0 -65 37 -89.5t100 -24.5h428v-328h-477q-208 0 -325 104.5t-117 315.5v870h911v-327z" />
    <glyph glyph-name="F" unicode="F" horiz-adv-x="1052" 
d="M971 963h-408q-53 0 -75.5 -24.5t-22.5 -72.5v-123h459v-327h-459v-416h-354v879q0 195 107.5 303t313.5 108h439v-327z" />
    <glyph glyph-name="G" unicode="G" horiz-adv-x="1413" 
d="M721 1315q126 0 235.5 -36t185 -97t118.5 -141t43 -167h-402q-14 49 -58.5 84t-121.5 35q-144 0 -224.5 -95t-80.5 -263q0 -159 80.5 -248.5t224.5 -89.5q81 0 130 13t91 42v113h-221v266h590v-543q-94 -98 -244.5 -155.5t-345.5 -57.5q-309 0 -484.5 176.5t-175.5 489.5
q0 316 175.5 495t484.5 179z" />
    <glyph glyph-name="H" unicode="H" horiz-adv-x="1462" 
d="M1352 0h-355v467h-532v-467h-354v1290h354v-495h532v495h355v-1290z" />
    <glyph glyph-name="I" unicode="I" horiz-adv-x="575" 
d="M465 0h-354v1290h354v-1290z" />
    <glyph glyph-name="J" unicode="J" horiz-adv-x="948" 
d="M838 1290v-682q0 -105 -27.5 -198t-86.5 -173.5t-145 -138t-210.5 -90.5t-276.5 -33v322q91 0 162 19t113 49.5t69 72.5t37 83t10 87v355h-346v327h701z" />
    <glyph glyph-name="K" unicode="K" horiz-adv-x="1327" 
d="M883 0l-320 498l-98 -109v-389h-354v1290h354v-446l377 446h434l-475 -526l516 -764h-434z" />
    <glyph glyph-name="L" unicode="L" horiz-adv-x="1062" 
d="M465 1290v-848q0 -114 117 -114h419v-328h-469q-198 0 -309.5 104.5t-111.5 315.5v870h354z" />
    <glyph glyph-name="M" unicode="M" horiz-adv-x="1699" 
d="M1589 0h-354v737l-254 -415h-262l-254 415v-737h-354v1290h368l371 -569l371 569h368v-1290z" />
    <glyph glyph-name="N" unicode="N" horiz-adv-x="1429" 
d="M1319 0h-272l-582 678v-678h-354v1290h305l549 -633v633h354v-1290z" />
    <glyph glyph-name="O" unicode="O" horiz-adv-x="1482" 
d="M741 1315q318 0 499 -179t181 -495q0 -313 -180.5 -489.5t-499.5 -176.5t-499.5 176.5t-180.5 489.5q0 316 181 495t499 179zM741 993q-153 0 -239 -95t-86 -263q0 -159 86 -248.5t239 -89.5t239.5 89.5t86.5 248.5q0 168 -86.5 263t-239.5 95z" />
    <glyph glyph-name="P" unicode="P" horiz-adv-x="1280" 
d="M532 1290h189q120 0 217 -42t157 -110t92.5 -155.5t32.5 -179t-32.5 -179t-92.5 -155.5t-157 -110t-217 -42h-256v-317h-354v879q0 195 107.5 303t313.5 108zM711 963h-148q-53 0 -75.5 -24.5t-22.5 -72.5v-221h246q46 0 82.5 17.5t55.5 45.5t27.5 62t0 68t-27.5 62
t-55.5 45.5t-82.5 17.5z" />
    <glyph glyph-name="Q" unicode="Q" horiz-adv-x="1482" 
d="M1421 641q0 -333 -204 -512l182 -287l-269 -141l-188 295q-107 -21 -201 -21q-319 0 -499.5 176.5t-180.5 489.5q0 316 181 495t499 179t499 -179t181 -495zM741 297h11l-78 123l268 141l78 -123q47 80 47 197q0 168 -86.5 263t-239.5 95t-239 -95t-86 -263
q0 -159 86 -248.5t239 -89.5z" />
    <glyph glyph-name="R" unicode="R" horiz-adv-x="1280" 
d="M834 0l-170 317h-5h-194v-317h-354v879q0 195 107.5 303t313.5 108h127q132 0 236.5 -47.5t165.5 -123t90 -172t20 -192t-56.5 -186t-127.5 -151.5l252 -418h-405zM465 645h184q51 0 90.5 17.5t60 45.5t30 62t0 68t-30 62t-60 45.5t-90.5 17.5h-86q-53 0 -75.5 -24.5
t-22.5 -72.5v-221z" />
    <glyph glyph-name="S" unicode="S" horiz-adv-x="1236" 
d="M631 1315q125 0 223.5 -33t160.5 -92t95.5 -134.5t38.5 -164.5h-340q-8 57 -54.5 92t-133.5 35q-168 0 -168 -105q0 -37 31.5 -63.5t83 -40t117.5 -29t134.5 -29.5t134.5 -42t117.5 -65.5t83 -102.5t31.5 -150q0 -197 -149.5 -306.5t-426.5 -109.5q-262 0 -403.5 113.5
t-155.5 306.5h322q10 -61 72.5 -92t168.5 -31q104 0 150.5 23t46.5 82q0 24 -25 40t-67.5 25.5t-97.5 18t-116 21t-121.5 29.5t-115.5 49t-97.5 75t-67.5 110.5t-25 153.5q0 191 155 303.5t398 112.5z" />
    <glyph glyph-name="T" unicode="T" horiz-adv-x="1296" 
d="M1235 963h-410v-963h-354v963h-410v327h1174v-327z" />
    <glyph glyph-name="U" unicode="U" horiz-adv-x="1470" 
d="M1360 1290v-676q0 -323 -158 -481t-452 -158q-138 0 -252.5 38.5t-201.5 115t-136 200.5t-49 285v676h354v-676q0 -317 285 -317q60 0 106 16.5t74 44.5t45.5 69.5t24 86t6.5 100.5v676h354z" />
    <glyph glyph-name="V" unicode="V" horiz-adv-x="1562" 
d="M948 0h-332l-544 1290h405l320 -798l301 798h393z" />
    <glyph glyph-name="W" unicode="W" horiz-adv-x="2185" 
d="M1683 0h-319l-281 772l-276 -772h-320l-426 1290h410l199 -741l256 741l327 2l269 -743l192 741h410z" />
    <glyph glyph-name="X" unicode="X" horiz-adv-x="1466" 
d="M958 641l467 -641h-436l-272 383l-242 -383h-426l445 639l-453 651h430l266 -407l256 407h414z" />
    <glyph glyph-name="Y" unicode="Y" horiz-adv-x="1464" 
d="M891 506v-506h-354v506l-517 784h422l283 -467l285 467h434z" />
    <glyph glyph-name="Z" unicode="Z" horiz-adv-x="1304" 
d="M1169 989l-606 -661h639v-328h-1098v301l607 662h-609v327h1067v-301z" />
    <glyph glyph-name="bracketleft" unicode="[" horiz-adv-x="618" 
d="M608 1444h-209v-1565h209v-205h-516v1975h516v-205z" />
    <glyph glyph-name="backslash" unicode="\" horiz-adv-x="1171" 
d="M1120 -145l-252 -88l-817 1738l256 88z" />
    <glyph glyph-name="bracketright" unicode="]" horiz-adv-x="618" 
d="M526 1649v-1975h-516v205h209v1565h-209v205h516z" />
    <glyph glyph-name="asciicircum" unicode="^" horiz-adv-x="1222" 
d="M1192 563h-361l-231 377l-233 -377h-336l477 727h182z" />
    <glyph glyph-name="underscore" unicode="_" horiz-adv-x="1269" 
d="M1208 -264h-1147v264h1147v-264z" />
    <glyph glyph-name="grave" unicode="`" horiz-adv-x="1024" 
d="M301 1513l518 -213l-76 -196l-538 162z" />
    <glyph glyph-name="a" unicode="a" horiz-adv-x="1189" 
d="M1098 0h-328v78q-27 -23 -48.5 -37t-57.5 -31.5t-84 -26t-107 -8.5q-84 0 -158.5 29.5t-134 86t-94.5 148t-35 207.5q0 122 35 221.5t95.5 166.5t142.5 113t174 66.5t194 20.5q206 0 406 -86v-948zM770 408v309q-68 18 -123 18q-88 0 -151 -42t-90 -102t-27 -128
q0 -94 44.5 -148.5t129.5 -54.5q67 0 126 45t91 103z" />
    <glyph glyph-name="b" unicode="b" horiz-adv-x="1236" 
d="M420 1403v-432q123 63 258 63q98 0 187.5 -33.5t162 -96.5t115.5 -167t43 -233q0 -111 -37 -207t-105 -168t-172.5 -113t-232.5 -41t-232.5 41t-172.5 113t-105 168t-37 207v899h328zM420 657v-168q0 -99 56 -157t163 -58q106 0 162.5 65t56.5 165q0 106 -67.5 168.5
t-165.5 62.5q-112 0 -205 -78z" />
    <glyph glyph-name="c" unicode="c" horiz-adv-x="1114" 
d="M571 1034q121 0 226 -49t171.5 -139t75.5 -203h-337q-6 40 -42.5 66t-93.5 26q-192 0 -192 -233q0 -112 52.5 -170t150.5 -58q54 0 90 22t43 60h338q-11 -113 -80 -200.5t-174.5 -134t-227.5 -46.5q-109 0 -202.5 33.5t-165 97.5t-112 166t-40.5 230q0 234 146 383
t374 149z" />
    <glyph glyph-name="d" unicode="d" horiz-adv-x="1196" 
d="M776 1403v-432q-117 63 -237 63q-94 0 -181 -36t-156 -101.5t-110 -167.5t-41 -225q0 -112 33.5 -207.5t98 -167.5t166 -113t229.5 -41t229.5 41t165.5 113t97.5 167.5t33.5 207.5v899h-328zM776 653v-164q0 -215 -198 -215q-104 0 -151.5 63t-47.5 167q0 106 61 168.5
t150 62.5q101 0 186 -82z" />
    <glyph glyph-name="e" unicode="e" horiz-adv-x="1191" 
d="M582 1034q269 0 414 -176t122 -469h-712q54 -127 206 -127q134 0 166 60h338q-21 -169 -157.5 -258t-331.5 -89q-257 0 -416.5 148.5t-159.5 392.5q0 113 42 210.5t113.5 164.5t169 105t206.5 38zM391 635h395q-13 66 -61 108.5t-129 42.5q-76 0 -130 -38.5t-75 -112.5z
" />
    <glyph glyph-name="f" unicode="f" horiz-adv-x="753" 
d="M807 1122l18 295q-149 47 -288 47q-73 0 -137 -13.5t-121.5 -45.5t-98 -80.5t-64.5 -122t-24 -166.5v-1036h330v733h332v277h-332v30q0 123 151 123q95 0 234 -41z" />
    <glyph glyph-name="g" unicode="g" horiz-adv-x="1220" 
d="M578 1034q-128 0 -229.5 -41t-166 -113t-98 -167t-33.5 -207q0 -120 39.5 -218t106 -160t150.5 -95t177 -33q135 0 252 66v-29q0 -72 -66 -110t-171 -38q-126 0 -248 70l-133 -260q95 -55 178 -82t203 -27q247 0 406 133t159 343v440q0 112 -33.5 207t-97.5 167
t-165.5 113t-229.5 41zM578 735q198 0 198 -215v-143q-81 -78 -186 -78q-92 0 -151.5 51.5t-59.5 155.5t47.5 166.5t151.5 62.5z" />
    <glyph glyph-name="h" unicode="h" horiz-adv-x="1212" 
d="M92 1403v-1403h328v692q97 43 182 43t138 -49.5t53 -126.5v-559h327v602q0 93 -25.5 168t-67.5 123.5t-99 81t-118 46t-128 13.5q-148 0 -262 -57v426h-328z" />
    <glyph glyph-name="i" unicode="i" 
d="M438 1360q0 -85 -54 -132.5t-128 -47.5q-73 0 -127.5 48t-54.5 132q0 85 54 132.5t128 47.5q75 0 128.5 -47t53.5 -133zM420 0h-328v1010h328v-1010z" />
    <glyph glyph-name="j" unicode="j" horiz-adv-x="561" 
d="M479 1360q0 -85 -54 -132.5t-128 -47.5q-73 0 -127.5 48t-54.5 132q0 85 54 132.5t128 47.5q75 0 128.5 -47t53.5 -133zM461 1010v-932q0 -259 -119.5 -373.5t-392.5 -114.5v306q114 0 149 38.5t35 143.5v932h328z" />
    <glyph glyph-name="k" unicode="k" horiz-adv-x="1150" 
d="M721 0l-238 336l-63 -68v-268h-328v1403h328v-692l252 299h448l-411 -435l430 -575h-418z" />
    <glyph glyph-name="l" unicode="l" 
d="M420 0h-328v1403h328v-1403z" />
    <glyph glyph-name="m" unicode="m" horiz-adv-x="1904" 
d="M1335 1032q77 0 144.5 -15t129.5 -51t106 -91.5t70.5 -140.5t26.5 -193v-541h-327v573q0 77 -50.5 118.5t-136.5 41.5q-93 0 -198 -45q14 -75 14 -147v-541h-328v578q0 81 -45 119t-135 38q-83 0 -190 -26v-709h-324v936q257 98 500 98q223 0 352 -96q186 94 391 94z" />
    <glyph glyph-name="n" unicode="n" horiz-adv-x="1206" 
d="M92 0v930q301 102 531 102q85 0 155.5 -14.5t134 -50t107 -90.5t69 -140.5t25.5 -195.5v-541h-328v575q0 158 -180 158q-83 0 -190 -26v-707h-324z" />
    <glyph glyph-name="o" unicode="o" horiz-adv-x="1155" 
d="M578 1034q165 0 286 -72t180.5 -190.5t59.5 -267.5q0 -112 -33.5 -207.5t-97.5 -167.5t-165.5 -113t-229.5 -41t-229.5 41t-166 113t-98 167.5t-33.5 207.5q0 111 35 207t100.5 168t166.5 113.5t225 41.5zM578 735q-104 0 -151.5 -64t-47.5 -167q0 -104 47.5 -167
t151.5 -63t151 63t47 167q0 103 -47.5 167t-150.5 64z" />
    <glyph glyph-name="p" unicode="p" horiz-adv-x="1196" 
d="M618 1034q-128 0 -229.5 -41t-165.5 -113t-97.5 -167t-33.5 -207v-891h328v408q93 -48 217 -48q94 0 184 36t162.5 102t117 168.5t44.5 224.5q0 112 -33.5 207t-98 167t-166 113t-229.5 41zM618 735q104 0 151.5 -62.5t47.5 -166.5q0 -106 -61 -169t-150 -63
q-107 0 -186 76v170q0 215 198 215z" />
    <glyph glyph-name="q" unicode="q" horiz-adv-x="1196" 
d="M578 1034q128 0 229.5 -41t165.5 -113t97.5 -167t33.5 -207v-891h-328v424q-115 -62 -237 -62q-75 0 -146 22t-133 67t-108.5 107.5t-73.5 148t-27 184.5q0 112 33.5 207t98 167t166 113t229.5 41zM578 735q-104 0 -151.5 -62.5t-47.5 -166.5q0 -106 61 -168t150 -62
q103 0 186 80v164q0 215 -198 215z" />
    <glyph glyph-name="r" unicode="r" horiz-adv-x="882" 
d="M801 1034v-327q-244 0 -385 -76v-631h-324v844q339 190 709 190z" />
    <glyph glyph-name="s" unicode="s" horiz-adv-x="1067" 
d="M543 1034q123 0 215.5 -28t147 -78t81 -113t27.5 -139h-340q-2 41 -41 69.5t-98 28.5q-125 0 -125 -65q0 -26 34.5 -43.5t89.5 -28.5t122 -23.5t134 -34t122 -53t89.5 -88.5t34.5 -133q0 -109 -72 -185.5t-183.5 -110.5t-250.5 -34q-237 0 -355 90.5t-124 256.5h322
q2 -38 40 -62t109 -24q76 0 121 16t45 43q0 18 -27 30.5t-71 19.5t-100 18t-114.5 23t-114.5 36.5t-100 57.5t-71 87.5t-27 124.5q0 156 134 249t346 93z" />
    <glyph glyph-name="t" unicode="t" horiz-adv-x="829" 
d="M424 1010h287v-277h-291v-323q0 -71 48.5 -103.5t123.5 -32.5q28 0 156 17v-285q-124 -31 -232 -31q-91 0 -166 22.5t-134 69t-91.5 124.5t-32.5 182v917h332v-280z" />
    <glyph glyph-name="u" unicode="u" horiz-adv-x="1175" 
d="M1083 1010v-549q0 -128 -37.5 -223.5t-105.5 -152t-155.5 -83.5t-196.5 -27t-196.5 27t-156 83.5t-106 152t-37.5 223.5v549h328v-559q0 -82 38 -127t130 -45t130 45t38 127v559h327z" />
    <glyph glyph-name="v" unicode="v" horiz-adv-x="1265" 
d="M805 0h-342l-443 1010h357l272 -668l254 668h342z" />
    <glyph glyph-name="w" unicode="w" horiz-adv-x="1794" 
d="M1358 0h-287l-176 496l-170 -496h-287l-387 1010h377l160 -508l178 508h262l170 -508l168 508h377z" />
    <glyph glyph-name="x" unicode="x" horiz-adv-x="1163" 
d="M799 522l352 -522h-395l-176 270l-183 -270h-387l357 510l-353 500h392l188 -287l186 287h373z" />
    <glyph glyph-name="y" unicode="y" horiz-adv-x="1196" 
d="M1104 1010v-944q0 -138 -74.5 -247t-205.5 -169t-296 -60q-247 0 -436 129l164 254q114 -84 272 -84q102 0 175 48.5t73 121.5v39q-95 -82 -274 -82q-59 0 -113.5 12.5t-107.5 42.5t-92 76t-63 119.5t-24 165.5v578h328v-539q0 -156 141 -156q66 0 122.5 36.5t82.5 88.5
v570h328z" />
    <glyph glyph-name="z" unicode="z" horiz-adv-x="1114" 
d="M987 727l-430 -440h434v-287h-868v264l416 459h-404v287h852v-283z" />
    <glyph glyph-name="braceleft" unicode="{" horiz-adv-x="722" 
d="M600 1821l-4 -273q-73 0 -98 -22.5t-25 -79.5v-449q0 -121 -42.5 -196t-139.5 -105q97 -30 139.5 -105t42.5 -196v-448q0 -58 25 -80.5t98 -22.5l4 -272q-96 0 -168 16t-130.5 53.5t-89 107t-30.5 169.5v449q0 87 -33.5 133t-107.5 63v266q74 17 107.5 63.5t33.5 133.5
v449q0 100 30.5 169.5t89 107t130.5 53.5t168 16z" />
    <glyph glyph-name="bar" unicode="|" horiz-adv-x="536" 
d="M393 -512h-250v2048h250v-2048z" />
    <glyph glyph-name="braceright" unicode="}" horiz-adv-x="722" 
d="M127 1548l-4 273q96 0 168 -16t130.5 -53.5t89 -107t30.5 -169.5v-449q0 -87 33.5 -133.5t107.5 -63.5v-266q-74 -17 -107.5 -63t-33.5 -133v-449q0 -100 -30.5 -169.5t-89 -107t-130.5 -53.5t-168 -16l4 272q73 0 98 22.5t25 80.5v448q0 121 42.5 196t139.5 105
q-97 30 -139.5 105t-42.5 196v449q0 57 -25 79.5t-98 22.5z" />
    <glyph glyph-name="asciitilde" unicode="~" horiz-adv-x="1021" 
d="M346 729q52 0 120.5 -24t127 -48t86.5 -24q62 0 76 94l231 -74q-10 -77 -47.5 -146t-98.5 -114t-132 -45q-67 0 -133.5 24t-122.5 48t-99 24q-12 0 -23 -4.5t-18.5 -9t-17.5 -16.5t-13.5 -17.5t-14.5 -22t-13 -20.5l-219 107q19 52 45 96t63 85t89 64t114 23z" />
    <glyph glyph-name="exclamdown" unicode="&#xa1;" horiz-adv-x="651" 
d="M326 674q-75 0 -129 47t-54 133q0 84 54.5 132t128.5 48q73 0 127.5 -48t54.5 -132q0 -85 -54 -132.5t-128 -47.5zM150 612h354v-893h-354v893z" />
    <glyph glyph-name="cent" unicode="&#xa2;" horiz-adv-x="1155" 
d="M715 500h338q-13 -133 -103.5 -229t-226.5 -132v-241h-301v237q-169 42 -270 171.5t-101 338.5q0 192 101 330t270 184v244h301v-246q134 -39 222.5 -138.5t98.5 -232.5h-337q-6 40 -42.5 66.5t-93.5 26.5q-192 0 -192 -234q0 -111 52.5 -169t150.5 -58q54 0 90 22t43 60
z" />
    <glyph glyph-name="sterling" unicode="&#xa3;" horiz-adv-x="1167" 
d="M631 492v-15q0 -32 -17.5 -76t-40.5 -75h531v-326h-1030l4 260q77 16 139 75t62 128q0 14 -3 29h-204v260h121q-11 53 -11 88q0 218 126 346.5t358 128.5q73 0 135 -12t105 -30.5t81.5 -45.5t65 -51.5t54.5 -53.5q2 -2 3 -3.5t3 -3.5l3 -3l-242 -227q-22 26 -34.5 38
t-38 32t-55.5 29t-66 9q-57 0 -100 -42t-43 -105q0 -50 12 -94h348v-260h-266z" />
    <glyph glyph-name="yen" unicode="&#xa5;" horiz-adv-x="1409" 
d="M895 666h244v-211h-269v-74h269v-211h-269v-170h-354v170h-237v211h237v74h-237v211h215l-443 624h428l219 -389l230 389h430z" />
    <glyph glyph-name="brokenbar" unicode="&#xa6;" horiz-adv-x="536" 
d="M393 717h-250v819h250v-819zM393 -512h-250v819h250v-819z" />
    <glyph glyph-name="section" unicode="&#xa7;" horiz-adv-x="1122" 
d="M641 1403q82 0 167.5 -25.5t127.5 -58.5l-57 -176q-56 47 -131 76.5t-156 29.5q-45 0 -77 -23t-32 -75q0 -72 57.5 -169t139 -200.5t163.5 -215.5t139.5 -246.5t57.5 -260.5q0 -154 -76 -278.5t-202 -192t-273 -67.5q-94 0 -192 30.5t-143 65.5l63 176
q66 -56 133.5 -87.5t163.5 -31.5q47 0 78 30t31 79q0 43 -30 102t-78.5 123t-106.5 138t-116.5 158t-107 171t-78.5 188.5t-30 200.5q0 149 71.5 272t201.5 195t292 72zM311 1128q-31 -32 -48 -94.5t-17 -126.5q0 -96 29 -191.5t76 -176t103.5 -159.5t113 -153t104 -144
t77.5 -145.5t31 -146.5q90 83 90 234q0 70 -30.5 149t-79 155t-107.5 155.5t-118 160.5t-108.5 159t-81.5 163t-34 161z" />
    <glyph glyph-name="dieresis" unicode="&#xa8;" horiz-adv-x="1024" 
d="M309 1438q61 0 106.5 -40.5t45.5 -111.5q0 -70 -45.5 -109.5t-106.5 -39.5t-106 39.5t-45 109.5q0 71 45 111.5t106 40.5zM715 1438q61 0 106 -40.5t45 -111.5q0 -70 -45 -109.5t-106 -39.5t-106.5 39.5t-45.5 109.5q0 71 45.5 111.5t106.5 40.5z" />
    <glyph glyph-name="copyright" unicode="&#xa9;" horiz-adv-x="1515" 
d="M758 1315q156 0 283 -53.5t210 -146t127.5 -214.5t44.5 -260t-44.5 -258.5t-127.5 -211.5t-210 -143.5t-283 -52.5q-126 0 -233.5 34t-186.5 95.5t-134.5 144.5t-83.5 182.5t-28 209.5q0 139 44.5 260.5t127 214t210.5 146t284 53.5zM758 1159q-159 0 -274 -68
t-171.5 -184t-56.5 -266q0 -147 56.5 -261t171.5 -181.5t274 -67.5t274 67.5t171.5 181.5t56.5 261q0 150 -56.5 266t-171.5 184t-274 68zM760 1014q130 0 225.5 -77.5t104.5 -197.5h-236q-5 29 -30 47.5t-64 18.5q-135 0 -135 -164q0 -77 36.5 -117.5t104.5 -40.5
q81 0 94 56h236q-12 -118 -108.5 -191.5t-227.5 -73.5q-159 0 -262 95t-103 272q0 164 102.5 268.5t262.5 104.5z" />
    <glyph glyph-name="guillemotleft" unicode="&#xab;" horiz-adv-x="1126" 
d="M563 895l-223 -307l223 -307l-203 -131l-309 423v29l309 424zM1034 895l-223 -307l223 -307l-203 -131l-309 423v29l309 424z" />
    <glyph glyph-name="logicalnot" unicode="&#xac;" horiz-adv-x="1001" 
d="M934 776v-567h-272v262h-594v305h866z" />
    <glyph glyph-name="registered" unicode="&#xae;" horiz-adv-x="737" 
d="M369 1315q143 0 225 -88.5t82 -220.5q0 -133 -82 -220.5t-225 -87.5t-225.5 88t-82.5 220q0 131 82.5 220t225.5 89zM369 766q112 0 174.5 67t62.5 173t-62.5 173.5t-174.5 67.5t-175 -67.5t-63 -173.5t63 -173t175 -67zM346 1182h29q66 0 101.5 -41.5t30.5 -94
t-46 -85.5l65 -107h-106l-41 80h-4h-49v-80h-90v223q0 50 28.5 77.5t81.5 27.5zM326 1018h49q30 0 42 20t0 40t-42 20h-23q-26 0 -26 -23v-57z" />
    <glyph glyph-name="macron" unicode="&#xaf;" horiz-adv-x="1024" 
d="M852 1130h-682v222h682v-222z" />
    <glyph glyph-name="degree" unicode="&#xb0;" horiz-adv-x="708" 
d="M354 1315q50 0 99.5 -15.5t94 -47t72 -87t27.5 -127.5t-27.5 -127.5t-72 -86.5t-93.5 -46.5t-100 -15.5t-100 15.5t-93.5 46.5t-72 86.5t-27.5 127.5t27.5 127.5t72 87t94 47t99.5 15.5zM354 1141q-53 0 -81.5 -30t-28.5 -73t28.5 -72.5t81.5 -29.5t82 29.5t29 72.5
t-29 73t-82 30z" />
    <glyph glyph-name="plusminus" unicode="&#xb1;" horiz-adv-x="1001" 
d="M934 924v-306h-281v-280h-305v280h-280v306h280v280h305v-280h281zM68 305h866v-305h-866v305z" />
    <glyph glyph-name="twosuperior" unicode="&#xb2;" horiz-adv-x="727" 
d="M344 1305q87 0 156.5 -25t115.5 -84t46 -145q0 -53 -23 -92.5t-58 -60t-75 -36t-75 -24t-58 -20.5t-23 -27v-5h291v-192h-578v139q0 64 26 113t65 75.5t84.5 47.5t84.5 33t65 29t26 38q0 20 -15 32.5t-41 12.5q-29 0 -46 -20t-17 -50h-240q0 36 9.5 71.5t32 70t55 61
t82.5 42.5t110 16z" />
    <glyph glyph-name="threesuperior" unicode="&#xb3;" horiz-adv-x="692" 
d="M309 1305q46 0 88.5 -6.5t84 -23t71.5 -41.5t49 -65.5t19 -91.5q0 -83 -60 -123q84 -49 84 -145q0 -74 -49 -127t-121.5 -76.5t-157.5 -23.5q-145 0 -222 70.5t-77 172.5h224q0 -55 84 -55q73 0 73 49q0 22 -18.5 31.5t-61.5 9.5h-106v154h94q72 0 72 51q0 21 -16.5 35
t-43.5 14q-34 0 -46.5 -16t-12.5 -51h-237q0 53 16 97.5t48.5 81.5t89 58t132.5 21z" />
    <glyph glyph-name="acute" unicode="&#xb4;" horiz-adv-x="1024" 
d="M281 1104l-76 196l518 213l96 -247z" />
    <glyph glyph-name="paragraph" unicode="&#xb6;" horiz-adv-x="1044" 
d="M1004 1190h-185v-903q0 -105 -25.5 -189t-69 -136t-100 -86.5t-119 -46t-126.5 -9t-121.5 19t-103.5 43.5l20 113q67 -37 139 -54t143 -8t127 44t91 111t35 185v224q-35 -40 -95 -68t-129 -29q-193 -4 -306 135q-96 117 -98 286q-1 173 98 300q122 158 345 167l27 1h453
v-100z" />
    <glyph glyph-name="periodcentered" unicode="&#xb7;" horiz-adv-x="466" 
d="M233 748q75 0 129 -47.5t54 -133.5q0 -84 -54.5 -132t-128.5 -48q-73 0 -127.5 48t-54.5 132q0 86 54.5 133.5t127.5 47.5z" />
    <glyph glyph-name="cedilla" unicode="&#xb8;" horiz-adv-x="1024" 
d="M573 0l-28 -111q101 0 158 -53t57 -127q0 -88 -78 -154.5t-219 -66.5q-123 0 -199 39l68 154q2 -1 14.5 -7t16 -7.5t15 -6t18 -6t17 -4t20 -3.5t20.5 -1q40 0 65 20.5t25 52.5q0 29 -21 47t-55 17h-55l-64 84l39 133h186z" />
    <glyph glyph-name="onesuperior" unicode="&#xb9;" horiz-adv-x="444" 
d="M375 594h-250v467h-107v229h357v-696z" />
    <glyph glyph-name="guillemotright" unicode="&#xbb;" horiz-adv-x="1126" 
d="M604 602v-29l-309 -423l-203 131l223 307l-223 307l203 131zM1075 602v-29l-309 -423l-203 131l223 307l-223 307l203 131z" />
    <glyph glyph-name="onequarter" unicode="&#xbc;" horiz-adv-x="1529" 
d="M408 -57l-230 22l680 1432l213 -56zM375 594h-250v467h-107v229h357v-696zM1112 315h107v129h190v-129h76v-229h-76v-109h-190v109h-377v205l223 405h252z" />
    <glyph glyph-name="onehalf" unicode="&#xbd;" horiz-adv-x="1531" 
d="M408 -57l-230 22l680 1432l213 -56zM375 594h-250v467h-107v229h357v-696zM1149 711q87 0 156.5 -25t115 -84t45.5 -145q0 -53 -23 -92.5t-57.5 -60t-75 -36t-75 -24t-57.5 -20.5t-23 -27v-4h291v-193h-578v139q0 64 26 113t65 75.5t84.5 47.5t84.5 33t65 29t26 38
q0 20 -15 32.5t-41 12.5q-29 0 -46 -19.5t-17 -49.5h-240q0 46 16.5 90t49 83t90.5 63t133 24z" />
    <glyph glyph-name="threequarters" unicode="&#xbe;" horiz-adv-x="1777" 
d="M655 -57l-229 22l680 1432l213 -56zM309 1305q46 0 88.5 -6.5t84 -23t71.5 -41.5t49 -65.5t19 -91.5q0 -83 -60 -123q84 -49 84 -145q0 -74 -49 -127t-121.5 -76.5t-157.5 -23.5q-145 0 -222 70.5t-77 172.5h224q0 -55 84 -55q73 0 73 49q0 22 -18.5 31.5t-61.5 9.5h-106
v154h94q72 0 72 51q0 21 -16.5 35t-43.5 14q-34 0 -46.5 -16t-12.5 -51h-237q0 53 16 97.5t48.5 81.5t89 58t132.5 21zM1360 315h106v129h191v-129h76v-229h-76v-109h-191v109h-376v205l223 405h252z" />
    <glyph glyph-name="questiondown" unicode="&#xbf;" horiz-adv-x="1193" 
d="M668 674q-75 0 -129 47t-54 133q0 84 54.5 132t128.5 48q73 0 127.5 -48t54.5 -132q0 -85 -54 -132.5t-128 -47.5zM621 -305q-240 0 -391.5 114.5t-151.5 299.5q0 73 22.5 128.5t58.5 88.5t80 57t87.5 41.5t79.5 36t58.5 46t22.5 64.5v39l355 2v-45q0 -81 -22.5 -141
t-59 -92.5t-80 -55t-87 -35.5t-80 -26.5t-59 -35t-22.5 -54.5q0 -54 47 -94.5t131 -40.5q87 0 134 35t55 92h340q-5 -89 -40 -165t-98 -134t-160.5 -91.5t-219.5 -33.5z" />
    <glyph glyph-name="Agrave" unicode="&#xc0;" horiz-adv-x="1519" 
d="M983 1384l-539 162l97 248l518 -213zM1012 209h-504l-70 -209h-397l516 1290l412 -2l510 -1288h-385zM881 537l-144 364l-121 -364h265z" />
    <glyph glyph-name="Aacute" unicode="&#xc1;" horiz-adv-x="1519" 
d="M639 1382l-76 197l518 213l97 -248zM1012 209h-504l-70 -209h-397l516 1290l412 -2l510 -1288h-385zM881 537l-144 364l-121 -364h265z" />
    <glyph glyph-name="Acircumflex" unicode="&#xc2;" horiz-adv-x="1519" 
d="M526 1389l-145 139l291 254h176l291 -254l-146 -139l-233 163zM1012 209h-504l-70 -209h-397l516 1290l412 -2l510 -1288h-385zM881 537l-144 364l-121 -364h265z" />
    <glyph glyph-name="Atilde" unicode="&#xc3;" horiz-adv-x="1519" 
d="M606 1477q-65 0 -106 -88l-187 100q11 31 33 66.5t54 72t76 60.5t89 24q57 0 173.5 -31.5t162.5 -31.5q49 0 75.5 23t49.5 73l178 -59q-80 -271 -295 -271q-68 0 -167 31t-136 31zM1012 209h-504l-70 -209h-397l516 1290l412 -2l510 -1288h-385zM881 537l-144 364
l-121 -364h265z" />
    <glyph glyph-name="Adieresis" unicode="&#xc4;" horiz-adv-x="1519" 
d="M557 1417q-61 0 -106 40t-45 110q0 71 45 111t106 40q62 0 107 -40t45 -111q0 -70 -45.5 -110t-106.5 -40zM963 1417q-61 0 -106.5 40t-45.5 110q0 71 45 111t107 40q61 0 106 -40t45 -111q0 -70 -45 -110t-106 -40zM1012 209h-504l-70 -209h-397l516 1290l412 -2
l510 -1288h-385zM881 537l-144 364l-121 -364h265z" />
    <glyph glyph-name="Aring" unicode="&#xc5;" horiz-adv-x="1519" 
d="M760 1374q-86 0 -147.5 50t-61.5 143t61.5 142.5t147.5 49.5t147.5 -49.5t61.5 -142.5t-61.5 -143t-147.5 -50zM760 1636q-38 0 -59 -18.5t-21 -50.5q0 -33 21 -51.5t59 -18.5t59 18.5t21 51.5q0 32 -21 50.5t-59 18.5zM1012 209h-504l-70 -209h-397l516 1290l412 -2
l510 -1288h-385zM881 537l-144 364l-121 -364h265z" />
    <glyph glyph-name="AE" unicode="&#xc6;" horiz-adv-x="1978" 
d="M1855 328v-328h-477q-183 0 -296.5 81.5t-139.5 246.5h-334l-166 -328h-442l758 1290h1089v-327h-557v-156h514v-328h-514v-37q0 -65 37 -89.5t100 -24.5h428zM774 655h162v320z" />
    <glyph glyph-name="Ccedilla" unicode="&#xc7;" horiz-adv-x="1372" 
d="M909 416h402q0 -169 -151.5 -296.5t-383.5 -142.5l-22 -88q101 0 158 -53t57 -127q0 -88 -78 -154.5t-219 -66.5q-123 0 -199 39l68 154q2 -1 14.5 -7t16 -7.5t15 -6t18 -6t17 -4t20 -3.5t20.5 -1q40 0 65 20.5t25 52.5q0 29 -21 47t-55 17h-55l-64 84l35 117
q-252 37 -391.5 208t-139.5 449q0 316 175.5 495t484.5 179q126 0 235.5 -36t185 -97t118.5 -141t43 -167h-402q-14 49 -58.5 84t-121.5 35q-144 0 -224.5 -95t-80.5 -263q0 -159 80.5 -248.5t224.5 -89.5q78 0 126 35.5t62 83.5z" />
    <glyph glyph-name="Egrave" unicode="&#xc8;" horiz-adv-x="1153" 
d="M344 1794l518 -213l-76 -197l-538 162zM1022 963h-557v-156h514v-328h-514v-37q0 -65 37 -89.5t100 -24.5h428v-328h-477q-208 0 -325 104.5t-117 315.5v870h911v-327z" />
    <glyph glyph-name="Eacute" unicode="&#xc9;" horiz-adv-x="1153" 
d="M340 1382l-76 197l518 213l97 -248zM1022 963h-557v-156h514v-328h-514v-37q0 -65 37 -89.5t100 -24.5h428v-328h-477q-208 0 -325 104.5t-117 315.5v870h911v-327z" />
    <glyph glyph-name="Ecircumflex" unicode="&#xca;" horiz-adv-x="1153" 
d="M942 1528l-145 -139l-234 163l-233 -163l-146 139l291 254h176zM1022 963h-557v-156h514v-328h-514v-37q0 -65 37 -89.5t100 -24.5h428v-328h-477q-208 0 -325 104.5t-117 315.5v870h911v-327z" />
    <glyph glyph-name="Edieresis" unicode="&#xcb;" horiz-adv-x="1153" 
d="M360 1718q62 0 107 -40t45 -111q0 -70 -45.5 -110t-106.5 -40t-106 40t-45 110q0 71 45 111t106 40zM766 1718q62 0 107 -40t45 -111q0 -70 -45.5 -110t-106.5 -40t-106.5 40t-45.5 110q0 71 45 111t107 40zM1022 963h-557v-156h514v-328h-514v-37q0 -65 37 -89.5
t100 -24.5h428v-328h-477q-208 0 -325 104.5t-117 315.5v870h911v-327z" />
    <glyph glyph-name="Igrave" unicode="&#xcc;" horiz-adv-x="575" 
d="M70 1794l518 -213l-76 -197l-539 162zM465 0h-354v1290h354v-1290z" />
    <glyph glyph-name="Iacute" unicode="&#xcd;" horiz-adv-x="575" 
d="M66 1382l-76 197l518 213l96 -248zM465 0h-354v1290h354v-1290z" />
    <glyph glyph-name="Icircumflex" unicode="&#xce;" horiz-adv-x="575" 
d="M668 1528l-146 -139l-233 163l-234 -163l-145 139l291 254h176zM465 0h-354v1290h354v-1290z" />
    <glyph glyph-name="Idieresis" unicode="&#xcf;" horiz-adv-x="575" 
d="M86 1718q62 0 107 -40t45 -111q0 -70 -45.5 -110t-106.5 -40t-106.5 40t-45.5 110q0 71 45 111t107 40zM492 1718q61 0 106 -40t45 -111q0 -70 -45 -110t-106 -40t-106.5 40t-45.5 110q0 71 45 111t107 40zM465 0h-354v1290h354v-1290z" />
    <glyph glyph-name="Eth" unicode="&#xd0;" horiz-adv-x="1372" 
d="M111 1290h510q168 0 303 -53.5t217.5 -143.5t126 -202.5t43.5 -237.5q0 -99 -26 -192t-81.5 -177t-135 -147t-195 -100t-252.5 -37h-510v522h-140v240h140v528zM465 328h156q173 0 254 90.5t81 236.5q0 136 -85.5 222t-249.5 86h-156v-201h221v-240h-221v-194z" />
    <glyph glyph-name="Ntilde" unicode="&#xd1;" horiz-adv-x="1429" 
d="M981 1745l178 -59q-80 -271 -295 -271q-68 0 -167 31t-136 31q-65 0 -106 -88l-187 100q11 31 33 66.5t54 72t76 60.5t89 24q57 0 173.5 -31.5t162.5 -31.5q49 0 75.5 23t49.5 73zM1319 0h-272l-582 678v-678h-354v1290h305l549 -633v633h354v-1290z" />
    <glyph glyph-name="Ograve" unicode="&#xd2;" horiz-adv-x="1482" 
d="M522 1794l518 -213l-75 -197l-539 162zM741 1315q318 0 499 -179t181 -495q0 -313 -180.5 -489.5t-499.5 -176.5t-499.5 176.5t-180.5 489.5q0 316 181 495t499 179zM741 993q-153 0 -239 -95t-86 -263q0 -159 86 -248.5t239 -89.5t239.5 89.5t86.5 248.5
q0 168 -86.5 263t-239.5 95z" />
    <glyph glyph-name="Oacute" unicode="&#xd3;" horiz-adv-x="1482" 
d="M518 1382l-76 197l519 213l96 -248zM741 1315q318 0 499 -179t181 -495q0 -313 -180.5 -489.5t-499.5 -176.5t-499.5 176.5t-180.5 489.5q0 316 181 495t499 179zM741 993q-153 0 -239 -95t-86 -263q0 -159 86 -248.5t239 -89.5t239.5 89.5t86.5 248.5q0 168 -86.5 263
t-239.5 95z" />
    <glyph glyph-name="Ocircumflex" unicode="&#xd4;" horiz-adv-x="1482" 
d="M1120 1528l-145 -139l-234 163l-233 -163l-146 139l291 254h176zM741 1315q318 0 499 -179t181 -495q0 -313 -180.5 -489.5t-499.5 -176.5t-499.5 176.5t-180.5 489.5q0 316 181 495t499 179zM741 993q-153 0 -239 -95t-86 -263q0 -159 86 -248.5t239 -89.5t239.5 89.5
t86.5 248.5q0 168 -86.5 263t-239.5 95z" />
    <glyph glyph-name="Otilde" unicode="&#xd5;" horiz-adv-x="1482" 
d="M1008 1745l178 -59q-80 -271 -295 -271q-68 0 -167 31t-136 31q-66 0 -107 -88l-186 100q11 31 33 66.5t54 72t76 60.5t89 24q57 0 173.5 -31.5t162.5 -31.5q49 0 75.5 23t49.5 73zM741 1315q318 0 499 -179t181 -495q0 -313 -180.5 -489.5t-499.5 -176.5t-499.5 176.5
t-180.5 489.5q0 316 181 495t499 179zM741 993q-153 0 -239 -95t-86 -263q0 -159 86 -248.5t239 -89.5t239.5 89.5t86.5 248.5q0 168 -86.5 263t-239.5 95z" />
    <glyph glyph-name="Odieresis" unicode="&#xd6;" horiz-adv-x="1482" 
d="M539 1718q61 0 106 -40t45 -111q0 -70 -45 -110t-106 -40t-106.5 40t-45.5 110q0 71 45 111t107 40zM944 1718q62 0 107 -40t45 -111q0 -70 -45.5 -110t-106.5 -40t-106 40t-45 110q0 71 45 111t106 40zM741 1315q318 0 499 -179t181 -495q0 -313 -180.5 -489.5
t-499.5 -176.5t-499.5 176.5t-180.5 489.5q0 316 181 495t499 179zM741 993q-153 0 -239 -95t-86 -263q0 -159 86 -248.5t239 -89.5t239.5 89.5t86.5 248.5q0 168 -86.5 263t-239.5 95z" />
    <glyph glyph-name="multiply" unicode="&#xd7;" horiz-adv-x="1040" 
d="M735 625l238 -238l-215 -215l-238 238l-237 -238l-215 215l237 238l-237 237l215 215l237 -237l238 237l215 -215z" />
    <glyph glyph-name="Oslash" unicode="&#xd8;" horiz-adv-x="1482" 
d="M1329 1421l-147 -235q116 -87 177.5 -225t61.5 -320q0 -313 -180.5 -489.5t-499.5 -176.5q-154 0 -284 45l-142 -227l-163 72l147 237q-115 86 -176.5 222.5t-61.5 316.5q0 316 181 495t499 179q155 0 285 -45l139 223zM416 635q0 -146 71 -232l359 576q-46 14 -105 14
q-153 0 -239 -95t-86 -263zM741 297q153 0 239.5 89.5t86.5 248.5q0 152 -74 248l-356 -574q49 -12 104 -12z" />
    <glyph glyph-name="Ugrave" unicode="&#xd9;" horiz-adv-x="1470" 
d="M516 1794l518 -213l-76 -197l-538 162zM1360 1290v-676q0 -323 -158 -481t-452 -158q-138 0 -252.5 38.5t-201.5 115t-136 200.5t-49 285v676h354v-676q0 -317 285 -317q60 0 106 16.5t74 44.5t45.5 69.5t24 86t6.5 100.5v676h354z" />
    <glyph glyph-name="Uacute" unicode="&#xda;" horiz-adv-x="1470" 
d="M512 1382l-76 197l518 213l97 -248zM1360 1290v-676q0 -323 -158 -481t-452 -158q-138 0 -252.5 38.5t-201.5 115t-136 200.5t-49 285v676h354v-676q0 -317 285 -317q60 0 106 16.5t74 44.5t45.5 69.5t24 86t6.5 100.5v676h354z" />
    <glyph glyph-name="Ucircumflex" unicode="&#xdb;" horiz-adv-x="1470" 
d="M1114 1528l-145 -139l-234 163l-233 -163l-146 139l291 254h176zM1360 1290v-676q0 -323 -158 -481t-452 -158q-138 0 -252.5 38.5t-201.5 115t-136 200.5t-49 285v676h354v-676q0 -317 285 -317q60 0 106 16.5t74 44.5t45.5 69.5t24 86t6.5 100.5v676h354z" />
    <glyph glyph-name="Udieresis" unicode="&#xdc;" horiz-adv-x="1470" 
d="M532 1718q62 0 107 -40t45 -111q0 -70 -45.5 -110t-106.5 -40t-106 40t-45 110q0 71 45 111t106 40zM938 1718q62 0 107 -40t45 -111q0 -70 -45.5 -110t-106.5 -40t-106.5 40t-45.5 110q0 71 45 111t107 40zM1360 1290v-676q0 -323 -158 -481t-452 -158
q-138 0 -252.5 38.5t-201.5 115t-136 200.5t-49 285v676h354v-676q0 -317 285 -317q60 0 106 16.5t74 44.5t45.5 69.5t24 86t6.5 100.5v676h354z" />
    <glyph glyph-name="Yacute" unicode="&#xdd;" horiz-adv-x="1464" 
d="M510 1382l-76 197l518 213l97 -248zM891 506v-506h-354v506l-517 784h422l283 -467l285 467h434z" />
    <glyph glyph-name="Thorn" unicode="&#xde;" horiz-adv-x="1280" 
d="M465 1133h256q120 0 217 -42t157 -110t92.5 -155.5t32.5 -179t-32.5 -179t-92.5 -155.5t-157 -110t-217 -42h-256v-160h-354v1290h354v-157zM465 805v-318h246q46 0 82.5 17.5t55.5 45.5t27.5 62t0 68t-27.5 62t-55.5 45.5t-82.5 17.5h-246z" />
    <glyph glyph-name="germandbls" unicode="&#xdf;" horiz-adv-x="1374" 
d="M940 236q45 0 70.5 15t25.5 38q0 27 -36.5 43t-91 22t-118 22.5t-118 40.5t-91 79t-36.5 135q0 55 28.5 103t69.5 81.5t82 62t69.5 58.5t28.5 59q0 43 -41.5 76t-100.5 42.5t-118.5 2t-101 -46.5t-41.5 -102v-967h-328v954q0 177 110.5 293t268.5 140.5t315.5 -2
t268 -129.5t110.5 -246q0 -47 -21.5 -89t-54.5 -70.5t-70.5 -55t-70.5 -45t-54.5 -39.5t-21.5 -39q0 -24 27 -37.5t70.5 -19.5t96 -13t105 -25t96 -47.5t70.5 -87t27 -137.5q0 -98 -61 -174.5t-157 -116t-208 -39.5q-230 0 -343 90.5t-118 256.5h322q0 -37 37.5 -61.5
t103.5 -24.5z" />
    <glyph glyph-name="agrave" unicode="&#xe0;" horiz-adv-x="1189" 
d="M422 1513l518 -213l-76 -196l-538 162zM1098 0h-328v78q-27 -23 -48.5 -37t-57.5 -31.5t-84 -26t-107 -8.5q-84 0 -158.5 29.5t-134 86t-94.5 148t-35 207.5q0 122 35 221.5t95.5 166.5t142.5 113t174 66.5t194 20.5q206 0 406 -86v-948zM770 408v309q-68 18 -123 18
q-88 0 -151 -42t-90 -102t-27 -128q0 -94 44.5 -148.5t129.5 -54.5q67 0 126 45t91 103z" />
    <glyph glyph-name="aacute" unicode="&#xe1;" horiz-adv-x="1189" 
d="M418 1102l-76 196l518 213l96 -247zM1098 0h-328v78q-27 -23 -48.5 -37t-57.5 -31.5t-84 -26t-107 -8.5q-84 0 -158.5 29.5t-134 86t-94.5 148t-35 207.5q0 122 35 221.5t95.5 166.5t142.5 113t174 66.5t194 20.5q206 0 406 -86v-948zM770 408v309q-68 18 -123 18
q-88 0 -151 -42t-90 -102t-27 -128q0 -94 44.5 -148.5t129.5 -54.5q67 0 126 45t91 103z" />
    <glyph glyph-name="acircumflex" unicode="&#xe2;" horiz-adv-x="1189" 
d="M1020 1247l-146 -139l-233 164l-233 -164l-146 139l291 254h176zM1098 0h-328v78q-27 -23 -48.5 -37t-57.5 -31.5t-84 -26t-107 -8.5q-84 0 -158.5 29.5t-134 86t-94.5 148t-35 207.5q0 122 35 221.5t95.5 166.5t142.5 113t174 66.5t194 20.5q206 0 406 -86v-948z
M770 408v309q-68 18 -123 18q-88 0 -151 -42t-90 -102t-27 -128q0 -94 44.5 -148.5t129.5 -54.5q67 0 126 45t91 103z" />
    <glyph glyph-name="atilde" unicode="&#xe3;" horiz-adv-x="1189" 
d="M907 1464l178 -59q-80 -270 -294 -270q-68 0 -167.5 30.5t-136.5 30.5q-65 0 -106 -88l-186 100q11 31 33 66.5t53.5 72.5t75.5 61t89 24q57 0 173.5 -32t162.5 -32q49 0 75.5 23t49.5 73zM1098 0h-328v78q-27 -23 -48.5 -37t-57.5 -31.5t-84 -26t-107 -8.5
q-84 0 -158.5 29.5t-134 86t-94.5 148t-35 207.5q0 122 35 221.5t95.5 166.5t142.5 113t174 66.5t194 20.5q206 0 406 -86v-948zM770 408v309q-68 18 -123 18q-88 0 -151 -42t-90 -102t-27 -128q0 -94 44.5 -148.5t129.5 -54.5q67 0 126 45t91 103z" />
    <glyph glyph-name="adieresis" unicode="&#xe4;" horiz-adv-x="1189" 
d="M438 1438q61 0 106.5 -40.5t45.5 -111.5q0 -70 -45.5 -109.5t-106.5 -39.5t-106 39.5t-45 109.5q0 71 45 111.5t106 40.5zM844 1438q61 0 106 -40.5t45 -111.5q0 -70 -45 -109.5t-106 -39.5t-106.5 39.5t-45.5 109.5q0 71 45.5 111.5t106.5 40.5zM1098 0h-328v78
q-27 -23 -48.5 -37t-57.5 -31.5t-84 -26t-107 -8.5q-84 0 -158.5 29.5t-134 86t-94.5 148t-35 207.5q0 122 35 221.5t95.5 166.5t142.5 113t174 66.5t194 20.5q206 0 406 -86v-948zM770 408v309q-68 18 -123 18q-88 0 -151 -42t-90 -102t-27 -128q0 -94 44.5 -148.5
t129.5 -54.5q67 0 126 45t91 103z" />
    <glyph glyph-name="aring" unicode="&#xe5;" horiz-adv-x="1189" 
d="M641 1479q86 0 147.5 -50t61.5 -143t-61.5 -142.5t-147.5 -49.5t-147.5 49.5t-61.5 142.5t61.5 143t147.5 50zM641 1356q-38 0 -59 -18.5t-21 -51.5q0 -32 21 -50.5t59 -18.5t59 18.5t21 50.5q0 33 -21 51.5t-59 18.5zM1098 0h-328v78q-27 -23 -48.5 -37t-57.5 -31.5
t-84 -26t-107 -8.5q-84 0 -158.5 29.5t-134 86t-94.5 148t-35 207.5q0 122 35 221.5t95.5 166.5t142.5 113t174 66.5t194 20.5q206 0 406 -86v-948zM770 408v309q-68 18 -123 18q-88 0 -151 -42t-90 -102t-27 -128q0 -94 44.5 -148.5t129.5 -54.5q67 0 126 45t91 103z" />
    <glyph glyph-name="ae" unicode="&#xe6;" horiz-adv-x="2037" 
d="M1419 1034q155 0 278.5 -63.5t191 -170.5t67.5 -235v-155h-725q47 -148 219 -148q134 0 166 60h338q-14 -114 -85.5 -194t-174.5 -116.5t-230 -36.5q-217 0 -366 109v-84h-328v78q-27 -23 -48.5 -37t-57.5 -31.5t-84 -26t-107 -8.5q-82 0 -158.5 38.5t-135 106.5
t-93.5 169t-35 217t35 216.5t93.5 168t135 105.5t158.5 38q77 0 139 -17.5t91.5 -35.5t66.5 -49v78h328v-74q140 98 321 98zM1434 786q-68 0 -118 -34t-75 -97h393q-43 131 -200 131zM553 750q-174 0 -174 -244q0 -246 174 -246q67 0 125.5 32.5t91.5 74.5v276
q-33 42 -91.5 74.5t-125.5 32.5z" />
    <glyph glyph-name="ccedilla" unicode="&#xe7;" horiz-adv-x="1114" 
d="M715 356h338q-15 -151 -127.5 -251.5t-274.5 -122.5l-24 -93q101 0 158 -53t57 -127q0 -88 -78 -154.5t-219 -66.5q-123 0 -199 39l68 154q2 -1 14.5 -7t16 -7.5t15 -6t18 -6t17 -4t20 -3.5t20.5 -1q40 0 65 20.5t25 52.5q0 29 -21 47t-55 17h-55l-64 84l35 117
q-186 31 -300 164t-114 354q0 234 146 383t374 149q121 0 226 -49t171.5 -139t75.5 -203h-337q-6 40 -42.5 66t-93.5 26q-192 0 -192 -233q0 -112 52.5 -170t150.5 -58q54 0 90 22t43 60z" />
    <glyph glyph-name="egrave" unicode="&#xe8;" horiz-adv-x="1191" 
d="M809 1104l-539 162l97 247l518 -213zM582 1034q269 0 414 -176t122 -469h-712q54 -127 206 -127q134 0 166 60h338q-21 -169 -157.5 -258t-331.5 -89q-257 0 -416.5 148.5t-159.5 392.5q0 113 42 210.5t113.5 164.5t169 105t206.5 38zM391 635h395q-13 66 -61 108.5
t-129 42.5q-76 0 -130 -38.5t-75 -112.5z" />
    <glyph glyph-name="eacute" unicode="&#xe9;" horiz-adv-x="1191" 
d="M362 1102l-75 196l518 213l96 -247zM582 1034q269 0 414 -176t122 -469h-712q54 -127 206 -127q134 0 166 60h338q-21 -169 -157.5 -258t-331.5 -89q-257 0 -416.5 148.5t-159.5 392.5q0 113 42 210.5t113.5 164.5t169 105t206.5 38zM391 635h395q-13 66 -61 108.5
t-129 42.5q-76 0 -130 -38.5t-75 -112.5z" />
    <glyph glyph-name="ecircumflex" unicode="&#xea;" horiz-adv-x="1191" 
d="M352 1108l-145 139l291 254h176l291 -254l-146 -139l-233 164zM582 1034q269 0 414 -176t122 -469h-712q54 -127 206 -127q134 0 166 60h338q-21 -169 -157.5 -258t-331.5 -89q-257 0 -416.5 148.5t-159.5 392.5q0 113 42 210.5t113.5 164.5t169 105t206.5 38zM391 635
h395q-13 66 -61 108.5t-129 42.5q-76 0 -130 -38.5t-75 -112.5z" />
    <glyph glyph-name="edieresis" unicode="&#xeb;" horiz-adv-x="1191" 
d="M383 1137q-61 0 -106.5 39.5t-45.5 109.5q0 71 45.5 111.5t106.5 40.5t106.5 -40.5t45.5 -111.5q0 -70 -45.5 -109.5t-106.5 -39.5zM788 1137q-61 0 -106 39.5t-45 109.5q0 71 45 111.5t106 40.5t106.5 -40.5t45.5 -111.5q0 -70 -45.5 -109.5t-106.5 -39.5zM582 1034
q269 0 414 -176t122 -469h-712q54 -127 206 -127q134 0 166 60h338q-21 -169 -157.5 -258t-331.5 -89q-257 0 -416.5 148.5t-159.5 392.5q0 113 42 210.5t113.5 164.5t169 105t206.5 38zM391 635h395q-13 66 -61 108.5t-129 42.5q-76 0 -130 -38.5t-75 -112.5z" />
    <glyph glyph-name="igrave" unicode="&#xec;" 
d="M37 1513l518 -213l-76 -196l-538 162zM420 0h-328v1010h328v-1010z" />
    <glyph glyph-name="iacute" unicode="&#xed;" 
d="M33 1102l-76 196l518 213l96 -247zM420 0h-328v1010h328v-1010z" />
    <glyph glyph-name="icircumflex" unicode="&#xee;" 
d="M635 1247l-146 -139l-233 164l-233 -164l-146 139l291 254h176zM420 0h-328v1010h328v-1010z" />
    <glyph glyph-name="idieresis" unicode="&#xef;" 
d="M53 1438q61 0 106.5 -40.5t45.5 -111.5q0 -70 -45.5 -109.5t-106.5 -39.5t-106 39.5t-45 109.5q0 71 45 111.5t106 40.5zM459 1438q61 0 106 -40.5t45 -111.5q0 -70 -45 -109.5t-106 -39.5t-106.5 39.5t-45.5 109.5q0 71 45.5 111.5t106.5 40.5zM420 0h-328v1010h328
v-1010z" />
    <glyph glyph-name="eth" unicode="&#xf0;" horiz-adv-x="1130" 
d="M791 1386l-72 -94q107 -90 178.5 -182.5t111 -190.5t55 -194t15.5 -215q0 -241 -135.5 -388t-376.5 -147q-127 0 -227.5 42t-162.5 113.5t-94 160t-32 186.5q0 229 140.5 362.5t351.5 133.5q51 0 107 -16t73 -29q-23 43 -87 82.5t-122 64.5l-59 -88l-158 86l55 76
q-67 31 -139 51l113 244q128 -21 223 -66l63 90zM567 674q-90 0 -139 -54.5t-49 -138.5q0 -87 49.5 -147t138.5 -60q88 0 136.5 60t48.5 147q0 84 -48 138.5t-137 54.5z" />
    <glyph glyph-name="ntilde" unicode="&#xf1;" horiz-adv-x="1206" 
d="M831 1464l179 -59q-80 -270 -295 -270q-68 0 -167 30.5t-136 30.5q-66 0 -107 -88l-186 100q11 31 33 67t54 72.5t76 60.5t89 24q57 0 173.5 -32t162.5 -32q49 0 75 23t49 73zM92 0v930q301 102 531 102q85 0 155.5 -14.5t134 -50t107 -90.5t69 -140.5t25.5 -195.5v-541
h-328v575q0 158 -180 158q-83 0 -190 -26v-707h-324z" />
    <glyph glyph-name="ograve" unicode="&#xf2;" horiz-adv-x="1155" 
d="M358 1513l519 -213l-76 -196l-539 162zM578 1034q165 0 286 -72t180.5 -190.5t59.5 -267.5q0 -112 -33.5 -207.5t-97.5 -167.5t-165.5 -113t-229.5 -41t-229.5 41t-166 113t-98 167.5t-33.5 207.5q0 111 35 207t100.5 168t166.5 113.5t225 41.5zM578 735
q-104 0 -151.5 -64t-47.5 -167q0 -104 47.5 -167t151.5 -63t151 63t47 167q0 103 -47.5 167t-150.5 64z" />
    <glyph glyph-name="oacute" unicode="&#xf3;" horiz-adv-x="1155" 
d="M354 1102l-75 196l518 213l96 -247zM578 1034q165 0 286 -72t180.5 -190.5t59.5 -267.5q0 -112 -33.5 -207.5t-97.5 -167.5t-165.5 -113t-229.5 -41t-229.5 41t-166 113t-98 167.5t-33.5 207.5q0 111 35 207t100.5 168t166.5 113.5t225 41.5zM578 735q-104 0 -151.5 -64
t-47.5 -167q0 -104 47.5 -167t151.5 -63t151 63t47 167q0 103 -47.5 167t-150.5 64z" />
    <glyph glyph-name="ocircumflex" unicode="&#xf4;" horiz-adv-x="1155" 
d="M956 1247l-145 -139l-233 164l-234 -164l-145 139l290 254h177zM578 1034q165 0 286 -72t180.5 -190.5t59.5 -267.5q0 -112 -33.5 -207.5t-97.5 -167.5t-165.5 -113t-229.5 -41t-229.5 41t-166 113t-98 167.5t-33.5 207.5q0 111 35 207t100.5 168t166.5 113.5t225 41.5z
M578 735q-104 0 -151.5 -64t-47.5 -167q0 -104 47.5 -167t151.5 -63t151 63t47 167q0 103 -47.5 167t-150.5 64z" />
    <glyph glyph-name="otilde" unicode="&#xf5;" horiz-adv-x="1155" 
d="M844 1464l178 -59q-80 -270 -295 -270q-68 0 -167 30.5t-136 30.5q-66 0 -107 -88l-186 100q11 31 33 67t54 72.5t76 60.5t89 24q57 0 173.5 -32t162.5 -32q49 0 75.5 23t49.5 73zM578 1034q165 0 286 -72t180.5 -190.5t59.5 -267.5q0 -112 -33.5 -207.5t-97.5 -167.5
t-165.5 -113t-229.5 -41t-229.5 41t-166 113t-98 167.5t-33.5 207.5q0 111 35 207t100.5 168t166.5 113.5t225 41.5zM578 735q-104 0 -151.5 -64t-47.5 -167q0 -104 47.5 -167t151.5 -63t151 63t47 167q0 103 -47.5 167t-150.5 64z" />
    <glyph glyph-name="odieresis" unicode="&#xf6;" horiz-adv-x="1155" 
d="M375 1438q61 0 106 -40.5t45 -111.5q0 -70 -45 -109.5t-106 -39.5t-106.5 39.5t-45.5 109.5q0 71 45.5 111.5t106.5 40.5zM780 1438q61 0 106.5 -40.5t45.5 -111.5q0 -70 -45.5 -109.5t-106.5 -39.5t-106 39.5t-45 109.5q0 71 45 111.5t106 40.5zM578 1034q165 0 286 -72
t180.5 -190.5t59.5 -267.5q0 -112 -33.5 -207.5t-97.5 -167.5t-165.5 -113t-229.5 -41t-229.5 41t-166 113t-98 167.5t-33.5 207.5q0 111 35 207t100.5 168t166.5 113.5t225 41.5zM578 735q-104 0 -151.5 -64t-47.5 -167q0 -104 47.5 -167t151.5 -63t151 63t47 167
q0 103 -47.5 167t-150.5 64z" />
    <glyph glyph-name="divide" unicode="&#xf7;" horiz-adv-x="1001" 
d="M674 1057q0 -80 -51 -125t-121 -45t-121 45t-51 125q0 81 51 126.5t121 45.5t121 -45.5t51 -126.5zM934 471h-866v305h866v-305zM674 188q0 -80 -51 -125t-121 -45t-121 45t-51 125q0 81 51 126.5t121 45.5t121 -45.5t51 -126.5z" />
    <glyph glyph-name="oslash" unicode="&#xf8;" horiz-adv-x="1155" 
d="M1063 1075l-113 -178q154 -151 154 -393q0 -112 -33.5 -207.5t-97.5 -167.5t-165.5 -113t-229.5 -41q-96 0 -189 27l-110 -176l-168 98l106 170q-166 147 -166 410q0 111 35 207t100.5 168t166.5 113.5t225 41.5q115 0 208 -35l109 175zM379 504q0 -71 20 -121l219 350
q-12 2 -40 2q-104 0 -151.5 -64t-47.5 -167zM561 274h17q104 0 151 63t47 167q0 59 -12 96z" />
    <glyph glyph-name="ugrave" unicode="&#xf9;" horiz-adv-x="1175" 
d="M369 1513l518 -213l-76 -196l-539 162zM1083 1010v-549q0 -128 -37.5 -223.5t-105.5 -152t-155.5 -83.5t-196.5 -27t-196.5 27t-156 83.5t-106 152t-37.5 223.5v549h328v-559q0 -82 38 -127t130 -45t130 45t38 127v559h327z" />
    <glyph glyph-name="uacute" unicode="&#xfa;" horiz-adv-x="1175" 
d="M365 1102l-76 196l518 213l96 -247zM1083 1010v-549q0 -128 -37.5 -223.5t-105.5 -152t-155.5 -83.5t-196.5 -27t-196.5 27t-156 83.5t-106 152t-37.5 223.5v549h328v-559q0 -82 38 -127t130 -45t130 45t38 127v559h327z" />
    <glyph glyph-name="ucircumflex" unicode="&#xfb;" horiz-adv-x="1175" 
d="M967 1247l-146 -139l-233 164l-234 -164l-145 139l291 254h176zM1083 1010v-549q0 -128 -37.5 -223.5t-105.5 -152t-155.5 -83.5t-196.5 -27t-196.5 27t-156 83.5t-106 152t-37.5 223.5v549h328v-559q0 -82 38 -127t130 -45t130 45t38 127v559h327z" />
    <glyph glyph-name="udieresis" unicode="&#xfc;" horiz-adv-x="1175" 
d="M385 1438q61 0 106.5 -40.5t45.5 -111.5q0 -70 -45.5 -109.5t-106.5 -39.5t-106.5 39.5t-45.5 109.5q0 71 45.5 111.5t106.5 40.5zM791 1438q61 0 106 -40.5t45 -111.5q0 -70 -45 -109.5t-106 -39.5t-106.5 39.5t-45.5 109.5q0 71 45.5 111.5t106.5 40.5zM1083 1010v-549
q0 -128 -37.5 -223.5t-105.5 -152t-155.5 -83.5t-196.5 -27t-196.5 27t-156 83.5t-106 152t-37.5 223.5v549h328v-559q0 -82 38 -127t130 -45t130 45t38 127v559h327z" />
    <glyph glyph-name="yacute" unicode="&#xfd;" horiz-adv-x="1196" 
d="M367 1102l-76 196l518 213l96 -247zM1104 1010v-944q0 -138 -74.5 -247t-205.5 -169t-296 -60q-247 0 -436 129l164 254q114 -84 272 -84q102 0 175 48.5t73 121.5v39q-95 -82 -274 -82q-59 0 -113.5 12.5t-107.5 42.5t-92 76t-63 119.5t-24 165.5v578h328v-539
q0 -156 141 -156q66 0 122.5 36.5t82.5 88.5v570h328z" />
    <glyph glyph-name="thorn" unicode="&#xfe;" horiz-adv-x="1196" 
d="M420 1290v-284q92 28 198 28q128 0 229.5 -41t166 -113t98 -167t33.5 -207q0 -109 -32.5 -202t-87.5 -157t-128.5 -106.5t-153 -56.5t-164 -0.5t-159.5 55.5v-424h-328v1675h328zM618 735q-198 0 -198 -215v-164q77 -75 171 -81.5t160 57t66 174.5q0 104 -47.5 166.5
t-151.5 62.5z" />
    <glyph glyph-name="ydieresis" unicode="&#xff;" horiz-adv-x="1196" 
d="M387 1438q61 0 106.5 -40.5t45.5 -111.5q0 -70 -45.5 -109.5t-106.5 -39.5t-106 39.5t-45 109.5q0 71 45 111.5t106 40.5zM793 1438q61 0 106 -40.5t45 -111.5q0 -70 -45 -109.5t-106 -39.5t-106.5 39.5t-45.5 109.5q0 71 45.5 111.5t106.5 40.5zM1104 1010v-944
q0 -138 -74.5 -247t-205.5 -169t-296 -60q-247 0 -436 129l164 254q114 -84 272 -84q102 0 175 48.5t73 121.5v39q-95 -82 -274 -82q-59 0 -113.5 12.5t-107.5 42.5t-92 76t-63 119.5t-24 165.5v578h328v-539q0 -156 141 -156q66 0 122.5 36.5t82.5 88.5v570h328z" />
    <glyph glyph-name="Amacron" unicode="&#x100;" horiz-adv-x="1519" 
d="M1100 1411h-682v221h682v-221zM1012 209h-504l-70 -209h-397l516 1290l412 -2l510 -1288h-385zM881 537l-144 364l-121 -364h265z" />
    <glyph glyph-name="amacron" unicode="&#x101;" horiz-adv-x="1189" 
d="M981 1130h-682v222h682v-222zM1098 0h-328v78q-27 -23 -48.5 -37t-57.5 -31.5t-84 -26t-107 -8.5q-84 0 -158.5 29.5t-134 86t-94.5 148t-35 207.5q0 122 35 221.5t95.5 166.5t142.5 113t174 66.5t194 20.5q206 0 406 -86v-948zM770 408v309q-68 18 -123 18
q-88 0 -151 -42t-90 -102t-27 -128q0 -94 44.5 -148.5t129.5 -54.5q67 0 126 45t91 103z" />
    <glyph glyph-name="Abreve" unicode="&#x102;" horiz-adv-x="1519" 
d="M760 1391q-157 0 -257 88t-100 252h240q0 -61 30.5 -95t86.5 -34t86.5 34t30.5 95h239q0 -164 -99.5 -252t-256.5 -88zM1012 209h-504l-70 -209h-397l516 1290l412 -2l510 -1288h-385zM881 537l-144 364l-121 -364h265z" />
    <glyph glyph-name="abreve" unicode="&#x103;" horiz-adv-x="1189" 
d="M758 1450h239q0 -164 -99.5 -252t-256.5 -88t-256.5 88t-99.5 252h239q0 -61 30.5 -95t86.5 -34t86.5 34t30.5 95zM1098 0h-328v78q-27 -23 -48.5 -37t-57.5 -31.5t-84 -26t-107 -8.5q-84 0 -158.5 29.5t-134 86t-94.5 148t-35 207.5q0 122 35 221.5t95.5 166.5
t142.5 113t174 66.5t194 20.5q206 0 406 -86v-948zM770 408v309q-68 18 -123 18q-88 0 -151 -42t-90 -102t-27 -128q0 -94 44.5 -148.5t129.5 -54.5q67 0 126 45t91 103z" />
    <glyph glyph-name="Aogonek" unicode="&#x104;" horiz-adv-x="1519" 
d="M1294 -217q29 0 62 29l100 -138q-40 -36 -97 -60t-118 -24q-113 0 -172 54t-59 137q0 85 84 219l-82 209h-504l-70 -209h-397l516 1290l412 -2l510 -1288h-174q-54 -106 -54 -168q0 -49 43 -49zM881 537l-144 364l-121 -364h265z" />
    <glyph glyph-name="aogonek" unicode="&#x105;" horiz-adv-x="1189" 
d="M1087 -188l101 -138q-40 -36 -97 -60t-118 -24q-113 0 -172.5 54t-59.5 137q0 85 84 219h-55v78q-27 -23 -48.5 -37t-57.5 -31.5t-84 -26t-107 -8.5q-84 0 -158.5 29.5t-134 86t-94.5 148t-35 207.5q0 122 35 221.5t95.5 166.5t142.5 113t174 66.5t194 20.5
q206 0 406 -86v-948h-62q-53 -104 -53 -168q0 -49 43 -49q28 0 61 29zM770 408v309q-68 18 -123 18q-88 0 -151 -42t-90 -102t-27 -128q0 -94 44.5 -148.5t129.5 -54.5q67 0 126 45t91 103z" />
    <glyph glyph-name="Cacute" unicode="&#x106;" horiz-adv-x="1372" 
d="M500 1382l-76 197l518 213l96 -248zM721 1315q126 0 235.5 -36t185 -97t118.5 -141t43 -167h-402q-14 49 -58.5 84t-121.5 35q-144 0 -224.5 -95t-80.5 -263q0 -159 80.5 -248.5t224.5 -89.5q78 0 126 35.5t62 83.5h402q0 -87 -44.5 -167t-121 -140.5t-187.5 -97
t-237 -36.5q-309 0 -484.5 176.5t-175.5 489.5q0 316 175.5 495t484.5 179z" />
    <glyph glyph-name="cacute" unicode="&#x107;" horiz-adv-x="1114" 
d="M362 1102l-75 196l518 213l96 -247zM571 1034q121 0 226 -49t171.5 -139t75.5 -203h-337q-6 40 -42.5 66t-93.5 26q-192 0 -192 -233q0 -112 52.5 -170t150.5 -58q54 0 90 22t43 60h338q-11 -113 -80 -200.5t-174.5 -134t-227.5 -46.5q-109 0 -202.5 33.5t-165 97.5
t-112 166t-40.5 230q0 234 146 383t374 149z" />
    <glyph glyph-name="Cdotaccent" unicode="&#x10a;" horiz-adv-x="1372" 
d="M905 1640q0 -85 -54 -132.5t-128 -47.5q-73 0 -127.5 48t-54.5 132q0 86 54.5 133.5t127.5 47.5q75 0 128.5 -47.5t53.5 -133.5zM721 1315q126 0 235.5 -36t185 -97t118.5 -141t43 -167h-402q-14 49 -58.5 84t-121.5 35q-144 0 -224.5 -95t-80.5 -263q0 -159 80.5 -248.5
t224.5 -89.5q78 0 126 35.5t62 83.5h402q0 -87 -44.5 -167t-121 -140.5t-187.5 -97t-237 -36.5q-309 0 -484.5 176.5t-175.5 489.5q0 316 175.5 495t484.5 179z" />
    <glyph glyph-name="cdotaccent" unicode="&#x10b;" horiz-adv-x="1114" 
d="M768 1360q0 -85 -54 -132.5t-128 -47.5q-73 0 -128 48t-55 132q0 85 54.5 132.5t128.5 47.5q75 0 128.5 -47t53.5 -133zM571 1034q121 0 226 -49t171.5 -139t75.5 -203h-337q-6 40 -42.5 66t-93.5 26q-192 0 -192 -233q0 -112 52.5 -170t150.5 -58q54 0 90 22t43 60h338
q-11 -113 -80 -200.5t-174.5 -134t-227.5 -46.5q-109 0 -202.5 33.5t-165 97.5t-112 166t-40.5 230q0 234 146 383t374 149z" />
    <glyph glyph-name="Ccaron" unicode="&#x10c;" horiz-adv-x="1372" 
d="M1102 1642l-291 -253h-176l-291 253l145 140l234 -164l233 164zM721 1315q126 0 235.5 -36t185 -97t118.5 -141t43 -167h-402q-14 49 -58.5 84t-121.5 35q-144 0 -224.5 -95t-80.5 -263q0 -159 80.5 -248.5t224.5 -89.5q78 0 126 35.5t62 83.5h402q0 -87 -44.5 -167
t-121 -140.5t-187.5 -97t-237 -36.5q-309 0 -484.5 176.5t-175.5 489.5q0 316 175.5 495t484.5 179z" />
    <glyph glyph-name="ccaron" unicode="&#x10d;" horiz-adv-x="1114" 
d="M965 1362l-291 -254h-176l-291 254l145 139l234 -164l233 164zM571 1034q121 0 226 -49t171.5 -139t75.5 -203h-337q-6 40 -42.5 66t-93.5 26q-192 0 -192 -233q0 -112 52.5 -170t150.5 -58q54 0 90 22t43 60h338q-11 -113 -80 -200.5t-174.5 -134t-227.5 -46.5
q-109 0 -202.5 33.5t-165 97.5t-112 166t-40.5 230q0 234 146 383t374 149z" />
    <glyph glyph-name="Dcaron" unicode="&#x10e;" horiz-adv-x="1372" 
d="M930 1642l-291 -253h-176l-291 253l145 140l234 -164l233 164zM111 1290h510q168 0 303 -53.5t217.5 -143.5t126 -202.5t43.5 -237.5q0 -99 -26 -192t-81.5 -177t-135 -147t-195 -100t-252.5 -37h-510v1290zM465 963v-635h156q173 0 254 90.5t81 236.5q0 136 -85.5 222
t-249.5 86h-156z" />
    <glyph glyph-name="dcaron" unicode="&#x10f;" horiz-adv-x="1523" 
d="M776 1403v-432q-117 63 -237 63q-94 0 -181 -36t-156 -101.5t-110 -167.5t-41 -225q0 -112 33.5 -207.5t98 -167.5t166 -113t229.5 -41t229.5 41t165.5 113t97.5 167.5t33.5 207.5v899h-328zM1450 928l74 475h-269l-61 -475h256zM776 653v-164q0 -215 -198 -215
q-104 0 -151.5 63t-47.5 167q0 106 61 168.5t150 62.5q101 0 186 -82z" />
    <glyph glyph-name="Dcroat" unicode="&#x110;" horiz-adv-x="1372" 
d="M111 1290h510q168 0 303 -53.5t217.5 -143.5t126 -202.5t43.5 -237.5q0 -99 -26 -192t-81.5 -177t-135 -147t-195 -100t-252.5 -37h-510v522h-140v240h140v528zM465 328h156q173 0 254 90.5t81 236.5q0 136 -85.5 222t-249.5 86h-156v-201h221v-240h-221v-194z" />
    <glyph glyph-name="dcroat" unicode="&#x111;" horiz-adv-x="1196" 
d="M1235 1130h-131v-626q0 -112 -33.5 -207.5t-97.5 -167.5t-165.5 -113t-229.5 -41t-229.5 41t-166 113t-98 167.5t-33.5 207.5q0 123 41 225t110 167.5t156 101.5t181 36q120 0 237 -63v159h-223v160h223v113h328v-113h131v-160zM776 489v164q-85 82 -186 82
q-89 0 -150 -62.5t-61 -168.5q0 -104 47.5 -167t151.5 -63q198 0 198 215z" />
    <glyph glyph-name="Emacron" unicode="&#x112;" horiz-adv-x="1153" 
d="M903 1411h-682v221h682v-221zM1022 963h-557v-156h514v-328h-514v-37q0 -65 37 -89.5t100 -24.5h428v-328h-477q-208 0 -325 104.5t-117 315.5v870h911v-327z" />
    <glyph glyph-name="emacron" unicode="&#x113;" horiz-adv-x="1191" 
d="M926 1130h-682v222h682v-222zM582 1034q269 0 414 -176t122 -469h-712q54 -127 206 -127q134 0 166 60h338q-21 -169 -157.5 -258t-331.5 -89q-257 0 -416.5 148.5t-159.5 392.5q0 113 42 210.5t113.5 164.5t169 105t206.5 38zM391 635h395q-13 66 -61 108.5t-129 42.5
q-76 0 -130 -38.5t-75 -112.5z" />
    <glyph glyph-name="Edotaccent" unicode="&#x116;" horiz-adv-x="1153" 
d="M745 1640q0 -85 -54 -132.5t-128 -47.5q-73 0 -127.5 48t-54.5 132q0 86 54.5 133.5t127.5 47.5q75 0 128.5 -47.5t53.5 -133.5zM1022 963h-557v-156h514v-328h-514v-37q0 -65 37 -89.5t100 -24.5h428v-328h-477q-208 0 -325 104.5t-117 315.5v870h911v-327z" />
    <glyph glyph-name="edotaccent" unicode="&#x117;" horiz-adv-x="1191" 
d="M586 1180q-73 0 -128 48t-55 132q0 85 54.5 132.5t128.5 47.5q75 0 128.5 -47t53.5 -133q0 -85 -54 -132.5t-128 -47.5zM582 1034q269 0 414 -176t122 -469h-712q54 -127 206 -127q134 0 166 60h338q-21 -169 -157.5 -258t-331.5 -89q-257 0 -416.5 148.5t-159.5 392.5
q0 113 42 210.5t113.5 164.5t169 105t206.5 38zM391 635h395q-13 66 -61 108.5t-129 42.5q-76 0 -130 -38.5t-75 -112.5z" />
    <glyph glyph-name="Eogonek" unicode="&#x118;" horiz-adv-x="1153" 
d="M1085 -188l101 -138q-40 -36 -97 -60t-118 -24q-113 0 -172.5 54t-59.5 137q0 85 84 219h-270q-208 0 -325 104.5t-117 315.5v870h911v-327h-557v-156h514v-328h-514v-37q0 -65 37 -89.5t100 -24.5h428v-328h4q-53 -104 -53 -168q0 -49 43 -49q28 0 61 29z" />
    <glyph glyph-name="eogonek" unicode="&#x119;" horiz-adv-x="1191" 
d="M582 1034q269 0 414 -176t122 -469h-712q54 -127 206 -127q134 0 166 60h338q-18 -150 -129 -237t-278 -105q-43 -88 -43 -148q0 -49 43 -49q28 0 61 29l100 -138q-40 -36 -97 -60t-118 -24q-113 0 -172 54t-59 137q0 77 76 205q-206 36 -327.5 177.5t-121.5 352.5
q0 113 42 210.5t113.5 164.5t169 105t206.5 38zM391 635h395q-13 66 -61 108.5t-129 42.5q-76 0 -130 -38.5t-75 -112.5z" />
    <glyph glyph-name="Ecaron" unicode="&#x11a;" horiz-adv-x="1153" 
d="M942 1642l-291 -253h-176l-291 253l146 140l233 -164l234 164zM1022 963h-557v-156h514v-328h-514v-37q0 -65 37 -89.5t100 -24.5h428v-328h-477q-208 0 -325 104.5t-117 315.5v870h911v-327z" />
    <glyph glyph-name="ecaron" unicode="&#x11b;" horiz-adv-x="1191" 
d="M498 1108l-291 254l145 139l234 -164l233 164l146 -139l-291 -254h-176zM582 1034q269 0 414 -176t122 -469h-712q54 -127 206 -127q134 0 166 60h338q-21 -169 -157.5 -258t-331.5 -89q-257 0 -416.5 148.5t-159.5 392.5q0 113 42 210.5t113.5 164.5t169 105t206.5 38z
M391 635h395q-13 66 -61 108.5t-129 42.5q-76 0 -130 -38.5t-75 -112.5z" />
    <glyph glyph-name="Gbreve" unicode="&#x11e;" horiz-adv-x="1413" 
d="M809 1731h240q0 -164 -100 -252t-257 -88t-256.5 88t-99.5 252h239q0 -61 30.5 -95t86.5 -34t86.5 34t30.5 95zM721 1315q126 0 235.5 -36t185 -97t118.5 -141t43 -167h-402q-14 49 -58.5 84t-121.5 35q-144 0 -224.5 -95t-80.5 -263q0 -159 80.5 -248.5t224.5 -89.5
q81 0 130 13t91 42v113h-221v266h590v-543q-94 -98 -244.5 -155.5t-345.5 -57.5q-309 0 -484.5 176.5t-175.5 489.5q0 316 175.5 495t484.5 179z" />
    <glyph glyph-name="gbreve" unicode="&#x11f;" horiz-adv-x="1220" 
d="M702 1450h240q0 -164 -99.5 -252t-256.5 -88t-257 88t-100 252h240q0 -61 30.5 -95t86.5 -34t86 34t30 95zM578 1034q-128 0 -229.5 -41t-166 -113t-98 -167t-33.5 -207q0 -120 39.5 -218t106 -160t150.5 -95t177 -33q135 0 252 66v-29q0 -72 -66 -110t-171 -38
q-126 0 -248 70l-133 -260q95 -55 178 -82t203 -27q247 0 406 133t159 343v440q0 112 -33.5 207t-97.5 167t-165.5 113t-229.5 41zM578 735q198 0 198 -215v-143q-81 -78 -186 -78q-92 0 -151.5 51.5t-59.5 155.5t47.5 166.5t151.5 62.5z" />
    <glyph glyph-name="Gdotaccent" unicode="&#x120;" horiz-adv-x="1413" 
d="M874 1640q0 -85 -54 -132.5t-128 -47.5q-73 0 -127.5 48t-54.5 132q0 86 54.5 133.5t127.5 47.5q75 0 128.5 -47.5t53.5 -133.5zM721 1315q126 0 235.5 -36t185 -97t118.5 -141t43 -167h-402q-14 49 -58.5 84t-121.5 35q-144 0 -224.5 -95t-80.5 -263q0 -159 80.5 -248.5
t224.5 -89.5q81 0 130 13t91 42v113h-221v266h590v-543q-94 -98 -244.5 -155.5t-345.5 -57.5q-309 0 -484.5 176.5t-175.5 489.5q0 316 175.5 495t484.5 179z" />
    <glyph glyph-name="gdotaccent" unicode="&#x121;" horiz-adv-x="1220" 
d="M768 1360q0 -85 -54 -132.5t-128 -47.5q-73 0 -128 48t-55 132q0 85 54.5 132.5t128.5 47.5q75 0 128.5 -47t53.5 -133zM578 1034q-128 0 -229.5 -41t-166 -113t-98 -167t-33.5 -207q0 -120 39.5 -218t106 -160t150.5 -95t177 -33q135 0 252 66v-29q0 -72 -66 -110
t-171 -38q-126 0 -248 70l-133 -260q95 -55 178 -82t203 -27q247 0 406 133t159 343v440q0 112 -33.5 207t-97.5 167t-165.5 113t-229.5 41zM578 735q198 0 198 -215v-143q-81 -78 -186 -78q-92 0 -151.5 51.5t-59.5 155.5t47.5 166.5t151.5 62.5z" />
    <glyph glyph-name="Gcommaaccent" unicode="&#x122;" horiz-adv-x="1413" 
d="M721 1315q126 0 235.5 -36t185 -97t118.5 -141t43 -167h-402q-14 49 -58.5 84t-121.5 35q-144 0 -224.5 -95t-80.5 -263q0 -159 80.5 -248.5t224.5 -89.5q81 0 130 13t91 42v113h-221v266h590v-543q-94 -98 -244.5 -155.5t-345.5 -57.5q-309 0 -484.5 176.5t-175.5 489.5
q0 316 175.5 495t484.5 179zM793 -453l84 355h-275l-84 -355h275z" />
    <glyph glyph-name="gcommaaccent" unicode="&#x123;" horiz-adv-x="1220" 
d="M551 1462l-84 -354h274l84 354h-274zM578 1034q-128 0 -229.5 -41t-166 -113t-98 -167t-33.5 -207q0 -120 39.5 -218t106 -160t150.5 -95t177 -33q135 0 252 66v-29q0 -72 -66 -110t-171 -38q-126 0 -248 70l-133 -260q95 -55 178 -82t203 -27q247 0 406 133t159 343v440
q0 112 -33.5 207t-97.5 167t-165.5 113t-229.5 41zM578 735q198 0 198 -215v-143q-81 -78 -186 -78q-92 0 -151.5 51.5t-59.5 155.5t47.5 166.5t151.5 62.5z" />
    <glyph glyph-name="Hbar" unicode="&#x126;" horiz-adv-x="1462" 
d="M1495 928h-143v-928h-355v467h-532v-467h-354v928h-144v184h144v178h354v-178h532v178h355v-178h143v-184zM997 928h-532v-133h532v133z" />
    <glyph glyph-name="hbar" unicode="&#x127;" horiz-adv-x="1212" 
d="M682 1034q67 0 128 -13.5t118 -46t99 -81t67.5 -123.5t25.5 -168v-602h-327v559q0 77 -53 126.5t-138 49.5t-182 -43v-692h-328v1133h-125v184h125v86h328v-86h235v-184h-235v-156q114 57 262 57z" />
    <glyph glyph-name="Imacron" unicode="&#x12a;" horiz-adv-x="575" 
d="M629 1411h-682v221h682v-221zM465 0h-354v1290h354v-1290z" />
    <glyph glyph-name="imacron" unicode="&#x12b;" 
d="M596 1130h-682v222h682v-222zM420 0h-328v1010h328v-1010z" />
    <glyph glyph-name="Iogonek" unicode="&#x12e;" horiz-adv-x="575" 
d="M465 0h-354v1290h354v-1290zM184 -2h211q-53 -104 -53 -168q0 -49 43 -49q28 0 61 29l101 -138q-40 -36 -97 -60t-118 -24q-113 0 -172.5 54t-59.5 137q0 85 84 219z" />
    <glyph glyph-name="iogonek" unicode="&#x12f;" 
d="M256 1180q-73 0 -127.5 48t-54.5 132q0 85 54 132.5t128 47.5q75 0 128.5 -47t53.5 -133q0 -85 -54 -132.5t-128 -47.5zM418 -188l100 -138q-40 -36 -97 -60t-118 -24q-113 0 -172 54t-59 137q0 85 84 219h-64v1010h328v-1010h-53q-54 -106 -54 -168q0 -49 43 -49
q29 0 62 29z" />
    <glyph glyph-name="Idotaccent" unicode="&#x130;" horiz-adv-x="575" 
d="M471 1640q0 -85 -54 -132.5t-128 -47.5q-73 0 -128 48t-55 132q0 85 54.5 133t128.5 48q75 0 128.5 -47.5t53.5 -133.5zM465 0h-354v1290h354v-1290z" />
    <glyph glyph-name="dotlessi" unicode="&#x131;" 
d="M420 0h-328v1010h328v-1010z" />
    <glyph glyph-name="IJ" unicode="&#x132;" horiz-adv-x="1523" 
d="M465 0h-354v1290h354v-1290zM1413 1290v-682q0 -132 -44.5 -244.5t-133 -200.5t-234 -138t-333.5 -50v322q91 0 162 19t113 49.5t69 72.5t37 83t10 87v355h-346v327h700z" />
    <glyph glyph-name="ij" unicode="&#x133;" horiz-adv-x="1073" 
d="M438 1360q0 -85 -54 -132.5t-128 -47.5q-73 0 -127.5 48t-54.5 132q0 85 54 132.5t128 47.5q75 0 128.5 -47t53.5 -133zM991 1360q0 -85 -54 -132.5t-128 -47.5q-73 0 -127.5 48t-54.5 132q0 85 54 132.5t128 47.5q75 0 128.5 -47t53.5 -133zM420 0h-328v1010h328v-1010z
M973 1010v-932q0 -259 -119.5 -373.5t-392.5 -114.5v306q114 0 149 38.5t35 143.5v932h328z" />
    <glyph glyph-name="Kcommaaccent" unicode="&#x136;" horiz-adv-x="1327" 
d="M1317 0h-434l-320 498l-98 -109v-389h-354v1290h354v-446l377 446h434l-475 -526zM578 -98h274l-84 -355h-274z" />
    <glyph glyph-name="kcommaaccent" unicode="&#x137;" horiz-adv-x="1150" 
d="M1139 0h-418l-238 336l-63 -68v-268h-328v1403h328v-692l252 299h448l-411 -435zM418 -98h274l-84 -355h-274z" />
    <glyph glyph-name="Lacute" unicode="&#x139;" horiz-adv-x="1062" 
d="M242 1382l-76 197l518 213l96 -248zM465 1290v-848q0 -114 117 -114h419v-328h-469q-198 0 -309.5 104.5t-111.5 315.5v870h354z" />
    <glyph glyph-name="lacute" unicode="&#x13a;" 
d="M33 1495l-76 197l518 213l96 -248zM420 0h-328v1403h328v-1403z" />
    <glyph glyph-name="Lcommaaccent" unicode="&#x13b;" horiz-adv-x="1062" 
d="M465 1290v-848q0 -114 117 -114h419v-328h-469q-198 0 -309.5 104.5t-111.5 315.5v870h354zM666 -453l84 355h-275l-84 -355h275z" />
    <glyph glyph-name="lcommaaccent" unicode="&#x13c;" 
d="M420 0h-328v1403h328v-1403zM311 -453l84 355h-274l-84 -355h274z" />
    <glyph glyph-name="Lcaron" unicode="&#x13d;" horiz-adv-x="1206" 
d="M465 1290v-848q0 -114 117 -114h419v-328h-469q-198 0 -309.5 104.5t-111.5 315.5v870h354zM831 815l115 475h-268l-103 -475h256z" />
    <glyph glyph-name="lcaron" unicode="&#x13e;" horiz-adv-x="833" 
d="M420 0h-328v1403h328v-1403zM780 928l33 475h-268l-21 -475h256z" />
    <glyph glyph-name="Ldot" unicode="&#x13f;" horiz-adv-x="1062" 
d="M465 1290v-848q0 -114 117 -114h419v-328h-469q-198 0 -309.5 104.5t-111.5 315.5v870h354zM778 911q75 0 129 -47t54 -133q0 -84 -54.5 -132t-128.5 -48q-73 0 -127.5 48t-54.5 132q0 85 54 132.5t128 47.5z" />
    <glyph glyph-name="ldot" unicode="&#x140;" horiz-adv-x="901" 
d="M420 0h-328v1403h328v-1403zM688 887q75 0 128.5 -47t53.5 -133q0 -85 -54 -133t-128 -48q-73 0 -127.5 48.5t-54.5 132.5q0 85 54 132.5t128 47.5z" />
    <glyph glyph-name="Lslash" unicode="&#x141;" horiz-adv-x="1206" 
d="M1001 328v-328h-469q-198 0 -309.5 104.5t-111.5 315.5v86l-150 -45v229l150 45v555h354v-450l315 94v-229l-315 -95v-168q0 -114 117 -114h419z" />
    <glyph glyph-name="lslash" unicode="&#x142;" 
d="M518 737l-98 -47v-690h-328v532l-100 -49v205l100 51v664h328v-494l98 52v-224z" />
    <glyph glyph-name="Nacute" unicode="&#x143;" horiz-adv-x="1429" 
d="M492 1382l-76 197l518 213l96 -248zM1319 0h-272l-582 678v-678h-354v1290h305l549 -633v633h354v-1290z" />
    <glyph glyph-name="nacute" unicode="&#x144;" horiz-adv-x="1206" 
d="M342 1102l-76 196l518 213l97 -247zM92 0v930q301 102 531 102q85 0 155.5 -14.5t134 -50t107 -90.5t69 -140.5t25.5 -195.5v-541h-328v575q0 158 -180 158q-83 0 -190 -26v-707h-324z" />
    <glyph glyph-name="Ncommaaccent" unicode="&#x145;" horiz-adv-x="1429" 
d="M1319 0h-272l-582 678v-678h-354v1290h305l549 -633v633h354v-1290zM801 -453l84 355h-275l-84 -355h275z" />
    <glyph glyph-name="ncommaaccent" unicode="&#x146;" horiz-adv-x="1206" 
d="M92 0v930q301 102 531 102q85 0 155.5 -14.5t134 -50t107 -90.5t69 -140.5t25.5 -195.5v-541h-328v575q0 158 -180 158q-83 0 -190 -26v-707h-324zM639 -453l84 355h-274l-84 -355h274z" />
    <glyph glyph-name="Ncaron" unicode="&#x147;" horiz-adv-x="1429" 
d="M1094 1642l-291 -253h-176l-291 253l145 140l234 -164l233 164zM1319 0h-272l-582 678v-678h-354v1290h305l549 -633v633h354v-1290z" />
    <glyph glyph-name="ncaron" unicode="&#x148;" horiz-adv-x="1206" 
d="M944 1362l-291 -254h-176l-291 254l146 139l233 -164l234 164zM92 0v930q301 102 531 102q85 0 155.5 -14.5t134 -50t107 -90.5t69 -140.5t25.5 -195.5v-541h-328v575q0 158 -180 158q-83 0 -190 -26v-707h-324z" />
    <glyph glyph-name="Eng" unicode="&#x14a;" horiz-adv-x="1429" 
d="M1319 1290v-1067q0 -105 -27.5 -198t-86.5 -173.5t-145 -138t-210.5 -90.5t-276.5 -33v322q304 0 375 203l-483 563v-678h-354v1290h305l549 -633v633h354z" />
    <glyph glyph-name="eng" unicode="&#x14b;" horiz-adv-x="1196" 
d="M92 0v930q100 34 193.5 57t198.5 36t193 8.5t170.5 -34.5t140 -85t92 -149t34.5 -222v-463q0 -259 -119.5 -373.5t-392.5 -114.5v306q114 0 149 38.5t35 143.5v463q0 115 -93 146t-277 -15v-672h-324z" />
    <glyph glyph-name="Omacron" unicode="&#x14c;" horiz-adv-x="1482" 
d="M1081 1411h-682v221h682v-221zM741 1315q318 0 499 -179t181 -495q0 -313 -180.5 -489.5t-499.5 -176.5t-499.5 176.5t-180.5 489.5q0 316 181 495t499 179zM741 993q-153 0 -239 -95t-86 -263q0 -159 86 -248.5t239 -89.5t239.5 89.5t86.5 248.5q0 168 -86.5 263
t-239.5 95z" />
    <glyph glyph-name="omacron" unicode="&#x14d;" horiz-adv-x="1155" 
d="M918 1130h-682v222h682v-222zM578 1034q165 0 286 -72t180.5 -190.5t59.5 -267.5q0 -112 -33.5 -207.5t-97.5 -167.5t-165.5 -113t-229.5 -41t-229.5 41t-166 113t-98 167.5t-33.5 207.5q0 111 35 207t100.5 168t166.5 113.5t225 41.5zM578 735q-104 0 -151.5 -64
t-47.5 -167q0 -104 47.5 -167t151.5 -63t151 63t47 167q0 103 -47.5 167t-150.5 64z" />
    <glyph glyph-name="Ohungarumlaut" unicode="&#x150;" horiz-adv-x="1482" 
d="M547 1362l-164 133l338 373l207 -166zM965 1362l-164 133l338 373l207 -166zM741 1315q318 0 499 -179t181 -495q0 -313 -180.5 -489.5t-499.5 -176.5t-499.5 176.5t-180.5 489.5q0 316 181 495t499 179zM741 993q-153 0 -239 -95t-86 -263q0 -159 86 -248.5t239 -89.5
t239.5 89.5t86.5 248.5q0 168 -86.5 263t-239.5 95z" />
    <glyph glyph-name="ohungarumlaut" unicode="&#x151;" horiz-adv-x="1155" 
d="M383 1081l-164 133l338 373l207 -166zM801 1081l-164 133l338 373l207 -166zM578 1034q165 0 286 -72t180.5 -190.5t59.5 -267.5q0 -112 -33.5 -207.5t-97.5 -167.5t-165.5 -113t-229.5 -41t-229.5 41t-166 113t-98 167.5t-33.5 207.5q0 111 35 207t100.5 168
t166.5 113.5t225 41.5zM578 735q-104 0 -151.5 -64t-47.5 -167q0 -104 47.5 -167t151.5 -63t151 63t47 167q0 103 -47.5 167t-150.5 64z" />
    <glyph glyph-name="OE" unicode="&#x152;" horiz-adv-x="2111" 
d="M741 1315q181 0 328 -64v39h911v-327h-557v-156h514v-328h-514v-37q0 -114 138 -114h428v-328h-478q-209 0 -325 104q-174 -129 -445 -129q-319 0 -499.5 176.5t-180.5 489.5q0 316 181 495t499 179zM741 993q-153 0 -239 -95t-86 -263q0 -159 86 -248.5t239 -89.5
t239.5 89.5t86.5 248.5q0 168 -86.5 263t-239.5 95z" />
    <glyph glyph-name="oe" unicode="&#x153;" horiz-adv-x="1927" 
d="M1309 1034q271 0 415 -166.5t121 -457.5h-721q51 -148 215 -148q134 0 166 60h338q-21 -169 -157.5 -258t-331.5 -89q-244 0 -402 136q-139 -136 -374 -136q-128 0 -229.5 41t-166 113t-98 167.5t-33.5 207.5q0 111 35 207t100.5 168t166.5 113.5t225 41.5
q229 0 368 -133q149 133 363 133zM1323 786q-70 0 -121.5 -33.5t-75.5 -97.5h377q-13 53 -60.5 92t-119.5 39zM578 735q-104 0 -151.5 -64t-47.5 -167q0 -104 47.5 -167t151.5 -63t151 63t47 167q0 103 -47.5 167t-150.5 64z" />
    <glyph glyph-name="Racute" unicode="&#x154;" horiz-adv-x="1280" 
d="M373 1382l-76 197l518 213l96 -248zM834 0l-170 317h-5h-194v-317h-354v879q0 195 107.5 303t313.5 108h127q132 0 236.5 -47.5t165.5 -123t90 -172t20 -192t-56.5 -186t-127.5 -151.5l252 -418h-405zM465 645h184q51 0 90.5 17.5t60 45.5t30 62t0 68t-30 62t-60 45.5
t-90.5 17.5h-86q-53 0 -75.5 -24.5t-22.5 -72.5v-221z" />
    <glyph glyph-name="racute" unicode="&#x155;" horiz-adv-x="882" 
d="M211 1102l-76 196l518 213l97 -247zM801 1034v-327q-244 0 -385 -76v-631h-324v844q339 190 709 190z" />
    <glyph glyph-name="Rcommaaccent" unicode="&#x156;" horiz-adv-x="1280" 
d="M1239 0h-405l-170 317h-5h-194v-317h-354v879q0 195 107.5 303t313.5 108h127q132 0 236.5 -47.5t165.5 -123t90 -172t20 -192t-56.5 -186t-127.5 -151.5zM465 645h184q51 0 90.5 17.5t60 45.5t30 62t0 68t-30 62t-60 45.5t-90.5 17.5h-86q-53 0 -75.5 -24.5t-22.5 -72.5
v-221zM504 -98h274l-84 -355h-274z" />
    <glyph glyph-name="rcommaaccent" unicode="&#x157;" horiz-adv-x="882" 
d="M801 1034v-327q-244 0 -385 -76v-631h-324v844q339 190 709 190zM297 -453l84 355h-275l-83 -355h274z" />
    <glyph glyph-name="Rcaron" unicode="&#x158;" horiz-adv-x="1280" 
d="M508 1389l-291 253l145 140l234 -164l233 164l146 -140l-291 -253h-176zM834 0l-170 317h-5h-194v-317h-354v879q0 195 107.5 303t313.5 108h127q132 0 236.5 -47.5t165.5 -123t90 -172t20 -192t-56.5 -186t-127.5 -151.5l252 -418h-405zM465 645h184q51 0 90.5 17.5
t60 45.5t30 62t0 68t-30 62t-60 45.5t-90.5 17.5h-86q-53 0 -75.5 -24.5t-22.5 -72.5v-221z" />
    <glyph glyph-name="rcaron" unicode="&#x159;" horiz-adv-x="882" 
d="M813 1362l-291 -254h-176l-291 254l146 139l233 -164l234 164zM801 1034v-327q-244 0 -385 -76v-631h-324v844q339 190 709 190z" />
    <glyph glyph-name="Sacute" unicode="&#x15a;" horiz-adv-x="1236" 
d="M395 1382l-76 197l519 213l96 -248zM631 1315q125 0 223.5 -33t160.5 -92t95.5 -134.5t38.5 -164.5h-340q-8 57 -54.5 92t-133.5 35q-168 0 -168 -105q0 -37 31.5 -63.5t83 -40t117.5 -29t134.5 -29.5t134.5 -42t117.5 -65.5t83 -102.5t31.5 -150q0 -197 -149.5 -306.5
t-426.5 -109.5q-262 0 -403.5 113.5t-155.5 306.5h322q10 -61 72.5 -92t168.5 -31q104 0 150.5 23t46.5 82q0 24 -25 40t-67.5 25.5t-97.5 18t-116 21t-121.5 29.5t-115.5 49t-97.5 75t-67.5 110.5t-25 153.5q0 191 155 303.5t398 112.5z" />
    <glyph glyph-name="sacute" unicode="&#x15b;" horiz-adv-x="1067" 
d="M311 1102l-75 196l518 213l96 -247zM543 1034q123 0 215.5 -28t147 -78t81 -113t27.5 -139h-340q-2 41 -41 69.5t-98 28.5q-125 0 -125 -65q0 -26 34.5 -43.5t89.5 -28.5t122 -23.5t134 -34t122 -53t89.5 -88.5t34.5 -133q0 -109 -72 -185.5t-183.5 -110.5t-250.5 -34
q-237 0 -355 90.5t-124 256.5h322q2 -38 40 -62t109 -24q76 0 121 16t45 43q0 18 -27 30.5t-71 19.5t-100 18t-114.5 23t-114.5 36.5t-100 57.5t-71 87.5t-27 124.5q0 156 134 249t346 93z" />
    <glyph glyph-name="Scedilla" unicode="&#x15e;" horiz-adv-x="1236" 
d="M1186 391q0 -179 -123.5 -285.5t-355.5 -125.5l-23 -91q101 0 158 -53t57 -127q0 -88 -78 -154.5t-219 -66.5q-123 0 -199 39l68 154q2 -1 14.5 -7t16 -7.5t15 -6t18 -6t17 -4t20 -3.5t20.5 -1q40 0 65 20.5t25 52.5q0 29 -21 47t-55 17h-55l-64 84l33 113
q-219 20 -338 130t-131 285h322q10 -61 72.5 -92t168.5 -31q104 0 150.5 23t46.5 82q0 24 -25 40t-67.5 25.5t-97.5 18t-116 21t-121.5 29.5t-115.5 49t-97.5 75t-67.5 110.5t-25 153.5q0 191 155 303.5t398 112.5q125 0 223.5 -33t160.5 -92t95.5 -134.5t38.5 -164.5h-340
q-8 57 -54.5 92t-133.5 35q-168 0 -168 -105q0 -37 31.5 -63.5t83 -40t117.5 -29t134.5 -29.5t134.5 -42t117.5 -65.5t83 -102.5t31.5 -150z" />
    <glyph glyph-name="scedilla" unicode="&#x15f;" horiz-adv-x="1067" 
d="M1036 305q0 -140 -109.5 -221.5t-285.5 -101.5l-25 -93q101 0 158 -53t57 -127q0 -88 -77.5 -154.5t-218.5 -66.5q-123 0 -199 39l67 154q2 -1 14.5 -7t16 -7.5t15 -6t18 -6t17 -4t20 -3.5t20.5 -1q40 0 65 20.5t25 52.5q0 29 -21 47t-54 17h-56l-63 84l33 110
q-198 15 -297 104t-105 241h322q2 -38 40 -62t109 -24q76 0 121 16t45 43q0 18 -27 30.5t-71 19.5t-100 18t-114.5 23t-114.5 36.5t-100 57.5t-71 87.5t-27 124.5q0 156 134 249t346 93q123 0 215.5 -28t147 -78t81 -113t27.5 -139h-340q-2 41 -41 69.5t-98 28.5
q-125 0 -125 -65q0 -26 34.5 -43.5t89.5 -28.5t122 -23.5t134 -34t122 -53t89.5 -88.5t34.5 -133z" />
    <glyph glyph-name="Scaron" unicode="&#x160;" horiz-adv-x="1236" 
d="M997 1642l-290 -253h-177l-290 253l145 140l233 -164l234 164zM631 1315q125 0 223.5 -33t160.5 -92t95.5 -134.5t38.5 -164.5h-340q-8 57 -54.5 92t-133.5 35q-168 0 -168 -105q0 -37 31.5 -63.5t83 -40t117.5 -29t134.5 -29.5t134.5 -42t117.5 -65.5t83 -102.5
t31.5 -150q0 -197 -149.5 -306.5t-426.5 -109.5q-262 0 -403.5 113.5t-155.5 306.5h322q10 -61 72.5 -92t168.5 -31q104 0 150.5 23t46.5 82q0 24 -25 40t-67.5 25.5t-97.5 18t-116 21t-121.5 29.5t-115.5 49t-97.5 75t-67.5 110.5t-25 153.5q0 191 155 303.5t398 112.5z
" />
    <glyph glyph-name="scaron" unicode="&#x161;" horiz-adv-x="1067" 
d="M913 1362l-290 -254h-177l-290 254l145 139l234 -164l233 164zM543 1034q123 0 215.5 -28t147 -78t81 -113t27.5 -139h-340q-2 41 -41 69.5t-98 28.5q-125 0 -125 -65q0 -26 34.5 -43.5t89.5 -28.5t122 -23.5t134 -34t122 -53t89.5 -88.5t34.5 -133q0 -109 -72 -185.5
t-183.5 -110.5t-250.5 -34q-237 0 -355 90.5t-124 256.5h322q2 -38 40 -62t109 -24q76 0 121 16t45 43q0 18 -27 30.5t-71 19.5t-100 18t-114.5 23t-114.5 36.5t-100 57.5t-71 87.5t-27 124.5q0 156 134 249t346 93z" />
    <glyph glyph-name="Tcedilla" unicode="&#x162;" horiz-adv-x="1296" 
d="M760 0l-29 -111q101 0 158 -53t57 -127q0 -88 -78 -154.5t-219 -66.5q-122 0 -198 39l67 154q2 -1 14.5 -7t16 -7.5t15 -6t18 -6t17 -4t20 -3.5t20.5 -1q40 0 65 20.5t25 52.5q0 29 -21 47t-55 17h-55l-63 84l38 133h-102v963h-410v327h1174v-327h-410v-963h-65z" />
    <glyph glyph-name="tcedilla" unicode="&#x163;" horiz-adv-x="829" 
d="M748 291v-285q-119 -28 -220 -31l-22 -86q101 0 158 -53t57 -127q0 -88 -78 -154.5t-219 -66.5q-123 0 -199 39l68 154q2 -1 14.5 -7t16 -7.5t15 -6t18 -6t17 -4t20 -3.5t20.5 -1q40 0 65 20.5t25 52.5q0 29 -21 47t-55 17h-55l-64 84l39 131q-120 35 -188 128.5
t-68 246.5v917h332v-280h287v-277h-291v-323q0 -71 48.5 -103.5t123.5 -32.5q28 0 156 17z" />
    <glyph glyph-name="Tcaron" unicode="&#x164;" horiz-adv-x="1296" 
d="M1028 1642l-291 -253h-176l-291 253l146 140l233 -164l234 164zM1235 963h-410v-963h-354v963h-410v327h1174v-327z" />
    <glyph glyph-name="tcaron" unicode="&#x165;" horiz-adv-x="829" 
d="M719 1094l84 309h-248l-72 -309h236zM424 1010h287v-277h-291v-323q0 -71 48.5 -103.5t123.5 -32.5q28 0 156 17v-285q-124 -31 -232 -31q-91 0 -166 22.5t-134 69t-91.5 124.5t-32.5 182v917h332v-280z" />
    <glyph glyph-name="Tbar" unicode="&#x166;" horiz-adv-x="1296" 
d="M989 1411h-682v221h682v-221zM1235 963h-410v-963h-354v963h-410v327h1174v-327z" />
    <glyph glyph-name="tbar" unicode="&#x167;" horiz-adv-x="829" 
d="M592 274q28 0 156 17v-285q-124 -31 -232 -31q-91 0 -166 22.5t-134 69t-91.5 124.5t-32.5 182v51h-137v203h137v663h332v-280h287v-277h-291v-106h176v-203h-176v-14q0 -71 48.5 -103.5t123.5 -32.5z" />
    <glyph glyph-name="Umacron" unicode="&#x16a;" horiz-adv-x="1470" 
d="M1075 1411h-682v221h682v-221zM1360 1290v-676q0 -323 -158 -481t-452 -158q-138 0 -252.5 38.5t-201.5 115t-136 200.5t-49 285v676h354v-676q0 -317 285 -317q60 0 106 16.5t74 44.5t45.5 69.5t24 86t6.5 100.5v676h354z" />
    <glyph glyph-name="umacron" unicode="&#x16b;" horiz-adv-x="1175" 
d="M928 1130h-682v222h682v-222zM1083 1010v-549q0 -128 -37.5 -223.5t-105.5 -152t-155.5 -83.5t-196.5 -27t-196.5 27t-156 83.5t-106 152t-37.5 223.5v549h328v-559q0 -82 38 -127t130 -45t130 45t38 127v559h327z" />
    <glyph glyph-name="Uring" unicode="&#x16e;" horiz-adv-x="1470" 
d="M735 1759q86 0 147.5 -49.5t61.5 -142.5t-61.5 -143t-147.5 -50t-147.5 50t-61.5 143t61.5 142.5t147.5 49.5zM735 1636q-38 0 -59 -18.5t-21 -50.5q0 -33 21 -51.5t59 -18.5t59 18.5t21 51.5q0 32 -21 50.5t-59 18.5zM1360 1290v-676q0 -323 -158 -481t-452 -158
q-138 0 -252.5 38.5t-201.5 115t-136 200.5t-49 285v676h354v-676q0 -317 285 -317q60 0 106 16.5t74 44.5t45.5 69.5t24 86t6.5 100.5v676h354z" />
    <glyph glyph-name="uring" unicode="&#x16f;" horiz-adv-x="1175" 
d="M588 1479q86 0 147.5 -50t61.5 -143t-61.5 -142.5t-147.5 -49.5t-147.5 49.5t-61.5 142.5t61.5 143t147.5 50zM588 1356q-38 0 -59 -18.5t-21 -51.5q0 -32 21 -50.5t59 -18.5t59 18.5t21 50.5q0 33 -21 51.5t-59 18.5zM1083 1010v-549q0 -128 -37.5 -223.5t-105.5 -152
t-155.5 -83.5t-196.5 -27t-196.5 27t-156 83.5t-106 152t-37.5 223.5v549h328v-559q0 -82 38 -127t130 -45t130 45t38 127v559h327z" />
    <glyph glyph-name="Uhungarumlaut" unicode="&#x170;" horiz-adv-x="1470" 
d="M541 1362l-164 133l338 373l207 -166zM958 1362l-163 133l338 373l206 -166zM1360 1290v-676q0 -323 -158 -481t-452 -158q-138 0 -252.5 38.5t-201.5 115t-136 200.5t-49 285v676h354v-676q0 -317 285 -317q60 0 106 16.5t74 44.5t45.5 69.5t24 86t6.5 100.5v676h354z
" />
    <glyph glyph-name="uhungarumlaut" unicode="&#x171;" horiz-adv-x="1175" 
d="M393 1081l-164 133l338 373l207 -166zM811 1081l-164 133l338 373l207 -166zM1083 1010v-549q0 -128 -37.5 -223.5t-105.5 -152t-155.5 -83.5t-196.5 -27t-196.5 27t-156 83.5t-106 152t-37.5 223.5v549h328v-559q0 -82 38 -127t130 -45t130 45t38 127v559h327z" />
    <glyph glyph-name="Uogonek" unicode="&#x172;" horiz-adv-x="1470" 
d="M1360 1290v-676q0 -302 -138.5 -460t-398.5 -177q-43 -84 -43 -145q0 -49 43 -49q29 0 62 29l100 -138q-40 -36 -97 -60t-118 -24q-113 0 -172 54t-59 137q0 79 75 205q-231 35 -367 193.5t-136 434.5v676h354v-676q0 -317 285 -317q60 0 106 16.5t74 44.5t45.5 69.5
t24 86t6.5 100.5v676h354z" />
    <glyph glyph-name="uogonek" unicode="&#x173;" horiz-adv-x="1175" 
d="M1083 1010v-549q0 -225 -109.5 -342t-299.5 -139q-43 -88 -43 -148q0 -49 43 -49q28 0 61 29l101 -138q-40 -36 -97 -60t-118 -24q-113 0 -172.5 54t-59.5 137q0 84 76 205q-174 28 -273.5 144.5t-99.5 330.5v549h328v-559q0 -82 38 -127t130 -45t130 45t38 127v559h327z
" />
    <glyph glyph-name="Wcircumflex" unicode="&#x174;" horiz-adv-x="2185" 
d="M1493 1528l-145 -139l-234 163l-233 -163l-146 139l291 254h176zM1683 0h-319l-281 772l-276 -772h-320l-426 1290h410l199 -741l256 741l327 2l269 -743l192 741h410z" />
    <glyph glyph-name="wcircumflex" unicode="&#x175;" horiz-adv-x="1794" 
d="M1276 1247l-146 -139l-233 164l-233 -164l-146 139l291 254h176zM1358 0h-287l-176 496l-170 -496h-287l-387 1010h377l160 -508l178 508h262l170 -508l168 508h377z" />
    <glyph glyph-name="Ycircumflex" unicode="&#x176;" horiz-adv-x="1464" 
d="M1112 1528l-145 -139l-234 163l-233 -163l-146 139l291 254h176zM891 506v-506h-354v506l-517 784h422l283 -467l285 467h434z" />
    <glyph glyph-name="ycircumflex" unicode="&#x177;" horiz-adv-x="1196" 
d="M969 1247l-146 -139l-233 164l-234 -164l-145 139l291 254h176zM1104 1010v-944q0 -138 -74.5 -247t-205.5 -169t-296 -60q-247 0 -436 129l164 254q114 -84 272 -84q102 0 175 48.5t73 121.5v39q-95 -82 -274 -82q-59 0 -113.5 12.5t-107.5 42.5t-92 76t-63 119.5
t-24 165.5v578h328v-539q0 -156 141 -156q66 0 122.5 36.5t82.5 88.5v570h328z" />
    <glyph glyph-name="Ydieresis" unicode="&#x178;" horiz-adv-x="1464" 
d="M530 1718q62 0 107 -40t45 -111q0 -70 -45.5 -110t-106.5 -40t-106 40t-45 110q0 71 45 111t106 40zM936 1718q61 0 106 -40t45 -111q0 -70 -45 -110t-106 -40t-106.5 40t-45.5 110q0 71 45 111t107 40zM891 506v-506h-354v506l-517 784h422l283 -467l285 467h434z" />
    <glyph glyph-name="Zacute" unicode="&#x179;" horiz-adv-x="1304" 
d="M414 1382l-76 197l518 213l96 -248zM1169 989l-606 -661h639v-328h-1098v301l607 662h-609v327h1067v-301z" />
    <glyph glyph-name="zacute" unicode="&#x17a;" horiz-adv-x="1114" 
d="M367 1102l-76 196l518 213l96 -247zM987 727l-430 -440h434v-287h-868v264l416 459h-404v287h852v-283z" />
    <glyph glyph-name="Zdotaccent" unicode="&#x17b;" horiz-adv-x="1304" 
d="M819 1640q0 -85 -54 -132.5t-128 -47.5q-73 0 -127.5 48t-54.5 132q0 86 54.5 133.5t127.5 47.5q75 0 128.5 -47.5t53.5 -133.5zM1169 989l-606 -661h639v-328h-1098v301l607 662h-609v327h1067v-301z" />
    <glyph glyph-name="zdotaccent" unicode="&#x17c;" horiz-adv-x="1114" 
d="M772 1360q0 -85 -54 -132.5t-128 -47.5q-73 0 -127.5 48t-54.5 132q0 85 54 132.5t128 47.5q75 0 128.5 -47t53.5 -133zM987 727l-430 -440h434v-287h-868v264l416 459h-404v287h852v-283z" />
    <glyph glyph-name="Zcaron" unicode="&#x17d;" horiz-adv-x="1304" 
d="M1016 1642l-291 -253h-176l-291 253l145 140l234 -164l233 164zM1169 989l-606 -661h639v-328h-1098v301l607 662h-609v327h1067v-301z" />
    <glyph glyph-name="zcaron" unicode="&#x17e;" horiz-adv-x="1114" 
d="M969 1362l-291 -254h-176l-291 254l145 139l234 -164l233 164zM987 727l-430 -440h434v-287h-868v264l416 459h-404v287h852v-283z" />
    <glyph glyph-name="florin" unicode="&#x192;" horiz-adv-x="829" 
d="M903 1417l-18 -274q-50 14 -91 22.5t-88 15t-82 2.5t-64.5 -16t-45.5 -39t-16 -67v-51h237v-287h-237v-715q0 -88 -25.5 -160t-67 -119t-96.5 -79t-113 -46t-118 -14q-94 0 -162 23l68 266q22 -10 67 -10q62 0 90.5 34t28.5 105v715h-158v287h158v26q0 109 32 191.5
t88 130t127.5 74.5t155 30t166 -8.5t164.5 -36.5z" />
    <glyph glyph-name="Scommaaccent" unicode="&#x218;" horiz-adv-x="1236" 
d="M631 1315q125 0 223.5 -33t160.5 -92t95.5 -134.5t38.5 -164.5h-340q-8 57 -54.5 92t-133.5 35q-168 0 -168 -105q0 -37 31.5 -63.5t83 -40t117.5 -29t134.5 -29.5t134.5 -42t117.5 -65.5t83 -102.5t31.5 -150q0 -197 -149.5 -306.5t-426.5 -109.5q-262 0 -403.5 113.5
t-155.5 306.5h322q10 -61 72.5 -92t168.5 -31q104 0 150.5 23t46.5 82q0 24 -25 40t-67.5 25.5t-97.5 18t-116 21t-121.5 29.5t-115.5 49t-97.5 75t-67.5 110.5t-25 153.5q0 191 155 303.5t398 112.5zM657 -453l84 355h-274l-84 -355h274z" />
    <glyph glyph-name="scommaaccent" unicode="&#x219;" horiz-adv-x="1067" 
d="M543 1034q123 0 215.5 -28t147 -78t81 -113t27.5 -139h-340q-2 41 -41 69.5t-98 28.5q-125 0 -125 -65q0 -26 34.5 -43.5t89.5 -28.5t122 -23.5t134 -34t122 -53t89.5 -88.5t34.5 -133q0 -109 -72 -185.5t-183.5 -110.5t-250.5 -34q-237 0 -355 90.5t-124 256.5h322
q2 -38 40 -62t109 -24q76 0 121 16t45 43q0 18 -27 30.5t-71 19.5t-100 18t-114.5 23t-114.5 36.5t-100 57.5t-71 87.5t-27 124.5q0 156 134 249t346 93zM590 -453l84 355h-275l-84 -355h275z" />
    <glyph glyph-name="uni021A" unicode="&#x21a;" horiz-adv-x="1296" 
d="M1235 963h-410v-963h-354v963h-410v327h1174v-327zM705 -453l83 355h-274l-84 -355h275z" />
    <glyph glyph-name="uni021B" unicode="&#x21b;" horiz-adv-x="829" 
d="M424 1010h287v-277h-291v-323q0 -71 48.5 -103.5t123.5 -32.5q28 0 156 17v-285q-124 -31 -232 -31q-91 0 -166 22.5t-134 69t-91.5 124.5t-32.5 182v917h332v-280zM479 -453l84 355h-274l-84 -355h274z" />
    <glyph glyph-name="circumflex" unicode="&#x2c6;" horiz-adv-x="1024" 
d="M891 1247l-146 -139l-233 164l-233 -164l-146 139l291 254h176z" />
    <glyph glyph-name="caron" unicode="&#x2c7;" horiz-adv-x="1024" 
d="M891 1362l-291 -254h-176l-291 254l146 139l233 -164l233 164z" />
    <glyph glyph-name="breve" unicode="&#x2d8;" horiz-adv-x="1024" 
d="M629 1450h239q0 -164 -99.5 -252t-256.5 -88t-256.5 88t-99.5 252h239q0 -61 30.5 -95t86.5 -34t86.5 34t30.5 95z" />
    <glyph glyph-name="dotaccent" unicode="&#x2d9;" horiz-adv-x="1024" 
d="M694 1360q0 -85 -54 -132.5t-128 -47.5q-73 0 -127.5 48t-54.5 132q0 85 54 132.5t128 47.5q75 0 128.5 -47t53.5 -133z" />
    <glyph glyph-name="ring" unicode="&#x2da;" horiz-adv-x="1024" 
d="M512 1479q86 0 147.5 -50t61.5 -143t-61.5 -142.5t-147.5 -49.5t-147.5 49.5t-61.5 142.5t61.5 143t147.5 50zM512 1356q-38 0 -59 -18.5t-21 -51.5q0 -32 21 -50.5t59 -18.5t59 18.5t21 50.5q0 33 -21 51.5t-59 18.5z" />
    <glyph glyph-name="ogonek" unicode="&#x2db;" horiz-adv-x="1024" 
d="M373 0h211q-54 -106 -54 -168q0 -49 43 -49q29 0 62 29l100 -138q-40 -36 -97 -60t-118 -24q-113 0 -172 54t-59 137q0 85 84 219z" />
    <glyph glyph-name="tilde" unicode="&#x2dc;" horiz-adv-x="1024" 
d="M778 1464l178 -59q-80 -270 -294 -270q-68 0 -167.5 30.5t-136.5 30.5q-65 0 -106 -88l-186 100q11 31 33 66.5t53.5 72.5t75.5 61t89 24q57 0 173.5 -32t162.5 -32q49 0 75.5 23t49.5 73z" />
    <glyph glyph-name="hungarumlaut" unicode="&#x2dd;" horiz-adv-x="1024" 
d="M195 1081l-164 133l338 373l206 -166zM612 1081l-163 133l337 373l207 -166z" />
    <glyph glyph-name="uni0326" unicode="&#x326;" horiz-adv-x="0" 
d="M608 -453l84 355h-274l-84 -355h274z" />
    <glyph glyph-name="Delta" unicode="&#x394;" horiz-adv-x="1185" 
d="M1135 0h-1084l352 1290h379zM444 328h289l-143 553z" />
    <glyph glyph-name="Omega" unicode="&#x3a9;" horiz-adv-x="1234" 
d="M616 1313q90 0 175 -23t160.5 -71.5t132 -118t89.5 -168t33 -215.5q0 -119 -59.5 -245t-132.5 -177h172v-295h-496v295q60 56 111 165.5t51 254.5q0 78 -21 134t-56.5 86t-75 43t-83.5 13q-47 0 -86 -13t-73.5 -43t-54 -86t-19.5 -134q0 -145 51.5 -254t112.5 -166v-295
h-500v295h174q-74 51 -133 176.5t-59 245.5q0 145 50 261.5t133.5 188t187 109t216.5 37.5z" />
    <glyph glyph-name="mu" unicode="&#x3bc;" horiz-adv-x="1056" 
d="M965 1010v-590q0 -106 -26.5 -188t-66.5 -129.5t-95.5 -77.5t-106 -40t-105.5 -10q-87 0 -145 39v-399h-328v1395h328v-600q0 -60 23 -93.5t85 -33.5t85.5 33.5t23.5 93.5v600h328z" />
    <glyph glyph-name="pi" unicode="&#x3c0;" horiz-adv-x="1245" 
d="M1184 682h-164v-682h-320v682h-153v-682h-320v682h-166v328h1123v-328z" />
    <glyph glyph-name="uni0401" unicode="&#x401;" horiz-adv-x="1153" 
d="M360 1718q62 0 107 -40t45 -111q0 -70 -45.5 -110t-106.5 -40t-106 40t-45 110q0 71 45 111t106 40zM766 1718q62 0 107 -40t45 -111q0 -70 -45.5 -110t-106.5 -40t-106.5 40t-45.5 110q0 71 45 111t107 40zM1022 963h-557v-156h514v-328h-514v-37q0 -65 37 -89.5
t100 -24.5h428v-328h-477q-208 0 -325 104.5t-117 315.5v870h911v-327z" />
    <glyph glyph-name="uni0402" unicode="&#x402;" horiz-adv-x="1607" 
d="M1235 963h-410v-152q93 35 232 35q97 0 179.5 -24.5t140.5 -67t99 -99t60.5 -119.5t19.5 -130q0 -83 -30.5 -159t-88.5 -137.5t-152 -98t-210 -36.5q-44 0 -112 11v284q6 0 17.5 -1t16.5 -1q97 0 149 37.5t52 89.5q0 51 -49 89t-135 38q-101 0 -189 -33v-489h-354v963
h-410v327h1174v-327z" />
    <glyph glyph-name="uni0403" unicode="&#x403;" horiz-adv-x="1038" 
d="M322 1382l-76 197l518 213l96 -248zM977 963h-512v-963h-354v1290h866v-327z" />
    <glyph glyph-name="uni0404" unicode="&#x404;" horiz-adv-x="1372" 
d="M948 416h363q0 -87 -44.5 -167t-121 -140.5t-187.5 -97t-237 -36.5q-309 0 -484.5 176.5t-175.5 489.5q0 316 175.5 495t484.5 179q126 0 235.5 -36t185 -97t118.5 -141t43 -167h-363q-13 44 -76 81.5t-143 37.5q-105 0 -177.5 -52t-105.5 -148h484v-308h-484
q32 -91 105 -139.5t178 -48.5q81 0 147.5 37.5t79.5 81.5z" />
    <glyph glyph-name="uni0405" unicode="&#x405;" horiz-adv-x="1236" 
d="M631 1315q125 0 223.5 -33t160.5 -92t95.5 -134.5t38.5 -164.5h-340q-8 57 -54.5 92t-133.5 35q-168 0 -168 -105q0 -37 31.5 -63.5t83 -40t117.5 -29t134.5 -29.5t134.5 -42t117.5 -65.5t83 -102.5t31.5 -150q0 -197 -149.5 -306.5t-426.5 -109.5q-262 0 -403.5 113.5
t-155.5 306.5h322q10 -61 72.5 -92t168.5 -31q104 0 150.5 23t46.5 82q0 24 -25 40t-67.5 25.5t-97.5 18t-116 21t-121.5 29.5t-115.5 49t-97.5 75t-67.5 110.5t-25 153.5q0 191 155 303.5t398 112.5z" />
    <glyph glyph-name="uni0406" unicode="&#x406;" horiz-adv-x="575" 
d="M465 0h-354v1290h354v-1290z" />
    <glyph glyph-name="uni0407" unicode="&#x407;" horiz-adv-x="575" 
d="M86 1718q62 0 107 -40t45 -111q0 -70 -45.5 -110t-106.5 -40t-106.5 40t-45.5 110q0 71 45 111t107 40zM492 1718q61 0 106 -40t45 -111q0 -70 -45 -110t-106 -40t-106.5 40t-45.5 110q0 71 45 111t107 40zM465 0h-354v1290h354v-1290z" />
    <glyph glyph-name="uni0408" unicode="&#x408;" horiz-adv-x="948" 
d="M838 1290v-682q0 -105 -27.5 -198t-86.5 -173.5t-145 -138t-210.5 -90.5t-276.5 -33v322q91 0 162 19t113 49.5t69 72.5t37 83t10 87v355h-346v327h701z" />
    <glyph glyph-name="uni0409" unicode="&#x409;" horiz-adv-x="2111" 
d="M1356 788h225q123 0 214.5 -28.5t146.5 -80t81.5 -118.5t26.5 -149q0 -175 -134.5 -293.5t-344.5 -118.5h-570v963h-387v-422q0 -123 -27.5 -219.5t-75.5 -161t-118.5 -106.5t-152 -60.5t-179.5 -18.5v328q112 0 155.5 55.5t43.5 169.5v762h1096v-502zM1356 502v-185h243
q48 0 75.5 28t27.5 65q0 38 -27.5 65t-75.5 27h-243z" />
    <glyph glyph-name="uni040A" unicode="&#x40a;" horiz-adv-x="2107" 
d="M1352 793h225q240 -3 354.5 -106.5t114.5 -274.5q0 -175 -134.5 -293.5t-344.5 -118.5h-570v502h-532v-502h-354v1290h354v-497h532v497h355v-497zM1352 317h243q48 0 75.5 28t27.5 65q0 38 -27.5 65t-75.5 27h-243v-185z" />
    <glyph glyph-name="uni040B" unicode="&#x40b;" horiz-adv-x="1617" 
d="M1235 963h-410v-152q103 39 248 39q68 0 129.5 -11.5t122 -40.5t104 -74.5t70.5 -118.5t27 -167v-438h-355v379q0 135 -165 135q-66 0 -181 -25v-489h-354v963h-410v327h1174v-327z" />
    <glyph glyph-name="uni040C" unicode="&#x40c;" horiz-adv-x="1282" 
d="M418 1382l-76 197l518 213l96 -248zM1200 1290l-366 -534q46 -10 110.5 -106.5t118 -211t118 -248t101.5 -190.5h-403q-19 24 -57.5 108t-73.5 163.5t-87 144.5t-100 65h-96v-481h-354v1290h354v-481h43l289 481h403z" />
    <glyph glyph-name="uni040E" unicode="&#x40e;" horiz-adv-x="1222" 
d="M623 1391q-157 0 -257 88t-100 252h240q0 -61 30.5 -95t86.5 -34t86 34t30 95h240q0 -164 -99.5 -252t-256.5 -88zM1202 1290l-356 -891q-61 -152 -138 -238t-204 -131.5t-330 -54.5l-20 316q122 -10 210.5 11.5t114.5 84.5l6 16l-444 887h436l182 -456l185 456h358z" />
    <glyph glyph-name="uni040F" unicode="&#x40f;" horiz-adv-x="1357" 
d="M1247 0h-426v-256h-282v256h-428v1290h354v-962h428v962h354v-1290z" />
    <glyph glyph-name="uni0410" unicode="&#x410;" horiz-adv-x="1519" 
d="M1012 209h-504l-70 -209h-397l516 1290l412 -2l510 -1288h-385zM881 537l-144 364l-121 -364h265z" />
    <glyph glyph-name="uni0411" unicode="&#x411;" horiz-adv-x="1302" 
d="M1034 973h-569v-185h307q123 0 214.5 -28.5t146.5 -80t81.5 -118.5t26.5 -149q0 -175 -134.5 -293.5t-344.5 -118.5h-651v1290h923v-317zM465 502v-185h326q48 0 75 28t27 65q0 38 -27 65t-75 27h-326z" />
    <glyph glyph-name="uni0412" unicode="&#x412;" horiz-adv-x="1302" 
d="M111 1290h661q114 0 202 -32t137.5 -85.5t74 -114t24.5 -126.5q0 -76 -52.5 -150t-149.5 -110q104 -40 168.5 -118t64.5 -189q0 -171 -131.5 -268t-347.5 -97h-651v1290zM465 973v-185h307q40 0 65 29t25 66t-24.5 63.5t-65.5 26.5h-307zM465 502v-185h326q48 0 75 28
t27 65q0 38 -27 65t-75 27h-326z" />
    <glyph glyph-name="uni0413" unicode="&#x413;" horiz-adv-x="1038" 
d="M977 963h-512v-963h-354v1290h866v-327z" />
    <glyph glyph-name="uni0414" unicode="&#x414;" horiz-adv-x="1492" 
d="M1333 328h129v-584h-282v256h-867v-256h-282v584h123q8 15 35.5 62t34 60t26.5 52.5t25.5 59t17.5 58.5t15.5 72.5t7 80t3.5 99.5v418h1014v-962zM674 963v-89q1 -70 -3 -128.5t-18 -112t-23 -85.5t-35 -82t-35 -66.5t-42 -71.5h461v635h-305z" />
    <glyph glyph-name="uni0415" unicode="&#x415;" horiz-adv-x="1153" 
d="M1022 963h-557v-156h514v-328h-514v-37q0 -65 37 -89.5t100 -24.5h428v-328h-477q-208 0 -325 104.5t-117 315.5v870h911v-327z" />
    <glyph glyph-name="uni0416" unicode="&#x416;" horiz-adv-x="1906" 
d="M1825 1290l-342 -534q42 -13 117 -156t162.5 -340t123.5 -260h-405q-14 23 -49 108t-67.5 164t-77.5 144t-83 65h-74v-481h-354v481h-74q-38 0 -83 -65t-77.5 -144t-67 -164t-48.5 -108h-406q36 63 124 260.5t163 340t117 155.5l-342 534h403l281 -481h10v481h354v-481
h11l280 481h404z" />
    <glyph glyph-name="uni0417" unicode="&#x417;" horiz-adv-x="1269" 
d="M598 1315q143 0 264.5 -46.5t200 -142t78.5 -223.5q0 -65 -41 -129.5t-111 -105.5q189 -73 189 -262q0 -112 -47 -197.5t-128.5 -135t-180.5 -74t-212 -24.5q-134 0 -239 34t-169 93t-97 133.5t-33 159.5h321q11 -63 62 -93t159 -30q215 0 215 134q0 50 -50 78t-142 28
h-221v264h209q79 0 120 33.5t41 95.5q0 55 -49 84t-131 29q-79 0 -121.5 -35t-50.5 -92h-340q0 82 31 156.5t91 135t159 96.5t223 36z" />
    <glyph glyph-name="uni0418" unicode="&#x418;" horiz-adv-x="1429" 
d="M1319 0h-354v719l-582 -719h-272v1290h354v-674l549 674h305v-1290z" />
    <glyph glyph-name="uni0419" unicode="&#x419;" horiz-adv-x="1429" 
d="M831 1731h240q0 -164 -99.5 -252t-256.5 -88t-257 88t-100 252h240q0 -61 30.5 -95t86.5 -34t86 34t30 95zM1319 0h-354v719l-582 -719h-272v1290h354v-674l549 674h305v-1290z" />
    <glyph glyph-name="uni041A" unicode="&#x41a;" horiz-adv-x="1282" 
d="M1200 1290l-366 -534q46 -10 110.5 -106.5t118 -211t118 -248t101.5 -190.5h-403q-19 24 -57.5 108t-73.5 163.5t-87 144.5t-100 65h-96v-481h-354v1290h354v-481h43l289 481h403z" />
    <glyph glyph-name="uni041B" unicode="&#x41b;" horiz-adv-x="1466" 
d="M1356 0h-355v963h-387v-422q0 -123 -27.5 -219.5t-75.5 -161t-118.5 -106.5t-152 -60.5t-179.5 -18.5v328q112 0 155.5 55.5t43.5 169.5v762h1096v-1290z" />
    <glyph glyph-name="uni041C" unicode="&#x41c;" horiz-adv-x="1699" 
d="M1589 0h-354v737l-254 -415h-262l-254 415v-737h-354v1290h368l371 -569l371 569h368v-1290z" />
    <glyph glyph-name="uni041D" unicode="&#x41d;" horiz-adv-x="1462" 
d="M1352 0h-355v467h-532v-467h-354v1290h354v-495h532v495h355v-1290z" />
    <glyph glyph-name="uni041E" unicode="&#x41e;" horiz-adv-x="1482" 
d="M741 1315q318 0 499 -179t181 -495q0 -313 -180.5 -489.5t-499.5 -176.5t-499.5 176.5t-180.5 489.5q0 316 181 495t499 179zM741 993q-153 0 -239 -95t-86 -263q0 -159 86 -248.5t239 -89.5t239.5 89.5t86.5 248.5q0 168 -86.5 263t-239.5 95z" />
    <glyph glyph-name="uni041F" unicode="&#x41f;" horiz-adv-x="1398" 
d="M1288 0h-354v963h-469v-963h-354v1290h1177v-1290z" />
    <glyph glyph-name="uni0420" unicode="&#x420;" horiz-adv-x="1280" 
d="M532 1290h189q120 0 217 -42t157 -110t92.5 -155.5t32.5 -179t-32.5 -179t-92.5 -155.5t-157 -110t-217 -42h-256v-317h-354v879q0 195 107.5 303t313.5 108zM711 963h-148q-53 0 -75.5 -24.5t-22.5 -72.5v-221h246q46 0 82.5 17.5t55.5 45.5t27.5 62t0 68t-27.5 62
t-55.5 45.5t-82.5 17.5z" />
    <glyph glyph-name="uni0421" unicode="&#x421;" horiz-adv-x="1372" 
d="M721 1315q126 0 235.5 -36t185 -97t118.5 -141t43 -167h-402q-14 49 -58.5 84t-121.5 35q-144 0 -224.5 -95t-80.5 -263q0 -159 80.5 -248.5t224.5 -89.5q78 0 126 35.5t62 83.5h402q0 -87 -44.5 -167t-121 -140.5t-187.5 -97t-237 -36.5q-309 0 -484.5 176.5
t-175.5 489.5q0 316 175.5 495t484.5 179z" />
    <glyph glyph-name="uni0422" unicode="&#x422;" horiz-adv-x="1296" 
d="M1235 963h-410v-963h-354v963h-410v327h1174v-327z" />
    <glyph glyph-name="uni0423" unicode="&#x423;" horiz-adv-x="1222" 
d="M1202 1290l-356 -891q-61 -152 -138 -238t-204 -131.5t-330 -54.5l-20 316q122 -10 210.5 11.5t114.5 84.5l6 16l-444 887h436l182 -456l185 456h358z" />
    <glyph glyph-name="uni0424" unicode="&#x424;" horiz-adv-x="1474" 
d="M870 1290v-119q109 -5 205.5 -41.5t172.5 -100.5t120.5 -163.5t44.5 -222.5q0 -115 -44.5 -213t-120 -164t-173 -105t-205.5 -44v-117h-266v117q-108 5 -206 43.5t-173 104.5t-119.5 164.5t-44.5 213.5q0 124 44 224t120 164.5t172.5 101t206.5 41.5v116h266zM604 385
v520q-84 -11 -136 -76.5t-52 -183.5t52 -182.5t136 -77.5zM870 905v-520q83 13 136 78.5t53 181.5t-53 181.5t-136 78.5z" />
    <glyph glyph-name="uni0425" unicode="&#x425;" horiz-adv-x="1466" 
d="M958 641l467 -641h-436l-272 383l-242 -383h-426l445 639l-453 651h430l266 -407l256 407h414z" />
    <glyph glyph-name="uni0426" unicode="&#x426;" horiz-adv-x="1406" 
d="M1247 328h129v-584h-282v256h-983v1290h354v-962h428v962h354v-962z" />
    <glyph glyph-name="uni0427" unicode="&#x427;" horiz-adv-x="1282" 
d="M1171 0h-354v406q-48 -24 -109 -38.5t-129 -14.5t-136 13t-129.5 47.5t-108.5 84.5t-75 128t-28 175v489h355v-446q0 -76 53.5 -115.5t135.5 -37t171 41.5v557h354v-1290z" />
    <glyph glyph-name="uni0428" unicode="&#x428;" horiz-adv-x="1894" 
d="M1784 0h-1673v1290h354v-962h305v962h354v-962h306v962h354v-1290z" />
    <glyph glyph-name="uni0429" unicode="&#x429;" horiz-adv-x="1943" 
d="M1784 328h129v-584h-283v256h-1519v1290h354v-962h305v962h354v-962h306v962h354v-962z" />
    <glyph glyph-name="uni042A" unicode="&#x42a;" horiz-adv-x="1146" 
d="M465 788h225q123 0 214.5 -28.5t146.5 -80t81.5 -118.5t26.5 -149q0 -175 -134.5 -293.5t-344.5 -118.5h-569v973h-154v317h508v-502zM465 317h244q48 0 75 28t27 65q0 38 -27 65t-75 27h-244v-185z" />
    <glyph glyph-name="uni042B" unicode="&#x42b;" horiz-adv-x="1697" 
d="M465 788h225q123 0 214.5 -28.5t146.5 -80t81.5 -118.5t26.5 -149q0 -175 -134.5 -293.5t-344.5 -118.5h-569v1290h354v-502zM1587 0h-354v1290h354v-1290zM465 502v-185h244q48 0 75 28t27 65q0 38 -27 65t-75 27h-244z" />
    <glyph glyph-name="uni042C" unicode="&#x42c;" horiz-adv-x="1220" 
d="M465 788h225q123 0 214.5 -28.5t146.5 -80t81.5 -118.5t26.5 -149q0 -175 -134.5 -293.5t-344.5 -118.5h-569v1290h354v-502zM465 502v-185h244q48 0 75 28t27 65q0 38 -27 65t-75 27h-244z" />
    <glyph glyph-name="uni042D" unicode="&#x42d;" horiz-adv-x="1372" 
d="M651 1315q309 0 484.5 -179t175.5 -495q0 -313 -175.5 -489.5t-484.5 -176.5q-126 0 -237 36.5t-187.5 97t-121 140.5t-44.5 167h363q13 -44 79.5 -81.5t147.5 -37.5q105 0 178 48.5t105 139.5h-483v308h483q-33 96 -105.5 148t-177.5 52q-80 0 -143 -37.5t-76 -81.5
h-362q0 87 43 167t118 141t184.5 97t235.5 36z" />
    <glyph glyph-name="uni042E" unicode="&#x42e;" horiz-adv-x="2009" 
d="M1300 1315q302 0 475 -179t173 -495q0 -312 -173 -489t-475 -177q-257 0 -422.5 129t-209.5 363h-203v-467h-354v1290h354v-495h199q40 247 206.5 383.5t429.5 136.5zM1300 297q137 0 215 90t78 248q0 167 -78 262.5t-215 95.5q-138 0 -216 -95.5t-78 -262.5
q0 -158 78 -248t216 -90z" />
    <glyph glyph-name="uni042F" unicode="&#x42f;" horiz-adv-x="1280" 
d="M621 1290h127q206 0 313.5 -108t107.5 -303v-879h-354v379h-90q-75 -55 -156.5 -173t-122.5 -206h-405q14 21 58.5 87.5t69.5 101.5t65 87.5t77.5 90.5t75.5 65q-68 36 -119 93t-78 123.5t-33.5 140.5t7.5 145t51.5 136t92.5 113.5t136 77.5t177 29zM717 963h-86
q-52 0 -88 -26.5t-44.5 -64t0 -75t44.5 -64t88 -26.5h184v159q0 48 -22.5 72.5t-75.5 24.5z" />
    <glyph glyph-name="uni0430" unicode="&#x430;" horiz-adv-x="1189" 
d="M1098 0h-328v78q-27 -23 -48.5 -37t-57.5 -31.5t-84 -26t-107 -8.5q-84 0 -158.5 29.5t-134 86t-94.5 148t-35 207.5q0 122 35 221.5t95.5 166.5t142.5 113t174 66.5t194 20.5q206 0 406 -86v-948zM770 408v309q-68 18 -123 18q-88 0 -151 -42t-90 -102t-27 -128
q0 -94 44.5 -148.5t129.5 -54.5q67 0 126 45t91 103z" />
    <glyph glyph-name="uni0431" unicode="&#x431;" horiz-adv-x="1181" 
d="M1018 1507v-293q-75 -15 -166.5 -21t-149.5 -7t-120.5 -19t-106.5 -57q-45 -41 -62 -75.5t-18 -96.5q100 96 281 96q94 0 175.5 -33t144 -95t98.5 -161t36 -223q0 -277 -144 -412t-394 -135q-139 0 -244 51.5t-169.5 146.5t-96 223.5t-31.5 289.5q0 225 62 388t172 259
q69 60 172.5 95t190 43.5t201 17t169.5 18.5zM598 735q-104 0 -151.5 -64t-47.5 -167q0 -104 47.5 -167t151.5 -63t151.5 63t47.5 167q0 103 -47.5 167t-151.5 64z" />
    <glyph glyph-name="uni0432" unicode="&#x432;" horiz-adv-x="1114" 
d="M92 1010h592q157 0 253.5 -80t96.5 -191q0 -66 -45 -131.5t-108 -83.5q74 -29 123 -90t49 -149q0 -129 -103.5 -207t-273.5 -78h-584v1010zM420 743v-122h215q32 0 49.5 18t17.5 43t-17.5 43t-49.5 18h-215zM420 389v-123h231q31 0 48.5 18.5t17.5 43.5t-17.5 43
t-48.5 18h-231z" />
    <glyph glyph-name="uni0433" unicode="&#x433;" horiz-adv-x="851" 
d="M821 692h-401v-692h-328v1010h729v-318z" />
    <glyph glyph-name="uni0434" unicode="&#x434;" horiz-adv-x="1222" 
d="M1092 317h100v-573h-277v256h-628v-256h-277v573h125q56 71 83.5 152.5t27.5 204.5v336h846v-693zM573 692v-18q0 -195 -110 -357h301v375h-191z" />
    <glyph glyph-name="uni0435" unicode="&#x435;" horiz-adv-x="1191" 
d="M582 1034q269 0 414 -176t122 -469h-712q54 -127 206 -127q134 0 166 60h338q-21 -169 -157.5 -258t-331.5 -89q-257 0 -416.5 148.5t-159.5 392.5q0 113 42 210.5t113.5 164.5t169 105t206.5 38zM391 635h395q-13 66 -61 108.5t-129 42.5q-76 0 -130 -38.5t-75 -112.5z
" />
    <glyph glyph-name="uni0436" unicode="&#x436;" horiz-adv-x="1556" 
d="M1489 1010l-283 -467q60 -26 122.5 -122.5t133 -246t84.5 -174.5h-348q-12 24 -34.5 77t-40 89t-41 76t-49.5 61t-54 21h-37v-324h-328v324h-36q-28 0 -54 -21t-50 -61t-41.5 -76t-40.5 -89t-34 -77h-348q14 25 84.5 174.5t133 246t122.5 122.5l-282 467h344l182 -369h20
v369h328v-369h21l182 369h344z" />
    <glyph glyph-name="uni0437" unicode="&#x437;" horiz-adv-x="983" 
d="M457 1034q196 0 319 -89.5t123 -256.5q0 -40 -23 -86t-65 -78q64 -30 92.5 -73t28.5 -117q0 -79 -27.5 -142t-73 -103t-107.5 -66.5t-126.5 -37t-134.5 -10.5q-117 0 -205 30t-138.5 81t-72.5 114t-16 134h317q0 -29 31.5 -50.5t91.5 -21.5q135 0 135 74q0 24 -22 38.5
t-62 14.5h-213v219h168q47 0 71.5 20t24.5 48q0 33 -27.5 52.5t-76.5 19.5q-53 0 -79.5 -23.5t-24.5 -56.5h-328q-5 66 18.5 129.5t73 117t135 86.5t193.5 33z" />
    <glyph glyph-name="uni0438" unicode="&#x438;" horiz-adv-x="1138" 
d="M1047 0h-328v498l-326 -498h-301v1010h328v-498l325 498h302v-1010z" />
    <glyph glyph-name="uni0439" unicode="&#x439;" horiz-adv-x="1138" 
d="M686 1450h240q0 -164 -100 -252t-257 -88t-256.5 88t-99.5 252h240q0 -61 30 -95t86 -34t86.5 34t30.5 95zM1047 0h-328v498l-326 -498h-301v1010h328v-498l325 498h302v-1010z" />
    <glyph glyph-name="uni043A" unicode="&#x43a;" horiz-adv-x="1083" 
d="M993 1010l-260 -463q59 -25 120.5 -125t126.5 -245t83 -177h-397q-13 27 -33.5 77.5t-37 88t-38 77t-47 60.5t-53.5 21h-37v-324h-328v1010h328v-369h20l183 369h370z" />
    <glyph glyph-name="uni043B" unicode="&#x43b;" horiz-adv-x="1185" 
d="M1094 0h-328v682h-252v-207q0 -115 -25 -203t-67.5 -144t-105 -91.5t-132 -49.5t-153.5 -14v328q85 0 120 41.5t35 124.5v543h908v-1010z" />
    <glyph glyph-name="uni043C" unicode="&#x43c;" horiz-adv-x="1417" 
d="M1325 0h-328v459l-159 -238h-258l-160 238v-459h-328v1010h322l295 -387l295 387h321v-1010z" />
    <glyph glyph-name="uni043D" unicode="&#x43d;" horiz-adv-x="1169" 
d="M1077 0h-327v326h-330v-326h-328v1010h328v-367h330v367h327v-1010z" />
    <glyph glyph-name="uni043E" unicode="&#x43e;" horiz-adv-x="1155" 
d="M578 1034q165 0 286 -72t180.5 -190.5t59.5 -267.5q0 -112 -33.5 -207.5t-97.5 -167.5t-165.5 -113t-229.5 -41t-229.5 41t-166 113t-98 167.5t-33.5 207.5q0 111 35 207t100.5 168t166.5 113.5t225 41.5zM578 735q-104 0 -151.5 -64t-47.5 -167q0 -104 47.5 -167
t151.5 -63t151 63t47 167q0 103 -47.5 167t-150.5 64z" />
    <glyph glyph-name="uni043F" unicode="&#x43f;" horiz-adv-x="1169" 
d="M1077 0h-327v692h-330v-692h-328v1010h985v-1010z" />
    <glyph glyph-name="uni0440" unicode="&#x440;" horiz-adv-x="1196" 
d="M618 1034q-128 0 -229.5 -41t-165.5 -113t-97.5 -167t-33.5 -207v-891h328v408q93 -48 217 -48q94 0 184 36t162.5 102t117 168.5t44.5 224.5q0 112 -33.5 207t-98 167t-166 113t-229.5 41zM618 735q104 0 151.5 -62.5t47.5 -166.5q0 -106 -61 -169t-150 -63
q-107 0 -186 76v170q0 215 198 215z" />
    <glyph glyph-name="uni0441" unicode="&#x441;" horiz-adv-x="1114" 
d="M571 1034q121 0 226 -49t171.5 -139t75.5 -203h-337q-6 40 -42.5 66t-93.5 26q-192 0 -192 -233q0 -112 52.5 -170t150.5 -58q54 0 90 22t43 60h338q-11 -113 -80 -200.5t-174.5 -134t-227.5 -46.5q-109 0 -202.5 33.5t-165 97.5t-112 166t-40.5 230q0 234 146 383
t374 149z" />
    <glyph glyph-name="uni0442" unicode="&#x442;" horiz-adv-x="1077" 
d="M1016 692h-314v-692h-327v692h-314v318h955v-318z" />
    <glyph glyph-name="uni0443" unicode="&#x443;" horiz-adv-x="1196" 
d="M1104 1010v-944q0 -138 -74.5 -247t-205.5 -169t-296 -60q-247 0 -436 129l164 254q114 -84 272 -84q102 0 175 48.5t73 121.5v39q-95 -82 -274 -82q-59 0 -113.5 12.5t-107.5 42.5t-92 76t-63 119.5t-24 165.5v578h328v-539q0 -156 141 -156q66 0 122.5 36.5t82.5 88.5
v570h328z" />
    <glyph glyph-name="uni0444" unicode="&#x444;" horiz-adv-x="1695" 
d="M1012 1290v-284q76 28 151 28q96 0 175 -26.5t135.5 -74t95.5 -114t57.5 -145.5t18.5 -168q0 -123 -36 -225t-96 -167t-136 -101t-158 -36q-107 0 -207 62v-424h-328v424q-100 -62 -207 -62q-82 0 -158 36t-136 101t-96 167t-36 225q0 151 51 268t161.5 188.5t268.5 71.5
q79 0 152 -28v284h328zM532 735q-59 0 -94 -32t-47 -80t-12 -117q0 -106 46.5 -169t113.5 -63q78 0 145 82v164q0 105 -33 160t-119 55zM1163 735q-86 0 -118.5 -55t-32.5 -160v-164q67 -82 145 -82q67 0 113.5 63t46.5 169q0 69 -12 117t-47.5 80t-94.5 32z" />
    <glyph glyph-name="uni0445" unicode="&#x445;" horiz-adv-x="1163" 
d="M799 522l352 -522h-395l-176 270l-183 -270h-387l357 510l-353 500h392l188 -287l186 287h373z" />
    <glyph glyph-name="uni0446" unicode="&#x446;" horiz-adv-x="1198" 
d="M1067 317h100v-573h-278v256h-797v1010h328v-693h319v693h328v-693z" />
    <glyph glyph-name="uni0447" unicode="&#x447;" horiz-adv-x="1165" 
d="M1073 0h-328v238q-59 -31 -128 -48t-142.5 -18.5t-142 23.5t-122 72t-86 131.5t-32.5 197.5v414h328v-410q0 -83 54 -119.5t130 -19.5t141 76v473h328v-1010z" />
    <glyph glyph-name="uni0448" unicode="&#x448;" horiz-adv-x="1724" 
d="M1632 0h-1540v1010h328v-693h278v693h328v-693h279v693h327v-1010z" />
    <glyph glyph-name="uni0449" unicode="&#x449;" horiz-adv-x="1763" 
d="M1632 317h101v-573h-279v256h-1362v1010h328v-693h278v693h328v-693h279v693h327v-693z" />
    <glyph glyph-name="uni044A" unicode="&#x44a;" horiz-adv-x="1044" 
d="M461 754h141q191 0 291 -107t100 -268q0 -156 -111.5 -267.5t-279.5 -111.5h-469v754h-121v256h449v-256zM461 297h117q42 0 65 24t23 56q0 33 -23 56.5t-65 23.5h-117v-160z" />
    <glyph glyph-name="uni044B" unicode="&#x44b;" horiz-adv-x="1417" 
d="M420 754h141q191 0 291 -107t100 -268q0 -156 -111.5 -267.5t-279.5 -111.5h-469v1010h328v-256zM1325 0h-328v1010h328v-1010zM420 457v-160h117q42 0 65 24t23 56q0 33 -23 56.5t-65 23.5h-117z" />
    <glyph glyph-name="uni044C" unicode="&#x44c;" horiz-adv-x="1003" 
d="M420 754h141q191 0 291 -107t100 -268q0 -156 -111.5 -267.5t-279.5 -111.5h-469v1010h328v-256zM420 457v-160h117q42 0 65 24t23 56q0 33 -23 56.5t-65 23.5h-117z" />
    <glyph glyph-name="uni044D" unicode="&#x44d;" horiz-adv-x="1122" 
d="M559 1034q233 0 372.5 -138t139.5 -396q0 -259 -132 -392t-372 -133q-219 0 -363.5 107t-152.5 268h365q33 -76 145 -76q55 0 99 30.5t65 86.5h-338v232h332q-25 54 -67 83t-95 29q-51 0 -84.5 -21.5t-48.5 -49.5h-363q6 155 144.5 262.5t353.5 107.5z" />
    <glyph glyph-name="uni044E" unicode="&#x44e;" horiz-adv-x="1628" 
d="M1059 1034q239 0 378.5 -137t139.5 -395t-138.5 -392.5t-379.5 -134.5q-197 0 -327.5 90.5t-172.5 266.5h-139v-332h-328v1010h328v-361h135q38 189 169.5 287t334.5 98zM1059 297q89 0 139.5 52.5t50.5 144.5q0 103 -50.5 160t-139.5 57q-90 0 -140.5 -57.5
t-50.5 -159.5q0 -92 51 -144.5t140 -52.5z" />
    <glyph glyph-name="uni044F" unicode="&#x44f;" horiz-adv-x="1093" 
d="M518 1010h141q342 0 342 -365v-645h-327v244h-66q-47 -29 -103 -110t-79 -134h-406q111 155 167 215q64 68 120 100q-79 46 -127.5 117.5t-61 147.5t8 153.5t69 138.5t133 99.5t189.5 38.5zM625 702h-101q-33 0 -56 -15.5t-28 -38t0.5 -44.5t28.5 -37.5t57 -15.5h148v100
q0 27 -10.5 39t-38.5 12z" />
    <glyph glyph-name="uni0451" unicode="&#x451;" horiz-adv-x="1191" 
d="M383 1137q-61 0 -106.5 39.5t-45.5 109.5q0 71 45.5 111.5t106.5 40.5t106.5 -40.5t45.5 -111.5q0 -70 -45.5 -109.5t-106.5 -39.5zM788 1137q-61 0 -106 39.5t-45 109.5q0 71 45 111.5t106 40.5t106.5 -40.5t45.5 -111.5q0 -70 -45.5 -109.5t-106.5 -39.5zM582 1034
q269 0 414 -176t122 -469h-712q54 -127 206 -127q134 0 166 60h338q-21 -169 -157.5 -258t-331.5 -89q-257 0 -416.5 148.5t-159.5 392.5q0 113 42 210.5t113.5 164.5t169 105t206.5 38zM391 635h395q-13 66 -61 108.5t-129 42.5q-76 0 -130 -38.5t-75 -112.5z" />
    <glyph glyph-name="uni0452" unicode="&#x452;" horiz-adv-x="1212" 
d="M420 1026v-174q57 29 129 44t150.5 14.5t153.5 -27t134.5 -74t96 -133t36.5 -197.5v-401q0 -259 -119.5 -373.5t-392.5 -114.5v306q114 0 149.5 38.5t35.5 143.5v358q0 76 -56.5 115.5t-142 37t-174.5 -41.5v-547h-328v1026h-125v256h125v121h328v-121h235v-256h-235z
" />
    <glyph glyph-name="uni0453" unicode="&#x453;" horiz-adv-x="851" 
d="M281 1104l-76 196l518 213l96 -247zM821 692h-401v-692h-328v1010h729v-318z" />
    <glyph glyph-name="uni0454" unicode="&#x454;" horiz-adv-x="1122" 
d="M707 350h364q-8 -161 -152.5 -268t-363.5 -107q-240 0 -372 133t-132 392q0 258 139.5 396t372.5 138q215 0 353.5 -107.5t144.5 -262.5h-363q-15 28 -48.5 49.5t-84.5 21.5q-53 0 -95 -29t-67 -83h332v-232h-338q21 -56 65 -86.5t99 -30.5q58 0 94.5 21t51.5 55z" />
    <glyph glyph-name="uni0455" unicode="&#x455;" horiz-adv-x="1067" 
d="M543 1034q123 0 215.5 -28t147 -78t81 -113t27.5 -139h-340q-2 41 -41 69.5t-98 28.5q-125 0 -125 -65q0 -26 34.5 -43.5t89.5 -28.5t122 -23.5t134 -34t122 -53t89.5 -88.5t34.5 -133q0 -109 -72 -185.5t-183.5 -110.5t-250.5 -34q-237 0 -355 90.5t-124 256.5h322
q2 -38 40 -62t109 -24q76 0 121 16t45 43q0 18 -27 30.5t-71 19.5t-100 18t-114.5 23t-114.5 36.5t-100 57.5t-71 87.5t-27 124.5q0 156 134 249t346 93z" />
    <glyph glyph-name="uni0456" unicode="&#x456;" 
d="M438 1360q0 -85 -54 -132.5t-128 -47.5q-73 0 -127.5 48t-54.5 132q0 85 54 132.5t128 47.5q75 0 128.5 -47t53.5 -133zM420 0h-328v1010h328v-1010z" />
    <glyph glyph-name="uni0457" unicode="&#x457;" 
d="M53 1438q61 0 106.5 -40.5t45.5 -111.5q0 -70 -45.5 -109.5t-106.5 -39.5t-106 39.5t-45 109.5q0 71 45 111.5t106 40.5zM459 1438q61 0 106 -40.5t45 -111.5q0 -70 -45 -109.5t-106 -39.5t-106.5 39.5t-45.5 109.5q0 71 45.5 111.5t106.5 40.5zM420 0h-328v1010h328
v-1010z" />
    <glyph glyph-name="uni0458" unicode="&#x458;" horiz-adv-x="561" 
d="M479 1360q0 -85 -54 -132.5t-128 -47.5q-73 0 -127.5 48t-54.5 132q0 85 54 132.5t128 47.5q75 0 128.5 -47t53.5 -133zM461 1010v-932q0 -259 -119.5 -373.5t-392.5 -114.5v306q114 0 149 38.5t35 143.5v932h328z" />
    <glyph glyph-name="uni0459" unicode="&#x459;" horiz-adv-x="1677" 
d="M1094 754h141q191 0 291 -107t100 -268q0 -156 -111.5 -267.5t-279.5 -111.5h-469v682h-252v-207q0 -115 -25 -203t-67.5 -144t-105 -91.5t-132 -49.5t-153.5 -14v328q85 0 120 41.5t35 124.5v543h908v-256zM1094 457v-160h116q42 0 65 24t23 56q0 33 -23 56.5t-65 23.5
h-116z" />
    <glyph glyph-name="uni045A" unicode="&#x45a;" horiz-adv-x="1660" 
d="M1077 754h142q191 0 291 -107t100 -268q0 -156 -111.5 -267.5t-279.5 -111.5h-469v326h-330v-326h-328v1010h328v-367h330v367h327v-256zM1077 457v-160h117q42 0 65 24t23 56q0 33 -23 56.5t-65 23.5h-117z" />
    <glyph glyph-name="uni045B" unicode="&#x45b;" horiz-adv-x="1212" 
d="M420 1026v-174q57 29 129 44t150.5 14.5t153.5 -27t134.5 -74t96 -133t36.5 -197.5v-479h-327v436q0 76 -56.5 115.5t-142 37t-174.5 -41.5v-547h-328v1026h-125v256h125v121h328v-121h235v-256h-235z" />
    <glyph glyph-name="uni045C" unicode="&#x45c;" horiz-adv-x="1083" 
d="M281 1104l-76 196l518 213l96 -247zM993 1010l-260 -463q59 -25 120.5 -125t126.5 -245t83 -177h-397q-13 27 -33.5 77.5t-37 88t-38 77t-47 60.5t-53.5 21h-37v-324h-328v1010h328v-369h20l183 369h370z" />
    <glyph glyph-name="uni045E" unicode="&#x45e;" horiz-adv-x="1196" 
d="M707 1450h239q0 -164 -99.5 -252t-256.5 -88t-257 88t-100 252h240q0 -61 30.5 -95t86.5 -34t86.5 34t30.5 95zM1104 1010v-944q0 -138 -74.5 -247t-205.5 -169t-296 -60q-247 0 -436 129l164 254q114 -84 272 -84q102 0 175 48.5t73 121.5v39q-95 -82 -274 -82
q-59 0 -113.5 12.5t-107.5 42.5t-92 76t-63 119.5t-24 165.5v578h328v-539q0 -156 141 -156q66 0 122.5 36.5t82.5 88.5v570h328z" />
    <glyph glyph-name="uni045F" unicode="&#x45f;" horiz-adv-x="1159" 
d="M1067 0h-348v-256h-279v256h-348v1010h328v-693h319v693h328v-1010z" />
    <glyph glyph-name="uni0462" unicode="&#x462;" horiz-adv-x="1210" 
d="M465 788h225q123 0 214.5 -28.5t146.5 -80t81.5 -118.5t26.5 -149q0 -175 -134.5 -293.5t-344.5 -118.5h-569v870h-154v277h154v143h354v-143h225v-277h-225v-82zM465 317h244q48 0 75 28t27 65q0 38 -27 65t-75 27h-244v-185z" />
    <glyph glyph-name="uni0463" unicode="&#x463;" horiz-adv-x="1003" 
d="M420 713h141q193 0 292 -98t99 -257q0 -154 -110.5 -256t-280.5 -102h-469v774h-125v236h125v393h328v-393h235v-236h-235v-61zM420 297h117q88 0 88 59q0 60 -88 60h-117v-119z" />
    <glyph glyph-name="uni0472" unicode="&#x472;" horiz-adv-x="1482" 
d="M741 1315q318 0 499 -179t181 -495q0 -313 -180.5 -489.5t-499.5 -176.5t-499.5 176.5t-180.5 489.5q0 316 181 495t499 179zM741 993q-122 0 -201.5 -60.5t-109.5 -170.5q67 16 158 10t163 -20t158 -17.5t144 17.5q-26 116 -107 178.5t-205 62.5zM741 297
q116 0 194.5 52.5t111.5 148.5q-62 -17 -146 -13t-155 17.5t-158 16.5t-154 -15q31 -99 110 -153t197 -54z" />
    <glyph glyph-name="uni0473" unicode="&#x473;" horiz-adv-x="1175" 
d="M588 1034q165 0 286 -72t180.5 -190.5t59.5 -267.5q0 -112 -33.5 -207.5t-97.5 -167.5t-165.5 -113t-229.5 -41t-229.5 41t-166 113t-98 167.5t-33.5 207.5q0 111 35 207t100.5 168t166.5 113.5t225 41.5zM588 735q-139 0 -182 -123q46 13 99.5 6.5t92 -19.5t88.5 -15.5
t88 18.5q-39 133 -186 133zM588 274q144 0 186 129q-37 -16 -76.5 -16.5t-71 9t-70.5 17.5t-74 9.5t-81 -14.5q40 -134 187 -134z" />
    <glyph glyph-name="uni0474" unicode="&#x474;" horiz-adv-x="1562" 
d="M1499 1315v-322q-77 0 -116.5 -29t-75.5 -116l-359 -848h-332l-544 1290h405l320 -798l209 550q33 87 69 138.5t94.5 82.5t133 41.5t196.5 10.5z" />
    <glyph glyph-name="uni0475" unicode="&#x475;" horiz-adv-x="1245" 
d="M1225 1030v-287q-61 0 -95.5 -23.5t-60.5 -86.5l-256 -633h-330l-430 1010h357l252 -668l167 444q22 58 50 99t73 75.5t113 52t160 17.5z" />
    <glyph glyph-name="uni0490" unicode="&#x490;" horiz-adv-x="1038" 
d="M977 1524v-561h-512v-963h-354v1290h538v234h328z" />
    <glyph glyph-name="uni0491" unicode="&#x491;" horiz-adv-x="851" 
d="M821 1290v-598h-401v-692h-328v1010h402v280h327z" />
    <glyph glyph-name="uni0492" unicode="&#x492;" horiz-adv-x="1038" 
d="M465 963v-205h307v-328h-307v-430h-354v430h-154v328h154v532h866v-327h-512z" />
    <glyph glyph-name="uni0493" unicode="&#x493;" horiz-adv-x="851" 
d="M420 692v-162h215v-256h-215v-274h-328v274h-104v256h104v480h729v-318h-401z" />
    <glyph glyph-name="uni0496" unicode="&#x496;" horiz-adv-x="1906" 
d="M1913 184v-440h-283v256h-149q-14 23 -49 108t-67.5 164t-77.5 144t-83 65h-74v-481h-354v481h-74q-38 0 -83 -65t-77.5 -144t-67 -164t-48.5 -108h-406q36 63 124 260.5t163 340t117 155.5l-342 534h403l281 -481h10v481h354v-481h11l280 481h404l-342 -534
q15 -5 34 -25t43 -60t43 -74.5t49.5 -98.5t47.5 -101t50.5 -111.5t45.5 -101.5h117z" />
    <glyph glyph-name="uni0497" unicode="&#x497;" horiz-adv-x="1556" 
d="M1546 184v-440h-282v256h-66q-12 24 -34.5 77t-40 89t-41 76t-49.5 61t-54 21h-37v-324h-328v324h-36q-28 0 -54 -21t-50 -61t-41.5 -76t-40.5 -89t-34 -77h-348q14 25 84.5 174.5t133 246t122.5 122.5l-282 467h344l182 -369h20v369h328v-369h21l182 369h344l-283 -467
q60 -26 120 -120t130 -239h90z" />
    <glyph glyph-name="uni049A" unicode="&#x49a;" horiz-adv-x="1282" 
d="M1282 184v-440h-283v256h-120q-19 24 -57.5 108t-73.5 163.5t-87 144.5t-100 65h-96v-481h-354v1290h354v-481h43l289 481h403l-366 -534q21 -5 44.5 -25.5t50 -59t49.5 -75.5t53.5 -97.5t50.5 -101.5t53 -110.5t49 -102.5h98z" />
    <glyph glyph-name="uni049B" unicode="&#x49b;" horiz-adv-x="1083" 
d="M1063 184v-440h-283v256h-114q-13 27 -33.5 77.5t-37 88t-38 77t-47 60.5t-53.5 21h-37v-324h-328v1010h328v-369h20l183 369h370l-260 -463q32 -14 65 -50t65.5 -92t56.5 -104t55 -117h88z" />
    <glyph glyph-name="uni04A2" unicode="&#x4a2;" horiz-adv-x="1556" 
d="M1446 184v-440h-283v256h-166v467h-532v-467h-354v1290h354v-495h532v495h355v-1106h94z" />
    <glyph glyph-name="uni04A3" unicode="&#x4a3;" horiz-adv-x="1169" 
d="M1165 184v-440h-282v256h-133v326h-330v-326h-328v1010h328v-367h330v367h327v-826h88z" />
    <glyph glyph-name="uni04AE" unicode="&#x4ae;" horiz-adv-x="1464" 
d="M891 506v-506h-354v506l-517 784h422l283 -467l285 467h434z" />
    <glyph glyph-name="uni04AF" unicode="&#x4af;" horiz-adv-x="1218" 
d="M754 387v-387h-328v387l-416 623h424l166 -308l172 308h436z" />
    <glyph glyph-name="uni04B0" unicode="&#x4b0;" horiz-adv-x="1464" 
d="M891 444h266v-297h-266v-147h-354v147h-267v297h267v62l-517 784h422l283 -467l285 467h434l-553 -784v-62z" />
    <glyph glyph-name="uni04B1" unicode="&#x4b1;" horiz-adv-x="1218" 
d="M754 332h159v-256h-159v-76h-328v76h-160v256h160v55l-416 623h424l166 -308l172 308h436l-454 -623v-55z" />
    <glyph glyph-name="uni04B2" unicode="&#x4b2;" horiz-adv-x="1470" 
d="M1430 184v-440h-283v256h-158l-272 383l-242 -383h-426l445 639l-453 651h430l266 -407l256 407h414l-449 -649l332 -457h140z" />
    <glyph glyph-name="uni04B3" unicode="&#x4b3;" horiz-adv-x="1163" 
d="M1026 184h125v-440h-283v256h-112l-176 270l-183 -270h-387l357 510l-353 500h392l188 -287l186 287h373l-354 -488z" />
    <glyph glyph-name="uni04B6" unicode="&#x4b6;" horiz-adv-x="1349" 
d="M1268 184v-440h-283v256h-168v406q-48 -24 -109 -38.5t-129 -14.5t-136 13t-129.5 47.5t-108.5 84.5t-75 128t-28 175v489h355v-446q0 -76 53.5 -115.5t135.5 -37t171 41.5v557h354v-1106h97z" />
    <glyph glyph-name="uni04B7" unicode="&#x4b7;" horiz-adv-x="1165" 
d="M1151 184v-440h-283v256h-123v238q-59 -31 -128 -48t-142.5 -18.5t-142 23.5t-122 72t-86 131.5t-32.5 197.5v414h328v-410q0 -83 54 -119.5t130 -19.5t141 76v473h328v-826h78z" />
    <glyph glyph-name="uni04BA" unicode="&#x4ba;" horiz-adv-x="1239" 
d="M446 1290v-479q103 39 248 39q68 0 129.5 -11.5t122 -40.5t104 -74.5t70.5 -118.5t27 -167v-438h-354v379q0 135 -166 135q-66 0 -181 -25v-489h-354v1290h354z" />
    <glyph glyph-name="uni04BB" unicode="&#x4bb;" horiz-adv-x="1212" 
d="M420 1290v-418q57 29 129 44t150.5 14.5t153.5 -26.5t134.5 -73.5t96 -133t36.5 -197.5v-500h-327v457q0 76 -56.5 115.5t-142 36.5t-174.5 -42v-567h-328v1290h328z" />
    <glyph glyph-name="uni04C0" unicode="&#x4c0;" horiz-adv-x="575" 
d="M465 0h-354v1290h354v-1290z" />
    <glyph glyph-name="uni04CF" unicode="&#x4cf;" 
d="M420 0h-328v1010h328v-1010z" />
    <glyph glyph-name="uni04D8" unicode="&#x4d8;" horiz-adv-x="1372" 
d="M651 1315q309 0 484.5 -179t175.5 -495q0 -313 -175.5 -489.5t-484.5 -176.5q-110 0 -206 27t-165 73t-119.5 106t-75 127t-24.5 136v287h887q-22 125 -98.5 193.5t-198.5 68.5q-80 0 -143 -37.5t-76 -81.5h-362q0 87 43 167t118 141t184.5 97t235.5 36zM651 297
q187 0 264 147h-493q10 -58 63 -102.5t166 -44.5z" />
    <glyph glyph-name="uni04D9" unicode="&#x4d9;" horiz-adv-x="1112" 
d="M549 1034q233 0 372.5 -138t139.5 -396q0 -259 -132 -392t-372 -133q-223 0 -364.5 117.5t-141.5 310.5v199h666q-21 64 -66.5 98.5t-103.5 34.5q-51 0 -84.5 -21.5t-48.5 -49.5h-357q6 155 142 262.5t350 107.5zM551 274q48 0 90 25.5t66 71.5h-320q30 -97 164 -97z" />
    <glyph glyph-name="uni04E2" unicode="&#x4e2;" horiz-adv-x="1429" 
d="M1055 1411h-682v221h682v-221zM1319 0h-354v719l-582 -719h-272v1290h354v-674l549 674h305v-1290z" />
    <glyph glyph-name="uni04E3" unicode="&#x4e3;" horiz-adv-x="1138" 
d="M909 1130h-682v222h682v-222zM1047 0h-328v498l-326 -498h-301v1010h328v-498l325 498h302v-1010z" />
    <glyph glyph-name="uni04E8" unicode="&#x4e8;" horiz-adv-x="1482" 
d="M741 1315q318 0 499 -179t181 -495q0 -313 -180.5 -489.5t-499.5 -176.5t-499.5 176.5t-180.5 489.5q0 316 181 495t499 179zM741 993q-113 0 -190 -52t-111 -150h604q-34 97 -112 149.5t-191 52.5zM741 297q122 0 202 56.5t110 160.5h-621q30 -104 109.5 -160.5
t199.5 -56.5z" />
    <glyph glyph-name="uni04E9" unicode="&#x4e9;" horiz-adv-x="1155" 
d="M578 1034q165 0 286 -72t180.5 -190.5t59.5 -267.5q0 -112 -33.5 -207.5t-97.5 -167.5t-165.5 -113t-229.5 -41t-229.5 41t-166 113t-98 167.5t-33.5 207.5q0 111 35 207t100.5 168t166.5 113.5t225 41.5zM578 735q-127 0 -175 -102h349q-48 102 -174 102zM578 274
q128 0 174 103h-351q49 -103 177 -103z" />
    <glyph glyph-name="uni04EE" unicode="&#x4ee;" horiz-adv-x="1222" 
d="M963 1411h-682v221h682v-221zM1202 1290l-356 -891q-61 -152 -138 -238t-204 -131.5t-330 -54.5l-20 316q122 -10 210.5 11.5t114.5 84.5l6 16l-444 887h436l182 -456l185 456h358z" />
    <glyph glyph-name="uni04EF" unicode="&#x4ef;" horiz-adv-x="1196" 
d="M930 1130h-682v222h682v-222zM1104 1010v-944q0 -138 -74.5 -247t-205.5 -169t-296 -60q-247 0 -436 129l164 254q114 -84 272 -84q102 0 175 48.5t73 121.5v39q-95 -82 -274 -82q-59 0 -113.5 12.5t-107.5 42.5t-92 76t-63 119.5t-24 165.5v578h328v-539
q0 -156 141 -156q66 0 122.5 36.5t82.5 88.5v570h328z" />
    <glyph glyph-name="Wgrave" unicode="&#x1e80;" horiz-adv-x="2185" 
d="M895 1794l518 -213l-76 -197l-538 162zM1683 0h-319l-281 772l-276 -772h-320l-426 1290h410l199 -741l256 741l327 2l269 -743l192 741h410z" />
    <glyph glyph-name="wgrave" unicode="&#x1e81;" horiz-adv-x="1794" 
d="M678 1513l518 -213l-76 -196l-538 162zM1358 0h-287l-176 496l-170 -496h-287l-387 1010h377l160 -508l178 508h262l170 -508l168 508h377z" />
    <glyph glyph-name="Wacute" unicode="&#x1e82;" horiz-adv-x="2185" 
d="M891 1382l-76 197l518 213l97 -248zM1683 0h-319l-281 772l-276 -772h-320l-426 1290h410l199 -741l256 741l327 2l269 -743l192 741h410z" />
    <glyph glyph-name="wacute" unicode="&#x1e83;" horiz-adv-x="1794" 
d="M674 1102l-76 196l518 213l96 -247zM1358 0h-287l-176 496l-170 -496h-287l-387 1010h377l160 -508l178 508h262l170 -508l168 508h377z" />
    <glyph glyph-name="Wdieresis" unicode="&#x1e84;" horiz-adv-x="2185" 
d="M911 1718q62 0 107 -40t45 -111q0 -70 -45.5 -110t-106.5 -40t-106 40t-45 110q0 71 45 111t106 40zM1317 1718q61 0 106 -40t45 -111q0 -70 -45 -110t-106 -40t-106.5 40t-45.5 110q0 71 45 111t107 40zM1683 0h-319l-281 772l-276 -772h-320l-426 1290h410l199 -741
l256 741l327 2l269 -743l192 741h410z" />
    <glyph glyph-name="wdieresis" unicode="&#x1e85;" horiz-adv-x="1794" 
d="M694 1438q61 0 106.5 -40.5t45.5 -111.5q0 -70 -45.5 -109.5t-106.5 -39.5t-106 39.5t-45 109.5q0 71 45 111.5t106 40.5zM1100 1438q61 0 106 -40.5t45 -111.5q0 -70 -45 -109.5t-106 -39.5t-106.5 39.5t-45.5 109.5q0 71 45.5 111.5t106.5 40.5zM1358 0h-287l-176 496
l-170 -496h-287l-387 1010h377l160 -508l178 508h262l170 -508l168 508h377z" />
    <glyph glyph-name="Ygrave" unicode="&#x1ef2;" horiz-adv-x="1464" 
d="M514 1794l518 -213l-76 -197l-538 162zM891 506v-506h-354v506l-517 784h422l283 -467l285 467h434z" />
    <glyph glyph-name="ygrave" unicode="&#x1ef3;" horiz-adv-x="1196" 
d="M371 1513l518 -213l-76 -196l-539 162zM1104 1010v-944q0 -138 -74.5 -247t-205.5 -169t-296 -60q-247 0 -436 129l164 254q114 -84 272 -84q102 0 175 48.5t73 121.5v39q-95 -82 -274 -82q-59 0 -113.5 12.5t-107.5 42.5t-92 76t-63 119.5t-24 165.5v578h328v-539
q0 -156 141 -156q66 0 122.5 36.5t82.5 88.5v570h328z" />
    <glyph glyph-name="endash" unicode="&#x2013;" horiz-adv-x="1269" 
d="M1178 473h-1086v260h1086v-260z" />
    <glyph glyph-name="emdash" unicode="&#x2014;" horiz-adv-x="1617" 
d="M1526 473h-1434v260h1434v-260z" />
    <glyph glyph-name="quoteleft" unicode="&#x2018;" horiz-adv-x="493" 
d="M145 1290l-114 -475h309l102 475h-297z" />
    <glyph glyph-name="quoteright" unicode="&#x2019;" horiz-adv-x="493" 
d="M348 815l115 475h-309l-103 -475h297z" />
    <glyph glyph-name="quotesinglbase" unicode="&#x201a;" horiz-adv-x="493" 
d="M348 -317l115 475h-309l-103 -475h297z" />
    <glyph glyph-name="quotedblleft" unicode="&#x201c;" horiz-adv-x="882" 
d="M145 1290l-114 -475h309l102 475h-297zM535 1290l-115 -475h309l102 475h-296z" />
    <glyph glyph-name="quotedblright" unicode="&#x201d;" horiz-adv-x="882" 
d="M348 815l115 475h-309l-103 -475h297zM737 815l115 475h-309l-103 -475h297z" />
    <glyph glyph-name="quotedblbase" unicode="&#x201e;" horiz-adv-x="882" 
d="M348 -317l115 475h-309l-103 -475h297zM737 -317l115 475h-309l-103 -475h297z" />
    <glyph glyph-name="dagger" unicode="&#x2020;" horiz-adv-x="706" 
d="M354 1315q31 0 52.5 -19t21.5 -49q0 -17 -11 -61t-14 -82q48 2 94 13t54 11q24 0 43.5 -17t19.5 -52q0 -31 -21.5 -50.5t-41.5 -19.5q-14 0 -58.5 11.5t-89.5 13.5q1 -98 8.5 -131.5t26.5 -59.5q-16 -21 -21 -30.5t-9.5 -38t-4.5 -82.5v-178h-98v178q-1 52 -6 82t-9 38
t-18 31q11 19 16 33t10 53t7 105q-45 -2 -90.5 -13.5t-58.5 -11.5q-21 0 -42.5 19.5t-21.5 50.5q0 34 21 51.5t43 17.5q8 0 54.5 -11t94.5 -13q-3 38 -13.5 82t-10.5 61q0 30 21 49t52 19z" />
    <glyph glyph-name="daggerdbl" unicode="&#x2021;" horiz-adv-x="708" 
d="M354 1315q31 0 52.5 -19t21.5 -49q0 -17 -11 -61t-14 -82q48 2 94 13t54 11q23 0 44 -17.5t21 -51.5q0 -31 -22 -50.5t-43 -19.5q-14 0 -58.5 11.5t-89.5 13.5q4 -59 33 -109q-1 -2 -6 -10.5t-6 -10.5t-5 -9.5t-5 -12t-3.5 -14t-3.5 -18.5t-2 -21.5t-2 -28.5
q48 2 94 13.5t54 11.5q23 0 44 -17.5t21 -52.5q0 -33 -21 -50t-44 -17q-14 0 -59 11t-89 13q3 -38 14 -82t11 -61q0 -27 -23 -47.5t-51 -20.5t-50.5 20.5t-22.5 47.5q0 17 10.5 61t13.5 82q-45 -2 -89.5 -13t-57.5 -11q-26 0 -46 16.5t-20 50.5t21.5 52t44.5 18
q8 0 53.5 -11.5t93.5 -13.5q-1 16 -2 28.5t-2 21.5t-3.5 18.5t-3.5 14t-5 12t-5 9.5t-6 10.5t-6 10.5q29 50 33 109q-45 -2 -89.5 -13.5t-57.5 -11.5q-22 0 -44 19.5t-22 50.5q0 34 21.5 51.5t44.5 17.5q8 0 53.5 -11t93.5 -13q-3 38 -13.5 82t-10.5 61q0 30 21 49t52 19z
" />
    <glyph glyph-name="bullet" unicode="&#x2022;" horiz-adv-x="661" 
d="M334 883q114 0 190 -75t76 -192t-76 -190.5t-190 -73.5q-118 0 -195.5 73.5t-77.5 190.5q0 118 77.5 192.5t195.5 74.5z" />
    <glyph glyph-name="ellipsis" unicode="&#x2026;" horiz-adv-x="1490" 
d="M233 336q75 0 129 -47t54 -133q0 -85 -54.5 -133t-128.5 -48q-73 0 -127.5 48.5t-54.5 132.5q0 85 54 132.5t128 47.5zM745 336q75 0 129 -47t54 -133q0 -85 -54.5 -133t-128.5 -48q-73 0 -127.5 48.5t-54.5 132.5q0 85 54 132.5t128 47.5zM1257 336q75 0 129 -47
t54 -133q0 -85 -54.5 -133t-128.5 -48q-73 0 -127.5 48.5t-54.5 132.5q0 85 54 132.5t128 47.5z" />
    <glyph glyph-name="perthousand" unicode="&#x2030;" horiz-adv-x="2443" 
d="M657 -57l-229 22l680 1432l213 -56zM352 1305q64 0 117 -21t89 -56t61.5 -82.5t37 -99t11.5 -106.5q0 -70 -19 -132.5t-56 -113.5t-99 -81.5t-142 -30.5q-78 0 -140 30t-99.5 81t-56.5 113.5t-19 131.5t19.5 133t57 117t99.5 85t139 32zM352 1079q-42 0 -54.5 -35.5
t-12.5 -109.5q0 -69 12.5 -99t54.5 -30q43 0 54.5 29.5t11.5 99.5q0 31 -1 49t-4.5 39t-10 31.5t-19.5 18t-31 7.5zM1407 711q79 0 141 -31.5t99 -84.5t56 -116.5t19 -132.5q0 -70 -18.5 -132.5t-55.5 -114t-99 -81.5t-142 -30q-78 0 -140 30t-99.5 81t-56.5 113.5
t-19 131.5t19.5 133t57 117t99.5 85t139 32zM2101 711q64 0 117 -21t89 -56t61.5 -82.5t37 -99t11.5 -106.5q0 -70 -19 -132.5t-56 -113.5t-99 -81.5t-142 -30.5q-78 0 -140 30t-99.5 81t-56.5 113.5t-19 131.5t19.5 133t57 117t99.5 85t139 32zM1407 485q-42 0 -55 -36
t-13 -109q0 -68 13 -98.5t55 -30.5q43 0 54.5 29.5t11.5 99.5q0 31 -1 49t-4.5 39t-10 31.5t-19.5 18t-31 7.5zM2101 485q-42 0 -54.5 -35.5t-12.5 -109.5q0 -69 12.5 -99t54.5 -30q43 0 54.5 29.5t11.5 99.5q0 31 -1 49t-4.5 39t-10 31.5t-19.5 18t-31 7.5z" />
    <glyph glyph-name="guilsinglleft" unicode="&#x2039;" horiz-adv-x="655" 
d="M563 895l-223 -307l223 -307l-203 -131l-309 423v29l309 424z" />
    <glyph glyph-name="guilsinglright" unicode="&#x203a;" horiz-adv-x="655" 
d="M604 602v-29l-309 -423l-203 131l223 307l-223 307l203 131z" />
    <glyph glyph-name="fraction" unicode="&#x2044;" horiz-adv-x="360" 
d="M-37 -57l-229 22l680 1432l213 -56z" />
    <glyph glyph-name="Euro" unicode="&#x20ac;" horiz-adv-x="1157" 
d="M860 412h-315q79 -113 250 -113q62 0 113.5 10.5t71.5 19t69 31.5l-5 -327q-114 -56 -260 -56q-137 0 -248.5 33t-188.5 93.5t-127.5 137t-78.5 171.5h-172l31 190h111v41v19h-103l31 192h98q26 99 75.5 180t126.5 145.5t190 100t253 35.5q168 0 351 -68l-105 -329
q-32 24 -96.5 46.5t-138.5 22.5q-180 0 -256 -133h383l-29 -192h-406v-29v-31h400z" />
    <glyph glyph-name="trademark" unicode="&#x2122;" horiz-adv-x="1294" 
d="M522 1108h-143v-293h-184v293h-144v182h471v-182zM1243 809h-184v256l-68 -186h-139l-68 186v-256h-184v481h256l66 -155l65 155h256v-481z" />
    <glyph glyph-name="product" unicode="&#x220f;" horiz-adv-x="1132" 
d="M1065 0h-320v975h-354v-975h-323v1290h997v-1290z" />
    <glyph glyph-name="summation" unicode="&#x2211;" horiz-adv-x="997" 
d="M893 1004h-385l291 -357l-291 -360h407v-287h-833v217l362 432l-362 422v219h811v-286z" />
    <glyph glyph-name="minus" unicode="&#x2212;" horiz-adv-x="1001" 
d="M934 471h-866v305h866v-305z" />
    <glyph glyph-name="radical" unicode="&#x221a;" horiz-adv-x="1161" 
d="M760 0h-414l-190 625h-105v284h352l154 -592l242 973h331z" />
    <glyph glyph-name="infinity" unicode="&#x221e;" horiz-adv-x="1263" 
d="M897 911q132 0 213.5 -78.5t81.5 -218.5t-81.5 -220.5t-213.5 -80.5q-79 0 -139.5 30t-124.5 89q-61 -58 -123.5 -88.5t-140.5 -30.5q-132 0 -214.5 80.5t-82.5 220.5q0 139 82.5 218t214.5 79q140 0 264 -114q63 57 124 85.5t140 28.5zM385 674q-23 0 -41 -15.5
t-18 -44.5q0 -30 18 -45.5t41 -15.5q67 0 131 61q-66 60 -131 60zM881 674q-61 0 -131 -60q67 -61 131 -61q22 0 39.5 15.5t17.5 45.5q0 28 -18 44t-39 16z" />
    <glyph glyph-name="integral" unicode="&#x222b;" horiz-adv-x="675" 
d="M508 1313q59 0 129 -18t111 -46l-113 -245q-52 30 -98 30q-26 0 -46 -19.5t-20 -56.5v-972q0 -97 -28.5 -167.5t-80 -110.5t-115.5 -58.5t-143 -18.5q-58 0 -127.5 18t-109.5 46l113 246q54 -31 98 -31q25 0 44 19.5t19 56.5v972q0 97 28.5 167.5t80 110.5t115.5 58.5
t143 18.5z" />
    <glyph glyph-name="approxequal" unicode="&#x2248;" horiz-adv-x="1050" 
d="M360 1026q52 0 120.5 -24t127 -48t86.5 -24q62 0 76 94l231 -76q-16 -119 -94.5 -211t-183.5 -92q-67 0 -133 24t-122 48t-99 24q-12 0 -23 -4.5t-18.5 -9.5t-17.5 -17t-14 -18t-14.5 -22.5t-13.5 -20.5l-219 107q19 52 45 96.5t63 85.5t89 64.5t114 23.5zM360 555
q52 0 120.5 -24t127 -48t86.5 -24q31 0 50.5 25t25.5 67l231 -74q-16 -120 -94.5 -212.5t-183.5 -92.5q-67 0 -133 24.5t-122 49t-99 24.5q-12 0 -23 -4.5t-18.5 -9.5t-17.5 -17t-14 -18t-14.5 -22.5t-13.5 -20.5l-219 107q19 52 45 96.5t63 85.5t89 64.5t114 23.5z" />
    <glyph glyph-name="notequal" unicode="&#x2260;" horiz-adv-x="1001" 
d="M698 717l-80 -187h316v-305h-449l-98 -225h-287l99 225h-131v305h262l82 187h-344v305h475l86 199h289l-87 -199h103v-305h-236z" />
    <glyph glyph-name="lessequal" unicode="&#x2264;" horiz-adv-x="1001" 
d="M934 866l-498 -110l498 -113v-299l-866 277v268l866 278v-301zM934 305v-305h-866v305h866z" />
    <glyph glyph-name="greaterequal" unicode="&#x2265;" horiz-adv-x="1001" 
d="M934 889v-268l-866 -277v299l497 113l-497 110v301zM934 0h-866v305h866v-305z" />
    <glyph glyph-name="lozenge" unicode="&#x25ca;" horiz-adv-x="1161" 
d="M1100 645l-371 -645h-297l-371 645l371 645h297zM395 645l187 -338l186 338l-186 340z" />
    <glyph glyph-name="i.loclTRK" 
d="M438 1360q0 -85 -54 -132.5t-128 -47.5q-73 0 -127.5 48t-54.5 132q0 85 54 132.5t128 47.5q75 0 128.5 -47t53.5 -133zM420 0h-328v1010h328v-1010z" />
    <glyph glyph-name="zero.dnom" horiz-adv-x="694" 
d="M352 711q64 0 117 -21t89 -56t61.5 -82.5t37 -99t11.5 -106.5q0 -70 -19 -132.5t-56 -113.5t-99 -81.5t-142 -30.5q-78 0 -140 30t-99.5 81t-56.5 113.5t-19 131.5t19.5 133t57 117t99.5 85t139 32zM352 485q-42 0 -54.5 -35.5t-12.5 -109.5q0 -69 12.5 -99t54.5 -30
q43 0 54.5 29.5t11.5 99.5q0 31 -1 49t-4.5 39t-10 31.5t-19.5 18t-31 7.5z" />
    <glyph glyph-name="one.dnom" horiz-adv-x="444" 
d="M375 0h-250v467h-107v229h357v-696z" />
    <glyph glyph-name="two.dnom" horiz-adv-x="727" 
d="M344 711q87 0 156.5 -25t115.5 -84t46 -145q0 -53 -23 -92.5t-58 -60t-75 -36t-75 -24t-58 -20.5t-23 -27v-4h291v-193h-578v139q0 64 26 113t65 75.5t84.5 47.5t84.5 33t65 29t26 38q0 20 -15 32.5t-41 12.5q-29 0 -46 -19.5t-17 -49.5h-240q0 46 16.5 90t49 83t90.5 63
t133 24z" />
    <glyph glyph-name="three.dnom" horiz-adv-x="692" 
d="M309 711q46 0 88.5 -6.5t84 -23t71.5 -41.5t49 -65.5t19 -91.5q0 -83 -60 -123q84 -49 84 -145q0 -74 -49 -127t-121.5 -76.5t-157.5 -23.5q-145 0 -222 70.5t-77 172.5h224q0 -55 84 -55q73 0 73 49q0 22 -18.5 31.5t-61.5 9.5h-106v154h94q72 0 72 51q0 21 -16.5 35
t-43.5 14q-34 0 -46.5 -16t-12.5 -51h-237q0 53 16 97.5t48.5 81.5t89 58t132.5 21z" />
    <glyph glyph-name="four.dnom" horiz-adv-x="724" 
d="M307 315h107v129h190v-129h76v-229h-76v-109h-190v109h-377v205l223 405h252z" />
    <glyph glyph-name="zero.numr" horiz-adv-x="694" 
d="M352 1305q64 0 117 -21t89 -56t61.5 -82.5t37 -99t11.5 -106.5q0 -70 -19 -132.5t-56 -113.5t-99 -81.5t-142 -30.5q-78 0 -140 30t-99.5 81t-56.5 113.5t-19 131.5t19.5 133t57 117t99.5 85t139 32zM352 1079q-42 0 -54.5 -35.5t-12.5 -109.5q0 -69 12.5 -99t54.5 -30
q43 0 54.5 29.5t11.5 99.5q0 31 -1 49t-4.5 39t-10 31.5t-19.5 18t-31 7.5z" />
    <glyph glyph-name="one.numr" horiz-adv-x="444" 
d="M375 594h-250v467h-107v229h357v-696z" />
    <glyph glyph-name="two.numr" horiz-adv-x="727" 
d="M344 1305q87 0 156.5 -25t115.5 -84t46 -145q0 -53 -23 -92.5t-58 -60t-75 -36t-75 -24t-58 -20.5t-23 -27v-5h291v-192h-578v139q0 64 26 113t65 75.5t84.5 47.5t84.5 33t65 29t26 38q0 20 -15 32.5t-41 12.5q-29 0 -46 -20t-17 -50h-240q0 36 9.5 71.5t32 70t55 61
t82.5 42.5t110 16z" />
    <glyph glyph-name="three.numr" horiz-adv-x="692" 
d="M309 1305q46 0 88.5 -6.5t84 -23t71.5 -41.5t49 -65.5t19 -91.5q0 -83 -60 -123q84 -49 84 -145q0 -74 -49 -127t-121.5 -76.5t-157.5 -23.5q-145 0 -222 70.5t-77 172.5h224q0 -55 84 -55q73 0 73 49q0 22 -18.5 31.5t-61.5 9.5h-106v154h94q72 0 72 51q0 21 -16.5 35
t-43.5 14q-34 0 -46.5 -16t-12.5 -51h-237q0 53 16 97.5t48.5 81.5t89 58t132.5 21z" />
    <glyph glyph-name="four.numr" horiz-adv-x="724" 
d="M307 909h107v129h190v-129h76v-229h-76v-109h-190v109h-377v205l223 405h252z" />
    <glyph glyph-name="CR" horiz-adv-x="286" 
 />
    <glyph glyph-name="null" horiz-adv-x="0" 
 />
    </font>
</defs>
</svg>
