<svg width="43" height="43" viewBox="0 0 43 43" fill="none" xmlns="http://www.w3.org/2000/svg">
<path d="M42.7223 19.9562L22.1182 0.247457C21.7721 -0.0824856 21.228 -0.0824856 20.8818 0.247457L0.277751 19.9562C0.101081 20.1244 0.000898399 20.3572 0 20.601V42.1012C0 42.3387 0.0944854 42.5667 0.262455 42.7347C0.430425 42.9026 0.658381 42.9971 0.895942 42.9971H42.1041C42.3416 42.9971 42.5696 42.9026 42.7375 42.7347C42.9055 42.5667 43 42.3387 43 42.1012V20.601C42.9991 20.3572 42.8989 20.1244 42.7222 19.9562H42.7223ZM14.9425 35.8302L11.6458 39.6821V31.9781L14.9425 35.8302ZM12.6939 30.4551H19.556L16.1249 34.4504L12.6939 30.4551ZM12.6939 41.2052L16.125 37.2096L19.5561 41.2052H12.6939ZM20.6044 39.6821L17.3076 35.8302L20.6044 31.978V39.6821ZM25.693 35.8302L22.3963 39.6821V31.9781L25.693 35.8302ZM23.4443 30.4551H30.3065L26.8754 34.4504L23.4443 30.4551ZM23.4443 41.2052L26.8754 37.2096L30.3066 41.2052H23.4443ZM31.3548 39.6821L28.0581 35.8302L31.3548 31.978V39.6821ZM31.3548 28.6633H11.6469V21.4967H31.3548V28.6633ZM41.2096 41.2055H33.147V20.6007C33.147 20.3632 33.0525 20.1355 32.8846 19.9672C32.7166 19.7993 32.4887 19.7051 32.2511 19.7051H10.7509C10.2563 19.7051 9.85499 20.1061 9.85499 20.6007V41.2055H1.79244V20.9862L21.5012 2.17355L41.2099 20.9862L41.2096 41.2055Z" fill="#FFEB00"/>
</svg>
