<svg width="35" height="40" viewBox="0 0 35 40" fill="none" xmlns="http://www.w3.org/2000/svg">
<path d="M34.3852 5.83325H26.0962V0.613999C26.0962 0.24566 25.8505 0 25.4822 0H9.70158C9.33324 0 9.08757 0.245653 9.08757 0.613999V5.83325H0.614C0.245661 5.83325 0 6.07891 0 6.44725V39.298C0 39.6663 0.245654 39.912 0.614 39.912H9.64047H34.386C34.7543 39.912 35 39.6663 35 39.298V6.44725C35 6.14025 34.7546 5.83325 34.386 5.83325H34.3852ZM8.90295 38.684H1.22759V7.06134H8.90295V38.684ZM10.3153 1.22775H24.8678V38.6833H21.4291L21.4294 29.4115C21.4294 29.0431 21.1838 28.7975 20.8154 28.7975H14.3679C13.9995 28.7975 13.7539 29.0431 13.7539 29.4115V38.6833H10.3152L10.3153 1.22775ZM14.9819 38.684V30.0259H20.2011V38.684H14.9819ZM33.7715 38.684H26.0962L26.0964 7.06134H33.7718L33.7715 38.684Z" fill="#FFEB00"/>
</svg>
