<svg width="35" height="40" viewBox="0 0 35 40" fill="none" xmlns="http://www.w3.org/2000/svg">
<path d="M12.2804 7.67519H16.026C16.3943 7.67519 16.64 7.42953 16.64 7.06119V3.49959C16.64 3.13125 16.3944 2.88559 16.026 2.88559H12.2804C11.912 2.88559 11.6664 3.13124 11.6664 3.49959V7.0609C11.6664 7.36818 11.912 7.67518 12.2804 7.67518V7.67519ZM12.8944 4.11359H15.412V6.44688H12.8944V4.11359Z" fill="#FFEB00"/>
<path d="M19.1576 7.67519H22.9032C23.2715 7.67519 23.5172 7.42953 23.5172 7.06119V3.49959C23.5172 3.13125 23.2715 2.88559 22.9032 2.88559H19.1576C18.7892 2.88559 18.5436 3.13124 18.5436 3.49959V7.0609C18.5436 7.36818 18.789 7.67518 19.1576 7.67518V7.67519ZM19.7716 4.11359H22.2892V6.44688H19.7716V4.11359Z" fill="#FFEB00"/>
<path d="M12.2804 13.7541H16.026C16.3943 13.7541 16.64 13.5084 16.64 13.1401V9.57878C16.64 9.21044 16.3944 8.96478 16.026 8.96478H12.2804C11.912 8.96478 11.6664 9.21044 11.6664 9.57878V13.1401C11.6664 13.4471 11.912 13.7541 12.2804 13.7541ZM12.8944 10.1925H15.412V12.5258H12.8944V10.1925Z" fill="#FFEB00"/>
<path d="M19.1576 13.7541H22.9032C23.2715 13.7541 23.5172 13.5084 23.5172 13.1401V9.57878C23.5172 9.21044 23.2715 8.96478 22.9032 8.96478H19.1576C18.7892 8.96478 18.5436 9.21044 18.5436 9.57878V13.1401C18.5436 13.4471 18.789 13.7541 19.1576 13.7541ZM19.7716 10.1925H22.2892V12.5258H19.7716V10.1925Z" fill="#FFEB00"/>
<path d="M12.2804 19.833H16.026C16.3943 19.833 16.64 19.5874 16.64 19.219V15.6574C16.64 15.2891 16.3944 15.0434 16.026 15.0434H12.2804C11.912 15.0434 11.6664 15.2891 11.6664 15.6574V19.2187C11.6664 19.5873 11.912 19.833 12.2804 19.833V19.833ZM12.8944 16.2714H15.412V18.6047H12.8944V16.2714Z" fill="#FFEB00"/>
<path d="M19.1576 19.833H22.9032C23.2715 19.833 23.5172 19.5874 23.5172 19.219V15.6574C23.5172 15.2891 23.2715 15.0434 22.9032 15.0434H19.1576C18.7892 15.0434 18.5436 15.2891 18.5436 15.6574V19.2187C18.5436 19.5873 18.789 19.833 19.1576 19.833V19.833ZM19.7716 16.2714H22.2892V18.6047H19.7716V16.2714Z" fill="#FFEB00"/>
<path d="M16.0261 25.9119C16.3945 25.9119 16.6401 25.6662 16.6401 25.2979V21.7366C16.6401 21.3682 16.3945 21.1226 16.0261 21.1226H12.2805C11.9122 21.1226 11.6665 21.3682 11.6665 21.7366V25.2979C11.6665 25.6662 11.9122 25.9119 12.2805 25.9119H16.0261ZM12.8945 22.3503H15.4122V24.6836H12.8945V22.3503Z" fill="#FFEB00"/>
<path d="M19.1576 25.9119H22.9032C23.2715 25.9119 23.5172 25.6662 23.5172 25.2979V21.7366C23.5172 21.3682 23.2715 21.1226 22.9032 21.1226H19.1576C18.7892 21.1226 18.5436 21.3682 18.5436 21.7366V25.2979C18.5436 25.6662 18.789 25.9119 19.1576 25.9119ZM19.7716 22.3503H22.2892V24.6836H19.7716V22.3503Z" fill="#FFEB00"/>
<path d="M34.3852 5.83325H26.0962V0.613999C26.0962 0.24566 25.8505 0 25.4822 0H9.70158C9.33324 0 9.08758 0.245653 9.08758 0.613999V5.83325H0.614C0.245661 5.83325 0 6.07891 0 6.44725V39.298C0 39.6663 0.245654 39.912 0.614 39.912H9.64047H34.386C34.7543 39.912 35 39.6663 35 39.298V6.44725C35 6.14025 34.7546 5.83325 34.386 5.83325H34.3852ZM8.90295 38.684H1.22759V7.06134H8.90295V38.684ZM10.3153 1.22775H24.8678V38.6833H21.4291L21.4294 29.4115C21.4294 29.0431 21.1838 28.7975 20.8154 28.7975H14.3679C13.9995 28.7975 13.7539 29.0431 13.7539 29.4115V38.6833H10.3152L10.3153 1.22775ZM14.9819 38.684V30.0259H20.2011V38.684H14.9819ZM33.7715 38.684H26.0962L26.0964 7.06134H33.7718L33.7715 38.684Z" fill="#FFEB00"/>
<path d="M27.8158 13.8771H32.0527C32.4211 13.8771 32.6667 13.6315 32.6667 13.2631V9.27188C32.6667 8.90354 32.4211 8.65788 32.0527 8.65788H27.8158C27.4474 8.65788 27.2018 8.90354 27.2018 9.27188V13.2631C27.2018 13.5701 27.5088 13.8771 27.8158 13.8771ZM28.4298 9.88588H31.4384V12.6492H28.4298V9.88588Z" fill="#FFEB00"/>
<path d="M27.8158 20.6312H32.0527C32.4211 20.6312 32.6667 20.3855 32.6667 20.0172V16.026C32.6667 15.6576 32.4211 15.412 32.0527 15.412H27.8158C27.4474 15.412 27.2018 15.6576 27.2018 16.026V20.0172C27.2018 20.3242 27.5088 20.6312 27.8158 20.6312ZM28.4298 16.6402H31.4384V19.4035H28.4298V16.6402Z" fill="#FFEB00"/>
<path d="M27.8158 27.386H32.0527C32.4211 27.386 32.6667 27.1404 32.6667 26.772V22.7808C32.6667 22.4124 32.4211 22.1668 32.0527 22.1668H27.8158C27.4474 22.1668 27.2018 22.4124 27.2018 22.7808V26.772C27.2018 27.079 27.5088 27.386 27.8158 27.386ZM28.4298 23.3948H31.4384V26.1581H28.4298V23.3948Z" fill="#FFEB00"/>
<path d="M27.8158 34.1402H32.0527C32.4211 34.1402 32.6667 33.8945 32.6667 33.5262V29.535C32.6667 29.1666 32.4211 28.921 32.0527 28.921H27.8158C27.4474 28.921 27.2018 29.1666 27.2018 29.535V33.5262C27.2018 33.8332 27.5088 34.1402 27.8158 34.1402ZM28.4298 30.1489H31.4384V32.9122H28.4298V30.1489Z" fill="#FFEB00"/>
<path d="M2.94713 13.8771H7.18406C7.5524 13.8771 7.79806 13.6315 7.79806 13.2631V9.27188C7.79806 8.90354 7.55241 8.65788 7.18406 8.65788H2.94713C2.57879 8.65788 2.33313 8.90354 2.33313 9.27188V13.2631C2.33313 13.5701 2.64013 13.8771 2.94713 13.8771ZM3.56113 9.88588H6.56976V12.6492H3.56113V9.88588Z" fill="#FFEB00"/>
<path d="M2.94713 20.6312H7.18406C7.5524 20.6312 7.79806 20.3855 7.79806 20.0172V16.026C7.79806 15.6576 7.55241 15.412 7.18406 15.412H2.94713C2.57879 15.412 2.33313 15.6576 2.33313 16.026V20.0172C2.33313 20.3242 2.64013 20.6312 2.94713 20.6312ZM3.56113 16.6402H6.56976V19.4035H3.56113V16.6402Z" fill="#FFEB00"/>
<path d="M2.94713 27.386H7.18406C7.5524 27.386 7.79806 27.1404 7.79806 26.772V22.7808C7.79806 22.4124 7.55241 22.1668 7.18406 22.1668H2.94713C2.57879 22.1668 2.33313 22.4124 2.33313 22.7808V26.772C2.33313 27.079 2.64013 27.386 2.94713 27.386ZM3.56113 23.3948H6.56976V26.1581H3.56113V23.3948Z" fill="#FFEB00"/>
<path d="M2.94713 34.1402H7.18406C7.5524 34.1402 7.79806 33.8945 7.79806 33.5262V29.535C7.79806 29.1666 7.55241 28.921 7.18406 28.921H2.94713C2.57879 28.921 2.33313 29.1666 2.33313 29.535V33.5262C2.33313 33.8332 2.64013 34.1402 2.94713 34.1402ZM3.56113 30.1489H6.56976V32.9122H3.56113V30.1489Z" fill="#FFEB00"/>
</svg>
