<svg width="40" height="40" viewBox="0 0 40 40" fill="none" xmlns="http://www.w3.org/2000/svg">
<path d="M38.6667 40H1.33333C0.979764 40 0.640472 39.8595 0.390476 39.6095C0.14048 39.3595 0 39.0202 0 38.6667V29.3333C0 28.9798 0.14048 28.6405 0.390476 28.3905C0.640472 28.1405 0.979764 28 1.33333 28H4V10.6667C4 10.3131 4.14048 9.97381 4.39048 9.72381C4.64047 9.47381 4.97976 9.33333 5.33333 9.33333H10.6667C11.0202 9.33333 11.3595 9.47381 11.6095 9.72381C11.8595 9.97381 12 10.3131 12 10.6667V28H13.3333V20C13.3333 19.6464 13.4738 19.3071 13.7238 19.0571C13.9738 18.8071 14.3131 18.6667 14.6667 18.6667H38.6667C39.0202 18.6667 39.3595 18.8071 39.6095 19.0571C39.8595 19.3071 40 19.6464 40 20V38.6667C40 39.0202 39.8595 39.3595 39.6095 39.6095C39.3595 39.8595 39.0202 40 38.6667 40ZM16 37.3333H37.3333V21.3333H16V37.3333ZM2.66667 37.3333H13.3333V30.6667H2.66667V37.3333ZM6.66667 28H9.33333V12H6.66667V28ZM32 30.6667C31.6464 30.6667 31.3071 30.5262 31.0571 30.2762C30.8071 30.0262 30.6667 29.6869 30.6667 29.3333V25.3333C30.6667 24.8568 30.9208 24.4167 31.3333 24.1786C31.7458 23.9405 32.2542 23.9405 32.6667 24.1786C33.0792 24.4167 33.3333 24.8569 33.3333 25.3333V29.3333C33.3333 29.6869 33.1929 30.0262 32.9429 30.2762C32.6929 30.5262 32.3536 30.6667 32 30.6667ZM26.6667 30.6667C26.3131 30.6667 25.9738 30.5262 25.7238 30.2762C25.4738 30.0262 25.3333 29.6869 25.3333 29.3333V25.3333C25.3333 24.8568 25.5875 24.4167 26 24.1786C26.4125 23.9405 26.9208 23.9405 27.3333 24.1786C27.7458 24.4167 28 24.8569 28 25.3333V29.3333C28 29.6869 27.8595 30.0262 27.6095 30.2762C27.3595 30.5262 27.0202 30.6667 26.6667 30.6667ZM21.3333 30.6667C20.9798 30.6667 20.6405 30.5262 20.3905 30.2762C20.1405 30.0262 20 29.6869 20 29.3333V25.3333C20 24.8568 20.2542 24.4167 20.6667 24.1786C21.0792 23.9405 21.5875 23.9405 22 24.1786C22.4125 24.4167 22.6667 24.8569 22.6667 25.3333V29.3333C22.6667 29.6869 22.5262 30.0262 22.2762 30.2762C22.0262 30.5262 21.6869 30.6667 21.3333 30.6667ZM17.3333 8C16.2723 8 15.2551 7.57858 14.5048 6.82857C13.7548 6.07827 13.3333 5.06103 13.3333 4C13.3333 3.64643 13.1929 3.30714 12.9429 3.05714C12.6929 2.80715 12.3536 2.66667 12 2.66667H10.6667C10.3131 2.66667 9.97381 2.80715 9.72381 3.05714C9.47381 3.30714 9.33333 3.64643 9.33333 4V6.66667C9.33333 7.14315 9.07917 7.58331 8.66667 7.82141C8.25416 8.0595 7.74583 8.0595 7.33333 7.82141C6.92084 7.58331 6.66667 7.14314 6.66667 6.66667V4C6.66667 2.93897 7.08809 1.92175 7.8381 1.17143C8.5884 0.421425 9.60564 0 10.6667 0H12C13.061 0 14.0782 0.421425 14.8286 1.17143C15.5786 1.92173 16 2.93897 16 4C16 4.47649 16.2542 4.91665 16.6667 5.15474C17.0792 5.39284 17.5875 5.39284 18 5.15474C18.4125 4.91665 18.6667 4.47647 18.6667 4C18.6667 2.93897 19.0881 1.92175 19.8381 1.17143C20.5884 0.421425 21.6056 0 22.6667 0H37.3333C37.8098 0 38.25 0.254164 38.4881 0.666667C38.7262 1.07917 38.7262 1.5875 38.4881 2C38.25 2.4125 37.8098 2.66667 37.3333 2.66667H22.6667C22.3131 2.66667 21.9738 2.80715 21.7238 3.05714C21.4738 3.30714 21.3333 3.64643 21.3333 4C21.3333 5.06103 20.9119 6.07825 20.1619 6.82857C19.4116 7.57858 18.3944 8 17.3333 8Z" fill="#FFEB00"/>
</svg>
