<svg width="83" height="55" viewBox="0 0 83 55" fill="none" xmlns="http://www.w3.org/2000/svg">
<path d="M4.57764e-05 32.4431V20.8081H3.45219V26.4301C7.52573 23.9988 13.1258 26.1924 13.1258 32.1825C13.1258 36.0173 10.8243 38.9317 6.58969 38.9317C2.35506 38.9317 4.57764e-05 36.2398 4.57764e-05 32.451V32.4431ZM9.67362 32.1825C9.67362 28.4396 5.83801 27.5806 3.45219 29.8815V32.6041C3.45219 34.5906 4.49539 35.8177 6.58969 35.8177C8.68399 35.8177 9.65827 34.2838 9.65827 32.2053L9.67362 32.1825ZM34.3144 38.625V37.3749C33.7779 37.8976 33.1391 38.3037 32.4381 38.5677C31.7371 38.8317 30.9889 38.9479 30.2408 38.9089C27.2643 38.9089 24.8247 36.815 24.8247 32.773C24.8247 25.318 32.6188 24.1369 37.7894 26.4915V38.5789L34.3144 38.625ZM34.3144 28.9456C30.2639 27.6111 28.2769 30.1499 28.2769 32.6656C28.2769 34.5523 29.1975 35.9331 31.0233 35.9331C32.5576 35.9331 33.7697 34.6752 34.3144 33.7625V28.9456ZM23.7736 25.4175C20.7719 25.3989 17.8243 26.2143 15.2586 27.7723V38.6329H18.6801V30.0118C20.2543 29.2063 22.006 28.8106 23.7736 28.8614V25.4175ZM61.1798 38.6329H64.6319V20.7085H61.1798V38.6329ZM69.4341 23.4311C69.1706 23.4439 68.9075 23.4022 68.6609 23.3087C68.4144 23.2151 68.1899 23.0716 68.0013 22.8873C67.8126 22.7031 67.6642 22.4819 67.5649 22.2376C67.4656 21.9933 67.4178 21.7312 67.4244 21.4676C67.4157 21.2024 67.4618 20.9385 67.56 20.692C67.6582 20.4455 67.8062 20.222 67.9949 20.0355C68.1836 19.849 68.4091 19.7032 68.6568 19.6078C68.9044 19.5125 69.1689 19.4695 69.4341 19.4813C69.7004 19.466 69.9669 19.5067 70.2166 19.6007C70.4662 19.6947 70.6936 19.8401 70.8837 20.0273C71.0738 20.2144 71.2226 20.439 71.3204 20.6871C71.4183 20.9353 71.4631 21.2011 71.4519 21.4676C71.4598 21.7322 71.4123 21.9956 71.313 22.2409C71.2136 22.4863 71.0644 22.7083 70.8747 22.893C70.685 23.0776 70.4589 23.2209 70.2109 23.3135C69.9629 23.4062 69.6984 23.4461 69.4341 23.4311ZM67.7158 25.732H71.1601V38.6329H67.7158V25.732ZM56.3698 23.4311C56.1057 23.4449 55.8415 23.404 55.594 23.3109C55.3465 23.2178 55.1212 23.0747 54.9317 22.8903C54.7423 22.7059 54.5928 22.4843 54.4931 22.2395C54.3934 21.9946 54.3456 21.7319 54.3523 21.4676C54.3435 21.2017 54.3899 20.9372 54.4886 20.6901C54.5873 20.4431 54.7358 20.2192 54.9254 20.0325C55.1149 19.8459 55.3413 19.7005 55.5899 19.6056C55.8384 19.5107 56.104 19.4684 56.3698 19.4813C56.6355 19.4671 56.9013 19.5088 57.15 19.6033C57.3987 19.6979 57.6249 19.8433 57.8141 20.0303C58.0034 20.2173 58.1513 20.4415 58.2487 20.689C58.3461 20.9366 58.3908 21.2018 58.3798 21.4676C58.3887 21.7318 58.3422 21.9952 58.2438 22.2406C58.1453 22.4859 57.9969 22.7078 57.8078 22.8926C57.6187 23.0773 57.3931 23.2208 57.1455 23.3135C56.8979 23.4062 56.6337 23.4462 56.3698 23.4311ZM54.6437 25.732H58.0958V38.6329H54.6437V25.732ZM77.7576 25.732V22.1428H74.2519V34.2302C74.2519 38.5176 77.9113 39.599 81.9848 38.5789V35.6185C80.0746 36.0097 77.6962 36.0942 77.6962 33.8392V28.6543H81.6548V25.7246L77.7576 25.732ZM46.1897 25.5557C42.6609 25.5557 40.4054 27.2352 40.4054 29.6358C40.4054 34.4678 48.568 33.1947 48.568 34.9358C48.568 35.7028 47.54 36.163 46.0747 36.163C44.6095 36.163 43.589 35.5263 43.589 34.8283H40.229C40.229 36.9375 42.2314 38.9549 46.1208 38.9549C50.1253 38.9549 52.258 37.0219 52.258 34.8437C52.258 30.0117 44.0419 31.5842 44.0419 29.5287C44.0419 28.5393 45.3459 28.2401 46.1744 28.2401C47.4478 28.2401 48.3915 28.9226 48.3915 29.6358H51.9355C51.9355 26.7673 49.3428 25.5557 46.2358 25.5557H46.1897ZM41.0269 3.5893C59.8833 3.5893 59.8067 16.6893 78.5787 16.6893H82.0309V0.0307922H4.57764e-05V16.6893H3.45219C22.2242 16.6893 22.1474 3.5893 40.9962 3.5893H41.0269ZM4.57764e-05 43.8175H82.0002V42.0918H4.57764e-05V43.8175Z" fill="#E42313"/>
<path d="M67.3937 51.8555C67.5985 51.7029 67.7637 51.5034 67.8758 51.2739C67.9879 51.0445 68.0434 50.7915 68.038 50.5362C68.0626 50.2401 67.9878 49.9445 67.8252 49.6958C67.6626 49.4471 67.4216 49.2599 67.1405 49.1636C67.3263 49.0625 67.4797 48.9108 67.5829 48.7262C67.6861 48.5416 67.7346 48.3314 67.7233 48.1203C67.7212 47.9269 67.681 47.7359 67.6046 47.5581C67.5282 47.3804 67.4172 47.2194 67.2783 47.0848C67.052 46.9094 66.7931 46.7814 66.5164 46.7076C66.2398 46.6339 65.9512 46.6162 65.6676 46.6556H64.4016V52.1855H66.0359C66.5108 52.2089 66.9824 52.0943 67.3937 51.8555ZM65.3683 47.5604H66.0051C66.5575 47.5604 66.7723 47.8288 66.7723 48.151C66.7723 48.7492 66.1662 48.7494 65.9437 48.7494H65.3837L65.3683 47.5604ZM65.3683 49.6542H66.1355C66.2539 49.6317 66.3759 49.6376 66.4917 49.6711C66.6075 49.7045 66.7137 49.7645 66.8019 49.8467C66.89 49.9289 66.9578 50.0306 66.9993 50.1437C67.0407 50.2568 67.055 50.3783 67.0408 50.498C67.0408 51.0579 66.519 51.2189 66.1201 51.2189H65.3912L65.3683 49.6542ZM74.5205 46.6556H73.5462V52.1855H74.5205V46.6556ZM69.0044 52.1855L69.5262 50.7818H71.5669L72.0883 52.1855H73.1087L70.9148 46.6556H70.1476L67.9691 52.1855H69.0044ZM70.5387 48.1049L71.2141 49.8845H69.833L70.5387 48.1049ZM76.4537 48.3659L78.8008 52.2008H79.7141V46.6709H78.7473V50.2834L76.4459 46.6709H75.5176V52.2008H76.4841L76.4537 48.3659ZM54.9276 52.2926C55.6663 52.2825 56.3713 51.9826 56.8908 51.4574C57.4103 50.9323 57.7024 50.2243 57.7044 49.4857V49.3707H54.2908V50.268H56.4926C56.3702 50.5782 56.1595 50.8459 55.8869 51.038C55.6143 51.2301 55.2917 51.3381 54.9583 51.3492C54.7115 51.3453 54.4679 51.2926 54.2418 51.1938C54.0156 51.095 53.8111 50.952 53.6406 50.7736C53.47 50.5952 53.3366 50.3849 53.248 50.1546C53.1594 49.9242 53.1176 49.6784 53.1248 49.4318C53.1155 49.1874 53.1548 48.9438 53.2401 48.7146C53.3255 48.4854 53.455 48.2752 53.6218 48.0963C53.7886 47.9174 53.9894 47.7731 54.2122 47.672C54.4349 47.5708 54.6752 47.5147 54.9198 47.5068C55.1987 47.5042 55.4738 47.5732 55.7184 47.7076C55.9629 47.8419 56.1688 48.037 56.3162 48.2738H57.4744C57.2732 47.765 56.9248 47.3275 56.4739 47.0174C56.023 46.7073 55.4902 46.5386 54.943 46.5328C54.1915 46.5489 53.4764 46.8609 52.9536 47.4009C52.4307 47.9408 52.1422 48.6649 52.1505 49.4164C52.1454 49.7894 52.2142 50.1599 52.3527 50.5062C52.4913 50.8525 52.6968 51.168 52.9577 51.4346C53.2186 51.7012 53.5299 51.9133 53.8732 52.0593C54.2165 52.2052 54.5853 52.2821 54.9583 52.2851L54.9276 52.2926ZM40.1676 46.6477H39.1933V52.1776H40.1676V46.6477ZM34.6444 52.1776L35.1812 50.774H37.1604L37.6976 52.1776H38.6947L36.5008 46.6477H35.7337L33.5626 52.1776H34.6444ZM36.1787 48.0896L36.869 49.8767H35.4804L36.1787 48.0896ZM31.9362 51.3417C31.7245 51.3444 31.5196 51.2669 31.363 51.1245C31.2064 50.9822 31.1097 50.7856 31.0922 50.5747H30.1258C30.1496 51.0345 30.3507 51.4671 30.6869 51.7818C31.0231 52.0964 31.4682 52.2684 31.9287 52.2619C32.1653 52.2724 32.4014 52.2346 32.6228 52.1503C32.8441 52.0659 33.0461 51.937 33.2157 51.7717C33.3854 51.6064 33.5194 51.408 33.6094 51.1889C33.6994 50.9699 33.7434 50.7348 33.739 50.498C33.7213 50.0947 33.5653 49.7099 33.297 49.4082C33.0287 49.1064 32.6647 48.906 32.2662 48.8412C31.7215 48.6571 31.2919 48.5117 31.2919 48.0285C31.3056 47.8732 31.3785 47.7291 31.4956 47.6263C31.6128 47.5235 31.765 47.4696 31.9208 47.4761C32.0081 47.4688 32.0959 47.4791 32.1793 47.5061C32.2626 47.5331 32.3398 47.5763 32.4063 47.6334C32.4727 47.6905 32.527 47.7603 32.5662 47.8386C32.6054 47.917 32.6286 48.0022 32.6344 48.0896H33.6087C33.5889 47.6636 33.4056 47.2618 33.097 46.9676C32.7883 46.6733 32.378 46.5091 31.9515 46.5095C31.5255 46.5034 31.1145 46.6662 30.8083 46.9623C30.5021 47.2584 30.3257 47.6637 30.3176 48.0896C30.3176 49.2554 31.2535 49.4701 31.6601 49.6235C32.3275 49.892 32.7647 50.0456 32.7647 50.6055C32.757 50.7063 32.7293 50.8044 32.6834 50.8946C32.6376 50.9847 32.5743 51.0649 32.4973 51.1305C32.4203 51.1961 32.331 51.246 32.2347 51.2769C32.1384 51.3079 32.037 51.3194 31.9362 51.311V51.3417ZM0.0461194 54.9617H82.0459V54.2407H4.57764e-05L0.0461194 54.9617ZM61.0341 52.2544C61.4115 52.2554 61.7852 52.182 62.1342 52.0383C62.4832 51.8946 62.8004 51.6835 63.0677 51.417C63.3349 51.1505 63.547 50.8338 63.6917 50.4852C63.8364 50.1367 63.9108 49.763 63.9108 49.3857C63.9119 49.0077 63.8382 48.6333 63.694 48.2839C63.5497 47.9345 63.3376 47.6172 63.0703 47.3499C62.8029 47.0826 62.4856 46.8709 62.1361 46.7267C61.7866 46.5826 61.4121 46.5085 61.0341 46.5095C60.2711 46.5095 59.5392 46.8128 58.9997 47.3522C58.4602 47.8916 58.1573 48.6229 58.1573 49.3857C58.1593 50.1472 58.463 50.877 59.0023 51.4148C59.5416 51.9525 60.2724 52.2544 61.0341 52.2544ZM61.0341 47.4608C61.5434 47.4628 62.031 47.6666 62.3904 48.0274C62.7499 48.3882 62.9519 48.8765 62.9519 49.3857C62.9499 49.8936 62.747 50.3804 62.3878 50.7395C62.0286 51.0987 61.5421 51.3011 61.0341 51.3032C60.526 51.3011 60.0392 51.0987 59.6799 50.7395C59.3207 50.3804 59.1182 49.8936 59.1162 49.3857C59.1182 48.8771 59.3205 48.39 59.6796 48.0296C60.0386 47.6693 60.5253 47.4648 61.0341 47.4608ZM42.1087 48.3274L44.4101 52.1623H45.323V46.6324H44.3562V50.2448L42.0547 46.6324H41.0576V52.1623H42.0394L42.1087 48.3274ZM47.3176 52.1623H48.284V47.5604H49.734V46.6556H45.8983V47.5604H47.348L47.3176 52.1623ZM49.4655 50.2448H51.3601V49.3475H49.4347L49.4655 50.2448Z" fill="#646363"/>
</svg>
