<svg width="43" height="35" viewBox="0 0 43 35" fill="none" xmlns="http://www.w3.org/2000/svg">
<path d="M21.5291 0.000252081C21.7548 0.00512617 21.9652 0.0797371 22.1672 0.218459L42.5923 16.3435C43.0621 16.7211 43.1288 17.4174 42.7772 17.8721C42.4303 18.3202 41.6928 18.3922 41.2485 18.0401L21.4953 2.45255L1.74215 18.0401C1.29785 18.3922 0.580567 18.3176 0.230423 17.8721C-0.117139 17.4301 -0.079648 16.6956 0.398393 16.3435L8.05789 10.2966V1.0752H8.05827C8.05827 0.481306 8.5393 0.00029016 9.13317 0.00029016H13.4333C14.0268 0.00029016 14.5082 0.481325 14.5082 1.0752V5.20734L20.8239 0.218459C21.0631 0.0609898 21.3039 -0.00462383 21.5296 0.000252081H21.5291ZM12.3579 2.15007H10.2081V8.6L12.3579 6.90341V2.15007ZM34.933 14.4617L37.0828 16.1583V33.3248H37.0832C37.0832 33.9183 36.6017 34.3997 36.0083 34.3997H26.8708C26.2769 34.3997 25.7959 33.9183 25.7955 33.3248V27.9498C25.7955 25.5491 23.8965 23.6497 21.4954 23.6497C19.0947 23.6497 17.1953 25.5487 17.1953 27.9498V33.3248H17.1957C17.1957 33.9183 16.7143 34.3997 16.1208 34.3997H6.98295C6.38943 34.3997 5.90804 33.9183 5.90804 33.3248V16.1583L8.05785 14.4617V32.2492H15.0455V27.9491C15.0455 24.3944 17.9407 21.4992 21.4954 21.4992C25.0501 21.4992 27.9453 24.3944 27.9453 27.9491V32.2492H34.933L34.933 14.4617Z" fill="#FFEB00"/>
</svg>
